  0
SECTION
  2
HEADER
  9
$ANGBASE
  50
0.0
  9
$ANGDIR
  70
1
  9
$MEASUREMENT
  70
0
  0
ENDSEC
  0
SECTION
  2
TABLES
  0
TABLE
  2
LTYPE
  70
4
  0
LTYPE
  5
40F
  2
CONTINUOUS
  70
0
  3
Solid line
  72
65
  73
0
  40
0.0
  0
LTYPE
  5
410
  2
DASHDOT
 70
0
  3
Dash Dot ____ _ ____ _
 72
65
 73
4
 40
2.0
 49
1.25
 49
-0.25
 49
0.25
 49
-0.25
  0
LTYPE
  5
411
  2
DASHED
 70
0
  3
Dashed __ __ __ __ __
 72
65
 73
2
 40
0.75
 49
0.5
 49
-0.25
  0
LTYPE
  5
43B
  2
DOTTED
 70
0
  3
Dotted .  .  .  .
 72
65
 73
2
 40
0.2
 49
0.0
 49
-0.2
  0
ENDTAB
  0
TABLE
  2
STYLE
  70
4
  0
STYLE
  2
KICAD
  70
0
  40
0
  41
1
  42
1
  50
0
  71
0
  3
isocp.shx
  0
STYLE
  2
KICADB
  70
0
  40
0
  41
1
  42
1
  50
0
  71
0
  3
isocp.shx
  0
STYLE
  2
KICADI
  70
0
  40
0
  41
1
  42
1
  50
15
  71
0
  3
isocp.shx
  0
STYLE
  2
KICADBI
  70
0
  40
0
  41
1
  42
1
  50
15
  71
0
  3
isocp.shx
  0
ENDTAB
  0
TABLE
  2
LAYER
  70
1
  0
LAYER
  2
BLACK
  70
0
  62
7
  6
CONTINUOUS
  0
ENDTAB
  0
ENDSEC
  0
SECTION
  2
ENTITIES
0
LINE
8
BLACK
6
CONTINUOUS
10
5.32408
20
0.688267
11
5.32727
21
0.686133
0
LINE
8
BLACK
6
CONTINUOUS
10
5.32727
20
0.686133
11
5.32941
21
0.68294
0
LINE
8
BLACK
6
CONTINUOUS
10
5.32941
20
0.68294
11
5.33016
21
0.679173
0
LINE
8
BLACK
6
CONTINUOUS
10
5.33016
20
0.679173
11
5.33016
21
0.663425
0
LINE
8
BLACK
6
CONTINUOUS
10
5.33016
20
0.663425
11
5.32941
21
0.659659
0
LINE
8
BLACK
6
CONTINUOUS
10
5.32941
20
0.659659
11
5.32727
21
0.656465
0
LINE
8
BLACK
6
CONTINUOUS
10
5.32727
20
0.656465
11
5.32408
21
0.654332
0
LINE
8
BLACK
6
CONTINUOUS
10
5.32408
20
0.654332
11
5.32031
21
0.653583
0
LINE
8
BLACK
6
CONTINUOUS
10
5.32031
20
0.653583
11
5.30063
21
0.653583
0
LINE
8
BLACK
6
CONTINUOUS
10
5.30063
20
0.653583
11
5.29686
21
0.654332
0
LINE
8
BLACK
6
CONTINUOUS
10
5.29686
20
0.654332
11
5.29367
21
0.656465
0
LINE
8
BLACK
6
CONTINUOUS
10
5.29367
20
0.656465
11
5.29154
21
0.659659
0
LINE
8
BLACK
6
CONTINUOUS
10
5.29154
20
0.659659
11
5.29079
21
0.663425
0
LINE
8
BLACK
6
CONTINUOUS
10
5.29079
20
0.663425
11
5.29079
21
0.679173
0
LINE
8
BLACK
6
CONTINUOUS
10
5.29079
20
0.679173
11
5.29154
21
0.68294
0
LINE
8
BLACK
6
CONTINUOUS
10
5.29154
20
0.68294
11
5.29367
21
0.686133
0
LINE
8
BLACK
6
CONTINUOUS
10
5.29367
20
0.686133
11
5.29686
21
0.688267
0
LINE
8
BLACK
6
CONTINUOUS
10
5.29686
20
0.688267
11
5.30063
21
0.689016
0
LINE
8
BLACK
6
CONTINUOUS
10
5.30063
20
0.689016
11
5.32031
21
0.689016
0
LINE
8
BLACK
6
CONTINUOUS
10
5.32031
20
0.689016
11
5.32408
21
0.688267
0
LINE
8
BLACK
6
CONTINUOUS
10
5.32408
20
0.751259
11
5.32727
21
0.749125
0
LINE
8
BLACK
6
CONTINUOUS
10
5.32727
20
0.749125
11
5.32941
21
0.745932
0
LINE
8
BLACK
6
CONTINUOUS
10
5.32941
20
0.745932
11
5.33016
21
0.742165
0
LINE
8
BLACK
6
CONTINUOUS
10
5.33016
20
0.742165
11
5.33016
21
0.726417
0
LINE
8
BLACK
6
CONTINUOUS
10
5.33016
20
0.726417
11
5.32941
21
0.722651
0
LINE
8
BLACK
6
CONTINUOUS
10
5.32941
20
0.722651
11
5.32727
21
0.719458
0
LINE
8
BLACK
6
CONTINUOUS
10
5.32727
20
0.719458
11
5.32408
21
0.717324
0
LINE
8
BLACK
6
CONTINUOUS
10
5.32408
20
0.717324
11
5.32031
21
0.716575
0
LINE
8
BLACK
6
CONTINUOUS
10
5.32031
20
0.716575
11
5.30063
21
0.716575
0
LINE
8
BLACK
6
CONTINUOUS
10
5.30063
20
0.716575
11
5.29686
21
0.717324
0
LINE
8
BLACK
6
CONTINUOUS
10
5.29686
20
0.717324
11
5.29367
21
0.719458
0
LINE
8
BLACK
6
CONTINUOUS
10
5.29367
20
0.719458
11
5.29154
21
0.722651
0
LINE
8
BLACK
6
CONTINUOUS
10
5.29154
20
0.722651
11
5.29079
21
0.726417
0
LINE
8
BLACK
6
CONTINUOUS
10
5.29079
20
0.726417
11
5.29079
21
0.742165
0
LINE
8
BLACK
6
CONTINUOUS
10
5.29079
20
0.742165
11
5.29154
21
0.745932
0
LINE
8
BLACK
6
CONTINUOUS
10
5.29154
20
0.745932
11
5.29367
21
0.749125
0
LINE
8
BLACK
6
CONTINUOUS
10
5.29367
20
0.749125
11
5.29686
21
0.751259
0
LINE
8
BLACK
6
CONTINUOUS
10
5.29686
20
0.751259
11
5.30063
21
0.752008
0
LINE
8
BLACK
6
CONTINUOUS
10
5.30063
20
0.752008
11
5.32031
21
0.752008
0
LINE
8
BLACK
6
CONTINUOUS
10
5.32031
20
0.752008
11
5.32408
21
0.751259
0
LINE
8
BLACK
6
CONTINUOUS
10
5.32408
20
0.797519
11
5.32727
21
0.795385
0
LINE
8
BLACK
6
CONTINUOUS
10
5.32727
20
0.795385
11
5.32941
21
0.792192
0
LINE
8
BLACK
6
CONTINUOUS
10
5.32941
20
0.792192
11
5.33016
21
0.788425
0
LINE
8
BLACK
6
CONTINUOUS
10
5.33016
20
0.788425
11
5.33016
21
0.772677
0
LINE
8
BLACK
6
CONTINUOUS
10
5.33016
20
0.772677
11
5.32941
21
0.768911
0
LINE
8
BLACK
6
CONTINUOUS
10
5.32941
20
0.768911
11
5.32727
21
0.765717
0
LINE
8
BLACK
6
CONTINUOUS
10
5.32727
20
0.765717
11
5.32408
21
0.763584
0
LINE
8
BLACK
6
CONTINUOUS
10
5.32408
20
0.763584
11
5.32031
21
0.762835
0
LINE
8
BLACK
6
CONTINUOUS
10
5.32031
20
0.762835
11
5.30063
21
0.762835
0
LINE
8
BLACK
6
CONTINUOUS
10
5.30063
20
0.762835
11
5.29686
21
0.763584
0
LINE
8
BLACK
6
CONTINUOUS
10
5.29686
20
0.763584
11
5.29367
21
0.765717
0
LINE
8
BLACK
6
CONTINUOUS
10
5.29367
20
0.765717
11
5.29154
21
0.768911
0
LINE
8
BLACK
6
CONTINUOUS
10
5.29154
20
0.768911
11
5.29079
21
0.772677
0
LINE
8
BLACK
6
CONTINUOUS
10
5.29079
20
0.772677
11
5.29079
21
0.788425
0
LINE
8
BLACK
6
CONTINUOUS
10
5.29079
20
0.788425
11
5.29154
21
0.792192
0
LINE
8
BLACK
6
CONTINUOUS
10
5.29154
20
0.792192
11
5.29367
21
0.795385
0
LINE
8
BLACK
6
CONTINUOUS
10
5.29367
20
0.795385
11
5.29686
21
0.797519
0
LINE
8
BLACK
6
CONTINUOUS
10
5.29686
20
0.797519
11
5.30063
21
0.798268
0
LINE
8
BLACK
6
CONTINUOUS
10
5.30063
20
0.798268
11
5.32031
21
0.798268
0
LINE
8
BLACK
6
CONTINUOUS
10
5.32031
20
0.798268
11
5.32408
21
0.797519
0
LINE
8
BLACK
6
CONTINUOUS
10
5.32408
20
0.860511
11
5.32727
21
0.858377
0
LINE
8
BLACK
6
CONTINUOUS
10
5.32727
20
0.858377
11
5.32941
21
0.855184
0
LINE
8
BLACK
6
CONTINUOUS
10
5.32941
20
0.855184
11
5.33016
21
0.851417
0
LINE
8
BLACK
6
CONTINUOUS
10
5.33016
20
0.851417
11
5.33016
21
0.835669
0
LINE
8
BLACK
6
CONTINUOUS
10
5.33016
20
0.835669
11
5.32941
21
0.831903
0
LINE
8
BLACK
6
CONTINUOUS
10
5.32941
20
0.831903
11
5.32727
21
0.82871
0
LINE
8
BLACK
6
CONTINUOUS
10
5.32727
20
0.82871
11
5.32408
21
0.826576
0
LINE
8
BLACK
6
CONTINUOUS
10
5.32408
20
0.826576
11
5.32031
21
0.825827
0
LINE
8
BLACK
6
CONTINUOUS
10
5.32031
20
0.825827
11
5.30063
21
0.825827
0
LINE
8
BLACK
6
CONTINUOUS
10
5.30063
20
0.825827
11
5.29686
21
0.826576
0
LINE
8
BLACK
6
CONTINUOUS
10
5.29686
20
0.826576
11
5.29367
21
0.82871
0
LINE
8
BLACK
6
CONTINUOUS
10
5.29367
20
0.82871
11
5.29154
21
0.831903
0
LINE
8
BLACK
6
CONTINUOUS
10
5.29154
20
0.831903
11
5.29079
21
0.835669
0
LINE
8
BLACK
6
CONTINUOUS
10
5.29079
20
0.835669
11
5.29079
21
0.851417
0
LINE
8
BLACK
6
CONTINUOUS
10
5.29079
20
0.851417
11
5.29154
21
0.855184
0
LINE
8
BLACK
6
CONTINUOUS
10
5.29154
20
0.855184
11
5.29367
21
0.858377
0
LINE
8
BLACK
6
CONTINUOUS
10
5.29367
20
0.858377
11
5.29686
21
0.860511
0
LINE
8
BLACK
6
CONTINUOUS
10
5.29686
20
0.860511
11
5.30063
21
0.86126
0
LINE
8
BLACK
6
CONTINUOUS
10
5.30063
20
0.86126
11
5.32031
21
0.86126
0
LINE
8
BLACK
6
CONTINUOUS
10
5.32031
20
0.86126
11
5.32408
21
0.860511
0
LINE
8
BLACK
6
CONTINUOUS
10
5.32408
20
0.90677
11
5.32727
21
0.904637
0
LINE
8
BLACK
6
CONTINUOUS
10
5.32727
20
0.904637
11
5.32941
21
0.901444
0
LINE
8
BLACK
6
CONTINUOUS
10
5.32941
20
0.901444
11
5.33016
21
0.897677
0
LINE
8
BLACK
6
CONTINUOUS
10
5.33016
20
0.897677
11
5.33016
21
0.881929
0
LINE
8
BLACK
6
CONTINUOUS
10
5.33016
20
0.881929
11
5.32941
21
0.878163
0
LINE
8
BLACK
6
CONTINUOUS
10
5.32941
20
0.878163
11
5.32727
21
0.874969
0
LINE
8
BLACK
6
CONTINUOUS
10
5.32727
20
0.874969
11
5.32408
21
0.872836
0
LINE
8
BLACK
6
CONTINUOUS
10
5.32408
20
0.872836
11
5.32031
21
0.872087
0
LINE
8
BLACK
6
CONTINUOUS
10
5.32031
20
0.872087
11
5.30063
21
0.872087
0
LINE
8
BLACK
6
CONTINUOUS
10
5.30063
20
0.872087
11
5.29686
21
0.872836
0
LINE
8
BLACK
6
CONTINUOUS
10
5.29686
20
0.872836
11
5.29367
21
0.874969
0
LINE
8
BLACK
6
CONTINUOUS
10
5.29367
20
0.874969
11
5.29154
21
0.878163
0
LINE
8
BLACK
6
CONTINUOUS
10
5.29154
20
0.878163
11
5.29079
21
0.881929
0
LINE
8
BLACK
6
CONTINUOUS
10
5.29079
20
0.881929
11
5.29079
21
0.897677
0
LINE
8
BLACK
6
CONTINUOUS
10
5.29079
20
0.897677
11
5.29154
21
0.901444
0
LINE
8
BLACK
6
CONTINUOUS
10
5.29154
20
0.901444
11
5.29367
21
0.904637
0
LINE
8
BLACK
6
CONTINUOUS
10
5.29367
20
0.904637
11
5.29686
21
0.90677
0
LINE
8
BLACK
6
CONTINUOUS
10
5.29686
20
0.90677
11
5.30063
21
0.90752
0
LINE
8
BLACK
6
CONTINUOUS
10
5.30063
20
0.90752
11
5.32031
21
0.90752
0
LINE
8
BLACK
6
CONTINUOUS
10
5.32031
20
0.90752
11
5.32408
21
0.90677
0
LINE
8
BLACK
6
CONTINUOUS
10
5.32408
20
0.969763
11
5.32727
21
0.967629
0
LINE
8
BLACK
6
CONTINUOUS
10
5.32727
20
0.967629
11
5.32941
21
0.964436
0
LINE
8
BLACK
6
CONTINUOUS
10
5.32941
20
0.964436
11
5.33016
21
0.960669
0
LINE
8
BLACK
6
CONTINUOUS
10
5.33016
20
0.960669
11
5.33016
21
0.944921
0
LINE
8
BLACK
6
CONTINUOUS
10
5.33016
20
0.944921
11
5.32941
21
0.941155
0
LINE
8
BLACK
6
CONTINUOUS
10
5.32941
20
0.941155
11
5.32727
21
0.937962
0
LINE
8
BLACK
6
CONTINUOUS
10
5.32727
20
0.937962
11
5.32408
21
0.935828
0
LINE
8
BLACK
6
CONTINUOUS
10
5.32408
20
0.935828
11
5.32031
21
0.935079
0
LINE
8
BLACK
6
CONTINUOUS
10
5.32031
20
0.935079
11
5.30063
21
0.935079
0
LINE
8
BLACK
6
CONTINUOUS
10
5.30063
20
0.935079
11
5.29686
21
0.935828
0
LINE
8
BLACK
6
CONTINUOUS
10
5.29686
20
0.935828
11
5.29367
21
0.937962
0
LINE
8
BLACK
6
CONTINUOUS
10
5.29367
20
0.937962
11
5.29154
21
0.941155
0
LINE
8
BLACK
6
CONTINUOUS
10
5.29154
20
0.941155
11
5.29079
21
0.944921
0
LINE
8
BLACK
6
CONTINUOUS
10
5.29079
20
0.944921
11
5.29079
21
0.960669
0
LINE
8
BLACK
6
CONTINUOUS
10
5.29079
20
0.960669
11
5.29154
21
0.964436
0
LINE
8
BLACK
6
CONTINUOUS
10
5.29154
20
0.964436
11
5.29367
21
0.967629
0
LINE
8
BLACK
6
CONTINUOUS
10
5.29367
20
0.967629
11
5.29686
21
0.969763
0
LINE
8
BLACK
6
CONTINUOUS
10
5.29686
20
0.969763
11
5.30063
21
0.970512
0
LINE
8
BLACK
6
CONTINUOUS
10
5.30063
20
0.970512
11
5.32031
21
0.970512
0
LINE
8
BLACK
6
CONTINUOUS
10
5.32031
20
0.970512
11
5.32408
21
0.969763
0
LINE
8
BLACK
6
CONTINUOUS
10
5.16524
20
1.06137
11
5.16811
21
1.05945
0
LINE
8
BLACK
6
CONTINUOUS
10
5.16811
20
1.05945
11
5.17003
21
1.05658
0
LINE
8
BLACK
6
CONTINUOUS
10
5.17003
20
1.05658
11
5.17071
21
1.05319
0
LINE
8
BLACK
6
CONTINUOUS
10
5.17071
20
1.05319
11
5.17071
21
1.01972
0
LINE
8
BLACK
6
CONTINUOUS
10
5.17071
20
1.01972
11
5.17003
21
1.01633
0
LINE
8
BLACK
6
CONTINUOUS
10
5.17003
20
1.01633
11
5.16811
21
1.01346
0
LINE
8
BLACK
6
CONTINUOUS
10
5.16811
20
1.01346
11
5.16524
21
1.01154
0
LINE
8
BLACK
6
CONTINUOUS
10
5.16524
20
1.01154
11
5.16185
21
1.01087
0
LINE
8
BLACK
6
CONTINUOUS
10
5.16185
20
1.01087
11
5.14413
21
1.01087
0
LINE
8
BLACK
6
CONTINUOUS
10
5.14413
20
1.01087
11
5.14074
21
1.01154
0
LINE
8
BLACK
6
CONTINUOUS
10
5.14074
20
1.01154
11
5.13787
21
1.01346
0
LINE
8
BLACK
6
CONTINUOUS
10
5.13787
20
1.01346
11
5.13595
21
1.01633
0
LINE
8
BLACK
6
CONTINUOUS
10
5.13595
20
1.01633
11
5.13528
21
1.01972
0
LINE
8
BLACK
6
CONTINUOUS
10
5.13528
20
1.01972
11
5.13528
21
1.05319
0
LINE
8
BLACK
6
CONTINUOUS
10
5.13528
20
1.05319
11
5.13595
21
1.05658
0
LINE
8
BLACK
6
CONTINUOUS
10
5.13595
20
1.05658
11
5.13787
21
1.05945
0
LINE
8
BLACK
6
CONTINUOUS
10
5.13787
20
1.05945
11
5.14074
21
1.06137
0
LINE
8
BLACK
6
CONTINUOUS
10
5.14074
20
1.06137
11
5.14413
21
1.06205
0
LINE
8
BLACK
6
CONTINUOUS
10
5.14413
20
1.06205
11
5.16185
21
1.06205
0
LINE
8
BLACK
6
CONTINUOUS
10
5.16185
20
1.06205
11
5.16524
21
1.06137
0
LINE
8
BLACK
6
CONTINUOUS
10
5.1071
20
1.07526
11
5.10949
21
1.07366
0
LINE
8
BLACK
6
CONTINUOUS
10
5.10949
20
1.07366
11
5.11109
21
1.07127
0
LINE
8
BLACK
6
CONTINUOUS
10
5.11109
20
1.07127
11
5.11165
21
1.06844
0
LINE
8
BLACK
6
CONTINUOUS
10
5.11165
20
1.06844
11
5.11165
21
1.05368
0
LINE
8
BLACK
6
CONTINUOUS
10
5.11165
20
1.05368
11
5.11109
21
1.05086
0
LINE
8
BLACK
6
CONTINUOUS
10
5.11109
20
1.05086
11
5.10949
21
1.04846
0
LINE
8
BLACK
6
CONTINUOUS
10
5.10949
20
1.04846
11
5.1071
21
1.04686
0
LINE
8
BLACK
6
CONTINUOUS
10
5.1071
20
1.04686
11
5.10427
21
1.0463
0
LINE
8
BLACK
6
CONTINUOUS
10
5.10427
20
1.0463
11
5.04817
21
1.0463
0
LINE
8
BLACK
6
CONTINUOUS
10
5.04817
20
1.0463
11
5.04534
21
1.04686
0
LINE
8
BLACK
6
CONTINUOUS
10
5.04534
20
1.04686
11
5.04295
21
1.04846
0
LINE
8
BLACK
6
CONTINUOUS
10
5.04295
20
1.04846
11
5.04135
21
1.05086
0
LINE
8
BLACK
6
CONTINUOUS
10
5.04135
20
1.05086
11
5.04079
21
1.05368
0
LINE
8
BLACK
6
CONTINUOUS
10
5.04079
20
1.05368
11
5.04079
21
1.06844
0
LINE
8
BLACK
6
CONTINUOUS
10
5.04079
20
1.06844
11
5.04135
21
1.07127
0
LINE
8
BLACK
6
CONTINUOUS
10
5.04135
20
1.07127
11
5.04295
21
1.07366
0
LINE
8
BLACK
6
CONTINUOUS
10
5.04295
20
1.07366
11
5.04534
21
1.07526
0
LINE
8
BLACK
6
CONTINUOUS
10
5.04534
20
1.07526
11
5.04817
21
1.07583
0
LINE
8
BLACK
6
CONTINUOUS
10
5.04817
20
1.07583
11
5.10427
21
1.07583
0
LINE
8
BLACK
6
CONTINUOUS
10
5.10427
20
1.07583
11
5.1071
21
1.07526
0
LINE
8
BLACK
6
CONTINUOUS
10
5.10801
20
1.12065
11
5.10992
21
1.11937
0
LINE
8
BLACK
6
CONTINUOUS
10
5.10992
20
1.11937
11
5.1112
21
1.11746
0
LINE
8
BLACK
6
CONTINUOUS
10
5.1112
20
1.11746
11
5.11165
21
1.1152
0
LINE
8
BLACK
6
CONTINUOUS
10
5.11165
20
1.1152
11
5.11165
21
1.10339
0
LINE
8
BLACK
6
CONTINUOUS
10
5.11165
20
1.10339
11
5.1112
21
1.10113
0
LINE
8
BLACK
6
CONTINUOUS
10
5.1112
20
1.10113
11
5.10992
21
1.09921
0
LINE
8
BLACK
6
CONTINUOUS
10
5.10992
20
1.09921
11
5.10801
21
1.09793
0
LINE
8
BLACK
6
CONTINUOUS
10
5.10801
20
1.09793
11
5.10575
21
1.09748
0
LINE
8
BLACK
6
CONTINUOUS
10
5.10575
20
1.09748
11
5.04669
21
1.09748
0
LINE
8
BLACK
6
CONTINUOUS
10
5.04669
20
1.09748
11
5.04443
21
1.09793
0
LINE
8
BLACK
6
CONTINUOUS
10
5.04443
20
1.09793
11
5.04252
21
1.09921
0
LINE
8
BLACK
6
CONTINUOUS
10
5.04252
20
1.09921
11
5.04124
21
1.10113
0
LINE
8
BLACK
6
CONTINUOUS
10
5.04124
20
1.10113
11
5.04079
21
1.10339
0
LINE
8
BLACK
6
CONTINUOUS
10
5.04079
20
1.10339
11
5.04079
21
1.1152
0
LINE
8
BLACK
6
CONTINUOUS
10
5.04079
20
1.1152
11
5.04124
21
1.11746
0
LINE
8
BLACK
6
CONTINUOUS
10
5.04124
20
1.11746
11
5.04252
21
1.11937
0
LINE
8
BLACK
6
CONTINUOUS
10
5.04252
20
1.11937
11
5.04443
21
1.12065
0
LINE
8
BLACK
6
CONTINUOUS
10
5.04443
20
1.12065
11
5.04669
21
1.1211
0
LINE
8
BLACK
6
CONTINUOUS
10
5.04669
20
1.1211
11
5.10575
21
1.1211
0
LINE
8
BLACK
6
CONTINUOUS
10
5.10575
20
1.1211
11
5.10801
21
1.12065
0
LINE
8
BLACK
6
CONTINUOUS
10
5.1071
20
1.17172
11
5.10949
21
1.17012
0
LINE
8
BLACK
6
CONTINUOUS
10
5.10949
20
1.17012
11
5.11109
21
1.16773
0
LINE
8
BLACK
6
CONTINUOUS
10
5.11109
20
1.16773
11
5.11165
21
1.1649
0
LINE
8
BLACK
6
CONTINUOUS
10
5.11165
20
1.1649
11
5.11165
21
1.15014
0
LINE
8
BLACK
6
CONTINUOUS
10
5.11165
20
1.15014
11
5.11109
21
1.14731
0
LINE
8
BLACK
6
CONTINUOUS
10
5.11109
20
1.14731
11
5.10949
21
1.14492
0
LINE
8
BLACK
6
CONTINUOUS
10
5.10949
20
1.14492
11
5.1071
21
1.14332
0
LINE
8
BLACK
6
CONTINUOUS
10
5.1071
20
1.14332
11
5.10427
21
1.14276
0
LINE
8
BLACK
6
CONTINUOUS
10
5.10427
20
1.14276
11
5.04817
21
1.14276
0
LINE
8
BLACK
6
CONTINUOUS
10
5.04817
20
1.14276
11
5.04534
21
1.14332
0
LINE
8
BLACK
6
CONTINUOUS
10
5.04534
20
1.14332
11
5.04295
21
1.14492
0
LINE
8
BLACK
6
CONTINUOUS
10
5.04295
20
1.14492
11
5.04135
21
1.14731
0
LINE
8
BLACK
6
CONTINUOUS
10
5.04135
20
1.14731
11
5.04079
21
1.15014
0
LINE
8
BLACK
6
CONTINUOUS
10
5.04079
20
1.15014
11
5.04079
21
1.1649
0
LINE
8
BLACK
6
CONTINUOUS
10
5.04079
20
1.1649
11
5.04135
21
1.16773
0
LINE
8
BLACK
6
CONTINUOUS
10
5.04135
20
1.16773
11
5.04295
21
1.17012
0
LINE
8
BLACK
6
CONTINUOUS
10
5.04295
20
1.17012
11
5.04534
21
1.17172
0
LINE
8
BLACK
6
CONTINUOUS
10
5.04534
20
1.17172
11
5.04817
21
1.17228
0
LINE
8
BLACK
6
CONTINUOUS
10
5.04817
20
1.17228
11
5.10427
21
1.17228
0
LINE
8
BLACK
6
CONTINUOUS
10
5.10427
20
1.17228
11
5.1071
21
1.17172
0
LINE
8
BLACK
6
CONTINUOUS
10
5.16524
20
1.20704
11
5.16811
21
1.20512
0
LINE
8
BLACK
6
CONTINUOUS
10
5.16811
20
1.20512
11
5.17003
21
1.20225
0
LINE
8
BLACK
6
CONTINUOUS
10
5.17003
20
1.20225
11
5.17071
21
1.19886
0
LINE
8
BLACK
6
CONTINUOUS
10
5.17071
20
1.19886
11
5.17071
21
1.16539
0
LINE
8
BLACK
6
CONTINUOUS
10
5.17071
20
1.16539
11
5.17003
21
1.162
0
LINE
8
BLACK
6
CONTINUOUS
10
5.17003
20
1.162
11
5.16811
21
1.15913
0
LINE
8
BLACK
6
CONTINUOUS
10
5.16811
20
1.15913
11
5.16524
21
1.15721
0
LINE
8
BLACK
6
CONTINUOUS
10
5.16524
20
1.15721
11
5.16185
21
1.15654
0
LINE
8
BLACK
6
CONTINUOUS
10
5.16185
20
1.15654
11
5.14413
21
1.15654
0
LINE
8
BLACK
6
CONTINUOUS
10
5.14413
20
1.15654
11
5.14074
21
1.15721
0
LINE
8
BLACK
6
CONTINUOUS
10
5.14074
20
1.15721
11
5.13787
21
1.15913
0
LINE
8
BLACK
6
CONTINUOUS
10
5.13787
20
1.15913
11
5.13595
21
1.162
0
LINE
8
BLACK
6
CONTINUOUS
10
5.13595
20
1.162
11
5.13528
21
1.16539
0
LINE
8
BLACK
6
CONTINUOUS
10
5.13528
20
1.16539
11
5.13528
21
1.19886
0
LINE
8
BLACK
6
CONTINUOUS
10
5.13528
20
1.19886
11
5.13595
21
1.20225
0
LINE
8
BLACK
6
CONTINUOUS
10
5.13595
20
1.20225
11
5.13787
21
1.20512
0
LINE
8
BLACK
6
CONTINUOUS
10
5.13787
20
1.20512
11
5.14074
21
1.20704
0
LINE
8
BLACK
6
CONTINUOUS
10
5.14074
20
1.20704
11
5.14413
21
1.20772
0
LINE
8
BLACK
6
CONTINUOUS
10
5.14413
20
1.20772
11
5.16185
21
1.20772
0
LINE
8
BLACK
6
CONTINUOUS
10
5.16185
20
1.20772
11
5.16524
21
1.20704
0
LINE
8
BLACK
6
CONTINUOUS
10
5.16189
20
1.35074
11
5.16477
21
1.34882
0
LINE
8
BLACK
6
CONTINUOUS
10
5.16477
20
1.34882
11
5.16669
21
1.34595
0
LINE
8
BLACK
6
CONTINUOUS
10
5.16669
20
1.34595
11
5.16736
21
1.34256
0
LINE
8
BLACK
6
CONTINUOUS
10
5.16736
20
1.34256
11
5.16736
21
1.30909
0
LINE
8
BLACK
6
CONTINUOUS
10
5.16736
20
1.30909
11
5.16669
21
1.3057
0
LINE
8
BLACK
6
CONTINUOUS
10
5.16669
20
1.3057
11
5.16477
21
1.30283
0
LINE
8
BLACK
6
CONTINUOUS
10
5.16477
20
1.30283
11
5.16189
21
1.30091
0
LINE
8
BLACK
6
CONTINUOUS
10
5.16189
20
1.30091
11
5.1585
21
1.30024
0
LINE
8
BLACK
6
CONTINUOUS
10
5.1585
20
1.30024
11
5.14079
21
1.30024
0
LINE
8
BLACK
6
CONTINUOUS
10
5.14079
20
1.30024
11
5.1374
21
1.30091
0
LINE
8
BLACK
6
CONTINUOUS
10
5.1374
20
1.30091
11
5.13452
21
1.30283
0
LINE
8
BLACK
6
CONTINUOUS
10
5.13452
20
1.30283
11
5.1326
21
1.3057
0
LINE
8
BLACK
6
CONTINUOUS
10
5.1326
20
1.3057
11
5.13193
21
1.30909
0
LINE
8
BLACK
6
CONTINUOUS
10
5.13193
20
1.30909
11
5.13193
21
1.34256
0
LINE
8
BLACK
6
CONTINUOUS
10
5.13193
20
1.34256
11
5.1326
21
1.34595
0
LINE
8
BLACK
6
CONTINUOUS
10
5.1326
20
1.34595
11
5.13452
21
1.34882
0
LINE
8
BLACK
6
CONTINUOUS
10
5.13452
20
1.34882
11
5.1374
21
1.35074
0
LINE
8
BLACK
6
CONTINUOUS
10
5.1374
20
1.35074
11
5.14079
21
1.35142
0
LINE
8
BLACK
6
CONTINUOUS
10
5.14079
20
1.35142
11
5.1585
21
1.35142
0
LINE
8
BLACK
6
CONTINUOUS
10
5.1585
20
1.35142
11
5.16189
21
1.35074
0
LINE
8
BLACK
6
CONTINUOUS
10
5.10375
20
1.36463
11
5.10614
21
1.36303
0
LINE
8
BLACK
6
CONTINUOUS
10
5.10614
20
1.36303
11
5.10775
21
1.36064
0
LINE
8
BLACK
6
CONTINUOUS
10
5.10775
20
1.36064
11
5.10831
21
1.35781
0
LINE
8
BLACK
6
CONTINUOUS
10
5.10831
20
1.35781
11
5.10831
21
1.34305
0
LINE
8
BLACK
6
CONTINUOUS
10
5.10831
20
1.34305
11
5.10775
21
1.34023
0
LINE
8
BLACK
6
CONTINUOUS
10
5.10775
20
1.34023
11
5.10614
21
1.33783
0
LINE
8
BLACK
6
CONTINUOUS
10
5.10614
20
1.33783
11
5.10375
21
1.33623
0
LINE
8
BLACK
6
CONTINUOUS
10
5.10375
20
1.33623
11
5.10093
21
1.33567
0
LINE
8
BLACK
6
CONTINUOUS
10
5.10093
20
1.33567
11
5.04482
21
1.33567
0
LINE
8
BLACK
6
CONTINUOUS
10
5.04482
20
1.33567
11
5.042
21
1.33623
0
LINE
8
BLACK
6
CONTINUOUS
10
5.042
20
1.33623
11
5.0396
21
1.33783
0
LINE
8
BLACK
6
CONTINUOUS
10
5.0396
20
1.33783
11
5.038
21
1.34023
0
LINE
8
BLACK
6
CONTINUOUS
10
5.038
20
1.34023
11
5.03744
21
1.34305
0
LINE
8
BLACK
6
CONTINUOUS
10
5.03744
20
1.34305
11
5.03744
21
1.35781
0
LINE
8
BLACK
6
CONTINUOUS
10
5.03744
20
1.35781
11
5.038
21
1.36064
0
LINE
8
BLACK
6
CONTINUOUS
10
5.038
20
1.36064
11
5.0396
21
1.36303
0
LINE
8
BLACK
6
CONTINUOUS
10
5.0396
20
1.36303
11
5.042
21
1.36463
0
LINE
8
BLACK
6
CONTINUOUS
10
5.042
20
1.36463
11
5.04482
21
1.3652
0
LINE
8
BLACK
6
CONTINUOUS
10
5.04482
20
1.3652
11
5.10093
21
1.3652
0
LINE
8
BLACK
6
CONTINUOUS
10
5.10093
20
1.3652
11
5.10375
21
1.36463
0
LINE
8
BLACK
6
CONTINUOUS
10
5.10466
20
1.41002
11
5.10658
21
1.40874
0
LINE
8
BLACK
6
CONTINUOUS
10
5.10658
20
1.40874
11
5.10786
21
1.40683
0
LINE
8
BLACK
6
CONTINUOUS
10
5.10786
20
1.40683
11
5.10831
21
1.40457
0
LINE
8
BLACK
6
CONTINUOUS
10
5.10831
20
1.40457
11
5.10831
21
1.39276
0
LINE
8
BLACK
6
CONTINUOUS
10
5.10831
20
1.39276
11
5.10786
21
1.3905
0
LINE
8
BLACK
6
CONTINUOUS
10
5.10786
20
1.3905
11
5.10658
21
1.38858
0
LINE
8
BLACK
6
CONTINUOUS
10
5.10658
20
1.38858
11
5.10466
21
1.3873
0
LINE
8
BLACK
6
CONTINUOUS
10
5.10466
20
1.3873
11
5.1024
21
1.38685
0
LINE
8
BLACK
6
CONTINUOUS
10
5.1024
20
1.38685
11
5.04335
21
1.38685
0
LINE
8
BLACK
6
CONTINUOUS
10
5.04335
20
1.38685
11
5.04109
21
1.3873
0
LINE
8
BLACK
6
CONTINUOUS
10
5.04109
20
1.3873
11
5.03917
21
1.38858
0
LINE
8
BLACK
6
CONTINUOUS
10
5.03917
20
1.38858
11
5.03789
21
1.3905
0
LINE
8
BLACK
6
CONTINUOUS
10
5.03789
20
1.3905
11
5.03744
21
1.39276
0
LINE
8
BLACK
6
CONTINUOUS
10
5.03744
20
1.39276
11
5.03744
21
1.40457
0
LINE
8
BLACK
6
CONTINUOUS
10
5.03744
20
1.40457
11
5.03789
21
1.40683
0
LINE
8
BLACK
6
CONTINUOUS
10
5.03789
20
1.40683
11
5.03917
21
1.40874
0
LINE
8
BLACK
6
CONTINUOUS
10
5.03917
20
1.40874
11
5.04109
21
1.41002
0
LINE
8
BLACK
6
CONTINUOUS
10
5.04109
20
1.41002
11
5.04335
21
1.41047
0
LINE
8
BLACK
6
CONTINUOUS
10
5.04335
20
1.41047
11
5.1024
21
1.41047
0
LINE
8
BLACK
6
CONTINUOUS
10
5.1024
20
1.41047
11
5.10466
21
1.41002
0
LINE
8
BLACK
6
CONTINUOUS
10
5.10375
20
1.46109
11
5.10614
21
1.45949
0
LINE
8
BLACK
6
CONTINUOUS
10
5.10614
20
1.45949
11
5.10775
21
1.4571
0
LINE
8
BLACK
6
CONTINUOUS
10
5.10775
20
1.4571
11
5.10831
21
1.45427
0
LINE
8
BLACK
6
CONTINUOUS
10
5.10831
20
1.45427
11
5.10831
21
1.43951
0
LINE
8
BLACK
6
CONTINUOUS
10
5.10831
20
1.43951
11
5.10775
21
1.43668
0
LINE
8
BLACK
6
CONTINUOUS
10
5.10775
20
1.43668
11
5.10614
21
1.43429
0
LINE
8
BLACK
6
CONTINUOUS
10
5.10614
20
1.43429
11
5.10375
21
1.43269
0
LINE
8
BLACK
6
CONTINUOUS
10
5.10375
20
1.43269
11
5.10093
21
1.43213
0
LINE
8
BLACK
6
CONTINUOUS
10
5.10093
20
1.43213
11
5.04482
21
1.43213
0
LINE
8
BLACK
6
CONTINUOUS
10
5.04482
20
1.43213
11
5.042
21
1.43269
0
LINE
8
BLACK
6
CONTINUOUS
10
5.042
20
1.43269
11
5.0396
21
1.43429
0
LINE
8
BLACK
6
CONTINUOUS
10
5.0396
20
1.43429
11
5.038
21
1.43668
0
LINE
8
BLACK
6
CONTINUOUS
10
5.038
20
1.43668
11
5.03744
21
1.43951
0
LINE
8
BLACK
6
CONTINUOUS
10
5.03744
20
1.43951
11
5.03744
21
1.45427
0
LINE
8
BLACK
6
CONTINUOUS
10
5.03744
20
1.45427
11
5.038
21
1.4571
0
LINE
8
BLACK
6
CONTINUOUS
10
5.038
20
1.4571
11
5.0396
21
1.45949
0
LINE
8
BLACK
6
CONTINUOUS
10
5.0396
20
1.45949
11
5.042
21
1.46109
0
LINE
8
BLACK
6
CONTINUOUS
10
5.042
20
1.46109
11
5.04482
21
1.46165
0
LINE
8
BLACK
6
CONTINUOUS
10
5.04482
20
1.46165
11
5.10093
21
1.46165
0
LINE
8
BLACK
6
CONTINUOUS
10
5.10093
20
1.46165
11
5.10375
21
1.46109
0
LINE
8
BLACK
6
CONTINUOUS
10
5.16189
20
1.49641
11
5.16477
21
1.49449
0
LINE
8
BLACK
6
CONTINUOUS
10
5.16477
20
1.49449
11
5.16669
21
1.49162
0
LINE
8
BLACK
6
CONTINUOUS
10
5.16669
20
1.49162
11
5.16736
21
1.48823
0
LINE
8
BLACK
6
CONTINUOUS
10
5.16736
20
1.48823
11
5.16736
21
1.45476
0
LINE
8
BLACK
6
CONTINUOUS
10
5.16736
20
1.45476
11
5.16669
21
1.45137
0
LINE
8
BLACK
6
CONTINUOUS
10
5.16669
20
1.45137
11
5.16477
21
1.4485
0
LINE
8
BLACK
6
CONTINUOUS
10
5.16477
20
1.4485
11
5.16189
21
1.44658
0
LINE
8
BLACK
6
CONTINUOUS
10
5.16189
20
1.44658
11
5.1585
21
1.44591
0
LINE
8
BLACK
6
CONTINUOUS
10
5.1585
20
1.44591
11
5.14079
21
1.44591
0
LINE
8
BLACK
6
CONTINUOUS
10
5.14079
20
1.44591
11
5.1374
21
1.44658
0
LINE
8
BLACK
6
CONTINUOUS
10
5.1374
20
1.44658
11
5.13452
21
1.4485
0
LINE
8
BLACK
6
CONTINUOUS
10
5.13452
20
1.4485
11
5.1326
21
1.45137
0
LINE
8
BLACK
6
CONTINUOUS
10
5.1326
20
1.45137
11
5.13193
21
1.45476
0
LINE
8
BLACK
6
CONTINUOUS
10
5.13193
20
1.45476
11
5.13193
21
1.48823
0
LINE
8
BLACK
6
CONTINUOUS
10
5.13193
20
1.48823
11
5.1326
21
1.49162
0
LINE
8
BLACK
6
CONTINUOUS
10
5.1326
20
1.49162
11
5.13452
21
1.49449
0
LINE
8
BLACK
6
CONTINUOUS
10
5.13452
20
1.49449
11
5.1374
21
1.49641
0
LINE
8
BLACK
6
CONTINUOUS
10
5.1374
20
1.49641
11
5.14079
21
1.49709
0
LINE
8
BLACK
6
CONTINUOUS
10
5.14079
20
1.49709
11
5.1585
21
1.49709
0
LINE
8
BLACK
6
CONTINUOUS
10
5.1585
20
1.49709
11
5.16189
21
1.49641
0
LINE
8
BLACK
6
CONTINUOUS
10
5.32113
20
1.62353
11
5.32432
21
1.62139
0
LINE
8
BLACK
6
CONTINUOUS
10
5.32432
20
1.62139
11
5.32646
21
1.6182
0
LINE
8
BLACK
6
CONTINUOUS
10
5.32646
20
1.6182
11
5.3272
21
1.61443
0
LINE
8
BLACK
6
CONTINUOUS
10
5.3272
20
1.61443
11
5.3272
21
1.59869
0
LINE
8
BLACK
6
CONTINUOUS
10
5.3272
20
1.59869
11
5.32646
21
1.59492
0
LINE
8
BLACK
6
CONTINUOUS
10
5.32646
20
1.59492
11
5.32432
21
1.59173
0
LINE
8
BLACK
6
CONTINUOUS
10
5.32432
20
1.59173
11
5.32113
21
1.58959
0
LINE
8
BLACK
6
CONTINUOUS
10
5.32113
20
1.58959
11
5.31736
21
1.58884
0
LINE
8
BLACK
6
CONTINUOUS
10
5.31736
20
1.58884
11
5.29768
21
1.58884
0
LINE
8
BLACK
6
CONTINUOUS
10
5.29768
20
1.58884
11
5.29391
21
1.58959
0
LINE
8
BLACK
6
CONTINUOUS
10
5.29391
20
1.58959
11
5.29072
21
1.59173
0
LINE
8
BLACK
6
CONTINUOUS
10
5.29072
20
1.59173
11
5.28858
21
1.59492
0
LINE
8
BLACK
6
CONTINUOUS
10
5.28858
20
1.59492
11
5.28783
21
1.59869
0
LINE
8
BLACK
6
CONTINUOUS
10
5.28783
20
1.59869
11
5.28783
21
1.61443
0
LINE
8
BLACK
6
CONTINUOUS
10
5.28783
20
1.61443
11
5.28858
21
1.6182
0
LINE
8
BLACK
6
CONTINUOUS
10
5.28858
20
1.6182
11
5.29072
21
1.62139
0
LINE
8
BLACK
6
CONTINUOUS
10
5.29072
20
1.62139
11
5.29391
21
1.62353
0
LINE
8
BLACK
6
CONTINUOUS
10
5.29391
20
1.62353
11
5.29768
21
1.62428
0
LINE
8
BLACK
6
CONTINUOUS
10
5.29768
20
1.62428
11
5.31736
21
1.62428
0
LINE
8
BLACK
6
CONTINUOUS
10
5.31736
20
1.62428
11
5.32113
21
1.62353
0
LINE
8
BLACK
6
CONTINUOUS
10
5.32113
20
1.68652
11
5.32432
21
1.68439
0
LINE
8
BLACK
6
CONTINUOUS
10
5.32432
20
1.68439
11
5.32646
21
1.68119
0
LINE
8
BLACK
6
CONTINUOUS
10
5.32646
20
1.68119
11
5.3272
21
1.67743
0
LINE
8
BLACK
6
CONTINUOUS
10
5.3272
20
1.67743
11
5.3272
21
1.66168
0
LINE
8
BLACK
6
CONTINUOUS
10
5.3272
20
1.66168
11
5.32646
21
1.65791
0
LINE
8
BLACK
6
CONTINUOUS
10
5.32646
20
1.65791
11
5.32432
21
1.65472
0
LINE
8
BLACK
6
CONTINUOUS
10
5.32432
20
1.65472
11
5.32113
21
1.65258
0
LINE
8
BLACK
6
CONTINUOUS
10
5.32113
20
1.65258
11
5.31736
21
1.65184
0
LINE
8
BLACK
6
CONTINUOUS
10
5.31736
20
1.65184
11
5.29768
21
1.65184
0
LINE
8
BLACK
6
CONTINUOUS
10
5.29768
20
1.65184
11
5.29391
21
1.65258
0
LINE
8
BLACK
6
CONTINUOUS
10
5.29391
20
1.65258
11
5.29072
21
1.65472
0
LINE
8
BLACK
6
CONTINUOUS
10
5.29072
20
1.65472
11
5.28858
21
1.65791
0
LINE
8
BLACK
6
CONTINUOUS
10
5.28858
20
1.65791
11
5.28783
21
1.66168
0
LINE
8
BLACK
6
CONTINUOUS
10
5.28783
20
1.66168
11
5.28783
21
1.67743
0
LINE
8
BLACK
6
CONTINUOUS
10
5.28783
20
1.67743
11
5.28858
21
1.68119
0
LINE
8
BLACK
6
CONTINUOUS
10
5.28858
20
1.68119
11
5.29072
21
1.68439
0
LINE
8
BLACK
6
CONTINUOUS
10
5.29072
20
1.68439
11
5.29391
21
1.68652
0
LINE
8
BLACK
6
CONTINUOUS
10
5.29391
20
1.68652
11
5.29768
21
1.68727
0
LINE
8
BLACK
6
CONTINUOUS
10
5.29768
20
1.68727
11
5.31736
21
1.68727
0
LINE
8
BLACK
6
CONTINUOUS
10
5.31736
20
1.68727
11
5.32113
21
1.68652
0
LINE
8
BLACK
6
CONTINUOUS
10
5.19318
20
1.73059
11
5.19637
21
1.72846
0
LINE
8
BLACK
6
CONTINUOUS
10
5.19637
20
1.72846
11
5.1985
21
1.72526
0
LINE
8
BLACK
6
CONTINUOUS
10
5.1985
20
1.72526
11
5.19925
21
1.7215
0
LINE
8
BLACK
6
CONTINUOUS
10
5.19925
20
1.7215
11
5.19925
21
1.68606
0
LINE
8
BLACK
6
CONTINUOUS
10
5.19925
20
1.68606
11
5.1985
21
1.6823
0
LINE
8
BLACK
6
CONTINUOUS
10
5.1985
20
1.6823
11
5.19637
21
1.6791
0
LINE
8
BLACK
6
CONTINUOUS
10
5.19637
20
1.6791
11
5.19318
21
1.67697
0
LINE
8
BLACK
6
CONTINUOUS
10
5.19318
20
1.67697
11
5.18941
21
1.67622
0
LINE
8
BLACK
6
CONTINUOUS
10
5.18941
20
1.67622
11
5.16874
21
1.67622
0
LINE
8
BLACK
6
CONTINUOUS
10
5.16874
20
1.67622
11
5.16497
21
1.67697
0
LINE
8
BLACK
6
CONTINUOUS
10
5.16497
20
1.67697
11
5.16178
21
1.6791
0
LINE
8
BLACK
6
CONTINUOUS
10
5.16178
20
1.6791
11
5.15965
21
1.6823
0
LINE
8
BLACK
6
CONTINUOUS
10
5.15965
20
1.6823
11
5.1589
21
1.68606
0
LINE
8
BLACK
6
CONTINUOUS
10
5.1589
20
1.68606
11
5.1589
21
1.7215
0
LINE
8
BLACK
6
CONTINUOUS
10
5.1589
20
1.7215
11
5.15965
21
1.72526
0
LINE
8
BLACK
6
CONTINUOUS
10
5.15965
20
1.72526
11
5.16178
21
1.72846
0
LINE
8
BLACK
6
CONTINUOUS
10
5.16178
20
1.72846
11
5.16497
21
1.73059
0
LINE
8
BLACK
6
CONTINUOUS
10
5.16497
20
1.73059
11
5.16874
21
1.73134
0
LINE
8
BLACK
6
CONTINUOUS
10
5.16874
20
1.73134
11
5.18941
21
1.73134
0
LINE
8
BLACK
6
CONTINUOUS
10
5.18941
20
1.73134
11
5.19318
21
1.73059
0
LINE
8
BLACK
6
CONTINUOUS
10
5.26503
20
1.73059
11
5.26822
21
1.72846
0
LINE
8
BLACK
6
CONTINUOUS
10
5.26822
20
1.72846
11
5.27035
21
1.72526
0
LINE
8
BLACK
6
CONTINUOUS
10
5.27035
20
1.72526
11
5.2711
21
1.7215
0
LINE
8
BLACK
6
CONTINUOUS
10
5.2711
20
1.7215
11
5.2711
21
1.68606
0
LINE
8
BLACK
6
CONTINUOUS
10
5.2711
20
1.68606
11
5.27035
21
1.6823
0
LINE
8
BLACK
6
CONTINUOUS
10
5.27035
20
1.6823
11
5.26822
21
1.6791
0
LINE
8
BLACK
6
CONTINUOUS
10
5.26822
20
1.6791
11
5.26503
21
1.67697
0
LINE
8
BLACK
6
CONTINUOUS
10
5.26503
20
1.67697
11
5.26126
21
1.67622
0
LINE
8
BLACK
6
CONTINUOUS
10
5.26126
20
1.67622
11
5.24059
21
1.67622
0
LINE
8
BLACK
6
CONTINUOUS
10
5.24059
20
1.67622
11
5.23682
21
1.67697
0
LINE
8
BLACK
6
CONTINUOUS
10
5.23682
20
1.67697
11
5.23363
21
1.6791
0
LINE
8
BLACK
6
CONTINUOUS
10
5.23363
20
1.6791
11
5.2315
21
1.6823
0
LINE
8
BLACK
6
CONTINUOUS
10
5.2315
20
1.6823
11
5.23075
21
1.68606
0
LINE
8
BLACK
6
CONTINUOUS
10
5.23075
20
1.68606
11
5.23075
21
1.7215
0
LINE
8
BLACK
6
CONTINUOUS
10
5.23075
20
1.7215
11
5.2315
21
1.72526
0
LINE
8
BLACK
6
CONTINUOUS
10
5.2315
20
1.72526
11
5.23363
21
1.72846
0
LINE
8
BLACK
6
CONTINUOUS
10
5.23363
20
1.72846
11
5.23682
21
1.73059
0
LINE
8
BLACK
6
CONTINUOUS
10
5.23682
20
1.73059
11
5.24059
21
1.73134
0
LINE
8
BLACK
6
CONTINUOUS
10
5.24059
20
1.73134
11
5.26126
21
1.73134
0
LINE
8
BLACK
6
CONTINUOUS
10
5.26126
20
1.73134
11
5.26503
21
1.73059
0
LINE
8
BLACK
6
CONTINUOUS
10
5.32113
20
1.73248
11
5.32432
21
1.73034
0
LINE
8
BLACK
6
CONTINUOUS
10
5.32432
20
1.73034
11
5.32646
21
1.72715
0
LINE
8
BLACK
6
CONTINUOUS
10
5.32646
20
1.72715
11
5.3272
21
1.72338
0
LINE
8
BLACK
6
CONTINUOUS
10
5.3272
20
1.72338
11
5.3272
21
1.70764
0
LINE
8
BLACK
6
CONTINUOUS
10
5.3272
20
1.70764
11
5.32646
21
1.70387
0
LINE
8
BLACK
6
CONTINUOUS
10
5.32646
20
1.70387
11
5.32432
21
1.70068
0
LINE
8
BLACK
6
CONTINUOUS
10
5.32432
20
1.70068
11
5.32113
21
1.69854
0
LINE
8
BLACK
6
CONTINUOUS
10
5.32113
20
1.69854
11
5.31736
21
1.69779
0
LINE
8
BLACK
6
CONTINUOUS
10
5.31736
20
1.69779
11
5.29768
21
1.69779
0
LINE
8
BLACK
6
CONTINUOUS
10
5.29768
20
1.69779
11
5.29391
21
1.69854
0
LINE
8
BLACK
6
CONTINUOUS
10
5.29391
20
1.69854
11
5.29072
21
1.70068
0
LINE
8
BLACK
6
CONTINUOUS
10
5.29072
20
1.70068
11
5.28858
21
1.70387
0
LINE
8
BLACK
6
CONTINUOUS
10
5.28858
20
1.70387
11
5.28783
21
1.70764
0
LINE
8
BLACK
6
CONTINUOUS
10
5.28783
20
1.70764
11
5.28783
21
1.72338
0
LINE
8
BLACK
6
CONTINUOUS
10
5.28783
20
1.72338
11
5.28858
21
1.72715
0
LINE
8
BLACK
6
CONTINUOUS
10
5.28858
20
1.72715
11
5.29072
21
1.73034
0
LINE
8
BLACK
6
CONTINUOUS
10
5.29072
20
1.73034
11
5.29391
21
1.73248
0
LINE
8
BLACK
6
CONTINUOUS
10
5.29391
20
1.73248
11
5.29768
21
1.73323
0
LINE
8
BLACK
6
CONTINUOUS
10
5.29768
20
1.73323
11
5.31736
21
1.73323
0
LINE
8
BLACK
6
CONTINUOUS
10
5.31736
20
1.73323
11
5.32113
21
1.73248
0
LINE
8
BLACK
6
CONTINUOUS
10
5.19219
20
1.80736
11
5.19538
21
1.80523
0
LINE
8
BLACK
6
CONTINUOUS
10
5.19538
20
1.80523
11
5.19752
21
1.80203
0
LINE
8
BLACK
6
CONTINUOUS
10
5.19752
20
1.80203
11
5.19827
21
1.79827
0
LINE
8
BLACK
6
CONTINUOUS
10
5.19827
20
1.79827
11
5.19827
21
1.76283
0
LINE
8
BLACK
6
CONTINUOUS
10
5.19827
20
1.76283
11
5.19752
21
1.75907
0
LINE
8
BLACK
6
CONTINUOUS
10
5.19752
20
1.75907
11
5.19538
21
1.75587
0
LINE
8
BLACK
6
CONTINUOUS
10
5.19538
20
1.75587
11
5.19219
21
1.75374
0
LINE
8
BLACK
6
CONTINUOUS
10
5.19219
20
1.75374
11
5.18843
21
1.75299
0
LINE
8
BLACK
6
CONTINUOUS
10
5.18843
20
1.75299
11
5.16776
21
1.75299
0
LINE
8
BLACK
6
CONTINUOUS
10
5.16776
20
1.75299
11
5.16399
21
1.75374
0
LINE
8
BLACK
6
CONTINUOUS
10
5.16399
20
1.75374
11
5.1608
21
1.75587
0
LINE
8
BLACK
6
CONTINUOUS
10
5.1608
20
1.75587
11
5.15866
21
1.75907
0
LINE
8
BLACK
6
CONTINUOUS
10
5.15866
20
1.75907
11
5.15791
21
1.76283
0
LINE
8
BLACK
6
CONTINUOUS
10
5.15791
20
1.76283
11
5.15791
21
1.79827
0
LINE
8
BLACK
6
CONTINUOUS
10
5.15791
20
1.79827
11
5.15866
21
1.80203
0
LINE
8
BLACK
6
CONTINUOUS
10
5.15866
20
1.80203
11
5.1608
21
1.80523
0
LINE
8
BLACK
6
CONTINUOUS
10
5.1608
20
1.80523
11
5.16399
21
1.80736
0
LINE
8
BLACK
6
CONTINUOUS
10
5.16399
20
1.80736
11
5.16776
21
1.80811
0
LINE
8
BLACK
6
CONTINUOUS
10
5.16776
20
1.80811
11
5.18843
21
1.80811
0
LINE
8
BLACK
6
CONTINUOUS
10
5.18843
20
1.80811
11
5.19219
21
1.80736
0
LINE
8
BLACK
6
CONTINUOUS
10
5.26404
20
1.80736
11
5.26724
21
1.80523
0
LINE
8
BLACK
6
CONTINUOUS
10
5.26724
20
1.80523
11
5.26937
21
1.80203
0
LINE
8
BLACK
6
CONTINUOUS
10
5.26937
20
1.80203
11
5.27012
21
1.79827
0
LINE
8
BLACK
6
CONTINUOUS
10
5.27012
20
1.79827
11
5.27012
21
1.76283
0
LINE
8
BLACK
6
CONTINUOUS
10
5.27012
20
1.76283
11
5.26937
21
1.75907
0
LINE
8
BLACK
6
CONTINUOUS
10
5.26937
20
1.75907
11
5.26724
21
1.75587
0
LINE
8
BLACK
6
CONTINUOUS
10
5.26724
20
1.75587
11
5.26404
21
1.75374
0
LINE
8
BLACK
6
CONTINUOUS
10
5.26404
20
1.75374
11
5.26028
21
1.75299
0
LINE
8
BLACK
6
CONTINUOUS
10
5.26028
20
1.75299
11
5.23961
21
1.75299
0
LINE
8
BLACK
6
CONTINUOUS
10
5.23961
20
1.75299
11
5.23584
21
1.75374
0
LINE
8
BLACK
6
CONTINUOUS
10
5.23584
20
1.75374
11
5.23265
21
1.75587
0
LINE
8
BLACK
6
CONTINUOUS
10
5.23265
20
1.75587
11
5.23051
21
1.75907
0
LINE
8
BLACK
6
CONTINUOUS
10
5.23051
20
1.75907
11
5.22976
21
1.76283
0
LINE
8
BLACK
6
CONTINUOUS
10
5.22976
20
1.76283
11
5.22976
21
1.79827
0
LINE
8
BLACK
6
CONTINUOUS
10
5.22976
20
1.79827
11
5.23051
21
1.80203
0
LINE
8
BLACK
6
CONTINUOUS
10
5.23051
20
1.80203
11
5.23265
21
1.80523
0
LINE
8
BLACK
6
CONTINUOUS
10
5.23265
20
1.80523
11
5.23584
21
1.80736
0
LINE
8
BLACK
6
CONTINUOUS
10
5.23584
20
1.80736
11
5.23961
21
1.80811
0
LINE
8
BLACK
6
CONTINUOUS
10
5.23961
20
1.80811
11
5.26028
21
1.80811
0
LINE
8
BLACK
6
CONTINUOUS
10
5.26028
20
1.80811
11
5.26404
21
1.80736
0
LINE
8
BLACK
6
CONTINUOUS
10
5.32113
20
1.79547
11
5.32432
21
1.79334
0
LINE
8
BLACK
6
CONTINUOUS
10
5.32432
20
1.79334
11
5.32646
21
1.79014
0
LINE
8
BLACK
6
CONTINUOUS
10
5.32646
20
1.79014
11
5.3272
21
1.78638
0
LINE
8
BLACK
6
CONTINUOUS
10
5.3272
20
1.78638
11
5.3272
21
1.77063
0
LINE
8
BLACK
6
CONTINUOUS
10
5.3272
20
1.77063
11
5.32646
21
1.76686
0
LINE
8
BLACK
6
CONTINUOUS
10
5.32646
20
1.76686
11
5.32432
21
1.76367
0
LINE
8
BLACK
6
CONTINUOUS
10
5.32432
20
1.76367
11
5.32113
21
1.76153
0
LINE
8
BLACK
6
CONTINUOUS
10
5.32113
20
1.76153
11
5.31736
21
1.76079
0
LINE
8
BLACK
6
CONTINUOUS
10
5.31736
20
1.76079
11
5.29768
21
1.76079
0
LINE
8
BLACK
6
CONTINUOUS
10
5.29768
20
1.76079
11
5.29391
21
1.76153
0
LINE
8
BLACK
6
CONTINUOUS
10
5.29391
20
1.76153
11
5.29072
21
1.76367
0
LINE
8
BLACK
6
CONTINUOUS
10
5.29072
20
1.76367
11
5.28858
21
1.76686
0
LINE
8
BLACK
6
CONTINUOUS
10
5.28858
20
1.76686
11
5.28783
21
1.77063
0
LINE
8
BLACK
6
CONTINUOUS
10
5.28783
20
1.77063
11
5.28783
21
1.78638
0
LINE
8
BLACK
6
CONTINUOUS
10
5.28783
20
1.78638
11
5.28858
21
1.79014
0
LINE
8
BLACK
6
CONTINUOUS
10
5.28858
20
1.79014
11
5.29072
21
1.79334
0
LINE
8
BLACK
6
CONTINUOUS
10
5.29072
20
1.79334
11
5.29391
21
1.79547
0
LINE
8
BLACK
6
CONTINUOUS
10
5.29391
20
1.79547
11
5.29768
21
1.79622
0
LINE
8
BLACK
6
CONTINUOUS
10
5.29768
20
1.79622
11
5.31736
21
1.79622
0
LINE
8
BLACK
6
CONTINUOUS
10
5.31736
20
1.79622
11
5.32113
21
1.79547
0
LINE
8
BLACK
6
CONTINUOUS
10
5.32113
20
1.84143
11
5.32432
21
1.83929
0
LINE
8
BLACK
6
CONTINUOUS
10
5.32432
20
1.83929
11
5.32646
21
1.8361
0
LINE
8
BLACK
6
CONTINUOUS
10
5.32646
20
1.8361
11
5.3272
21
1.83233
0
LINE
8
BLACK
6
CONTINUOUS
10
5.3272
20
1.83233
11
5.3272
21
1.81659
0
LINE
8
BLACK
6
CONTINUOUS
10
5.3272
20
1.81659
11
5.32646
21
1.81282
0
LINE
8
BLACK
6
CONTINUOUS
10
5.32646
20
1.81282
11
5.32432
21
1.80963
0
LINE
8
BLACK
6
CONTINUOUS
10
5.32432
20
1.80963
11
5.32113
21
1.80749
0
LINE
8
BLACK
6
CONTINUOUS
10
5.32113
20
1.80749
11
5.31736
21
1.80674
0
LINE
8
BLACK
6
CONTINUOUS
10
5.31736
20
1.80674
11
5.29768
21
1.80674
0
LINE
8
BLACK
6
CONTINUOUS
10
5.29768
20
1.80674
11
5.29391
21
1.80749
0
LINE
8
BLACK
6
CONTINUOUS
10
5.29391
20
1.80749
11
5.29072
21
1.80963
0
LINE
8
BLACK
6
CONTINUOUS
10
5.29072
20
1.80963
11
5.28858
21
1.81282
0
LINE
8
BLACK
6
CONTINUOUS
10
5.28858
20
1.81282
11
5.28783
21
1.81659
0
LINE
8
BLACK
6
CONTINUOUS
10
5.28783
20
1.81659
11
5.28783
21
1.83233
0
LINE
8
BLACK
6
CONTINUOUS
10
5.28783
20
1.83233
11
5.28858
21
1.8361
0
LINE
8
BLACK
6
CONTINUOUS
10
5.28858
20
1.8361
11
5.29072
21
1.83929
0
LINE
8
BLACK
6
CONTINUOUS
10
5.29072
20
1.83929
11
5.29391
21
1.84143
0
LINE
8
BLACK
6
CONTINUOUS
10
5.29391
20
1.84143
11
5.29768
21
1.84218
0
LINE
8
BLACK
6
CONTINUOUS
10
5.29768
20
1.84218
11
5.31736
21
1.84218
0
LINE
8
BLACK
6
CONTINUOUS
10
5.31736
20
1.84218
11
5.32113
21
1.84143
0
LINE
8
BLACK
6
CONTINUOUS
10
5.19121
20
1.88413
11
5.1944
21
1.882
0
LINE
8
BLACK
6
CONTINUOUS
10
5.1944
20
1.882
11
5.19653
21
1.87881
0
LINE
8
BLACK
6
CONTINUOUS
10
5.19653
20
1.87881
11
5.19728
21
1.87504
0
LINE
8
BLACK
6
CONTINUOUS
10
5.19728
20
1.87504
11
5.19728
21
1.83961
0
LINE
8
BLACK
6
CONTINUOUS
10
5.19728
20
1.83961
11
5.19653
21
1.83584
0
LINE
8
BLACK
6
CONTINUOUS
10
5.19653
20
1.83584
11
5.1944
21
1.83265
0
LINE
8
BLACK
6
CONTINUOUS
10
5.1944
20
1.83265
11
5.19121
21
1.83051
0
LINE
8
BLACK
6
CONTINUOUS
10
5.19121
20
1.83051
11
5.18744
21
1.82976
0
LINE
8
BLACK
6
CONTINUOUS
10
5.18744
20
1.82976
11
5.16677
21
1.82976
0
LINE
8
BLACK
6
CONTINUOUS
10
5.16677
20
1.82976
11
5.16301
21
1.83051
0
LINE
8
BLACK
6
CONTINUOUS
10
5.16301
20
1.83051
11
5.15981
21
1.83265
0
LINE
8
BLACK
6
CONTINUOUS
10
5.15981
20
1.83265
11
5.15768
21
1.83584
0
LINE
8
BLACK
6
CONTINUOUS
10
5.15768
20
1.83584
11
5.15693
21
1.83961
0
LINE
8
BLACK
6
CONTINUOUS
10
5.15693
20
1.83961
11
5.15693
21
1.87504
0
LINE
8
BLACK
6
CONTINUOUS
10
5.15693
20
1.87504
11
5.15768
21
1.87881
0
LINE
8
BLACK
6
CONTINUOUS
10
5.15768
20
1.87881
11
5.15981
21
1.882
0
LINE
8
BLACK
6
CONTINUOUS
10
5.15981
20
1.882
11
5.16301
21
1.88413
0
LINE
8
BLACK
6
CONTINUOUS
10
5.16301
20
1.88413
11
5.16677
21
1.88488
0
LINE
8
BLACK
6
CONTINUOUS
10
5.16677
20
1.88488
11
5.18744
21
1.88488
0
LINE
8
BLACK
6
CONTINUOUS
10
5.18744
20
1.88488
11
5.19121
21
1.88413
0
LINE
8
BLACK
6
CONTINUOUS
10
5.26306
20
1.88413
11
5.26625
21
1.882
0
LINE
8
BLACK
6
CONTINUOUS
10
5.26625
20
1.882
11
5.26838
21
1.87881
0
LINE
8
BLACK
6
CONTINUOUS
10
5.26838
20
1.87881
11
5.26913
21
1.87504
0
LINE
8
BLACK
6
CONTINUOUS
10
5.26913
20
1.87504
11
5.26913
21
1.83961
0
LINE
8
BLACK
6
CONTINUOUS
10
5.26913
20
1.83961
11
5.26838
21
1.83584
0
LINE
8
BLACK
6
CONTINUOUS
10
5.26838
20
1.83584
11
5.26625
21
1.83265
0
LINE
8
BLACK
6
CONTINUOUS
10
5.26625
20
1.83265
11
5.26306
21
1.83051
0
LINE
8
BLACK
6
CONTINUOUS
10
5.26306
20
1.83051
11
5.25929
21
1.82976
0
LINE
8
BLACK
6
CONTINUOUS
10
5.25929
20
1.82976
11
5.23862
21
1.82976
0
LINE
8
BLACK
6
CONTINUOUS
10
5.23862
20
1.82976
11
5.23486
21
1.83051
0
LINE
8
BLACK
6
CONTINUOUS
10
5.23486
20
1.83051
11
5.23166
21
1.83265
0
LINE
8
BLACK
6
CONTINUOUS
10
5.23166
20
1.83265
11
5.22953
21
1.83584
0
LINE
8
BLACK
6
CONTINUOUS
10
5.22953
20
1.83584
11
5.22878
21
1.83961
0
LINE
8
BLACK
6
CONTINUOUS
10
5.22878
20
1.83961
11
5.22878
21
1.87504
0
LINE
8
BLACK
6
CONTINUOUS
10
5.22878
20
1.87504
11
5.22953
21
1.87881
0
LINE
8
BLACK
6
CONTINUOUS
10
5.22953
20
1.87881
11
5.23166
21
1.882
0
LINE
8
BLACK
6
CONTINUOUS
10
5.23166
20
1.882
11
5.23486
21
1.88413
0
LINE
8
BLACK
6
CONTINUOUS
10
5.23486
20
1.88413
11
5.23862
21
1.88488
0
LINE
8
BLACK
6
CONTINUOUS
10
5.23862
20
1.88488
11
5.25929
21
1.88488
0
LINE
8
BLACK
6
CONTINUOUS
10
5.25929
20
1.88488
11
5.26306
21
1.88413
0
LINE
8
BLACK
6
CONTINUOUS
10
5.32113
20
1.90442
11
5.32432
21
1.90229
0
LINE
8
BLACK
6
CONTINUOUS
10
5.32432
20
1.90229
11
5.32646
21
1.89909
0
LINE
8
BLACK
6
CONTINUOUS
10
5.32646
20
1.89909
11
5.3272
21
1.89533
0
LINE
8
BLACK
6
CONTINUOUS
10
5.3272
20
1.89533
11
5.3272
21
1.87958
0
LINE
8
BLACK
6
CONTINUOUS
10
5.3272
20
1.87958
11
5.32646
21
1.87581
0
LINE
8
BLACK
6
CONTINUOUS
10
5.32646
20
1.87581
11
5.32432
21
1.87262
0
LINE
8
BLACK
6
CONTINUOUS
10
5.32432
20
1.87262
11
5.32113
21
1.87049
0
LINE
8
BLACK
6
CONTINUOUS
10
5.32113
20
1.87049
11
5.31736
21
1.86974
0
LINE
8
BLACK
6
CONTINUOUS
10
5.31736
20
1.86974
11
5.29768
21
1.86974
0
LINE
8
BLACK
6
CONTINUOUS
10
5.29768
20
1.86974
11
5.29391
21
1.87049
0
LINE
8
BLACK
6
CONTINUOUS
10
5.29391
20
1.87049
11
5.29072
21
1.87262
0
LINE
8
BLACK
6
CONTINUOUS
10
5.29072
20
1.87262
11
5.28858
21
1.87581
0
LINE
8
BLACK
6
CONTINUOUS
10
5.28858
20
1.87581
11
5.28783
21
1.87958
0
LINE
8
BLACK
6
CONTINUOUS
10
5.28783
20
1.87958
11
5.28783
21
1.89533
0
LINE
8
BLACK
6
CONTINUOUS
10
5.28783
20
1.89533
11
5.28858
21
1.89909
0
LINE
8
BLACK
6
CONTINUOUS
10
5.28858
20
1.89909
11
5.29072
21
1.90229
0
LINE
8
BLACK
6
CONTINUOUS
10
5.29072
20
1.90229
11
5.29391
21
1.90442
0
LINE
8
BLACK
6
CONTINUOUS
10
5.29391
20
1.90442
11
5.29768
21
1.90517
0
LINE
8
BLACK
6
CONTINUOUS
10
5.29768
20
1.90517
11
5.31736
21
1.90517
0
LINE
8
BLACK
6
CONTINUOUS
10
5.31736
20
1.90517
11
5.32113
21
1.90442
0
LINE
8
BLACK
6
CONTINUOUS
10
5.19022
20
1.9609
11
5.19342
21
1.95877
0
LINE
8
BLACK
6
CONTINUOUS
10
5.19342
20
1.95877
11
5.19555
21
1.95558
0
LINE
8
BLACK
6
CONTINUOUS
10
5.19555
20
1.95558
11
5.1963
21
1.95181
0
LINE
8
BLACK
6
CONTINUOUS
10
5.1963
20
1.95181
11
5.1963
21
1.91638
0
LINE
8
BLACK
6
CONTINUOUS
10
5.1963
20
1.91638
11
5.19555
21
1.91261
0
LINE
8
BLACK
6
CONTINUOUS
10
5.19555
20
1.91261
11
5.19342
21
1.90942
0
LINE
8
BLACK
6
CONTINUOUS
10
5.19342
20
1.90942
11
5.19022
21
1.90728
0
LINE
8
BLACK
6
CONTINUOUS
10
5.19022
20
1.90728
11
5.18646
21
1.90654
0
LINE
8
BLACK
6
CONTINUOUS
10
5.18646
20
1.90654
11
5.16579
21
1.90654
0
LINE
8
BLACK
6
CONTINUOUS
10
5.16579
20
1.90654
11
5.16202
21
1.90728
0
LINE
8
BLACK
6
CONTINUOUS
10
5.16202
20
1.90728
11
5.15883
21
1.90942
0
LINE
8
BLACK
6
CONTINUOUS
10
5.15883
20
1.90942
11
5.15669
21
1.91261
0
LINE
8
BLACK
6
CONTINUOUS
10
5.15669
20
1.91261
11
5.15594
21
1.91638
0
LINE
8
BLACK
6
CONTINUOUS
10
5.15594
20
1.91638
11
5.15594
21
1.95181
0
LINE
8
BLACK
6
CONTINUOUS
10
5.15594
20
1.95181
11
5.15669
21
1.95558
0
LINE
8
BLACK
6
CONTINUOUS
10
5.15669
20
1.95558
11
5.15883
21
1.95877
0
LINE
8
BLACK
6
CONTINUOUS
10
5.15883
20
1.95877
11
5.16202
21
1.9609
0
LINE
8
BLACK
6
CONTINUOUS
10
5.16202
20
1.9609
11
5.16579
21
1.96165
0
LINE
8
BLACK
6
CONTINUOUS
10
5.16579
20
1.96165
11
5.18646
21
1.96165
0
LINE
8
BLACK
6
CONTINUOUS
10
5.18646
20
1.96165
11
5.19022
21
1.9609
0
LINE
8
BLACK
6
CONTINUOUS
10
5.26207
20
1.9609
11
5.26527
21
1.95877
0
LINE
8
BLACK
6
CONTINUOUS
10
5.26527
20
1.95877
11
5.2674
21
1.95558
0
LINE
8
BLACK
6
CONTINUOUS
10
5.2674
20
1.95558
11
5.26815
21
1.95181
0
LINE
8
BLACK
6
CONTINUOUS
10
5.26815
20
1.95181
11
5.26815
21
1.91638
0
LINE
8
BLACK
6
CONTINUOUS
10
5.26815
20
1.91638
11
5.2674
21
1.91261
0
LINE
8
BLACK
6
CONTINUOUS
10
5.2674
20
1.91261
11
5.26527
21
1.90942
0
LINE
8
BLACK
6
CONTINUOUS
10
5.26527
20
1.90942
11
5.26207
21
1.90728
0
LINE
8
BLACK
6
CONTINUOUS
10
5.26207
20
1.90728
11
5.25831
21
1.90654
0
LINE
8
BLACK
6
CONTINUOUS
10
5.25831
20
1.90654
11
5.23764
21
1.90654
0
LINE
8
BLACK
6
CONTINUOUS
10
5.23764
20
1.90654
11
5.23387
21
1.90728
0
LINE
8
BLACK
6
CONTINUOUS
10
5.23387
20
1.90728
11
5.23068
21
1.90942
0
LINE
8
BLACK
6
CONTINUOUS
10
5.23068
20
1.90942
11
5.22854
21
1.91261
0
LINE
8
BLACK
6
CONTINUOUS
10
5.22854
20
1.91261
11
5.2278
21
1.91638
0
LINE
8
BLACK
6
CONTINUOUS
10
5.2278
20
1.91638
11
5.2278
21
1.95181
0
LINE
8
BLACK
6
CONTINUOUS
10
5.2278
20
1.95181
11
5.22854
21
1.95558
0
LINE
8
BLACK
6
CONTINUOUS
10
5.22854
20
1.95558
11
5.23068
21
1.95877
0
LINE
8
BLACK
6
CONTINUOUS
10
5.23068
20
1.95877
11
5.23387
21
1.9609
0
LINE
8
BLACK
6
CONTINUOUS
10
5.23387
20
1.9609
11
5.23764
21
1.96165
0
LINE
8
BLACK
6
CONTINUOUS
10
5.23764
20
1.96165
11
5.25831
21
1.96165
0
LINE
8
BLACK
6
CONTINUOUS
10
5.25831
20
1.96165
11
5.26207
21
1.9609
0
LINE
8
BLACK
6
CONTINUOUS
10
5.32113
20
1.95038
11
5.32432
21
1.94825
0
LINE
8
BLACK
6
CONTINUOUS
10
5.32432
20
1.94825
11
5.32646
21
1.94505
0
LINE
8
BLACK
6
CONTINUOUS
10
5.32646
20
1.94505
11
5.3272
21
1.94129
0
LINE
8
BLACK
6
CONTINUOUS
10
5.3272
20
1.94129
11
5.3272
21
1.92554
0
LINE
8
BLACK
6
CONTINUOUS
10
5.3272
20
1.92554
11
5.32646
21
1.92177
0
LINE
8
BLACK
6
CONTINUOUS
10
5.32646
20
1.92177
11
5.32432
21
1.91858
0
LINE
8
BLACK
6
CONTINUOUS
10
5.32432
20
1.91858
11
5.32113
21
1.91644
0
LINE
8
BLACK
6
CONTINUOUS
10
5.32113
20
1.91644
11
5.31736
21
1.91569
0
LINE
8
BLACK
6
CONTINUOUS
10
5.31736
20
1.91569
11
5.29768
21
1.91569
0
LINE
8
BLACK
6
CONTINUOUS
10
5.29768
20
1.91569
11
5.29391
21
1.91644
0
LINE
8
BLACK
6
CONTINUOUS
10
5.29391
20
1.91644
11
5.29072
21
1.91858
0
LINE
8
BLACK
6
CONTINUOUS
10
5.29072
20
1.91858
11
5.28858
21
1.92177
0
LINE
8
BLACK
6
CONTINUOUS
10
5.28858
20
1.92177
11
5.28783
21
1.92554
0
LINE
8
BLACK
6
CONTINUOUS
10
5.28783
20
1.92554
11
5.28783
21
1.94129
0
LINE
8
BLACK
6
CONTINUOUS
10
5.28783
20
1.94129
11
5.28858
21
1.94505
0
LINE
8
BLACK
6
CONTINUOUS
10
5.28858
20
1.94505
11
5.29072
21
1.94825
0
LINE
8
BLACK
6
CONTINUOUS
10
5.29072
20
1.94825
11
5.29391
21
1.95038
0
LINE
8
BLACK
6
CONTINUOUS
10
5.29391
20
1.95038
11
5.29768
21
1.95113
0
LINE
8
BLACK
6
CONTINUOUS
10
5.29768
20
1.95113
11
5.31736
21
1.95113
0
LINE
8
BLACK
6
CONTINUOUS
10
5.31736
20
1.95113
11
5.32113
21
1.95038
0
LINE
8
BLACK
6
CONTINUOUS
10
5.32113
20
2.01337
11
5.32432
21
2.01124
0
LINE
8
BLACK
6
CONTINUOUS
10
5.32432
20
2.01124
11
5.32646
21
2.00804
0
LINE
8
BLACK
6
CONTINUOUS
10
5.32646
20
2.00804
11
5.3272
21
2.00428
0
LINE
8
BLACK
6
CONTINUOUS
10
5.3272
20
2.00428
11
5.3272
21
1.98853
0
LINE
8
BLACK
6
CONTINUOUS
10
5.3272
20
1.98853
11
5.32646
21
1.98476
0
LINE
8
BLACK
6
CONTINUOUS
10
5.32646
20
1.98476
11
5.32432
21
1.98157
0
LINE
8
BLACK
6
CONTINUOUS
10
5.32432
20
1.98157
11
5.32113
21
1.97944
0
LINE
8
BLACK
6
CONTINUOUS
10
5.32113
20
1.97944
11
5.31736
21
1.97869
0
LINE
8
BLACK
6
CONTINUOUS
10
5.31736
20
1.97869
11
5.29768
21
1.97869
0
LINE
8
BLACK
6
CONTINUOUS
10
5.29768
20
1.97869
11
5.29391
21
1.97944
0
LINE
8
BLACK
6
CONTINUOUS
10
5.29391
20
1.97944
11
5.29072
21
1.98157
0
LINE
8
BLACK
6
CONTINUOUS
10
5.29072
20
1.98157
11
5.28858
21
1.98476
0
LINE
8
BLACK
6
CONTINUOUS
10
5.28858
20
1.98476
11
5.28783
21
1.98853
0
LINE
8
BLACK
6
CONTINUOUS
10
5.28783
20
1.98853
11
5.28783
21
2.00428
0
LINE
8
BLACK
6
CONTINUOUS
10
5.28783
20
2.00428
11
5.28858
21
2.00804
0
LINE
8
BLACK
6
CONTINUOUS
10
5.28858
20
2.00804
11
5.29072
21
2.01124
0
LINE
8
BLACK
6
CONTINUOUS
10
5.29072
20
2.01124
11
5.29391
21
2.01337
0
LINE
8
BLACK
6
CONTINUOUS
10
5.29391
20
2.01337
11
5.29768
21
2.01412
0
LINE
8
BLACK
6
CONTINUOUS
10
5.29768
20
2.01412
11
5.31736
21
2.01412
0
LINE
8
BLACK
6
CONTINUOUS
10
5.31736
20
2.01412
11
5.32113
21
2.01337
0
LINE
8
BLACK
6
CONTINUOUS
10
5.32113
20
2.05933
11
5.32432
21
2.0572
0
LINE
8
BLACK
6
CONTINUOUS
10
5.32432
20
2.0572
11
5.32646
21
2.054
0
LINE
8
BLACK
6
CONTINUOUS
10
5.32646
20
2.054
11
5.3272
21
2.05024
0
LINE
8
BLACK
6
CONTINUOUS
10
5.3272
20
2.05024
11
5.3272
21
2.03449
0
LINE
8
BLACK
6
CONTINUOUS
10
5.3272
20
2.03449
11
5.32646
21
2.03072
0
LINE
8
BLACK
6
CONTINUOUS
10
5.32646
20
2.03072
11
5.32432
21
2.02753
0
LINE
8
BLACK
6
CONTINUOUS
10
5.32432
20
2.02753
11
5.32113
21
2.02539
0
LINE
8
BLACK
6
CONTINUOUS
10
5.32113
20
2.02539
11
5.31736
21
2.02465
0
LINE
8
BLACK
6
CONTINUOUS
10
5.31736
20
2.02465
11
5.29768
21
2.02465
0
LINE
8
BLACK
6
CONTINUOUS
10
5.29768
20
2.02465
11
5.29391
21
2.02539
0
LINE
8
BLACK
6
CONTINUOUS
10
5.29391
20
2.02539
11
5.29072
21
2.02753
0
LINE
8
BLACK
6
CONTINUOUS
10
5.29072
20
2.02753
11
5.28858
21
2.03072
0
LINE
8
BLACK
6
CONTINUOUS
10
5.28858
20
2.03072
11
5.28783
21
2.03449
0
LINE
8
BLACK
6
CONTINUOUS
10
5.28783
20
2.03449
11
5.28783
21
2.05024
0
LINE
8
BLACK
6
CONTINUOUS
10
5.28783
20
2.05024
11
5.28858
21
2.054
0
LINE
8
BLACK
6
CONTINUOUS
10
5.28858
20
2.054
11
5.29072
21
2.0572
0
LINE
8
BLACK
6
CONTINUOUS
10
5.29072
20
2.0572
11
5.29391
21
2.05933
0
LINE
8
BLACK
6
CONTINUOUS
10
5.29391
20
2.05933
11
5.29768
21
2.06008
0
LINE
8
BLACK
6
CONTINUOUS
10
5.29768
20
2.06008
11
5.31736
21
2.06008
0
LINE
8
BLACK
6
CONTINUOUS
10
5.31736
20
2.06008
11
5.32113
21
2.05933
0
LINE
8
BLACK
6
CONTINUOUS
10
5.32113
20
2.12232
11
5.32432
21
2.12019
0
LINE
8
BLACK
6
CONTINUOUS
10
5.32432
20
2.12019
11
5.32646
21
2.11699
0
LINE
8
BLACK
6
CONTINUOUS
10
5.32646
20
2.11699
11
5.3272
21
2.11323
0
LINE
8
BLACK
6
CONTINUOUS
10
5.3272
20
2.11323
11
5.3272
21
2.09748
0
LINE
8
BLACK
6
CONTINUOUS
10
5.3272
20
2.09748
11
5.32646
21
2.09371
0
LINE
8
BLACK
6
CONTINUOUS
10
5.32646
20
2.09371
11
5.32432
21
2.09052
0
LINE
8
BLACK
6
CONTINUOUS
10
5.32432
20
2.09052
11
5.32113
21
2.08839
0
LINE
8
BLACK
6
CONTINUOUS
10
5.32113
20
2.08839
11
5.31736
21
2.08764
0
LINE
8
BLACK
6
CONTINUOUS
10
5.31736
20
2.08764
11
5.29768
21
2.08764
0
LINE
8
BLACK
6
CONTINUOUS
10
5.29768
20
2.08764
11
5.29391
21
2.08839
0
LINE
8
BLACK
6
CONTINUOUS
10
5.29391
20
2.08839
11
5.29072
21
2.09052
0
LINE
8
BLACK
6
CONTINUOUS
10
5.29072
20
2.09052
11
5.28858
21
2.09371
0
LINE
8
BLACK
6
CONTINUOUS
10
5.28858
20
2.09371
11
5.28783
21
2.09748
0
LINE
8
BLACK
6
CONTINUOUS
10
5.28783
20
2.09748
11
5.28783
21
2.11323
0
LINE
8
BLACK
6
CONTINUOUS
10
5.28783
20
2.11323
11
5.28858
21
2.11699
0
LINE
8
BLACK
6
CONTINUOUS
10
5.28858
20
2.11699
11
5.29072
21
2.12019
0
LINE
8
BLACK
6
CONTINUOUS
10
5.29072
20
2.12019
11
5.29391
21
2.12232
0
LINE
8
BLACK
6
CONTINUOUS
10
5.29391
20
2.12232
11
5.29768
21
2.12307
0
LINE
8
BLACK
6
CONTINUOUS
10
5.29768
20
2.12307
11
5.31736
21
2.12307
0
LINE
8
BLACK
6
CONTINUOUS
10
5.31736
20
2.12307
11
5.32113
21
2.12232
0
LINE
8
BLACK
6
CONTINUOUS
10
5.32113
20
2.16828
11
5.32432
21
2.16615
0
LINE
8
BLACK
6
CONTINUOUS
10
5.32432
20
2.16615
11
5.32646
21
2.16295
0
LINE
8
BLACK
6
CONTINUOUS
10
5.32646
20
2.16295
11
5.3272
21
2.15919
0
LINE
8
BLACK
6
CONTINUOUS
10
5.3272
20
2.15919
11
5.3272
21
2.14344
0
LINE
8
BLACK
6
CONTINUOUS
10
5.3272
20
2.14344
11
5.32646
21
2.13967
0
LINE
8
BLACK
6
CONTINUOUS
10
5.32646
20
2.13967
11
5.32432
21
2.13648
0
LINE
8
BLACK
6
CONTINUOUS
10
5.32432
20
2.13648
11
5.32113
21
2.13435
0
LINE
8
BLACK
6
CONTINUOUS
10
5.32113
20
2.13435
11
5.31736
21
2.1336
0
LINE
8
BLACK
6
CONTINUOUS
10
5.31736
20
2.1336
11
5.29768
21
2.1336
0
LINE
8
BLACK
6
CONTINUOUS
10
5.29768
20
2.1336
11
5.29391
21
2.13435
0
LINE
8
BLACK
6
CONTINUOUS
10
5.29391
20
2.13435
11
5.29072
21
2.13648
0
LINE
8
BLACK
6
CONTINUOUS
10
5.29072
20
2.13648
11
5.28858
21
2.13967
0
LINE
8
BLACK
6
CONTINUOUS
10
5.28858
20
2.13967
11
5.28783
21
2.14344
0
LINE
8
BLACK
6
CONTINUOUS
10
5.28783
20
2.14344
11
5.28783
21
2.15919
0
LINE
8
BLACK
6
CONTINUOUS
10
5.28783
20
2.15919
11
5.28858
21
2.16295
0
LINE
8
BLACK
6
CONTINUOUS
10
5.28858
20
2.16295
11
5.29072
21
2.16615
0
LINE
8
BLACK
6
CONTINUOUS
10
5.29072
20
2.16615
11
5.29391
21
2.16828
0
LINE
8
BLACK
6
CONTINUOUS
10
5.29391
20
2.16828
11
5.29768
21
2.16903
0
LINE
8
BLACK
6
CONTINUOUS
10
5.29768
20
2.16903
11
5.31736
21
2.16903
0
LINE
8
BLACK
6
CONTINUOUS
10
5.31736
20
2.16903
11
5.32113
21
2.16828
0
LINE
8
BLACK
6
CONTINUOUS
10
5.19022
20
2.20697
11
5.19342
21
2.20483
0
LINE
8
BLACK
6
CONTINUOUS
10
5.19342
20
2.20483
11
5.19555
21
2.20164
0
LINE
8
BLACK
6
CONTINUOUS
10
5.19555
20
2.20164
11
5.1963
21
2.19787
0
LINE
8
BLACK
6
CONTINUOUS
10
5.1963
20
2.19787
11
5.1963
21
2.16244
0
LINE
8
BLACK
6
CONTINUOUS
10
5.1963
20
2.16244
11
5.19555
21
2.15867
0
LINE
8
BLACK
6
CONTINUOUS
10
5.19555
20
2.15867
11
5.19342
21
2.15548
0
LINE
8
BLACK
6
CONTINUOUS
10
5.19342
20
2.15548
11
5.19022
21
2.15335
0
LINE
8
BLACK
6
CONTINUOUS
10
5.19022
20
2.15335
11
5.18646
21
2.1526
0
LINE
8
BLACK
6
CONTINUOUS
10
5.18646
20
2.1526
11
5.16579
21
2.1526
0
LINE
8
BLACK
6
CONTINUOUS
10
5.16579
20
2.1526
11
5.16202
21
2.15335
0
LINE
8
BLACK
6
CONTINUOUS
10
5.16202
20
2.15335
11
5.15883
21
2.15548
0
LINE
8
BLACK
6
CONTINUOUS
10
5.15883
20
2.15548
11
5.15669
21
2.15867
0
LINE
8
BLACK
6
CONTINUOUS
10
5.15669
20
2.15867
11
5.15594
21
2.16244
0
LINE
8
BLACK
6
CONTINUOUS
10
5.15594
20
2.16244
11
5.15594
21
2.19787
0
LINE
8
BLACK
6
CONTINUOUS
10
5.15594
20
2.19787
11
5.15669
21
2.20164
0
LINE
8
BLACK
6
CONTINUOUS
10
5.15669
20
2.20164
11
5.15883
21
2.20483
0
LINE
8
BLACK
6
CONTINUOUS
10
5.15883
20
2.20483
11
5.16202
21
2.20697
0
LINE
8
BLACK
6
CONTINUOUS
10
5.16202
20
2.20697
11
5.16579
21
2.20772
0
LINE
8
BLACK
6
CONTINUOUS
10
5.16579
20
2.20772
11
5.18646
21
2.20772
0
LINE
8
BLACK
6
CONTINUOUS
10
5.18646
20
2.20772
11
5.19022
21
2.20697
0
LINE
8
BLACK
6
CONTINUOUS
10
5.26207
20
2.20697
11
5.26527
21
2.20483
0
LINE
8
BLACK
6
CONTINUOUS
10
5.26527
20
2.20483
11
5.2674
21
2.20164
0
LINE
8
BLACK
6
CONTINUOUS
10
5.2674
20
2.20164
11
5.26815
21
2.19787
0
LINE
8
BLACK
6
CONTINUOUS
10
5.26815
20
2.19787
11
5.26815
21
2.16244
0
LINE
8
BLACK
6
CONTINUOUS
10
5.26815
20
2.16244
11
5.2674
21
2.15867
0
LINE
8
BLACK
6
CONTINUOUS
10
5.2674
20
2.15867
11
5.26527
21
2.15548
0
LINE
8
BLACK
6
CONTINUOUS
10
5.26527
20
2.15548
11
5.26207
21
2.15335
0
LINE
8
BLACK
6
CONTINUOUS
10
5.26207
20
2.15335
11
5.25831
21
2.1526
0
LINE
8
BLACK
6
CONTINUOUS
10
5.25831
20
2.1526
11
5.23764
21
2.1526
0
LINE
8
BLACK
6
CONTINUOUS
10
5.23764
20
2.1526
11
5.23387
21
2.15335
0
LINE
8
BLACK
6
CONTINUOUS
10
5.23387
20
2.15335
11
5.23068
21
2.15548
0
LINE
8
BLACK
6
CONTINUOUS
10
5.23068
20
2.15548
11
5.22854
21
2.15867
0
LINE
8
BLACK
6
CONTINUOUS
10
5.22854
20
2.15867
11
5.2278
21
2.16244
0
LINE
8
BLACK
6
CONTINUOUS
10
5.2278
20
2.16244
11
5.2278
21
2.19787
0
LINE
8
BLACK
6
CONTINUOUS
10
5.2278
20
2.19787
11
5.22854
21
2.20164
0
LINE
8
BLACK
6
CONTINUOUS
10
5.22854
20
2.20164
11
5.23068
21
2.20483
0
LINE
8
BLACK
6
CONTINUOUS
10
5.23068
20
2.20483
11
5.23387
21
2.20697
0
LINE
8
BLACK
6
CONTINUOUS
10
5.23387
20
2.20697
11
5.23764
21
2.20772
0
LINE
8
BLACK
6
CONTINUOUS
10
5.23764
20
2.20772
11
5.25831
21
2.20772
0
LINE
8
BLACK
6
CONTINUOUS
10
5.25831
20
2.20772
11
5.26207
21
2.20697
0
LINE
8
BLACK
6
CONTINUOUS
10
5.32113
20
2.23127
11
5.32432
21
2.22914
0
LINE
8
BLACK
6
CONTINUOUS
10
5.32432
20
2.22914
11
5.32646
21
2.22595
0
LINE
8
BLACK
6
CONTINUOUS
10
5.32646
20
2.22595
11
5.3272
21
2.22218
0
LINE
8
BLACK
6
CONTINUOUS
10
5.3272
20
2.22218
11
5.3272
21
2.20643
0
LINE
8
BLACK
6
CONTINUOUS
10
5.3272
20
2.20643
11
5.32646
21
2.20266
0
LINE
8
BLACK
6
CONTINUOUS
10
5.32646
20
2.20266
11
5.32432
21
2.19947
0
LINE
8
BLACK
6
CONTINUOUS
10
5.32432
20
2.19947
11
5.32113
21
2.19734
0
LINE
8
BLACK
6
CONTINUOUS
10
5.32113
20
2.19734
11
5.31736
21
2.19659
0
LINE
8
BLACK
6
CONTINUOUS
10
5.31736
20
2.19659
11
5.29768
21
2.19659
0
LINE
8
BLACK
6
CONTINUOUS
10
5.29768
20
2.19659
11
5.29391
21
2.19734
0
LINE
8
BLACK
6
CONTINUOUS
10
5.29391
20
2.19734
11
5.29072
21
2.19947
0
LINE
8
BLACK
6
CONTINUOUS
10
5.29072
20
2.19947
11
5.28858
21
2.20266
0
LINE
8
BLACK
6
CONTINUOUS
10
5.28858
20
2.20266
11
5.28783
21
2.20643
0
LINE
8
BLACK
6
CONTINUOUS
10
5.28783
20
2.20643
11
5.28783
21
2.22218
0
LINE
8
BLACK
6
CONTINUOUS
10
5.28783
20
2.22218
11
5.28858
21
2.22595
0
LINE
8
BLACK
6
CONTINUOUS
10
5.28858
20
2.22595
11
5.29072
21
2.22914
0
LINE
8
BLACK
6
CONTINUOUS
10
5.29072
20
2.22914
11
5.29391
21
2.23127
0
LINE
8
BLACK
6
CONTINUOUS
10
5.29391
20
2.23127
11
5.29768
21
2.23202
0
LINE
8
BLACK
6
CONTINUOUS
10
5.29768
20
2.23202
11
5.31736
21
2.23202
0
LINE
8
BLACK
6
CONTINUOUS
10
5.31736
20
2.23202
11
5.32113
21
2.23127
0
LINE
8
BLACK
6
CONTINUOUS
10
5.19072
20
2.28275
11
5.19391
21
2.28062
0
LINE
8
BLACK
6
CONTINUOUS
10
5.19391
20
2.28062
11
5.19604
21
2.27743
0
LINE
8
BLACK
6
CONTINUOUS
10
5.19604
20
2.27743
11
5.19679
21
2.27366
0
LINE
8
BLACK
6
CONTINUOUS
10
5.19679
20
2.27366
11
5.19679
21
2.23823
0
LINE
8
BLACK
6
CONTINUOUS
10
5.19679
20
2.23823
11
5.19604
21
2.23446
0
LINE
8
BLACK
6
CONTINUOUS
10
5.19604
20
2.23446
11
5.19391
21
2.23127
0
LINE
8
BLACK
6
CONTINUOUS
10
5.19391
20
2.23127
11
5.19072
21
2.22914
0
LINE
8
BLACK
6
CONTINUOUS
10
5.19072
20
2.22914
11
5.18695
21
2.22839
0
LINE
8
BLACK
6
CONTINUOUS
10
5.18695
20
2.22839
11
5.16628
21
2.22839
0
LINE
8
BLACK
6
CONTINUOUS
10
5.16628
20
2.22839
11
5.16251
21
2.22914
0
LINE
8
BLACK
6
CONTINUOUS
10
5.16251
20
2.22914
11
5.15932
21
2.23127
0
LINE
8
BLACK
6
CONTINUOUS
10
5.15932
20
2.23127
11
5.15719
21
2.23446
0
LINE
8
BLACK
6
CONTINUOUS
10
5.15719
20
2.23446
11
5.15644
21
2.23823
0
LINE
8
BLACK
6
CONTINUOUS
10
5.15644
20
2.23823
11
5.15644
21
2.27366
0
LINE
8
BLACK
6
CONTINUOUS
10
5.15644
20
2.27366
11
5.15719
21
2.27743
0
LINE
8
BLACK
6
CONTINUOUS
10
5.15719
20
2.27743
11
5.15932
21
2.28062
0
LINE
8
BLACK
6
CONTINUOUS
10
5.15932
20
2.28062
11
5.16251
21
2.28275
0
LINE
8
BLACK
6
CONTINUOUS
10
5.16251
20
2.28275
11
5.16628
21
2.2835
0
LINE
8
BLACK
6
CONTINUOUS
10
5.16628
20
2.2835
11
5.18695
21
2.2835
0
LINE
8
BLACK
6
CONTINUOUS
10
5.18695
20
2.2835
11
5.19072
21
2.28275
0
LINE
8
BLACK
6
CONTINUOUS
10
5.26257
20
2.28275
11
5.26576
21
2.28062
0
LINE
8
BLACK
6
CONTINUOUS
10
5.26576
20
2.28062
11
5.26789
21
2.27743
0
LINE
8
BLACK
6
CONTINUOUS
10
5.26789
20
2.27743
11
5.26864
21
2.27366
0
LINE
8
BLACK
6
CONTINUOUS
10
5.26864
20
2.27366
11
5.26864
21
2.23823
0
LINE
8
BLACK
6
CONTINUOUS
10
5.26864
20
2.23823
11
5.26789
21
2.23446
0
LINE
8
BLACK
6
CONTINUOUS
10
5.26789
20
2.23446
11
5.26576
21
2.23127
0
LINE
8
BLACK
6
CONTINUOUS
10
5.26576
20
2.23127
11
5.26257
21
2.22914
0
LINE
8
BLACK
6
CONTINUOUS
10
5.26257
20
2.22914
11
5.2588
21
2.22839
0
LINE
8
BLACK
6
CONTINUOUS
10
5.2588
20
2.22839
11
5.23813
21
2.22839
0
LINE
8
BLACK
6
CONTINUOUS
10
5.23813
20
2.22839
11
5.23436
21
2.22914
0
LINE
8
BLACK
6
CONTINUOUS
10
5.23436
20
2.22914
11
5.23117
21
2.23127
0
LINE
8
BLACK
6
CONTINUOUS
10
5.23117
20
2.23127
11
5.22904
21
2.23446
0
LINE
8
BLACK
6
CONTINUOUS
10
5.22904
20
2.23446
11
5.22829
21
2.23823
0
LINE
8
BLACK
6
CONTINUOUS
10
5.22829
20
2.23823
11
5.22829
21
2.27366
0
LINE
8
BLACK
6
CONTINUOUS
10
5.22829
20
2.27366
11
5.22904
21
2.27743
0
LINE
8
BLACK
6
CONTINUOUS
10
5.22904
20
2.27743
11
5.23117
21
2.28062
0
LINE
8
BLACK
6
CONTINUOUS
10
5.23117
20
2.28062
11
5.23436
21
2.28275
0
LINE
8
BLACK
6
CONTINUOUS
10
5.23436
20
2.28275
11
5.23813
21
2.2835
0
LINE
8
BLACK
6
CONTINUOUS
10
5.23813
20
2.2835
11
5.2588
21
2.2835
0
LINE
8
BLACK
6
CONTINUOUS
10
5.2588
20
2.2835
11
5.26257
21
2.28275
0
LINE
8
BLACK
6
CONTINUOUS
10
5.32113
20
2.27723
11
5.32432
21
2.2751
0
LINE
8
BLACK
6
CONTINUOUS
10
5.32432
20
2.2751
11
5.32646
21
2.2719
0
LINE
8
BLACK
6
CONTINUOUS
10
5.32646
20
2.2719
11
5.3272
21
2.26814
0
LINE
8
BLACK
6
CONTINUOUS
10
5.3272
20
2.26814
11
5.3272
21
2.25239
0
LINE
8
BLACK
6
CONTINUOUS
10
5.3272
20
2.25239
11
5.32646
21
2.24862
0
LINE
8
BLACK
6
CONTINUOUS
10
5.32646
20
2.24862
11
5.32432
21
2.24543
0
LINE
8
BLACK
6
CONTINUOUS
10
5.32432
20
2.24543
11
5.32113
21
2.2433
0
LINE
8
BLACK
6
CONTINUOUS
10
5.32113
20
2.2433
11
5.31736
21
2.24255
0
LINE
8
BLACK
6
CONTINUOUS
10
5.31736
20
2.24255
11
5.29768
21
2.24255
0
LINE
8
BLACK
6
CONTINUOUS
10
5.29768
20
2.24255
11
5.29391
21
2.2433
0
LINE
8
BLACK
6
CONTINUOUS
10
5.29391
20
2.2433
11
5.29072
21
2.24543
0
LINE
8
BLACK
6
CONTINUOUS
10
5.29072
20
2.24543
11
5.28858
21
2.24862
0
LINE
8
BLACK
6
CONTINUOUS
10
5.28858
20
2.24862
11
5.28783
21
2.25239
0
LINE
8
BLACK
6
CONTINUOUS
10
5.28783
20
2.25239
11
5.28783
21
2.26814
0
LINE
8
BLACK
6
CONTINUOUS
10
5.28783
20
2.26814
11
5.28858
21
2.2719
0
LINE
8
BLACK
6
CONTINUOUS
10
5.28858
20
2.2719
11
5.29072
21
2.2751
0
LINE
8
BLACK
6
CONTINUOUS
10
5.29072
20
2.2751
11
5.29391
21
2.27723
0
LINE
8
BLACK
6
CONTINUOUS
10
5.29391
20
2.27723
11
5.29768
21
2.27798
0
LINE
8
BLACK
6
CONTINUOUS
10
5.29768
20
2.27798
11
5.31736
21
2.27798
0
LINE
8
BLACK
6
CONTINUOUS
10
5.31736
20
2.27798
11
5.32113
21
2.27723
0
LINE
8
BLACK
6
CONTINUOUS
10
5.32113
20
2.34022
11
5.32432
21
2.33809
0
LINE
8
BLACK
6
CONTINUOUS
10
5.32432
20
2.33809
11
5.32646
21
2.3349
0
LINE
8
BLACK
6
CONTINUOUS
10
5.32646
20
2.3349
11
5.3272
21
2.33113
0
LINE
8
BLACK
6
CONTINUOUS
10
5.3272
20
2.33113
11
5.3272
21
2.31538
0
LINE
8
BLACK
6
CONTINUOUS
10
5.3272
20
2.31538
11
5.32646
21
2.31162
0
LINE
8
BLACK
6
CONTINUOUS
10
5.32646
20
2.31162
11
5.32432
21
2.30842
0
LINE
8
BLACK
6
CONTINUOUS
10
5.32432
20
2.30842
11
5.32113
21
2.30629
0
LINE
8
BLACK
6
CONTINUOUS
10
5.32113
20
2.30629
11
5.31736
21
2.30554
0
LINE
8
BLACK
6
CONTINUOUS
10
5.31736
20
2.30554
11
5.29768
21
2.30554
0
LINE
8
BLACK
6
CONTINUOUS
10
5.29768
20
2.30554
11
5.29391
21
2.30629
0
LINE
8
BLACK
6
CONTINUOUS
10
5.29391
20
2.30629
11
5.29072
21
2.30842
0
LINE
8
BLACK
6
CONTINUOUS
10
5.29072
20
2.30842
11
5.28858
21
2.31162
0
LINE
8
BLACK
6
CONTINUOUS
10
5.28858
20
2.31162
11
5.28783
21
2.31538
0
LINE
8
BLACK
6
CONTINUOUS
10
5.28783
20
2.31538
11
5.28783
21
2.33113
0
LINE
8
BLACK
6
CONTINUOUS
10
5.28783
20
2.33113
11
5.28858
21
2.3349
0
LINE
8
BLACK
6
CONTINUOUS
10
5.28858
20
2.3349
11
5.29072
21
2.33809
0
LINE
8
BLACK
6
CONTINUOUS
10
5.29072
20
2.33809
11
5.29391
21
2.34022
0
LINE
8
BLACK
6
CONTINUOUS
10
5.29391
20
2.34022
11
5.29768
21
2.34097
0
LINE
8
BLACK
6
CONTINUOUS
10
5.29768
20
2.34097
11
5.31736
21
2.34097
0
LINE
8
BLACK
6
CONTINUOUS
10
5.31736
20
2.34097
11
5.32113
21
2.34022
0
LINE
8
BLACK
6
CONTINUOUS
10
5.19072
20
2.36051
11
5.19391
21
2.35838
0
LINE
8
BLACK
6
CONTINUOUS
10
5.19391
20
2.35838
11
5.19604
21
2.35518
0
LINE
8
BLACK
6
CONTINUOUS
10
5.19604
20
2.35518
11
5.19679
21
2.35142
0
LINE
8
BLACK
6
CONTINUOUS
10
5.19679
20
2.35142
11
5.19679
21
2.31598
0
LINE
8
BLACK
6
CONTINUOUS
10
5.19679
20
2.31598
11
5.19604
21
2.31222
0
LINE
8
BLACK
6
CONTINUOUS
10
5.19604
20
2.31222
11
5.19391
21
2.30902
0
LINE
8
BLACK
6
CONTINUOUS
10
5.19391
20
2.30902
11
5.19072
21
2.30689
0
LINE
8
BLACK
6
CONTINUOUS
10
5.19072
20
2.30689
11
5.18695
21
2.30614
0
LINE
8
BLACK
6
CONTINUOUS
10
5.18695
20
2.30614
11
5.16628
21
2.30614
0
LINE
8
BLACK
6
CONTINUOUS
10
5.16628
20
2.30614
11
5.16251
21
2.30689
0
LINE
8
BLACK
6
CONTINUOUS
10
5.16251
20
2.30689
11
5.15932
21
2.30902
0
LINE
8
BLACK
6
CONTINUOUS
10
5.15932
20
2.30902
11
5.15719
21
2.31222
0
LINE
8
BLACK
6
CONTINUOUS
10
5.15719
20
2.31222
11
5.15644
21
2.31598
0
LINE
8
BLACK
6
CONTINUOUS
10
5.15644
20
2.31598
11
5.15644
21
2.35142
0
LINE
8
BLACK
6
CONTINUOUS
10
5.15644
20
2.35142
11
5.15719
21
2.35518
0
LINE
8
BLACK
6
CONTINUOUS
10
5.15719
20
2.35518
11
5.15932
21
2.35838
0
LINE
8
BLACK
6
CONTINUOUS
10
5.15932
20
2.35838
11
5.16251
21
2.36051
0
LINE
8
BLACK
6
CONTINUOUS
10
5.16251
20
2.36051
11
5.16628
21
2.36126
0
LINE
8
BLACK
6
CONTINUOUS
10
5.16628
20
2.36126
11
5.18695
21
2.36126
0
LINE
8
BLACK
6
CONTINUOUS
10
5.18695
20
2.36126
11
5.19072
21
2.36051
0
LINE
8
BLACK
6
CONTINUOUS
10
5.26257
20
2.36051
11
5.26576
21
2.35838
0
LINE
8
BLACK
6
CONTINUOUS
10
5.26576
20
2.35838
11
5.26789
21
2.35518
0
LINE
8
BLACK
6
CONTINUOUS
10
5.26789
20
2.35518
11
5.26864
21
2.35142
0
LINE
8
BLACK
6
CONTINUOUS
10
5.26864
20
2.35142
11
5.26864
21
2.31598
0
LINE
8
BLACK
6
CONTINUOUS
10
5.26864
20
2.31598
11
5.26789
21
2.31222
0
LINE
8
BLACK
6
CONTINUOUS
10
5.26789
20
2.31222
11
5.26576
21
2.30902
0
LINE
8
BLACK
6
CONTINUOUS
10
5.26576
20
2.30902
11
5.26257
21
2.30689
0
LINE
8
BLACK
6
CONTINUOUS
10
5.26257
20
2.30689
11
5.2588
21
2.30614
0
LINE
8
BLACK
6
CONTINUOUS
10
5.2588
20
2.30614
11
5.23813
21
2.30614
0
LINE
8
BLACK
6
CONTINUOUS
10
5.23813
20
2.30614
11
5.23436
21
2.30689
0
LINE
8
BLACK
6
CONTINUOUS
10
5.23436
20
2.30689
11
5.23117
21
2.30902
0
LINE
8
BLACK
6
CONTINUOUS
10
5.23117
20
2.30902
11
5.22904
21
2.31222
0
LINE
8
BLACK
6
CONTINUOUS
10
5.22904
20
2.31222
11
5.22829
21
2.31598
0
LINE
8
BLACK
6
CONTINUOUS
10
5.22829
20
2.31598
11
5.22829
21
2.35142
0
LINE
8
BLACK
6
CONTINUOUS
10
5.22829
20
2.35142
11
5.22904
21
2.35518
0
LINE
8
BLACK
6
CONTINUOUS
10
5.22904
20
2.35518
11
5.23117
21
2.35838
0
LINE
8
BLACK
6
CONTINUOUS
10
5.23117
20
2.35838
11
5.23436
21
2.36051
0
LINE
8
BLACK
6
CONTINUOUS
10
5.23436
20
2.36051
11
5.23813
21
2.36126
0
LINE
8
BLACK
6
CONTINUOUS
10
5.23813
20
2.36126
11
5.2588
21
2.36126
0
LINE
8
BLACK
6
CONTINUOUS
10
5.2588
20
2.36126
11
5.26257
21
2.36051
0
LINE
8
BLACK
6
CONTINUOUS
10
5.32113
20
2.38618
11
5.32432
21
2.38405
0
LINE
8
BLACK
6
CONTINUOUS
10
5.32432
20
2.38405
11
5.32646
21
2.38085
0
LINE
8
BLACK
6
CONTINUOUS
10
5.32646
20
2.38085
11
5.3272
21
2.37709
0
LINE
8
BLACK
6
CONTINUOUS
10
5.3272
20
2.37709
11
5.3272
21
2.36134
0
LINE
8
BLACK
6
CONTINUOUS
10
5.3272
20
2.36134
11
5.32646
21
2.35757
0
LINE
8
BLACK
6
CONTINUOUS
10
5.32646
20
2.35757
11
5.32432
21
2.35438
0
LINE
8
BLACK
6
CONTINUOUS
10
5.32432
20
2.35438
11
5.32113
21
2.35225
0
LINE
8
BLACK
6
CONTINUOUS
10
5.32113
20
2.35225
11
5.31736
21
2.3515
0
LINE
8
BLACK
6
CONTINUOUS
10
5.31736
20
2.3515
11
5.29768
21
2.3515
0
LINE
8
BLACK
6
CONTINUOUS
10
5.29768
20
2.3515
11
5.29391
21
2.35225
0
LINE
8
BLACK
6
CONTINUOUS
10
5.29391
20
2.35225
11
5.29072
21
2.35438
0
LINE
8
BLACK
6
CONTINUOUS
10
5.29072
20
2.35438
11
5.28858
21
2.35757
0
LINE
8
BLACK
6
CONTINUOUS
10
5.28858
20
2.35757
11
5.28783
21
2.36134
0
LINE
8
BLACK
6
CONTINUOUS
10
5.28783
20
2.36134
11
5.28783
21
2.37709
0
LINE
8
BLACK
6
CONTINUOUS
10
5.28783
20
2.37709
11
5.28858
21
2.38085
0
LINE
8
BLACK
6
CONTINUOUS
10
5.28858
20
2.38085
11
5.29072
21
2.38405
0
LINE
8
BLACK
6
CONTINUOUS
10
5.29072
20
2.38405
11
5.29391
21
2.38618
0
LINE
8
BLACK
6
CONTINUOUS
10
5.29391
20
2.38618
11
5.29768
21
2.38693
0
LINE
8
BLACK
6
CONTINUOUS
10
5.29768
20
2.38693
11
5.31736
21
2.38693
0
LINE
8
BLACK
6
CONTINUOUS
10
5.31736
20
2.38693
11
5.32113
21
2.38618
0
LINE
8
BLACK
6
CONTINUOUS
10
2.17841
20
2.43728
11
2.18161
21
2.43515
0
LINE
8
BLACK
6
CONTINUOUS
10
2.18161
20
2.43515
11
2.18374
21
2.43196
0
LINE
8
BLACK
6
CONTINUOUS
10
2.18374
20
2.43196
11
2.18449
21
2.42819
0
LINE
8
BLACK
6
CONTINUOUS
10
2.18449
20
2.42819
11
2.18449
21
2.39276
0
LINE
8
BLACK
6
CONTINUOUS
10
2.18449
20
2.39276
11
2.18374
21
2.38899
0
LINE
8
BLACK
6
CONTINUOUS
10
2.18374
20
2.38899
11
2.18161
21
2.3858
0
LINE
8
BLACK
6
CONTINUOUS
10
2.18161
20
2.3858
11
2.17841
21
2.38366
0
LINE
8
BLACK
6
CONTINUOUS
10
2.17841
20
2.38366
11
2.17465
21
2.38291
0
LINE
8
BLACK
6
CONTINUOUS
10
2.17465
20
2.38291
11
2.15398
21
2.38291
0
LINE
8
BLACK
6
CONTINUOUS
10
2.15398
20
2.38291
11
2.15021
21
2.38366
0
LINE
8
BLACK
6
CONTINUOUS
10
2.15021
20
2.38366
11
2.14702
21
2.3858
0
LINE
8
BLACK
6
CONTINUOUS
10
2.14702
20
2.3858
11
2.14488
21
2.38899
0
LINE
8
BLACK
6
CONTINUOUS
10
2.14488
20
2.38899
11
2.14413
21
2.39276
0
LINE
8
BLACK
6
CONTINUOUS
10
2.14413
20
2.39276
11
2.14413
21
2.42819
0
LINE
8
BLACK
6
CONTINUOUS
10
2.14413
20
2.42819
11
2.14488
21
2.43196
0
LINE
8
BLACK
6
CONTINUOUS
10
2.14488
20
2.43196
11
2.14702
21
2.43515
0
LINE
8
BLACK
6
CONTINUOUS
10
2.14702
20
2.43515
11
2.15021
21
2.43728
0
LINE
8
BLACK
6
CONTINUOUS
10
2.15021
20
2.43728
11
2.15398
21
2.43803
0
LINE
8
BLACK
6
CONTINUOUS
10
2.15398
20
2.43803
11
2.17465
21
2.43803
0
LINE
8
BLACK
6
CONTINUOUS
10
2.17465
20
2.43803
11
2.17841
21
2.43728
0
LINE
8
BLACK
6
CONTINUOUS
10
2.25026
20
2.43728
11
2.25346
21
2.43515
0
LINE
8
BLACK
6
CONTINUOUS
10
2.25346
20
2.43515
11
2.25559
21
2.43196
0
LINE
8
BLACK
6
CONTINUOUS
10
2.25559
20
2.43196
11
2.25634
21
2.42819
0
LINE
8
BLACK
6
CONTINUOUS
10
2.25634
20
2.42819
11
2.25634
21
2.39276
0
LINE
8
BLACK
6
CONTINUOUS
10
2.25634
20
2.39276
11
2.25559
21
2.38899
0
LINE
8
BLACK
6
CONTINUOUS
10
2.25559
20
2.38899
11
2.25346
21
2.3858
0
LINE
8
BLACK
6
CONTINUOUS
10
2.25346
20
2.3858
11
2.25026
21
2.38366
0
LINE
8
BLACK
6
CONTINUOUS
10
2.25026
20
2.38366
11
2.2465
21
2.38291
0
LINE
8
BLACK
6
CONTINUOUS
10
2.2465
20
2.38291
11
2.22583
21
2.38291
0
LINE
8
BLACK
6
CONTINUOUS
10
2.22583
20
2.38291
11
2.22206
21
2.38366
0
LINE
8
BLACK
6
CONTINUOUS
10
2.22206
20
2.38366
11
2.21887
21
2.3858
0
LINE
8
BLACK
6
CONTINUOUS
10
2.21887
20
2.3858
11
2.21673
21
2.38899
0
LINE
8
BLACK
6
CONTINUOUS
10
2.21673
20
2.38899
11
2.21598
21
2.39276
0
LINE
8
BLACK
6
CONTINUOUS
10
2.21598
20
2.39276
11
2.21598
21
2.42819
0
LINE
8
BLACK
6
CONTINUOUS
10
2.21598
20
2.42819
11
2.21673
21
2.43196
0
LINE
8
BLACK
6
CONTINUOUS
10
2.21673
20
2.43196
11
2.21887
21
2.43515
0
LINE
8
BLACK
6
CONTINUOUS
10
2.21887
20
2.43515
11
2.22206
21
2.43728
0
LINE
8
BLACK
6
CONTINUOUS
10
2.22206
20
2.43728
11
2.22583
21
2.43803
0
LINE
8
BLACK
6
CONTINUOUS
10
2.22583
20
2.43803
11
2.2465
21
2.43803
0
LINE
8
BLACK
6
CONTINUOUS
10
2.2465
20
2.43803
11
2.25026
21
2.43728
0
LINE
8
BLACK
6
CONTINUOUS
10
3.02881
20
2.43728
11
3.032
21
2.43515
0
LINE
8
BLACK
6
CONTINUOUS
10
3.032
20
2.43515
11
3.03413
21
2.43196
0
LINE
8
BLACK
6
CONTINUOUS
10
3.03413
20
2.43196
11
3.03488
21
2.42819
0
LINE
8
BLACK
6
CONTINUOUS
10
3.03488
20
2.42819
11
3.03488
21
2.39276
0
LINE
8
BLACK
6
CONTINUOUS
10
3.03488
20
2.39276
11
3.03413
21
2.38899
0
LINE
8
BLACK
6
CONTINUOUS
10
3.03413
20
2.38899
11
3.032
21
2.3858
0
LINE
8
BLACK
6
CONTINUOUS
10
3.032
20
2.3858
11
3.02881
21
2.38366
0
LINE
8
BLACK
6
CONTINUOUS
10
3.02881
20
2.38366
11
3.02504
21
2.38291
0
LINE
8
BLACK
6
CONTINUOUS
10
3.02504
20
2.38291
11
3.00437
21
2.38291
0
LINE
8
BLACK
6
CONTINUOUS
10
3.00437
20
2.38291
11
3.0006
21
2.38366
0
LINE
8
BLACK
6
CONTINUOUS
10
3.0006
20
2.38366
11
2.99741
21
2.3858
0
LINE
8
BLACK
6
CONTINUOUS
10
2.99741
20
2.3858
11
2.99528
21
2.38899
0
LINE
8
BLACK
6
CONTINUOUS
10
2.99528
20
2.38899
11
2.99453
21
2.39276
0
LINE
8
BLACK
6
CONTINUOUS
10
2.99453
20
2.39276
11
2.99453
21
2.42819
0
LINE
8
BLACK
6
CONTINUOUS
10
2.99453
20
2.42819
11
2.99528
21
2.43196
0
LINE
8
BLACK
6
CONTINUOUS
10
2.99528
20
2.43196
11
2.99741
21
2.43515
0
LINE
8
BLACK
6
CONTINUOUS
10
2.99741
20
2.43515
11
3.0006
21
2.43728
0
LINE
8
BLACK
6
CONTINUOUS
10
3.0006
20
2.43728
11
3.00437
21
2.43803
0
LINE
8
BLACK
6
CONTINUOUS
10
3.00437
20
2.43803
11
3.02504
21
2.43803
0
LINE
8
BLACK
6
CONTINUOUS
10
3.02504
20
2.43803
11
3.02881
21
2.43728
0
LINE
8
BLACK
6
CONTINUOUS
10
3.10066
20
2.43728
11
3.10385
21
2.43515
0
LINE
8
BLACK
6
CONTINUOUS
10
3.10385
20
2.43515
11
3.10598
21
2.43196
0
LINE
8
BLACK
6
CONTINUOUS
10
3.10598
20
2.43196
11
3.10673
21
2.42819
0
LINE
8
BLACK
6
CONTINUOUS
10
3.10673
20
2.42819
11
3.10673
21
2.39276
0
LINE
8
BLACK
6
CONTINUOUS
10
3.10673
20
2.39276
11
3.10598
21
2.38899
0
LINE
8
BLACK
6
CONTINUOUS
10
3.10598
20
2.38899
11
3.10385
21
2.3858
0
LINE
8
BLACK
6
CONTINUOUS
10
3.10385
20
2.3858
11
3.10066
21
2.38366
0
LINE
8
BLACK
6
CONTINUOUS
10
3.10066
20
2.38366
11
3.09689
21
2.38291
0
LINE
8
BLACK
6
CONTINUOUS
10
3.09689
20
2.38291
11
3.07622
21
2.38291
0
LINE
8
BLACK
6
CONTINUOUS
10
3.07622
20
2.38291
11
3.07245
21
2.38366
0
LINE
8
BLACK
6
CONTINUOUS
10
3.07245
20
2.38366
11
3.06926
21
2.3858
0
LINE
8
BLACK
6
CONTINUOUS
10
3.06926
20
2.3858
11
3.06713
21
2.38899
0
LINE
8
BLACK
6
CONTINUOUS
10
3.06713
20
2.38899
11
3.06638
21
2.39276
0
LINE
8
BLACK
6
CONTINUOUS
10
3.06638
20
2.39276
11
3.06638
21
2.42819
0
LINE
8
BLACK
6
CONTINUOUS
10
3.06638
20
2.42819
11
3.06713
21
2.43196
0
LINE
8
BLACK
6
CONTINUOUS
10
3.06713
20
2.43196
11
3.06926
21
2.43515
0
LINE
8
BLACK
6
CONTINUOUS
10
3.06926
20
2.43515
11
3.07245
21
2.43728
0
LINE
8
BLACK
6
CONTINUOUS
10
3.07245
20
2.43728
11
3.07622
21
2.43803
0
LINE
8
BLACK
6
CONTINUOUS
10
3.07622
20
2.43803
11
3.09689
21
2.43803
0
LINE
8
BLACK
6
CONTINUOUS
10
3.09689
20
2.43803
11
3.10066
21
2.43728
0
LINE
8
BLACK
6
CONTINUOUS
10
5.19072
20
2.43728
11
5.19391
21
2.43515
0
LINE
8
BLACK
6
CONTINUOUS
10
5.19391
20
2.43515
11
5.19604
21
2.43196
0
LINE
8
BLACK
6
CONTINUOUS
10
5.19604
20
2.43196
11
5.19679
21
2.42819
0
LINE
8
BLACK
6
CONTINUOUS
10
5.19679
20
2.42819
11
5.19679
21
2.39276
0
LINE
8
BLACK
6
CONTINUOUS
10
5.19679
20
2.39276
11
5.19604
21
2.38899
0
LINE
8
BLACK
6
CONTINUOUS
10
5.19604
20
2.38899
11
5.19391
21
2.3858
0
LINE
8
BLACK
6
CONTINUOUS
10
5.19391
20
2.3858
11
5.19072
21
2.38366
0
LINE
8
BLACK
6
CONTINUOUS
10
5.19072
20
2.38366
11
5.18695
21
2.38291
0
LINE
8
BLACK
6
CONTINUOUS
10
5.18695
20
2.38291
11
5.16628
21
2.38291
0
LINE
8
BLACK
6
CONTINUOUS
10
5.16628
20
2.38291
11
5.16251
21
2.38366
0
LINE
8
BLACK
6
CONTINUOUS
10
5.16251
20
2.38366
11
5.15932
21
2.3858
0
LINE
8
BLACK
6
CONTINUOUS
10
5.15932
20
2.3858
11
5.15719
21
2.38899
0
LINE
8
BLACK
6
CONTINUOUS
10
5.15719
20
2.38899
11
5.15644
21
2.39276
0
LINE
8
BLACK
6
CONTINUOUS
10
5.15644
20
2.39276
11
5.15644
21
2.42819
0
LINE
8
BLACK
6
CONTINUOUS
10
5.15644
20
2.42819
11
5.15719
21
2.43196
0
LINE
8
BLACK
6
CONTINUOUS
10
5.15719
20
2.43196
11
5.15932
21
2.43515
0
LINE
8
BLACK
6
CONTINUOUS
10
5.15932
20
2.43515
11
5.16251
21
2.43728
0
LINE
8
BLACK
6
CONTINUOUS
10
5.16251
20
2.43728
11
5.16628
21
2.43803
0
LINE
8
BLACK
6
CONTINUOUS
10
5.16628
20
2.43803
11
5.18695
21
2.43803
0
LINE
8
BLACK
6
CONTINUOUS
10
5.18695
20
2.43803
11
5.19072
21
2.43728
0
LINE
8
BLACK
6
CONTINUOUS
10
5.26257
20
2.43728
11
5.26576
21
2.43515
0
LINE
8
BLACK
6
CONTINUOUS
10
5.26576
20
2.43515
11
5.26789
21
2.43196
0
LINE
8
BLACK
6
CONTINUOUS
10
5.26789
20
2.43196
11
5.26864
21
2.42819
0
LINE
8
BLACK
6
CONTINUOUS
10
5.26864
20
2.42819
11
5.26864
21
2.39276
0
LINE
8
BLACK
6
CONTINUOUS
10
5.26864
20
2.39276
11
5.26789
21
2.38899
0
LINE
8
BLACK
6
CONTINUOUS
10
5.26789
20
2.38899
11
5.26576
21
2.3858
0
LINE
8
BLACK
6
CONTINUOUS
10
5.26576
20
2.3858
11
5.26257
21
2.38366
0
LINE
8
BLACK
6
CONTINUOUS
10
5.26257
20
2.38366
11
5.2588
21
2.38291
0
LINE
8
BLACK
6
CONTINUOUS
10
5.2588
20
2.38291
11
5.23813
21
2.38291
0
LINE
8
BLACK
6
CONTINUOUS
10
5.23813
20
2.38291
11
5.23436
21
2.38366
0
LINE
8
BLACK
6
CONTINUOUS
10
5.23436
20
2.38366
11
5.23117
21
2.3858
0
LINE
8
BLACK
6
CONTINUOUS
10
5.23117
20
2.3858
11
5.22904
21
2.38899
0
LINE
8
BLACK
6
CONTINUOUS
10
5.22904
20
2.38899
11
5.22829
21
2.39276
0
LINE
8
BLACK
6
CONTINUOUS
10
5.22829
20
2.39276
11
5.22829
21
2.42819
0
LINE
8
BLACK
6
CONTINUOUS
10
5.22829
20
2.42819
11
5.22904
21
2.43196
0
LINE
8
BLACK
6
CONTINUOUS
10
5.22904
20
2.43196
11
5.23117
21
2.43515
0
LINE
8
BLACK
6
CONTINUOUS
10
5.23117
20
2.43515
11
5.23436
21
2.43728
0
LINE
8
BLACK
6
CONTINUOUS
10
5.23436
20
2.43728
11
5.23813
21
2.43803
0
LINE
8
BLACK
6
CONTINUOUS
10
5.23813
20
2.43803
11
5.2588
21
2.43803
0
LINE
8
BLACK
6
CONTINUOUS
10
5.2588
20
2.43803
11
5.26257
21
2.43728
0
LINE
8
BLACK
6
CONTINUOUS
10
5.32113
20
2.44917
11
5.32432
21
2.44704
0
LINE
8
BLACK
6
CONTINUOUS
10
5.32432
20
2.44704
11
5.32646
21
2.44385
0
LINE
8
BLACK
6
CONTINUOUS
10
5.32646
20
2.44385
11
5.3272
21
2.44008
0
LINE
8
BLACK
6
CONTINUOUS
10
5.3272
20
2.44008
11
5.3272
21
2.42433
0
LINE
8
BLACK
6
CONTINUOUS
10
5.3272
20
2.42433
11
5.32646
21
2.42057
0
LINE
8
BLACK
6
CONTINUOUS
10
5.32646
20
2.42057
11
5.32432
21
2.41737
0
LINE
8
BLACK
6
CONTINUOUS
10
5.32432
20
2.41737
11
5.32113
21
2.41524
0
LINE
8
BLACK
6
CONTINUOUS
10
5.32113
20
2.41524
11
5.31736
21
2.41449
0
LINE
8
BLACK
6
CONTINUOUS
10
5.31736
20
2.41449
11
5.29768
21
2.41449
0
LINE
8
BLACK
6
CONTINUOUS
10
5.29768
20
2.41449
11
5.29391
21
2.41524
0
LINE
8
BLACK
6
CONTINUOUS
10
5.29391
20
2.41524
11
5.29072
21
2.41737
0
LINE
8
BLACK
6
CONTINUOUS
10
5.29072
20
2.41737
11
5.28858
21
2.42057
0
LINE
8
BLACK
6
CONTINUOUS
10
5.28858
20
2.42057
11
5.28783
21
2.42433
0
LINE
8
BLACK
6
CONTINUOUS
10
5.28783
20
2.42433
11
5.28783
21
2.44008
0
LINE
8
BLACK
6
CONTINUOUS
10
5.28783
20
2.44008
11
5.28858
21
2.44385
0
LINE
8
BLACK
6
CONTINUOUS
10
5.28858
20
2.44385
11
5.29072
21
2.44704
0
LINE
8
BLACK
6
CONTINUOUS
10
5.29072
20
2.44704
11
5.29391
21
2.44917
0
LINE
8
BLACK
6
CONTINUOUS
10
5.29391
20
2.44917
11
5.29768
21
2.44992
0
LINE
8
BLACK
6
CONTINUOUS
10
5.29768
20
2.44992
11
5.31736
21
2.44992
0
LINE
8
BLACK
6
CONTINUOUS
10
5.31736
20
2.44992
11
5.32113
21
2.44917
0
LINE
8
BLACK
6
CONTINUOUS
10
5.32014
20
2.58886
11
5.32334
21
2.58672
0
LINE
8
BLACK
6
CONTINUOUS
10
5.32334
20
2.58672
11
5.32547
21
2.58353
0
LINE
8
BLACK
6
CONTINUOUS
10
5.32547
20
2.58353
11
5.32622
21
2.57976
0
LINE
8
BLACK
6
CONTINUOUS
10
5.32622
20
2.57976
11
5.32622
21
2.56402
0
LINE
8
BLACK
6
CONTINUOUS
10
5.32622
20
2.56402
11
5.32547
21
2.56025
0
LINE
8
BLACK
6
CONTINUOUS
10
5.32547
20
2.56025
11
5.32334
21
2.55706
0
LINE
8
BLACK
6
CONTINUOUS
10
5.32334
20
2.55706
11
5.32014
21
2.55492
0
LINE
8
BLACK
6
CONTINUOUS
10
5.32014
20
2.55492
11
5.31638
21
2.55417
0
LINE
8
BLACK
6
CONTINUOUS
10
5.31638
20
2.55417
11
5.29669
21
2.55417
0
LINE
8
BLACK
6
CONTINUOUS
10
5.29669
20
2.55417
11
5.29293
21
2.55492
0
LINE
8
BLACK
6
CONTINUOUS
10
5.29293
20
2.55492
11
5.28973
21
2.55706
0
LINE
8
BLACK
6
CONTINUOUS
10
5.28973
20
2.55706
11
5.2876
21
2.56025
0
LINE
8
BLACK
6
CONTINUOUS
10
5.2876
20
2.56025
11
5.28685
21
2.56402
0
LINE
8
BLACK
6
CONTINUOUS
10
5.28685
20
2.56402
11
5.28685
21
2.57976
0
LINE
8
BLACK
6
CONTINUOUS
10
5.28685
20
2.57976
11
5.2876
21
2.58353
0
LINE
8
BLACK
6
CONTINUOUS
10
5.2876
20
2.58353
11
5.28973
21
2.58672
0
LINE
8
BLACK
6
CONTINUOUS
10
5.28973
20
2.58672
11
5.29293
21
2.58886
0
LINE
8
BLACK
6
CONTINUOUS
10
5.29293
20
2.58886
11
5.29669
21
2.58961
0
LINE
8
BLACK
6
CONTINUOUS
10
5.29669
20
2.58961
11
5.31638
21
2.58961
0
LINE
8
BLACK
6
CONTINUOUS
10
5.31638
20
2.58961
11
5.32014
21
2.58886
0
LINE
8
BLACK
6
CONTINUOUS
10
5.26207
20
2.60018
11
5.26527
21
2.59804
0
LINE
8
BLACK
6
CONTINUOUS
10
5.26527
20
2.59804
11
5.2674
21
2.59485
0
LINE
8
BLACK
6
CONTINUOUS
10
5.2674
20
2.59485
11
5.26815
21
2.59108
0
LINE
8
BLACK
6
CONTINUOUS
10
5.26815
20
2.59108
11
5.26815
21
2.57041
0
LINE
8
BLACK
6
CONTINUOUS
10
5.26815
20
2.57041
11
5.2674
21
2.56665
0
LINE
8
BLACK
6
CONTINUOUS
10
5.2674
20
2.56665
11
5.26527
21
2.56345
0
LINE
8
BLACK
6
CONTINUOUS
10
5.26527
20
2.56345
11
5.26207
21
2.56132
0
LINE
8
BLACK
6
CONTINUOUS
10
5.26207
20
2.56132
11
5.25831
21
2.56057
0
LINE
8
BLACK
6
CONTINUOUS
10
5.25831
20
2.56057
11
5.22287
21
2.56057
0
LINE
8
BLACK
6
CONTINUOUS
10
5.22287
20
2.56057
11
5.21911
21
2.56132
0
LINE
8
BLACK
6
CONTINUOUS
10
5.21911
20
2.56132
11
5.21591
21
2.56345
0
LINE
8
BLACK
6
CONTINUOUS
10
5.21591
20
2.56345
11
5.21378
21
2.56665
0
LINE
8
BLACK
6
CONTINUOUS
10
5.21378
20
2.56665
11
5.21303
21
2.57041
0
LINE
8
BLACK
6
CONTINUOUS
10
5.21303
20
2.57041
11
5.21303
21
2.59108
0
LINE
8
BLACK
6
CONTINUOUS
10
5.21303
20
2.59108
11
5.21378
21
2.59485
0
LINE
8
BLACK
6
CONTINUOUS
10
5.21378
20
2.59485
11
5.21591
21
2.59804
0
LINE
8
BLACK
6
CONTINUOUS
10
5.21591
20
2.59804
11
5.21911
21
2.60018
0
LINE
8
BLACK
6
CONTINUOUS
10
5.21911
20
2.60018
11
5.22287
21
2.60093
0
LINE
8
BLACK
6
CONTINUOUS
10
5.22287
20
2.60093
11
5.25831
21
2.60093
0
LINE
8
BLACK
6
CONTINUOUS
10
5.25831
20
2.60093
11
5.26207
21
2.60018
0
LINE
8
BLACK
6
CONTINUOUS
10
5.32014
20
2.65185
11
5.32334
21
2.64972
0
LINE
8
BLACK
6
CONTINUOUS
10
5.32334
20
2.64972
11
5.32547
21
2.64652
0
LINE
8
BLACK
6
CONTINUOUS
10
5.32547
20
2.64652
11
5.32622
21
2.64276
0
LINE
8
BLACK
6
CONTINUOUS
10
5.32622
20
2.64276
11
5.32622
21
2.62701
0
LINE
8
BLACK
6
CONTINUOUS
10
5.32622
20
2.62701
11
5.32547
21
2.62324
0
LINE
8
BLACK
6
CONTINUOUS
10
5.32547
20
2.62324
11
5.32334
21
2.62005
0
LINE
8
BLACK
6
CONTINUOUS
10
5.32334
20
2.62005
11
5.32014
21
2.61791
0
LINE
8
BLACK
6
CONTINUOUS
10
5.32014
20
2.61791
11
5.31638
21
2.61717
0
LINE
8
BLACK
6
CONTINUOUS
10
5.31638
20
2.61717
11
5.29669
21
2.61717
0
LINE
8
BLACK
6
CONTINUOUS
10
5.29669
20
2.61717
11
5.29293
21
2.61791
0
LINE
8
BLACK
6
CONTINUOUS
10
5.29293
20
2.61791
11
5.28973
21
2.62005
0
LINE
8
BLACK
6
CONTINUOUS
10
5.28973
20
2.62005
11
5.2876
21
2.62324
0
LINE
8
BLACK
6
CONTINUOUS
10
5.2876
20
2.62324
11
5.28685
21
2.62701
0
LINE
8
BLACK
6
CONTINUOUS
10
5.28685
20
2.62701
11
5.28685
21
2.64276
0
LINE
8
BLACK
6
CONTINUOUS
10
5.28685
20
2.64276
11
5.2876
21
2.64652
0
LINE
8
BLACK
6
CONTINUOUS
10
5.2876
20
2.64652
11
5.28973
21
2.64972
0
LINE
8
BLACK
6
CONTINUOUS
10
5.28973
20
2.64972
11
5.29293
21
2.65185
0
LINE
8
BLACK
6
CONTINUOUS
10
5.29293
20
2.65185
11
5.29669
21
2.6526
0
LINE
8
BLACK
6
CONTINUOUS
10
5.29669
20
2.6526
11
5.31638
21
2.6526
0
LINE
8
BLACK
6
CONTINUOUS
10
5.31638
20
2.6526
11
5.32014
21
2.65185
0
LINE
8
BLACK
6
CONTINUOUS
10
5.26207
20
2.67203
11
5.26527
21
2.66989
0
LINE
8
BLACK
6
CONTINUOUS
10
5.26527
20
2.66989
11
5.2674
21
2.6667
0
LINE
8
BLACK
6
CONTINUOUS
10
5.2674
20
2.6667
11
5.26815
21
2.66293
0
LINE
8
BLACK
6
CONTINUOUS
10
5.26815
20
2.66293
11
5.26815
21
2.64226
0
LINE
8
BLACK
6
CONTINUOUS
10
5.26815
20
2.64226
11
5.2674
21
2.6385
0
LINE
8
BLACK
6
CONTINUOUS
10
5.2674
20
2.6385
11
5.26527
21
2.6353
0
LINE
8
BLACK
6
CONTINUOUS
10
5.26527
20
2.6353
11
5.26207
21
2.63317
0
LINE
8
BLACK
6
CONTINUOUS
10
5.26207
20
2.63317
11
5.25831
21
2.63242
0
LINE
8
BLACK
6
CONTINUOUS
10
5.25831
20
2.63242
11
5.22287
21
2.63242
0
LINE
8
BLACK
6
CONTINUOUS
10
5.22287
20
2.63242
11
5.21911
21
2.63317
0
LINE
8
BLACK
6
CONTINUOUS
10
5.21911
20
2.63317
11
5.21591
21
2.6353
0
LINE
8
BLACK
6
CONTINUOUS
10
5.21591
20
2.6353
11
5.21378
21
2.6385
0
LINE
8
BLACK
6
CONTINUOUS
10
5.21378
20
2.6385
11
5.21303
21
2.64226
0
LINE
8
BLACK
6
CONTINUOUS
10
5.21303
20
2.64226
11
5.21303
21
2.66293
0
LINE
8
BLACK
6
CONTINUOUS
10
5.21303
20
2.66293
11
5.21378
21
2.6667
0
LINE
8
BLACK
6
CONTINUOUS
10
5.21378
20
2.6667
11
5.21591
21
2.66989
0
LINE
8
BLACK
6
CONTINUOUS
10
5.21591
20
2.66989
11
5.21911
21
2.67203
0
LINE
8
BLACK
6
CONTINUOUS
10
5.21911
20
2.67203
11
5.22287
21
2.67278
0
LINE
8
BLACK
6
CONTINUOUS
10
5.22287
20
2.67278
11
5.25831
21
2.67278
0
LINE
8
BLACK
6
CONTINUOUS
10
5.25831
20
2.67278
11
5.26207
21
2.67203
0
LINE
8
BLACK
6
CONTINUOUS
10
5.26207
20
2.73551
11
5.26527
21
2.73338
0
LINE
8
BLACK
6
CONTINUOUS
10
5.26527
20
2.73338
11
5.2674
21
2.73018
0
LINE
8
BLACK
6
CONTINUOUS
10
5.2674
20
2.73018
11
5.26815
21
2.72642
0
LINE
8
BLACK
6
CONTINUOUS
10
5.26815
20
2.72642
11
5.26815
21
2.70575
0
LINE
8
BLACK
6
CONTINUOUS
10
5.26815
20
2.70575
11
5.2674
21
2.70198
0
LINE
8
BLACK
6
CONTINUOUS
10
5.2674
20
2.70198
11
5.26527
21
2.69879
0
LINE
8
BLACK
6
CONTINUOUS
10
5.26527
20
2.69879
11
5.26207
21
2.69665
0
LINE
8
BLACK
6
CONTINUOUS
10
5.26207
20
2.69665
11
5.25831
21
2.69591
0
LINE
8
BLACK
6
CONTINUOUS
10
5.25831
20
2.69591
11
5.22287
21
2.69591
0
LINE
8
BLACK
6
CONTINUOUS
10
5.22287
20
2.69591
11
5.21911
21
2.69665
0
LINE
8
BLACK
6
CONTINUOUS
10
5.21911
20
2.69665
11
5.21591
21
2.69879
0
LINE
8
BLACK
6
CONTINUOUS
10
5.21591
20
2.69879
11
5.21378
21
2.70198
0
LINE
8
BLACK
6
CONTINUOUS
10
5.21378
20
2.70198
11
5.21303
21
2.70575
0
LINE
8
BLACK
6
CONTINUOUS
10
5.21303
20
2.70575
11
5.21303
21
2.72642
0
LINE
8
BLACK
6
CONTINUOUS
10
5.21303
20
2.72642
11
5.21378
21
2.73018
0
LINE
8
BLACK
6
CONTINUOUS
10
5.21378
20
2.73018
11
5.21591
21
2.73338
0
LINE
8
BLACK
6
CONTINUOUS
10
5.21591
20
2.73338
11
5.21911
21
2.73551
0
LINE
8
BLACK
6
CONTINUOUS
10
5.21911
20
2.73551
11
5.22287
21
2.73626
0
LINE
8
BLACK
6
CONTINUOUS
10
5.22287
20
2.73626
11
5.25831
21
2.73626
0
LINE
8
BLACK
6
CONTINUOUS
10
5.25831
20
2.73626
11
5.26207
21
2.73551
0
LINE
8
BLACK
6
CONTINUOUS
10
5.32408
20
2.7424
11
5.32727
21
2.74027
0
LINE
8
BLACK
6
CONTINUOUS
10
5.32727
20
2.74027
11
5.32941
21
2.73707
0
LINE
8
BLACK
6
CONTINUOUS
10
5.32941
20
2.73707
11
5.33016
21
2.73331
0
LINE
8
BLACK
6
CONTINUOUS
10
5.33016
20
2.73331
11
5.33016
21
2.71756
0
LINE
8
BLACK
6
CONTINUOUS
10
5.33016
20
2.71756
11
5.32941
21
2.71379
0
LINE
8
BLACK
6
CONTINUOUS
10
5.32941
20
2.71379
11
5.32727
21
2.7106
0
LINE
8
BLACK
6
CONTINUOUS
10
5.32727
20
2.7106
11
5.32408
21
2.70847
0
LINE
8
BLACK
6
CONTINUOUS
10
5.32408
20
2.70847
11
5.32031
21
2.70772
0
LINE
8
BLACK
6
CONTINUOUS
10
5.32031
20
2.70772
11
5.30063
21
2.70772
0
LINE
8
BLACK
6
CONTINUOUS
10
5.30063
20
2.70772
11
5.29686
21
2.70847
0
LINE
8
BLACK
6
CONTINUOUS
10
5.29686
20
2.70847
11
5.29367
21
2.7106
0
LINE
8
BLACK
6
CONTINUOUS
10
5.29367
20
2.7106
11
5.29154
21
2.71379
0
LINE
8
BLACK
6
CONTINUOUS
10
5.29154
20
2.71379
11
5.29079
21
2.71756
0
LINE
8
BLACK
6
CONTINUOUS
10
5.29079
20
2.71756
11
5.29079
21
2.73331
0
LINE
8
BLACK
6
CONTINUOUS
10
5.29079
20
2.73331
11
5.29154
21
2.73707
0
LINE
8
BLACK
6
CONTINUOUS
10
5.29154
20
2.73707
11
5.29367
21
2.74027
0
LINE
8
BLACK
6
CONTINUOUS
10
5.29367
20
2.74027
11
5.29686
21
2.7424
0
LINE
8
BLACK
6
CONTINUOUS
10
5.29686
20
2.7424
11
5.30063
21
2.74315
0
LINE
8
BLACK
6
CONTINUOUS
10
5.30063
20
2.74315
11
5.32031
21
2.74315
0
LINE
8
BLACK
6
CONTINUOUS
10
5.32031
20
2.74315
11
5.32408
21
2.7424
0
LINE
8
BLACK
6
CONTINUOUS
10
5.26207
20
2.80736
11
5.26527
21
2.80523
0
LINE
8
BLACK
6
CONTINUOUS
10
5.26527
20
2.80523
11
5.2674
21
2.80203
0
LINE
8
BLACK
6
CONTINUOUS
10
5.2674
20
2.80203
11
5.26815
21
2.79827
0
LINE
8
BLACK
6
CONTINUOUS
10
5.26815
20
2.79827
11
5.26815
21
2.7776
0
LINE
8
BLACK
6
CONTINUOUS
10
5.26815
20
2.7776
11
5.2674
21
2.77383
0
LINE
8
BLACK
6
CONTINUOUS
10
5.2674
20
2.77383
11
5.26527
21
2.77064
0
LINE
8
BLACK
6
CONTINUOUS
10
5.26527
20
2.77064
11
5.26207
21
2.76851
0
LINE
8
BLACK
6
CONTINUOUS
10
5.26207
20
2.76851
11
5.25831
21
2.76776
0
LINE
8
BLACK
6
CONTINUOUS
10
5.25831
20
2.76776
11
5.22287
21
2.76776
0
LINE
8
BLACK
6
CONTINUOUS
10
5.22287
20
2.76776
11
5.21911
21
2.76851
0
LINE
8
BLACK
6
CONTINUOUS
10
5.21911
20
2.76851
11
5.21591
21
2.77064
0
LINE
8
BLACK
6
CONTINUOUS
10
5.21591
20
2.77064
11
5.21378
21
2.77383
0
LINE
8
BLACK
6
CONTINUOUS
10
5.21378
20
2.77383
11
5.21303
21
2.7776
0
LINE
8
BLACK
6
CONTINUOUS
10
5.21303
20
2.7776
11
5.21303
21
2.79827
0
LINE
8
BLACK
6
CONTINUOUS
10
5.21303
20
2.79827
11
5.21378
21
2.80203
0
LINE
8
BLACK
6
CONTINUOUS
10
5.21378
20
2.80203
11
5.21591
21
2.80523
0
LINE
8
BLACK
6
CONTINUOUS
10
5.21591
20
2.80523
11
5.21911
21
2.80736
0
LINE
8
BLACK
6
CONTINUOUS
10
5.21911
20
2.80736
11
5.22287
21
2.80811
0
LINE
8
BLACK
6
CONTINUOUS
10
5.22287
20
2.80811
11
5.25831
21
2.80811
0
LINE
8
BLACK
6
CONTINUOUS
10
5.25831
20
2.80811
11
5.26207
21
2.80736
0
LINE
8
BLACK
6
CONTINUOUS
10
5.32408
20
2.80539
11
5.32727
21
2.80326
0
LINE
8
BLACK
6
CONTINUOUS
10
5.32727
20
2.80326
11
5.32941
21
2.80007
0
LINE
8
BLACK
6
CONTINUOUS
10
5.32941
20
2.80007
11
5.33016
21
2.7963
0
LINE
8
BLACK
6
CONTINUOUS
10
5.33016
20
2.7963
11
5.33016
21
2.78055
0
LINE
8
BLACK
6
CONTINUOUS
10
5.33016
20
2.78055
11
5.32941
21
2.77678
0
LINE
8
BLACK
6
CONTINUOUS
10
5.32941
20
2.77678
11
5.32727
21
2.77359
0
LINE
8
BLACK
6
CONTINUOUS
10
5.32727
20
2.77359
11
5.32408
21
2.77146
0
LINE
8
BLACK
6
CONTINUOUS
10
5.32408
20
2.77146
11
5.32031
21
2.77071
0
LINE
8
BLACK
6
CONTINUOUS
10
5.32031
20
2.77071
11
5.30063
21
2.77071
0
LINE
8
BLACK
6
CONTINUOUS
10
5.30063
20
2.77071
11
5.29686
21
2.77146
0
LINE
8
BLACK
6
CONTINUOUS
10
5.29686
20
2.77146
11
5.29367
21
2.77359
0
LINE
8
BLACK
6
CONTINUOUS
10
5.29367
20
2.77359
11
5.29154
21
2.77678
0
LINE
8
BLACK
6
CONTINUOUS
10
5.29154
20
2.77678
11
5.29079
21
2.78055
0
LINE
8
BLACK
6
CONTINUOUS
10
5.29079
20
2.78055
11
5.29079
21
2.7963
0
LINE
8
BLACK
6
CONTINUOUS
10
5.29079
20
2.7963
11
5.29154
21
2.80007
0
LINE
8
BLACK
6
CONTINUOUS
10
5.29154
20
2.80007
11
5.29367
21
2.80326
0
LINE
8
BLACK
6
CONTINUOUS
10
5.29367
20
2.80326
11
5.29686
21
2.80539
0
LINE
8
BLACK
6
CONTINUOUS
10
5.29686
20
2.80539
11
5.30063
21
2.80614
0
LINE
8
BLACK
6
CONTINUOUS
10
5.30063
20
2.80614
11
5.32031
21
2.80614
0
LINE
8
BLACK
6
CONTINUOUS
10
5.32031
20
2.80614
11
5.32408
21
2.80539
  0
ENDSEC
  0
EOF
