  0
SECTION
  2
HEADER
  9
$ANGBASE
  50
0.0
  9
$ANGDIR
  70
1
  9
$MEASUREMENT
  70
0
  0
ENDSEC
  0
SECTION
  2
TABLES
  0
TABLE
  2
LTYPE
  70
4
  0
LTYPE
  5
40F
  2
CONTINUOUS
  70
0
  3
Solid line
  72
65
  73
0
  40
0.0
  0
LTYPE
  5
410
  2
DASHDOT
 70
0
  3
Dash Dot ____ _ ____ _
 72
65
 73
4
 40
2.0
 49
1.25
 49
-0.25
 49
0.25
 49
-0.25
  0
LTYPE
  5
411
  2
DASHED
 70
0
  3
Dashed __ __ __ __ __
 72
65
 73
2
 40
0.75
 49
0.5
 49
-0.25
  0
LTYPE
  5
43B
  2
DOTTED
 70
0
  3
Dotted .  .  .  .
 72
65
 73
2
 40
0.2
 49
0.0
 49
-0.2
  0
ENDTAB
  0
TABLE
  2
STYLE
  70
4
  0
STYLE
  2
KICAD
  70
0
  40
0
  41
1
  42
1
  50
0
  71
0
  3
isocp.shx
  0
STYLE
  2
KICADB
  70
0
  40
0
  41
1
  42
1
  50
0
  71
0
  3
isocp.shx
  0
STYLE
  2
KICADI
  70
0
  40
0
  41
1
  42
1
  50
15
  71
0
  3
isocp.shx
  0
STYLE
  2
KICADBI
  70
0
  40
0
  41
1
  42
1
  50
15
  71
0
  3
isocp.shx
  0
ENDTAB
  0
TABLE
  2
LAYER
  70
1
  0
LAYER
  2
BLACK
  70
0
  62
7
  6
CONTINUOUS
  0
ENDTAB
  0
ENDSEC
  0
SECTION
  2
ENTITIES
0
LINE
8
BLACK
6
CONTINUOUS
10
5.3610682677165356
20
3.3818186614173227
11
5.362133622047244
21
3.3807533070866143
0
LINE
8
BLACK
6
CONTINUOUS
10
5.362133622047244
20
3.3807533070866143
11
5.3622834645669286
21
3.3799999999999999
0
LINE
8
BLACK
6
CONTINUOUS
10
5.3622834645669286
20
3.3799999999999999
11
5.3622834645669286
21
0.
0
LINE
8
BLACK
6
CONTINUOUS
10
5.3622834645669286
20
0.
11
5.362133622047244
21
-0.0007533070866142
0
LINE
8
BLACK
6
CONTINUOUS
10
5.362133622047244
20
-0.0007533070866142
11
5.3610682677165356
21
-0.0018186614173228
0
LINE
8
BLACK
6
CONTINUOUS
10
5.3610682677165356
20
-0.0018186614173228
11
5.3603149606299212
21
-0.0019685039370079
0
LINE
8
BLACK
6
CONTINUOUS
10
5.3603149606299212
20
-0.0019685039370079
11
0.
21
-0.0019685039370079
0
LINE
8
BLACK
6
CONTINUOUS
10
0.
20
-0.0019685039370079
11
-0.0007533070866142
21
-0.0018186614173228
0
LINE
8
BLACK
6
CONTINUOUS
10
-0.0007533070866142
20
-0.0018186614173228
11
-0.0018186614173228
21
-0.0007533070866142
0
LINE
8
BLACK
6
CONTINUOUS
10
-0.0018186614173228
20
-0.0007533070866142
11
-0.0019685039370079
21
0.
0
LINE
8
BLACK
6
CONTINUOUS
10
-0.0019685039370079
20
0.
11
-0.0019685039370079
21
0.5876377952755906
0
LINE
8
BLACK
6
CONTINUOUS
10
-0.0019685039370079
20
0.5876377952755906
11
-0.0018186614173228
21
0.5883911023622047
0
LINE
8
BLACK
6
CONTINUOUS
10
-0.0018186614173228
20
0.5883911023622047
11
-0.0007533070866142
21
0.5894564566929134
0
LINE
8
BLACK
6
CONTINUOUS
10
-0.0007533070866142
20
0.5894564566929134
11
0.
21
0.5896062992125984
0
LINE
8
BLACK
6
CONTINUOUS
10
0.
20
0.5896062992125984
11
0.3833070866141732
21
0.5896062992125984
0
LINE
8
BLACK
6
CONTINUOUS
10
0.3833070866141732
20
0.5896062992125984
11
0.3833070866141732
21
2.7903937007874013
0
LINE
8
BLACK
6
CONTINUOUS
10
0.3833070866141732
20
2.7903937007874013
11
0.
21
2.7903937007874013
0
LINE
8
BLACK
6
CONTINUOUS
10
0.
20
2.7903937007874013
11
-0.0007533070866142
21
2.7905435433070864
0
LINE
8
BLACK
6
CONTINUOUS
10
-0.0007533070866142
20
2.7905435433070864
11
-0.0018186614173228
21
2.7916088976377953
0
LINE
8
BLACK
6
CONTINUOUS
10
-0.0018186614173228
20
2.7916088976377953
11
-0.0019685039370079
21
2.7923622047244092
0
LINE
8
BLACK
6
CONTINUOUS
10
-0.0019685039370079
20
2.7923622047244092
11
-0.0019685039370079
21
3.3799999999999999
0
LINE
8
BLACK
6
CONTINUOUS
10
-0.0019685039370079
20
3.3799999999999999
11
-0.0018186614173228
21
3.3807533070866143
0
LINE
8
BLACK
6
CONTINUOUS
10
-0.0018186614173228
20
3.3807533070866143
11
-0.0007533070866142
21
3.3818186614173227
0
LINE
8
BLACK
6
CONTINUOUS
10
-0.0007533070866142
20
3.3818186614173227
11
0.
21
3.3819685039370078
0
LINE
8
BLACK
6
CONTINUOUS
10
0.
20
3.3819685039370078
11
5.3603149606299212
21
3.3819685039370078
0
LINE
8
BLACK
6
CONTINUOUS
10
5.3603149606299212
20
3.3819685039370078
11
5.3610682677165356
21
3.3818186614173227
0
LINE
8
BLACK
6
CONTINUOUS
10
0.0019685039370079
20
3.378031496062992
11
0.0019685039370079
21
2.7943307086614171
0
LINE
8
BLACK
6
CONTINUOUS
10
0.0019685039370079
20
2.7943307086614171
11
0.3852755905511811
21
2.7943307086614171
0
LINE
8
BLACK
6
CONTINUOUS
10
0.3852755905511811
20
2.7943307086614171
11
0.3860288976377952
21
2.794180866141732
0
LINE
8
BLACK
6
CONTINUOUS
10
0.3860288976377952
20
2.794180866141732
11
0.3870942519685039
21
2.7931155118110236
0
LINE
8
BLACK
6
CONTINUOUS
10
0.3870942519685039
20
2.7931155118110236
11
0.387244094488189
21
2.7923622047244092
0
LINE
8
BLACK
6
CONTINUOUS
10
0.387244094488189
20
2.7923622047244092
11
0.387244094488189
21
0.5876377952755906
0
LINE
8
BLACK
6
CONTINUOUS
10
0.387244094488189
20
0.5876377952755906
11
0.3870942519685039
21
0.5868844881889763
0
LINE
8
BLACK
6
CONTINUOUS
10
0.3870942519685039
20
0.5868844881889763
11
0.3860288976377952
21
0.5858191338582677
0
LINE
8
BLACK
6
CONTINUOUS
10
0.3860288976377952
20
0.5858191338582677
11
0.3852755905511811
21
0.5856692913385827
0
LINE
8
BLACK
6
CONTINUOUS
10
0.3852755905511811
20
0.5856692913385827
11
0.0019685039370079
21
0.5856692913385827
0
LINE
8
BLACK
6
CONTINUOUS
10
0.0019685039370079
20
0.5856692913385827
11
0.0019685039370079
21
0.0019685039370079
0
LINE
8
BLACK
6
CONTINUOUS
10
0.0019685039370079
20
0.0019685039370079
11
5.3583464566929129
21
0.0019685039370079
0
LINE
8
BLACK
6
CONTINUOUS
10
5.3583464566929129
20
0.0019685039370079
11
5.3583464566929129
21
3.378031496062992
0
LINE
8
BLACK
6
CONTINUOUS
10
5.3583464566929129
20
3.378031496062992
11
0.0019685039370079
21
3.378031496062992
0
CIRCLE
8
BLACK
10
1.4364566929133857
20
0.5951181102362204
40
0.0068897637795276
0
CIRCLE
8
BLACK
10
2.1962992125984253
20
0.5951181102362204
40
0.0068897637795276
0
CIRCLE
8
BLACK
10
1.4364566929133857
20
2.7848818897637795
40
0.0068897637795276
0
CIRCLE
8
BLACK
10
2.1962992125984253
20
2.7848818897637795
40
0.0068897637795276
0
CIRCLE
8
BLACK
10
1.4364566929133857
20
0.2608661417322835
40
0.0068897637795276
0
CIRCLE
8
BLACK
10
1.4364566929133857
20
3.1191338582677166
40
0.0068897637795276
0
CIRCLE
8
BLACK
10
2.1962992125984253
20
0.2608661417322835
40
0.0068897637795276
0
CIRCLE
8
BLACK
10
2.1962992125984253
20
3.1191338582677166
40
0.0068897637795276
0
CIRCLE
8
BLACK
10
5.1899999999999995
20
3.0899999999999999
40
0.0068897637795276
0
LINE
8
BLACK
6
CONTINUOUS
10
5.1175107480314956
20
1.3246533858267717
11
5.1210587795275586
21
1.3231837401574802
0
LINE
8
BLACK
6
CONTINUOUS
10
5.1210587795275586
20
1.3231837401574802
11
5.1237742913385826
21
1.3204682283464566
0
LINE
8
BLACK
6
CONTINUOUS
10
5.1237742913385826
20
1.3204682283464566
11
5.1252439370078742
21
1.3169201968503936
0
LINE
8
BLACK
6
CONTINUOUS
10
5.1252439370078742
20
1.3169201968503936
11
5.1252439370078742
21
1.3130798031496063
0
LINE
8
BLACK
6
CONTINUOUS
10
5.1252439370078742
20
1.3130798031496063
11
5.1237742913385826
21
1.3095317716535433
0
LINE
8
BLACK
6
CONTINUOUS
10
5.1237742913385826
20
1.3095317716535433
11
5.1210587795275586
21
1.3068162598425197
0
LINE
8
BLACK
6
CONTINUOUS
10
5.1210587795275586
20
1.3068162598425197
11
5.1175107480314956
21
1.3053466141732284
0
LINE
8
BLACK
6
CONTINUOUS
10
5.1175107480314956
20
1.3053466141732284
11
5.1155905511811026
21
1.3051574803149606
0
LINE
8
BLACK
6
CONTINUOUS
10
5.1155905511811026
20
1.3051574803149606
11
5.0998425196850397
21
1.3051574803149606
0
LINE
8
BLACK
6
CONTINUOUS
10
5.0998425196850397
20
1.3051574803149606
11
5.0979223228346457
21
1.3053466141732284
0
LINE
8
BLACK
6
CONTINUOUS
10
5.0979223228346457
20
1.3053466141732284
11
5.0943742913385828
21
1.3068162598425197
0
LINE
8
BLACK
6
CONTINUOUS
10
5.0943742913385828
20
1.3068162598425197
11
5.0916587795275587
21
1.3095317716535433
0
LINE
8
BLACK
6
CONTINUOUS
10
5.0916587795275587
20
1.3095317716535433
11
5.0901891338582672
21
1.3130798031496063
0
LINE
8
BLACK
6
CONTINUOUS
10
5.0901891338582672
20
1.3130798031496063
11
5.0901891338582672
21
1.3169201968503936
0
LINE
8
BLACK
6
CONTINUOUS
10
5.0901891338582672
20
1.3169201968503936
11
5.0916587795275587
21
1.3204682283464566
0
LINE
8
BLACK
6
CONTINUOUS
10
5.0916587795275587
20
1.3204682283464566
11
5.0943742913385828
21
1.3231837401574802
0
LINE
8
BLACK
6
CONTINUOUS
10
5.0943742913385828
20
1.3231837401574802
11
5.0979223228346457
21
1.3246533858267717
0
LINE
8
BLACK
6
CONTINUOUS
10
5.0979223228346457
20
1.3246533858267717
11
5.0998425196850397
21
1.3248425196850393
0
LINE
8
BLACK
6
CONTINUOUS
10
5.0998425196850397
20
1.3248425196850393
11
5.1155905511811026
21
1.3248425196850393
0
LINE
8
BLACK
6
CONTINUOUS
10
5.1155905511811026
20
1.3248425196850393
11
5.1175107480314956
21
1.3246533858267717
0
LINE
8
BLACK
6
CONTINUOUS
10
5.1175107480314956
20
1.4919762204724409
11
5.1210587795275586
21
1.4905065748031496
0
LINE
8
BLACK
6
CONTINUOUS
10
5.1210587795275586
20
1.4905065748031496
11
5.1237742913385826
21
1.487791062992126
0
LINE
8
BLACK
6
CONTINUOUS
10
5.1237742913385826
20
1.487791062992126
11
5.1252439370078742
21
1.4842430314960628
0
LINE
8
BLACK
6
CONTINUOUS
10
5.1252439370078742
20
1.4842430314960628
11
5.1252439370078742
21
1.4804026377952755
0
LINE
8
BLACK
6
CONTINUOUS
10
5.1252439370078742
20
1.4804026377952755
11
5.1237742913385826
21
1.4768546062992125
0
LINE
8
BLACK
6
CONTINUOUS
10
5.1237742913385826
20
1.4768546062992125
11
5.1210587795275586
21
1.4741390944881889
0
LINE
8
BLACK
6
CONTINUOUS
10
5.1210587795275586
20
1.4741390944881889
11
5.1175107480314956
21
1.4726694488188976
0
LINE
8
BLACK
6
CONTINUOUS
10
5.1175107480314956
20
1.4726694488188976
11
5.1155905511811026
21
1.4724803149606298
0
LINE
8
BLACK
6
CONTINUOUS
10
5.1155905511811026
20
1.4724803149606298
11
5.0998425196850397
21
1.4724803149606298
0
LINE
8
BLACK
6
CONTINUOUS
10
5.0998425196850397
20
1.4724803149606298
11
5.0979223228346457
21
1.4726694488188976
0
LINE
8
BLACK
6
CONTINUOUS
10
5.0979223228346457
20
1.4726694488188976
11
5.0943742913385828
21
1.4741390944881889
0
LINE
8
BLACK
6
CONTINUOUS
10
5.0943742913385828
20
1.4741390944881889
11
5.0916587795275587
21
1.4768546062992125
0
LINE
8
BLACK
6
CONTINUOUS
10
5.0916587795275587
20
1.4768546062992125
11
5.0901891338582672
21
1.4804026377952755
0
LINE
8
BLACK
6
CONTINUOUS
10
5.0901891338582672
20
1.4804026377952755
11
5.0901891338582672
21
1.4842430314960628
0
LINE
8
BLACK
6
CONTINUOUS
10
5.0901891338582672
20
1.4842430314960628
11
5.0916587795275587
21
1.487791062992126
0
LINE
8
BLACK
6
CONTINUOUS
10
5.0916587795275587
20
1.487791062992126
11
5.0943742913385828
21
1.4905065748031496
0
LINE
8
BLACK
6
CONTINUOUS
10
5.0943742913385828
20
1.4905065748031496
11
5.0979223228346457
21
1.4919762204724409
0
LINE
8
BLACK
6
CONTINUOUS
10
5.0979223228346457
20
1.4919762204724409
11
5.0998425196850397
21
1.4921653543307087
0
LINE
8
BLACK
6
CONTINUOUS
10
5.0998425196850397
20
1.4921653543307087
11
5.1155905511811026
21
1.4921653543307087
0
LINE
8
BLACK
6
CONTINUOUS
10
5.1155905511811026
20
1.4921653543307087
11
5.1175107480314956
21
1.4919762204724409
0
CIRCLE
8
BLACK
10
0.39
20
3.0899999999999999
40
0.0068897637795276
0
CIRCLE
8
BLACK
10
3.0506299212598424
20
0.5953149606299213
40
0.0068897637795276
0
CIRCLE
8
BLACK
10
3.8104724409448818
20
0.5953149606299213
40
0.0068897637795276
0
CIRCLE
8
BLACK
10
4.5703149606299212
20
0.5953149606299213
40
0.0068897637795276
0
CIRCLE
8
BLACK
10
3.0506299212598424
20
2.7846850393700788
40
0.0068897637795276
0
CIRCLE
8
BLACK
10
3.8104724409448818
20
2.7846850393700788
40
0.0068897637795276
0
CIRCLE
8
BLACK
10
4.5703149606299212
20
2.7846850393700788
40
0.0068897637795276
0
CIRCLE
8
BLACK
10
3.0506299212598424
20
0.2628346456692913
40
0.0068897637795276
0
CIRCLE
8
BLACK
10
3.0506299212598424
20
3.1171653543307087
40
0.0068897637795276
0
CIRCLE
8
BLACK
10
3.8104724409448818
20
0.2628346456692913
40
0.0068897637795276
0
CIRCLE
8
BLACK
10
3.8104724409448818
20
3.1171653543307087
40
0.0068897637795276
0
CIRCLE
8
BLACK
10
4.5703149606299212
20
0.2628346456692913
40
0.0068897637795276
0
CIRCLE
8
BLACK
10
4.5703149606299212
20
3.1171653543307087
40
0.0068897637795276
0
CIRCLE
8
BLACK
10
5.1899999999999995
20
0.29
40
0.0068897637795276
0
CIRCLE
8
BLACK
10
0.39
20
0.29
40
0.0068897637795276
0
CIRCLE
8
BLACK
10
0.7494488188976378
20
2.6321259842519686
40
0.0068897637795276
0
CIRCLE
8
BLACK
10
0.7494488188976378
20
0.7340944881889764
40
0.0068897637795276
0
CIRCLE
8
BLACK
10
0.5289763779527559
20
1.4931496062992127
40
0.0068897637795276
0
CIRCLE
8
BLACK
10
0.5289763779527559
20
1.5718897637795275
40
0.0068897637795276
0
CIRCLE
8
BLACK
10
0.5289763779527559
20
1.6506299212598425
40
0.0068897637795276
0
CIRCLE
8
BLACK
10
0.5289763779527559
20
1.7293700787401574
40
0.0068897637795276
0
CIRCLE
8
BLACK
10
0.5289763779527559
20
1.8081102362204724
40
0.0068897637795276
0
CIRCLE
8
BLACK
10
0.5289763779527559
20
1.8868503937007874
40
0.0068897637795276
0
CIRCLE
8
BLACK
10
0.6077165354330708
20
1.4931496062992127
40
0.0068897637795276
0
CIRCLE
8
BLACK
10
0.6077165354330708
20
1.5718897637795275
40
0.0068897637795276
0
CIRCLE
8
BLACK
10
0.6077165354330708
20
1.6506299212598425
40
0.0068897637795276
0
CIRCLE
8
BLACK
10
0.6077165354330708
20
1.7293700787401574
40
0.0068897637795276
0
CIRCLE
8
BLACK
10
0.6077165354330708
20
1.8081102362204724
40
0.0068897637795276
0
CIRCLE
8
BLACK
10
0.6077165354330708
20
1.8868503937007874
40
0.0068897637795276
0
CIRCLE
8
BLACK
10
0.6864566929133858
20
1.4931496062992127
40
0.0068897637795276
0
CIRCLE
8
BLACK
10
0.6864566929133858
20
1.5718897637795275
40
0.0068897637795276
0
CIRCLE
8
BLACK
10
0.6864566929133858
20
1.6506299212598425
40
0.0068897637795276
0
CIRCLE
8
BLACK
10
0.6864566929133858
20
1.7293700787401574
40
0.0068897637795276
0
CIRCLE
8
BLACK
10
0.6864566929133858
20
1.8081102362204724
40
0.0068897637795276
0
CIRCLE
8
BLACK
10
0.6864566929133858
20
1.8868503937007874
40
0.0068897637795276
0
CIRCLE
8
BLACK
10
0.7651968503937008
20
1.4931496062992127
40
0.0068897637795276
0
CIRCLE
8
BLACK
10
0.7651968503937008
20
1.5718897637795275
40
0.0068897637795276
0
CIRCLE
8
BLACK
10
0.7651968503937008
20
1.6506299212598425
40
0.0068897637795276
0
CIRCLE
8
BLACK
10
0.7651968503937008
20
1.7293700787401574
40
0.0068897637795276
0
CIRCLE
8
BLACK
10
0.7651968503937008
20
1.8081102362204724
40
0.0068897637795276
0
CIRCLE
8
BLACK
10
0.7651968503937008
20
1.8868503937007874
40
0.0068897637795276
0
CIRCLE
8
BLACK
10
0.8439370078740157
20
1.4931496062992127
40
0.0068897637795276
0
CIRCLE
8
BLACK
10
0.8439370078740157
20
1.5718897637795275
40
0.0068897637795276
0
CIRCLE
8
BLACK
10
0.8439370078740157
20
1.6506299212598425
40
0.0068897637795276
0
CIRCLE
8
BLACK
10
0.8439370078740157
20
1.7293700787401574
40
0.0068897637795276
0
CIRCLE
8
BLACK
10
0.8439370078740157
20
1.8081102362204724
40
0.0068897637795276
0
CIRCLE
8
BLACK
10
0.8439370078740157
20
1.8868503937007874
40
0.0068897637795276
0
CIRCLE
8
BLACK
10
0.9462992125984252
20
1.068740157480315
40
0.0068897637795276
0
CIRCLE
8
BLACK
10
0.8478740157480315
20
1.068740157480315
40
0.0068897637795276
0
CIRCLE
8
BLACK
10
0.7494488188976378
20
1.068740157480315
40
0.0068897637795276
0
CIRCLE
8
BLACK
10
0.6510236220472441
20
1.068740157480315
40
0.0068897637795276
0
CIRCLE
8
BLACK
10
0.5525984251968504
20
1.068740157480315
40
0.0068897637795276
0
CIRCLE
8
BLACK
10
0.9462992125984252
20
0.9506299212598425
40
0.0068897637795276
0
CIRCLE
8
BLACK
10
0.8478740157480315
20
0.9506299212598425
40
0.0068897637795276
0
CIRCLE
8
BLACK
10
0.7494488188976378
20
0.9506299212598425
40
0.0068897637795276
0
CIRCLE
8
BLACK
10
0.6510236220472441
20
0.9506299212598425
40
0.0068897637795276
0
CIRCLE
8
BLACK
10
0.5525984251968504
20
0.9506299212598425
40
0.0068897637795276
0
CIRCLE
8
BLACK
10
0.9462992125984252
20
1.285275590551181
40
0.0068897637795276
0
CIRCLE
8
BLACK
10
0.8478740157480315
20
1.285275590551181
40
0.0068897637795276
0
CIRCLE
8
BLACK
10
0.7494488188976378
20
1.285275590551181
40
0.0068897637795276
0
CIRCLE
8
BLACK
10
0.6510236220472441
20
1.285275590551181
40
0.0068897637795276
0
CIRCLE
8
BLACK
10
0.5525984251968504
20
1.285275590551181
40
0.0068897637795276
0
CIRCLE
8
BLACK
10
0.9462992125984252
20
1.1671653543307086
40
0.0068897637795276
0
CIRCLE
8
BLACK
10
0.8478740157480315
20
1.1671653543307086
40
0.0068897637795276
0
CIRCLE
8
BLACK
10
0.7494488188976378
20
1.1671653543307086
40
0.0068897637795276
0
CIRCLE
8
BLACK
10
0.6510236220472441
20
1.1671653543307086
40
0.0068897637795276
0
CIRCLE
8
BLACK
10
0.5525984251968504
20
1.1671653543307086
40
0.0068897637795276
0
CIRCLE
8
BLACK
10
0.9462992125984252
20
2.1990551181102362
40
0.0068897637795276
0
CIRCLE
8
BLACK
10
0.8478740157480315
20
2.1990551181102362
40
0.0068897637795276
0
CIRCLE
8
BLACK
10
0.7494488188976378
20
2.1990551181102362
40
0.0068897637795276
0
CIRCLE
8
BLACK
10
0.6510236220472441
20
2.1990551181102362
40
0.0068897637795276
0
CIRCLE
8
BLACK
10
0.5525984251968504
20
2.1990551181102362
40
0.0068897637795276
0
CIRCLE
8
BLACK
10
0.9462992125984252
20
2.0809448818897636
40
0.0068897637795276
0
CIRCLE
8
BLACK
10
0.8478740157480315
20
2.0809448818897636
40
0.0068897637795276
0
CIRCLE
8
BLACK
10
0.7494488188976378
20
2.0809448818897636
40
0.0068897637795276
0
CIRCLE
8
BLACK
10
0.6510236220472441
20
2.0809448818897636
40
0.0068897637795276
0
CIRCLE
8
BLACK
10
0.5525984251968504
20
2.0809448818897636
40
0.0068897637795276
0
CIRCLE
8
BLACK
10
0.9462992125984252
20
2.4155905511811024
40
0.0068897637795276
0
CIRCLE
8
BLACK
10
0.8478740157480315
20
2.4155905511811024
40
0.0068897637795276
0
CIRCLE
8
BLACK
10
0.7494488188976378
20
2.4155905511811024
40
0.0068897637795276
0
CIRCLE
8
BLACK
10
0.6510236220472441
20
2.4155905511811024
40
0.0068897637795276
0
CIRCLE
8
BLACK
10
0.5525984251968504
20
2.4155905511811024
40
0.0068897637795276
0
CIRCLE
8
BLACK
10
0.9462992125984252
20
2.2974803149606298
40
0.0068897637795276
0
CIRCLE
8
BLACK
10
0.8478740157480315
20
2.2974803149606298
40
0.0068897637795276
0
CIRCLE
8
BLACK
10
0.7494488188976378
20
2.2974803149606298
40
0.0068897637795276
0
CIRCLE
8
BLACK
10
0.6510236220472441
20
2.2974803149606298
40
0.0068897637795276
0
CIRCLE
8
BLACK
10
0.5525984251968504
20
2.2974803149606298
40
0.0068897637795276
0
LINE
8
BLACK
6
CONTINUOUS
10
5.1214477559055114
20
1.0352833070866141
11
5.1249957874015744
21
1.0338136614173228
0
LINE
8
BLACK
6
CONTINUOUS
10
5.1249957874015744
20
1.0338136614173228
11
5.1277112992125984
21
1.0310981496062992
0
LINE
8
BLACK
6
CONTINUOUS
10
5.1277112992125984
20
1.0310981496062992
11
5.1291809448818899
21
1.0275501181102362
0
LINE
8
BLACK
6
CONTINUOUS
10
5.1291809448818899
20
1.0275501181102362
11
5.1291809448818899
21
1.0237097244094489
0
LINE
8
BLACK
6
CONTINUOUS
10
5.1291809448818899
20
1.0237097244094489
11
5.1277112992125984
21
1.0201616929133859
0
LINE
8
BLACK
6
CONTINUOUS
10
5.1277112992125984
20
1.0201616929133859
11
5.1249957874015744
21
1.0174461811023623
0
LINE
8
BLACK
6
CONTINUOUS
10
5.1249957874015744
20
1.0174461811023623
11
5.1214477559055114
21
1.0159765354330708
0
LINE
8
BLACK
6
CONTINUOUS
10
5.1214477559055114
20
1.0159765354330708
11
5.1195275590551184
21
1.0157874015748032
0
LINE
8
BLACK
6
CONTINUOUS
10
5.1195275590551184
20
1.0157874015748032
11
5.1037795275590554
21
1.0157874015748032
0
LINE
8
BLACK
6
CONTINUOUS
10
5.1037795275590554
20
1.0157874015748032
11
5.1018593307086615
21
1.0159765354330708
0
LINE
8
BLACK
6
CONTINUOUS
10
5.1018593307086615
20
1.0159765354330708
11
5.0983112992125985
21
1.0174461811023623
0
LINE
8
BLACK
6
CONTINUOUS
10
5.0983112992125985
20
1.0174461811023623
11
5.0955957874015745
21
1.0201616929133859
0
LINE
8
BLACK
6
CONTINUOUS
10
5.0955957874015745
20
1.0201616929133859
11
5.094126141732283
21
1.0237097244094489
0
LINE
8
BLACK
6
CONTINUOUS
10
5.094126141732283
20
1.0237097244094489
11
5.094126141732283
21
1.0275501181102362
0
LINE
8
BLACK
6
CONTINUOUS
10
5.094126141732283
20
1.0275501181102362
11
5.0955957874015745
21
1.0310981496062992
0
LINE
8
BLACK
6
CONTINUOUS
10
5.0955957874015745
20
1.0310981496062992
11
5.0983112992125985
21
1.0338136614173228
0
LINE
8
BLACK
6
CONTINUOUS
10
5.0983112992125985
20
1.0338136614173228
11
5.1018593307086615
21
1.0352833070866141
0
LINE
8
BLACK
6
CONTINUOUS
10
5.1018593307086615
20
1.0352833070866141
11
5.1037795275590554
21
1.0354724409448819
0
LINE
8
BLACK
6
CONTINUOUS
10
5.1037795275590554
20
1.0354724409448819
11
5.1195275590551184
21
1.0354724409448819
0
LINE
8
BLACK
6
CONTINUOUS
10
5.1195275590551184
20
1.0354724409448819
11
5.1214477559055114
21
1.0352833070866141
0
LINE
8
BLACK
6
CONTINUOUS
10
5.1214477559055114
20
1.2026061417322835
11
5.1249957874015744
21
1.201136496062992
0
LINE
8
BLACK
6
CONTINUOUS
10
5.1249957874015744
20
1.201136496062992
11
5.1277112992125984
21
1.1984209842519684
0
LINE
8
BLACK
6
CONTINUOUS
10
5.1277112992125984
20
1.1984209842519684
11
5.1291809448818899
21
1.1948729527559054
0
LINE
8
BLACK
6
CONTINUOUS
10
5.1291809448818899
20
1.1948729527559054
11
5.1291809448818899
21
1.1910325590551181
0
LINE
8
BLACK
6
CONTINUOUS
10
5.1291809448818899
20
1.1910325590551181
11
5.1277112992125984
21
1.1874845275590551
0
LINE
8
BLACK
6
CONTINUOUS
10
5.1277112992125984
20
1.1874845275590551
11
5.1249957874015744
21
1.1847690157480315
0
LINE
8
BLACK
6
CONTINUOUS
10
5.1249957874015744
20
1.1847690157480315
11
5.1214477559055114
21
1.1832993700787402
0
LINE
8
BLACK
6
CONTINUOUS
10
5.1214477559055114
20
1.1832993700787402
11
5.1195275590551184
21
1.1831102362204724
0
LINE
8
BLACK
6
CONTINUOUS
10
5.1195275590551184
20
1.1831102362204724
11
5.1037795275590554
21
1.1831102362204724
0
LINE
8
BLACK
6
CONTINUOUS
10
5.1037795275590554
20
1.1831102362204724
11
5.1018593307086615
21
1.1832993700787402
0
LINE
8
BLACK
6
CONTINUOUS
10
5.1018593307086615
20
1.1832993700787402
11
5.0983112992125985
21
1.1847690157480315
0
LINE
8
BLACK
6
CONTINUOUS
10
5.0983112992125985
20
1.1847690157480315
11
5.0955957874015745
21
1.1874845275590551
0
LINE
8
BLACK
6
CONTINUOUS
10
5.0955957874015745
20
1.1874845275590551
11
5.094126141732283
21
1.1910325590551181
0
LINE
8
BLACK
6
CONTINUOUS
10
5.094126141732283
20
1.1910325590551181
11
5.094126141732283
21
1.1948729527559054
0
LINE
8
BLACK
6
CONTINUOUS
10
5.094126141732283
20
1.1948729527559054
11
5.0955957874015745
21
1.1984209842519684
0
LINE
8
BLACK
6
CONTINUOUS
10
5.0955957874015745
20
1.1984209842519684
11
5.0983112992125985
21
1.201136496062992
0
LINE
8
BLACK
6
CONTINUOUS
10
5.0983112992125985
20
1.201136496062992
11
5.1018593307086615
21
1.2026061417322835
0
LINE
8
BLACK
6
CONTINUOUS
10
5.1018593307086615
20
1.2026061417322835
11
5.1037795275590554
21
1.2027952755905511
0
LINE
8
BLACK
6
CONTINUOUS
10
5.1037795275590554
20
1.2027952755905511
11
5.1195275590551184
21
1.2027952755905511
0
LINE
8
BLACK
6
CONTINUOUS
10
5.1195275590551184
20
1.2027952755905511
11
5.1214477559055114
21
1.2026061417322835
0
CIRCLE
8
BLACK
10
5.1360629921259839
20
2.8010236220472442
40
0.0068897637795276
0
CIRCLE
8
BLACK
10
5.1360629921259839
20
2.5734645669291338
40
0.0068897637795276
0
LINE
8
BLACK
6
CONTINUOUS
10
5.2982345669291337
20
2.8690327952755905
11
5.3012127952755908
21
2.8682348031496061
0
LINE
8
BLACK
6
CONTINUOUS
10
5.3012127952755908
20
2.8682348031496061
11
5.3038829921259838
21
2.8666931496062991
0
LINE
8
BLACK
6
CONTINUOUS
10
5.3038829921259838
20
2.8666931496062991
11
5.3060632283464564
21
2.8645129133858269
0
LINE
8
BLACK
6
CONTINUOUS
10
5.3060632283464564
20
2.8645129133858269
11
5.3076048818897634
21
2.861842716535433
0
LINE
8
BLACK
6
CONTINUOUS
10
5.3076048818897634
20
2.861842716535433
11
5.3084028740157478
21
2.8588644881889764
0
LINE
8
BLACK
6
CONTINUOUS
10
5.3084028740157478
20
2.8588644881889764
11
5.3084028740157478
21
2.8557811811023623
0
LINE
8
BLACK
6
CONTINUOUS
10
5.3084028740157478
20
2.8557811811023623
11
5.3076048818897634
21
2.8528029527559053
0
LINE
8
BLACK
6
CONTINUOUS
10
5.3076048818897634
20
2.8528029527559053
11
5.3060632283464564
21
2.8501327559055118
0
LINE
8
BLACK
6
CONTINUOUS
10
5.3060632283464564
20
2.8501327559055118
11
5.3038829921259838
21
2.8479525196850393
0
LINE
8
BLACK
6
CONTINUOUS
10
5.3038829921259838
20
2.8479525196850393
11
5.3012127952755908
21
2.8464108661417322
0
LINE
8
BLACK
6
CONTINUOUS
10
5.3012127952755908
20
2.8464108661417322
11
5.2982345669291337
21
2.8456128740157478
0
LINE
8
BLACK
6
CONTINUOUS
10
5.2982345669291337
20
2.8456128740157478
11
5.2966929133858267
21
2.8455118110236222
0
LINE
8
BLACK
6
CONTINUOUS
10
5.2966929133858267
20
2.8455118110236222
11
5.2651968503937008
21
2.8455118110236222
0
LINE
8
BLACK
6
CONTINUOUS
10
5.2651968503937008
20
2.8455118110236222
11
5.2636551968503937
21
2.8456128740157478
0
LINE
8
BLACK
6
CONTINUOUS
10
5.2636551968503937
20
2.8456128740157478
11
5.2606769685039367
21
2.8464108661417322
0
LINE
8
BLACK
6
CONTINUOUS
10
5.2606769685039367
20
2.8464108661417322
11
5.2580067716535428
21
2.8479525196850393
0
LINE
8
BLACK
6
CONTINUOUS
10
5.2580067716535428
20
2.8479525196850393
11
5.2558265354330711
21
2.8501327559055118
0
LINE
8
BLACK
6
CONTINUOUS
10
5.2558265354330711
20
2.8501327559055118
11
5.2542848818897641
21
2.8528029527559053
0
LINE
8
BLACK
6
CONTINUOUS
10
5.2542848818897641
20
2.8528029527559053
11
5.2534868897637796
21
2.8557811811023623
0
LINE
8
BLACK
6
CONTINUOUS
10
5.2534868897637796
20
2.8557811811023623
11
5.2534868897637796
21
2.8588644881889764
0
LINE
8
BLACK
6
CONTINUOUS
10
5.2534868897637796
20
2.8588644881889764
11
5.2542848818897641
21
2.861842716535433
0
LINE
8
BLACK
6
CONTINUOUS
10
5.2542848818897641
20
2.861842716535433
11
5.2558265354330711
21
2.8645129133858269
0
LINE
8
BLACK
6
CONTINUOUS
10
5.2558265354330711
20
2.8645129133858269
11
5.2580067716535428
21
2.8666931496062991
0
LINE
8
BLACK
6
CONTINUOUS
10
5.2580067716535428
20
2.8666931496062991
11
5.2606769685039367
21
2.8682348031496061
0
LINE
8
BLACK
6
CONTINUOUS
10
5.2606769685039367
20
2.8682348031496061
11
5.2636551968503937
21
2.8690327952755905
0
LINE
8
BLACK
6
CONTINUOUS
10
5.2636551968503937
20
2.8690327952755905
11
5.2651968503937008
21
2.8691338582677166
0
LINE
8
BLACK
6
CONTINUOUS
10
5.2651968503937008
20
2.8691338582677166
11
5.2966929133858267
21
2.8691338582677166
0
LINE
8
BLACK
6
CONTINUOUS
10
5.2966929133858267
20
2.8691338582677166
11
5.2982345669291337
21
2.8690327952755905
0
LINE
8
BLACK
6
CONTINUOUS
10
5.2982345669291337
20
2.5288753149606298
11
5.3012127952755908
21
2.5280773228346458
0
LINE
8
BLACK
6
CONTINUOUS
10
5.3012127952755908
20
2.5280773228346458
11
5.3038829921259838
21
2.5265356692913383
0
LINE
8
BLACK
6
CONTINUOUS
10
5.3038829921259838
20
2.5265356692913383
11
5.3060632283464564
21
2.5243554330708662
0
LINE
8
BLACK
6
CONTINUOUS
10
5.3060632283464564
20
2.5243554330708662
11
5.3076048818897634
21
2.5216852362204722
0
LINE
8
BLACK
6
CONTINUOUS
10
5.3076048818897634
20
2.5216852362204722
11
5.3084028740157478
21
2.5187070078740157
0
LINE
8
BLACK
6
CONTINUOUS
10
5.3084028740157478
20
2.5187070078740157
11
5.3084028740157478
21
2.5156237007874016
0
LINE
8
BLACK
6
CONTINUOUS
10
5.3084028740157478
20
2.5156237007874016
11
5.3076048818897634
21
2.5126454724409446
0
LINE
8
BLACK
6
CONTINUOUS
10
5.3076048818897634
20
2.5126454724409446
11
5.3060632283464564
21
2.5099752755905511
0
LINE
8
BLACK
6
CONTINUOUS
10
5.3060632283464564
20
2.5099752755905511
11
5.3038829921259838
21
2.5077950393700785
0
LINE
8
BLACK
6
CONTINUOUS
10
5.3038829921259838
20
2.5077950393700785
11
5.3012127952755908
21
2.5062533858267715
0
LINE
8
BLACK
6
CONTINUOUS
10
5.3012127952755908
20
2.5062533858267715
11
5.2982345669291337
21
2.5054553937007875
0
LINE
8
BLACK
6
CONTINUOUS
10
5.2982345669291337
20
2.5054553937007875
11
5.2966929133858267
21
2.5053543307086614
0
LINE
8
BLACK
6
CONTINUOUS
10
5.2966929133858267
20
2.5053543307086614
11
5.2651968503937008
21
2.5053543307086614
0
LINE
8
BLACK
6
CONTINUOUS
10
5.2651968503937008
20
2.5053543307086614
11
5.2636551968503937
21
2.5054553937007875
0
LINE
8
BLACK
6
CONTINUOUS
10
5.2636551968503937
20
2.5054553937007875
11
5.2606769685039367
21
2.5062533858267715
0
LINE
8
BLACK
6
CONTINUOUS
10
5.2606769685039367
20
2.5062533858267715
11
5.2580067716535428
21
2.5077950393700785
0
LINE
8
BLACK
6
CONTINUOUS
10
5.2580067716535428
20
2.5077950393700785
11
5.2558265354330711
21
2.5099752755905511
0
LINE
8
BLACK
6
CONTINUOUS
10
5.2558265354330711
20
2.5099752755905511
11
5.2542848818897641
21
2.5126454724409446
0
LINE
8
BLACK
6
CONTINUOUS
10
5.2542848818897641
20
2.5126454724409446
11
5.2534868897637796
21
2.5156237007874016
0
LINE
8
BLACK
6
CONTINUOUS
10
5.2534868897637796
20
2.5156237007874016
11
5.2534868897637796
21
2.5187070078740157
0
LINE
8
BLACK
6
CONTINUOUS
10
5.2534868897637796
20
2.5187070078740157
11
5.2542848818897641
21
2.5216852362204722
0
LINE
8
BLACK
6
CONTINUOUS
10
5.2542848818897641
20
2.5216852362204722
11
5.2558265354330711
21
2.5243554330708662
0
LINE
8
BLACK
6
CONTINUOUS
10
5.2558265354330711
20
2.5243554330708662
11
5.2580067716535428
21
2.5265356692913383
0
LINE
8
BLACK
6
CONTINUOUS
10
5.2580067716535428
20
2.5265356692913383
11
5.2606769685039367
21
2.5280773228346458
0
LINE
8
BLACK
6
CONTINUOUS
10
5.2606769685039367
20
2.5280773228346458
11
5.2636551968503937
21
2.5288753149606298
0
LINE
8
BLACK
6
CONTINUOUS
10
5.2636551968503937
20
2.5288753149606298
11
5.2651968503937008
21
2.5289763779527559
0
LINE
8
BLACK
6
CONTINUOUS
10
5.2651968503937008
20
2.5289763779527559
11
5.2966929133858267
21
2.5289763779527559
0
LINE
8
BLACK
6
CONTINUOUS
10
5.2966929133858267
20
2.5289763779527559
11
5.2982345669291337
21
2.5288753149606298
0
LINE
8
BLACK
6
CONTINUOUS
10
5.1395731496062993
20
2.8690327952755905
11
5.1425513779527554
21
2.8682348031496061
0
LINE
8
BLACK
6
CONTINUOUS
10
5.1425513779527554
20
2.8682348031496061
11
5.1452215748031493
21
2.8666931496062991
0
LINE
8
BLACK
6
CONTINUOUS
10
5.1452215748031493
20
2.8666931496062991
11
5.1474018110236219
21
2.8645129133858269
0
LINE
8
BLACK
6
CONTINUOUS
10
5.1474018110236219
20
2.8645129133858269
11
5.148943464566929
21
2.861842716535433
0
LINE
8
BLACK
6
CONTINUOUS
10
5.148943464566929
20
2.861842716535433
11
5.1497414566929134
21
2.8588644881889764
0
LINE
8
BLACK
6
CONTINUOUS
10
5.1497414566929134
20
2.8588644881889764
11
5.1497414566929134
21
2.8557811811023623
0
LINE
8
BLACK
6
CONTINUOUS
10
5.1497414566929134
20
2.8557811811023623
11
5.148943464566929
21
2.8528029527559053
0
LINE
8
BLACK
6
CONTINUOUS
10
5.148943464566929
20
2.8528029527559053
11
5.1474018110236219
21
2.8501327559055118
0
LINE
8
BLACK
6
CONTINUOUS
10
5.1474018110236219
20
2.8501327559055118
11
5.1452215748031493
21
2.8479525196850393
0
LINE
8
BLACK
6
CONTINUOUS
10
5.1452215748031493
20
2.8479525196850393
11
5.1425513779527554
21
2.8464108661417322
0
LINE
8
BLACK
6
CONTINUOUS
10
5.1425513779527554
20
2.8464108661417322
11
5.1395731496062993
21
2.8456128740157478
0
LINE
8
BLACK
6
CONTINUOUS
10
5.1395731496062993
20
2.8456128740157478
11
5.1380314960629923
21
2.8455118110236222
0
LINE
8
BLACK
6
CONTINUOUS
10
5.1380314960629923
20
2.8455118110236222
11
5.0947244094488191
21
2.8455118110236222
0
LINE
8
BLACK
6
CONTINUOUS
10
5.0947244094488191
20
2.8455118110236222
11
5.0931827559055121
21
2.8456128740157478
0
LINE
8
BLACK
6
CONTINUOUS
10
5.0931827559055121
20
2.8456128740157478
11
5.0902045275590551
21
2.8464108661417322
0
LINE
8
BLACK
6
CONTINUOUS
10
5.0902045275590551
20
2.8464108661417322
11
5.0875343307086611
21
2.8479525196850393
0
LINE
8
BLACK
6
CONTINUOUS
10
5.0875343307086611
20
2.8479525196850393
11
5.0853540944881885
21
2.8501327559055118
0
LINE
8
BLACK
6
CONTINUOUS
10
5.0853540944881885
20
2.8501327559055118
11
5.0838124409448815
21
2.8528029527559053
0
LINE
8
BLACK
6
CONTINUOUS
10
5.0838124409448815
20
2.8528029527559053
11
5.0830144488188971
21
2.8557811811023623
0
LINE
8
BLACK
6
CONTINUOUS
10
5.0830144488188971
20
2.8557811811023623
11
5.0830144488188971
21
2.8588644881889764
0
LINE
8
BLACK
6
CONTINUOUS
10
5.0830144488188971
20
2.8588644881889764
11
5.0838124409448815
21
2.861842716535433
0
LINE
8
BLACK
6
CONTINUOUS
10
5.0838124409448815
20
2.861842716535433
11
5.0853540944881885
21
2.8645129133858269
0
LINE
8
BLACK
6
CONTINUOUS
10
5.0853540944881885
20
2.8645129133858269
11
5.0875343307086611
21
2.8666931496062991
0
LINE
8
BLACK
6
CONTINUOUS
10
5.0875343307086611
20
2.8666931496062991
11
5.0902045275590551
21
2.8682348031496061
0
LINE
8
BLACK
6
CONTINUOUS
10
5.0902045275590551
20
2.8682348031496061
11
5.0931827559055121
21
2.8690327952755905
0
LINE
8
BLACK
6
CONTINUOUS
10
5.0931827559055121
20
2.8690327952755905
11
5.0947244094488191
21
2.8691338582677166
0
LINE
8
BLACK
6
CONTINUOUS
10
5.0947244094488191
20
2.8691338582677166
11
5.1380314960629923
21
2.8691338582677166
0
LINE
8
BLACK
6
CONTINUOUS
10
5.1380314960629923
20
2.8691338582677166
11
5.1395731496062993
21
2.8690327952755905
0
LINE
8
BLACK
6
CONTINUOUS
10
5.1395731496062993
20
2.5288753149606298
11
5.1425513779527554
21
2.5280773228346458
0
LINE
8
BLACK
6
CONTINUOUS
10
5.1425513779527554
20
2.5280773228346458
11
5.1452215748031493
21
2.5265356692913383
0
LINE
8
BLACK
6
CONTINUOUS
10
5.1452215748031493
20
2.5265356692913383
11
5.1474018110236219
21
2.5243554330708662
0
LINE
8
BLACK
6
CONTINUOUS
10
5.1474018110236219
20
2.5243554330708662
11
5.148943464566929
21
2.5216852362204722
0
LINE
8
BLACK
6
CONTINUOUS
10
5.148943464566929
20
2.5216852362204722
11
5.1497414566929134
21
2.5187070078740157
0
LINE
8
BLACK
6
CONTINUOUS
10
5.1497414566929134
20
2.5187070078740157
11
5.1497414566929134
21
2.5156237007874016
0
LINE
8
BLACK
6
CONTINUOUS
10
5.1497414566929134
20
2.5156237007874016
11
5.148943464566929
21
2.5126454724409446
0
LINE
8
BLACK
6
CONTINUOUS
10
5.148943464566929
20
2.5126454724409446
11
5.1474018110236219
21
2.5099752755905511
0
LINE
8
BLACK
6
CONTINUOUS
10
5.1474018110236219
20
2.5099752755905511
11
5.1452215748031493
21
2.5077950393700785
0
LINE
8
BLACK
6
CONTINUOUS
10
5.1452215748031493
20
2.5077950393700785
11
5.1425513779527554
21
2.5062533858267715
0
LINE
8
BLACK
6
CONTINUOUS
10
5.1425513779527554
20
2.5062533858267715
11
5.1395731496062993
21
2.5054553937007875
0
LINE
8
BLACK
6
CONTINUOUS
10
5.1395731496062993
20
2.5054553937007875
11
5.1380314960629923
21
2.5053543307086614
0
LINE
8
BLACK
6
CONTINUOUS
10
5.1380314960629923
20
2.5053543307086614
11
5.0947244094488191
21
2.5053543307086614
0
LINE
8
BLACK
6
CONTINUOUS
10
5.0947244094488191
20
2.5053543307086614
11
5.0931827559055121
21
2.5054553937007875
0
LINE
8
BLACK
6
CONTINUOUS
10
5.0931827559055121
20
2.5054553937007875
11
5.0902045275590551
21
2.5062533858267715
0
LINE
8
BLACK
6
CONTINUOUS
10
5.0902045275590551
20
2.5062533858267715
11
5.0875343307086611
21
2.5077950393700785
0
LINE
8
BLACK
6
CONTINUOUS
10
5.0875343307086611
20
2.5077950393700785
11
5.0853540944881885
21
2.5099752755905511
0
LINE
8
BLACK
6
CONTINUOUS
10
5.0853540944881885
20
2.5099752755905511
11
5.0838124409448815
21
2.5126454724409446
0
LINE
8
BLACK
6
CONTINUOUS
10
5.0838124409448815
20
2.5126454724409446
11
5.0830144488188971
21
2.5156237007874016
0
LINE
8
BLACK
6
CONTINUOUS
10
5.0830144488188971
20
2.5156237007874016
11
5.0830144488188971
21
2.5187070078740157
0
LINE
8
BLACK
6
CONTINUOUS
10
5.0830144488188971
20
2.5187070078740157
11
5.0838124409448815
21
2.5216852362204722
0
LINE
8
BLACK
6
CONTINUOUS
10
5.0838124409448815
20
2.5216852362204722
11
5.0853540944881885
21
2.5243554330708662
0
LINE
8
BLACK
6
CONTINUOUS
10
5.0853540944881885
20
2.5243554330708662
11
5.0875343307086611
21
2.5265356692913383
0
LINE
8
BLACK
6
CONTINUOUS
10
5.0875343307086611
20
2.5265356692913383
11
5.0902045275590551
21
2.5280773228346458
0
LINE
8
BLACK
6
CONTINUOUS
10
5.0902045275590551
20
2.5280773228346458
11
5.0931827559055121
21
2.5288753149606298
0
LINE
8
BLACK
6
CONTINUOUS
10
5.0931827559055121
20
2.5288753149606298
11
5.0947244094488191
21
2.5289763779527559
0
LINE
8
BLACK
6
CONTINUOUS
10
5.0947244094488191
20
2.5289763779527559
11
5.1380314960629923
21
2.5289763779527559
0
LINE
8
BLACK
6
CONTINUOUS
10
5.1380314960629923
20
2.5289763779527559
11
5.1395731496062993
21
2.5288753149606298
  0
ENDSEC
  0
EOF
