  0
SECTION
  2
HEADER
  9
$ANGBASE
  50
0.0
  9
$ANGDIR
  70
1
  9
$MEASUREMENT
  70
0
  0
ENDSEC
  0
SECTION
  2
TABLES
  0
TABLE
  2
LTYPE
  70
4
  0
LTYPE
  5
40F
  2
CONTINUOUS
  70
0
  3
Solid line
  72
65
  73
0
  40
0.0
  0
LTYPE
  5
410
  2
DASHDOT
 70
0
  3
Dash Dot ____ _ ____ _
 72
65
 73
4
 40
2.0
 49
1.25
 49
-0.25
 49
0.25
 49
-0.25
  0
LTYPE
  5
411
  2
DASHED
 70
0
  3
Dashed __ __ __ __ __
 72
65
 73
2
 40
0.75
 49
0.5
 49
-0.25
  0
LTYPE
  5
43B
  2
DOTTED
 70
0
  3
Dotted .  .  .  .
 72
65
 73
2
 40
0.2
 49
0.0
 49
-0.2
  0
ENDTAB
  0
TABLE
  2
STYLE
  70
4
  0
STYLE
  2
KICAD
  70
0
  40
0
  41
1
  42
1
  50
0
  71
0
  3
isocp.shx
  0
STYLE
  2
KICADB
  70
0
  40
0
  41
1
  42
1
  50
0
  71
0
  3
isocp.shx
  0
STYLE
  2
KICADI
  70
0
  40
0
  41
1
  42
1
  50
15
  71
0
  3
isocp.shx
  0
STYLE
  2
KICADBI
  70
0
  40
0
  41
1
  42
1
  50
15
  71
0
  3
isocp.shx
  0
ENDTAB
  0
TABLE
  2
LAYER
  70
1
  0
LAYER
  2
BLACK
  70
0
  62
7
  6
CONTINUOUS
  0
ENDTAB
  0
ENDSEC
  0
SECTION
  2
ENTITIES
0
LINE
8
BLACK
6
CONTINUOUS
10
5.3603149606299212
20
3.3819685039370078
11
5.3617068897637798
21
3.3813919291338581
0
LINE
8
BLACK
6
CONTINUOUS
10
5.3617068897637798
20
3.3813919291338581
11
5.3622834645669286
21
3.3799999999999999
0
LINE
8
BLACK
6
CONTINUOUS
10
5.3622834645669286
20
3.3799999999999999
11
5.3622834645669286
21
0.
0
LINE
8
BLACK
6
CONTINUOUS
10
5.3622834645669286
20
0.
11
5.3617068897637798
21
-0.0013919291338583
0
LINE
8
BLACK
6
CONTINUOUS
10
5.3617068897637798
20
-0.0013919291338583
11
5.3603149606299212
21
-0.0019685039370079
0
LINE
8
BLACK
6
CONTINUOUS
10
5.3603149606299212
20
-0.0019685039370079
11
0.
21
-0.0019685039370079
0
LINE
8
BLACK
6
CONTINUOUS
10
0.
20
-0.0019685039370079
11
-0.0013919291338583
21
-0.0013919291338583
0
LINE
8
BLACK
6
CONTINUOUS
10
-0.0013919291338583
20
-0.0013919291338583
11
-0.0019685039370079
21
0.
0
LINE
8
BLACK
6
CONTINUOUS
10
-0.0019685039370079
20
0.
11
-0.0019685039370079
21
0.5876377952755906
0
LINE
8
BLACK
6
CONTINUOUS
10
-0.0019685039370079
20
0.5876377952755906
11
-0.0013919291338583
21
0.5890297244094488
0
LINE
8
BLACK
6
CONTINUOUS
10
-0.0013919291338583
20
0.5890297244094488
11
0.
21
0.5896062992125984
0
LINE
8
BLACK
6
CONTINUOUS
10
0.
20
0.5896062992125984
11
0.3833070866141732
21
0.5896062992125984
0
LINE
8
BLACK
6
CONTINUOUS
10
0.3833070866141732
20
0.5896062992125984
11
0.3833070866141732
21
2.7903937007874013
0
LINE
8
BLACK
6
CONTINUOUS
10
0.3833070866141732
20
2.7903937007874013
11
0.
21
2.7903937007874013
0
LINE
8
BLACK
6
CONTINUOUS
10
0.
20
2.7903937007874013
11
-0.0013919291338583
21
2.790970275590551
0
LINE
8
BLACK
6
CONTINUOUS
10
-0.0013919291338583
20
2.790970275590551
11
-0.0019685039370079
21
2.7923622047244092
0
LINE
8
BLACK
6
CONTINUOUS
10
-0.0019685039370079
20
2.7923622047244092
11
-0.0019685039370079
21
3.3799999999999999
0
LINE
8
BLACK
6
CONTINUOUS
10
-0.0019685039370079
20
3.3799999999999999
11
-0.0013919291338583
21
3.3813919291338581
0
LINE
8
BLACK
6
CONTINUOUS
10
-0.0013919291338583
20
3.3813919291338581
11
0.
21
3.3819685039370078
0
LINE
8
BLACK
6
CONTINUOUS
10
0.
20
3.3819685039370078
11
5.3603149606299212
21
3.3819685039370078
0
LINE
8
BLACK
6
CONTINUOUS
10
0.0019685039370079
20
3.378031496062992
11
0.0019685039370079
21
2.7943307086614171
0
LINE
8
BLACK
6
CONTINUOUS
10
0.0019685039370079
20
2.7943307086614171
11
0.3852755905511811
21
2.7943307086614171
0
LINE
8
BLACK
6
CONTINUOUS
10
0.3852755905511811
20
2.7943307086614171
11
0.3866675196850394
21
2.7937541338582679
0
LINE
8
BLACK
6
CONTINUOUS
10
0.3866675196850394
20
2.7937541338582679
11
0.387244094488189
21
2.7923622047244092
0
LINE
8
BLACK
6
CONTINUOUS
10
0.387244094488189
20
2.7923622047244092
11
0.387244094488189
21
0.5876377952755906
0
LINE
8
BLACK
6
CONTINUOUS
10
0.387244094488189
20
0.5876377952755906
11
0.3866675196850394
21
0.5862458661417322
0
LINE
8
BLACK
6
CONTINUOUS
10
0.3866675196850394
20
0.5862458661417322
11
0.3852755905511811
21
0.5856692913385827
0
LINE
8
BLACK
6
CONTINUOUS
10
0.3852755905511811
20
0.5856692913385827
11
0.0019685039370079
21
0.5856692913385827
0
LINE
8
BLACK
6
CONTINUOUS
10
0.0019685039370079
20
0.5856692913385827
11
0.0019685039370079
21
0.0019685039370079
0
LINE
8
BLACK
6
CONTINUOUS
10
0.0019685039370079
20
0.0019685039370079
11
5.3583464566929129
21
0.0019685039370079
0
LINE
8
BLACK
6
CONTINUOUS
10
5.3583464566929129
20
0.0019685039370079
11
5.3583464566929129
21
3.378031496062992
0
LINE
8
BLACK
6
CONTINUOUS
10
5.3583464566929129
20
3.378031496062992
11
0.0019685039370079
21
3.378031496062992
  0
ENDSEC
  0
EOF
