  0
SECTION
  2
HEADER
  9
$ANGBASE
  50
0.0
  9
$ANGDIR
  70
1
  9
$MEASUREMENT
  70
0
  0
ENDSEC
  0
SECTION
  2
TABLES
  0
TABLE
  2
LTYPE
  70
4
  0
LTYPE
  5
40F
  2
CONTINUOUS
  70
0
  3
Solid line
  72
65
  73
0
  40
0.0
  0
LTYPE
  5
410
  2
DASHDOT
 70
0
  3
Dash Dot ____ _ ____ _
 72
65
 73
4
 40
2.0
 49
1.25
 49
-0.25
 49
0.25
 49
-0.25
  0
LTYPE
  5
411
  2
DASHED
 70
0
  3
Dashed __ __ __ __ __
 72
65
 73
2
 40
0.75
 49
0.5
 49
-0.25
  0
LTYPE
  5
43B
  2
DOTTED
 70
0
  3
Dotted .  .  .  .
 72
65
 73
2
 40
0.2
 49
0.0
 49
-0.2
  0
ENDTAB
  0
TABLE
  2
STYLE
  70
4
  0
STYLE
  2
KICAD
  70
0
  40
0
  41
1
  42
1
  50
0
  71
0
  3
isocp.shx
  0
STYLE
  2
KICADB
  70
0
  40
0
  41
1
  42
1
  50
0
  71
0
  3
isocp.shx
  0
STYLE
  2
KICADI
  70
0
  40
0
  41
1
  42
1
  50
15
  71
0
  3
isocp.shx
  0
STYLE
  2
KICADBI
  70
0
  40
0
  41
1
  42
1
  50
15
  71
0
  3
isocp.shx
  0
ENDTAB
  0
TABLE
  2
LAYER
  70
1
  0
LAYER
  2
BLACK
  70
0
  62
7
  6
CONTINUOUS
  0
ENDTAB
  0
ENDSEC
  0
SECTION
  2
ENTITIES
0
LINE
8
BLACK
6
CONTINUOUS
10
0.403947
20
2.60354
11
0.404404
21
2.6035
0
LINE
8
BLACK
6
CONTINUOUS
10
0.404404
20
2.6035
11
0.406279
21
2.60257
0
LINE
8
BLACK
6
CONTINUOUS
10
0.406279
20
2.60257
11
0.406687
21
2.6021
0
LINE
8
BLACK
6
CONTINUOUS
10
0.406687
20
2.6021
11
0.407159
21
2.60169
0
LINE
8
BLACK
6
CONTINUOUS
10
0.407159
20
2.60169
11
0.408096
21
2.59981
0
LINE
8
BLACK
6
CONTINUOUS
10
0.408096
20
2.59981
11
0.408129
21
2.59935
0
LINE
8
BLACK
6
CONTINUOUS
10
0.408129
20
2.59935
11
0.408304
21
2.59893
0
LINE
8
BLACK
6
CONTINUOUS
10
0.408304
20
2.59893
11
0.408304
21
2.59518
0
LINE
8
BLACK
6
CONTINUOUS
10
0.408304
20
2.59518
11
0.408129
21
2.59476
0
LINE
8
BLACK
6
CONTINUOUS
10
0.408129
20
2.59476
11
0.408096
21
2.5943
0
LINE
8
BLACK
6
CONTINUOUS
10
0.408096
20
2.5943
11
0.407159
21
2.59243
0
LINE
8
BLACK
6
CONTINUOUS
10
0.407159
20
2.59243
11
0.406687
21
2.59202
0
LINE
8
BLACK
6
CONTINUOUS
10
0.406687
20
2.59202
11
0.406279
21
2.59155
0
LINE
8
BLACK
6
CONTINUOUS
10
0.406279
20
2.59155
11
0.404404
21
2.59061
0
LINE
8
BLACK
6
CONTINUOUS
10
0.404404
20
2.59061
11
0.403947
21
2.59058
0
LINE
8
BLACK
6
CONTINUOUS
10
0.403947
20
2.59058
11
0.403523
21
2.5904
0
LINE
8
BLACK
6
CONTINUOUS
10
0.403523
20
2.5904
11
0.401649
21
2.5904
0
LINE
8
BLACK
6
CONTINUOUS
10
0.401649
20
2.5904
11
0.401119
21
2.59062
0
LINE
8
BLACK
6
CONTINUOUS
10
0.401119
20
2.59062
11
0.400557
21
2.59073
0
LINE
8
BLACK
6
CONTINUOUS
10
0.400557
20
2.59073
11
0.400444
21
2.5909
0
LINE
8
BLACK
6
CONTINUOUS
10
0.400444
20
2.5909
11
0.400257
21
2.59098
0
LINE
8
BLACK
6
CONTINUOUS
10
0.400257
20
2.59098
11
0.400037
21
2.59151
0
LINE
8
BLACK
6
CONTINUOUS
10
0.400037
20
2.59151
11
0.399718
21
2.59198
0
LINE
8
BLACK
6
CONTINUOUS
10
0.399718
20
2.59198
11
0.39816
21
2.59978
0
LINE
8
BLACK
6
CONTINUOUS
10
0.39816
20
2.59978
11
0.396489
21
2.59978
0
LINE
8
BLACK
6
CONTINUOUS
10
0.396489
20
2.59978
11
0.395617
21
2.59934
0
LINE
8
BLACK
6
CONTINUOUS
10
0.395617
20
2.59934
11
0.395181
21
2.59847
0
LINE
8
BLACK
6
CONTINUOUS
10
0.395181
20
2.59847
11
0.395181
21
2.59565
0
LINE
8
BLACK
6
CONTINUOUS
10
0.395181
20
2.59565
11
0.39591
21
2.59419
0
LINE
8
BLACK
6
CONTINUOUS
10
0.39591
20
2.59419
11
0.396017
21
2.59268
0
LINE
8
BLACK
6
CONTINUOUS
10
0.396017
20
2.59268
11
0.39503
21
2.59155
0
LINE
8
BLACK
6
CONTINUOUS
10
0.39503
20
2.59155
11
0.393527
21
2.59144
0
LINE
8
BLACK
6
CONTINUOUS
10
0.393527
20
2.59144
11
0.392389
21
2.59243
0
LINE
8
BLACK
6
CONTINUOUS
10
0.392389
20
2.59243
11
0.391452
21
2.5943
0
LINE
8
BLACK
6
CONTINUOUS
10
0.391452
20
2.5943
11
0.391419
21
2.59476
0
LINE
8
BLACK
6
CONTINUOUS
10
0.391419
20
2.59476
11
0.391244
21
2.59518
0
LINE
8
BLACK
6
CONTINUOUS
10
0.391244
20
2.59518
11
0.391244
21
2.59893
0
LINE
8
BLACK
6
CONTINUOUS
10
0.391244
20
2.59893
11
0.391419
21
2.59935
0
LINE
8
BLACK
6
CONTINUOUS
10
0.391419
20
2.59935
11
0.391452
21
2.59981
0
LINE
8
BLACK
6
CONTINUOUS
10
0.391452
20
2.59981
11
0.392389
21
2.60169
0
LINE
8
BLACK
6
CONTINUOUS
10
0.392389
20
2.60169
11
0.39286
21
2.6021
0
LINE
8
BLACK
6
CONTINUOUS
10
0.39286
20
2.6021
11
0.393269
21
2.60257
0
LINE
8
BLACK
6
CONTINUOUS
10
0.393269
20
2.60257
11
0.395144
21
2.6035
0
LINE
8
BLACK
6
CONTINUOUS
10
0.395144
20
2.6035
11
0.395601
21
2.60354
0
LINE
8
BLACK
6
CONTINUOUS
10
0.395601
20
2.60354
11
0.396024
21
2.60371
0
LINE
8
BLACK
6
CONTINUOUS
10
0.396024
20
2.60371
11
0.403523
21
2.60371
0
LINE
8
BLACK
6
CONTINUOUS
10
0.403523
20
2.60371
11
0.403947
21
2.60354
0
LINE
8
BLACK
6
CONTINUOUS
10
0.403244
20
2.59443
11
0.403931
21
2.59477
0
LINE
8
BLACK
6
CONTINUOUS
10
0.403931
20
2.59477
11
0.404367
21
2.59565
0
LINE
8
BLACK
6
CONTINUOUS
10
0.404367
20
2.59565
11
0.404367
21
2.59847
0
LINE
8
BLACK
6
CONTINUOUS
10
0.404367
20
2.59847
11
0.403931
21
2.59934
0
LINE
8
BLACK
6
CONTINUOUS
10
0.403931
20
2.59934
11
0.403059
21
2.59978
0
LINE
8
BLACK
6
CONTINUOUS
10
0.403059
20
2.59978
11
0.402175
21
2.59978
0
LINE
8
BLACK
6
CONTINUOUS
10
0.402175
20
2.59978
11
0.403244
21
2.59443
0
LINE
8
BLACK
6
CONTINUOUS
10
0.403009
20
2.62135
11
0.403466
21
2.62131
0
LINE
8
BLACK
6
CONTINUOUS
10
0.403466
20
2.62131
11
0.405341
21
2.62038
0
LINE
8
BLACK
6
CONTINUOUS
10
0.405341
20
2.62038
11
0.405553
21
2.62013
0
LINE
8
BLACK
6
CONTINUOUS
10
0.405553
20
2.62013
11
0.405853
21
2.62001
0
LINE
8
BLACK
6
CONTINUOUS
10
0.405853
20
2.62001
11
0.40679
21
2.61907
0
LINE
8
BLACK
6
CONTINUOUS
10
0.40679
20
2.61907
11
0.406914
21
2.61877
0
LINE
8
BLACK
6
CONTINUOUS
10
0.406914
20
2.61877
11
0.407159
21
2.61856
0
LINE
8
BLACK
6
CONTINUOUS
10
0.407159
20
2.61856
11
0.408096
21
2.61668
0
LINE
8
BLACK
6
CONTINUOUS
10
0.408096
20
2.61668
11
0.408129
21
2.61623
0
LINE
8
BLACK
6
CONTINUOUS
10
0.408129
20
2.61623
11
0.408304
21
2.6158
0
LINE
8
BLACK
6
CONTINUOUS
10
0.408304
20
2.6158
11
0.408304
21
2.61205
0
LINE
8
BLACK
6
CONTINUOUS
10
0.408304
20
2.61205
11
0.408129
21
2.61163
0
LINE
8
BLACK
6
CONTINUOUS
10
0.408129
20
2.61163
11
0.408096
21
2.61117
0
LINE
8
BLACK
6
CONTINUOUS
10
0.408096
20
2.61117
11
0.407985
21
2.61095
0
LINE
8
BLACK
6
CONTINUOUS
10
0.407985
20
2.61095
11
0.408304
21
2.61018
0
LINE
8
BLACK
6
CONTINUOUS
10
0.408304
20
2.61018
11
0.407727
21
2.60879
0
LINE
8
BLACK
6
CONTINUOUS
10
0.407727
20
2.60879
11
0.406336
21
2.60821
0
LINE
8
BLACK
6
CONTINUOUS
10
0.406336
20
2.60821
11
0.3904
21
2.60821
0
LINE
8
BLACK
6
CONTINUOUS
10
0.3904
20
2.60821
11
0.389977
21
2.60839
0
LINE
8
BLACK
6
CONTINUOUS
10
0.389977
20
2.60839
11
0.38952
21
2.60842
0
LINE
8
BLACK
6
CONTINUOUS
10
0.38952
20
2.60842
11
0.387645
21
2.60936
0
LINE
8
BLACK
6
CONTINUOUS
10
0.387645
20
2.60936
11
0.387433
21
2.6096
0
LINE
8
BLACK
6
CONTINUOUS
10
0.387433
20
2.6096
11
0.387133
21
2.60973
0
LINE
8
BLACK
6
CONTINUOUS
10
0.387133
20
2.60973
11
0.386196
21
2.61066
0
LINE
8
BLACK
6
CONTINUOUS
10
0.386196
20
2.61066
11
0.386072
21
2.61096
0
LINE
8
BLACK
6
CONTINUOUS
10
0.386072
20
2.61096
11
0.385827
21
2.61117
0
LINE
8
BLACK
6
CONTINUOUS
10
0.385827
20
2.61117
11
0.38489
21
2.61305
0
LINE
8
BLACK
6
CONTINUOUS
10
0.38489
20
2.61305
11
0.384857
21
2.61351
0
LINE
8
BLACK
6
CONTINUOUS
10
0.384857
20
2.61351
11
0.384682
21
2.61393
0
LINE
8
BLACK
6
CONTINUOUS
10
0.384682
20
2.61393
11
0.384682
21
2.61674
0
LINE
8
BLACK
6
CONTINUOUS
10
0.384682
20
2.61674
11
0.384857
21
2.61717
0
LINE
8
BLACK
6
CONTINUOUS
10
0.384857
20
2.61717
11
0.38489
21
2.61762
0
LINE
8
BLACK
6
CONTINUOUS
10
0.38489
20
2.61762
11
0.385827
21
2.6195
0
LINE
8
BLACK
6
CONTINUOUS
10
0.385827
20
2.6195
11
0.386965
21
2.62048
0
LINE
8
BLACK
6
CONTINUOUS
10
0.386965
20
2.62048
11
0.388468
21
2.62038
0
LINE
8
BLACK
6
CONTINUOUS
10
0.388468
20
2.62038
11
0.389455
21
2.61924
0
LINE
8
BLACK
6
CONTINUOUS
10
0.389455
20
2.61924
11
0.389349
21
2.61774
0
LINE
8
BLACK
6
CONTINUOUS
10
0.389349
20
2.61774
11
0.388619
21
2.61628
0
LINE
8
BLACK
6
CONTINUOUS
10
0.388619
20
2.61628
11
0.388619
21
2.61439
0
LINE
8
BLACK
6
CONTINUOUS
10
0.388619
20
2.61439
11
0.389206
21
2.61322
0
LINE
8
BLACK
6
CONTINUOUS
10
0.389206
20
2.61322
11
0.389691
21
2.61274
0
LINE
8
BLACK
6
CONTINUOUS
10
0.389691
20
2.61274
11
0.390865
21
2.61215
0
LINE
8
BLACK
6
CONTINUOUS
10
0.390865
20
2.61215
11
0.391244
21
2.61215
0
LINE
8
BLACK
6
CONTINUOUS
10
0.391244
20
2.61215
11
0.391244
21
2.6158
0
LINE
8
BLACK
6
CONTINUOUS
10
0.391244
20
2.6158
11
0.391419
21
2.61623
0
LINE
8
BLACK
6
CONTINUOUS
10
0.391419
20
2.61623
11
0.391452
21
2.61668
0
LINE
8
BLACK
6
CONTINUOUS
10
0.391452
20
2.61668
11
0.392389
21
2.61856
0
LINE
8
BLACK
6
CONTINUOUS
10
0.392389
20
2.61856
11
0.392634
21
2.61877
0
LINE
8
BLACK
6
CONTINUOUS
10
0.392634
20
2.61877
11
0.392758
21
2.61907
0
LINE
8
BLACK
6
CONTINUOUS
10
0.392758
20
2.61907
11
0.393695
21
2.62001
0
LINE
8
BLACK
6
CONTINUOUS
10
0.393695
20
2.62001
11
0.393994
21
2.62013
0
LINE
8
BLACK
6
CONTINUOUS
10
0.393994
20
2.62013
11
0.394207
21
2.62038
0
LINE
8
BLACK
6
CONTINUOUS
10
0.394207
20
2.62038
11
0.396081
21
2.62131
0
LINE
8
BLACK
6
CONTINUOUS
10
0.396081
20
2.62131
11
0.396538
21
2.62135
0
LINE
8
BLACK
6
CONTINUOUS
10
0.396538
20
2.62135
11
0.396962
21
2.62152
0
LINE
8
BLACK
6
CONTINUOUS
10
0.396962
20
2.62152
11
0.402586
21
2.62152
0
LINE
8
BLACK
6
CONTINUOUS
10
0.402586
20
2.62152
11
0.403009
21
2.62135
0
LINE
8
BLACK
6
CONTINUOUS
10
0.396253
20
2.617
11
0.395767
21
2.61651
0
LINE
8
BLACK
6
CONTINUOUS
10
0.395767
20
2.61651
11
0.395181
21
2.61534
0
LINE
8
BLACK
6
CONTINUOUS
10
0.395181
20
2.61534
11
0.395181
21
2.61252
0
LINE
8
BLACK
6
CONTINUOUS
10
0.395181
20
2.61252
11
0.395366
21
2.61215
0
LINE
8
BLACK
6
CONTINUOUS
10
0.395366
20
2.61215
11
0.404182
21
2.61215
0
LINE
8
BLACK
6
CONTINUOUS
10
0.404182
20
2.61215
11
0.404367
21
2.61252
0
LINE
8
BLACK
6
CONTINUOUS
10
0.404367
20
2.61252
11
0.404367
21
2.61534
0
LINE
8
BLACK
6
CONTINUOUS
10
0.404367
20
2.61534
11
0.40378
21
2.61651
0
LINE
8
BLACK
6
CONTINUOUS
10
0.40378
20
2.61651
11
0.403295
21
2.617
0
LINE
8
BLACK
6
CONTINUOUS
10
0.403295
20
2.617
11
0.402121
21
2.61759
0
LINE
8
BLACK
6
CONTINUOUS
10
0.402121
20
2.61759
11
0.397426
21
2.61759
0
LINE
8
BLACK
6
CONTINUOUS
10
0.397426
20
2.61759
11
0.396253
21
2.617
0
LINE
8
BLACK
6
CONTINUOUS
10
0.403009
20
2.63916
11
0.403466
21
2.63912
0
LINE
8
BLACK
6
CONTINUOUS
10
0.403466
20
2.63912
11
0.405341
21
2.63819
0
LINE
8
BLACK
6
CONTINUOUS
10
0.405341
20
2.63819
11
0.405553
21
2.63794
0
LINE
8
BLACK
6
CONTINUOUS
10
0.405553
20
2.63794
11
0.405853
21
2.63782
0
LINE
8
BLACK
6
CONTINUOUS
10
0.405853
20
2.63782
11
0.40679
21
2.63688
0
LINE
8
BLACK
6
CONTINUOUS
10
0.40679
20
2.63688
11
0.406914
21
2.63658
0
LINE
8
BLACK
6
CONTINUOUS
10
0.406914
20
2.63658
11
0.407159
21
2.63637
0
LINE
8
BLACK
6
CONTINUOUS
10
0.407159
20
2.63637
11
0.408096
21
2.63449
0
LINE
8
BLACK
6
CONTINUOUS
10
0.408096
20
2.63449
11
0.408129
21
2.63404
0
LINE
8
BLACK
6
CONTINUOUS
10
0.408129
20
2.63404
11
0.408304
21
2.63361
0
LINE
8
BLACK
6
CONTINUOUS
10
0.408304
20
2.63361
11
0.408304
21
2.62996
0
LINE
8
BLACK
6
CONTINUOUS
10
0.408304
20
2.62996
11
0.412897
21
2.62996
0
LINE
8
BLACK
6
CONTINUOUS
10
0.412897
20
2.62996
11
0.414289
21
2.62938
0
LINE
8
BLACK
6
CONTINUOUS
10
0.414289
20
2.62938
11
0.414866
21
2.62799
0
LINE
8
BLACK
6
CONTINUOUS
10
0.414866
20
2.62799
11
0.414289
21
2.6266
0
LINE
8
BLACK
6
CONTINUOUS
10
0.414289
20
2.6266
11
0.412897
21
2.62602
0
LINE
8
BLACK
6
CONTINUOUS
10
0.412897
20
2.62602
11
0.393212
21
2.62602
0
LINE
8
BLACK
6
CONTINUOUS
10
0.393212
20
2.62602
11
0.39182
21
2.6266
0
LINE
8
BLACK
6
CONTINUOUS
10
0.39182
20
2.6266
11
0.391244
21
2.62799
0
LINE
8
BLACK
6
CONTINUOUS
10
0.391244
20
2.62799
11
0.391563
21
2.62876
0
LINE
8
BLACK
6
CONTINUOUS
10
0.391563
20
2.62876
11
0.391452
21
2.62898
0
LINE
8
BLACK
6
CONTINUOUS
10
0.391452
20
2.62898
11
0.391419
21
2.62944
0
LINE
8
BLACK
6
CONTINUOUS
10
0.391419
20
2.62944
11
0.391244
21
2.62987
0
LINE
8
BLACK
6
CONTINUOUS
10
0.391244
20
2.62987
11
0.391244
21
2.63361
0
LINE
8
BLACK
6
CONTINUOUS
10
0.391244
20
2.63361
11
0.391419
21
2.63404
0
LINE
8
BLACK
6
CONTINUOUS
10
0.391419
20
2.63404
11
0.391452
21
2.63449
0
LINE
8
BLACK
6
CONTINUOUS
10
0.391452
20
2.63449
11
0.392389
21
2.63637
0
LINE
8
BLACK
6
CONTINUOUS
10
0.392389
20
2.63637
11
0.392634
21
2.63658
0
LINE
8
BLACK
6
CONTINUOUS
10
0.392634
20
2.63658
11
0.392758
21
2.63688
0
LINE
8
BLACK
6
CONTINUOUS
10
0.392758
20
2.63688
11
0.393695
21
2.63782
0
LINE
8
BLACK
6
CONTINUOUS
10
0.393695
20
2.63782
11
0.393994
21
2.63794
0
LINE
8
BLACK
6
CONTINUOUS
10
0.393994
20
2.63794
11
0.394207
21
2.63819
0
LINE
8
BLACK
6
CONTINUOUS
10
0.394207
20
2.63819
11
0.396081
21
2.63912
0
LINE
8
BLACK
6
CONTINUOUS
10
0.396081
20
2.63912
11
0.396538
21
2.63916
0
LINE
8
BLACK
6
CONTINUOUS
10
0.396538
20
2.63916
11
0.396962
21
2.63933
0
LINE
8
BLACK
6
CONTINUOUS
10
0.396962
20
2.63933
11
0.402586
21
2.63933
0
LINE
8
BLACK
6
CONTINUOUS
10
0.402586
20
2.63933
11
0.403009
21
2.63916
0
LINE
8
BLACK
6
CONTINUOUS
10
0.396253
20
2.63481
11
0.395767
21
2.63432
0
LINE
8
BLACK
6
CONTINUOUS
10
0.395767
20
2.63432
11
0.395181
21
2.63315
0
LINE
8
BLACK
6
CONTINUOUS
10
0.395181
20
2.63315
11
0.395181
21
2.63033
0
LINE
8
BLACK
6
CONTINUOUS
10
0.395181
20
2.63033
11
0.395366
21
2.62996
0
LINE
8
BLACK
6
CONTINUOUS
10
0.395366
20
2.62996
11
0.404182
21
2.62996
0
LINE
8
BLACK
6
CONTINUOUS
10
0.404182
20
2.62996
11
0.404367
21
2.63033
0
LINE
8
BLACK
6
CONTINUOUS
10
0.404367
20
2.63033
11
0.404367
21
2.63315
0
LINE
8
BLACK
6
CONTINUOUS
10
0.404367
20
2.63315
11
0.40378
21
2.63432
0
LINE
8
BLACK
6
CONTINUOUS
10
0.40378
20
2.63432
11
0.403295
21
2.63481
0
LINE
8
BLACK
6
CONTINUOUS
10
0.403295
20
2.63481
11
0.402121
21
2.6354
0
LINE
8
BLACK
6
CONTINUOUS
10
0.402121
20
2.6354
11
0.397426
21
2.6354
0
LINE
8
BLACK
6
CONTINUOUS
10
0.397426
20
2.6354
11
0.396253
21
2.63481
0
LINE
8
BLACK
6
CONTINUOUS
10
0.403947
20
2.65603
11
0.404404
21
2.656
0
LINE
8
BLACK
6
CONTINUOUS
10
0.404404
20
2.656
11
0.406279
21
2.65506
0
LINE
8
BLACK
6
CONTINUOUS
10
0.406279
20
2.65506
11
0.406687
21
2.65459
0
LINE
8
BLACK
6
CONTINUOUS
10
0.406687
20
2.65459
11
0.407159
21
2.65418
0
LINE
8
BLACK
6
CONTINUOUS
10
0.407159
20
2.65418
11
0.408096
21
2.65231
0
LINE
8
BLACK
6
CONTINUOUS
10
0.408096
20
2.65231
11
0.408129
21
2.65185
0
LINE
8
BLACK
6
CONTINUOUS
10
0.408129
20
2.65185
11
0.408304
21
2.65142
0
LINE
8
BLACK
6
CONTINUOUS
10
0.408304
20
2.65142
11
0.408304
21
2.64768
0
LINE
8
BLACK
6
CONTINUOUS
10
0.408304
20
2.64768
11
0.408129
21
2.64725
0
LINE
8
BLACK
6
CONTINUOUS
10
0.408129
20
2.64725
11
0.408096
21
2.6468
0
LINE
8
BLACK
6
CONTINUOUS
10
0.408096
20
2.6468
11
0.407159
21
2.64492
0
LINE
8
BLACK
6
CONTINUOUS
10
0.407159
20
2.64492
11
0.406687
21
2.64451
0
LINE
8
BLACK
6
CONTINUOUS
10
0.406687
20
2.64451
11
0.406279
21
2.64404
0
LINE
8
BLACK
6
CONTINUOUS
10
0.406279
20
2.64404
11
0.404404
21
2.6431
0
LINE
8
BLACK
6
CONTINUOUS
10
0.404404
20
2.6431
11
0.403947
21
2.64307
0
LINE
8
BLACK
6
CONTINUOUS
10
0.403947
20
2.64307
11
0.403523
21
2.64289
0
LINE
8
BLACK
6
CONTINUOUS
10
0.403523
20
2.64289
11
0.401649
21
2.64289
0
LINE
8
BLACK
6
CONTINUOUS
10
0.401649
20
2.64289
11
0.401119
21
2.64311
0
LINE
8
BLACK
6
CONTINUOUS
10
0.401119
20
2.64311
11
0.400557
21
2.64323
0
LINE
8
BLACK
6
CONTINUOUS
10
0.400557
20
2.64323
11
0.400444
21
2.64339
0
LINE
8
BLACK
6
CONTINUOUS
10
0.400444
20
2.64339
11
0.400257
21
2.64347
0
LINE
8
BLACK
6
CONTINUOUS
10
0.400257
20
2.64347
11
0.400037
21
2.644
0
LINE
8
BLACK
6
CONTINUOUS
10
0.400037
20
2.644
11
0.399718
21
2.64448
0
LINE
8
BLACK
6
CONTINUOUS
10
0.399718
20
2.64448
11
0.39816
21
2.65227
0
LINE
8
BLACK
6
CONTINUOUS
10
0.39816
20
2.65227
11
0.396489
21
2.65227
0
LINE
8
BLACK
6
CONTINUOUS
10
0.396489
20
2.65227
11
0.395617
21
2.65183
0
LINE
8
BLACK
6
CONTINUOUS
10
0.395617
20
2.65183
11
0.395181
21
2.65096
0
LINE
8
BLACK
6
CONTINUOUS
10
0.395181
20
2.65096
11
0.395181
21
2.64814
0
LINE
8
BLACK
6
CONTINUOUS
10
0.395181
20
2.64814
11
0.39591
21
2.64668
0
LINE
8
BLACK
6
CONTINUOUS
10
0.39591
20
2.64668
11
0.396017
21
2.64518
0
LINE
8
BLACK
6
CONTINUOUS
10
0.396017
20
2.64518
11
0.39503
21
2.64404
0
LINE
8
BLACK
6
CONTINUOUS
10
0.39503
20
2.64404
11
0.393527
21
2.64393
0
LINE
8
BLACK
6
CONTINUOUS
10
0.393527
20
2.64393
11
0.392389
21
2.64492
0
LINE
8
BLACK
6
CONTINUOUS
10
0.392389
20
2.64492
11
0.391452
21
2.6468
0
LINE
8
BLACK
6
CONTINUOUS
10
0.391452
20
2.6468
11
0.391419
21
2.64725
0
LINE
8
BLACK
6
CONTINUOUS
10
0.391419
20
2.64725
11
0.391244
21
2.64768
0
LINE
8
BLACK
6
CONTINUOUS
10
0.391244
20
2.64768
11
0.391244
21
2.65142
0
LINE
8
BLACK
6
CONTINUOUS
10
0.391244
20
2.65142
11
0.391419
21
2.65185
0
LINE
8
BLACK
6
CONTINUOUS
10
0.391419
20
2.65185
11
0.391452
21
2.65231
0
LINE
8
BLACK
6
CONTINUOUS
10
0.391452
20
2.65231
11
0.392389
21
2.65418
0
LINE
8
BLACK
6
CONTINUOUS
10
0.392389
20
2.65418
11
0.39286
21
2.65459
0
LINE
8
BLACK
6
CONTINUOUS
10
0.39286
20
2.65459
11
0.393269
21
2.65506
0
LINE
8
BLACK
6
CONTINUOUS
10
0.393269
20
2.65506
11
0.395144
21
2.656
0
LINE
8
BLACK
6
CONTINUOUS
10
0.395144
20
2.656
11
0.395601
21
2.65603
0
LINE
8
BLACK
6
CONTINUOUS
10
0.395601
20
2.65603
11
0.396024
21
2.65621
0
LINE
8
BLACK
6
CONTINUOUS
10
0.396024
20
2.65621
11
0.403523
21
2.65621
0
LINE
8
BLACK
6
CONTINUOUS
10
0.403523
20
2.65621
11
0.403947
21
2.65603
0
LINE
8
BLACK
6
CONTINUOUS
10
0.403244
20
2.64692
11
0.403931
21
2.64727
0
LINE
8
BLACK
6
CONTINUOUS
10
0.403931
20
2.64727
11
0.404367
21
2.64814
0
LINE
8
BLACK
6
CONTINUOUS
10
0.404367
20
2.64814
11
0.404367
21
2.65096
0
LINE
8
BLACK
6
CONTINUOUS
10
0.404367
20
2.65096
11
0.403931
21
2.65183
0
LINE
8
BLACK
6
CONTINUOUS
10
0.403931
20
2.65183
11
0.403059
21
2.65227
0
LINE
8
BLACK
6
CONTINUOUS
10
0.403059
20
2.65227
11
0.402175
21
2.65227
0
LINE
8
BLACK
6
CONTINUOUS
10
0.402175
20
2.65227
11
0.403244
21
2.64692
0
LINE
8
BLACK
6
CONTINUOUS
10
0.414289
20
2.68937
11
0.414866
21
2.68798
0
LINE
8
BLACK
6
CONTINUOUS
10
0.414866
20
2.68798
11
0.414866
21
2.68142
0
LINE
8
BLACK
6
CONTINUOUS
10
0.414866
20
2.68142
11
0.41469
21
2.681
0
LINE
8
BLACK
6
CONTINUOUS
10
0.41469
20
2.681
11
0.414658
21
2.68054
0
LINE
8
BLACK
6
CONTINUOUS
10
0.414658
20
2.68054
11
0.413721
21
2.67867
0
LINE
8
BLACK
6
CONTINUOUS
10
0.413721
20
2.67867
11
0.413476
21
2.67845
0
LINE
8
BLACK
6
CONTINUOUS
10
0.413476
20
2.67845
11
0.413352
21
2.67815
0
LINE
8
BLACK
6
CONTINUOUS
10
0.413352
20
2.67815
11
0.412414
21
2.67722
0
LINE
8
BLACK
6
CONTINUOUS
10
0.412414
20
2.67722
11
0.412115
21
2.67709
0
LINE
8
BLACK
6
CONTINUOUS
10
0.412115
20
2.67709
11
0.411903
21
2.67685
0
LINE
8
BLACK
6
CONTINUOUS
10
0.411903
20
2.67685
11
0.410028
21
2.67591
0
LINE
8
BLACK
6
CONTINUOUS
10
0.410028
20
2.67591
11
0.409571
21
2.67588
0
LINE
8
BLACK
6
CONTINUOUS
10
0.409571
20
2.67588
11
0.409148
21
2.6757
0
LINE
8
BLACK
6
CONTINUOUS
10
0.409148
20
2.6757
11
0.407273
21
2.6757
0
LINE
8
BLACK
6
CONTINUOUS
10
0.407273
20
2.6757
11
0.40685
21
2.67588
0
LINE
8
BLACK
6
CONTINUOUS
10
0.40685
20
2.67588
11
0.406393
21
2.67591
0
LINE
8
BLACK
6
CONTINUOUS
10
0.406393
20
2.67591
11
0.404518
21
2.67685
0
LINE
8
BLACK
6
CONTINUOUS
10
0.404518
20
2.67685
11
0.404306
21
2.67709
0
LINE
8
BLACK
6
CONTINUOUS
10
0.404306
20
2.67709
11
0.404006
21
2.67722
0
LINE
8
BLACK
6
CONTINUOUS
10
0.404006
20
2.67722
11
0.403986
21
2.67724
0
LINE
8
BLACK
6
CONTINUOUS
10
0.403986
20
2.67724
11
0.403978
21
2.67722
0
LINE
8
BLACK
6
CONTINUOUS
10
0.403978
20
2.67722
11
0.403041
21
2.67628
0
LINE
8
BLACK
6
CONTINUOUS
10
0.403041
20
2.67628
11
0.402741
21
2.67616
0
LINE
8
BLACK
6
CONTINUOUS
10
0.402741
20
2.67616
11
0.402529
21
2.67591
0
LINE
8
BLACK
6
CONTINUOUS
10
0.402529
20
2.67591
11
0.400654
21
2.67497
0
LINE
8
BLACK
6
CONTINUOUS
10
0.400654
20
2.67497
11
0.400197
21
2.67494
0
LINE
8
BLACK
6
CONTINUOUS
10
0.400197
20
2.67494
11
0.399774
21
2.67477
0
LINE
8
BLACK
6
CONTINUOUS
10
0.399774
20
2.67477
11
0.396962
21
2.67477
0
LINE
8
BLACK
6
CONTINUOUS
10
0.396962
20
2.67477
11
0.396538
21
2.67494
0
LINE
8
BLACK
6
CONTINUOUS
10
0.396538
20
2.67494
11
0.396081
21
2.67497
0
LINE
8
BLACK
6
CONTINUOUS
10
0.396081
20
2.67497
11
0.394207
21
2.67591
0
LINE
8
BLACK
6
CONTINUOUS
10
0.394207
20
2.67591
11
0.393994
21
2.67616
0
LINE
8
BLACK
6
CONTINUOUS
10
0.393994
20
2.67616
11
0.393695
21
2.67628
0
LINE
8
BLACK
6
CONTINUOUS
10
0.393695
20
2.67628
11
0.392758
21
2.67722
0
LINE
8
BLACK
6
CONTINUOUS
10
0.392758
20
2.67722
11
0.392634
21
2.67752
0
LINE
8
BLACK
6
CONTINUOUS
10
0.392634
20
2.67752
11
0.392389
21
2.67773
0
LINE
8
BLACK
6
CONTINUOUS
10
0.392389
20
2.67773
11
0.391452
21
2.6796
0
LINE
8
BLACK
6
CONTINUOUS
10
0.391452
20
2.6796
11
0.391419
21
2.68006
0
LINE
8
BLACK
6
CONTINUOUS
10
0.391419
20
2.68006
11
0.391244
21
2.68048
0
LINE
8
BLACK
6
CONTINUOUS
10
0.391244
20
2.68048
11
0.391244
21
2.68798
0
LINE
8
BLACK
6
CONTINUOUS
10
0.391244
20
2.68798
11
0.39182
21
2.68937
0
LINE
8
BLACK
6
CONTINUOUS
10
0.39182
20
2.68937
11
0.393212
21
2.68995
0
LINE
8
BLACK
6
CONTINUOUS
10
0.393212
20
2.68995
11
0.412897
21
2.68995
0
LINE
8
BLACK
6
CONTINUOUS
10
0.412897
20
2.68995
11
0.414289
21
2.68937
0
LINE
8
BLACK
6
CONTINUOUS
10
0.395181
20
2.68095
11
0.395767
21
2.67978
0
LINE
8
BLACK
6
CONTINUOUS
10
0.395767
20
2.67978
11
0.396253
21
2.67929
0
LINE
8
BLACK
6
CONTINUOUS
10
0.396253
20
2.67929
11
0.397426
21
2.6787
0
LINE
8
BLACK
6
CONTINUOUS
10
0.397426
20
2.6787
11
0.399309
21
2.6787
0
LINE
8
BLACK
6
CONTINUOUS
10
0.399309
20
2.6787
11
0.400483
21
2.67929
0
LINE
8
BLACK
6
CONTINUOUS
10
0.400483
20
2.67929
11
0.400865
21
2.67967
0
LINE
8
BLACK
6
CONTINUOUS
10
0.400865
20
2.67967
11
0.401555
21
2.68174
0
LINE
8
BLACK
6
CONTINUOUS
10
0.401555
20
2.68174
11
0.401555
21
2.68601
0
LINE
8
BLACK
6
CONTINUOUS
10
0.401555
20
2.68601
11
0.395181
21
2.68601
0
LINE
8
BLACK
6
CONTINUOUS
10
0.395181
20
2.68601
11
0.395181
21
2.68095
0
LINE
8
BLACK
6
CONTINUOUS
10
0.405492
20
2.68189
11
0.406079
21
2.68071
0
LINE
8
BLACK
6
CONTINUOUS
10
0.406079
20
2.68071
11
0.406564
21
2.68023
0
LINE
8
BLACK
6
CONTINUOUS
10
0.406564
20
2.68023
11
0.407738
21
2.67964
0
LINE
8
BLACK
6
CONTINUOUS
10
0.407738
20
2.67964
11
0.408683
21
2.67964
0
LINE
8
BLACK
6
CONTINUOUS
10
0.408683
20
2.67964
11
0.409856
21
2.68023
0
LINE
8
BLACK
6
CONTINUOUS
10
0.409856
20
2.68023
11
0.410342
21
2.68071
0
LINE
8
BLACK
6
CONTINUOUS
10
0.410342
20
2.68071
11
0.410929
21
2.68189
0
LINE
8
BLACK
6
CONTINUOUS
10
0.410929
20
2.68189
11
0.410929
21
2.68601
0
LINE
8
BLACK
6
CONTINUOUS
10
0.410929
20
2.68601
11
0.405492
21
2.68601
0
LINE
8
BLACK
6
CONTINUOUS
10
0.405492
20
2.68601
11
0.405492
21
2.68189
0
LINE
8
BLACK
6
CONTINUOUS
10
0.404691
20
2.71048
11
0.404938
21
2.71051
0
LINE
8
BLACK
6
CONTINUOUS
10
0.404938
20
2.71051
11
0.408688
21
2.70958
0
LINE
8
BLACK
6
CONTINUOUS
10
0.408688
20
2.70958
11
0.408867
21
2.70944
0
LINE
8
BLACK
6
CONTINUOUS
10
0.408867
20
2.70944
11
0.409091
21
2.70943
0
LINE
8
BLACK
6
CONTINUOUS
10
0.409091
20
2.70943
11
0.410965
21
2.70849
0
LINE
8
BLACK
6
CONTINUOUS
10
0.410965
20
2.70849
11
0.411178
21
2.70825
0
LINE
8
BLACK
6
CONTINUOUS
10
0.411178
20
2.70825
11
0.411477
21
2.70812
0
LINE
8
BLACK
6
CONTINUOUS
10
0.411477
20
2.70812
11
0.413352
21
2.70625
0
LINE
8
BLACK
6
CONTINUOUS
10
0.413352
20
2.70625
11
0.413527
21
2.70582
0
LINE
8
BLACK
6
CONTINUOUS
10
0.413527
20
2.70582
11
0.413827
21
2.70548
0
LINE
8
BLACK
6
CONTINUOUS
10
0.413827
20
2.70548
11
0.414765
21
2.70267
0
LINE
8
BLACK
6
CONTINUOUS
10
0.414765
20
2.70267
11
0.414742
21
2.70234
0
LINE
8
BLACK
6
CONTINUOUS
10
0.414742
20
2.70234
11
0.414866
21
2.70204
0
LINE
8
BLACK
6
CONTINUOUS
10
0.414866
20
2.70204
11
0.414866
21
2.70017
0
LINE
8
BLACK
6
CONTINUOUS
10
0.414866
20
2.70017
11
0.414742
21
2.69987
0
LINE
8
BLACK
6
CONTINUOUS
10
0.414742
20
2.69987
11
0.414765
21
2.69955
0
LINE
8
BLACK
6
CONTINUOUS
10
0.414765
20
2.69955
11
0.413827
21
2.69673
0
LINE
8
BLACK
6
CONTINUOUS
10
0.413827
20
2.69673
11
0.413527
21
2.69639
0
LINE
8
BLACK
6
CONTINUOUS
10
0.413527
20
2.69639
11
0.413352
21
2.69596
0
LINE
8
BLACK
6
CONTINUOUS
10
0.413352
20
2.69596
11
0.412414
21
2.69503
0
LINE
8
BLACK
6
CONTINUOUS
10
0.412414
20
2.69503
11
0.411022
21
2.69445
0
LINE
8
BLACK
6
CONTINUOUS
10
0.411022
20
2.69445
11
0.409631
21
2.69503
0
LINE
8
BLACK
6
CONTINUOUS
10
0.409631
20
2.69503
11
0.409054
21
2.69642
0
LINE
8
BLACK
6
CONTINUOUS
10
0.409054
20
2.69642
11
0.409631
21
2.69781
0
LINE
8
BLACK
6
CONTINUOUS
10
0.409631
20
2.69781
11
0.410239
21
2.69842
0
LINE
8
BLACK
6
CONTINUOUS
10
0.410239
20
2.69842
11
0.410929
21
2.70049
0
LINE
8
BLACK
6
CONTINUOUS
10
0.410929
20
2.70049
11
0.410929
21
2.70172
0
LINE
8
BLACK
6
CONTINUOUS
10
0.410929
20
2.70172
11
0.410239
21
2.70379
0
LINE
8
BLACK
6
CONTINUOUS
10
0.410239
20
2.70379
11
0.408919
21
2.70511
0
LINE
8
BLACK
6
CONTINUOUS
10
0.408919
20
2.70511
11
0.407523
21
2.70581
0
LINE
8
BLACK
6
CONTINUOUS
10
0.407523
20
2.70581
11
0.404218
21
2.70664
0
LINE
8
BLACK
6
CONTINUOUS
10
0.404218
20
2.70664
11
0.401891
21
2.70664
0
LINE
8
BLACK
6
CONTINUOUS
10
0.401891
20
2.70664
11
0.398586
21
2.70581
0
LINE
8
BLACK
6
CONTINUOUS
10
0.398586
20
2.70581
11
0.39719
21
2.70511
0
LINE
8
BLACK
6
CONTINUOUS
10
0.39719
20
2.70511
11
0.39587
21
2.70379
0
LINE
8
BLACK
6
CONTINUOUS
10
0.39587
20
2.70379
11
0.395181
21
2.70172
0
LINE
8
BLACK
6
CONTINUOUS
10
0.395181
20
2.70172
11
0.395181
21
2.70049
0
LINE
8
BLACK
6
CONTINUOUS
10
0.395181
20
2.70049
11
0.39587
21
2.69842
0
LINE
8
BLACK
6
CONTINUOUS
10
0.39587
20
2.69842
11
0.396479
21
2.69781
0
LINE
8
BLACK
6
CONTINUOUS
10
0.396479
20
2.69781
11
0.397055
21
2.69642
0
LINE
8
BLACK
6
CONTINUOUS
10
0.397055
20
2.69642
11
0.396479
21
2.69503
0
LINE
8
BLACK
6
CONTINUOUS
10
0.396479
20
2.69503
11
0.395087
21
2.69445
0
LINE
8
BLACK
6
CONTINUOUS
10
0.395087
20
2.69445
11
0.393695
21
2.69503
0
LINE
8
BLACK
6
CONTINUOUS
10
0.393695
20
2.69503
11
0.392758
21
2.69596
0
LINE
8
BLACK
6
CONTINUOUS
10
0.392758
20
2.69596
11
0.392582
21
2.69639
0
LINE
8
BLACK
6
CONTINUOUS
10
0.392582
20
2.69639
11
0.392282
21
2.69673
0
LINE
8
BLACK
6
CONTINUOUS
10
0.392282
20
2.69673
11
0.391345
21
2.69955
0
LINE
8
BLACK
6
CONTINUOUS
10
0.391345
20
2.69955
11
0.391368
21
2.69987
0
LINE
8
BLACK
6
CONTINUOUS
10
0.391368
20
2.69987
11
0.391244
21
2.70017
0
LINE
8
BLACK
6
CONTINUOUS
10
0.391244
20
2.70017
11
0.391244
21
2.70204
0
LINE
8
BLACK
6
CONTINUOUS
10
0.391244
20
2.70204
11
0.391368
21
2.70234
0
LINE
8
BLACK
6
CONTINUOUS
10
0.391368
20
2.70234
11
0.391345
21
2.70267
0
LINE
8
BLACK
6
CONTINUOUS
10
0.391345
20
2.70267
11
0.392282
21
2.70548
0
LINE
8
BLACK
6
CONTINUOUS
10
0.392282
20
2.70548
11
0.392582
21
2.70582
0
LINE
8
BLACK
6
CONTINUOUS
10
0.392582
20
2.70582
11
0.392758
21
2.70625
0
LINE
8
BLACK
6
CONTINUOUS
10
0.392758
20
2.70625
11
0.394632
21
2.70812
0
LINE
8
BLACK
6
CONTINUOUS
10
0.394632
20
2.70812
11
0.394932
21
2.70825
0
LINE
8
BLACK
6
CONTINUOUS
10
0.394932
20
2.70825
11
0.395144
21
2.70849
0
LINE
8
BLACK
6
CONTINUOUS
10
0.395144
20
2.70849
11
0.397019
21
2.70943
0
LINE
8
BLACK
6
CONTINUOUS
10
0.397019
20
2.70943
11
0.397242
21
2.70944
0
LINE
8
BLACK
6
CONTINUOUS
10
0.397242
20
2.70944
11
0.397422
21
2.70958
0
LINE
8
BLACK
6
CONTINUOUS
10
0.397422
20
2.70958
11
0.401171
21
2.71051
0
LINE
8
BLACK
6
CONTINUOUS
10
0.401171
20
2.71051
11
0.401418
21
2.71048
0
LINE
8
BLACK
6
CONTINUOUS
10
0.401418
20
2.71048
11
0.401649
21
2.71057
0
LINE
8
BLACK
6
CONTINUOUS
10
0.401649
20
2.71057
11
0.404461
21
2.71057
0
LINE
8
BLACK
6
CONTINUOUS
10
0.404461
20
2.71057
11
0.404691
21
2.71048
0
LINE
8
BLACK
6
CONTINUOUS
10
0.414289
20
2.72874
11
0.414866
21
2.72735
0
LINE
8
BLACK
6
CONTINUOUS
10
0.414866
20
2.72735
11
0.414866
21
2.71985
0
LINE
8
BLACK
6
CONTINUOUS
10
0.414866
20
2.71985
11
0.41469
21
2.71943
0
LINE
8
BLACK
6
CONTINUOUS
10
0.41469
20
2.71943
11
0.414658
21
2.71897
0
LINE
8
BLACK
6
CONTINUOUS
10
0.414658
20
2.71897
11
0.413721
21
2.7171
0
LINE
8
BLACK
6
CONTINUOUS
10
0.413721
20
2.7171
11
0.413476
21
2.71689
0
LINE
8
BLACK
6
CONTINUOUS
10
0.413476
20
2.71689
11
0.413352
21
2.71659
0
LINE
8
BLACK
6
CONTINUOUS
10
0.413352
20
2.71659
11
0.412414
21
2.71565
0
LINE
8
BLACK
6
CONTINUOUS
10
0.412414
20
2.71565
11
0.412115
21
2.71553
0
LINE
8
BLACK
6
CONTINUOUS
10
0.412115
20
2.71553
11
0.411903
21
2.71528
0
LINE
8
BLACK
6
CONTINUOUS
10
0.411903
20
2.71528
11
0.410028
21
2.71434
0
LINE
8
BLACK
6
CONTINUOUS
10
0.410028
20
2.71434
11
0.409571
21
2.71431
0
LINE
8
BLACK
6
CONTINUOUS
10
0.409571
20
2.71431
11
0.409148
21
2.71414
0
LINE
8
BLACK
6
CONTINUOUS
10
0.409148
20
2.71414
11
0.406336
21
2.71414
0
LINE
8
BLACK
6
CONTINUOUS
10
0.406336
20
2.71414
11
0.405912
21
2.71431
0
LINE
8
BLACK
6
CONTINUOUS
10
0.405912
20
2.71431
11
0.405455
21
2.71434
0
LINE
8
BLACK
6
CONTINUOUS
10
0.405455
20
2.71434
11
0.40358
21
2.71528
0
LINE
8
BLACK
6
CONTINUOUS
10
0.40358
20
2.71528
11
0.403368
21
2.71553
0
LINE
8
BLACK
6
CONTINUOUS
10
0.403368
20
2.71553
11
0.403069
21
2.71565
0
LINE
8
BLACK
6
CONTINUOUS
10
0.403069
20
2.71565
11
0.402131
21
2.71659
0
LINE
8
BLACK
6
CONTINUOUS
10
0.402131
20
2.71659
11
0.402007
21
2.71689
0
LINE
8
BLACK
6
CONTINUOUS
10
0.402007
20
2.71689
11
0.401763
21
2.7171
0
LINE
8
BLACK
6
CONTINUOUS
10
0.401763
20
2.7171
11
0.400825
21
2.71897
0
LINE
8
BLACK
6
CONTINUOUS
10
0.400825
20
2.71897
11
0.400793
21
2.71943
0
LINE
8
BLACK
6
CONTINUOUS
10
0.400793
20
2.71943
11
0.400618
21
2.71985
0
LINE
8
BLACK
6
CONTINUOUS
10
0.400618
20
2.71985
11
0.400618
21
2.72538
0
LINE
8
BLACK
6
CONTINUOUS
10
0.400618
20
2.72538
11
0.393212
21
2.72538
0
LINE
8
BLACK
6
CONTINUOUS
10
0.393212
20
2.72538
11
0.39182
21
2.72596
0
LINE
8
BLACK
6
CONTINUOUS
10
0.39182
20
2.72596
11
0.391244
21
2.72735
0
LINE
8
BLACK
6
CONTINUOUS
10
0.391244
20
2.72735
11
0.39182
21
2.72874
0
LINE
8
BLACK
6
CONTINUOUS
10
0.39182
20
2.72874
11
0.393212
21
2.72932
0
LINE
8
BLACK
6
CONTINUOUS
10
0.393212
20
2.72932
11
0.412897
21
2.72932
0
LINE
8
BLACK
6
CONTINUOUS
10
0.412897
20
2.72932
11
0.414289
21
2.72874
0
LINE
8
BLACK
6
CONTINUOUS
10
0.404555
20
2.72032
11
0.405141
21
2.71915
0
LINE
8
BLACK
6
CONTINUOUS
10
0.405141
20
2.71915
11
0.405627
21
2.71866
0
LINE
8
BLACK
6
CONTINUOUS
10
0.405627
20
2.71866
11
0.4068
21
2.71807
0
LINE
8
BLACK
6
CONTINUOUS
10
0.4068
20
2.71807
11
0.408683
21
2.71807
0
LINE
8
BLACK
6
CONTINUOUS
10
0.408683
20
2.71807
11
0.409856
21
2.71866
0
LINE
8
BLACK
6
CONTINUOUS
10
0.409856
20
2.71866
11
0.410342
21
2.71915
0
LINE
8
BLACK
6
CONTINUOUS
10
0.410342
20
2.71915
11
0.410929
21
2.72032
0
LINE
8
BLACK
6
CONTINUOUS
10
0.410929
20
2.72032
11
0.410929
21
2.72538
0
LINE
8
BLACK
6
CONTINUOUS
10
0.410929
20
2.72538
11
0.404555
21
2.72538
0
LINE
8
BLACK
6
CONTINUOUS
10
0.404555
20
2.72538
11
0.404555
21
2.72032
  0
ENDSEC
  0
EOF
