  0
SECTION
  2
HEADER
  9
$ANGBASE
  50
0.0
  9
$ANGDIR
  70
1
  9
$MEASUREMENT
  70
0
  0
ENDSEC
  0
SECTION
  2
TABLES
  0
TABLE
  2
LTYPE
  70
4
  0
LTYPE
  5
40F
  2
CONTINUOUS
  70
0
  3
Solid line
  72
65
  73
0
  40
0.0
  0
LTYPE
  5
410
  2
DASHDOT
 70
0
  3
Dash Dot ____ _ ____ _
 72
65
 73
4
 40
2.0
 49
1.25
 49
-0.25
 49
0.25
 49
-0.25
  0
LTYPE
  5
411
  2
DASHED
 70
0
  3
Dashed __ __ __ __ __
 72
65
 73
2
 40
0.75
 49
0.5
 49
-0.25
  0
LTYPE
  5
43B
  2
DOTTED
 70
0
  3
Dotted .  .  .  .
 72
65
 73
2
 40
0.2
 49
0.0
 49
-0.2
  0
ENDTAB
  0
TABLE
  2
STYLE
  70
4
  0
STYLE
  2
KICAD
  70
0
  40
0
  41
1
  42
1
  50
0
  71
0
  3
isocp.shx
  0
STYLE
  2
KICADB
  70
0
  40
0
  41
1
  42
1
  50
0
  71
0
  3
isocp.shx
  0
STYLE
  2
KICADI
  70
0
  40
0
  41
1
  42
1
  50
15
  71
0
  3
isocp.shx
  0
STYLE
  2
KICADBI
  70
0
  40
0
  41
1
  42
1
  50
15
  71
0
  3
isocp.shx
  0
ENDTAB
  0
TABLE
  2
LAYER
  70
1
  0
LAYER
  2
BLACK
  70
0
  62
7
  6
CONTINUOUS
  0
ENDTAB
  0
ENDSEC
  0
SECTION
  2
ENTITIES
0
LINE
8
BLACK
6
CONTINUOUS
10
5.3171917716535431
20
0.6882665354330708
11
5.3203849212598424
21
0.6861329527559055
0
LINE
8
BLACK
6
CONTINUOUS
10
5.3203849212598424
20
0.6861329527559055
11
5.3225185039370073
21
0.6829398031496062
0
LINE
8
BLACK
6
CONTINUOUS
10
5.3225185039370073
20
0.6829398031496062
11
5.3232677165354332
21
0.6791732283464567
0
LINE
8
BLACK
6
CONTINUOUS
10
5.3232677165354332
20
0.6791732283464567
11
5.3232677165354332
21
0.6634251968503937
0
LINE
8
BLACK
6
CONTINUOUS
10
5.3232677165354332
20
0.6634251968503937
11
5.3225185039370073
21
0.6596586220472441
0
LINE
8
BLACK
6
CONTINUOUS
10
5.3225185039370073
20
0.6596586220472441
11
5.3203849212598424
21
0.6564654724409449
0
LINE
8
BLACK
6
CONTINUOUS
10
5.3203849212598424
20
0.6564654724409449
11
5.3171917716535431
21
0.6543318897637795
0
LINE
8
BLACK
6
CONTINUOUS
10
5.3171917716535431
20
0.6543318897637795
11
5.3134251968503934
21
0.6535826771653543
0
LINE
8
BLACK
6
CONTINUOUS
10
5.3134251968503934
20
0.6535826771653543
11
5.2937401574803147
21
0.6535826771653543
0
LINE
8
BLACK
6
CONTINUOUS
10
5.2937401574803147
20
0.6535826771653543
11
5.289973582677165
21
0.6543318897637795
0
LINE
8
BLACK
6
CONTINUOUS
10
5.289973582677165
20
0.6543318897637795
11
5.2867804330708656
21
0.6564654724409449
0
LINE
8
BLACK
6
CONTINUOUS
10
5.2867804330708656
20
0.6564654724409449
11
5.2846468503937007
21
0.6596586220472441
0
LINE
8
BLACK
6
CONTINUOUS
10
5.2846468503937007
20
0.6596586220472441
11
5.2838976377952758
21
0.6634251968503937
0
LINE
8
BLACK
6
CONTINUOUS
10
5.2838976377952758
20
0.6634251968503937
11
5.2838976377952758
21
0.6791732283464567
0
LINE
8
BLACK
6
CONTINUOUS
10
5.2838976377952758
20
0.6791732283464567
11
5.2846468503937007
21
0.6829398031496062
0
LINE
8
BLACK
6
CONTINUOUS
10
5.2846468503937007
20
0.6829398031496062
11
5.2867804330708656
21
0.6861329527559055
0
LINE
8
BLACK
6
CONTINUOUS
10
5.2867804330708656
20
0.6861329527559055
11
5.289973582677165
21
0.6882665354330708
0
LINE
8
BLACK
6
CONTINUOUS
10
5.289973582677165
20
0.6882665354330708
11
5.2937401574803147
21
0.689015748031496
0
LINE
8
BLACK
6
CONTINUOUS
10
5.2937401574803147
20
0.689015748031496
11
5.3134251968503934
21
0.689015748031496
0
LINE
8
BLACK
6
CONTINUOUS
10
5.3134251968503934
20
0.689015748031496
11
5.3171917716535431
21
0.6882665354330708
0
LINE
8
BLACK
6
CONTINUOUS
10
5.3171917716535431
20
0.7512586614173228
11
5.3203849212598424
21
0.7491250787401574
0
LINE
8
BLACK
6
CONTINUOUS
10
5.3203849212598424
20
0.7491250787401574
11
5.3225185039370073
21
0.7459319291338582
0
LINE
8
BLACK
6
CONTINUOUS
10
5.3225185039370073
20
0.7459319291338582
11
5.3232677165354332
21
0.7421653543307086
0
LINE
8
BLACK
6
CONTINUOUS
10
5.3232677165354332
20
0.7421653543307086
11
5.3232677165354332
21
0.7264173228346457
0
LINE
8
BLACK
6
CONTINUOUS
10
5.3232677165354332
20
0.7264173228346457
11
5.3225185039370073
21
0.7226507480314961
0
LINE
8
BLACK
6
CONTINUOUS
10
5.3225185039370073
20
0.7226507480314961
11
5.3203849212598424
21
0.7194575984251969
0
LINE
8
BLACK
6
CONTINUOUS
10
5.3203849212598424
20
0.7194575984251969
11
5.3171917716535431
21
0.7173240157480315
0
LINE
8
BLACK
6
CONTINUOUS
10
5.3171917716535431
20
0.7173240157480315
11
5.3134251968503934
21
0.7165748031496063
0
LINE
8
BLACK
6
CONTINUOUS
10
5.3134251968503934
20
0.7165748031496063
11
5.2937401574803147
21
0.7165748031496063
0
LINE
8
BLACK
6
CONTINUOUS
10
5.2937401574803147
20
0.7165748031496063
11
5.289973582677165
21
0.7173240157480315
0
LINE
8
BLACK
6
CONTINUOUS
10
5.289973582677165
20
0.7173240157480315
11
5.2867804330708656
21
0.7194575984251969
0
LINE
8
BLACK
6
CONTINUOUS
10
5.2867804330708656
20
0.7194575984251969
11
5.2846468503937007
21
0.7226507480314961
0
LINE
8
BLACK
6
CONTINUOUS
10
5.2846468503937007
20
0.7226507480314961
11
5.2838976377952758
21
0.7264173228346457
0
LINE
8
BLACK
6
CONTINUOUS
10
5.2838976377952758
20
0.7264173228346457
11
5.2838976377952758
21
0.7421653543307086
0
LINE
8
BLACK
6
CONTINUOUS
10
5.2838976377952758
20
0.7421653543307086
11
5.2846468503937007
21
0.7459319291338582
0
LINE
8
BLACK
6
CONTINUOUS
10
5.2846468503937007
20
0.7459319291338582
11
5.2867804330708656
21
0.7491250787401574
0
LINE
8
BLACK
6
CONTINUOUS
10
5.2867804330708656
20
0.7491250787401574
11
5.289973582677165
21
0.7512586614173228
0
LINE
8
BLACK
6
CONTINUOUS
10
5.289973582677165
20
0.7512586614173228
11
5.2937401574803147
21
0.752007874015748
0
LINE
8
BLACK
6
CONTINUOUS
10
5.2937401574803147
20
0.752007874015748
11
5.3134251968503934
21
0.752007874015748
0
LINE
8
BLACK
6
CONTINUOUS
10
5.3134251968503934
20
0.752007874015748
11
5.3171917716535431
21
0.7512586614173228
0
LINE
8
BLACK
6
CONTINUOUS
10
5.3171917716535431
20
0.7975185039370078
11
5.3203849212598424
21
0.7953849212598425
0
LINE
8
BLACK
6
CONTINUOUS
10
5.3203849212598424
20
0.7953849212598425
11
5.3225185039370073
21
0.7921917716535433
0
LINE
8
BLACK
6
CONTINUOUS
10
5.3225185039370073
20
0.7921917716535433
11
5.3232677165354332
21
0.7884251968503937
0
LINE
8
BLACK
6
CONTINUOUS
10
5.3232677165354332
20
0.7884251968503937
11
5.3232677165354332
21
0.7726771653543307
0
LINE
8
BLACK
6
CONTINUOUS
10
5.3232677165354332
20
0.7726771653543307
11
5.3225185039370073
21
0.7689105905511811
0
LINE
8
BLACK
6
CONTINUOUS
10
5.3225185039370073
20
0.7689105905511811
11
5.3203849212598424
21
0.7657174409448819
0
LINE
8
BLACK
6
CONTINUOUS
10
5.3203849212598424
20
0.7657174409448819
11
5.3171917716535431
21
0.7635838582677165
0
LINE
8
BLACK
6
CONTINUOUS
10
5.3171917716535431
20
0.7635838582677165
11
5.3134251968503934
21
0.7628346456692913
0
LINE
8
BLACK
6
CONTINUOUS
10
5.3134251968503934
20
0.7628346456692913
11
5.2937401574803147
21
0.7628346456692913
0
LINE
8
BLACK
6
CONTINUOUS
10
5.2937401574803147
20
0.7628346456692913
11
5.289973582677165
21
0.7635838582677165
0
LINE
8
BLACK
6
CONTINUOUS
10
5.289973582677165
20
0.7635838582677165
11
5.2867804330708656
21
0.7657174409448819
0
LINE
8
BLACK
6
CONTINUOUS
10
5.2867804330708656
20
0.7657174409448819
11
5.2846468503937007
21
0.7689105905511811
0
LINE
8
BLACK
6
CONTINUOUS
10
5.2846468503937007
20
0.7689105905511811
11
5.2838976377952758
21
0.7726771653543307
0
LINE
8
BLACK
6
CONTINUOUS
10
5.2838976377952758
20
0.7726771653543307
11
5.2838976377952758
21
0.7884251968503937
0
LINE
8
BLACK
6
CONTINUOUS
10
5.2838976377952758
20
0.7884251968503937
11
5.2846468503937007
21
0.7921917716535433
0
LINE
8
BLACK
6
CONTINUOUS
10
5.2846468503937007
20
0.7921917716535433
11
5.2867804330708656
21
0.7953849212598425
0
LINE
8
BLACK
6
CONTINUOUS
10
5.2867804330708656
20
0.7953849212598425
11
5.289973582677165
21
0.7975185039370078
0
LINE
8
BLACK
6
CONTINUOUS
10
5.289973582677165
20
0.7975185039370078
11
5.2937401574803147
21
0.798267716535433
0
LINE
8
BLACK
6
CONTINUOUS
10
5.2937401574803147
20
0.798267716535433
11
5.3134251968503934
21
0.798267716535433
0
LINE
8
BLACK
6
CONTINUOUS
10
5.3134251968503934
20
0.798267716535433
11
5.3171917716535431
21
0.7975185039370078
0
LINE
8
BLACK
6
CONTINUOUS
10
5.3171917716535431
20
0.8605106299212598
11
5.3203849212598424
21
0.8583770472440945
0
LINE
8
BLACK
6
CONTINUOUS
10
5.3203849212598424
20
0.8583770472440945
11
5.3225185039370073
21
0.8551838976377952
0
LINE
8
BLACK
6
CONTINUOUS
10
5.3225185039370073
20
0.8551838976377952
11
5.3232677165354332
21
0.8514173228346457
0
LINE
8
BLACK
6
CONTINUOUS
10
5.3232677165354332
20
0.8514173228346457
11
5.3232677165354332
21
0.8356692913385827
0
LINE
8
BLACK
6
CONTINUOUS
10
5.3232677165354332
20
0.8356692913385827
11
5.3225185039370073
21
0.831902716535433
0
LINE
8
BLACK
6
CONTINUOUS
10
5.3225185039370073
20
0.831902716535433
11
5.3203849212598424
21
0.8287095669291339
0
LINE
8
BLACK
6
CONTINUOUS
10
5.3203849212598424
20
0.8287095669291339
11
5.3171917716535431
21
0.8265759842519684
0
LINE
8
BLACK
6
CONTINUOUS
10
5.3171917716535431
20
0.8265759842519684
11
5.3134251968503934
21
0.8258267716535432
0
LINE
8
BLACK
6
CONTINUOUS
10
5.3134251968503934
20
0.8258267716535432
11
5.2937401574803147
21
0.8258267716535432
0
LINE
8
BLACK
6
CONTINUOUS
10
5.2937401574803147
20
0.8258267716535432
11
5.289973582677165
21
0.8265759842519684
0
LINE
8
BLACK
6
CONTINUOUS
10
5.289973582677165
20
0.8265759842519684
11
5.2867804330708656
21
0.8287095669291339
0
LINE
8
BLACK
6
CONTINUOUS
10
5.2867804330708656
20
0.8287095669291339
11
5.2846468503937007
21
0.831902716535433
0
LINE
8
BLACK
6
CONTINUOUS
10
5.2846468503937007
20
0.831902716535433
11
5.2838976377952758
21
0.8356692913385827
0
LINE
8
BLACK
6
CONTINUOUS
10
5.2838976377952758
20
0.8356692913385827
11
5.2838976377952758
21
0.8514173228346457
0
LINE
8
BLACK
6
CONTINUOUS
10
5.2838976377952758
20
0.8514173228346457
11
5.2846468503937007
21
0.8551838976377952
0
LINE
8
BLACK
6
CONTINUOUS
10
5.2846468503937007
20
0.8551838976377952
11
5.2867804330708656
21
0.8583770472440945
0
LINE
8
BLACK
6
CONTINUOUS
10
5.2867804330708656
20
0.8583770472440945
11
5.289973582677165
21
0.8605106299212598
0
LINE
8
BLACK
6
CONTINUOUS
10
5.289973582677165
20
0.8605106299212598
11
5.2937401574803147
21
0.861259842519685
0
LINE
8
BLACK
6
CONTINUOUS
10
5.2937401574803147
20
0.861259842519685
11
5.3134251968503934
21
0.861259842519685
0
LINE
8
BLACK
6
CONTINUOUS
10
5.3134251968503934
20
0.861259842519685
11
5.3171917716535431
21
0.8605106299212598
0
LINE
8
BLACK
6
CONTINUOUS
10
5.3171917716535431
20
0.9067704724409449
11
5.3203849212598424
21
0.9046368897637795
0
LINE
8
BLACK
6
CONTINUOUS
10
5.3203849212598424
20
0.9046368897637795
11
5.3225185039370073
21
0.9014437401574803
0
LINE
8
BLACK
6
CONTINUOUS
10
5.3225185039370073
20
0.9014437401574803
11
5.3232677165354332
21
0.8976771653543307
0
LINE
8
BLACK
6
CONTINUOUS
10
5.3232677165354332
20
0.8976771653543307
11
5.3232677165354332
21
0.8819291338582677
0
LINE
8
BLACK
6
CONTINUOUS
10
5.3232677165354332
20
0.8819291338582677
11
5.3225185039370073
21
0.8781625590551181
0
LINE
8
BLACK
6
CONTINUOUS
10
5.3225185039370073
20
0.8781625590551181
11
5.3203849212598424
21
0.8749694094488188
0
LINE
8
BLACK
6
CONTINUOUS
10
5.3203849212598424
20
0.8749694094488188
11
5.3171917716535431
21
0.8728358267716535
0
LINE
8
BLACK
6
CONTINUOUS
10
5.3171917716535431
20
0.8728358267716535
11
5.3134251968503934
21
0.8720866141732283
0
LINE
8
BLACK
6
CONTINUOUS
10
5.3134251968503934
20
0.8720866141732283
11
5.2937401574803147
21
0.8720866141732283
0
LINE
8
BLACK
6
CONTINUOUS
10
5.2937401574803147
20
0.8720866141732283
11
5.289973582677165
21
0.8728358267716535
0
LINE
8
BLACK
6
CONTINUOUS
10
5.289973582677165
20
0.8728358267716535
11
5.2867804330708656
21
0.8749694094488188
0
LINE
8
BLACK
6
CONTINUOUS
10
5.2867804330708656
20
0.8749694094488188
11
5.2846468503937007
21
0.8781625590551181
0
LINE
8
BLACK
6
CONTINUOUS
10
5.2846468503937007
20
0.8781625590551181
11
5.2838976377952758
21
0.8819291338582677
0
LINE
8
BLACK
6
CONTINUOUS
10
5.2838976377952758
20
0.8819291338582677
11
5.2838976377952758
21
0.8976771653543307
0
LINE
8
BLACK
6
CONTINUOUS
10
5.2838976377952758
20
0.8976771653543307
11
5.2846468503937007
21
0.9014437401574803
0
LINE
8
BLACK
6
CONTINUOUS
10
5.2846468503937007
20
0.9014437401574803
11
5.2867804330708656
21
0.9046368897637795
0
LINE
8
BLACK
6
CONTINUOUS
10
5.2867804330708656
20
0.9046368897637795
11
5.289973582677165
21
0.9067704724409449
0
LINE
8
BLACK
6
CONTINUOUS
10
5.289973582677165
20
0.9067704724409449
11
5.2937401574803147
21
0.9075196850393701
0
LINE
8
BLACK
6
CONTINUOUS
10
5.2937401574803147
20
0.9075196850393701
11
5.3134251968503934
21
0.9075196850393701
0
LINE
8
BLACK
6
CONTINUOUS
10
5.3134251968503934
20
0.9075196850393701
11
5.3171917716535431
21
0.9067704724409449
0
LINE
8
BLACK
6
CONTINUOUS
10
5.3171917716535431
20
0.9697625984251969
11
5.3203849212598424
21
0.9676290157480315
0
LINE
8
BLACK
6
CONTINUOUS
10
5.3203849212598424
20
0.9676290157480315
11
5.3225185039370073
21
0.9644358661417323
0
LINE
8
BLACK
6
CONTINUOUS
10
5.3225185039370073
20
0.9644358661417323
11
5.3232677165354332
21
0.9606692913385827
0
LINE
8
BLACK
6
CONTINUOUS
10
5.3232677165354332
20
0.9606692913385827
11
5.3232677165354332
21
0.9449212598425196
0
LINE
8
BLACK
6
CONTINUOUS
10
5.3232677165354332
20
0.9449212598425196
11
5.3225185039370073
21
0.9411546850393701
0
LINE
8
BLACK
6
CONTINUOUS
10
5.3225185039370073
20
0.9411546850393701
11
5.3203849212598424
21
0.9379615354330708
0
LINE
8
BLACK
6
CONTINUOUS
10
5.3203849212598424
20
0.9379615354330708
11
5.3171917716535431
21
0.9358279527559055
0
LINE
8
BLACK
6
CONTINUOUS
10
5.3171917716535431
20
0.9358279527559055
11
5.3134251968503934
21
0.9350787401574803
0
LINE
8
BLACK
6
CONTINUOUS
10
5.3134251968503934
20
0.9350787401574803
11
5.2937401574803147
21
0.9350787401574803
0
LINE
8
BLACK
6
CONTINUOUS
10
5.2937401574803147
20
0.9350787401574803
11
5.289973582677165
21
0.9358279527559055
0
LINE
8
BLACK
6
CONTINUOUS
10
5.289973582677165
20
0.9358279527559055
11
5.2867804330708656
21
0.9379615354330708
0
LINE
8
BLACK
6
CONTINUOUS
10
5.2867804330708656
20
0.9379615354330708
11
5.2846468503937007
21
0.9411546850393701
0
LINE
8
BLACK
6
CONTINUOUS
10
5.2846468503937007
20
0.9411546850393701
11
5.2838976377952758
21
0.9449212598425196
0
LINE
8
BLACK
6
CONTINUOUS
10
5.2838976377952758
20
0.9449212598425196
11
5.2838976377952758
21
0.9606692913385827
0
LINE
8
BLACK
6
CONTINUOUS
10
5.2838976377952758
20
0.9606692913385827
11
5.2846468503937007
21
0.9644358661417323
0
LINE
8
BLACK
6
CONTINUOUS
10
5.2846468503937007
20
0.9644358661417323
11
5.2867804330708656
21
0.9676290157480315
0
LINE
8
BLACK
6
CONTINUOUS
10
5.2867804330708656
20
0.9676290157480315
11
5.289973582677165
21
0.9697625984251969
0
LINE
8
BLACK
6
CONTINUOUS
10
5.289973582677165
20
0.9697625984251969
11
5.2937401574803147
21
0.9705118110236221
0
LINE
8
BLACK
6
CONTINUOUS
10
5.2937401574803147
20
0.9705118110236221
11
5.3134251968503934
21
0.9705118110236221
0
LINE
8
BLACK
6
CONTINUOUS
10
5.3134251968503934
20
0.9705118110236221
11
5.3171917716535431
21
0.9697625984251969
0
LINE
8
BLACK
6
CONTINUOUS
10
5.1652403149606299
20
1.0613729527559055
11
5.1681141338582677
21
1.059452716535433
0
LINE
8
BLACK
6
CONTINUOUS
10
5.1681141338582677
20
1.059452716535433
11
5.1700343700787403
21
1.0565788976377952
0
LINE
8
BLACK
6
CONTINUOUS
10
5.1700343700787403
20
1.0565788976377952
11
5.170708661417323
21
1.0531889763779527
0
LINE
8
BLACK
6
CONTINUOUS
10
5.170708661417323
20
1.0531889763779527
11
5.170708661417323
21
1.0197244094488189
0
LINE
8
BLACK
6
CONTINUOUS
10
5.170708661417323
20
1.0197244094488189
11
5.1700343700787403
21
1.0163344881889764
0
LINE
8
BLACK
6
CONTINUOUS
10
5.1700343700787403
20
1.0163344881889764
11
5.1681141338582677
21
1.0134606692913386
0
LINE
8
BLACK
6
CONTINUOUS
10
5.1681141338582677
20
1.0134606692913386
11
5.1652403149606299
21
1.0115404330708662
0
LINE
8
BLACK
6
CONTINUOUS
10
5.1652403149606299
20
1.0115404330708662
11
5.1618503937007869
21
1.0108661417322835
0
LINE
8
BLACK
6
CONTINUOUS
10
5.1618503937007869
20
1.0108661417322835
11
5.1441338582677165
21
1.0108661417322835
0
LINE
8
BLACK
6
CONTINUOUS
10
5.1441338582677165
20
1.0108661417322835
11
5.1407439370078736
21
1.0115404330708662
0
LINE
8
BLACK
6
CONTINUOUS
10
5.1407439370078736
20
1.0115404330708662
11
5.1378701181102358
21
1.0134606692913386
0
LINE
8
BLACK
6
CONTINUOUS
10
5.1378701181102358
20
1.0134606692913386
11
5.135949881889764
21
1.0163344881889764
0
LINE
8
BLACK
6
CONTINUOUS
10
5.135949881889764
20
1.0163344881889764
11
5.1352755905511813
21
1.0197244094488189
0
LINE
8
BLACK
6
CONTINUOUS
10
5.1352755905511813
20
1.0197244094488189
11
5.1352755905511813
21
1.0531889763779527
0
LINE
8
BLACK
6
CONTINUOUS
10
5.1352755905511813
20
1.0531889763779527
11
5.135949881889764
21
1.0565788976377952
0
LINE
8
BLACK
6
CONTINUOUS
10
5.135949881889764
20
1.0565788976377952
11
5.1378701181102358
21
1.059452716535433
0
LINE
8
BLACK
6
CONTINUOUS
10
5.1378701181102358
20
1.059452716535433
11
5.1407439370078736
21
1.0613729527559055
0
LINE
8
BLACK
6
CONTINUOUS
10
5.1407439370078736
20
1.0613729527559055
11
5.1441338582677165
21
1.0620472440944881
0
LINE
8
BLACK
6
CONTINUOUS
10
5.1441338582677165
20
1.0620472440944881
11
5.1618503937007869
21
1.0620472440944881
0
LINE
8
BLACK
6
CONTINUOUS
10
5.1618503937007869
20
1.0620472440944881
11
5.1652403149606299
21
1.0613729527559055
0
LINE
8
BLACK
6
CONTINUOUS
10
5.1070965748031494
20
1.0752648425196849
11
5.109491456692913
21
1.0736646850393701
0
LINE
8
BLACK
6
CONTINUOUS
10
5.109491456692913
20
1.0736646850393701
11
5.1110916141732279
21
1.0712698031496062
0
LINE
8
BLACK
6
CONTINUOUS
10
5.1110916141732279
20
1.0712698031496062
11
5.1116535433070869
21
1.0684448818897638
0
LINE
8
BLACK
6
CONTINUOUS
10
5.1116535433070869
20
1.0684448818897638
11
5.1116535433070869
21
1.0536811023622048
0
LINE
8
BLACK
6
CONTINUOUS
10
5.1116535433070869
20
1.0536811023622048
11
5.1110916141732279
21
1.0508561811023622
0
LINE
8
BLACK
6
CONTINUOUS
10
5.1110916141732279
20
1.0508561811023622
11
5.109491456692913
21
1.0484612992125983
0
LINE
8
BLACK
6
CONTINUOUS
10
5.109491456692913
20
1.0484612992125983
11
5.1070965748031494
21
1.0468611417322835
0
LINE
8
BLACK
6
CONTINUOUS
10
5.1070965748031494
20
1.0468611417322835
11
5.1042716535433073
21
1.0462992125984252
0
LINE
8
BLACK
6
CONTINUOUS
10
5.1042716535433073
20
1.0462992125984252
11
5.0481692913385823
21
1.0462992125984252
0
LINE
8
BLACK
6
CONTINUOUS
10
5.0481692913385823
20
1.0462992125984252
11
5.0453443700787401
21
1.0468611417322835
0
LINE
8
BLACK
6
CONTINUOUS
10
5.0453443700787401
20
1.0468611417322835
11
5.0429494881889765
21
1.0484612992125983
0
LINE
8
BLACK
6
CONTINUOUS
10
5.0429494881889765
20
1.0484612992125983
11
5.0413493307086616
21
1.0508561811023622
0
LINE
8
BLACK
6
CONTINUOUS
10
5.0413493307086616
20
1.0508561811023622
11
5.0407874015748027
21
1.0536811023622048
0
LINE
8
BLACK
6
CONTINUOUS
10
5.0407874015748027
20
1.0536811023622048
11
5.0407874015748027
21
1.0684448818897638
0
LINE
8
BLACK
6
CONTINUOUS
10
5.0407874015748027
20
1.0684448818897638
11
5.0413493307086616
21
1.0712698031496062
0
LINE
8
BLACK
6
CONTINUOUS
10
5.0413493307086616
20
1.0712698031496062
11
5.0429494881889765
21
1.0736646850393701
0
LINE
8
BLACK
6
CONTINUOUS
10
5.0429494881889765
20
1.0736646850393701
11
5.0453443700787401
21
1.0752648425196849
0
LINE
8
BLACK
6
CONTINUOUS
10
5.0453443700787401
20
1.0752648425196849
11
5.0481692913385823
21
1.0758267716535432
0
LINE
8
BLACK
6
CONTINUOUS
10
5.0481692913385823
20
1.0758267716535432
11
5.1042716535433073
21
1.0758267716535432
0
LINE
8
BLACK
6
CONTINUOUS
10
5.1042716535433073
20
1.0758267716535432
11
5.1070965748031494
21
1.0752648425196849
0
LINE
8
BLACK
6
CONTINUOUS
10
5.1080079921259838
20
1.1206528346456692
11
5.1099238582677167
21
1.1193726771653543
0
LINE
8
BLACK
6
CONTINUOUS
10
5.1099238582677167
20
1.1193726771653543
11
5.1112040157480312
21
1.117456811023622
0
LINE
8
BLACK
6
CONTINUOUS
10
5.1112040157480312
20
1.117456811023622
11
5.1116535433070869
21
1.1151968503937009
0
LINE
8
BLACK
6
CONTINUOUS
10
5.1116535433070869
20
1.1151968503937009
11
5.1116535433070869
21
1.1033858267716534
0
LINE
8
BLACK
6
CONTINUOUS
10
5.1116535433070869
20
1.1033858267716534
11
5.1112040157480312
21
1.1011258661417322
0
LINE
8
BLACK
6
CONTINUOUS
10
5.1112040157480312
20
1.1011258661417322
11
5.1099238582677167
21
1.09921
0
LINE
8
BLACK
6
CONTINUOUS
10
5.1099238582677167
20
1.09921
11
5.1080079921259838
21
1.0979298425196851
0
LINE
8
BLACK
6
CONTINUOUS
10
5.1080079921259838
20
1.0979298425196851
11
5.1057480314960628
21
1.0974803149606298
0
LINE
8
BLACK
6
CONTINUOUS
10
5.1057480314960628
20
1.0974803149606298
11
5.0466929133858267
21
1.0974803149606298
0
LINE
8
BLACK
6
CONTINUOUS
10
5.0466929133858267
20
1.0974803149606298
11
5.0444329527559058
21
1.0979298425196851
0
LINE
8
BLACK
6
CONTINUOUS
10
5.0444329527559058
20
1.0979298425196851
11
5.0425170866141729
21
1.09921
0
LINE
8
BLACK
6
CONTINUOUS
10
5.0425170866141729
20
1.09921
11
5.0412369291338583
21
1.1011258661417322
0
LINE
8
BLACK
6
CONTINUOUS
10
5.0412369291338583
20
1.1011258661417322
11
5.0407874015748027
21
1.1033858267716534
0
LINE
8
BLACK
6
CONTINUOUS
10
5.0407874015748027
20
1.1033858267716534
11
5.0407874015748027
21
1.1151968503937009
0
LINE
8
BLACK
6
CONTINUOUS
10
5.0407874015748027
20
1.1151968503937009
11
5.0412369291338583
21
1.117456811023622
0
LINE
8
BLACK
6
CONTINUOUS
10
5.0412369291338583
20
1.117456811023622
11
5.0425170866141729
21
1.1193726771653543
0
LINE
8
BLACK
6
CONTINUOUS
10
5.0425170866141729
20
1.1193726771653543
11
5.0444329527559058
21
1.1206528346456692
0
LINE
8
BLACK
6
CONTINUOUS
10
5.0444329527559058
20
1.1206528346456692
11
5.0466929133858267
21
1.1211023622047245
0
LINE
8
BLACK
6
CONTINUOUS
10
5.0466929133858267
20
1.1211023622047245
11
5.1057480314960628
21
1.1211023622047245
0
LINE
8
BLACK
6
CONTINUOUS
10
5.1057480314960628
20
1.1211023622047245
11
5.1080079921259838
21
1.1206528346456692
0
LINE
8
BLACK
6
CONTINUOUS
10
5.1070965748031494
20
1.1717215354330708
11
5.109491456692913
21
1.1701213779527559
0
LINE
8
BLACK
6
CONTINUOUS
10
5.109491456692913
20
1.1701213779527559
11
5.1110916141732279
21
1.1677264960629921
0
LINE
8
BLACK
6
CONTINUOUS
10
5.1110916141732279
20
1.1677264960629921
11
5.1116535433070869
21
1.1649015748031495
0
LINE
8
BLACK
6
CONTINUOUS
10
5.1116535433070869
20
1.1649015748031495
11
5.1116535433070869
21
1.1501377952755905
0
LINE
8
BLACK
6
CONTINUOUS
10
5.1116535433070869
20
1.1501377952755905
11
5.1110916141732279
21
1.1473128740157481
0
LINE
8
BLACK
6
CONTINUOUS
10
5.1110916141732279
20
1.1473128740157481
11
5.109491456692913
21
1.1449179921259842
0
LINE
8
BLACK
6
CONTINUOUS
10
5.109491456692913
20
1.1449179921259842
11
5.1070965748031494
21
1.1433178346456692
0
LINE
8
BLACK
6
CONTINUOUS
10
5.1070965748031494
20
1.1433178346456692
11
5.1042716535433073
21
1.1427559055118111
0
LINE
8
BLACK
6
CONTINUOUS
10
5.1042716535433073
20
1.1427559055118111
11
5.0481692913385823
21
1.1427559055118111
0
LINE
8
BLACK
6
CONTINUOUS
10
5.0481692913385823
20
1.1427559055118111
11
5.0453443700787401
21
1.1433178346456692
0
LINE
8
BLACK
6
CONTINUOUS
10
5.0453443700787401
20
1.1433178346456692
11
5.0429494881889765
21
1.1449179921259842
0
LINE
8
BLACK
6
CONTINUOUS
10
5.0429494881889765
20
1.1449179921259842
11
5.0413493307086616
21
1.1473128740157481
0
LINE
8
BLACK
6
CONTINUOUS
10
5.0413493307086616
20
1.1473128740157481
11
5.0407874015748027
21
1.1501377952755905
0
LINE
8
BLACK
6
CONTINUOUS
10
5.0407874015748027
20
1.1501377952755905
11
5.0407874015748027
21
1.1649015748031495
0
LINE
8
BLACK
6
CONTINUOUS
10
5.0407874015748027
20
1.1649015748031495
11
5.0413493307086616
21
1.1677264960629921
0
LINE
8
BLACK
6
CONTINUOUS
10
5.0413493307086616
20
1.1677264960629921
11
5.0429494881889765
21
1.1701213779527559
0
LINE
8
BLACK
6
CONTINUOUS
10
5.0429494881889765
20
1.1701213779527559
11
5.0453443700787401
21
1.1717215354330708
0
LINE
8
BLACK
6
CONTINUOUS
10
5.0453443700787401
20
1.1717215354330708
11
5.0481692913385823
21
1.1722834645669291
0
LINE
8
BLACK
6
CONTINUOUS
10
5.0481692913385823
20
1.1722834645669291
11
5.1042716535433073
21
1.1722834645669291
0
LINE
8
BLACK
6
CONTINUOUS
10
5.1042716535433073
20
1.1722834645669291
11
5.1070965748031494
21
1.1717215354330708
0
LINE
8
BLACK
6
CONTINUOUS
10
5.1652403149606299
20
1.2070422440944881
11
5.1681141338582677
21
1.2051220078740157
0
LINE
8
BLACK
6
CONTINUOUS
10
5.1681141338582677
20
1.2051220078740157
11
5.1700343700787403
21
1.2022481889763779
0
LINE
8
BLACK
6
CONTINUOUS
10
5.1700343700787403
20
1.2022481889763779
11
5.170708661417323
21
1.1988582677165354
0
LINE
8
BLACK
6
CONTINUOUS
10
5.170708661417323
20
1.1988582677165354
11
5.170708661417323
21
1.1653937007874016
0
LINE
8
BLACK
6
CONTINUOUS
10
5.170708661417323
20
1.1653937007874016
11
5.1700343700787403
21
1.1620037795275591
0
LINE
8
BLACK
6
CONTINUOUS
10
5.1700343700787403
20
1.1620037795275591
11
5.1681141338582677
21
1.1591299606299212
0
LINE
8
BLACK
6
CONTINUOUS
10
5.1681141338582677
20
1.1591299606299212
11
5.1652403149606299
21
1.1572097244094488
0
LINE
8
BLACK
6
CONTINUOUS
10
5.1652403149606299
20
1.1572097244094488
11
5.1618503937007869
21
1.1565354330708661
0
LINE
8
BLACK
6
CONTINUOUS
10
5.1618503937007869
20
1.1565354330708661
11
5.1441338582677165
21
1.1565354330708661
0
LINE
8
BLACK
6
CONTINUOUS
10
5.1441338582677165
20
1.1565354330708661
11
5.1407439370078736
21
1.1572097244094488
0
LINE
8
BLACK
6
CONTINUOUS
10
5.1407439370078736
20
1.1572097244094488
11
5.1378701181102358
21
1.1591299606299212
0
LINE
8
BLACK
6
CONTINUOUS
10
5.1378701181102358
20
1.1591299606299212
11
5.135949881889764
21
1.1620037795275591
0
LINE
8
BLACK
6
CONTINUOUS
10
5.135949881889764
20
1.1620037795275591
11
5.1352755905511813
21
1.1653937007874016
0
LINE
8
BLACK
6
CONTINUOUS
10
5.1352755905511813
20
1.1653937007874016
11
5.1352755905511813
21
1.1988582677165354
0
LINE
8
BLACK
6
CONTINUOUS
10
5.1352755905511813
20
1.1988582677165354
11
5.135949881889764
21
1.2022481889763779
0
LINE
8
BLACK
6
CONTINUOUS
10
5.135949881889764
20
1.2022481889763779
11
5.1378701181102358
21
1.2051220078740157
0
LINE
8
BLACK
6
CONTINUOUS
10
5.1378701181102358
20
1.2051220078740157
11
5.1407439370078736
21
1.2070422440944881
0
LINE
8
BLACK
6
CONTINUOUS
10
5.1407439370078736
20
1.2070422440944881
11
5.1441338582677165
21
1.2077165354330708
0
LINE
8
BLACK
6
CONTINUOUS
10
5.1441338582677165
20
1.2077165354330708
11
5.1618503937007869
21
1.2077165354330708
0
LINE
8
BLACK
6
CONTINUOUS
10
5.1618503937007869
20
1.2077165354330708
11
5.1652403149606299
21
1.2070422440944881
0
LINE
8
BLACK
6
CONTINUOUS
10
5.1613033070866141
20
1.3507430314960629
11
5.1641771259842519
21
1.3488227952755905
0
LINE
8
BLACK
6
CONTINUOUS
10
5.1641771259842519
20
1.3488227952755905
11
5.1660973622047246
21
1.3459489763779526
0
LINE
8
BLACK
6
CONTINUOUS
10
5.1660973622047246
20
1.3459489763779526
11
5.1667716535433073
21
1.3425590551181101
0
LINE
8
BLACK
6
CONTINUOUS
10
5.1667716535433073
20
1.3425590551181101
11
5.1667716535433073
21
1.3090944881889763
0
LINE
8
BLACK
6
CONTINUOUS
10
5.1667716535433073
20
1.3090944881889763
11
5.1660973622047246
21
1.3057045669291338
0
LINE
8
BLACK
6
CONTINUOUS
10
5.1660973622047246
20
1.3057045669291338
11
5.1641771259842519
21
1.302830748031496
0
LINE
8
BLACK
6
CONTINUOUS
10
5.1641771259842519
20
1.302830748031496
11
5.1613033070866141
21
1.3009105118110236
0
LINE
8
BLACK
6
CONTINUOUS
10
5.1613033070866141
20
1.3009105118110236
11
5.1579133858267712
21
1.3002362204724409
0
LINE
8
BLACK
6
CONTINUOUS
10
5.1579133858267712
20
1.3002362204724409
11
5.1401968503937008
21
1.3002362204724409
0
LINE
8
BLACK
6
CONTINUOUS
10
5.1401968503937008
20
1.3002362204724409
11
5.1368069291338578
21
1.3009105118110236
0
LINE
8
BLACK
6
CONTINUOUS
10
5.1368069291338578
20
1.3009105118110236
11
5.13393311023622
21
1.302830748031496
0
LINE
8
BLACK
6
CONTINUOUS
10
5.13393311023622
20
1.302830748031496
11
5.1320128740157482
21
1.3057045669291338
0
LINE
8
BLACK
6
CONTINUOUS
10
5.1320128740157482
20
1.3057045669291338
11
5.1313385826771656
21
1.3090944881889763
0
LINE
8
BLACK
6
CONTINUOUS
10
5.1313385826771656
20
1.3090944881889763
11
5.1313385826771656
21
1.3425590551181101
0
LINE
8
BLACK
6
CONTINUOUS
10
5.1313385826771656
20
1.3425590551181101
11
5.1320128740157482
21
1.3459489763779526
0
LINE
8
BLACK
6
CONTINUOUS
10
5.1320128740157482
20
1.3459489763779526
11
5.13393311023622
21
1.3488227952755905
0
LINE
8
BLACK
6
CONTINUOUS
10
5.13393311023622
20
1.3488227952755905
11
5.1368069291338578
21
1.3507430314960629
0
LINE
8
BLACK
6
CONTINUOUS
10
5.1368069291338578
20
1.3507430314960629
11
5.1401968503937008
21
1.3514173228346456
0
LINE
8
BLACK
6
CONTINUOUS
10
5.1401968503937008
20
1.3514173228346456
11
5.1579133858267712
21
1.3514173228346456
0
LINE
8
BLACK
6
CONTINUOUS
10
5.1579133858267712
20
1.3514173228346456
11
5.1613033070866141
21
1.3507430314960629
0
LINE
8
BLACK
6
CONTINUOUS
10
5.1031595669291336
20
1.3646349212598425
11
5.1055544488188973
21
1.3630347637795275
0
LINE
8
BLACK
6
CONTINUOUS
10
5.1055544488188973
20
1.3630347637795275
11
5.1071546062992121
21
1.3606398818897638
0
LINE
8
BLACK
6
CONTINUOUS
10
5.1071546062992121
20
1.3606398818897638
11
5.1077165354330711
21
1.3578149606299212
0
LINE
8
BLACK
6
CONTINUOUS
10
5.1077165354330711
20
1.3578149606299212
11
5.1077165354330711
21
1.3430511811023622
0
LINE
8
BLACK
6
CONTINUOUS
10
5.1077165354330711
20
1.3430511811023622
11
5.1071546062992121
21
1.3402262598425196
0
LINE
8
BLACK
6
CONTINUOUS
10
5.1071546062992121
20
1.3402262598425196
11
5.1055544488188973
21
1.337831377952756
0
LINE
8
BLACK
6
CONTINUOUS
10
5.1055544488188973
20
1.337831377952756
11
5.1031595669291336
21
1.3362312204724409
0
LINE
8
BLACK
6
CONTINUOUS
10
5.1031595669291336
20
1.3362312204724409
11
5.1003346456692915
21
1.3356692913385826
0
LINE
8
BLACK
6
CONTINUOUS
10
5.1003346456692915
20
1.3356692913385826
11
5.0442322834645665
21
1.3356692913385826
0
LINE
8
BLACK
6
CONTINUOUS
10
5.0442322834645665
20
1.3356692913385826
11
5.0414073622047244
21
1.3362312204724409
0
LINE
8
BLACK
6
CONTINUOUS
10
5.0414073622047244
20
1.3362312204724409
11
5.0390124803149607
21
1.337831377952756
0
LINE
8
BLACK
6
CONTINUOUS
10
5.0390124803149607
20
1.337831377952756
11
5.0374123228346459
21
1.3402262598425196
0
LINE
8
BLACK
6
CONTINUOUS
10
5.0374123228346459
20
1.3402262598425196
11
5.0368503937007869
21
1.3430511811023622
0
LINE
8
BLACK
6
CONTINUOUS
10
5.0368503937007869
20
1.3430511811023622
11
5.0368503937007869
21
1.3578149606299212
0
LINE
8
BLACK
6
CONTINUOUS
10
5.0368503937007869
20
1.3578149606299212
11
5.0374123228346459
21
1.3606398818897638
0
LINE
8
BLACK
6
CONTINUOUS
10
5.0374123228346459
20
1.3606398818897638
11
5.0390124803149607
21
1.3630347637795275
0
LINE
8
BLACK
6
CONTINUOUS
10
5.0390124803149607
20
1.3630347637795275
11
5.0414073622047244
21
1.3646349212598425
0
LINE
8
BLACK
6
CONTINUOUS
10
5.0414073622047244
20
1.3646349212598425
11
5.0442322834645665
21
1.3651968503937009
0
LINE
8
BLACK
6
CONTINUOUS
10
5.0442322834645665
20
1.3651968503937009
11
5.1003346456692915
21
1.3651968503937009
0
LINE
8
BLACK
6
CONTINUOUS
10
5.1003346456692915
20
1.3651968503937009
11
5.1031595669291336
21
1.3646349212598425
0
LINE
8
BLACK
6
CONTINUOUS
10
5.104070984251968
20
1.4100229133858266
11
5.1059868503937009
21
1.4087427559055117
0
LINE
8
BLACK
6
CONTINUOUS
10
5.1059868503937009
20
1.4087427559055117
11
5.1072670078740154
21
1.4068268897637795
0
LINE
8
BLACK
6
CONTINUOUS
10
5.1072670078740154
20
1.4068268897637795
11
5.1077165354330711
21
1.4045669291338583
0
LINE
8
BLACK
6
CONTINUOUS
10
5.1077165354330711
20
1.4045669291338583
11
5.1077165354330711
21
1.3927559055118111
0
LINE
8
BLACK
6
CONTINUOUS
10
5.1077165354330711
20
1.3927559055118111
11
5.1072670078740154
21
1.3904959448818897
0
LINE
8
BLACK
6
CONTINUOUS
10
5.1072670078740154
20
1.3904959448818897
11
5.1059868503937009
21
1.3885800787401574
0
LINE
8
BLACK
6
CONTINUOUS
10
5.1059868503937009
20
1.3885800787401574
11
5.104070984251968
21
1.3872999212598425
0
LINE
8
BLACK
6
CONTINUOUS
10
5.104070984251968
20
1.3872999212598425
11
5.1018110236220471
21
1.3868503937007874
0
LINE
8
BLACK
6
CONTINUOUS
10
5.1018110236220471
20
1.3868503937007874
11
5.042755905511811
21
1.3868503937007874
0
LINE
8
BLACK
6
CONTINUOUS
10
5.042755905511811
20
1.3868503937007874
11
5.04049594488189
21
1.3872999212598425
0
LINE
8
BLACK
6
CONTINUOUS
10
5.04049594488189
20
1.3872999212598425
11
5.0385800787401571
21
1.3885800787401574
0
LINE
8
BLACK
6
CONTINUOUS
10
5.0385800787401571
20
1.3885800787401574
11
5.0372999212598426
21
1.3904959448818897
0
LINE
8
BLACK
6
CONTINUOUS
10
5.0372999212598426
20
1.3904959448818897
11
5.0368503937007869
21
1.3927559055118111
0
LINE
8
BLACK
6
CONTINUOUS
10
5.0368503937007869
20
1.3927559055118111
11
5.0368503937007869
21
1.4045669291338583
0
LINE
8
BLACK
6
CONTINUOUS
10
5.0368503937007869
20
1.4045669291338583
11
5.0372999212598426
21
1.4068268897637795
0
LINE
8
BLACK
6
CONTINUOUS
10
5.0372999212598426
20
1.4068268897637795
11
5.0385800787401571
21
1.4087427559055117
0
LINE
8
BLACK
6
CONTINUOUS
10
5.0385800787401571
20
1.4087427559055117
11
5.04049594488189
21
1.4100229133858266
0
LINE
8
BLACK
6
CONTINUOUS
10
5.04049594488189
20
1.4100229133858266
11
5.042755905511811
21
1.4104724409448819
0
LINE
8
BLACK
6
CONTINUOUS
10
5.042755905511811
20
1.4104724409448819
11
5.1018110236220471
21
1.4104724409448819
0
LINE
8
BLACK
6
CONTINUOUS
10
5.1018110236220471
20
1.4104724409448819
11
5.104070984251968
21
1.4100229133858266
0
LINE
8
BLACK
6
CONTINUOUS
10
5.1031595669291336
20
1.4610916141732284
11
5.1055544488188973
21
1.4594914566929134
0
LINE
8
BLACK
6
CONTINUOUS
10
5.1055544488188973
20
1.4594914566929134
11
5.1071546062992121
21
1.4570965748031495
0
LINE
8
BLACK
6
CONTINUOUS
10
5.1071546062992121
20
1.4570965748031495
11
5.1077165354330711
21
1.4542716535433071
0
LINE
8
BLACK
6
CONTINUOUS
10
5.1077165354330711
20
1.4542716535433071
11
5.1077165354330711
21
1.4395078740157481
0
LINE
8
BLACK
6
CONTINUOUS
10
5.1077165354330711
20
1.4395078740157481
11
5.1071546062992121
21
1.4366829527559055
0
LINE
8
BLACK
6
CONTINUOUS
10
5.1071546062992121
20
1.4366829527559055
11
5.1055544488188973
21
1.4342880708661416
0
LINE
8
BLACK
6
CONTINUOUS
10
5.1055544488188973
20
1.4342880708661416
11
5.1031595669291336
21
1.4326879133858268
0
LINE
8
BLACK
6
CONTINUOUS
10
5.1031595669291336
20
1.4326879133858268
11
5.1003346456692915
21
1.4321259842519685
0
LINE
8
BLACK
6
CONTINUOUS
10
5.1003346456692915
20
1.4321259842519685
11
5.0442322834645665
21
1.4321259842519685
0
LINE
8
BLACK
6
CONTINUOUS
10
5.0442322834645665
20
1.4321259842519685
11
5.0414073622047244
21
1.4326879133858268
0
LINE
8
BLACK
6
CONTINUOUS
10
5.0414073622047244
20
1.4326879133858268
11
5.0390124803149607
21
1.4342880708661416
0
LINE
8
BLACK
6
CONTINUOUS
10
5.0390124803149607
20
1.4342880708661416
11
5.0374123228346459
21
1.4366829527559055
0
LINE
8
BLACK
6
CONTINUOUS
10
5.0374123228346459
20
1.4366829527559055
11
5.0368503937007869
21
1.4395078740157481
0
LINE
8
BLACK
6
CONTINUOUS
10
5.0368503937007869
20
1.4395078740157481
11
5.0368503937007869
21
1.4542716535433071
0
LINE
8
BLACK
6
CONTINUOUS
10
5.0368503937007869
20
1.4542716535433071
11
5.0374123228346459
21
1.4570965748031495
0
LINE
8
BLACK
6
CONTINUOUS
10
5.0374123228346459
20
1.4570965748031495
11
5.0390124803149607
21
1.4594914566929134
0
LINE
8
BLACK
6
CONTINUOUS
10
5.0390124803149607
20
1.4594914566929134
11
5.0414073622047244
21
1.4610916141732284
0
LINE
8
BLACK
6
CONTINUOUS
10
5.0414073622047244
20
1.4610916141732284
11
5.0442322834645665
21
1.4616535433070865
0
LINE
8
BLACK
6
CONTINUOUS
10
5.0442322834645665
20
1.4616535433070865
11
5.1003346456692915
21
1.4616535433070865
0
LINE
8
BLACK
6
CONTINUOUS
10
5.1003346456692915
20
1.4616535433070865
11
5.1031595669291336
21
1.4610916141732284
0
LINE
8
BLACK
6
CONTINUOUS
10
5.1613033070866141
20
1.4964123228346455
11
5.1641771259842519
21
1.4944920866141731
0
LINE
8
BLACK
6
CONTINUOUS
10
5.1641771259842519
20
1.4944920866141731
11
5.1660973622047246
21
1.4916182677165355
0
LINE
8
BLACK
6
CONTINUOUS
10
5.1660973622047246
20
1.4916182677165355
11
5.1667716535433073
21
1.4882283464566928
0
LINE
8
BLACK
6
CONTINUOUS
10
5.1667716535433073
20
1.4882283464566928
11
5.1667716535433073
21
1.454763779527559
0
LINE
8
BLACK
6
CONTINUOUS
10
5.1667716535433073
20
1.454763779527559
11
5.1660973622047246
21
1.4513738582677165
0
LINE
8
BLACK
6
CONTINUOUS
10
5.1660973622047246
20
1.4513738582677165
11
5.1641771259842519
21
1.4485000393700787
0
LINE
8
BLACK
6
CONTINUOUS
10
5.1641771259842519
20
1.4485000393700787
11
5.1613033070866141
21
1.4465798031496062
0
LINE
8
BLACK
6
CONTINUOUS
10
5.1613033070866141
20
1.4465798031496062
11
5.1579133858267712
21
1.4459055118110236
0
LINE
8
BLACK
6
CONTINUOUS
10
5.1579133858267712
20
1.4459055118110236
11
5.1401968503937008
21
1.4459055118110236
0
LINE
8
BLACK
6
CONTINUOUS
10
5.1401968503937008
20
1.4459055118110236
11
5.1368069291338578
21
1.4465798031496062
0
LINE
8
BLACK
6
CONTINUOUS
10
5.1368069291338578
20
1.4465798031496062
11
5.13393311023622
21
1.4485000393700787
0
LINE
8
BLACK
6
CONTINUOUS
10
5.13393311023622
20
1.4485000393700787
11
5.1320128740157482
21
1.4513738582677165
0
LINE
8
BLACK
6
CONTINUOUS
10
5.1320128740157482
20
1.4513738582677165
11
5.1313385826771656
21
1.454763779527559
0
LINE
8
BLACK
6
CONTINUOUS
10
5.1313385826771656
20
1.454763779527559
11
5.1313385826771656
21
1.4882283464566928
0
LINE
8
BLACK
6
CONTINUOUS
10
5.1313385826771656
20
1.4882283464566928
11
5.1320128740157482
21
1.4916182677165355
0
LINE
8
BLACK
6
CONTINUOUS
10
5.1320128740157482
20
1.4916182677165355
11
5.13393311023622
21
1.4944920866141731
0
LINE
8
BLACK
6
CONTINUOUS
10
5.13393311023622
20
1.4944920866141731
11
5.1368069291338578
21
1.4964123228346455
0
LINE
8
BLACK
6
CONTINUOUS
10
5.1368069291338578
20
1.4964123228346455
11
5.1401968503937008
21
1.4970866141732284
0
LINE
8
BLACK
6
CONTINUOUS
10
5.1401968503937008
20
1.4970866141732284
11
5.1579133858267712
21
1.4970866141732284
0
LINE
8
BLACK
6
CONTINUOUS
10
5.1579133858267712
20
1.4970866141732284
11
5.1613033070866141
21
1.4964123228346455
0
LINE
8
BLACK
6
CONTINUOUS
10
5.3132547637795273
20
1.624290157480315
11
5.3164479133858267
21
1.6221565748031497
0
LINE
8
BLACK
6
CONTINUOUS
10
5.3164479133858267
20
1.6221565748031497
11
5.3185814960629916
21
1.6189634251968503
0
LINE
8
BLACK
6
CONTINUOUS
10
5.3185814960629916
20
1.6189634251968503
11
5.3193307086614174
21
1.6151968503937006
0
LINE
8
BLACK
6
CONTINUOUS
10
5.3193307086614174
20
1.6151968503937006
11
5.3193307086614174
21
1.5994488188976377
0
LINE
8
BLACK
6
CONTINUOUS
10
5.3193307086614174
20
1.5994488188976377
11
5.3185814960629916
21
1.5956822440944882
0
LINE
8
BLACK
6
CONTINUOUS
10
5.3185814960629916
20
1.5956822440944882
11
5.3164479133858267
21
1.5924890944881889
0
LINE
8
BLACK
6
CONTINUOUS
10
5.3164479133858267
20
1.5924890944881889
11
5.3132547637795273
21
1.5903555118110235
0
LINE
8
BLACK
6
CONTINUOUS
10
5.3132547637795273
20
1.5903555118110235
11
5.3094881889763776
21
1.5896062992125983
0
LINE
8
BLACK
6
CONTINUOUS
10
5.3094881889763776
20
1.5896062992125983
11
5.2898031496062989
21
1.5896062992125983
0
LINE
8
BLACK
6
CONTINUOUS
10
5.2898031496062989
20
1.5896062992125983
11
5.2860365748031493
21
1.5903555118110235
0
LINE
8
BLACK
6
CONTINUOUS
10
5.2860365748031493
20
1.5903555118110235
11
5.2828434251968499
21
1.5924890944881889
0
LINE
8
BLACK
6
CONTINUOUS
10
5.2828434251968499
20
1.5924890944881889
11
5.280709842519685
21
1.5956822440944882
0
LINE
8
BLACK
6
CONTINUOUS
10
5.280709842519685
20
1.5956822440944882
11
5.27996062992126
21
1.5994488188976377
0
LINE
8
BLACK
6
CONTINUOUS
10
5.27996062992126
20
1.5994488188976377
11
5.27996062992126
21
1.6151968503937006
0
LINE
8
BLACK
6
CONTINUOUS
10
5.27996062992126
20
1.6151968503937006
11
5.280709842519685
21
1.6189634251968503
0
LINE
8
BLACK
6
CONTINUOUS
10
5.280709842519685
20
1.6189634251968503
11
5.2828434251968499
21
1.6221565748031497
0
LINE
8
BLACK
6
CONTINUOUS
10
5.2828434251968499
20
1.6221565748031497
11
5.2860365748031493
21
1.624290157480315
0
LINE
8
BLACK
6
CONTINUOUS
10
5.2860365748031493
20
1.624290157480315
11
5.2898031496062989
21
1.6250393700787402
0
LINE
8
BLACK
6
CONTINUOUS
10
5.2898031496062989
20
1.6250393700787402
11
5.3094881889763776
21
1.6250393700787402
0
LINE
8
BLACK
6
CONTINUOUS
10
5.3094881889763776
20
1.6250393700787402
11
5.3132547637795273
21
1.624290157480315
0
LINE
8
BLACK
6
CONTINUOUS
10
5.3132547637795273
20
1.6872822834645669
11
5.3164479133858267
21
1.6851487007874015
0
LINE
8
BLACK
6
CONTINUOUS
10
5.3164479133858267
20
1.6851487007874015
11
5.3185814960629916
21
1.6819555511811024
0
LINE
8
BLACK
6
CONTINUOUS
10
5.3185814960629916
20
1.6819555511811024
11
5.3193307086614174
21
1.6781889763779527
0
LINE
8
BLACK
6
CONTINUOUS
10
5.3193307086614174
20
1.6781889763779527
11
5.3193307086614174
21
1.6624409448818898
0
LINE
8
BLACK
6
CONTINUOUS
10
5.3193307086614174
20
1.6624409448818898
11
5.3185814960629916
21
1.6586743700787401
0
LINE
8
BLACK
6
CONTINUOUS
10
5.3185814960629916
20
1.6586743700787401
11
5.3164479133858267
21
1.655481220472441
0
LINE
8
BLACK
6
CONTINUOUS
10
5.3164479133858267
20
1.655481220472441
11
5.3132547637795273
21
1.6533476377952756
0
LINE
8
BLACK
6
CONTINUOUS
10
5.3132547637795273
20
1.6533476377952756
11
5.3094881889763776
21
1.6525984251968504
0
LINE
8
BLACK
6
CONTINUOUS
10
5.3094881889763776
20
1.6525984251968504
11
5.2898031496062989
21
1.6525984251968504
0
LINE
8
BLACK
6
CONTINUOUS
10
5.2898031496062989
20
1.6525984251968504
11
5.2860365748031493
21
1.6533476377952756
0
LINE
8
BLACK
6
CONTINUOUS
10
5.2860365748031493
20
1.6533476377952756
11
5.2828434251968499
21
1.655481220472441
0
LINE
8
BLACK
6
CONTINUOUS
10
5.2828434251968499
20
1.655481220472441
11
5.280709842519685
21
1.6586743700787401
0
LINE
8
BLACK
6
CONTINUOUS
10
5.280709842519685
20
1.6586743700787401
11
5.27996062992126
21
1.6624409448818898
0
LINE
8
BLACK
6
CONTINUOUS
10
5.27996062992126
20
1.6624409448818898
11
5.27996062992126
21
1.6781889763779527
0
LINE
8
BLACK
6
CONTINUOUS
10
5.27996062992126
20
1.6781889763779527
11
5.280709842519685
21
1.6819555511811024
0
LINE
8
BLACK
6
CONTINUOUS
10
5.280709842519685
20
1.6819555511811024
11
5.2828434251968499
21
1.6851487007874015
0
LINE
8
BLACK
6
CONTINUOUS
10
5.2828434251968499
20
1.6851487007874015
11
5.2860365748031493
21
1.6872822834645669
0
LINE
8
BLACK
6
CONTINUOUS
10
5.2860365748031493
20
1.6872822834645669
11
5.2898031496062989
21
1.6880314960629921
0
LINE
8
BLACK
6
CONTINUOUS
10
5.2898031496062989
20
1.6880314960629921
11
5.3094881889763776
21
1.6880314960629921
0
LINE
8
BLACK
6
CONTINUOUS
10
5.3094881889763776
20
1.6880314960629921
11
5.3132547637795273
21
1.6872822834645669
0
LINE
8
BLACK
6
CONTINUOUS
10
5.1853020078740153
20
1.7313526771653542
11
5.1884951574803146
21
1.7292190944881889
0
LINE
8
BLACK
6
CONTINUOUS
10
5.1884951574803146
20
1.7292190944881889
11
5.1906287401574804
21
1.7260259448818898
0
LINE
8
BLACK
6
CONTINUOUS
10
5.1906287401574804
20
1.7260259448818898
11
5.1913779527559054
21
1.7222593700787401
0
LINE
8
BLACK
6
CONTINUOUS
10
5.1913779527559054
20
1.7222593700787401
11
5.1913779527559054
21
1.6868262992125984
0
LINE
8
BLACK
6
CONTINUOUS
10
5.1913779527559054
20
1.6868262992125984
11
5.1906287401574804
21
1.6830597244094487
0
LINE
8
BLACK
6
CONTINUOUS
10
5.1906287401574804
20
1.6830597244094487
11
5.1884951574803146
21
1.6798665748031496
0
LINE
8
BLACK
6
CONTINUOUS
10
5.1884951574803146
20
1.6798665748031496
11
5.1853020078740153
21
1.6777329921259843
0
LINE
8
BLACK
6
CONTINUOUS
10
5.1853020078740153
20
1.6777329921259843
11
5.1815354330708656
21
1.6769837795275591
0
LINE
8
BLACK
6
CONTINUOUS
10
5.1815354330708656
20
1.6769837795275591
11
5.1608661417322832
21
1.6769837795275591
0
LINE
8
BLACK
6
CONTINUOUS
10
5.1608661417322832
20
1.6769837795275591
11
5.1570995669291335
21
1.6777329921259843
0
LINE
8
BLACK
6
CONTINUOUS
10
5.1570995669291335
20
1.6777329921259843
11
5.1539064173228342
21
1.6798665748031496
0
LINE
8
BLACK
6
CONTINUOUS
10
5.1539064173228342
20
1.6798665748031496
11
5.1517728346456693
21
1.6830597244094487
0
LINE
8
BLACK
6
CONTINUOUS
10
5.1517728346456693
20
1.6830597244094487
11
5.1510236220472443
21
1.6868262992125984
0
LINE
8
BLACK
6
CONTINUOUS
10
5.1510236220472443
20
1.6868262992125984
11
5.1510236220472443
21
1.7222593700787401
0
LINE
8
BLACK
6
CONTINUOUS
10
5.1510236220472443
20
1.7222593700787401
11
5.1517728346456693
21
1.7260259448818898
0
LINE
8
BLACK
6
CONTINUOUS
10
5.1517728346456693
20
1.7260259448818898
11
5.1539064173228342
21
1.7292190944881889
0
LINE
8
BLACK
6
CONTINUOUS
10
5.1539064173228342
20
1.7292190944881889
11
5.1570995669291335
21
1.7313526771653542
0
LINE
8
BLACK
6
CONTINUOUS
10
5.1570995669291335
20
1.7313526771653542
11
5.1608661417322832
21
1.7321018897637794
0
LINE
8
BLACK
6
CONTINUOUS
10
5.1608661417322832
20
1.7321018897637794
11
5.1815354330708656
21
1.7321018897637794
0
LINE
8
BLACK
6
CONTINUOUS
10
5.1815354330708656
20
1.7321018897637794
11
5.1853020078740153
21
1.7313526771653542
0
LINE
8
BLACK
6
CONTINUOUS
10
5.2571524015748032
20
1.7313526771653542
11
5.2603455511811026
21
1.7292190944881889
0
LINE
8
BLACK
6
CONTINUOUS
10
5.2603455511811026
20
1.7292190944881889
11
5.2624791338582675
21
1.7260259448818898
0
LINE
8
BLACK
6
CONTINUOUS
10
5.2624791338582675
20
1.7260259448818898
11
5.2632283464566925
21
1.7222593700787401
0
LINE
8
BLACK
6
CONTINUOUS
10
5.2632283464566925
20
1.7222593700787401
11
5.2632283464566925
21
1.6868262992125984
0
LINE
8
BLACK
6
CONTINUOUS
10
5.2632283464566925
20
1.6868262992125984
11
5.2624791338582675
21
1.6830597244094487
0
LINE
8
BLACK
6
CONTINUOUS
10
5.2624791338582675
20
1.6830597244094487
11
5.2603455511811026
21
1.6798665748031496
0
LINE
8
BLACK
6
CONTINUOUS
10
5.2603455511811026
20
1.6798665748031496
11
5.2571524015748032
21
1.6777329921259843
0
LINE
8
BLACK
6
CONTINUOUS
10
5.2571524015748032
20
1.6777329921259843
11
5.2533858267716536
21
1.6769837795275591
0
LINE
8
BLACK
6
CONTINUOUS
10
5.2533858267716536
20
1.6769837795275591
11
5.2327165354330711
21
1.6769837795275591
0
LINE
8
BLACK
6
CONTINUOUS
10
5.2327165354330711
20
1.6769837795275591
11
5.2289499606299215
21
1.6777329921259843
0
LINE
8
BLACK
6
CONTINUOUS
10
5.2289499606299215
20
1.6777329921259843
11
5.2257568110236221
21
1.6798665748031496
0
LINE
8
BLACK
6
CONTINUOUS
10
5.2257568110236221
20
1.6798665748031496
11
5.2236232283464563
21
1.6830597244094487
0
LINE
8
BLACK
6
CONTINUOUS
10
5.2236232283464563
20
1.6830597244094487
11
5.2228740157480313
21
1.6868262992125984
0
LINE
8
BLACK
6
CONTINUOUS
10
5.2228740157480313
20
1.6868262992125984
11
5.2228740157480313
21
1.7222593700787401
0
LINE
8
BLACK
6
CONTINUOUS
10
5.2228740157480313
20
1.7222593700787401
11
5.2236232283464563
21
1.7260259448818898
0
LINE
8
BLACK
6
CONTINUOUS
10
5.2236232283464563
20
1.7260259448818898
11
5.2257568110236221
21
1.7292190944881889
0
LINE
8
BLACK
6
CONTINUOUS
10
5.2257568110236221
20
1.7292190944881889
11
5.2289499606299215
21
1.7313526771653542
0
LINE
8
BLACK
6
CONTINUOUS
10
5.2289499606299215
20
1.7313526771653542
11
5.2327165354330711
21
1.7321018897637794
0
LINE
8
BLACK
6
CONTINUOUS
10
5.2327165354330711
20
1.7321018897637794
11
5.2533858267716536
21
1.7321018897637794
0
LINE
8
BLACK
6
CONTINUOUS
10
5.2533858267716536
20
1.7321018897637794
11
5.2571524015748032
21
1.7313526771653542
0
LINE
8
BLACK
6
CONTINUOUS
10
5.3132547637795273
20
1.7332408267716535
11
5.3164479133858267
21
1.7311072440944881
0
LINE
8
BLACK
6
CONTINUOUS
10
5.3164479133858267
20
1.7311072440944881
11
5.3185814960629916
21
1.727914094488189
0
LINE
8
BLACK
6
CONTINUOUS
10
5.3185814960629916
20
1.727914094488189
11
5.3193307086614174
21
1.7241475196850393
0
LINE
8
BLACK
6
CONTINUOUS
10
5.3193307086614174
20
1.7241475196850393
11
5.3193307086614174
21
1.7083994881889764
0
LINE
8
BLACK
6
CONTINUOUS
10
5.3193307086614174
20
1.7083994881889764
11
5.3185814960629916
21
1.7046329133858267
0
LINE
8
BLACK
6
CONTINUOUS
10
5.3185814960629916
20
1.7046329133858267
11
5.3164479133858267
21
1.7014397637795275
0
LINE
8
BLACK
6
CONTINUOUS
10
5.3164479133858267
20
1.7014397637795275
11
5.3132547637795273
21
1.6993061811023622
0
LINE
8
BLACK
6
CONTINUOUS
10
5.3132547637795273
20
1.6993061811023622
11
5.3094881889763776
21
1.698556968503937
0
LINE
8
BLACK
6
CONTINUOUS
10
5.3094881889763776
20
1.698556968503937
11
5.2898031496062989
21
1.698556968503937
0
LINE
8
BLACK
6
CONTINUOUS
10
5.2898031496062989
20
1.698556968503937
11
5.2860365748031493
21
1.6993061811023622
0
LINE
8
BLACK
6
CONTINUOUS
10
5.2860365748031493
20
1.6993061811023622
11
5.2828434251968499
21
1.7014397637795275
0
LINE
8
BLACK
6
CONTINUOUS
10
5.2828434251968499
20
1.7014397637795275
11
5.280709842519685
21
1.7046329133858267
0
LINE
8
BLACK
6
CONTINUOUS
10
5.280709842519685
20
1.7046329133858267
11
5.27996062992126
21
1.7083994881889764
0
LINE
8
BLACK
6
CONTINUOUS
10
5.27996062992126
20
1.7083994881889764
11
5.27996062992126
21
1.7241475196850393
0
LINE
8
BLACK
6
CONTINUOUS
10
5.27996062992126
20
1.7241475196850393
11
5.280709842519685
21
1.727914094488189
0
LINE
8
BLACK
6
CONTINUOUS
10
5.280709842519685
20
1.727914094488189
11
5.2828434251968499
21
1.7311072440944881
0
LINE
8
BLACK
6
CONTINUOUS
10
5.2828434251968499
20
1.7311072440944881
11
5.2860365748031493
21
1.7332408267716535
0
LINE
8
BLACK
6
CONTINUOUS
10
5.2860365748031493
20
1.7332408267716535
11
5.2898031496062989
21
1.7339900393700787
0
LINE
8
BLACK
6
CONTINUOUS
10
5.2898031496062989
20
1.7339900393700787
11
5.3094881889763776
21
1.7339900393700787
0
LINE
8
BLACK
6
CONTINUOUS
10
5.3094881889763776
20
1.7339900393700787
11
5.3132547637795273
21
1.7332408267716535
0
LINE
8
BLACK
6
CONTINUOUS
10
5.1843177559055116
20
1.8081243307086614
11
5.1875109055118109
21
1.8059907480314961
0
LINE
8
BLACK
6
CONTINUOUS
10
5.1875109055118109
20
1.8059907480314961
11
5.1896444881889758
21
1.8027975984251967
0
LINE
8
BLACK
6
CONTINUOUS
10
5.1896444881889758
20
1.8027975984251967
11
5.1903937007874017
21
1.7990310236220473
0
LINE
8
BLACK
6
CONTINUOUS
10
5.1903937007874017
20
1.7990310236220473
11
5.1903937007874017
21
1.7635979527559054
0
LINE
8
BLACK
6
CONTINUOUS
10
5.1903937007874017
20
1.7635979527559054
11
5.1896444881889758
21
1.7598313779527559
0
LINE
8
BLACK
6
CONTINUOUS
10
5.1896444881889758
20
1.7598313779527559
11
5.1875109055118109
21
1.7566382283464566
0
LINE
8
BLACK
6
CONTINUOUS
10
5.1875109055118109
20
1.7566382283464566
11
5.1843177559055116
21
1.7545046456692912
0
LINE
8
BLACK
6
CONTINUOUS
10
5.1843177559055116
20
1.7545046456692912
11
5.1805511811023619
21
1.753755433070866
0
LINE
8
BLACK
6
CONTINUOUS
10
5.1805511811023619
20
1.753755433070866
11
5.1598818897637795
21
1.753755433070866
0
LINE
8
BLACK
6
CONTINUOUS
10
5.1598818897637795
20
1.753755433070866
11
5.1561153149606298
21
1.7545046456692912
0
LINE
8
BLACK
6
CONTINUOUS
10
5.1561153149606298
20
1.7545046456692912
11
5.1529221653543305
21
1.7566382283464566
0
LINE
8
BLACK
6
CONTINUOUS
10
5.1529221653543305
20
1.7566382283464566
11
5.1507885826771656
21
1.7598313779527559
0
LINE
8
BLACK
6
CONTINUOUS
10
5.1507885826771656
20
1.7598313779527559
11
5.1500393700787397
21
1.7635979527559054
0
LINE
8
BLACK
6
CONTINUOUS
10
5.1500393700787397
20
1.7635979527559054
11
5.1500393700787397
21
1.7990310236220473
0
LINE
8
BLACK
6
CONTINUOUS
10
5.1500393700787397
20
1.7990310236220473
11
5.1507885826771656
21
1.8027975984251967
0
LINE
8
BLACK
6
CONTINUOUS
10
5.1507885826771656
20
1.8027975984251967
11
5.1529221653543305
21
1.8059907480314961
0
LINE
8
BLACK
6
CONTINUOUS
10
5.1529221653543305
20
1.8059907480314961
11
5.1561153149606298
21
1.8081243307086614
0
LINE
8
BLACK
6
CONTINUOUS
10
5.1561153149606298
20
1.8081243307086614
11
5.1598818897637795
21
1.8088735433070866
0
LINE
8
BLACK
6
CONTINUOUS
10
5.1598818897637795
20
1.8088735433070866
11
5.1805511811023619
21
1.8088735433070866
0
LINE
8
BLACK
6
CONTINUOUS
10
5.1805511811023619
20
1.8088735433070866
11
5.1843177559055116
21
1.8081243307086614
0
LINE
8
BLACK
6
CONTINUOUS
10
5.2561681496062995
20
1.8081243307086614
11
5.259361299212598
21
1.8059907480314961
0
LINE
8
BLACK
6
CONTINUOUS
10
5.259361299212598
20
1.8059907480314961
11
5.2614948818897638
21
1.8027975984251967
0
LINE
8
BLACK
6
CONTINUOUS
10
5.2614948818897638
20
1.8027975984251967
11
5.2622440944881888
21
1.7990310236220473
0
LINE
8
BLACK
6
CONTINUOUS
10
5.2622440944881888
20
1.7990310236220473
11
5.2622440944881888
21
1.7635979527559054
0
LINE
8
BLACK
6
CONTINUOUS
10
5.2622440944881888
20
1.7635979527559054
11
5.2614948818897638
21
1.7598313779527559
0
LINE
8
BLACK
6
CONTINUOUS
10
5.2614948818897638
20
1.7598313779527559
11
5.259361299212598
21
1.7566382283464566
0
LINE
8
BLACK
6
CONTINUOUS
10
5.259361299212598
20
1.7566382283464566
11
5.2561681496062995
21
1.7545046456692912
0
LINE
8
BLACK
6
CONTINUOUS
10
5.2561681496062995
20
1.7545046456692912
11
5.2524015748031498
21
1.753755433070866
0
LINE
8
BLACK
6
CONTINUOUS
10
5.2524015748031498
20
1.753755433070866
11
5.2317322834645665
21
1.753755433070866
0
LINE
8
BLACK
6
CONTINUOUS
10
5.2317322834645665
20
1.753755433070866
11
5.2279657086614169
21
1.7545046456692912
0
LINE
8
BLACK
6
CONTINUOUS
10
5.2279657086614169
20
1.7545046456692912
11
5.2247725590551184
21
1.7566382283464566
0
LINE
8
BLACK
6
CONTINUOUS
10
5.2247725590551184
20
1.7566382283464566
11
5.2226389763779526
21
1.7598313779527559
0
LINE
8
BLACK
6
CONTINUOUS
10
5.2226389763779526
20
1.7598313779527559
11
5.2218897637795276
21
1.7635979527559054
0
LINE
8
BLACK
6
CONTINUOUS
10
5.2218897637795276
20
1.7635979527559054
11
5.2218897637795276
21
1.7990310236220473
0
LINE
8
BLACK
6
CONTINUOUS
10
5.2218897637795276
20
1.7990310236220473
11
5.2226389763779526
21
1.8027975984251967
0
LINE
8
BLACK
6
CONTINUOUS
10
5.2226389763779526
20
1.8027975984251967
11
5.2247725590551184
21
1.8059907480314961
0
LINE
8
BLACK
6
CONTINUOUS
10
5.2247725590551184
20
1.8059907480314961
11
5.2279657086614169
21
1.8081243307086614
0
LINE
8
BLACK
6
CONTINUOUS
10
5.2279657086614169
20
1.8081243307086614
11
5.2317322834645665
21
1.8088735433070866
0
LINE
8
BLACK
6
CONTINUOUS
10
5.2317322834645665
20
1.8088735433070866
11
5.2524015748031498
21
1.8088735433070866
0
LINE
8
BLACK
6
CONTINUOUS
10
5.2524015748031498
20
1.8088735433070866
11
5.2561681496062995
21
1.8081243307086614
0
LINE
8
BLACK
6
CONTINUOUS
10
5.3132547637795273
20
1.7962329527559056
11
5.3164479133858267
21
1.7940993700787402
0
LINE
8
BLACK
6
CONTINUOUS
10
5.3164479133858267
20
1.7940993700787402
11
5.3185814960629916
21
1.7909062204724409
0
LINE
8
BLACK
6
CONTINUOUS
10
5.3185814960629916
20
1.7909062204724409
11
5.3193307086614174
21
1.7871396456692914
0
LINE
8
BLACK
6
CONTINUOUS
10
5.3193307086614174
20
1.7871396456692914
11
5.3193307086614174
21
1.7713916141732282
0
LINE
8
BLACK
6
CONTINUOUS
10
5.3193307086614174
20
1.7713916141732282
11
5.3185814960629916
21
1.7676250393700788
0
LINE
8
BLACK
6
CONTINUOUS
10
5.3185814960629916
20
1.7676250393700788
11
5.3164479133858267
21
1.7644318897637794
0
LINE
8
BLACK
6
CONTINUOUS
10
5.3164479133858267
20
1.7644318897637794
11
5.3132547637795273
21
1.7622983070866141
0
LINE
8
BLACK
6
CONTINUOUS
10
5.3132547637795273
20
1.7622983070866141
11
5.3094881889763776
21
1.7615490944881889
0
LINE
8
BLACK
6
CONTINUOUS
10
5.3094881889763776
20
1.7615490944881889
11
5.2898031496062989
21
1.7615490944881889
0
LINE
8
BLACK
6
CONTINUOUS
10
5.2898031496062989
20
1.7615490944881889
11
5.2860365748031493
21
1.7622983070866141
0
LINE
8
BLACK
6
CONTINUOUS
10
5.2860365748031493
20
1.7622983070866141
11
5.2828434251968499
21
1.7644318897637794
0
LINE
8
BLACK
6
CONTINUOUS
10
5.2828434251968499
20
1.7644318897637794
11
5.280709842519685
21
1.7676250393700788
0
LINE
8
BLACK
6
CONTINUOUS
10
5.280709842519685
20
1.7676250393700788
11
5.27996062992126
21
1.7713916141732282
0
LINE
8
BLACK
6
CONTINUOUS
10
5.27996062992126
20
1.7713916141732282
11
5.27996062992126
21
1.7871396456692914
0
LINE
8
BLACK
6
CONTINUOUS
10
5.27996062992126
20
1.7871396456692914
11
5.280709842519685
21
1.7909062204724409
0
LINE
8
BLACK
6
CONTINUOUS
10
5.280709842519685
20
1.7909062204724409
11
5.2828434251968499
21
1.7940993700787402
0
LINE
8
BLACK
6
CONTINUOUS
10
5.2828434251968499
20
1.7940993700787402
11
5.2860365748031493
21
1.7962329527559056
0
LINE
8
BLACK
6
CONTINUOUS
10
5.2860365748031493
20
1.7962329527559056
11
5.2898031496062989
21
1.7969821653543308
0
LINE
8
BLACK
6
CONTINUOUS
10
5.2898031496062989
20
1.7969821653543308
11
5.3094881889763776
21
1.7969821653543308
0
LINE
8
BLACK
6
CONTINUOUS
10
5.3094881889763776
20
1.7969821653543308
11
5.3132547637795273
21
1.7962329527559056
0
LINE
8
BLACK
6
CONTINUOUS
10
5.3132547637795273
20
1.8421914960629922
11
5.3164479133858267
21
1.8400579133858268
0
LINE
8
BLACK
6
CONTINUOUS
10
5.3164479133858267
20
1.8400579133858268
11
5.3185814960629916
21
1.8368647637795275
0
LINE
8
BLACK
6
CONTINUOUS
10
5.3185814960629916
20
1.8368647637795275
11
5.3193307086614174
21
1.833098188976378
0
LINE
8
BLACK
6
CONTINUOUS
10
5.3193307086614174
20
1.833098188976378
11
5.3193307086614174
21
1.8173501574803148
0
LINE
8
BLACK
6
CONTINUOUS
10
5.3193307086614174
20
1.8173501574803148
11
5.3185814960629916
21
1.8135835826771654
0
LINE
8
BLACK
6
CONTINUOUS
10
5.3185814960629916
20
1.8135835826771654
11
5.3164479133858267
21
1.810390433070866
0
LINE
8
BLACK
6
CONTINUOUS
10
5.3164479133858267
20
1.810390433070866
11
5.3132547637795273
21
1.8082568503937007
0
LINE
8
BLACK
6
CONTINUOUS
10
5.3132547637795273
20
1.8082568503937007
11
5.3094881889763776
21
1.8075076377952755
0
LINE
8
BLACK
6
CONTINUOUS
10
5.3094881889763776
20
1.8075076377952755
11
5.2898031496062989
21
1.8075076377952755
0
LINE
8
BLACK
6
CONTINUOUS
10
5.2898031496062989
20
1.8075076377952755
11
5.2860365748031493
21
1.8082568503937007
0
LINE
8
BLACK
6
CONTINUOUS
10
5.2860365748031493
20
1.8082568503937007
11
5.2828434251968499
21
1.810390433070866
0
LINE
8
BLACK
6
CONTINUOUS
10
5.2828434251968499
20
1.810390433070866
11
5.280709842519685
21
1.8135835826771654
0
LINE
8
BLACK
6
CONTINUOUS
10
5.280709842519685
20
1.8135835826771654
11
5.27996062992126
21
1.8173501574803148
0
LINE
8
BLACK
6
CONTINUOUS
10
5.27996062992126
20
1.8173501574803148
11
5.27996062992126
21
1.833098188976378
0
LINE
8
BLACK
6
CONTINUOUS
10
5.27996062992126
20
1.833098188976378
11
5.280709842519685
21
1.8368647637795275
0
LINE
8
BLACK
6
CONTINUOUS
10
5.280709842519685
20
1.8368647637795275
11
5.2828434251968499
21
1.8400579133858268
0
LINE
8
BLACK
6
CONTINUOUS
10
5.2828434251968499
20
1.8400579133858268
11
5.2860365748031493
21
1.8421914960629922
0
LINE
8
BLACK
6
CONTINUOUS
10
5.2860365748031493
20
1.8421914960629922
11
5.2898031496062989
21
1.8429407086614173
0
LINE
8
BLACK
6
CONTINUOUS
10
5.2898031496062989
20
1.8429407086614173
11
5.3094881889763776
21
1.8429407086614173
0
LINE
8
BLACK
6
CONTINUOUS
10
5.3094881889763776
20
1.8429407086614173
11
5.3132547637795273
21
1.8421914960629922
0
LINE
8
BLACK
6
CONTINUOUS
10
5.1833335039370079
20
1.8848959842519684
11
5.1865266535433072
21
1.882762401574803
0
LINE
8
BLACK
6
CONTINUOUS
10
5.1865266535433072
20
1.882762401574803
11
5.1886602362204721
21
1.8795692519685039
0
LINE
8
BLACK
6
CONTINUOUS
10
5.1886602362204721
20
1.8795692519685039
11
5.1894094488188971
21
1.8758026771653542
0
LINE
8
BLACK
6
CONTINUOUS
10
5.1894094488188971
20
1.8758026771653542
11
5.1894094488188971
21
1.8403696062992125
0
LINE
8
BLACK
6
CONTINUOUS
10
5.1894094488188971
20
1.8403696062992125
11
5.1886602362204721
21
1.8366030314960629
0
LINE
8
BLACK
6
CONTINUOUS
10
5.1886602362204721
20
1.8366030314960629
11
5.1865266535433072
21
1.8334098818897637
0
LINE
8
BLACK
6
CONTINUOUS
10
5.1865266535433072
20
1.8334098818897637
11
5.1833335039370079
21
1.8312762992125984
0
LINE
8
BLACK
6
CONTINUOUS
10
5.1833335039370079
20
1.8312762992125984
11
5.1795669291338582
21
1.8305270866141732
0
LINE
8
BLACK
6
CONTINUOUS
10
5.1795669291338582
20
1.8305270866141732
11
5.1588976377952758
21
1.8305270866141732
0
LINE
8
BLACK
6
CONTINUOUS
10
5.1588976377952758
20
1.8305270866141732
11
5.1551310629921261
21
1.8312762992125984
0
LINE
8
BLACK
6
CONTINUOUS
10
5.1551310629921261
20
1.8312762992125984
11
5.1519379133858267
21
1.8334098818897637
0
LINE
8
BLACK
6
CONTINUOUS
10
5.1519379133858267
20
1.8334098818897637
11
5.1498043307086609
21
1.8366030314960629
0
LINE
8
BLACK
6
CONTINUOUS
10
5.1498043307086609
20
1.8366030314960629
11
5.149055118110236
21
1.8403696062992125
0
LINE
8
BLACK
6
CONTINUOUS
10
5.149055118110236
20
1.8403696062992125
11
5.149055118110236
21
1.8758026771653542
0
LINE
8
BLACK
6
CONTINUOUS
10
5.149055118110236
20
1.8758026771653542
11
5.1498043307086609
21
1.8795692519685039
0
LINE
8
BLACK
6
CONTINUOUS
10
5.1498043307086609
20
1.8795692519685039
11
5.1519379133858267
21
1.882762401574803
0
LINE
8
BLACK
6
CONTINUOUS
10
5.1519379133858267
20
1.882762401574803
11
5.1551310629921261
21
1.8848959842519684
0
LINE
8
BLACK
6
CONTINUOUS
10
5.1551310629921261
20
1.8848959842519684
11
5.1588976377952758
21
1.8856451968503936
0
LINE
8
BLACK
6
CONTINUOUS
10
5.1588976377952758
20
1.8856451968503936
11
5.1795669291338582
21
1.8856451968503936
0
LINE
8
BLACK
6
CONTINUOUS
10
5.1795669291338582
20
1.8856451968503936
11
5.1833335039370079
21
1.8848959842519684
0
LINE
8
BLACK
6
CONTINUOUS
10
5.2551838976377949
20
1.8848959842519684
11
5.2583770472440943
21
1.882762401574803
0
LINE
8
BLACK
6
CONTINUOUS
10
5.2583770472440943
20
1.882762401574803
11
5.2605106299212601
21
1.8795692519685039
0
LINE
8
BLACK
6
CONTINUOUS
10
5.2605106299212601
20
1.8795692519685039
11
5.261259842519685
21
1.8758026771653542
0
LINE
8
BLACK
6
CONTINUOUS
10
5.261259842519685
20
1.8758026771653542
11
5.261259842519685
21
1.8403696062992125
0
LINE
8
BLACK
6
CONTINUOUS
10
5.261259842519685
20
1.8403696062992125
11
5.2605106299212601
21
1.8366030314960629
0
LINE
8
BLACK
6
CONTINUOUS
10
5.2605106299212601
20
1.8366030314960629
11
5.2583770472440943
21
1.8334098818897637
0
LINE
8
BLACK
6
CONTINUOUS
10
5.2583770472440943
20
1.8334098818897637
11
5.2551838976377949
21
1.8312762992125984
0
LINE
8
BLACK
6
CONTINUOUS
10
5.2551838976377949
20
1.8312762992125984
11
5.2514173228346452
21
1.8305270866141732
0
LINE
8
BLACK
6
CONTINUOUS
10
5.2514173228346452
20
1.8305270866141732
11
5.2307480314960628
21
1.8305270866141732
0
LINE
8
BLACK
6
CONTINUOUS
10
5.2307480314960628
20
1.8305270866141732
11
5.2269814566929131
21
1.8312762992125984
0
LINE
8
BLACK
6
CONTINUOUS
10
5.2269814566929131
20
1.8312762992125984
11
5.2237883070866138
21
1.8334098818897637
0
LINE
8
BLACK
6
CONTINUOUS
10
5.2237883070866138
20
1.8334098818897637
11
5.2216547244094489
21
1.8366030314960629
0
LINE
8
BLACK
6
CONTINUOUS
10
5.2216547244094489
20
1.8366030314960629
11
5.2209055118110239
21
1.8403696062992125
0
LINE
8
BLACK
6
CONTINUOUS
10
5.2209055118110239
20
1.8403696062992125
11
5.2209055118110239
21
1.8758026771653542
0
LINE
8
BLACK
6
CONTINUOUS
10
5.2209055118110239
20
1.8758026771653542
11
5.2216547244094489
21
1.8795692519685039
0
LINE
8
BLACK
6
CONTINUOUS
10
5.2216547244094489
20
1.8795692519685039
11
5.2237883070866138
21
1.882762401574803
0
LINE
8
BLACK
6
CONTINUOUS
10
5.2237883070866138
20
1.882762401574803
11
5.2269814566929131
21
1.8848959842519684
0
LINE
8
BLACK
6
CONTINUOUS
10
5.2269814566929131
20
1.8848959842519684
11
5.2307480314960628
21
1.8856451968503936
0
LINE
8
BLACK
6
CONTINUOUS
10
5.2307480314960628
20
1.8856451968503936
11
5.2514173228346452
21
1.8856451968503936
0
LINE
8
BLACK
6
CONTINUOUS
10
5.2514173228346452
20
1.8856451968503936
11
5.2551838976377949
21
1.8848959842519684
0
LINE
8
BLACK
6
CONTINUOUS
10
5.3132547637795273
20
1.905183622047244
11
5.3164479133858267
21
1.9030500393700787
0
LINE
8
BLACK
6
CONTINUOUS
10
5.3164479133858267
20
1.9030500393700787
11
5.3185814960629916
21
1.8998568897637795
0
LINE
8
BLACK
6
CONTINUOUS
10
5.3185814960629916
20
1.8998568897637795
11
5.3193307086614174
21
1.8960903149606299
0
LINE
8
BLACK
6
CONTINUOUS
10
5.3193307086614174
20
1.8960903149606299
11
5.3193307086614174
21
1.8803422834645669
0
LINE
8
BLACK
6
CONTINUOUS
10
5.3193307086614174
20
1.8803422834645669
11
5.3185814960629916
21
1.8765757086614172
0
LINE
8
BLACK
6
CONTINUOUS
10
5.3185814960629916
20
1.8765757086614172
11
5.3164479133858267
21
1.8733825590551181
0
LINE
8
BLACK
6
CONTINUOUS
10
5.3164479133858267
20
1.8733825590551181
11
5.3132547637795273
21
1.8712489763779527
0
LINE
8
BLACK
6
CONTINUOUS
10
5.3132547637795273
20
1.8712489763779527
11
5.3094881889763776
21
1.8704997637795275
0
LINE
8
BLACK
6
CONTINUOUS
10
5.3094881889763776
20
1.8704997637795275
11
5.2898031496062989
21
1.8704997637795275
0
LINE
8
BLACK
6
CONTINUOUS
10
5.2898031496062989
20
1.8704997637795275
11
5.2860365748031493
21
1.8712489763779527
0
LINE
8
BLACK
6
CONTINUOUS
10
5.2860365748031493
20
1.8712489763779527
11
5.2828434251968499
21
1.8733825590551181
0
LINE
8
BLACK
6
CONTINUOUS
10
5.2828434251968499
20
1.8733825590551181
11
5.280709842519685
21
1.8765757086614172
0
LINE
8
BLACK
6
CONTINUOUS
10
5.280709842519685
20
1.8765757086614172
11
5.27996062992126
21
1.8803422834645669
0
LINE
8
BLACK
6
CONTINUOUS
10
5.27996062992126
20
1.8803422834645669
11
5.27996062992126
21
1.8960903149606299
0
LINE
8
BLACK
6
CONTINUOUS
10
5.27996062992126
20
1.8960903149606299
11
5.280709842519685
21
1.8998568897637795
0
LINE
8
BLACK
6
CONTINUOUS
10
5.280709842519685
20
1.8998568897637795
11
5.2828434251968499
21
1.9030500393700787
0
LINE
8
BLACK
6
CONTINUOUS
10
5.2828434251968499
20
1.9030500393700787
11
5.2860365748031493
21
1.905183622047244
0
LINE
8
BLACK
6
CONTINUOUS
10
5.2860365748031493
20
1.905183622047244
11
5.2898031496062989
21
1.9059328346456692
0
LINE
8
BLACK
6
CONTINUOUS
10
5.2898031496062989
20
1.9059328346456692
11
5.3094881889763776
21
1.9059328346456692
0
LINE
8
BLACK
6
CONTINUOUS
10
5.3094881889763776
20
1.9059328346456692
11
5.3132547637795273
21
1.905183622047244
0
LINE
8
BLACK
6
CONTINUOUS
10
5.1823492519685042
20
1.9616676377952755
11
5.1855424015748026
21
1.9595340551181102
0
LINE
8
BLACK
6
CONTINUOUS
10
5.1855424015748026
20
1.9595340551181102
11
5.1876759842519684
21
1.9563409055118111
0
LINE
8
BLACK
6
CONTINUOUS
10
5.1876759842519684
20
1.9563409055118111
11
5.1884251968503934
21
1.9525743307086614
0
LINE
8
BLACK
6
CONTINUOUS
10
5.1884251968503934
20
1.9525743307086614
11
5.1884251968503934
21
1.9171412598425197
0
LINE
8
BLACK
6
CONTINUOUS
10
5.1884251968503934
20
1.9171412598425197
11
5.1876759842519684
21
1.91337468503937
0
LINE
8
BLACK
6
CONTINUOUS
10
5.1876759842519684
20
1.91337468503937
11
5.1855424015748026
21
1.9101815354330709
0
LINE
8
BLACK
6
CONTINUOUS
10
5.1855424015748026
20
1.9101815354330709
11
5.1823492519685042
21
1.9080479527559056
0
LINE
8
BLACK
6
CONTINUOUS
10
5.1823492519685042
20
1.9080479527559056
11
5.1785826771653545
21
1.9072987401574804
0
LINE
8
BLACK
6
CONTINUOUS
10
5.1785826771653545
20
1.9072987401574804
11
5.1579133858267712
21
1.9072987401574804
0
LINE
8
BLACK
6
CONTINUOUS
10
5.1579133858267712
20
1.9072987401574804
11
5.1541468110236215
21
1.9080479527559056
0
LINE
8
BLACK
6
CONTINUOUS
10
5.1541468110236215
20
1.9080479527559056
11
5.150953661417323
21
1.9101815354330709
0
LINE
8
BLACK
6
CONTINUOUS
10
5.150953661417323
20
1.9101815354330709
11
5.1488200787401572
21
1.91337468503937
0
LINE
8
BLACK
6
CONTINUOUS
10
5.1488200787401572
20
1.91337468503937
11
5.1480708661417323
21
1.9171412598425197
0
LINE
8
BLACK
6
CONTINUOUS
10
5.1480708661417323
20
1.9171412598425197
11
5.1480708661417323
21
1.9525743307086614
0
LINE
8
BLACK
6
CONTINUOUS
10
5.1480708661417323
20
1.9525743307086614
11
5.1488200787401572
21
1.9563409055118111
0
LINE
8
BLACK
6
CONTINUOUS
10
5.1488200787401572
20
1.9563409055118111
11
5.150953661417323
21
1.9595340551181102
0
LINE
8
BLACK
6
CONTINUOUS
10
5.150953661417323
20
1.9595340551181102
11
5.1541468110236215
21
1.9616676377952755
0
LINE
8
BLACK
6
CONTINUOUS
10
5.1541468110236215
20
1.9616676377952755
11
5.1579133858267712
21
1.9624168503937007
0
LINE
8
BLACK
6
CONTINUOUS
10
5.1579133858267712
20
1.9624168503937007
11
5.1785826771653545
21
1.9624168503937007
0
LINE
8
BLACK
6
CONTINUOUS
10
5.1785826771653545
20
1.9624168503937007
11
5.1823492519685042
21
1.9616676377952755
0
LINE
8
BLACK
6
CONTINUOUS
10
5.2541996456692912
20
1.9616676377952755
11
5.2573927952755906
21
1.9595340551181102
0
LINE
8
BLACK
6
CONTINUOUS
10
5.2573927952755906
20
1.9595340551181102
11
5.2595263779527555
21
1.9563409055118111
0
LINE
8
BLACK
6
CONTINUOUS
10
5.2595263779527555
20
1.9563409055118111
11
5.2602755905511813
21
1.9525743307086614
0
LINE
8
BLACK
6
CONTINUOUS
10
5.2602755905511813
20
1.9525743307086614
11
5.2602755905511813
21
1.9171412598425197
0
LINE
8
BLACK
6
CONTINUOUS
10
5.2602755905511813
20
1.9171412598425197
11
5.2595263779527555
21
1.91337468503937
0
LINE
8
BLACK
6
CONTINUOUS
10
5.2595263779527555
20
1.91337468503937
11
5.2573927952755906
21
1.9101815354330709
0
LINE
8
BLACK
6
CONTINUOUS
10
5.2573927952755906
20
1.9101815354330709
11
5.2541996456692912
21
1.9080479527559056
0
LINE
8
BLACK
6
CONTINUOUS
10
5.2541996456692912
20
1.9080479527559056
11
5.2504330708661415
21
1.9072987401574804
0
LINE
8
BLACK
6
CONTINUOUS
10
5.2504330708661415
20
1.9072987401574804
11
5.2297637795275591
21
1.9072987401574804
0
LINE
8
BLACK
6
CONTINUOUS
10
5.2297637795275591
20
1.9072987401574804
11
5.2259972047244094
21
1.9080479527559056
0
LINE
8
BLACK
6
CONTINUOUS
10
5.2259972047244094
20
1.9080479527559056
11
5.2228040551181101
21
1.9101815354330709
0
LINE
8
BLACK
6
CONTINUOUS
10
5.2228040551181101
20
1.9101815354330709
11
5.2206704724409452
21
1.91337468503937
0
LINE
8
BLACK
6
CONTINUOUS
10
5.2206704724409452
20
1.91337468503937
11
5.2199212598425193
21
1.9171412598425197
0
LINE
8
BLACK
6
CONTINUOUS
10
5.2199212598425193
20
1.9171412598425197
11
5.2199212598425193
21
1.9525743307086614
0
LINE
8
BLACK
6
CONTINUOUS
10
5.2199212598425193
20
1.9525743307086614
11
5.2206704724409452
21
1.9563409055118111
0
LINE
8
BLACK
6
CONTINUOUS
10
5.2206704724409452
20
1.9563409055118111
11
5.2228040551181101
21
1.9595340551181102
0
LINE
8
BLACK
6
CONTINUOUS
10
5.2228040551181101
20
1.9595340551181102
11
5.2259972047244094
21
1.9616676377952755
0
LINE
8
BLACK
6
CONTINUOUS
10
5.2259972047244094
20
1.9616676377952755
11
5.2297637795275591
21
1.9624168503937007
0
LINE
8
BLACK
6
CONTINUOUS
10
5.2297637795275591
20
1.9624168503937007
11
5.2504330708661415
21
1.9624168503937007
0
LINE
8
BLACK
6
CONTINUOUS
10
5.2504330708661415
20
1.9624168503937007
11
5.2541996456692912
21
1.9616676377952755
0
LINE
8
BLACK
6
CONTINUOUS
10
5.3132547637795273
20
1.9511421653543306
11
5.3164479133858267
21
1.9490085826771653
0
LINE
8
BLACK
6
CONTINUOUS
10
5.3164479133858267
20
1.9490085826771653
11
5.3185814960629916
21
1.9458154330708661
0
LINE
8
BLACK
6
CONTINUOUS
10
5.3185814960629916
20
1.9458154330708661
11
5.3193307086614174
21
1.9420488582677164
0
LINE
8
BLACK
6
CONTINUOUS
10
5.3193307086614174
20
1.9420488582677164
11
5.3193307086614174
21
1.9263008267716535
0
LINE
8
BLACK
6
CONTINUOUS
10
5.3193307086614174
20
1.9263008267716535
11
5.3185814960629916
21
1.9225342519685038
0
LINE
8
BLACK
6
CONTINUOUS
10
5.3185814960629916
20
1.9225342519685038
11
5.3164479133858267
21
1.9193411023622047
0
LINE
8
BLACK
6
CONTINUOUS
10
5.3164479133858267
20
1.9193411023622047
11
5.3132547637795273
21
1.9172075196850393
0
LINE
8
BLACK
6
CONTINUOUS
10
5.3132547637795273
20
1.9172075196850393
11
5.3094881889763776
21
1.9164583070866141
0
LINE
8
BLACK
6
CONTINUOUS
10
5.3094881889763776
20
1.9164583070866141
11
5.2898031496062989
21
1.9164583070866141
0
LINE
8
BLACK
6
CONTINUOUS
10
5.2898031496062989
20
1.9164583070866141
11
5.2860365748031493
21
1.9172075196850393
0
LINE
8
BLACK
6
CONTINUOUS
10
5.2860365748031493
20
1.9172075196850393
11
5.2828434251968499
21
1.9193411023622047
0
LINE
8
BLACK
6
CONTINUOUS
10
5.2828434251968499
20
1.9193411023622047
11
5.280709842519685
21
1.9225342519685038
0
LINE
8
BLACK
6
CONTINUOUS
10
5.280709842519685
20
1.9225342519685038
11
5.27996062992126
21
1.9263008267716535
0
LINE
8
BLACK
6
CONTINUOUS
10
5.27996062992126
20
1.9263008267716535
11
5.27996062992126
21
1.9420488582677164
0
LINE
8
BLACK
6
CONTINUOUS
10
5.27996062992126
20
1.9420488582677164
11
5.280709842519685
21
1.9458154330708661
0
LINE
8
BLACK
6
CONTINUOUS
10
5.280709842519685
20
1.9458154330708661
11
5.2828434251968499
21
1.9490085826771653
0
LINE
8
BLACK
6
CONTINUOUS
10
5.2828434251968499
20
1.9490085826771653
11
5.2860365748031493
21
1.9511421653543306
0
LINE
8
BLACK
6
CONTINUOUS
10
5.2860365748031493
20
1.9511421653543306
11
5.2898031496062989
21
1.9518913779527558
0
LINE
8
BLACK
6
CONTINUOUS
10
5.2898031496062989
20
1.9518913779527558
11
5.3094881889763776
21
1.9518913779527558
0
LINE
8
BLACK
6
CONTINUOUS
10
5.3094881889763776
20
1.9518913779527558
11
5.3132547637795273
21
1.9511421653543306
0
LINE
8
BLACK
6
CONTINUOUS
10
5.3132547637795273
20
2.0141342913385825
11
5.3164479133858267
21
2.0120007086614171
0
LINE
8
BLACK
6
CONTINUOUS
10
5.3164479133858267
20
2.0120007086614171
11
5.3185814960629916
21
2.0088075590551182
0
LINE
8
BLACK
6
CONTINUOUS
10
5.3185814960629916
20
2.0088075590551182
11
5.3193307086614174
21
2.0050409842519685
0
LINE
8
BLACK
6
CONTINUOUS
10
5.3193307086614174
20
2.0050409842519685
11
5.3193307086614174
21
1.9892929527559056
0
LINE
8
BLACK
6
CONTINUOUS
10
5.3193307086614174
20
1.9892929527559056
11
5.3185814960629916
21
1.9855263779527559
0
LINE
8
BLACK
6
CONTINUOUS
10
5.3185814960629916
20
1.9855263779527559
11
5.3164479133858267
21
1.9823332283464568
0
LINE
8
BLACK
6
CONTINUOUS
10
5.3164479133858267
20
1.9823332283464568
11
5.3132547637795273
21
1.9801996456692912
0
LINE
8
BLACK
6
CONTINUOUS
10
5.3132547637795273
20
1.9801996456692912
11
5.3094881889763776
21
1.979450433070866
0
LINE
8
BLACK
6
CONTINUOUS
10
5.3094881889763776
20
1.979450433070866
11
5.2898031496062989
21
1.979450433070866
0
LINE
8
BLACK
6
CONTINUOUS
10
5.2898031496062989
20
1.979450433070866
11
5.2860365748031493
21
1.9801996456692912
0
LINE
8
BLACK
6
CONTINUOUS
10
5.2860365748031493
20
1.9801996456692912
11
5.2828434251968499
21
1.9823332283464568
0
LINE
8
BLACK
6
CONTINUOUS
10
5.2828434251968499
20
1.9823332283464568
11
5.280709842519685
21
1.9855263779527559
0
LINE
8
BLACK
6
CONTINUOUS
10
5.280709842519685
20
1.9855263779527559
11
5.27996062992126
21
1.9892929527559056
0
LINE
8
BLACK
6
CONTINUOUS
10
5.27996062992126
20
1.9892929527559056
11
5.27996062992126
21
2.0050409842519685
0
LINE
8
BLACK
6
CONTINUOUS
10
5.27996062992126
20
2.0050409842519685
11
5.280709842519685
21
2.0088075590551182
0
LINE
8
BLACK
6
CONTINUOUS
10
5.280709842519685
20
2.0088075590551182
11
5.2828434251968499
21
2.0120007086614171
0
LINE
8
BLACK
6
CONTINUOUS
10
5.2828434251968499
20
2.0120007086614171
11
5.2860365748031493
21
2.0141342913385825
0
LINE
8
BLACK
6
CONTINUOUS
10
5.2860365748031493
20
2.0141342913385825
11
5.2898031496062989
21
2.0148835039370079
0
LINE
8
BLACK
6
CONTINUOUS
10
5.2898031496062989
20
2.0148835039370079
11
5.3094881889763776
21
2.0148835039370079
0
LINE
8
BLACK
6
CONTINUOUS
10
5.3094881889763776
20
2.0148835039370079
11
5.3132547637795273
21
2.0141342913385825
0
LINE
8
BLACK
6
CONTINUOUS
10
5.3132547637795273
20
2.0600928346456691
11
5.3164479133858267
21
2.0579592519685037
0
LINE
8
BLACK
6
CONTINUOUS
10
5.3164479133858267
20
2.0579592519685037
11
5.3185814960629916
21
2.0547661023622048
0
LINE
8
BLACK
6
CONTINUOUS
10
5.3185814960629916
20
2.0547661023622048
11
5.3193307086614174
21
2.0509995275590551
0
LINE
8
BLACK
6
CONTINUOUS
10
5.3193307086614174
20
2.0509995275590551
11
5.3193307086614174
21
2.0352514960629922
0
LINE
8
BLACK
6
CONTINUOUS
10
5.3193307086614174
20
2.0352514960629922
11
5.3185814960629916
21
2.0314849212598425
0
LINE
8
BLACK
6
CONTINUOUS
10
5.3185814960629916
20
2.0314849212598425
11
5.3164479133858267
21
2.0282917716535431
0
LINE
8
BLACK
6
CONTINUOUS
10
5.3164479133858267
20
2.0282917716535431
11
5.3132547637795273
21
2.0261581889763778
0
LINE
8
BLACK
6
CONTINUOUS
10
5.3132547637795273
20
2.0261581889763778
11
5.3094881889763776
21
2.0254089763779528
0
LINE
8
BLACK
6
CONTINUOUS
10
5.3094881889763776
20
2.0254089763779528
11
5.2898031496062989
21
2.0254089763779528
0
LINE
8
BLACK
6
CONTINUOUS
10
5.2898031496062989
20
2.0254089763779528
11
5.2860365748031493
21
2.0261581889763778
0
LINE
8
BLACK
6
CONTINUOUS
10
5.2860365748031493
20
2.0261581889763778
11
5.2828434251968499
21
2.0282917716535431
0
LINE
8
BLACK
6
CONTINUOUS
10
5.2828434251968499
20
2.0282917716535431
11
5.280709842519685
21
2.0314849212598425
0
LINE
8
BLACK
6
CONTINUOUS
10
5.280709842519685
20
2.0314849212598425
11
5.27996062992126
21
2.0352514960629922
0
LINE
8
BLACK
6
CONTINUOUS
10
5.27996062992126
20
2.0352514960629922
11
5.27996062992126
21
2.0509995275590551
0
LINE
8
BLACK
6
CONTINUOUS
10
5.27996062992126
20
2.0509995275590551
11
5.280709842519685
21
2.0547661023622048
0
LINE
8
BLACK
6
CONTINUOUS
10
5.280709842519685
20
2.0547661023622048
11
5.2828434251968499
21
2.0579592519685037
0
LINE
8
BLACK
6
CONTINUOUS
10
5.2828434251968499
20
2.0579592519685037
11
5.2860365748031493
21
2.0600928346456691
0
LINE
8
BLACK
6
CONTINUOUS
10
5.2860365748031493
20
2.0600928346456691
11
5.2898031496062989
21
2.0608420472440945
0
LINE
8
BLACK
6
CONTINUOUS
10
5.2898031496062989
20
2.0608420472440945
11
5.3094881889763776
21
2.0608420472440945
0
LINE
8
BLACK
6
CONTINUOUS
10
5.3094881889763776
20
2.0608420472440945
11
5.3132547637795273
21
2.0600928346456691
0
LINE
8
BLACK
6
CONTINUOUS
10
5.3132547637795273
20
2.1230849606299214
11
5.3164479133858267
21
2.120951377952756
0
LINE
8
BLACK
6
CONTINUOUS
10
5.3164479133858267
20
2.120951377952756
11
5.3185814960629916
21
2.1177582283464567
0
LINE
8
BLACK
6
CONTINUOUS
10
5.3185814960629916
20
2.1177582283464567
11
5.3193307086614174
21
2.113991653543307
0
LINE
8
BLACK
6
CONTINUOUS
10
5.3193307086614174
20
2.113991653543307
11
5.3193307086614174
21
2.098243622047244
0
LINE
8
BLACK
6
CONTINUOUS
10
5.3193307086614174
20
2.098243622047244
11
5.3185814960629916
21
2.0944770472440943
0
LINE
8
BLACK
6
CONTINUOUS
10
5.3185814960629916
20
2.0944770472440943
11
5.3164479133858267
21
2.0912838976377954
0
LINE
8
BLACK
6
CONTINUOUS
10
5.3164479133858267
20
2.0912838976377954
11
5.3132547637795273
21
2.0891503149606301
0
LINE
8
BLACK
6
CONTINUOUS
10
5.3132547637795273
20
2.0891503149606301
11
5.3094881889763776
21
2.0884011023622047
0
LINE
8
BLACK
6
CONTINUOUS
10
5.3094881889763776
20
2.0884011023622047
11
5.2898031496062989
21
2.0884011023622047
0
LINE
8
BLACK
6
CONTINUOUS
10
5.2898031496062989
20
2.0884011023622047
11
5.2860365748031493
21
2.0891503149606301
0
LINE
8
BLACK
6
CONTINUOUS
10
5.2860365748031493
20
2.0891503149606301
11
5.2828434251968499
21
2.0912838976377954
0
LINE
8
BLACK
6
CONTINUOUS
10
5.2828434251968499
20
2.0912838976377954
11
5.280709842519685
21
2.0944770472440943
0
LINE
8
BLACK
6
CONTINUOUS
10
5.280709842519685
20
2.0944770472440943
11
5.27996062992126
21
2.098243622047244
0
LINE
8
BLACK
6
CONTINUOUS
10
5.27996062992126
20
2.098243622047244
11
5.27996062992126
21
2.113991653543307
0
LINE
8
BLACK
6
CONTINUOUS
10
5.27996062992126
20
2.113991653543307
11
5.280709842519685
21
2.1177582283464567
0
LINE
8
BLACK
6
CONTINUOUS
10
5.280709842519685
20
2.1177582283464567
11
5.2828434251968499
21
2.120951377952756
0
LINE
8
BLACK
6
CONTINUOUS
10
5.2828434251968499
20
2.120951377952756
11
5.2860365748031493
21
2.1230849606299214
0
LINE
8
BLACK
6
CONTINUOUS
10
5.2860365748031493
20
2.1230849606299214
11
5.2898031496062989
21
2.1238341732283463
0
LINE
8
BLACK
6
CONTINUOUS
10
5.2898031496062989
20
2.1238341732283463
11
5.3094881889763776
21
2.1238341732283463
0
LINE
8
BLACK
6
CONTINUOUS
10
5.3094881889763776
20
2.1238341732283463
11
5.3132547637795273
21
2.1230849606299214
0
LINE
8
BLACK
6
CONTINUOUS
10
5.3132547637795273
20
2.169043503937008
11
5.3164479133858267
21
2.1669099212598426
0
LINE
8
BLACK
6
CONTINUOUS
10
5.3164479133858267
20
2.1669099212598426
11
5.3185814960629916
21
2.1637167716535433
0
LINE
8
BLACK
6
CONTINUOUS
10
5.3185814960629916
20
2.1637167716535433
11
5.3193307086614174
21
2.1599501968503936
0
LINE
8
BLACK
6
CONTINUOUS
10
5.3193307086614174
20
2.1599501968503936
11
5.3193307086614174
21
2.1442021653543306
0
LINE
8
BLACK
6
CONTINUOUS
10
5.3193307086614174
20
2.1442021653543306
11
5.3185814960629916
21
2.1404355905511809
0
LINE
8
BLACK
6
CONTINUOUS
10
5.3185814960629916
20
2.1404355905511809
11
5.3164479133858267
21
2.137242440944882
0
LINE
8
BLACK
6
CONTINUOUS
10
5.3164479133858267
20
2.137242440944882
11
5.3132547637795273
21
2.1351088582677167
0
LINE
8
BLACK
6
CONTINUOUS
10
5.3132547637795273
20
2.1351088582677167
11
5.3094881889763776
21
2.1343596456692913
0
LINE
8
BLACK
6
CONTINUOUS
10
5.3094881889763776
20
2.1343596456692913
11
5.2898031496062989
21
2.1343596456692913
0
LINE
8
BLACK
6
CONTINUOUS
10
5.2898031496062989
20
2.1343596456692913
11
5.2860365748031493
21
2.1351088582677167
0
LINE
8
BLACK
6
CONTINUOUS
10
5.2860365748031493
20
2.1351088582677167
11
5.2828434251968499
21
2.137242440944882
0
LINE
8
BLACK
6
CONTINUOUS
10
5.2828434251968499
20
2.137242440944882
11
5.280709842519685
21
2.1404355905511809
0
LINE
8
BLACK
6
CONTINUOUS
10
5.280709842519685
20
2.1404355905511809
11
5.27996062992126
21
2.1442021653543306
0
LINE
8
BLACK
6
CONTINUOUS
10
5.27996062992126
20
2.1442021653543306
11
5.27996062992126
21
2.1599501968503936
0
LINE
8
BLACK
6
CONTINUOUS
10
5.27996062992126
20
2.1599501968503936
11
5.280709842519685
21
2.1637167716535433
0
LINE
8
BLACK
6
CONTINUOUS
10
5.280709842519685
20
2.1637167716535433
11
5.2828434251968499
21
2.1669099212598426
0
LINE
8
BLACK
6
CONTINUOUS
10
5.2828434251968499
20
2.1669099212598426
11
5.2860365748031493
21
2.169043503937008
0
LINE
8
BLACK
6
CONTINUOUS
10
5.2860365748031493
20
2.169043503937008
11
5.2898031496062989
21
2.1697927165354329
0
LINE
8
BLACK
6
CONTINUOUS
10
5.2898031496062989
20
2.1697927165354329
11
5.3094881889763776
21
2.1697927165354329
0
LINE
8
BLACK
6
CONTINUOUS
10
5.3094881889763776
20
2.1697927165354329
11
5.3132547637795273
21
2.169043503937008
0
LINE
8
BLACK
6
CONTINUOUS
10
5.1823492519685042
20
2.2077306299212598
11
5.1855424015748026
21
2.2055970472440944
0
LINE
8
BLACK
6
CONTINUOUS
10
5.1855424015748026
20
2.2055970472440944
11
5.1876759842519684
21
2.2024038976377951
0
LINE
8
BLACK
6
CONTINUOUS
10
5.1876759842519684
20
2.2024038976377951
11
5.1884251968503934
21
2.1986373228346454
0
LINE
8
BLACK
6
CONTINUOUS
10
5.1884251968503934
20
2.1986373228346454
11
5.1884251968503934
21
2.1632042519685037
0
LINE
8
BLACK
6
CONTINUOUS
10
5.1884251968503934
20
2.1632042519685037
11
5.1876759842519684
21
2.1594376771653541
0
LINE
8
BLACK
6
CONTINUOUS
10
5.1876759842519684
20
2.1594376771653541
11
5.1855424015748026
21
2.1562445275590552
0
LINE
8
BLACK
6
CONTINUOUS
10
5.1855424015748026
20
2.1562445275590552
11
5.1823492519685042
21
2.1541109448818898
0
LINE
8
BLACK
6
CONTINUOUS
10
5.1823492519685042
20
2.1541109448818898
11
5.1785826771653545
21
2.1533617322834644
0
LINE
8
BLACK
6
CONTINUOUS
10
5.1785826771653545
20
2.1533617322834644
11
5.1579133858267712
21
2.1533617322834644
0
LINE
8
BLACK
6
CONTINUOUS
10
5.1579133858267712
20
2.1533617322834644
11
5.1541468110236215
21
2.1541109448818898
0
LINE
8
BLACK
6
CONTINUOUS
10
5.1541468110236215
20
2.1541109448818898
11
5.150953661417323
21
2.1562445275590552
0
LINE
8
BLACK
6
CONTINUOUS
10
5.150953661417323
20
2.1562445275590552
11
5.1488200787401572
21
2.1594376771653541
0
LINE
8
BLACK
6
CONTINUOUS
10
5.1488200787401572
20
2.1594376771653541
11
5.1480708661417323
21
2.1632042519685037
0
LINE
8
BLACK
6
CONTINUOUS
10
5.1480708661417323
20
2.1632042519685037
11
5.1480708661417323
21
2.1986373228346454
0
LINE
8
BLACK
6
CONTINUOUS
10
5.1480708661417323
20
2.1986373228346454
11
5.1488200787401572
21
2.2024038976377951
0
LINE
8
BLACK
6
CONTINUOUS
10
5.1488200787401572
20
2.2024038976377951
11
5.150953661417323
21
2.2055970472440944
0
LINE
8
BLACK
6
CONTINUOUS
10
5.150953661417323
20
2.2055970472440944
11
5.1541468110236215
21
2.2077306299212598
0
LINE
8
BLACK
6
CONTINUOUS
10
5.1541468110236215
20
2.2077306299212598
11
5.1579133858267712
21
2.2084798425196852
0
LINE
8
BLACK
6
CONTINUOUS
10
5.1579133858267712
20
2.2084798425196852
11
5.1785826771653545
21
2.2084798425196852
0
LINE
8
BLACK
6
CONTINUOUS
10
5.1785826771653545
20
2.2084798425196852
11
5.1823492519685042
21
2.2077306299212598
0
LINE
8
BLACK
6
CONTINUOUS
10
5.2541996456692912
20
2.2077306299212598
11
5.2573927952755906
21
2.2055970472440944
0
LINE
8
BLACK
6
CONTINUOUS
10
5.2573927952755906
20
2.2055970472440944
11
5.2595263779527555
21
2.2024038976377951
0
LINE
8
BLACK
6
CONTINUOUS
10
5.2595263779527555
20
2.2024038976377951
11
5.2602755905511813
21
2.1986373228346454
0
LINE
8
BLACK
6
CONTINUOUS
10
5.2602755905511813
20
2.1986373228346454
11
5.2602755905511813
21
2.1632042519685037
0
LINE
8
BLACK
6
CONTINUOUS
10
5.2602755905511813
20
2.1632042519685037
11
5.2595263779527555
21
2.1594376771653541
0
LINE
8
BLACK
6
CONTINUOUS
10
5.2595263779527555
20
2.1594376771653541
11
5.2573927952755906
21
2.1562445275590552
0
LINE
8
BLACK
6
CONTINUOUS
10
5.2573927952755906
20
2.1562445275590552
11
5.2541996456692912
21
2.1541109448818898
0
LINE
8
BLACK
6
CONTINUOUS
10
5.2541996456692912
20
2.1541109448818898
11
5.2504330708661415
21
2.1533617322834644
0
LINE
8
BLACK
6
CONTINUOUS
10
5.2504330708661415
20
2.1533617322834644
11
5.2297637795275591
21
2.1533617322834644
0
LINE
8
BLACK
6
CONTINUOUS
10
5.2297637795275591
20
2.1533617322834644
11
5.2259972047244094
21
2.1541109448818898
0
LINE
8
BLACK
6
CONTINUOUS
10
5.2259972047244094
20
2.1541109448818898
11
5.2228040551181101
21
2.1562445275590552
0
LINE
8
BLACK
6
CONTINUOUS
10
5.2228040551181101
20
2.1562445275590552
11
5.2206704724409452
21
2.1594376771653541
0
LINE
8
BLACK
6
CONTINUOUS
10
5.2206704724409452
20
2.1594376771653541
11
5.2199212598425193
21
2.1632042519685037
0
LINE
8
BLACK
6
CONTINUOUS
10
5.2199212598425193
20
2.1632042519685037
11
5.2199212598425193
21
2.1986373228346454
0
LINE
8
BLACK
6
CONTINUOUS
10
5.2199212598425193
20
2.1986373228346454
11
5.2206704724409452
21
2.2024038976377951
0
LINE
8
BLACK
6
CONTINUOUS
10
5.2206704724409452
20
2.2024038976377951
11
5.2228040551181101
21
2.2055970472440944
0
LINE
8
BLACK
6
CONTINUOUS
10
5.2228040551181101
20
2.2055970472440944
11
5.2259972047244094
21
2.2077306299212598
0
LINE
8
BLACK
6
CONTINUOUS
10
5.2259972047244094
20
2.2077306299212598
11
5.2297637795275591
21
2.2084798425196852
0
LINE
8
BLACK
6
CONTINUOUS
10
5.2297637795275591
20
2.2084798425196852
11
5.2504330708661415
21
2.2084798425196852
0
LINE
8
BLACK
6
CONTINUOUS
10
5.2504330708661415
20
2.2084798425196852
11
5.2541996456692912
21
2.2077306299212598
0
LINE
8
BLACK
6
CONTINUOUS
10
5.3132547637795273
20
2.2320356299212598
11
5.3164479133858267
21
2.2299020472440945
0
LINE
8
BLACK
6
CONTINUOUS
10
5.3164479133858267
20
2.2299020472440945
11
5.3185814960629916
21
2.2267088976377951
0
LINE
8
BLACK
6
CONTINUOUS
10
5.3185814960629916
20
2.2267088976377951
11
5.3193307086614174
21
2.2229423228346454
0
LINE
8
BLACK
6
CONTINUOUS
10
5.3193307086614174
20
2.2229423228346454
11
5.3193307086614174
21
2.2071942913385825
0
LINE
8
BLACK
6
CONTINUOUS
10
5.3193307086614174
20
2.2071942913385825
11
5.3185814960629916
21
2.2034277165354332
0
LINE
8
BLACK
6
CONTINUOUS
10
5.3185814960629916
20
2.2034277165354332
11
5.3164479133858267
21
2.2002345669291339
0
LINE
8
BLACK
6
CONTINUOUS
10
5.3164479133858267
20
2.2002345669291339
11
5.3132547637795273
21
2.1981009842519685
0
LINE
8
BLACK
6
CONTINUOUS
10
5.3132547637795273
20
2.1981009842519685
11
5.3094881889763776
21
2.1973517716535431
0
LINE
8
BLACK
6
CONTINUOUS
10
5.3094881889763776
20
2.1973517716535431
11
5.2898031496062989
21
2.1973517716535431
0
LINE
8
BLACK
6
CONTINUOUS
10
5.2898031496062989
20
2.1973517716535431
11
5.2860365748031493
21
2.1981009842519685
0
LINE
8
BLACK
6
CONTINUOUS
10
5.2860365748031493
20
2.1981009842519685
11
5.2828434251968499
21
2.2002345669291339
0
LINE
8
BLACK
6
CONTINUOUS
10
5.2828434251968499
20
2.2002345669291339
11
5.280709842519685
21
2.2034277165354332
0
LINE
8
BLACK
6
CONTINUOUS
10
5.280709842519685
20
2.2034277165354332
11
5.27996062992126
21
2.2071942913385825
0
LINE
8
BLACK
6
CONTINUOUS
10
5.27996062992126
20
2.2071942913385825
11
5.27996062992126
21
2.2229423228346454
0
LINE
8
BLACK
6
CONTINUOUS
10
5.27996062992126
20
2.2229423228346454
11
5.280709842519685
21
2.2267088976377951
0
LINE
8
BLACK
6
CONTINUOUS
10
5.280709842519685
20
2.2267088976377951
11
5.2828434251968499
21
2.2299020472440945
0
LINE
8
BLACK
6
CONTINUOUS
10
5.2828434251968499
20
2.2299020472440945
11
5.2860365748031493
21
2.2320356299212598
0
LINE
8
BLACK
6
CONTINUOUS
10
5.2860365748031493
20
2.2320356299212598
11
5.2898031496062989
21
2.2327848425196848
0
LINE
8
BLACK
6
CONTINUOUS
10
5.2898031496062989
20
2.2327848425196848
11
5.3094881889763776
21
2.2327848425196848
0
LINE
8
BLACK
6
CONTINUOUS
10
5.3094881889763776
20
2.2327848425196848
11
5.3132547637795273
21
2.2320356299212598
0
LINE
8
BLACK
6
CONTINUOUS
10
5.182841377952756
20
2.283518031496063
11
5.1860345275590554
21
2.2813844488188977
0
LINE
8
BLACK
6
CONTINUOUS
10
5.1860345275590554
20
2.2813844488188977
11
5.1881681102362203
21
2.2781912992125983
0
LINE
8
BLACK
6
CONTINUOUS
10
5.1881681102362203
20
2.2781912992125983
11
5.1889173228346452
21
2.2744247244094487
0
LINE
8
BLACK
6
CONTINUOUS
10
5.1889173228346452
20
2.2744247244094487
11
5.1889173228346452
21
2.238991653543307
0
LINE
8
BLACK
6
CONTINUOUS
10
5.1889173228346452
20
2.238991653543307
11
5.1881681102362203
21
2.2352250787401573
0
LINE
8
BLACK
6
CONTINUOUS
10
5.1881681102362203
20
2.2352250787401573
11
5.1860345275590554
21
2.2320319291338584
0
LINE
8
BLACK
6
CONTINUOUS
10
5.1860345275590554
20
2.2320319291338584
11
5.182841377952756
21
2.229898346456693
0
LINE
8
BLACK
6
CONTINUOUS
10
5.182841377952756
20
2.229898346456693
11
5.1790748031496063
21
2.2291491338582676
0
LINE
8
BLACK
6
CONTINUOUS
10
5.1790748031496063
20
2.2291491338582676
11
5.1584055118110239
21
2.2291491338582676
0
LINE
8
BLACK
6
CONTINUOUS
10
5.1584055118110239
20
2.2291491338582676
11
5.1546389370078742
21
2.229898346456693
0
LINE
8
BLACK
6
CONTINUOUS
10
5.1546389370078742
20
2.229898346456693
11
5.1514457874015749
21
2.2320319291338584
0
LINE
8
BLACK
6
CONTINUOUS
10
5.1514457874015749
20
2.2320319291338584
11
5.1493122047244091
21
2.2352250787401573
0
LINE
8
BLACK
6
CONTINUOUS
10
5.1493122047244091
20
2.2352250787401573
11
5.1485629921259841
21
2.238991653543307
0
LINE
8
BLACK
6
CONTINUOUS
10
5.1485629921259841
20
2.238991653543307
11
5.1485629921259841
21
2.2744247244094487
0
LINE
8
BLACK
6
CONTINUOUS
10
5.1485629921259841
20
2.2744247244094487
11
5.1493122047244091
21
2.2781912992125983
0
LINE
8
BLACK
6
CONTINUOUS
10
5.1493122047244091
20
2.2781912992125983
11
5.1514457874015749
21
2.2813844488188977
0
LINE
8
BLACK
6
CONTINUOUS
10
5.1514457874015749
20
2.2813844488188977
11
5.1546389370078742
21
2.283518031496063
0
LINE
8
BLACK
6
CONTINUOUS
10
5.1546389370078742
20
2.283518031496063
11
5.1584055118110239
21
2.284267244094488
0
LINE
8
BLACK
6
CONTINUOUS
10
5.1584055118110239
20
2.284267244094488
11
5.1790748031496063
21
2.284267244094488
0
LINE
8
BLACK
6
CONTINUOUS
10
5.1790748031496063
20
2.284267244094488
11
5.182841377952756
21
2.283518031496063
0
LINE
8
BLACK
6
CONTINUOUS
10
5.2546917716535431
20
2.283518031496063
11
5.2578849212598424
21
2.2813844488188977
0
LINE
8
BLACK
6
CONTINUOUS
10
5.2578849212598424
20
2.2813844488188977
11
5.2600185039370073
21
2.2781912992125983
0
LINE
8
BLACK
6
CONTINUOUS
10
5.2600185039370073
20
2.2781912992125983
11
5.2607677165354332
21
2.2744247244094487
0
LINE
8
BLACK
6
CONTINUOUS
10
5.2607677165354332
20
2.2744247244094487
11
5.2607677165354332
21
2.238991653543307
0
LINE
8
BLACK
6
CONTINUOUS
10
5.2607677165354332
20
2.238991653543307
11
5.2600185039370073
21
2.2352250787401573
0
LINE
8
BLACK
6
CONTINUOUS
10
5.2600185039370073
20
2.2352250787401573
11
5.2578849212598424
21
2.2320319291338584
0
LINE
8
BLACK
6
CONTINUOUS
10
5.2578849212598424
20
2.2320319291338584
11
5.2546917716535431
21
2.229898346456693
0
LINE
8
BLACK
6
CONTINUOUS
10
5.2546917716535431
20
2.229898346456693
11
5.2509251968503934
21
2.2291491338582676
0
LINE
8
BLACK
6
CONTINUOUS
10
5.2509251968503934
20
2.2291491338582676
11
5.230255905511811
21
2.2291491338582676
0
LINE
8
BLACK
6
CONTINUOUS
10
5.230255905511811
20
2.2291491338582676
11
5.2264893307086613
21
2.229898346456693
0
LINE
8
BLACK
6
CONTINUOUS
10
5.2264893307086613
20
2.229898346456693
11
5.2232961811023619
21
2.2320319291338584
0
LINE
8
BLACK
6
CONTINUOUS
10
5.2232961811023619
20
2.2320319291338584
11
5.221162598425197
21
2.2352250787401573
0
LINE
8
BLACK
6
CONTINUOUS
10
5.221162598425197
20
2.2352250787401573
11
5.2204133858267712
21
2.238991653543307
0
LINE
8
BLACK
6
CONTINUOUS
10
5.2204133858267712
20
2.238991653543307
11
5.2204133858267712
21
2.2744247244094487
0
LINE
8
BLACK
6
CONTINUOUS
10
5.2204133858267712
20
2.2744247244094487
11
5.221162598425197
21
2.2781912992125983
0
LINE
8
BLACK
6
CONTINUOUS
10
5.221162598425197
20
2.2781912992125983
11
5.2232961811023619
21
2.2813844488188977
0
LINE
8
BLACK
6
CONTINUOUS
10
5.2232961811023619
20
2.2813844488188977
11
5.2264893307086613
21
2.283518031496063
0
LINE
8
BLACK
6
CONTINUOUS
10
5.2264893307086613
20
2.283518031496063
11
5.230255905511811
21
2.284267244094488
0
LINE
8
BLACK
6
CONTINUOUS
10
5.230255905511811
20
2.284267244094488
11
5.2509251968503934
21
2.284267244094488
0
LINE
8
BLACK
6
CONTINUOUS
10
5.2509251968503934
20
2.284267244094488
11
5.2546917716535431
21
2.283518031496063
0
LINE
8
BLACK
6
CONTINUOUS
10
5.3132547637795273
20
2.2779941732283464
11
5.3164479133858267
21
2.2758605905511811
0
LINE
8
BLACK
6
CONTINUOUS
10
5.3164479133858267
20
2.2758605905511811
11
5.3185814960629916
21
2.2726674409448817
0
LINE
8
BLACK
6
CONTINUOUS
10
5.3185814960629916
20
2.2726674409448817
11
5.3193307086614174
21
2.268900866141732
0
LINE
8
BLACK
6
CONTINUOUS
10
5.3193307086614174
20
2.268900866141732
11
5.3193307086614174
21
2.2531528346456691
0
LINE
8
BLACK
6
CONTINUOUS
10
5.3193307086614174
20
2.2531528346456691
11
5.3185814960629916
21
2.2493862598425198
0
LINE
8
BLACK
6
CONTINUOUS
10
5.3185814960629916
20
2.2493862598425198
11
5.3164479133858267
21
2.2461931102362205
0
LINE
8
BLACK
6
CONTINUOUS
10
5.3164479133858267
20
2.2461931102362205
11
5.3132547637795273
21
2.2440595275590551
0
LINE
8
BLACK
6
CONTINUOUS
10
5.3132547637795273
20
2.2440595275590551
11
5.3094881889763776
21
2.2433103149606297
0
LINE
8
BLACK
6
CONTINUOUS
10
5.3094881889763776
20
2.2433103149606297
11
5.2898031496062989
21
2.2433103149606297
0
LINE
8
BLACK
6
CONTINUOUS
10
5.2898031496062989
20
2.2433103149606297
11
5.2860365748031493
21
2.2440595275590551
0
LINE
8
BLACK
6
CONTINUOUS
10
5.2860365748031493
20
2.2440595275590551
11
5.2828434251968499
21
2.2461931102362205
0
LINE
8
BLACK
6
CONTINUOUS
10
5.2828434251968499
20
2.2461931102362205
11
5.280709842519685
21
2.2493862598425198
0
LINE
8
BLACK
6
CONTINUOUS
10
5.280709842519685
20
2.2493862598425198
11
5.27996062992126
21
2.2531528346456691
0
LINE
8
BLACK
6
CONTINUOUS
10
5.27996062992126
20
2.2531528346456691
11
5.27996062992126
21
2.268900866141732
0
LINE
8
BLACK
6
CONTINUOUS
10
5.27996062992126
20
2.268900866141732
11
5.280709842519685
21
2.2726674409448817
0
LINE
8
BLACK
6
CONTINUOUS
10
5.280709842519685
20
2.2726674409448817
11
5.2828434251968499
21
2.2758605905511811
0
LINE
8
BLACK
6
CONTINUOUS
10
5.2828434251968499
20
2.2758605905511811
11
5.2860365748031493
21
2.2779941732283464
0
LINE
8
BLACK
6
CONTINUOUS
10
5.2860365748031493
20
2.2779941732283464
11
5.2898031496062989
21
2.2787433858267714
0
LINE
8
BLACK
6
CONTINUOUS
10
5.2898031496062989
20
2.2787433858267714
11
5.3094881889763776
21
2.2787433858267714
0
LINE
8
BLACK
6
CONTINUOUS
10
5.3094881889763776
20
2.2787433858267714
11
5.3132547637795273
21
2.2779941732283464
0
LINE
8
BLACK
6
CONTINUOUS
10
5.3132547637795273
20
2.3409862992125983
11
5.3164479133858267
21
2.3388527165354329
0
LINE
8
BLACK
6
CONTINUOUS
10
5.3164479133858267
20
2.3388527165354329
11
5.3185814960629916
21
2.335659566929134
0
LINE
8
BLACK
6
CONTINUOUS
10
5.3185814960629916
20
2.335659566929134
11
5.3193307086614174
21
2.3318929921259843
0
LINE
8
BLACK
6
CONTINUOUS
10
5.3193307086614174
20
2.3318929921259843
11
5.3193307086614174
21
2.3161449606299214
0
LINE
8
BLACK
6
CONTINUOUS
10
5.3193307086614174
20
2.3161449606299214
11
5.3185814960629916
21
2.3123783858267717
0
LINE
8
BLACK
6
CONTINUOUS
10
5.3185814960629916
20
2.3123783858267717
11
5.3164479133858267
21
2.3091852362204723
0
LINE
8
BLACK
6
CONTINUOUS
10
5.3164479133858267
20
2.3091852362204723
11
5.3132547637795273
21
2.307051653543307
0
LINE
8
BLACK
6
CONTINUOUS
10
5.3132547637795273
20
2.307051653543307
11
5.3094881889763776
21
2.306302440944882
0
LINE
8
BLACK
6
CONTINUOUS
10
5.3094881889763776
20
2.306302440944882
11
5.2898031496062989
21
2.306302440944882
0
LINE
8
BLACK
6
CONTINUOUS
10
5.2898031496062989
20
2.306302440944882
11
5.2860365748031493
21
2.307051653543307
0
LINE
8
BLACK
6
CONTINUOUS
10
5.2860365748031493
20
2.307051653543307
11
5.2828434251968499
21
2.3091852362204723
0
LINE
8
BLACK
6
CONTINUOUS
10
5.2828434251968499
20
2.3091852362204723
11
5.280709842519685
21
2.3123783858267717
0
LINE
8
BLACK
6
CONTINUOUS
10
5.280709842519685
20
2.3123783858267717
11
5.27996062992126
21
2.3161449606299214
0
LINE
8
BLACK
6
CONTINUOUS
10
5.27996062992126
20
2.3161449606299214
11
5.27996062992126
21
2.3318929921259843
0
LINE
8
BLACK
6
CONTINUOUS
10
5.27996062992126
20
2.3318929921259843
11
5.280709842519685
21
2.335659566929134
0
LINE
8
BLACK
6
CONTINUOUS
10
5.280709842519685
20
2.335659566929134
11
5.2828434251968499
21
2.3388527165354329
0
LINE
8
BLACK
6
CONTINUOUS
10
5.2828434251968499
20
2.3388527165354329
11
5.2860365748031493
21
2.3409862992125983
0
LINE
8
BLACK
6
CONTINUOUS
10
5.2860365748031493
20
2.3409862992125983
11
5.2898031496062989
21
2.3417355118110237
0
LINE
8
BLACK
6
CONTINUOUS
10
5.2898031496062989
20
2.3417355118110237
11
5.3094881889763776
21
2.3417355118110237
0
LINE
8
BLACK
6
CONTINUOUS
10
5.3094881889763776
20
2.3417355118110237
11
5.3132547637795273
21
2.3409862992125983
0
LINE
8
BLACK
6
CONTINUOUS
10
5.182841377952756
20
2.3612739370078741
11
5.1860345275590554
21
2.3591403543307088
0
LINE
8
BLACK
6
CONTINUOUS
10
5.1860345275590554
20
2.3591403543307088
11
5.1881681102362203
21
2.3559472047244094
0
LINE
8
BLACK
6
CONTINUOUS
10
5.1881681102362203
20
2.3559472047244094
11
5.1889173228346452
21
2.3521806299212598
0
LINE
8
BLACK
6
CONTINUOUS
10
5.1889173228346452
20
2.3521806299212598
11
5.1889173228346452
21
2.3167475590551181
0
LINE
8
BLACK
6
CONTINUOUS
10
5.1889173228346452
20
2.3167475590551181
11
5.1881681102362203
21
2.3129809842519684
0
LINE
8
BLACK
6
CONTINUOUS
10
5.1881681102362203
20
2.3129809842519684
11
5.1860345275590554
21
2.3097878346456691
0
LINE
8
BLACK
6
CONTINUOUS
10
5.1860345275590554
20
2.3097878346456691
11
5.182841377952756
21
2.3076542519685037
0
LINE
8
BLACK
6
CONTINUOUS
10
5.182841377952756
20
2.3076542519685037
11
5.1790748031496063
21
2.3069050393700787
0
LINE
8
BLACK
6
CONTINUOUS
10
5.1790748031496063
20
2.3069050393700787
11
5.1584055118110239
21
2.3069050393700787
0
LINE
8
BLACK
6
CONTINUOUS
10
5.1584055118110239
20
2.3069050393700787
11
5.1546389370078742
21
2.3076542519685037
0
LINE
8
BLACK
6
CONTINUOUS
10
5.1546389370078742
20
2.3076542519685037
11
5.1514457874015749
21
2.3097878346456691
0
LINE
8
BLACK
6
CONTINUOUS
10
5.1514457874015749
20
2.3097878346456691
11
5.1493122047244091
21
2.3129809842519684
0
LINE
8
BLACK
6
CONTINUOUS
10
5.1493122047244091
20
2.3129809842519684
11
5.1485629921259841
21
2.3167475590551181
0
LINE
8
BLACK
6
CONTINUOUS
10
5.1485629921259841
20
2.3167475590551181
11
5.1485629921259841
21
2.3521806299212598
0
LINE
8
BLACK
6
CONTINUOUS
10
5.1485629921259841
20
2.3521806299212598
11
5.1493122047244091
21
2.3559472047244094
0
LINE
8
BLACK
6
CONTINUOUS
10
5.1493122047244091
20
2.3559472047244094
11
5.1514457874015749
21
2.3591403543307088
0
LINE
8
BLACK
6
CONTINUOUS
10
5.1514457874015749
20
2.3591403543307088
11
5.1546389370078742
21
2.3612739370078741
0
LINE
8
BLACK
6
CONTINUOUS
10
5.1546389370078742
20
2.3612739370078741
11
5.1584055118110239
21
2.3620231496062991
0
LINE
8
BLACK
6
CONTINUOUS
10
5.1584055118110239
20
2.3620231496062991
11
5.1790748031496063
21
2.3620231496062991
0
LINE
8
BLACK
6
CONTINUOUS
10
5.1790748031496063
20
2.3620231496062991
11
5.182841377952756
21
2.3612739370078741
0
LINE
8
BLACK
6
CONTINUOUS
10
5.2546917716535431
20
2.3612739370078741
11
5.2578849212598424
21
2.3591403543307088
0
LINE
8
BLACK
6
CONTINUOUS
10
5.2578849212598424
20
2.3591403543307088
11
5.2600185039370073
21
2.3559472047244094
0
LINE
8
BLACK
6
CONTINUOUS
10
5.2600185039370073
20
2.3559472047244094
11
5.2607677165354332
21
2.3521806299212598
0
LINE
8
BLACK
6
CONTINUOUS
10
5.2607677165354332
20
2.3521806299212598
11
5.2607677165354332
21
2.3167475590551181
0
LINE
8
BLACK
6
CONTINUOUS
10
5.2607677165354332
20
2.3167475590551181
11
5.2600185039370073
21
2.3129809842519684
0
LINE
8
BLACK
6
CONTINUOUS
10
5.2600185039370073
20
2.3129809842519684
11
5.2578849212598424
21
2.3097878346456691
0
LINE
8
BLACK
6
CONTINUOUS
10
5.2578849212598424
20
2.3097878346456691
11
5.2546917716535431
21
2.3076542519685037
0
LINE
8
BLACK
6
CONTINUOUS
10
5.2546917716535431
20
2.3076542519685037
11
5.2509251968503934
21
2.3069050393700787
0
LINE
8
BLACK
6
CONTINUOUS
10
5.2509251968503934
20
2.3069050393700787
11
5.230255905511811
21
2.3069050393700787
0
LINE
8
BLACK
6
CONTINUOUS
10
5.230255905511811
20
2.3069050393700787
11
5.2264893307086613
21
2.3076542519685037
0
LINE
8
BLACK
6
CONTINUOUS
10
5.2264893307086613
20
2.3076542519685037
11
5.2232961811023619
21
2.3097878346456691
0
LINE
8
BLACK
6
CONTINUOUS
10
5.2232961811023619
20
2.3097878346456691
11
5.221162598425197
21
2.3129809842519684
0
LINE
8
BLACK
6
CONTINUOUS
10
5.221162598425197
20
2.3129809842519684
11
5.2204133858267712
21
2.3167475590551181
0
LINE
8
BLACK
6
CONTINUOUS
10
5.2204133858267712
20
2.3167475590551181
11
5.2204133858267712
21
2.3521806299212598
0
LINE
8
BLACK
6
CONTINUOUS
10
5.2204133858267712
20
2.3521806299212598
11
5.221162598425197
21
2.3559472047244094
0
LINE
8
BLACK
6
CONTINUOUS
10
5.221162598425197
20
2.3559472047244094
11
5.2232961811023619
21
2.3591403543307088
0
LINE
8
BLACK
6
CONTINUOUS
10
5.2232961811023619
20
2.3591403543307088
11
5.2264893307086613
21
2.3612739370078741
0
LINE
8
BLACK
6
CONTINUOUS
10
5.2264893307086613
20
2.3612739370078741
11
5.230255905511811
21
2.3620231496062991
0
LINE
8
BLACK
6
CONTINUOUS
10
5.230255905511811
20
2.3620231496062991
11
5.2509251968503934
21
2.3620231496062991
0
LINE
8
BLACK
6
CONTINUOUS
10
5.2509251968503934
20
2.3620231496062991
11
5.2546917716535431
21
2.3612739370078741
0
LINE
8
BLACK
6
CONTINUOUS
10
5.3132547637795273
20
2.3869448818897636
11
5.3164479133858267
21
2.3848112992125983
0
LINE
8
BLACK
6
CONTINUOUS
10
5.3164479133858267
20
2.3848112992125983
11
5.3185814960629916
21
2.3816181496062994
0
LINE
8
BLACK
6
CONTINUOUS
10
5.3185814960629916
20
2.3816181496062994
11
5.3193307086614174
21
2.3778515748031497
0
LINE
8
BLACK
6
CONTINUOUS
10
5.3193307086614174
20
2.3778515748031497
11
5.3193307086614174
21
2.3621035433070867
0
LINE
8
BLACK
6
CONTINUOUS
10
5.3193307086614174
20
2.3621035433070867
11
5.3185814960629916
21
2.358336968503937
0
LINE
8
BLACK
6
CONTINUOUS
10
5.3185814960629916
20
2.358336968503937
11
5.3164479133858267
21
2.3551438188976377
0
LINE
8
BLACK
6
CONTINUOUS
10
5.3164479133858267
20
2.3551438188976377
11
5.3132547637795273
21
2.3530102362204723
0
LINE
8
BLACK
6
CONTINUOUS
10
5.3132547637795273
20
2.3530102362204723
11
5.3094881889763776
21
2.3522610236220474
0
LINE
8
BLACK
6
CONTINUOUS
10
5.3094881889763776
20
2.3522610236220474
11
5.2898031496062989
21
2.3522610236220474
0
LINE
8
BLACK
6
CONTINUOUS
10
5.2898031496062989
20
2.3522610236220474
11
5.2860365748031493
21
2.3530102362204723
0
LINE
8
BLACK
6
CONTINUOUS
10
5.2860365748031493
20
2.3530102362204723
11
5.2828434251968499
21
2.3551438188976377
0
LINE
8
BLACK
6
CONTINUOUS
10
5.2828434251968499
20
2.3551438188976377
11
5.280709842519685
21
2.358336968503937
0
LINE
8
BLACK
6
CONTINUOUS
10
5.280709842519685
20
2.358336968503937
11
5.27996062992126
21
2.3621035433070867
0
LINE
8
BLACK
6
CONTINUOUS
10
5.27996062992126
20
2.3621035433070867
11
5.27996062992126
21
2.3778515748031497
0
LINE
8
BLACK
6
CONTINUOUS
10
5.27996062992126
20
2.3778515748031497
11
5.280709842519685
21
2.3816181496062994
0
LINE
8
BLACK
6
CONTINUOUS
10
5.280709842519685
20
2.3816181496062994
11
5.2828434251968499
21
2.3848112992125983
0
LINE
8
BLACK
6
CONTINUOUS
10
5.2828434251968499
20
2.3848112992125983
11
5.2860365748031493
21
2.3869448818897636
0
LINE
8
BLACK
6
CONTINUOUS
10
5.2860365748031493
20
2.3869448818897636
11
5.2898031496062989
21
2.387694094488189
0
LINE
8
BLACK
6
CONTINUOUS
10
5.2898031496062989
20
2.387694094488189
11
5.3094881889763776
21
2.387694094488189
0
LINE
8
BLACK
6
CONTINUOUS
10
5.3094881889763776
20
2.387694094488189
11
5.3132547637795273
21
2.3869448818897636
0
LINE
8
BLACK
6
CONTINUOUS
10
2.178412244094488
20
2.4372822834645667
11
2.1816053937007873
21
2.4351487007874013
0
LINE
8
BLACK
6
CONTINUOUS
10
2.1816053937007873
20
2.4351487007874013
11
2.1837389763779527
21
2.4319555511811024
0
LINE
8
BLACK
6
CONTINUOUS
10
2.1837389763779527
20
2.4319555511811024
11
2.1844881889763781
21
2.4281889763779527
0
LINE
8
BLACK
6
CONTINUOUS
10
2.1844881889763781
20
2.4281889763779527
11
2.1844881889763781
21
2.3927559055118111
0
LINE
8
BLACK
6
CONTINUOUS
10
2.1844881889763781
20
2.3927559055118111
11
2.1837389763779527
21
2.3889893307086614
0
LINE
8
BLACK
6
CONTINUOUS
10
2.1837389763779527
20
2.3889893307086614
11
2.1816053937007873
21
2.385796181102362
0
LINE
8
BLACK
6
CONTINUOUS
10
2.1816053937007873
20
2.385796181102362
11
2.178412244094488
21
2.3836625984251967
0
LINE
8
BLACK
6
CONTINUOUS
10
2.178412244094488
20
2.3836625984251967
11
2.1746456692913387
21
2.3829133858267717
0
LINE
8
BLACK
6
CONTINUOUS
10
2.1746456692913387
20
2.3829133858267717
11
2.1539763779527559
21
2.3829133858267717
0
LINE
8
BLACK
6
CONTINUOUS
10
2.1539763779527559
20
2.3829133858267717
11
2.1502098031496062
21
2.3836625984251967
0
LINE
8
BLACK
6
CONTINUOUS
10
2.1502098031496062
20
2.3836625984251967
11
2.1470166535433068
21
2.385796181102362
0
LINE
8
BLACK
6
CONTINUOUS
10
2.1470166535433068
20
2.385796181102362
11
2.1448830708661415
21
2.3889893307086614
0
LINE
8
BLACK
6
CONTINUOUS
10
2.1448830708661415
20
2.3889893307086614
11
2.1441338582677165
21
2.3927559055118111
0
LINE
8
BLACK
6
CONTINUOUS
10
2.1441338582677165
20
2.3927559055118111
11
2.1441338582677165
21
2.4281889763779527
0
LINE
8
BLACK
6
CONTINUOUS
10
2.1441338582677165
20
2.4281889763779527
11
2.1448830708661415
21
2.4319555511811024
0
LINE
8
BLACK
6
CONTINUOUS
10
2.1448830708661415
20
2.4319555511811024
11
2.1470166535433068
21
2.4351487007874013
0
LINE
8
BLACK
6
CONTINUOUS
10
2.1470166535433068
20
2.4351487007874013
11
2.1502098031496062
21
2.4372822834645667
0
LINE
8
BLACK
6
CONTINUOUS
10
2.1502098031496062
20
2.4372822834645667
11
2.1539763779527559
21
2.4380314960629921
0
LINE
8
BLACK
6
CONTINUOUS
10
2.1539763779527559
20
2.4380314960629921
11
2.1746456692913387
21
2.4380314960629921
0
LINE
8
BLACK
6
CONTINUOUS
10
2.1746456692913387
20
2.4380314960629921
11
2.178412244094488
21
2.4372822834645667
0
LINE
8
BLACK
6
CONTINUOUS
10
2.2502626377952755
20
2.4372822834645667
11
2.2534557874015748
21
2.4351487007874013
0
LINE
8
BLACK
6
CONTINUOUS
10
2.2534557874015748
20
2.4351487007874013
11
2.2555893700787402
21
2.4319555511811024
0
LINE
8
BLACK
6
CONTINUOUS
10
2.2555893700787402
20
2.4319555511811024
11
2.2563385826771651
21
2.4281889763779527
0
LINE
8
BLACK
6
CONTINUOUS
10
2.2563385826771651
20
2.4281889763779527
11
2.2563385826771651
21
2.3927559055118111
0
LINE
8
BLACK
6
CONTINUOUS
10
2.2563385826771651
20
2.3927559055118111
11
2.2555893700787402
21
2.3889893307086614
0
LINE
8
BLACK
6
CONTINUOUS
10
2.2555893700787402
20
2.3889893307086614
11
2.2534557874015748
21
2.385796181102362
0
LINE
8
BLACK
6
CONTINUOUS
10
2.2534557874015748
20
2.385796181102362
11
2.2502626377952755
21
2.3836625984251967
0
LINE
8
BLACK
6
CONTINUOUS
10
2.2502626377952755
20
2.3836625984251967
11
2.2464960629921258
21
2.3829133858267717
0
LINE
8
BLACK
6
CONTINUOUS
10
2.2464960629921258
20
2.3829133858267717
11
2.2258267716535434
21
2.3829133858267717
0
LINE
8
BLACK
6
CONTINUOUS
10
2.2258267716535434
20
2.3829133858267717
11
2.2220601968503937
21
2.3836625984251967
0
LINE
8
BLACK
6
CONTINUOUS
10
2.2220601968503937
20
2.3836625984251967
11
2.2188670472440943
21
2.385796181102362
0
LINE
8
BLACK
6
CONTINUOUS
10
2.2188670472440943
20
2.385796181102362
11
2.216733464566929
21
2.3889893307086614
0
LINE
8
BLACK
6
CONTINUOUS
10
2.216733464566929
20
2.3889893307086614
11
2.215984251968504
21
2.3927559055118111
0
LINE
8
BLACK
6
CONTINUOUS
10
2.215984251968504
20
2.3927559055118111
11
2.215984251968504
21
2.4281889763779527
0
LINE
8
BLACK
6
CONTINUOUS
10
2.215984251968504
20
2.4281889763779527
11
2.216733464566929
21
2.4319555511811024
0
LINE
8
BLACK
6
CONTINUOUS
10
2.216733464566929
20
2.4319555511811024
11
2.2188670472440943
21
2.4351487007874013
0
LINE
8
BLACK
6
CONTINUOUS
10
2.2188670472440943
20
2.4351487007874013
11
2.2220601968503937
21
2.4372822834645667
0
LINE
8
BLACK
6
CONTINUOUS
10
2.2220601968503937
20
2.4372822834645667
11
2.2258267716535434
21
2.4380314960629921
0
LINE
8
BLACK
6
CONTINUOUS
10
2.2258267716535434
20
2.4380314960629921
11
2.2464960629921258
21
2.4380314960629921
0
LINE
8
BLACK
6
CONTINUOUS
10
2.2464960629921258
20
2.4380314960629921
11
2.2502626377952755
21
2.4372822834645667
0
LINE
8
BLACK
6
CONTINUOUS
10
3.0288059448818898
20
2.4372822834645667
11
3.0319990944881887
21
2.4351487007874013
0
LINE
8
BLACK
6
CONTINUOUS
10
3.0319990944881887
20
2.4351487007874013
11
3.0341326771653541
21
2.4319555511811024
0
LINE
8
BLACK
6
CONTINUOUS
10
3.0341326771653541
20
2.4319555511811024
11
3.0348818897637795
21
2.4281889763779527
0
LINE
8
BLACK
6
CONTINUOUS
10
3.0348818897637795
20
2.4281889763779527
11
3.0348818897637795
21
2.3927559055118111
0
LINE
8
BLACK
6
CONTINUOUS
10
3.0348818897637795
20
2.3927559055118111
11
3.0341326771653541
21
2.3889893307086614
0
LINE
8
BLACK
6
CONTINUOUS
10
3.0341326771653541
20
2.3889893307086614
11
3.0319990944881887
21
2.385796181102362
0
LINE
8
BLACK
6
CONTINUOUS
10
3.0319990944881887
20
2.385796181102362
11
3.0288059448818898
21
2.3836625984251967
0
LINE
8
BLACK
6
CONTINUOUS
10
3.0288059448818898
20
2.3836625984251967
11
3.0250393700787401
21
2.3829133858267717
0
LINE
8
BLACK
6
CONTINUOUS
10
3.0250393700787401
20
2.3829133858267717
11
3.0043700787401573
21
2.3829133858267717
0
LINE
8
BLACK
6
CONTINUOUS
10
3.0043700787401573
20
2.3829133858267717
11
3.0006035039370076
21
2.3836625984251967
0
LINE
8
BLACK
6
CONTINUOUS
10
3.0006035039370076
20
2.3836625984251967
11
2.9974103543307087
21
2.385796181102362
0
LINE
8
BLACK
6
CONTINUOUS
10
2.9974103543307087
20
2.385796181102362
11
2.9952767716535433
21
2.3889893307086614
0
LINE
8
BLACK
6
CONTINUOUS
10
2.9952767716535433
20
2.3889893307086614
11
2.9945275590551179
21
2.3927559055118111
0
LINE
8
BLACK
6
CONTINUOUS
10
2.9945275590551179
20
2.3927559055118111
11
2.9945275590551179
21
2.4281889763779527
0
LINE
8
BLACK
6
CONTINUOUS
10
2.9945275590551179
20
2.4281889763779527
11
2.9952767716535433
21
2.4319555511811024
0
LINE
8
BLACK
6
CONTINUOUS
10
2.9952767716535433
20
2.4319555511811024
11
2.9974103543307087
21
2.4351487007874013
0
LINE
8
BLACK
6
CONTINUOUS
10
2.9974103543307087
20
2.4351487007874013
11
3.0006035039370076
21
2.4372822834645667
0
LINE
8
BLACK
6
CONTINUOUS
10
3.0006035039370076
20
2.4372822834645667
11
3.0043700787401573
21
2.4380314960629921
0
LINE
8
BLACK
6
CONTINUOUS
10
3.0043700787401573
20
2.4380314960629921
11
3.0250393700787401
21
2.4380314960629921
0
LINE
8
BLACK
6
CONTINUOUS
10
3.0250393700787401
20
2.4380314960629921
11
3.0288059448818898
21
2.4372822834645667
0
LINE
8
BLACK
6
CONTINUOUS
10
3.1006563385826773
20
2.4372822834645667
11
3.1038494881889762
21
2.4351487007874013
0
LINE
8
BLACK
6
CONTINUOUS
10
3.1038494881889762
20
2.4351487007874013
11
3.1059830708661416
21
2.4319555511811024
0
LINE
8
BLACK
6
CONTINUOUS
10
3.1059830708661416
20
2.4319555511811024
11
3.106732283464567
21
2.4281889763779527
0
LINE
8
BLACK
6
CONTINUOUS
10
3.106732283464567
20
2.4281889763779527
11
3.106732283464567
21
2.3927559055118111
0
LINE
8
BLACK
6
CONTINUOUS
10
3.106732283464567
20
2.3927559055118111
11
3.1059830708661416
21
2.3889893307086614
0
LINE
8
BLACK
6
CONTINUOUS
10
3.1059830708661416
20
2.3889893307086614
11
3.1038494881889762
21
2.385796181102362
0
LINE
8
BLACK
6
CONTINUOUS
10
3.1038494881889762
20
2.385796181102362
11
3.1006563385826773
21
2.3836625984251967
0
LINE
8
BLACK
6
CONTINUOUS
10
3.1006563385826773
20
2.3836625984251967
11
3.0968897637795276
21
2.3829133858267717
0
LINE
8
BLACK
6
CONTINUOUS
10
3.0968897637795276
20
2.3829133858267717
11
3.0762204724409448
21
2.3829133858267717
0
LINE
8
BLACK
6
CONTINUOUS
10
3.0762204724409448
20
2.3829133858267717
11
3.0724538976377951
21
2.3836625984251967
0
LINE
8
BLACK
6
CONTINUOUS
10
3.0724538976377951
20
2.3836625984251967
11
3.0692607480314962
21
2.385796181102362
0
LINE
8
BLACK
6
CONTINUOUS
10
3.0692607480314962
20
2.385796181102362
11
3.0671271653543308
21
2.3889893307086614
0
LINE
8
BLACK
6
CONTINUOUS
10
3.0671271653543308
20
2.3889893307086614
11
3.0663779527559054
21
2.3927559055118111
0
LINE
8
BLACK
6
CONTINUOUS
10
3.0663779527559054
20
2.3927559055118111
11
3.0663779527559054
21
2.4281889763779527
0
LINE
8
BLACK
6
CONTINUOUS
10
3.0663779527559054
20
2.4281889763779527
11
3.0671271653543308
21
2.4319555511811024
0
LINE
8
BLACK
6
CONTINUOUS
10
3.0671271653543308
20
2.4319555511811024
11
3.0692607480314962
21
2.4351487007874013
0
LINE
8
BLACK
6
CONTINUOUS
10
3.0692607480314962
20
2.4351487007874013
11
3.0724538976377951
21
2.4372822834645667
0
LINE
8
BLACK
6
CONTINUOUS
10
3.0724538976377951
20
2.4372822834645667
11
3.0762204724409448
21
2.4380314960629921
0
LINE
8
BLACK
6
CONTINUOUS
10
3.0762204724409448
20
2.4380314960629921
11
3.0968897637795276
21
2.4380314960629921
0
LINE
8
BLACK
6
CONTINUOUS
10
3.0968897637795276
20
2.4380314960629921
11
3.1006563385826773
21
2.4372822834645667
0
LINE
8
BLACK
6
CONTINUOUS
10
5.182841377952756
20
2.4380455905511811
11
5.1860345275590554
21
2.4359120078740157
0
LINE
8
BLACK
6
CONTINUOUS
10
5.1860345275590554
20
2.4359120078740157
11
5.1881681102362203
21
2.4327188582677164
0
LINE
8
BLACK
6
CONTINUOUS
10
5.1881681102362203
20
2.4327188582677164
11
5.1889173228346452
21
2.4289522834645667
0
LINE
8
BLACK
6
CONTINUOUS
10
5.1889173228346452
20
2.4289522834645667
11
5.1889173228346452
21
2.393519212598425
0
LINE
8
BLACK
6
CONTINUOUS
10
5.1889173228346452
20
2.393519212598425
11
5.1881681102362203
21
2.3897526377952754
0
LINE
8
BLACK
6
CONTINUOUS
10
5.1881681102362203
20
2.3897526377952754
11
5.1860345275590554
21
2.3865594881889765
0
LINE
8
BLACK
6
CONTINUOUS
10
5.1860345275590554
20
2.3865594881889765
11
5.182841377952756
21
2.3844259055118111
0
LINE
8
BLACK
6
CONTINUOUS
10
5.182841377952756
20
2.3844259055118111
11
5.1790748031496063
21
2.3836766929133857
0
LINE
8
BLACK
6
CONTINUOUS
10
5.1790748031496063
20
2.3836766929133857
11
5.1584055118110239
21
2.3836766929133857
0
LINE
8
BLACK
6
CONTINUOUS
10
5.1584055118110239
20
2.3836766929133857
11
5.1546389370078742
21
2.3844259055118111
0
LINE
8
BLACK
6
CONTINUOUS
10
5.1546389370078742
20
2.3844259055118111
11
5.1514457874015749
21
2.3865594881889765
0
LINE
8
BLACK
6
CONTINUOUS
10
5.1514457874015749
20
2.3865594881889765
11
5.1493122047244091
21
2.3897526377952754
0
LINE
8
BLACK
6
CONTINUOUS
10
5.1493122047244091
20
2.3897526377952754
11
5.1485629921259841
21
2.393519212598425
0
LINE
8
BLACK
6
CONTINUOUS
10
5.1485629921259841
20
2.393519212598425
11
5.1485629921259841
21
2.4289522834645667
0
LINE
8
BLACK
6
CONTINUOUS
10
5.1485629921259841
20
2.4289522834645667
11
5.1493122047244091
21
2.4327188582677164
0
LINE
8
BLACK
6
CONTINUOUS
10
5.1493122047244091
20
2.4327188582677164
11
5.1514457874015749
21
2.4359120078740157
0
LINE
8
BLACK
6
CONTINUOUS
10
5.1514457874015749
20
2.4359120078740157
11
5.1546389370078742
21
2.4380455905511811
0
LINE
8
BLACK
6
CONTINUOUS
10
5.1546389370078742
20
2.4380455905511811
11
5.1584055118110239
21
2.4387948031496061
0
LINE
8
BLACK
6
CONTINUOUS
10
5.1584055118110239
20
2.4387948031496061
11
5.1790748031496063
21
2.4387948031496061
0
LINE
8
BLACK
6
CONTINUOUS
10
5.1790748031496063
20
2.4387948031496061
11
5.182841377952756
21
2.4380455905511811
0
LINE
8
BLACK
6
CONTINUOUS
10
5.2546917716535431
20
2.4380455905511811
11
5.2578849212598424
21
2.4359120078740157
0
LINE
8
BLACK
6
CONTINUOUS
10
5.2578849212598424
20
2.4359120078740157
11
5.2600185039370073
21
2.4327188582677164
0
LINE
8
BLACK
6
CONTINUOUS
10
5.2600185039370073
20
2.4327188582677164
11
5.2607677165354332
21
2.4289522834645667
0
LINE
8
BLACK
6
CONTINUOUS
10
5.2607677165354332
20
2.4289522834645667
11
5.2607677165354332
21
2.393519212598425
0
LINE
8
BLACK
6
CONTINUOUS
10
5.2607677165354332
20
2.393519212598425
11
5.2600185039370073
21
2.3897526377952754
0
LINE
8
BLACK
6
CONTINUOUS
10
5.2600185039370073
20
2.3897526377952754
11
5.2578849212598424
21
2.3865594881889765
0
LINE
8
BLACK
6
CONTINUOUS
10
5.2578849212598424
20
2.3865594881889765
11
5.2546917716535431
21
2.3844259055118111
0
LINE
8
BLACK
6
CONTINUOUS
10
5.2546917716535431
20
2.3844259055118111
11
5.2509251968503934
21
2.3836766929133857
0
LINE
8
BLACK
6
CONTINUOUS
10
5.2509251968503934
20
2.3836766929133857
11
5.230255905511811
21
2.3836766929133857
0
LINE
8
BLACK
6
CONTINUOUS
10
5.230255905511811
20
2.3836766929133857
11
5.2264893307086613
21
2.3844259055118111
0
LINE
8
BLACK
6
CONTINUOUS
10
5.2264893307086613
20
2.3844259055118111
11
5.2232961811023619
21
2.3865594881889765
0
LINE
8
BLACK
6
CONTINUOUS
10
5.2232961811023619
20
2.3865594881889765
11
5.221162598425197
21
2.3897526377952754
0
LINE
8
BLACK
6
CONTINUOUS
10
5.221162598425197
20
2.3897526377952754
11
5.2204133858267712
21
2.393519212598425
0
LINE
8
BLACK
6
CONTINUOUS
10
5.2204133858267712
20
2.393519212598425
11
5.2204133858267712
21
2.4289522834645667
0
LINE
8
BLACK
6
CONTINUOUS
10
5.2204133858267712
20
2.4289522834645667
11
5.221162598425197
21
2.4327188582677164
0
LINE
8
BLACK
6
CONTINUOUS
10
5.221162598425197
20
2.4327188582677164
11
5.2232961811023619
21
2.4359120078740157
0
LINE
8
BLACK
6
CONTINUOUS
10
5.2232961811023619
20
2.4359120078740157
11
5.2264893307086613
21
2.4380455905511811
0
LINE
8
BLACK
6
CONTINUOUS
10
5.2264893307086613
20
2.4380455905511811
11
5.230255905511811
21
2.4387948031496061
0
LINE
8
BLACK
6
CONTINUOUS
10
5.230255905511811
20
2.4387948031496061
11
5.2509251968503934
21
2.4387948031496061
0
LINE
8
BLACK
6
CONTINUOUS
10
5.2509251968503934
20
2.4387948031496061
11
5.2546917716535431
21
2.4380455905511811
0
LINE
8
BLACK
6
CONTINUOUS
10
5.3132547637795273
20
2.4499370078740155
11
5.3164479133858267
21
2.4478034251968501
0
LINE
8
BLACK
6
CONTINUOUS
10
5.3164479133858267
20
2.4478034251968501
11
5.3185814960629916
21
2.4446102755905512
0
LINE
8
BLACK
6
CONTINUOUS
10
5.3185814960629916
20
2.4446102755905512
11
5.3193307086614174
21
2.4408437007874015
0
LINE
8
BLACK
6
CONTINUOUS
10
5.3193307086614174
20
2.4408437007874015
11
5.3193307086614174
21
2.4250956692913386
0
LINE
8
BLACK
6
CONTINUOUS
10
5.3193307086614174
20
2.4250956692913386
11
5.3185814960629916
21
2.4213290944881889
0
LINE
8
BLACK
6
CONTINUOUS
10
5.3185814960629916
20
2.4213290944881889
11
5.3164479133858267
21
2.4181359448818895
0
LINE
8
BLACK
6
CONTINUOUS
10
5.3164479133858267
20
2.4181359448818895
11
5.3132547637795273
21
2.4160023622047242
0
LINE
8
BLACK
6
CONTINUOUS
10
5.3132547637795273
20
2.4160023622047242
11
5.3094881889763776
21
2.4152531496062992
0
LINE
8
BLACK
6
CONTINUOUS
10
5.3094881889763776
20
2.4152531496062992
11
5.2898031496062989
21
2.4152531496062992
0
LINE
8
BLACK
6
CONTINUOUS
10
5.2898031496062989
20
2.4152531496062992
11
5.2860365748031493
21
2.4160023622047242
0
LINE
8
BLACK
6
CONTINUOUS
10
5.2860365748031493
20
2.4160023622047242
11
5.2828434251968499
21
2.4181359448818895
0
LINE
8
BLACK
6
CONTINUOUS
10
5.2828434251968499
20
2.4181359448818895
11
5.280709842519685
21
2.4213290944881889
0
LINE
8
BLACK
6
CONTINUOUS
10
5.280709842519685
20
2.4213290944881889
11
5.27996062992126
21
2.4250956692913386
0
LINE
8
BLACK
6
CONTINUOUS
10
5.27996062992126
20
2.4250956692913386
11
5.27996062992126
21
2.4408437007874015
0
LINE
8
BLACK
6
CONTINUOUS
10
5.27996062992126
20
2.4408437007874015
11
5.280709842519685
21
2.4446102755905512
0
LINE
8
BLACK
6
CONTINUOUS
10
5.280709842519685
20
2.4446102755905512
11
5.2828434251968499
21
2.4478034251968501
0
LINE
8
BLACK
6
CONTINUOUS
10
5.2828434251968499
20
2.4478034251968501
11
5.2860365748031493
21
2.4499370078740155
0
LINE
8
BLACK
6
CONTINUOUS
10
5.2860365748031493
20
2.4499370078740155
11
5.2898031496062989
21
2.4506862204724409
0
LINE
8
BLACK
6
CONTINUOUS
10
5.2898031496062989
20
2.4506862204724409
11
5.3094881889763776
21
2.4506862204724409
0
LINE
8
BLACK
6
CONTINUOUS
10
5.3094881889763776
20
2.4506862204724409
11
5.3132547637795273
21
2.4499370078740155
0
LINE
8
BLACK
6
CONTINUOUS
10
5.3112862598425199
20
2.5888570866141731
11
5.3144794094488184
21
2.5867235039370078
0
LINE
8
BLACK
6
CONTINUOUS
10
5.3144794094488184
20
2.5867235039370078
11
5.3166129921259841
21
2.5835303543307084
0
LINE
8
BLACK
6
CONTINUOUS
10
5.3166129921259841
20
2.5835303543307084
11
5.3173622047244091
21
2.5797637795275592
0
LINE
8
BLACK
6
CONTINUOUS
10
5.3173622047244091
20
2.5797637795275592
11
5.3173622047244091
21
2.5640157480314958
0
LINE
8
BLACK
6
CONTINUOUS
10
5.3173622047244091
20
2.5640157480314958
11
5.3166129921259841
21
2.5602491732283466
0
LINE
8
BLACK
6
CONTINUOUS
10
5.3166129921259841
20
2.5602491732283466
11
5.3144794094488184
21
2.5570560236220472
0
LINE
8
BLACK
6
CONTINUOUS
10
5.3144794094488184
20
2.5570560236220472
11
5.3112862598425199
21
2.5549224409448819
0
LINE
8
BLACK
6
CONTINUOUS
10
5.3112862598425199
20
2.5549224409448819
11
5.3075196850393702
21
2.5541732283464564
0
LINE
8
BLACK
6
CONTINUOUS
10
5.3075196850393702
20
2.5541732283464564
11
5.2878346456692915
21
2.5541732283464564
0
LINE
8
BLACK
6
CONTINUOUS
10
5.2878346456692915
20
2.5541732283464564
11
5.2840680708661418
21
2.5549224409448819
0
LINE
8
BLACK
6
CONTINUOUS
10
5.2840680708661418
20
2.5549224409448819
11
5.2808749212598425
21
2.5570560236220472
0
LINE
8
BLACK
6
CONTINUOUS
10
5.2808749212598425
20
2.5570560236220472
11
5.2787413385826767
21
2.5602491732283466
0
LINE
8
BLACK
6
CONTINUOUS
10
5.2787413385826767
20
2.5602491732283466
11
5.2779921259842517
21
2.5640157480314958
0
LINE
8
BLACK
6
CONTINUOUS
10
5.2779921259842517
20
2.5640157480314958
11
5.2779921259842517
21
2.5797637795275592
0
LINE
8
BLACK
6
CONTINUOUS
10
5.2779921259842517
20
2.5797637795275592
11
5.2787413385826767
21
2.5835303543307084
0
LINE
8
BLACK
6
CONTINUOUS
10
5.2787413385826767
20
2.5835303543307084
11
5.2808749212598425
21
2.5867235039370078
0
LINE
8
BLACK
6
CONTINUOUS
10
5.2808749212598425
20
2.5867235039370078
11
5.2840680708661418
21
2.5888570866141731
0
LINE
8
BLACK
6
CONTINUOUS
10
5.2840680708661418
20
2.5888570866141731
11
5.2878346456692915
21
2.5896062992125986
0
LINE
8
BLACK
6
CONTINUOUS
10
5.2878346456692915
20
2.5896062992125986
11
5.3075196850393702
21
2.5896062992125986
0
LINE
8
BLACK
6
CONTINUOUS
10
5.3075196850393702
20
2.5896062992125986
11
5.3112862598425199
21
2.5888570866141731
0
LINE
8
BLACK
6
CONTINUOUS
10
5.2532153937007875
20
2.6001759842519685
11
5.2564085433070868
21
2.5980424015748032
0
LINE
8
BLACK
6
CONTINUOUS
10
5.2564085433070868
20
2.5980424015748032
11
5.2585421259842517
21
2.5948492519685038
0
LINE
8
BLACK
6
CONTINUOUS
10
5.2585421259842517
20
2.5948492519685038
11
5.2592913385826767
21
2.5910826771653541
0
LINE
8
BLACK
6
CONTINUOUS
10
5.2592913385826767
20
2.5910826771653541
11
5.2592913385826767
21
2.5704133858267717
0
LINE
8
BLACK
6
CONTINUOUS
10
5.2592913385826767
20
2.5704133858267717
11
5.2585421259842517
21
2.566646811023622
0
LINE
8
BLACK
6
CONTINUOUS
10
5.2585421259842517
20
2.566646811023622
11
5.2564085433070868
21
2.5634536614173227
0
LINE
8
BLACK
6
CONTINUOUS
10
5.2564085433070868
20
2.5634536614173227
11
5.2532153937007875
21
2.5613200787401573
0
LINE
8
BLACK
6
CONTINUOUS
10
5.2532153937007875
20
2.5613200787401573
11
5.2494488188976378
21
2.5605708661417323
0
LINE
8
BLACK
6
CONTINUOUS
10
5.2494488188976378
20
2.5605708661417323
11
5.2140157480314961
21
2.5605708661417323
0
LINE
8
BLACK
6
CONTINUOUS
10
5.2140157480314961
20
2.5605708661417323
11
5.2102491732283465
21
2.5613200787401573
0
LINE
8
BLACK
6
CONTINUOUS
10
5.2102491732283465
20
2.5613200787401573
11
5.2070560236220471
21
2.5634536614173227
0
LINE
8
BLACK
6
CONTINUOUS
10
5.2070560236220471
20
2.5634536614173227
11
5.2049224409448822
21
2.566646811023622
0
LINE
8
BLACK
6
CONTINUOUS
10
5.2049224409448822
20
2.566646811023622
11
5.2041732283464563
21
2.5704133858267717
0
LINE
8
BLACK
6
CONTINUOUS
10
5.2041732283464563
20
2.5704133858267717
11
5.2041732283464563
21
2.5910826771653541
0
LINE
8
BLACK
6
CONTINUOUS
10
5.2041732283464563
20
2.5910826771653541
11
5.2049224409448822
21
2.5948492519685038
0
LINE
8
BLACK
6
CONTINUOUS
10
5.2049224409448822
20
2.5948492519685038
11
5.2070560236220471
21
2.5980424015748032
0
LINE
8
BLACK
6
CONTINUOUS
10
5.2070560236220471
20
2.5980424015748032
11
5.2102491732283465
21
2.6001759842519685
0
LINE
8
BLACK
6
CONTINUOUS
10
5.2102491732283465
20
2.6001759842519685
11
5.2140157480314961
21
2.6009251968503935
0
LINE
8
BLACK
6
CONTINUOUS
10
5.2140157480314961
20
2.6009251968503935
11
5.2494488188976378
21
2.6009251968503935
0
LINE
8
BLACK
6
CONTINUOUS
10
5.2494488188976378
20
2.6009251968503935
11
5.2532153937007875
21
2.6001759842519685
0
LINE
8
BLACK
6
CONTINUOUS
10
5.3112862598425199
20
2.651849212598425
11
5.3144794094488184
21
2.6497156299212596
0
LINE
8
BLACK
6
CONTINUOUS
10
5.3144794094488184
20
2.6497156299212596
11
5.3166129921259841
21
2.6465224803149607
0
LINE
8
BLACK
6
CONTINUOUS
10
5.3166129921259841
20
2.6465224803149607
11
5.3173622047244091
21
2.6427559055118111
0
LINE
8
BLACK
6
CONTINUOUS
10
5.3173622047244091
20
2.6427559055118111
11
5.3173622047244091
21
2.6270078740157481
0
LINE
8
BLACK
6
CONTINUOUS
10
5.3173622047244091
20
2.6270078740157481
11
5.3166129921259841
21
2.6232412992125984
0
LINE
8
BLACK
6
CONTINUOUS
10
5.3166129921259841
20
2.6232412992125984
11
5.3144794094488184
21
2.6200481496062991
0
LINE
8
BLACK
6
CONTINUOUS
10
5.3144794094488184
20
2.6200481496062991
11
5.3112862598425199
21
2.6179145669291337
0
LINE
8
BLACK
6
CONTINUOUS
10
5.3112862598425199
20
2.6179145669291337
11
5.3075196850393702
21
2.6171653543307087
0
LINE
8
BLACK
6
CONTINUOUS
10
5.3075196850393702
20
2.6171653543307087
11
5.2878346456692915
21
2.6171653543307087
0
LINE
8
BLACK
6
CONTINUOUS
10
5.2878346456692915
20
2.6171653543307087
11
5.2840680708661418
21
2.6179145669291337
0
LINE
8
BLACK
6
CONTINUOUS
10
5.2840680708661418
20
2.6179145669291337
11
5.2808749212598425
21
2.6200481496062991
0
LINE
8
BLACK
6
CONTINUOUS
10
5.2808749212598425
20
2.6200481496062991
11
5.2787413385826767
21
2.6232412992125984
0
LINE
8
BLACK
6
CONTINUOUS
10
5.2787413385826767
20
2.6232412992125984
11
5.2779921259842517
21
2.6270078740157481
0
LINE
8
BLACK
6
CONTINUOUS
10
5.2779921259842517
20
2.6270078740157481
11
5.2779921259842517
21
2.6427559055118111
0
LINE
8
BLACK
6
CONTINUOUS
10
5.2779921259842517
20
2.6427559055118111
11
5.2787413385826767
21
2.6465224803149607
0
LINE
8
BLACK
6
CONTINUOUS
10
5.2787413385826767
20
2.6465224803149607
11
5.2808749212598425
21
2.6497156299212596
0
LINE
8
BLACK
6
CONTINUOUS
10
5.2808749212598425
20
2.6497156299212596
11
5.2840680708661418
21
2.651849212598425
0
LINE
8
BLACK
6
CONTINUOUS
10
5.2840680708661418
20
2.651849212598425
11
5.2878346456692915
21
2.6525984251968504
0
LINE
8
BLACK
6
CONTINUOUS
10
5.2878346456692915
20
2.6525984251968504
11
5.3075196850393702
21
2.6525984251968504
0
LINE
8
BLACK
6
CONTINUOUS
10
5.3075196850393702
20
2.6525984251968504
11
5.3112862598425199
21
2.651849212598425
0
LINE
8
BLACK
6
CONTINUOUS
10
5.2532153937007875
20
2.672026377952756
11
5.2564085433070868
21
2.6698927952755906
0
LINE
8
BLACK
6
CONTINUOUS
10
5.2564085433070868
20
2.6698927952755906
11
5.2585421259842517
21
2.6666996456692913
0
LINE
8
BLACK
6
CONTINUOUS
10
5.2585421259842517
20
2.6666996456692913
11
5.2592913385826767
21
2.6629330708661416
0
LINE
8
BLACK
6
CONTINUOUS
10
5.2592913385826767
20
2.6629330708661416
11
5.2592913385826767
21
2.6422637795275592
0
LINE
8
BLACK
6
CONTINUOUS
10
5.2592913385826767
20
2.6422637795275592
11
5.2585421259842517
21
2.6384972047244095
0
LINE
8
BLACK
6
CONTINUOUS
10
5.2585421259842517
20
2.6384972047244095
11
5.2564085433070868
21
2.6353040551181102
0
LINE
8
BLACK
6
CONTINUOUS
10
5.2564085433070868
20
2.6353040551181102
11
5.2532153937007875
21
2.6331704724409448
0
LINE
8
BLACK
6
CONTINUOUS
10
5.2532153937007875
20
2.6331704724409448
11
5.2494488188976378
21
2.6324212598425198
0
LINE
8
BLACK
6
CONTINUOUS
10
5.2494488188976378
20
2.6324212598425198
11
5.2140157480314961
21
2.6324212598425198
0
LINE
8
BLACK
6
CONTINUOUS
10
5.2140157480314961
20
2.6324212598425198
11
5.2102491732283465
21
2.6331704724409448
0
LINE
8
BLACK
6
CONTINUOUS
10
5.2102491732283465
20
2.6331704724409448
11
5.2070560236220471
21
2.6353040551181102
0
LINE
8
BLACK
6
CONTINUOUS
10
5.2070560236220471
20
2.6353040551181102
11
5.2049224409448822
21
2.6384972047244095
0
LINE
8
BLACK
6
CONTINUOUS
10
5.2049224409448822
20
2.6384972047244095
11
5.2041732283464563
21
2.6422637795275592
0
LINE
8
BLACK
6
CONTINUOUS
10
5.2041732283464563
20
2.6422637795275592
11
5.2041732283464563
21
2.6629330708661416
0
LINE
8
BLACK
6
CONTINUOUS
10
5.2041732283464563
20
2.6629330708661416
11
5.2049224409448822
21
2.6666996456692913
0
LINE
8
BLACK
6
CONTINUOUS
10
5.2049224409448822
20
2.6666996456692913
11
5.2070560236220471
21
2.6698927952755906
0
LINE
8
BLACK
6
CONTINUOUS
10
5.2070560236220471
20
2.6698927952755906
11
5.2102491732283465
21
2.672026377952756
0
LINE
8
BLACK
6
CONTINUOUS
10
5.2102491732283465
20
2.672026377952756
11
5.2140157480314961
21
2.672775590551181
0
LINE
8
BLACK
6
CONTINUOUS
10
5.2140157480314961
20
2.672775590551181
11
5.2494488188976378
21
2.672775590551181
0
LINE
8
BLACK
6
CONTINUOUS
10
5.2494488188976378
20
2.672775590551181
11
5.2532153937007875
21
2.672026377952756
0
LINE
8
BLACK
6
CONTINUOUS
10
5.2532153937007875
20
2.7355106299212597
11
5.2564085433070868
21
2.7333770472440944
0
LINE
8
BLACK
6
CONTINUOUS
10
5.2564085433070868
20
2.7333770472440944
11
5.2585421259842517
21
2.730183897637795
0
LINE
8
BLACK
6
CONTINUOUS
10
5.2585421259842517
20
2.730183897637795
11
5.2592913385826767
21
2.7264173228346458
0
LINE
8
BLACK
6
CONTINUOUS
10
5.2592913385826767
20
2.7264173228346458
11
5.2592913385826767
21
2.7057480314960629
0
LINE
8
BLACK
6
CONTINUOUS
10
5.2592913385826767
20
2.7057480314960629
11
5.2585421259842517
21
2.7019814566929132
0
LINE
8
BLACK
6
CONTINUOUS
10
5.2585421259842517
20
2.7019814566929132
11
5.2564085433070868
21
2.6987883070866143
0
LINE
8
BLACK
6
CONTINUOUS
10
5.2564085433070868
20
2.6987883070866143
11
5.2532153937007875
21
2.696654724409449
0
LINE
8
BLACK
6
CONTINUOUS
10
5.2532153937007875
20
2.696654724409449
11
5.2494488188976378
21
2.6959055118110236
0
LINE
8
BLACK
6
CONTINUOUS
10
5.2494488188976378
20
2.6959055118110236
11
5.2140157480314961
21
2.6959055118110236
0
LINE
8
BLACK
6
CONTINUOUS
10
5.2140157480314961
20
2.6959055118110236
11
5.2102491732283465
21
2.696654724409449
0
LINE
8
BLACK
6
CONTINUOUS
10
5.2102491732283465
20
2.696654724409449
11
5.2070560236220471
21
2.6987883070866143
0
LINE
8
BLACK
6
CONTINUOUS
10
5.2070560236220471
20
2.6987883070866143
11
5.2049224409448822
21
2.7019814566929132
0
LINE
8
BLACK
6
CONTINUOUS
10
5.2049224409448822
20
2.7019814566929132
11
5.2041732283464563
21
2.7057480314960629
0
LINE
8
BLACK
6
CONTINUOUS
10
5.2041732283464563
20
2.7057480314960629
11
5.2041732283464563
21
2.7264173228346458
0
LINE
8
BLACK
6
CONTINUOUS
10
5.2041732283464563
20
2.7264173228346458
11
5.2049224409448822
21
2.730183897637795
0
LINE
8
BLACK
6
CONTINUOUS
10
5.2049224409448822
20
2.730183897637795
11
5.2070560236220471
21
2.7333770472440944
0
LINE
8
BLACK
6
CONTINUOUS
10
5.2070560236220471
20
2.7333770472440944
11
5.2102491732283465
21
2.7355106299212597
0
LINE
8
BLACK
6
CONTINUOUS
10
5.2102491732283465
20
2.7355106299212597
11
5.2140157480314961
21
2.7362598425196851
0
LINE
8
BLACK
6
CONTINUOUS
10
5.2140157480314961
20
2.7362598425196851
11
5.2494488188976378
21
2.7362598425196851
0
LINE
8
BLACK
6
CONTINUOUS
10
5.2494488188976378
20
2.7362598425196851
11
5.2532153937007875
21
2.7355106299212597
0
LINE
8
BLACK
6
CONTINUOUS
10
5.3152232677165356
20
2.7424003937007875
11
5.3184164173228341
21
2.7402668110236221
0
LINE
8
BLACK
6
CONTINUOUS
10
5.3184164173228341
20
2.7402668110236221
11
5.3205499999999999
21
2.7370736614173228
0
LINE
8
BLACK
6
CONTINUOUS
10
5.3205499999999999
20
2.7370736614173228
11
5.3212992125984249
21
2.7333070866141731
0
LINE
8
BLACK
6
CONTINUOUS
10
5.3212992125984249
20
2.7333070866141731
11
5.3212992125984249
21
2.7175590551181101
0
LINE
8
BLACK
6
CONTINUOUS
10
5.3212992125984249
20
2.7175590551181101
11
5.3205499999999999
21
2.7137924803149605
0
LINE
8
BLACK
6
CONTINUOUS
10
5.3205499999999999
20
2.7137924803149605
11
5.3184164173228341
21
2.7105993307086615
0
LINE
8
BLACK
6
CONTINUOUS
10
5.3184164173228341
20
2.7105993307086615
11
5.3152232677165356
21
2.7084657480314962
0
LINE
8
BLACK
6
CONTINUOUS
10
5.3152232677165356
20
2.7084657480314962
11
5.311456692913386
21
2.7077165354330708
0
LINE
8
BLACK
6
CONTINUOUS
10
5.311456692913386
20
2.7077165354330708
11
5.2917716535433073
21
2.7077165354330708
0
LINE
8
BLACK
6
CONTINUOUS
10
5.2917716535433073
20
2.7077165354330708
11
5.2880050787401576
21
2.7084657480314962
0
LINE
8
BLACK
6
CONTINUOUS
10
5.2880050787401576
20
2.7084657480314962
11
5.2848119291338582
21
2.7105993307086615
0
LINE
8
BLACK
6
CONTINUOUS
10
5.2848119291338582
20
2.7105993307086615
11
5.2826783464566924
21
2.7137924803149605
0
LINE
8
BLACK
6
CONTINUOUS
10
5.2826783464566924
20
2.7137924803149605
11
5.2819291338582675
21
2.7175590551181101
0
LINE
8
BLACK
6
CONTINUOUS
10
5.2819291338582675
20
2.7175590551181101
11
5.2819291338582675
21
2.7333070866141731
0
LINE
8
BLACK
6
CONTINUOUS
10
5.2819291338582675
20
2.7333070866141731
11
5.2826783464566924
21
2.7370736614173228
0
LINE
8
BLACK
6
CONTINUOUS
10
5.2826783464566924
20
2.7370736614173228
11
5.2848119291338582
21
2.7402668110236221
0
LINE
8
BLACK
6
CONTINUOUS
10
5.2848119291338582
20
2.7402668110236221
11
5.2880050787401576
21
2.7424003937007875
0
LINE
8
BLACK
6
CONTINUOUS
10
5.2880050787401576
20
2.7424003937007875
11
5.2917716535433073
21
2.7431496062992125
0
LINE
8
BLACK
6
CONTINUOUS
10
5.2917716535433073
20
2.7431496062992125
11
5.311456692913386
21
2.7431496062992125
0
LINE
8
BLACK
6
CONTINUOUS
10
5.311456692913386
20
2.7431496062992125
11
5.3152232677165356
21
2.7424003937007875
0
LINE
8
BLACK
6
CONTINUOUS
10
5.2532153937007875
20
2.8073610236220472
11
5.2564085433070868
21
2.8052274409448819
0
LINE
8
BLACK
6
CONTINUOUS
10
5.2564085433070868
20
2.8052274409448819
11
5.2585421259842517
21
2.8020342913385825
0
LINE
8
BLACK
6
CONTINUOUS
10
5.2585421259842517
20
2.8020342913385825
11
5.2592913385826767
21
2.7982677165354328
0
LINE
8
BLACK
6
CONTINUOUS
10
5.2592913385826767
20
2.7982677165354328
11
5.2592913385826767
21
2.7775984251968504
0
LINE
8
BLACK
6
CONTINUOUS
10
5.2592913385826767
20
2.7775984251968504
11
5.2585421259842517
21
2.7738318503937007
0
LINE
8
BLACK
6
CONTINUOUS
10
5.2585421259842517
20
2.7738318503937007
11
5.2564085433070868
21
2.7706387007874014
0
LINE
8
BLACK
6
CONTINUOUS
10
5.2564085433070868
20
2.7706387007874014
11
5.2532153937007875
21
2.768505118110236
0
LINE
8
BLACK
6
CONTINUOUS
10
5.2532153937007875
20
2.768505118110236
11
5.2494488188976378
21
2.7677559055118111
0
LINE
8
BLACK
6
CONTINUOUS
10
5.2494488188976378
20
2.7677559055118111
11
5.2140157480314961
21
2.7677559055118111
0
LINE
8
BLACK
6
CONTINUOUS
10
5.2140157480314961
20
2.7677559055118111
11
5.2102491732283465
21
2.768505118110236
0
LINE
8
BLACK
6
CONTINUOUS
10
5.2102491732283465
20
2.768505118110236
11
5.2070560236220471
21
2.7706387007874014
0
LINE
8
BLACK
6
CONTINUOUS
10
5.2070560236220471
20
2.7706387007874014
11
5.2049224409448822
21
2.7738318503937007
0
LINE
8
BLACK
6
CONTINUOUS
10
5.2049224409448822
20
2.7738318503937007
11
5.2041732283464563
21
2.7775984251968504
0
LINE
8
BLACK
6
CONTINUOUS
10
5.2041732283464563
20
2.7775984251968504
11
5.2041732283464563
21
2.7982677165354328
0
LINE
8
BLACK
6
CONTINUOUS
10
5.2041732283464563
20
2.7982677165354328
11
5.2049224409448822
21
2.8020342913385825
0
LINE
8
BLACK
6
CONTINUOUS
10
5.2049224409448822
20
2.8020342913385825
11
5.2070560236220471
21
2.8052274409448819
0
LINE
8
BLACK
6
CONTINUOUS
10
5.2070560236220471
20
2.8052274409448819
11
5.2102491732283465
21
2.8073610236220472
0
LINE
8
BLACK
6
CONTINUOUS
10
5.2102491732283465
20
2.8073610236220472
11
5.2140157480314961
21
2.8081102362204722
0
LINE
8
BLACK
6
CONTINUOUS
10
5.2140157480314961
20
2.8081102362204722
11
5.2494488188976378
21
2.8081102362204722
0
LINE
8
BLACK
6
CONTINUOUS
10
5.2494488188976378
20
2.8081102362204722
11
5.2532153937007875
21
2.8073610236220472
0
LINE
8
BLACK
6
CONTINUOUS
10
5.3152232677165356
20
2.8053925196850393
11
5.3184164173228341
21
2.803258937007874
0
LINE
8
BLACK
6
CONTINUOUS
10
5.3184164173228341
20
2.803258937007874
11
5.3205499999999999
21
2.8000657874015746
0
LINE
8
BLACK
6
CONTINUOUS
10
5.3205499999999999
20
2.8000657874015746
11
5.3212992125984249
21
2.796299212598425
0
LINE
8
BLACK
6
CONTINUOUS
10
5.3212992125984249
20
2.796299212598425
11
5.3212992125984249
21
2.780551181102362
0
LINE
8
BLACK
6
CONTINUOUS
10
5.3212992125984249
20
2.780551181102362
11
5.3205499999999999
21
2.7767846062992128
0
LINE
8
BLACK
6
CONTINUOUS
10
5.3205499999999999
20
2.7767846062992128
11
5.3184164173228341
21
2.7735914566929134
0
LINE
8
BLACK
6
CONTINUOUS
10
5.3184164173228341
20
2.7735914566929134
11
5.3152232677165356
21
2.7714578740157481
0
LINE
8
BLACK
6
CONTINUOUS
10
5.3152232677165356
20
2.7714578740157481
11
5.311456692913386
21
2.7707086614173226
0
LINE
8
BLACK
6
CONTINUOUS
10
5.311456692913386
20
2.7707086614173226
11
5.2917716535433073
21
2.7707086614173226
0
LINE
8
BLACK
6
CONTINUOUS
10
5.2917716535433073
20
2.7707086614173226
11
5.2880050787401576
21
2.7714578740157481
0
LINE
8
BLACK
6
CONTINUOUS
10
5.2880050787401576
20
2.7714578740157481
11
5.2848119291338582
21
2.7735914566929134
0
LINE
8
BLACK
6
CONTINUOUS
10
5.2848119291338582
20
2.7735914566929134
11
5.2826783464566924
21
2.7767846062992128
0
LINE
8
BLACK
6
CONTINUOUS
10
5.2826783464566924
20
2.7767846062992128
11
5.2819291338582675
21
2.780551181102362
0
LINE
8
BLACK
6
CONTINUOUS
10
5.2819291338582675
20
2.780551181102362
11
5.2819291338582675
21
2.796299212598425
0
LINE
8
BLACK
6
CONTINUOUS
10
5.2819291338582675
20
2.796299212598425
11
5.2826783464566924
21
2.8000657874015746
0
LINE
8
BLACK
6
CONTINUOUS
10
5.2826783464566924
20
2.8000657874015746
11
5.2848119291338582
21
2.803258937007874
0
LINE
8
BLACK
6
CONTINUOUS
10
5.2848119291338582
20
2.803258937007874
11
5.2880050787401576
21
2.8053925196850393
0
LINE
8
BLACK
6
CONTINUOUS
10
5.2880050787401576
20
2.8053925196850393
11
5.2917716535433073
21
2.8061417322834643
0
LINE
8
BLACK
6
CONTINUOUS
10
5.2917716535433073
20
2.8061417322834643
11
5.311456692913386
21
2.8061417322834643
0
LINE
8
BLACK
6
CONTINUOUS
10
5.311456692913386
20
2.8061417322834643
11
5.3152232677165356
21
2.8053925196850393
  0
ENDSEC
  0
EOF
