  0
SECTION
  2
HEADER
  9
$ANGBASE
  50
0.0
  9
$ANGDIR
  70
1
  9
$MEASUREMENT
  70
0
  0
ENDSEC
  0
SECTION
  2
TABLES
  0
TABLE
  2
LTYPE
  70
4
  0
LTYPE
  5
40F
  2
CONTINUOUS
  70
0
  3
Solid line
  72
65
  73
0
  40
0.0
  0
LTYPE
  5
410
  2
DASHDOT
 70
0
  3
Dash Dot ____ _ ____ _
 72
65
 73
4
 40
2.0
 49
1.25
 49
-0.25
 49
0.25
 49
-0.25
  0
LTYPE
  5
411
  2
DASHED
 70
0
  3
Dashed __ __ __ __ __
 72
65
 73
2
 40
0.75
 49
0.5
 49
-0.25
  0
LTYPE
  5
43B
  2
DOTTED
 70
0
  3
Dotted .  .  .  .
 72
65
 73
2
 40
0.2
 49
0.0
 49
-0.2
  0
ENDTAB
  0
TABLE
  2
STYLE
  70
4
  0
STYLE
  2
KICAD
  70
0
  40
0
  41
1
  42
1
  50
0
  71
0
  3
isocp.shx
  0
STYLE
  2
KICADB
  70
0
  40
0
  41
1
  42
1
  50
0
  71
0
  3
isocp.shx
  0
STYLE
  2
KICADI
  70
0
  40
0
  41
1
  42
1
  50
15
  71
0
  3
isocp.shx
  0
STYLE
  2
KICADBI
  70
0
  40
0
  41
1
  42
1
  50
15
  71
0
  3
isocp.shx
  0
ENDTAB
  0
TABLE
  2
LAYER
  70
1
  0
LAYER
  2
BLACK
  70
0
  62
7
  6
CONTINUOUS
  0
ENDTAB
  0
ENDSEC
  0
SECTION
  2
ENTITIES
0
LINE
8
BLACK
6
CONTINUOUS
10
5.36031
20
3.38197
11
5.36171
21
3.38139
0
LINE
8
BLACK
6
CONTINUOUS
10
5.36171
20
3.38139
11
5.36228
21
3.38
0
LINE
8
BLACK
6
CONTINUOUS
10
5.36228
20
3.38
11
5.36228
21
0
0
LINE
8
BLACK
6
CONTINUOUS
10
5.36228
20
0
11
5.36171
21
-0.00139193
0
LINE
8
BLACK
6
CONTINUOUS
10
5.36171
20
-0.00139193
11
5.36031
21
-0.0019685
0
LINE
8
BLACK
6
CONTINUOUS
10
5.36031
20
-0.0019685
11
0
21
-0.0019685
0
LINE
8
BLACK
6
CONTINUOUS
10
0
20
-0.0019685
11
-0.00139193
21
-0.00139193
0
LINE
8
BLACK
6
CONTINUOUS
10
-0.00139193
20
-0.00139193
11
-0.0019685
21
0
0
LINE
8
BLACK
6
CONTINUOUS
10
-0.0019685
20
0
11
-0.0019685
21
0.587638
0
LINE
8
BLACK
6
CONTINUOUS
10
-0.0019685
20
0.587638
11
-0.00139193
21
0.58903
0
LINE
8
BLACK
6
CONTINUOUS
10
-0.00139193
20
0.58903
11
0
21
0.589606
0
LINE
8
BLACK
6
CONTINUOUS
10
0
20
0.589606
11
0.383307
21
0.589606
0
LINE
8
BLACK
6
CONTINUOUS
10
0.383307
20
0.589606
11
0.383307
21
2.79039
0
LINE
8
BLACK
6
CONTINUOUS
10
0.383307
20
2.79039
11
0
21
2.79039
0
LINE
8
BLACK
6
CONTINUOUS
10
0
20
2.79039
11
-0.00139193
21
2.79097
0
LINE
8
BLACK
6
CONTINUOUS
10
-0.00139193
20
2.79097
11
-0.0019685
21
2.79236
0
LINE
8
BLACK
6
CONTINUOUS
10
-0.0019685
20
2.79236
11
-0.0019685
21
3.38
0
LINE
8
BLACK
6
CONTINUOUS
10
-0.0019685
20
3.38
11
-0.00139193
21
3.38139
0
LINE
8
BLACK
6
CONTINUOUS
10
-0.00139193
20
3.38139
11
0
21
3.38197
0
LINE
8
BLACK
6
CONTINUOUS
10
0
20
3.38197
11
5.36031
21
3.38197
0
LINE
8
BLACK
6
CONTINUOUS
10
0.0019685
20
3.37803
11
0.0019685
21
2.79433
0
LINE
8
BLACK
6
CONTINUOUS
10
0.0019685
20
2.79433
11
0.385276
21
2.79433
0
LINE
8
BLACK
6
CONTINUOUS
10
0.385276
20
2.79433
11
0.386668
21
2.79375
0
LINE
8
BLACK
6
CONTINUOUS
10
0.386668
20
2.79375
11
0.387244
21
2.79236
0
LINE
8
BLACK
6
CONTINUOUS
10
0.387244
20
2.79236
11
0.387244
21
0.587638
0
LINE
8
BLACK
6
CONTINUOUS
10
0.387244
20
0.587638
11
0.386668
21
0.586246
0
LINE
8
BLACK
6
CONTINUOUS
10
0.386668
20
0.586246
11
0.385276
21
0.585669
0
LINE
8
BLACK
6
CONTINUOUS
10
0.385276
20
0.585669
11
0.0019685
21
0.585669
0
LINE
8
BLACK
6
CONTINUOUS
10
0.0019685
20
0.585669
11
0.0019685
21
0.0019685
0
LINE
8
BLACK
6
CONTINUOUS
10
0.0019685
20
0.0019685
11
5.35835
21
0.0019685
0
LINE
8
BLACK
6
CONTINUOUS
10
5.35835
20
0.0019685
11
5.35835
21
3.37803
0
LINE
8
BLACK
6
CONTINUOUS
10
5.35835
20
3.37803
11
0.0019685
21
3.37803
  0
ENDSEC
  0
EOF
