  0
SECTION
  2
HEADER
  9
$ACADVER
  1
AC1018
  9
$HANDSEED
  5
FFFFFFFF
  9
$ANGBASE
  50
0.0
  9
$ANGDIR
  70
1
  9
$MEASUREMENT
  70
0
  9
$INSUNITS
  70
1
  0
ENDSEC
  0
SECTION
  2
TABLES
  0
TABLE
  2
APPID
  5
1
330
0
100
AcDbSymbolTable
 70
1
  0
APPID
  5
2
330
1
100
AcDbSymbolTableRecord
100
AcDbRegAppTableRecord
  2
ACAD
 70
0
  0
ENDTAB
  0
TABLE
  2
LTYPE
  5
3
330
0
100
AcDbSymbolTable
 70
6
  0
LTYPE
  5
4
330
3
100
AcDbSymbolTableRecord
100
AcDbLinetypeTableRecord
  2
ByBlock
 70
0
  3

 72
65
 73
0
 40
0
  0
LTYPE
  5
5
330
3
100
AcDbSymbolTableRecord
100
AcDbLinetypeTableRecord
  2
ByLayer
 70
0
  3

 72
65
 73
0
 40
0
  0
LTYPE
  5
6
330
3
100
AcDbSymbolTableRecord
100
AcDbLinetypeTableRecord
  2
CONTINUOUS
 70
0
  3
Solid line
 72
65
 73
0
 40
0
  0
LTYPE
  5
7
330
3
100
AcDbSymbolTableRecord
100
AcDbLinetypeTableRecord
  2
DASHDOT
 70
0
  3
Dash Dot ____ _ ____ _
 72
65
 73
4
 40
2
 49
1.25
 74
0
 49
-0.25
 74
0
 49
0.25
 74
0
 49
-0.25
 74
0
  0
LTYPE
  5
8
330
3
100
AcDbSymbolTableRecord
100
AcDbLinetypeTableRecord
  2
DASHED
 70
0
  3
Dashed __ __ __ __ __
 72
65
 73
2
 40
0.75
 49
0.5
 74
0
 49
-0.25
 74
0
  0
LTYPE
  5
9
330
3
100
AcDbSymbolTableRecord
100
AcDbLinetypeTableRecord
  2
DOTTED
 70
0
  3
Dotted .  .  .  .
 72
65
 73
2
 40
0.2
 49
0.0
 74
0
 49
-0.2
 74
0
  0
ENDTAB
  0
TABLE
  2
STYLE
  5
A
330
0
100
AcDbSymbolTable
 70
4
  0
STYLE
  5
B
330
A
100
AcDbSymbolTableRecord
100
AcDbTextStyleTableRecord
  2
KICAD
 70
0
 40
0
 41
1
 42
1
 50
0
 71
0
  3
isocp.shx
  0
STYLE
  5
C
330
A
100
AcDbSymbolTableRecord
100
AcDbTextStyleTableRecord
  2
KICADB
 70
0
 40
0
 41
1
 42
1
 50
0
 71
0
  3
isocp.shx
  0
STYLE
  5
D
330
A
100
AcDbSymbolTableRecord
100
AcDbTextStyleTableRecord
  2
KICADI
 70
0
 40
0
 41
1
 42
1
 50
15
 71
0
  3
isocp.shx
  0
STYLE
  5
E
330
A
100
AcDbSymbolTableRecord
100
AcDbTextStyleTableRecord
  2
KICADBI
 70
0
 40
0
 41
1
 42
1
 50
15
 71
0
  3
isocp.shx
  0
ENDTAB
  0
TABLE
  2
LAYER
  5
F
330
0
100
AcDbSymbolTable
 70
2
  0
LAYER
  5
12
330
F
100
AcDbSymbolTableRecord
100
AcDbLayerTableRecord
  2
0
 70
0
 62
7
  6
CONTINUOUS
390
10
  0
LAYER
  5
13
330
F
100
AcDbSymbolTableRecord
100
AcDbLayerTableRecord
  2
BLACK
 70
0
 62
250
  6
CONTINUOUS
390
10
  0
ENDTAB
  0
TABLE
  2
VPORT
  5
14
330
0
100
AcDbSymbolTable
 70
0
  0
ENDTAB
  0
TABLE
  2
VIEW
  5
15
330
0
100
AcDbSymbolTable
 70
0
  0
ENDTAB
  0
TABLE
  2
UCS
  5
16
330
0
100
AcDbSymbolTable
 70
0
  0
ENDTAB
  0
TABLE
  2
DIMSTYLE
  5
17
330
0
100
AcDbSymbolTable
 70
1
100
AcDbDimStyleTable
 71
0
  0
DIMSTYLE
105
18
330
17
100
AcDbSymbolTableRecord
100
AcDbDimStyleTableRecord
  2
Standard
 70
0
  0
ENDTAB
  0
TABLE
  2
BLOCK_RECORD
  5
19
330
0
100
AcDbSymbolTable
 70
3
  0
BLOCK_RECORD
  5
1A
330
19
100
AcDbSymbolTableRecord
100
AcDbBlockTableRecord
  2
*Model_Space
340
1D
 70
0
280
1
281
0
  0
BLOCK_RECORD
  5
1B
330
19
100
AcDbSymbolTableRecord
100
AcDbBlockTableRecord
  2
*Paper_Space
340
1E
 70
0
280
1
281
0
  0
BLOCK_RECORD
  5
1C
330
19
100
AcDbSymbolTableRecord
100
AcDbBlockTableRecord
  2
*Paper_Space0
340
1F
 70
0
280
1
281
0
  0
ENDTAB
  0
ENDSEC
  0
SECTION
  2
BLOCKS
  0
BLOCK
  5
23
330
1A
100
AcDbEntity
  8
0
100
AcDbBlockBegin
  2
*Model_Space
 70
0
 10
0.0
 20
0.0
 30
0.0
  3
*Model_Space
  1

  0
ENDBLK
  5
22
330
1A
100
AcDbEntity
  8
0
100
AcDbBlockEnd
  0
BLOCK
  5
25
330
1B
100
AcDbEntity
 67
1
  8
0
100
AcDbBlockBegin
  2
*Paper_Space
 70
0
 10
0.0
 20
0.0
 30
0.0
  3
*Paper_Space
  1

  0
ENDBLK
  5
24
330
1B
100
AcDbEntity
 67
1
  8
0
100
AcDbBlockEnd
  0
BLOCK
  5
27
330
1C
100
AcDbEntity
 67
1
  8
0
100
AcDbBlockBegin
  2
*Paper_Space0
 70
0
 10
0.0
 20
0.0
 30
0.0
  3
*Paper_Space0
  1

  0
ENDBLK
  5
26
330
1C
100
AcDbEntity
 67
1
  8
0
100
AcDbBlockEnd
  0
ENDSEC
  0
SECTION
  2
ENTITIES
  0
LINE
  5
28
330
1A
100
AcDbEntity
  8
BLACK
  6
CONTINUOUS
100
AcDbLine
 10
2.6181325590551179
 20
3.2302794094488188
 30
0
 11
2.6186652362204725
 21
3.2297467322834645
 31
0
  0
LINE
  5
29
330
1A
100
AcDbEntity
  8
BLACK
  6
CONTINUOUS
100
AcDbLine
 10
2.6186652362204725
 20
3.2297467322834645
 30
0
 11
2.6187401574803149
 21
3.2293700787401574
 31
0
  0
LINE
  5
2A
330
1A
100
AcDbEntity
  8
BLACK
  6
CONTINUOUS
100
AcDbLine
 10
2.6187401574803149
 20
3.2293700787401574
 30
0
 11
2.6187401574803149
 21
0.1506299212598425
 31
0
  0
LINE
  5
2B
330
1A
100
AcDbEntity
  8
BLACK
  6
CONTINUOUS
100
AcDbLine
 10
2.6187401574803149
 20
0.1506299212598425
 30
0
 11
2.6186652362204725
 21
0.1502532677165354
 31
0
  0
LINE
  5
2C
330
1A
100
AcDbEntity
  8
BLACK
  6
CONTINUOUS
100
AcDbLine
 10
2.6186652362204725
 20
0.1502532677165354
 30
0
 11
2.6181325590551179
 21
0.1497205905511811
 31
0
  0
LINE
  5
2D
330
1A
100
AcDbEntity
  8
BLACK
  6
CONTINUOUS
100
AcDbLine
 10
2.6181325590551179
 20
0.1497205905511811
 30
0
 11
2.6177559055118111
 21
0.1496456692913386
 31
0
  0
LINE
  5
2E
330
1A
100
AcDbEntity
  8
BLACK
  6
CONTINUOUS
100
AcDbLine
 10
2.6177559055118111
 20
0.1496456692913386
 30
0
 11
1.0149999999999999
 21
0.1496456692913386
 31
0
  0
LINE
  5
2F
330
1A
100
AcDbEntity
  8
BLACK
  6
CONTINUOUS
100
AcDbLine
 10
1.0149999999999999
 20
0.1496456692913386
 30
0
 11
1.0146233464566929
 21
0.1497205905511811
 31
0
  0
LINE
  5
30
330
1A
100
AcDbEntity
  8
BLACK
  6
CONTINUOUS
100
AcDbLine
 10
1.0146233464566929
 20
0.1497205905511811
 30
0
 11
1.0140906692913385
 21
0.1502532677165354
 31
0
  0
LINE
  5
31
330
1A
100
AcDbEntity
  8
BLACK
  6
CONTINUOUS
100
AcDbLine
 10
1.0140906692913385
 20
0.1502532677165354
 30
0
 11
1.014015748031496
 21
0.1506299212598425
 31
0
  0
LINE
  5
32
330
1A
100
AcDbEntity
  8
BLACK
  6
CONTINUOUS
100
AcDbLine
 10
1.014015748031496
 20
0.1506299212598425
 30
0
 11
1.014015748031496
 21
3.2293700787401574
 31
0
  0
LINE
  5
33
330
1A
100
AcDbEntity
  8
BLACK
  6
CONTINUOUS
100
AcDbLine
 10
1.014015748031496
 20
3.2293700787401574
 30
0
 11
1.0140906692913385
 21
3.2297467322834645
 31
0
  0
LINE
  5
34
330
1A
100
AcDbEntity
  8
BLACK
  6
CONTINUOUS
100
AcDbLine
 10
1.0140906692913385
 20
3.2297467322834645
 30
0
 11
1.0146233464566929
 21
3.2302794094488188
 31
0
  0
LINE
  5
35
330
1A
100
AcDbEntity
  8
BLACK
  6
CONTINUOUS
100
AcDbLine
 10
1.0146233464566929
 20
3.2302794094488188
 30
0
 11
1.0149999999999999
 21
3.2303543307086615
 31
0
  0
LINE
  5
36
330
1A
100
AcDbEntity
  8
BLACK
  6
CONTINUOUS
100
AcDbLine
 10
1.0149999999999999
 20
3.2303543307086615
 30
0
 11
2.6177559055118111
 21
3.2303543307086615
 31
0
  0
LINE
  5
37
330
1A
100
AcDbEntity
  8
BLACK
  6
CONTINUOUS
100
AcDbLine
 10
2.6177559055118111
 20
3.2303543307086615
 30
0
 11
2.6181325590551179
 21
3.2302794094488188
 31
0
  0
LINE
  5
38
330
1A
100
AcDbEntity
  8
BLACK
  6
CONTINUOUS
100
AcDbLine
 10
1.0159842519685038
 20
3.2283858267716536
 30
0
 11
1.0159842519685038
 21
0.1516141732283464
 31
0
  0
LINE
  5
39
330
1A
100
AcDbEntity
  8
BLACK
  6
CONTINUOUS
100
AcDbLine
 10
1.0159842519685038
 20
0.1516141732283464
 30
0
 11
2.616771653543307
 21
0.1516141732283464
 31
0
  0
LINE
  5
3A
330
1A
100
AcDbEntity
  8
BLACK
  6
CONTINUOUS
100
AcDbLine
 10
2.616771653543307
 20
0.1516141732283464
 30
0
 11
2.616771653543307
 21
3.2283858267716536
 31
0
  0
LINE
  5
3B
330
1A
100
AcDbEntity
  8
BLACK
  6
CONTINUOUS
100
AcDbLine
 10
2.616771653543307
 20
3.2283858267716536
 30
0
 11
1.0159842519685038
 21
3.2283858267716536
 31
0
  0
LINE
  5
3C
330
1A
100
AcDbEntity
  8
BLACK
  6
CONTINUOUS
100
AcDbLine
 10
3.117032834645669
 20
2.3807950393700787
 30
0
 11
3.1180981889763779
 21
2.3797296850393699
 31
0
  0
LINE
  5
3D
330
1A
100
AcDbEntity
  8
BLACK
  6
CONTINUOUS
100
AcDbLine
 10
3.1180981889763779
 20
2.3797296850393699
 30
0
 11
3.118248031496063
 21
2.378976377952756
 31
0
  0
LINE
  5
3E
330
1A
100
AcDbEntity
  8
BLACK
  6
CONTINUOUS
100
AcDbLine
 10
3.118248031496063
 20
2.378976377952756
 30
0
 11
3.118248031496063
 21
2.3041732283464564
 31
0
  0
LINE
  5
3F
330
1A
100
AcDbEntity
  8
BLACK
  6
CONTINUOUS
100
AcDbLine
 10
3.118248031496063
 20
2.3041732283464564
 30
0
 11
3.1180981889763779
 21
2.3034199212598425
 31
0
  0
LINE
  5
40
330
1A
100
AcDbEntity
  8
BLACK
  6
CONTINUOUS
100
AcDbLine
 10
3.1180981889763779
 20
2.3034199212598425
 30
0
 11
3.117032834645669
 21
2.3023545669291337
 31
0
  0
LINE
  5
41
330
1A
100
AcDbEntity
  8
BLACK
  6
CONTINUOUS
100
AcDbLine
 10
3.117032834645669
 20
2.3023545669291337
 30
0
 11
3.1162795275590551
 21
2.3022047244094486
 31
0
  0
LINE
  5
42
330
1A
100
AcDbEntity
  8
BLACK
  6
CONTINUOUS
100
AcDbLine
 10
3.1162795275590551
 20
2.3022047244094486
 30
0
 11
2.9839960629921261
 21
2.3022047244094486
 31
0
  0
LINE
  5
43
330
1A
100
AcDbEntity
  8
BLACK
  6
CONTINUOUS
100
AcDbLine
 10
2.9839960629921261
 20
2.3022047244094486
 30
0
 11
2.9832427559055117
 21
2.3023545669291337
 31
0
  0
LINE
  5
44
330
1A
100
AcDbEntity
  8
BLACK
  6
CONTINUOUS
100
AcDbLine
 10
2.9832427559055117
 20
2.3023545669291337
 30
0
 11
2.9821774015748033
 21
2.3034199212598425
 31
0
  0
LINE
  5
45
330
1A
100
AcDbEntity
  8
BLACK
  6
CONTINUOUS
100
AcDbLine
 10
2.9821774015748033
 20
2.3034199212598425
 30
0
 11
2.9820275590551182
 21
2.3041732283464564
 31
0
  0
LINE
  5
46
330
1A
100
AcDbEntity
  8
BLACK
  6
CONTINUOUS
100
AcDbLine
 10
2.9820275590551182
 20
2.3041732283464564
 30
0
 11
2.9820275590551182
 21
2.378976377952756
 31
0
  0
LINE
  5
47
330
1A
100
AcDbEntity
  8
BLACK
  6
CONTINUOUS
100
AcDbLine
 10
2.9820275590551182
 20
2.378976377952756
 30
0
 11
2.9821774015748033
 21
2.3797296850393699
 31
0
  0
LINE
  5
48
330
1A
100
AcDbEntity
  8
BLACK
  6
CONTINUOUS
100
AcDbLine
 10
2.9821774015748033
 20
2.3797296850393699
 30
0
 11
2.9832427559055117
 21
2.3807950393700787
 31
0
  0
LINE
  5
49
330
1A
100
AcDbEntity
  8
BLACK
  6
CONTINUOUS
100
AcDbLine
 10
2.9832427559055117
 20
2.3807950393700787
 30
0
 11
2.9839960629921261
 21
2.3809448818897638
 31
0
  0
LINE
  5
4A
330
1A
100
AcDbEntity
  8
BLACK
  6
CONTINUOUS
100
AcDbLine
 10
2.9839960629921261
 20
2.3809448818897638
 30
0
 11
3.1162795275590551
 21
2.3809448818897638
 31
0
  0
LINE
  5
4B
330
1A
100
AcDbEntity
  8
BLACK
  6
CONTINUOUS
100
AcDbLine
 10
3.1162795275590551
 20
2.3809448818897638
 30
0
 11
3.117032834645669
 21
2.3807950393700787
 31
0
  0
LINE
  5
4C
330
1A
100
AcDbEntity
  8
BLACK
  6
CONTINUOUS
100
AcDbLine
 10
2.9859645669291339
 20
2.3770078740157481
 30
0
 11
2.9859645669291339
 21
2.3061417322834643
 31
0
  0
LINE
  5
4D
330
1A
100
AcDbEntity
  8
BLACK
  6
CONTINUOUS
100
AcDbLine
 10
2.9859645669291339
 20
2.3061417322834643
 30
0
 11
3.1143110236220473
 21
2.3061417322834643
 31
0
  0
LINE
  5
4E
330
1A
100
AcDbEntity
  8
BLACK
  6
CONTINUOUS
100
AcDbLine
 10
3.1143110236220473
 20
2.3061417322834643
 30
0
 11
3.1143110236220473
 21
2.3770078740157481
 31
0
  0
LINE
  5
4F
330
1A
100
AcDbEntity
  8
BLACK
  6
CONTINUOUS
100
AcDbLine
 10
3.1143110236220473
 20
2.3770078740157481
 30
0
 11
2.9859645669291339
 21
2.3770078740157481
 31
0
  0
LINE
  5
50
330
1A
100
AcDbEntity
  8
BLACK
  6
CONTINUOUS
100
AcDbLine
 10
3.117032834645669
 20
2.4615037007874014
 30
0
 11
3.1180981889763779
 21
2.460438346456693
 31
0
  0
LINE
  5
51
330
1A
100
AcDbEntity
  8
BLACK
  6
CONTINUOUS
100
AcDbLine
 10
3.1180981889763779
 20
2.460438346456693
 30
0
 11
3.118248031496063
 21
2.4596850393700787
 31
0
  0
LINE
  5
52
330
1A
100
AcDbEntity
  8
BLACK
  6
CONTINUOUS
100
AcDbLine
 10
3.118248031496063
 20
2.4596850393700787
 30
0
 11
3.118248031496063
 21
2.3848818897637796
 31
0
  0
LINE
  5
53
330
1A
100
AcDbEntity
  8
BLACK
  6
CONTINUOUS
100
AcDbLine
 10
3.118248031496063
 20
2.3848818897637796
 30
0
 11
3.1180981889763779
 21
2.3841285826771652
 31
0
  0
LINE
  5
54
330
1A
100
AcDbEntity
  8
BLACK
  6
CONTINUOUS
100
AcDbLine
 10
3.1180981889763779
 20
2.3841285826771652
 30
0
 11
3.117032834645669
 21
2.3830632283464568
 31
0
  0
LINE
  5
55
330
1A
100
AcDbEntity
  8
BLACK
  6
CONTINUOUS
100
AcDbLine
 10
3.117032834645669
 20
2.3830632283464568
 30
0
 11
3.1162795275590551
 21
2.3829133858267717
 31
0
  0
LINE
  5
56
330
1A
100
AcDbEntity
  8
BLACK
  6
CONTINUOUS
100
AcDbLine
 10
3.1162795275590551
 20
2.3829133858267717
 30
0
 11
2.9839960629921261
 21
2.3829133858267717
 31
0
  0
LINE
  5
57
330
1A
100
AcDbEntity
  8
BLACK
  6
CONTINUOUS
100
AcDbLine
 10
2.9839960629921261
 20
2.3829133858267717
 30
0
 11
2.9832427559055117
 21
2.3830632283464568
 31
0
  0
LINE
  5
58
330
1A
100
AcDbEntity
  8
BLACK
  6
CONTINUOUS
100
AcDbLine
 10
2.9832427559055117
 20
2.3830632283464568
 30
0
 11
2.9821774015748033
 21
2.3841285826771652
 31
0
  0
LINE
  5
59
330
1A
100
AcDbEntity
  8
BLACK
  6
CONTINUOUS
100
AcDbLine
 10
2.9821774015748033
 20
2.3841285826771652
 30
0
 11
2.9820275590551182
 21
2.3848818897637796
 31
0
  0
LINE
  5
5A
330
1A
100
AcDbEntity
  8
BLACK
  6
CONTINUOUS
100
AcDbLine
 10
2.9820275590551182
 20
2.3848818897637796
 30
0
 11
2.9820275590551182
 21
2.4596850393700787
 31
0
  0
LINE
  5
5B
330
1A
100
AcDbEntity
  8
BLACK
  6
CONTINUOUS
100
AcDbLine
 10
2.9820275590551182
 20
2.4596850393700787
 30
0
 11
2.9821774015748033
 21
2.460438346456693
 31
0
  0
LINE
  5
5C
330
1A
100
AcDbEntity
  8
BLACK
  6
CONTINUOUS
100
AcDbLine
 10
2.9821774015748033
 20
2.460438346456693
 30
0
 11
2.9832427559055117
 21
2.4615037007874014
 31
0
  0
LINE
  5
5D
330
1A
100
AcDbEntity
  8
BLACK
  6
CONTINUOUS
100
AcDbLine
 10
2.9832427559055117
 20
2.4615037007874014
 30
0
 11
2.9839960629921261
 21
2.4616535433070865
 31
0
  0
LINE
  5
5E
330
1A
100
AcDbEntity
  8
BLACK
  6
CONTINUOUS
100
AcDbLine
 10
2.9839960629921261
 20
2.4616535433070865
 30
0
 11
3.1162795275590551
 21
2.4616535433070865
 31
0
  0
LINE
  5
5F
330
1A
100
AcDbEntity
  8
BLACK
  6
CONTINUOUS
100
AcDbLine
 10
3.1162795275590551
 20
2.4616535433070865
 30
0
 11
3.117032834645669
 21
2.4615037007874014
 31
0
  0
LINE
  5
60
330
1A
100
AcDbEntity
  8
BLACK
  6
CONTINUOUS
100
AcDbLine
 10
2.9859645669291339
 20
2.4577165354330708
 30
0
 11
2.9859645669291339
 21
2.3868503937007874
 31
0
  0
LINE
  5
61
330
1A
100
AcDbEntity
  8
BLACK
  6
CONTINUOUS
100
AcDbLine
 10
2.9859645669291339
 20
2.3868503937007874
 30
0
 11
3.1143110236220473
 21
2.3868503937007874
 31
0
  0
LINE
  5
62
330
1A
100
AcDbEntity
  8
BLACK
  6
CONTINUOUS
100
AcDbLine
 10
3.1143110236220473
 20
2.3868503937007874
 30
0
 11
3.1143110236220473
 21
2.4577165354330708
 31
0
  0
LINE
  5
63
330
1A
100
AcDbEntity
  8
BLACK
  6
CONTINUOUS
100
AcDbLine
 10
3.1143110236220473
 20
2.4577165354330708
 30
0
 11
2.9859645669291339
 21
2.4577165354330708
 31
0
  0
LINE
  5
64
330
1A
100
AcDbEntity
  8
BLACK
  6
CONTINUOUS
100
AcDbLine
 10
4.9956916141732286
 20
3.2302794094488188
 30
0
 11
4.9962242913385824
 21
3.2297467322834645
 31
0
  0
LINE
  5
65
330
1A
100
AcDbEntity
  8
BLACK
  6
CONTINUOUS
100
AcDbLine
 10
4.9962242913385824
 20
3.2297467322834645
 30
0
 11
4.9962992125984247
 21
3.2293700787401574
 31
0
  0
LINE
  5
66
330
1A
100
AcDbEntity
  8
BLACK
  6
CONTINUOUS
100
AcDbLine
 10
4.9962992125984247
 20
3.2293700787401574
 30
0
 11
4.9962992125984247
 21
0.1506299212598425
 31
0
  0
LINE
  5
67
330
1A
100
AcDbEntity
  8
BLACK
  6
CONTINUOUS
100
AcDbLine
 10
4.9962992125984247
 20
0.1506299212598425
 30
0
 11
4.9962242913385824
 21
0.1502532677165354
 31
0
  0
LINE
  5
68
330
1A
100
AcDbEntity
  8
BLACK
  6
CONTINUOUS
100
AcDbLine
 10
4.9962242913385824
 20
0.1502532677165354
 30
0
 11
4.9956916141732286
 21
0.1497205905511811
 31
0
  0
LINE
  5
69
330
1A
100
AcDbEntity
  8
BLACK
  6
CONTINUOUS
100
AcDbLine
 10
4.9956916141732286
 20
0.1497205905511811
 30
0
 11
4.995314960629921
 21
0.1496456692913386
 31
0
  0
LINE
  5
6A
330
1A
100
AcDbEntity
  8
BLACK
  6
CONTINUOUS
100
AcDbLine
 10
4.995314960629921
 20
0.1496456692913386
 30
0
 11
2.6256299212598426
 21
0.1496456692913386
 31
0
  0
LINE
  5
6B
330
1A
100
AcDbEntity
  8
BLACK
  6
CONTINUOUS
100
AcDbLine
 10
2.6256299212598426
 20
0.1496456692913386
 30
0
 11
2.6252532677165354
 21
0.1497205905511811
 31
0
  0
LINE
  5
6C
330
1A
100
AcDbEntity
  8
BLACK
  6
CONTINUOUS
100
AcDbLine
 10
2.6252532677165354
 20
0.1497205905511811
 30
0
 11
2.6247205905511812
 21
0.1502532677165354
 31
0
  0
LINE
  5
6D
330
1A
100
AcDbEntity
  8
BLACK
  6
CONTINUOUS
100
AcDbLine
 10
2.6247205905511812
 20
0.1502532677165354
 30
0
 11
2.6246456692913385
 21
0.1506299212598425
 31
0
  0
LINE
  5
6E
330
1A
100
AcDbEntity
  8
BLACK
  6
CONTINUOUS
100
AcDbLine
 10
2.6246456692913385
 20
0.1506299212598425
 30
0
 11
2.6246456692913385
 21
3.2293700787401574
 31
0
  0
LINE
  5
6F
330
1A
100
AcDbEntity
  8
BLACK
  6
CONTINUOUS
100
AcDbLine
 10
2.6246456692913385
 20
3.2293700787401574
 30
0
 11
2.6247205905511812
 21
3.2297467322834645
 31
0
  0
LINE
  5
70
330
1A
100
AcDbEntity
  8
BLACK
  6
CONTINUOUS
100
AcDbLine
 10
2.6247205905511812
 20
3.2297467322834645
 30
0
 11
2.6252532677165354
 21
3.2302794094488188
 31
0
  0
LINE
  5
71
330
1A
100
AcDbEntity
  8
BLACK
  6
CONTINUOUS
100
AcDbLine
 10
2.6252532677165354
 20
3.2302794094488188
 30
0
 11
2.6256299212598426
 21
3.2303543307086615
 31
0
  0
LINE
  5
72
330
1A
100
AcDbEntity
  8
BLACK
  6
CONTINUOUS
100
AcDbLine
 10
2.6256299212598426
 20
3.2303543307086615
 30
0
 11
4.995314960629921
 21
3.2303543307086615
 31
0
  0
LINE
  5
73
330
1A
100
AcDbEntity
  8
BLACK
  6
CONTINUOUS
100
AcDbLine
 10
4.995314960629921
 20
3.2303543307086615
 30
0
 11
4.9956916141732286
 21
3.2302794094488188
 31
0
  0
LINE
  5
74
330
1A
100
AcDbEntity
  8
BLACK
  6
CONTINUOUS
100
AcDbLine
 10
2.6266141732283463
 20
3.2283858267716536
 30
0
 11
2.6266141732283463
 21
0.1516141732283464
 31
0
  0
LINE
  5
75
330
1A
100
AcDbEntity
  8
BLACK
  6
CONTINUOUS
100
AcDbLine
 10
2.6266141732283463
 20
0.1516141732283464
 30
0
 11
4.9943307086614173
 21
0.1516141732283464
 31
0
  0
LINE
  5
76
330
1A
100
AcDbEntity
  8
BLACK
  6
CONTINUOUS
100
AcDbLine
 10
4.9943307086614173
 20
0.1516141732283464
 30
0
 11
4.9943307086614173
 21
3.2283858267716536
 31
0
  0
LINE
  5
77
330
1A
100
AcDbEntity
  8
BLACK
  6
CONTINUOUS
100
AcDbLine
 10
4.9943307086614173
 20
3.2283858267716536
 30
0
 11
2.6266141732283463
 21
3.2283858267716536
 31
0
  0
LINE
  5
78
330
1A
100
AcDbEntity
  8
BLACK
  6
CONTINUOUS
100
AcDbLine
 10
5.2710682677165357
 20
1.9740780314960629
 30
0
 11
5.2721336220472441
 21
1.9730126771653542
 31
0
  0
LINE
  5
79
330
1A
100
AcDbEntity
  8
BLACK
  6
CONTINUOUS
100
AcDbLine
 10
5.2721336220472441
 20
1.9730126771653542
 30
0
 11
5.2722834645669288
 21
1.9722593700787401
 31
0
  0
LINE
  5
7A
330
1A
100
AcDbEntity
  8
BLACK
  6
CONTINUOUS
100
AcDbLine
 10
5.2722834645669288
 20
1.9722593700787401
 30
0
 11
5.2722834645669288
 21
1.897456220472441
 31
0
  0
LINE
  5
7B
330
1A
100
AcDbEntity
  8
BLACK
  6
CONTINUOUS
100
AcDbLine
 10
5.2722834645669288
 20
1.897456220472441
 30
0
 11
5.2722202755905512
 21
1.8971386220472441
 31
0
  0
LINE
  5
7C
330
1A
100
AcDbEntity
  8
BLACK
  6
CONTINUOUS
100
AcDbLine
 10
5.2722202755905512
 20
1.8971386220472441
 30
0
 11
5.2731178740157478
 21
1.8962410236220473
 31
0
  0
LINE
  5
7D
330
1A
100
AcDbEntity
  8
BLACK
  6
CONTINUOUS
100
AcDbLine
 10
5.2731178740157478
 20
1.8962410236220473
 30
0
 11
5.2732677165354334
 21
1.8954877165354331
 31
0
  0
LINE
  5
7E
330
1A
100
AcDbEntity
  8
BLACK
  6
CONTINUOUS
100
AcDbLine
 10
5.2732677165354334
 20
1.8954877165354331
 30
0
 11
5.2732677165354334
 21
1.8206845669291338
 31
0
  0
LINE
  5
7F
330
1A
100
AcDbEntity
  8
BLACK
  6
CONTINUOUS
100
AcDbLine
 10
5.2732677165354334
 20
1.8206845669291338
 30
0
 11
5.2732045275590549
 21
1.820366968503937
 31
0
  0
LINE
  5
80
330
1A
100
AcDbEntity
  8
BLACK
  6
CONTINUOUS
100
AcDbLine
 10
5.2732045275590549
 20
1.820366968503937
 30
0
 11
5.2741021259842515
 21
1.8194693700787401
 31
0
  0
LINE
  5
81
330
1A
100
AcDbEntity
  8
BLACK
  6
CONTINUOUS
100
AcDbLine
 10
5.2741021259842515
 20
1.8194693700787401
 30
0
 11
5.2742519685039371
 21
1.818716062992126
 31
0
  0
LINE
  5
82
330
1A
100
AcDbEntity
  8
BLACK
  6
CONTINUOUS
100
AcDbLine
 10
5.2742519685039371
 20
1.818716062992126
 30
0
 11
5.2742519685039371
 21
1.7439129133858267
 31
0
  0
LINE
  5
83
330
1A
100
AcDbEntity
  8
BLACK
  6
CONTINUOUS
100
AcDbLine
 10
5.2742519685039371
 20
1.7439129133858267
 30
0
 11
5.2741887795275586
 21
1.7435953149606298
 31
0
  0
LINE
  5
84
330
1A
100
AcDbEntity
  8
BLACK
  6
CONTINUOUS
100
AcDbLine
 10
5.2741887795275586
 20
1.7435953149606298
 30
0
 11
5.2750863779527561
 21
1.7426977165354329
 31
0
  0
LINE
  5
85
330
1A
100
AcDbEntity
  8
BLACK
  6
CONTINUOUS
100
AcDbLine
 10
5.2750863779527561
 20
1.7426977165354329
 30
0
 11
5.2752362204724408
 21
1.7419444094488188
 31
0
  0
LINE
  5
86
330
1A
100
AcDbEntity
  8
BLACK
  6
CONTINUOUS
100
AcDbLine
 10
5.2752362204724408
 20
1.7419444094488188
 30
0
 11
5.2752362204724408
 21
1.6671412598425197
 31
0
  0
LINE
  5
87
330
1A
100
AcDbEntity
  8
BLACK
  6
CONTINUOUS
100
AcDbLine
 10
5.2752362204724408
 20
1.6671412598425197
 30
0
 11
5.2750863779527561
 21
1.6663879527559056
 31
0
  0
LINE
  5
88
330
1A
100
AcDbEntity
  8
BLACK
  6
CONTINUOUS
100
AcDbLine
 10
5.2750863779527561
 20
1.6663879527559056
 30
0
 11
5.2740210236220468
 21
1.6653225984251969
 31
0
  0
LINE
  5
89
330
1A
100
AcDbEntity
  8
BLACK
  6
CONTINUOUS
100
AcDbLine
 10
5.2740210236220468
 20
1.6653225984251969
 30
0
 11
5.2732677165354334
 21
1.6651727559055118
 31
0
  0
LINE
  5
8A
330
1A
100
AcDbEntity
  8
BLACK
  6
CONTINUOUS
100
AcDbLine
 10
5.2732677165354334
 20
1.6651727559055118
 30
0
 11
5.1409842519685034
 21
1.6651727559055118
 31
0
  0
LINE
  5
8B
330
1A
100
AcDbEntity
  8
BLACK
  6
CONTINUOUS
100
AcDbLine
 10
5.1409842519685034
 20
1.6651727559055118
 30
0
 11
5.1402309448818899
 21
1.6653225984251969
 31
0
  0
LINE
  5
8C
330
1A
100
AcDbEntity
  8
BLACK
  6
CONTINUOUS
100
AcDbLine
 10
5.1402309448818899
 20
1.6653225984251969
 30
0
 11
5.1391655905511806
 21
1.6663879527559056
 31
0
  0
LINE
  5
8D
330
1A
100
AcDbEntity
  8
BLACK
  6
CONTINUOUS
100
AcDbLine
 10
5.1391655905511806
 20
1.6663879527559056
 30
0
 11
5.139015748031496
 21
1.6671412598425197
 31
0
  0
LINE
  5
8E
330
1A
100
AcDbEntity
  8
BLACK
  6
CONTINUOUS
100
AcDbLine
 10
5.139015748031496
 20
1.6671412598425197
 30
0
 11
5.139015748031496
 21
1.7419444094488188
 31
0
  0
LINE
  5
8F
330
1A
100
AcDbEntity
  8
BLACK
  6
CONTINUOUS
100
AcDbLine
 10
5.139015748031496
 20
1.7419444094488188
 30
0
 11
5.1390788976377948
 21
1.7422620472440944
 31
0
  0
LINE
  5
90
330
1A
100
AcDbEntity
  8
BLACK
  6
CONTINUOUS
100
AcDbLine
 10
5.1390788976377948
 20
1.7422620472440944
 30
0
 11
5.1381813385826769
 21
1.7431596062992125
 31
0
  0
LINE
  5
91
330
1A
100
AcDbEntity
  8
BLACK
  6
CONTINUOUS
100
AcDbLine
 10
5.1381813385826769
 20
1.7431596062992125
 30
0
 11
5.1380314960629923
 21
1.7439129133858267
 31
0
  0
LINE
  5
92
330
1A
100
AcDbEntity
  8
BLACK
  6
CONTINUOUS
100
AcDbLine
 10
5.1380314960629923
 20
1.7439129133858267
 30
0
 11
5.1380314960629923
 21
1.818716062992126
 31
0
  0
LINE
  5
93
330
1A
100
AcDbEntity
  8
BLACK
  6
CONTINUOUS
100
AcDbLine
 10
5.1380314960629923
 20
1.818716062992126
 30
0
 11
5.1380946456692911
 21
1.8190337007874016
 31
0
  0
LINE
  5
94
330
1A
100
AcDbEntity
  8
BLACK
  6
CONTINUOUS
100
AcDbLine
 10
5.1380946456692911
 20
1.8190337007874016
 30
0
 11
5.1371970866141732
 21
1.8199312598425197
 31
0
  0
LINE
  5
95
330
1A
100
AcDbEntity
  8
BLACK
  6
CONTINUOUS
100
AcDbLine
 10
5.1371970866141732
 20
1.8199312598425197
 30
0
 11
5.1370472440944877
 21
1.8206845669291338
 31
0
  0
LINE
  5
96
330
1A
100
AcDbEntity
  8
BLACK
  6
CONTINUOUS
100
AcDbLine
 10
5.1370472440944877
 20
1.8206845669291338
 30
0
 11
5.1370472440944877
 21
1.8954877165354331
 31
0
  0
LINE
  5
97
330
1A
100
AcDbEntity
  8
BLACK
  6
CONTINUOUS
100
AcDbLine
 10
5.1370472440944877
 20
1.8954877165354331
 30
0
 11
5.1371103937007874
 21
1.8958053543307085
 31
0
  0
LINE
  5
98
330
1A
100
AcDbEntity
  8
BLACK
  6
CONTINUOUS
100
AcDbLine
 10
5.1371103937007874
 20
1.8958053543307085
 30
0
 11
5.1362128346456695
 21
1.8967029133858266
 31
0
  0
LINE
  5
99
330
1A
100
AcDbEntity
  8
BLACK
  6
CONTINUOUS
100
AcDbLine
 10
5.1362128346456695
 20
1.8967029133858266
 30
0
 11
5.1360629921259839
 21
1.897456220472441
 31
0
  0
LINE
  5
9A
330
1A
100
AcDbEntity
  8
BLACK
  6
CONTINUOUS
100
AcDbLine
 10
5.1360629921259839
 20
1.897456220472441
 30
0
 11
5.1360629921259839
 21
1.9722593700787401
 31
0
  0
LINE
  5
9B
330
1A
100
AcDbEntity
  8
BLACK
  6
CONTINUOUS
100
AcDbLine
 10
5.1360629921259839
 20
1.9722593700787401
 30
0
 11
5.1362128346456695
 21
1.9730126771653542
 31
0
  0
LINE
  5
9C
330
1A
100
AcDbEntity
  8
BLACK
  6
CONTINUOUS
100
AcDbLine
 10
5.1362128346456695
 20
1.9730126771653542
 30
0
 11
5.1372781889763779
 21
1.9740780314960629
 31
0
  0
LINE
  5
9D
330
1A
100
AcDbEntity
  8
BLACK
  6
CONTINUOUS
100
AcDbLine
 10
5.1372781889763779
 20
1.9740780314960629
 30
0
 11
5.1380314960629923
 21
1.974227874015748
 31
0
  0
LINE
  5
9E
330
1A
100
AcDbEntity
  8
BLACK
  6
CONTINUOUS
100
AcDbLine
 10
5.1380314960629923
 20
1.974227874015748
 30
0
 11
5.2703149606299213
 21
1.974227874015748
 31
0
  0
LINE
  5
9F
330
1A
100
AcDbEntity
  8
BLACK
  6
CONTINUOUS
100
AcDbLine
 10
5.2703149606299213
 20
1.974227874015748
 30
0
 11
5.2710682677165357
 21
1.9740780314960629
 31
0
  0
LINE
  5
A0
330
1A
100
AcDbEntity
  8
BLACK
  6
CONTINUOUS
100
AcDbLine
 10
5.1429527559055117
 20
1.7399759055118109
 30
0
 11
5.1429527559055117
 21
1.6691097637795276
 31
0
  0
LINE
  5
A1
330
1A
100
AcDbEntity
  8
BLACK
  6
CONTINUOUS
100
AcDbLine
 10
5.1429527559055117
 20
1.6691097637795276
 30
0
 11
5.271299212598425
 21
1.6691097637795276
 31
0
  0
LINE
  5
A2
330
1A
100
AcDbEntity
  8
BLACK
  6
CONTINUOUS
100
AcDbLine
 10
5.271299212598425
 20
1.6691097637795276
 30
0
 11
5.271299212598425
 21
1.7399759055118109
 31
0
  0
LINE
  5
A3
330
1A
100
AcDbEntity
  8
BLACK
  6
CONTINUOUS
100
AcDbLine
 10
5.271299212598425
 20
1.7399759055118109
 30
0
 11
5.1429527559055117
 21
1.7399759055118109
 31
0
  0
LINE
  5
A4
330
1A
100
AcDbEntity
  8
BLACK
  6
CONTINUOUS
100
AcDbLine
 10
5.141968503937008
 20
1.8167475590551181
 30
0
 11
5.141968503937008
 21
1.7458814173228345
 31
0
  0
LINE
  5
A5
330
1A
100
AcDbEntity
  8
BLACK
  6
CONTINUOUS
100
AcDbLine
 10
5.141968503937008
 20
1.7458814173228345
 30
0
 11
5.2703149606299213
 21
1.7458814173228345
 31
0
  0
LINE
  5
A6
330
1A
100
AcDbEntity
  8
BLACK
  6
CONTINUOUS
100
AcDbLine
 10
5.2703149606299213
 20
1.7458814173228345
 30
0
 11
5.2703149606299213
 21
1.8167475590551181
 31
0
  0
LINE
  5
A7
330
1A
100
AcDbEntity
  8
BLACK
  6
CONTINUOUS
100
AcDbLine
 10
5.2703149606299213
 20
1.8167475590551181
 30
0
 11
5.141968503937008
 21
1.8167475590551181
 31
0
  0
LINE
  5
A8
330
1A
100
AcDbEntity
  8
BLACK
  6
CONTINUOUS
100
AcDbLine
 10
5.1409842519685034
 20
1.8935192125984253
 30
0
 11
5.1409842519685034
 21
1.8226530708661417
 31
0
  0
LINE
  5
A9
330
1A
100
AcDbEntity
  8
BLACK
  6
CONTINUOUS
100
AcDbLine
 10
5.1409842519685034
 20
1.8226530708661417
 30
0
 11
5.2693307086614176
 21
1.8226530708661417
 31
0
  0
LINE
  5
AA
330
1A
100
AcDbEntity
  8
BLACK
  6
CONTINUOUS
100
AcDbLine
 10
5.2693307086614176
 20
1.8226530708661417
 30
0
 11
5.2693307086614176
 21
1.8935192125984253
 31
0
  0
LINE
  5
AB
330
1A
100
AcDbEntity
  8
BLACK
  6
CONTINUOUS
100
AcDbLine
 10
5.2693307086614176
 20
1.8935192125984253
 30
0
 11
5.1409842519685034
 21
1.8935192125984253
 31
0
  0
LINE
  5
AC
330
1A
100
AcDbEntity
  8
BLACK
  6
CONTINUOUS
100
AcDbLine
 10
5.1399999999999997
 20
1.9702908661417322
 30
0
 11
5.1399999999999997
 21
1.8994247244094489
 31
0
  0
LINE
  5
AD
330
1A
100
AcDbEntity
  8
BLACK
  6
CONTINUOUS
100
AcDbLine
 10
5.1399999999999997
 20
1.8994247244094489
 30
0
 11
5.268346456692913
 21
1.8994247244094489
 31
0
  0
LINE
  5
AE
330
1A
100
AcDbEntity
  8
BLACK
  6
CONTINUOUS
100
AcDbLine
 10
5.268346456692913
 20
1.8994247244094489
 30
0
 11
5.268346456692913
 21
1.9702908661417322
 31
0
  0
LINE
  5
AF
330
1A
100
AcDbEntity
  8
BLACK
  6
CONTINUOUS
100
AcDbLine
 10
5.268346456692913
 20
1.9702908661417322
 30
0
 11
5.1399999999999997
 21
1.9702908661417322
 31
0
  0
LINE
  5
B0
330
1A
100
AcDbEntity
  8
BLACK
  6
CONTINUOUS
100
AcDbLine
 10
5.2715603937007876
 20
2.4504559842519686
 30
0
 11
5.272625748031496
 21
2.4493906299212598
 31
0
  0
LINE
  5
B1
330
1A
100
AcDbEntity
  8
BLACK
  6
CONTINUOUS
100
AcDbLine
 10
5.272625748031496
 20
2.4493906299212598
 30
0
 11
5.2727755905511806
 21
2.4486373228346454
 31
0
  0
LINE
  5
B2
330
1A
100
AcDbEntity
  8
BLACK
  6
CONTINUOUS
100
AcDbLine
 10
5.2727755905511806
 20
2.4486373228346454
 30
0
 11
5.2727755905511806
 21
2.3738341732283463
 31
0
  0
LINE
  5
B3
330
1A
100
AcDbEntity
  8
BLACK
  6
CONTINUOUS
100
AcDbLine
 10
5.2727755905511806
 20
2.3738341732283463
 30
0
 11
5.272625748031496
 21
2.3730808661417324
 31
0
  0
LINE
  5
B4
330
1A
100
AcDbEntity
  8
BLACK
  6
CONTINUOUS
100
AcDbLine
 10
5.272625748031496
 20
2.3730808661417324
 30
0
 11
5.2723948031496057
 21
2.3728499212598426
 31
0
  0
LINE
  5
B5
330
1A
100
AcDbEntity
  8
BLACK
  6
CONTINUOUS
100
AcDbLine
 10
5.2723948031496057
 20
2.3728499212598426
 30
0
 11
5.272625748031496
 21
2.3726189763779528
 31
0
  0
LINE
  5
B6
330
1A
100
AcDbEntity
  8
BLACK
  6
CONTINUOUS
100
AcDbLine
 10
5.272625748031496
 20
2.3726189763779528
 30
0
 11
5.2727755905511806
 21
2.3718656692913385
 31
0
  0
LINE
  5
B7
330
1A
100
AcDbEntity
  8
BLACK
  6
CONTINUOUS
100
AcDbLine
 10
5.2727755905511806
 20
2.3718656692913385
 30
0
 11
5.2727755905511806
 21
2.2970625196850394
 31
0
  0
LINE
  5
B8
330
1A
100
AcDbEntity
  8
BLACK
  6
CONTINUOUS
100
AcDbLine
 10
5.2727755905511806
 20
2.2970625196850394
 30
0
 11
5.272625748031496
 21
2.296309212598425
 31
0
  0
LINE
  5
B9
330
1A
100
AcDbEntity
  8
BLACK
  6
CONTINUOUS
100
AcDbLine
 10
5.272625748031496
 20
2.296309212598425
 30
0
 11
5.2719026771653539
 21
2.2955861417322834
 31
0
  0
LINE
  5
BA
330
1A
100
AcDbEntity
  8
BLACK
  6
CONTINUOUS
100
AcDbLine
 10
5.2719026771653539
 20
2.2955861417322834
 30
0
 11
5.272625748031496
 21
2.2948630708661417
 31
0
  0
LINE
  5
BB
330
1A
100
AcDbEntity
  8
BLACK
  6
CONTINUOUS
100
AcDbLine
 10
5.272625748031496
 20
2.2948630708661417
 30
0
 11
5.2727755905511806
 21
2.2941097637795274
 31
0
  0
LINE
  5
BC
330
1A
100
AcDbEntity
  8
BLACK
  6
CONTINUOUS
100
AcDbLine
 10
5.2727755905511806
 20
2.2941097637795274
 30
0
 11
5.2727755905511806
 21
2.2193066141732283
 31
0
  0
LINE
  5
BD
330
1A
100
AcDbEntity
  8
BLACK
  6
CONTINUOUS
100
AcDbLine
 10
5.2727755905511806
 20
2.2193066141732283
 30
0
 11
5.272625748031496
 21
2.2185533070866139
 31
0
  0
LINE
  5
BE
330
1A
100
AcDbEntity
  8
BLACK
  6
CONTINUOUS
100
AcDbLine
 10
5.272625748031496
 20
2.2185533070866139
 30
0
 11
5.2722834645669288
 21
2.2182110236220471
 31
0
  0
LINE
  5
BF
330
1A
100
AcDbEntity
  8
BLACK
  6
CONTINUOUS
100
AcDbLine
 10
5.2722834645669288
 20
2.2182110236220471
 30
0
 11
5.2722834645669288
 21
2.143519212598425
 31
0
  0
LINE
  5
C0
330
1A
100
AcDbEntity
  8
BLACK
  6
CONTINUOUS
100
AcDbLine
 10
5.2722834645669288
 20
2.143519212598425
 30
0
 11
5.2721336220472441
 21
2.1427659055118111
 31
0
  0
LINE
  5
C1
330
1A
100
AcDbEntity
  8
BLACK
  6
CONTINUOUS
100
AcDbLine
 10
5.2721336220472441
 20
2.1427659055118111
 30
0
 11
5.2710682677165357
 21
2.1417005511811023
 31
0
  0
LINE
  5
C2
330
1A
100
AcDbEntity
  8
BLACK
  6
CONTINUOUS
100
AcDbLine
 10
5.2710682677165357
 20
2.1417005511811023
 30
0
 11
5.2703149606299213
 21
2.1415507086614172
 31
0
  0
LINE
  5
C3
330
1A
100
AcDbEntity
  8
BLACK
  6
CONTINUOUS
100
AcDbLine
 10
5.2703149606299213
 20
2.1415507086614172
 30
0
 11
5.1380314960629923
 21
2.1415507086614172
 31
0
  0
LINE
  5
C4
330
1A
100
AcDbEntity
  8
BLACK
  6
CONTINUOUS
100
AcDbLine
 10
5.1380314960629923
 20
2.1415507086614172
 30
0
 11
5.1372781889763779
 21
2.1417005511811023
 31
0
  0
LINE
  5
C5
330
1A
100
AcDbEntity
  8
BLACK
  6
CONTINUOUS
100
AcDbLine
 10
5.1372781889763779
 20
2.1417005511811023
 30
0
 11
5.1362128346456695
 21
2.1427659055118111
 31
0
  0
LINE
  5
C6
330
1A
100
AcDbEntity
  8
BLACK
  6
CONTINUOUS
100
AcDbLine
 10
5.1362128346456695
 20
2.1427659055118111
 30
0
 11
5.1360629921259839
 21
2.143519212598425
 31
0
  0
LINE
  5
C7
330
1A
100
AcDbEntity
  8
BLACK
  6
CONTINUOUS
100
AcDbLine
 10
5.1360629921259839
 20
2.143519212598425
 30
0
 11
5.1360629921259839
 21
2.2183223622047246
 31
0
  0
LINE
  5
C8
330
1A
100
AcDbEntity
  8
BLACK
  6
CONTINUOUS
100
AcDbLine
 10
5.1360629921259839
 20
2.2183223622047246
 30
0
 11
5.1362128346456695
 21
2.2190756692913385
 31
0
  0
LINE
  5
C9
330
1A
100
AcDbEntity
  8
BLACK
  6
CONTINUOUS
100
AcDbLine
 10
5.1362128346456695
 20
2.2190756692913385
 30
0
 11
5.1365551181102358
 21
2.2194179527559053
 31
0
  0
LINE
  5
CA
330
1A
100
AcDbEntity
  8
BLACK
  6
CONTINUOUS
100
AcDbLine
 10
5.1365551181102358
 20
2.2194179527559053
 30
0
 11
5.1365551181102358
 21
2.2941097637795274
 31
0
  0
LINE
  5
CB
330
1A
100
AcDbEntity
  8
BLACK
  6
CONTINUOUS
100
AcDbLine
 10
5.1365551181102358
 20
2.2941097637795274
 30
0
 11
5.1367049606299213
 21
2.2948630708661417
 31
0
  0
LINE
  5
CC
330
1A
100
AcDbEntity
  8
BLACK
  6
CONTINUOUS
100
AcDbLine
 10
5.1367049606299213
 20
2.2948630708661417
 30
0
 11
5.1374280314960625
 21
2.2955861417322834
 31
0
  0
LINE
  5
CD
330
1A
100
AcDbEntity
  8
BLACK
  6
CONTINUOUS
100
AcDbLine
 10
5.1374280314960625
 20
2.2955861417322834
 30
0
 11
5.1367049606299213
 21
2.296309212598425
 31
0
  0
LINE
  5
CE
330
1A
100
AcDbEntity
  8
BLACK
  6
CONTINUOUS
100
AcDbLine
 10
5.1367049606299213
 20
2.296309212598425
 30
0
 11
5.1365551181102358
 21
2.2970625196850394
 31
0
  0
LINE
  5
CF
330
1A
100
AcDbEntity
  8
BLACK
  6
CONTINUOUS
100
AcDbLine
 10
5.1365551181102358
 20
2.2970625196850394
 30
0
 11
5.1365551181102358
 21
2.3718656692913385
 31
0
  0
LINE
  5
D0
330
1A
100
AcDbEntity
  8
BLACK
  6
CONTINUOUS
100
AcDbLine
 10
5.1365551181102358
 20
2.3718656692913385
 30
0
 11
5.1367049606299213
 21
2.3726189763779528
 31
0
  0
LINE
  5
D1
330
1A
100
AcDbEntity
  8
BLACK
  6
CONTINUOUS
100
AcDbLine
 10
5.1367049606299213
 20
2.3726189763779528
 30
0
 11
5.1369359055118107
 21
2.3728499212598426
 31
0
  0
LINE
  5
D2
330
1A
100
AcDbEntity
  8
BLACK
  6
CONTINUOUS
100
AcDbLine
 10
5.1369359055118107
 20
2.3728499212598426
 30
0
 11
5.1367049606299213
 21
2.3730808661417324
 31
0
  0
LINE
  5
D3
330
1A
100
AcDbEntity
  8
BLACK
  6
CONTINUOUS
100
AcDbLine
 10
5.1367049606299213
 20
2.3730808661417324
 30
0
 11
5.1365551181102358
 21
2.3738341732283463
 31
0
  0
LINE
  5
D4
330
1A
100
AcDbEntity
  8
BLACK
  6
CONTINUOUS
100
AcDbLine
 10
5.1365551181102358
 20
2.3738341732283463
 30
0
 11
5.1365551181102358
 21
2.4486373228346454
 31
0
  0
LINE
  5
D5
330
1A
100
AcDbEntity
  8
BLACK
  6
CONTINUOUS
100
AcDbLine
 10
5.1365551181102358
 20
2.4486373228346454
 30
0
 11
5.1367049606299213
 21
2.4493906299212598
 31
0
  0
LINE
  5
D6
330
1A
100
AcDbEntity
  8
BLACK
  6
CONTINUOUS
100
AcDbLine
 10
5.1367049606299213
 20
2.4493906299212598
 30
0
 11
5.1377703149606297
 21
2.4504559842519686
 31
0
  0
LINE
  5
D7
330
1A
100
AcDbEntity
  8
BLACK
  6
CONTINUOUS
100
AcDbLine
 10
5.1377703149606297
 20
2.4504559842519686
 30
0
 11
5.1385236220472441
 21
2.4506058267716533
 31
0
  0
LINE
  5
D8
330
1A
100
AcDbEntity
  8
BLACK
  6
CONTINUOUS
100
AcDbLine
 10
5.1385236220472441
 20
2.4506058267716533
 30
0
 11
5.2708070866141732
 21
2.4506058267716533
 31
0
  0
LINE
  5
D9
330
1A
100
AcDbEntity
  8
BLACK
  6
CONTINUOUS
100
AcDbLine
 10
5.2708070866141732
 20
2.4506058267716533
 30
0
 11
5.2715603937007876
 21
2.4504559842519686
 31
0
  0
LINE
  5
DA
330
1A
100
AcDbEntity
  8
BLACK
  6
CONTINUOUS
100
AcDbLine
 10
5.1399999999999997
 20
2.2163538582677167
 30
0
 11
5.1399999999999997
 21
2.1454877165354329
 31
0
  0
LINE
  5
DB
330
1A
100
AcDbEntity
  8
BLACK
  6
CONTINUOUS
100
AcDbLine
 10
5.1399999999999997
 20
2.1454877165354329
 30
0
 11
5.268346456692913
 21
2.1454877165354329
 31
0
  0
LINE
  5
DC
330
1A
100
AcDbEntity
  8
BLACK
  6
CONTINUOUS
100
AcDbLine
 10
5.268346456692913
 20
2.1454877165354329
 30
0
 11
5.268346456692913
 21
2.2163538582677167
 31
0
  0
LINE
  5
DD
330
1A
100
AcDbEntity
  8
BLACK
  6
CONTINUOUS
100
AcDbLine
 10
5.268346456692913
 20
2.2163538582677167
 30
0
 11
5.1399999999999997
 21
2.2163538582677167
 31
0
  0
LINE
  5
DE
330
1A
100
AcDbEntity
  8
BLACK
  6
CONTINUOUS
100
AcDbLine
 10
5.1404921259842515
 20
2.2921412598425195
 30
0
 11
5.1404921259842515
 21
2.2212751181102361
 31
0
  0
LINE
  5
DF
330
1A
100
AcDbEntity
  8
BLACK
  6
CONTINUOUS
100
AcDbLine
 10
5.1404921259842515
 20
2.2212751181102361
 30
0
 11
5.2688385826771649
 21
2.2212751181102361
 31
0
  0
LINE
  5
E0
330
1A
100
AcDbEntity
  8
BLACK
  6
CONTINUOUS
100
AcDbLine
 10
5.2688385826771649
 20
2.2212751181102361
 30
0
 11
5.2688385826771649
 21
2.2921412598425195
 31
0
  0
LINE
  5
E1
330
1A
100
AcDbEntity
  8
BLACK
  6
CONTINUOUS
100
AcDbLine
 10
5.2688385826771649
 20
2.2921412598425195
 30
0
 11
5.1404921259842515
 21
2.2921412598425195
 31
0
  0
LINE
  5
E2
330
1A
100
AcDbEntity
  8
BLACK
  6
CONTINUOUS
100
AcDbLine
 10
5.1404921259842515
 20
2.3698971653543306
 30
0
 11
5.1404921259842515
 21
2.2990310236220473
 31
0
  0
LINE
  5
E3
330
1A
100
AcDbEntity
  8
BLACK
  6
CONTINUOUS
100
AcDbLine
 10
5.1404921259842515
 20
2.2990310236220473
 30
0
 11
5.2688385826771649
 21
2.2990310236220473
 31
0
  0
LINE
  5
E4
330
1A
100
AcDbEntity
  8
BLACK
  6
CONTINUOUS
100
AcDbLine
 10
5.2688385826771649
 20
2.2990310236220473
 30
0
 11
5.2688385826771649
 21
2.3698971653543306
 31
0
  0
LINE
  5
E5
330
1A
100
AcDbEntity
  8
BLACK
  6
CONTINUOUS
100
AcDbLine
 10
5.2688385826771649
 20
2.3698971653543306
 30
0
 11
5.1404921259842515
 21
2.3698971653543306
 31
0
  0
LINE
  5
E6
330
1A
100
AcDbEntity
  8
BLACK
  6
CONTINUOUS
100
AcDbLine
 10
5.1404921259842515
 20
2.4466688188976375
 30
0
 11
5.1404921259842515
 21
2.3758026771653542
 31
0
  0
LINE
  5
E7
330
1A
100
AcDbEntity
  8
BLACK
  6
CONTINUOUS
100
AcDbLine
 10
5.1404921259842515
 20
2.3758026771653542
 30
0
 11
5.2688385826771649
 21
2.3758026771653542
 31
0
  0
LINE
  5
E8
330
1A
100
AcDbEntity
  8
BLACK
  6
CONTINUOUS
100
AcDbLine
 10
5.2688385826771649
 20
2.3758026771653542
 30
0
 11
5.2688385826771649
 21
2.4466688188976375
 31
0
  0
LINE
  5
E9
330
1A
100
AcDbEntity
  8
BLACK
  6
CONTINUOUS
100
AcDbLine
 10
5.2688385826771649
 20
2.4466688188976375
 30
0
 11
5.1404921259842515
 21
2.4466688188976375
 31
0
  0
LINE
  5
EA
330
1A
100
AcDbEntity
  8
BLACK
  6
CONTINUOUS
100
AcDbLine
 10
5.2698871653543309
 20
2.8199682677165354
 30
0
 11
5.2709525196850393
 21
2.8189029133858265
 31
0
  0
LINE
  5
EB
330
1A
100
AcDbEntity
  8
BLACK
  6
CONTINUOUS
100
AcDbLine
 10
5.2709525196850393
 20
2.8189029133858265
 30
0
 11
5.2711023622047239
 21
2.8181496062992126
 31
0
  0
LINE
  5
EC
330
1A
100
AcDbEntity
  8
BLACK
  6
CONTINUOUS
100
AcDbLine
 10
5.2711023622047239
 20
2.8181496062992126
 30
0
 11
5.2711023622047239
 21
2.6858661417322836
 31
0
  0
LINE
  5
ED
330
1A
100
AcDbEntity
  8
BLACK
  6
CONTINUOUS
100
AcDbLine
 10
5.2711023622047239
 20
2.6858661417322836
 30
0
 11
5.2709525196850393
 21
2.6851128346456692
 31
0
  0
LINE
  5
EE
330
1A
100
AcDbEntity
  8
BLACK
  6
CONTINUOUS
100
AcDbLine
 10
5.2709525196850393
 20
2.6851128346456692
 30
0
 11
5.2701802362204724
 21
2.6843405511811023
 31
0
  0
LINE
  5
EF
330
1A
100
AcDbEntity
  8
BLACK
  6
CONTINUOUS
100
AcDbLine
 10
5.2701802362204724
 20
2.6843405511811023
 30
0
 11
5.2709525196850393
 21
2.6835682677165353
 31
0
  0
LINE
  5
F0
330
1A
100
AcDbEntity
  8
BLACK
  6
CONTINUOUS
100
AcDbLine
 10
5.2709525196850393
 20
2.6835682677165353
 30
0
 11
5.2711023622047239
 21
2.6828149606299214
 31
0
  0
LINE
  5
F1
330
1A
100
AcDbEntity
  8
BLACK
  6
CONTINUOUS
100
AcDbLine
 10
5.2711023622047239
 20
2.6828149606299214
 30
0
 11
5.2711023622047239
 21
2.5505314960629919
 31
0
  0
LINE
  5
F2
330
1A
100
AcDbEntity
  8
BLACK
  6
CONTINUOUS
100
AcDbLine
 10
5.2711023622047239
 20
2.5505314960629919
 30
0
 11
5.2709525196850393
 21
2.549778188976378
 31
0
  0
LINE
  5
F3
330
1A
100
AcDbEntity
  8
BLACK
  6
CONTINUOUS
100
AcDbLine
 10
5.2709525196850393
 20
2.549778188976378
 30
0
 11
5.2698871653543309
 21
2.5487128346456691
 31
0
  0
LINE
  5
F4
330
1A
100
AcDbEntity
  8
BLACK
  6
CONTINUOUS
100
AcDbLine
 10
5.2698871653543309
 20
2.5487128346456691
 30
0
 11
5.2691338582677165
 21
2.548562992125984
 31
0
  0
LINE
  5
F5
330
1A
100
AcDbEntity
  8
BLACK
  6
CONTINUOUS
100
AcDbLine
 10
5.2691338582677165
 20
2.548562992125984
 30
0
 11
5.1943307086614174
 21
2.548562992125984
 31
0
  0
LINE
  5
F6
330
1A
100
AcDbEntity
  8
BLACK
  6
CONTINUOUS
100
AcDbLine
 10
5.1943307086614174
 20
2.548562992125984
 30
0
 11
5.1935774015748031
 21
2.5487128346456691
 31
0
  0
LINE
  5
F7
330
1A
100
AcDbEntity
  8
BLACK
  6
CONTINUOUS
100
AcDbLine
 10
5.1935774015748031
 20
2.5487128346456691
 30
0
 11
5.1925120472440947
 21
2.549778188976378
 31
0
  0
LINE
  5
F8
330
1A
100
AcDbEntity
  8
BLACK
  6
CONTINUOUS
100
AcDbLine
 10
5.1925120472440947
 20
2.549778188976378
 30
0
 11
5.1923622047244091
 21
2.5505314960629919
 31
0
  0
LINE
  5
F9
330
1A
100
AcDbEntity
  8
BLACK
  6
CONTINUOUS
100
AcDbLine
 10
5.1923622047244091
 20
2.5505314960629919
 30
0
 11
5.1923622047244091
 21
2.6828149606299214
 31
0
  0
LINE
  5
FA
330
1A
100
AcDbEntity
  8
BLACK
  6
CONTINUOUS
100
AcDbLine
 10
5.1923622047244091
 20
2.6828149606299214
 30
0
 11
5.1925120472440947
 21
2.6835682677165353
 31
0
  0
LINE
  5
FB
330
1A
100
AcDbEntity
  8
BLACK
  6
CONTINUOUS
100
AcDbLine
 10
5.1925120472440947
 20
2.6835682677165353
 30
0
 11
5.1932843307086616
 21
2.6843405511811023
 31
0
  0
LINE
  5
FC
330
1A
100
AcDbEntity
  8
BLACK
  6
CONTINUOUS
100
AcDbLine
 10
5.1932843307086616
 20
2.6843405511811023
 30
0
 11
5.1925120472440947
 21
2.6851128346456692
 31
0
  0
LINE
  5
FD
330
1A
100
AcDbEntity
  8
BLACK
  6
CONTINUOUS
100
AcDbLine
 10
5.1925120472440947
 20
2.6851128346456692
 30
0
 11
5.1923622047244091
 21
2.6858661417322836
 31
0
  0
LINE
  5
FE
330
1A
100
AcDbEntity
  8
BLACK
  6
CONTINUOUS
100
AcDbLine
 10
5.1923622047244091
 20
2.6858661417322836
 30
0
 11
5.1923622047244091
 21
2.8181496062992126
 31
0
  0
LINE
  5
FF
330
1A
100
AcDbEntity
  8
BLACK
  6
CONTINUOUS
100
AcDbLine
 10
5.1923622047244091
 20
2.8181496062992126
 30
0
 11
5.1925120472440947
 21
2.8189029133858265
 31
0
  0
LINE
  5
100
330
1A
100
AcDbEntity
  8
BLACK
  6
CONTINUOUS
100
AcDbLine
 10
5.1925120472440947
 20
2.8189029133858265
 30
0
 11
5.1935774015748031
 21
2.8199682677165354
 31
0
  0
LINE
  5
101
330
1A
100
AcDbEntity
  8
BLACK
  6
CONTINUOUS
100
AcDbLine
 10
5.1935774015748031
 20
2.8199682677165354
 30
0
 11
5.1943307086614174
 21
2.8201181102362205
 31
0
  0
LINE
  5
102
330
1A
100
AcDbEntity
  8
BLACK
  6
CONTINUOUS
100
AcDbLine
 10
5.1943307086614174
 20
2.8201181102362205
 30
0
 11
5.2691338582677165
 21
2.8201181102362205
 31
0
  0
LINE
  5
103
330
1A
100
AcDbEntity
  8
BLACK
  6
CONTINUOUS
100
AcDbLine
 10
5.2691338582677165
 20
2.8201181102362205
 30
0
 11
5.2698871653543309
 21
2.8199682677165354
 31
0
  0
LINE
  5
104
330
1A
100
AcDbEntity
  8
BLACK
  6
CONTINUOUS
100
AcDbLine
 10
5.1962992125984249
 20
2.6808464566929131
 30
0
 11
5.1962992125984249
 21
2.5524999999999998
 31
0
  0
LINE
  5
105
330
1A
100
AcDbEntity
  8
BLACK
  6
CONTINUOUS
100
AcDbLine
 10
5.1962992125984249
 20
2.5524999999999998
 30
0
 11
5.2671653543307082
 21
2.5524999999999998
 31
0
  0
LINE
  5
106
330
1A
100
AcDbEntity
  8
BLACK
  6
CONTINUOUS
100
AcDbLine
 10
5.2671653543307082
 20
2.5524999999999998
 30
0
 11
5.2671653543307082
 21
2.6808464566929131
 31
0
  0
LINE
  5
107
330
1A
100
AcDbEntity
  8
BLACK
  6
CONTINUOUS
100
AcDbLine
 10
5.2671653543307082
 20
2.6808464566929131
 30
0
 11
5.1962992125984249
 21
2.6808464566929131
 31
0
  0
LINE
  5
108
330
1A
100
AcDbEntity
  8
BLACK
  6
CONTINUOUS
100
AcDbLine
 10
5.1962992125984249
 20
2.8161811023622048
 30
0
 11
5.1962992125984249
 21
2.6878346456692914
 31
0
  0
LINE
  5
109
330
1A
100
AcDbEntity
  8
BLACK
  6
CONTINUOUS
100
AcDbLine
 10
5.1962992125984249
 20
2.6878346456692914
 30
0
 11
5.2671653543307082
 21
2.6878346456692914
 31
0
  0
LINE
  5
10A
330
1A
100
AcDbEntity
  8
BLACK
  6
CONTINUOUS
100
AcDbLine
 10
5.2671653543307082
 20
2.6878346456692914
 30
0
 11
5.2671653543307082
 21
2.8161811023622048
 31
0
  0
LINE
  5
10B
330
1A
100
AcDbEntity
  8
BLACK
  6
CONTINUOUS
100
AcDbLine
 10
5.2671653543307082
 20
2.8161811023622048
 30
0
 11
5.1962992125984249
 21
2.8161811023622048
 31
0
  0
CIRCLE
  5
10C
330
1A
100
AcDbEntity
  8
BLACK
100
AcDbCircle
 10
1.4364566929133857
 20
0.5951181102362204
 30
0
 40
0.0068897637795276
  0
CIRCLE
  5
10D
330
1A
100
AcDbEntity
  8
BLACK
100
AcDbCircle
 10
2.1962992125984253
 20
0.5951181102362204
 30
0
 40
0.0068897637795276
  0
CIRCLE
  5
10E
330
1A
100
AcDbEntity
  8
BLACK
100
AcDbCircle
 10
1.4364566929133857
 20
2.7848818897637795
 30
0
 40
0.0068897637795276
  0
CIRCLE
  5
10F
330
1A
100
AcDbEntity
  8
BLACK
100
AcDbCircle
 10
2.1962992125984253
 20
2.7848818897637795
 30
0
 40
0.0068897637795276
  0
CIRCLE
  5
110
330
1A
100
AcDbEntity
  8
BLACK
100
AcDbCircle
 10
1.4364566929133857
 20
0.2608661417322835
 30
0
 40
0.0068897637795276
  0
CIRCLE
  5
111
330
1A
100
AcDbEntity
  8
BLACK
100
AcDbCircle
 10
1.4364566929133857
 20
3.1191338582677166
 30
0
 40
0.0068897637795276
  0
CIRCLE
  5
112
330
1A
100
AcDbEntity
  8
BLACK
100
AcDbCircle
 10
2.1962992125984253
 20
0.2608661417322835
 30
0
 40
0.0068897637795276
  0
CIRCLE
  5
113
330
1A
100
AcDbEntity
  8
BLACK
100
AcDbCircle
 10
2.1962992125984253
 20
3.1191338582677166
 30
0
 40
0.0068897637795276
  0
CIRCLE
  5
114
330
1A
100
AcDbEntity
  8
BLACK
100
AcDbCircle
 10
5.1899999999999995
 20
3.0899999999999999
 30
0
 40
0.0068897637795276
  0
LINE
  5
115
330
1A
100
AcDbEntity
  8
BLACK
  6
CONTINUOUS
100
AcDbLine
 10
5.0998425196850397
 20
1.2972834645669291
 30
0
 11
5.1155905511811026
 21
1.2972834645669291
 31
0
  0
ARC
  5
116
330
1A
100
AcDbEntity
  8
BLACK
100
AcDbCircle
 10
5.1155905511811026
 20
1.3149999999999999
 30
0
 40
0.0177165354330709
100
AcDbArc
 50
-90.00000000
 51
90.00000000
  0
LINE
  5
117
330
1A
100
AcDbEntity
  8
BLACK
  6
CONTINUOUS
100
AcDbLine
 10
5.1155905511811026
 20
1.3327165354330708
 30
0
 11
5.0998425196850397
 21
1.3327165354330708
 31
0
  0
ARC
  5
118
330
1A
100
AcDbEntity
  8
BLACK
100
AcDbCircle
 10
5.0998425196850397
 20
1.3149999999999999
 30
0
 40
0.0177165354330709
100
AcDbArc
 50
90.00000000
 51
270.00000000
  0
LINE
  5
119
330
1A
100
AcDbEntity
  8
BLACK
  6
CONTINUOUS
100
AcDbLine
 10
5.0998425196850397
 20
1.4646062992125983
 30
0
 11
5.1155905511811026
 21
1.4646062992125983
 31
0
  0
ARC
  5
11A
330
1A
100
AcDbEntity
  8
BLACK
100
AcDbCircle
 10
5.1155905511811026
 20
1.4823228346456692
 30
0
 40
0.0177165354330709
100
AcDbArc
 50
-90.00000000
 51
90.00000000
  0
LINE
  5
11B
330
1A
100
AcDbEntity
  8
BLACK
  6
CONTINUOUS
100
AcDbLine
 10
5.1155905511811026
 20
1.5000393700787402
 30
0
 11
5.0998425196850397
 21
1.5000393700787402
 31
0
  0
ARC
  5
11C
330
1A
100
AcDbEntity
  8
BLACK
100
AcDbCircle
 10
5.0998425196850397
 20
1.4823228346456692
 30
0
 40
0.0177165354330709
100
AcDbArc
 50
90.00000000
 51
270.00000000
  0
CIRCLE
  5
11D
330
1A
100
AcDbEntity
  8
BLACK
100
AcDbCircle
 10
0.39
 20
3.0899999999999999
 30
0
 40
0.0068897637795276
  0
CIRCLE
  5
11E
330
1A
100
AcDbEntity
  8
BLACK
100
AcDbCircle
 10
3.0506299212598424
 20
0.5953149606299213
 30
0
 40
0.0068897637795276
  0
CIRCLE
  5
11F
330
1A
100
AcDbEntity
  8
BLACK
100
AcDbCircle
 10
3.8104724409448818
 20
0.5953149606299213
 30
0
 40
0.0068897637795276
  0
CIRCLE
  5
120
330
1A
100
AcDbEntity
  8
BLACK
100
AcDbCircle
 10
4.5703149606299212
 20
0.5953149606299213
 30
0
 40
0.0068897637795276
  0
CIRCLE
  5
121
330
1A
100
AcDbEntity
  8
BLACK
100
AcDbCircle
 10
3.0506299212598424
 20
2.7846850393700788
 30
0
 40
0.0068897637795276
  0
CIRCLE
  5
122
330
1A
100
AcDbEntity
  8
BLACK
100
AcDbCircle
 10
3.8104724409448818
 20
2.7846850393700788
 30
0
 40
0.0068897637795276
  0
CIRCLE
  5
123
330
1A
100
AcDbEntity
  8
BLACK
100
AcDbCircle
 10
4.5703149606299212
 20
2.7846850393700788
 30
0
 40
0.0068897637795276
  0
CIRCLE
  5
124
330
1A
100
AcDbEntity
  8
BLACK
100
AcDbCircle
 10
3.0506299212598424
 20
0.2628346456692913
 30
0
 40
0.0068897637795276
  0
CIRCLE
  5
125
330
1A
100
AcDbEntity
  8
BLACK
100
AcDbCircle
 10
3.0506299212598424
 20
3.1171653543307087
 30
0
 40
0.0068897637795276
  0
CIRCLE
  5
126
330
1A
100
AcDbEntity
  8
BLACK
100
AcDbCircle
 10
3.8104724409448818
 20
0.2628346456692913
 30
0
 40
0.0068897637795276
  0
CIRCLE
  5
127
330
1A
100
AcDbEntity
  8
BLACK
100
AcDbCircle
 10
3.8104724409448818
 20
3.1171653543307087
 30
0
 40
0.0068897637795276
  0
CIRCLE
  5
128
330
1A
100
AcDbEntity
  8
BLACK
100
AcDbCircle
 10
4.5703149606299212
 20
0.2628346456692913
 30
0
 40
0.0068897637795276
  0
CIRCLE
  5
129
330
1A
100
AcDbEntity
  8
BLACK
100
AcDbCircle
 10
4.5703149606299212
 20
3.1171653543307087
 30
0
 40
0.0068897637795276
  0
CIRCLE
  5
12A
330
1A
100
AcDbEntity
  8
BLACK
100
AcDbCircle
 10
5.1899999999999995
 20
0.29
 30
0
 40
0.0068897637795276
  0
CIRCLE
  5
12B
330
1A
100
AcDbEntity
  8
BLACK
100
AcDbCircle
 10
0.39
 20
0.29
 30
0
 40
0.0068897637795276
  0
CIRCLE
  5
12C
330
1A
100
AcDbEntity
  8
BLACK
100
AcDbCircle
 10
0.7494488188976378
 20
2.6321259842519686
 30
0
 40
0.0068897637795276
  0
CIRCLE
  5
12D
330
1A
100
AcDbEntity
  8
BLACK
100
AcDbCircle
 10
0.7494488188976378
 20
0.7340944881889764
 30
0
 40
0.0068897637795276
  0
CIRCLE
  5
12E
330
1A
100
AcDbEntity
  8
BLACK
100
AcDbCircle
 10
0.5289763779527559
 20
1.4931496062992127
 30
0
 40
0.0068897637795276
  0
CIRCLE
  5
12F
330
1A
100
AcDbEntity
  8
BLACK
100
AcDbCircle
 10
0.5289763779527559
 20
1.5718897637795275
 30
0
 40
0.0068897637795276
  0
CIRCLE
  5
130
330
1A
100
AcDbEntity
  8
BLACK
100
AcDbCircle
 10
0.5289763779527559
 20
1.6506299212598425
 30
0
 40
0.0068897637795276
  0
CIRCLE
  5
131
330
1A
100
AcDbEntity
  8
BLACK
100
AcDbCircle
 10
0.5289763779527559
 20
1.7293700787401574
 30
0
 40
0.0068897637795276
  0
CIRCLE
  5
132
330
1A
100
AcDbEntity
  8
BLACK
100
AcDbCircle
 10
0.5289763779527559
 20
1.8081102362204724
 30
0
 40
0.0068897637795276
  0
CIRCLE
  5
133
330
1A
100
AcDbEntity
  8
BLACK
100
AcDbCircle
 10
0.5289763779527559
 20
1.8868503937007874
 30
0
 40
0.0068897637795276
  0
CIRCLE
  5
134
330
1A
100
AcDbEntity
  8
BLACK
100
AcDbCircle
 10
0.6077165354330708
 20
1.4931496062992127
 30
0
 40
0.0068897637795276
  0
CIRCLE
  5
135
330
1A
100
AcDbEntity
  8
BLACK
100
AcDbCircle
 10
0.6077165354330708
 20
1.5718897637795275
 30
0
 40
0.0068897637795276
  0
CIRCLE
  5
136
330
1A
100
AcDbEntity
  8
BLACK
100
AcDbCircle
 10
0.6077165354330708
 20
1.6506299212598425
 30
0
 40
0.0068897637795276
  0
CIRCLE
  5
137
330
1A
100
AcDbEntity
  8
BLACK
100
AcDbCircle
 10
0.6077165354330708
 20
1.7293700787401574
 30
0
 40
0.0068897637795276
  0
CIRCLE
  5
138
330
1A
100
AcDbEntity
  8
BLACK
100
AcDbCircle
 10
0.6077165354330708
 20
1.8081102362204724
 30
0
 40
0.0068897637795276
  0
CIRCLE
  5
139
330
1A
100
AcDbEntity
  8
BLACK
100
AcDbCircle
 10
0.6077165354330708
 20
1.8868503937007874
 30
0
 40
0.0068897637795276
  0
CIRCLE
  5
13A
330
1A
100
AcDbEntity
  8
BLACK
100
AcDbCircle
 10
0.6864566929133858
 20
1.4931496062992127
 30
0
 40
0.0068897637795276
  0
CIRCLE
  5
13B
330
1A
100
AcDbEntity
  8
BLACK
100
AcDbCircle
 10
0.6864566929133858
 20
1.5718897637795275
 30
0
 40
0.0068897637795276
  0
CIRCLE
  5
13C
330
1A
100
AcDbEntity
  8
BLACK
100
AcDbCircle
 10
0.6864566929133858
 20
1.6506299212598425
 30
0
 40
0.0068897637795276
  0
CIRCLE
  5
13D
330
1A
100
AcDbEntity
  8
BLACK
100
AcDbCircle
 10
0.6864566929133858
 20
1.7293700787401574
 30
0
 40
0.0068897637795276
  0
CIRCLE
  5
13E
330
1A
100
AcDbEntity
  8
BLACK
100
AcDbCircle
 10
0.6864566929133858
 20
1.8081102362204724
 30
0
 40
0.0068897637795276
  0
CIRCLE
  5
13F
330
1A
100
AcDbEntity
  8
BLACK
100
AcDbCircle
 10
0.6864566929133858
 20
1.8868503937007874
 30
0
 40
0.0068897637795276
  0
CIRCLE
  5
140
330
1A
100
AcDbEntity
  8
BLACK
100
AcDbCircle
 10
0.7651968503937008
 20
1.4931496062992127
 30
0
 40
0.0068897637795276
  0
CIRCLE
  5
141
330
1A
100
AcDbEntity
  8
BLACK
100
AcDbCircle
 10
0.7651968503937008
 20
1.5718897637795275
 30
0
 40
0.0068897637795276
  0
CIRCLE
  5
142
330
1A
100
AcDbEntity
  8
BLACK
100
AcDbCircle
 10
0.7651968503937008
 20
1.6506299212598425
 30
0
 40
0.0068897637795276
  0
CIRCLE
  5
143
330
1A
100
AcDbEntity
  8
BLACK
100
AcDbCircle
 10
0.7651968503937008
 20
1.7293700787401574
 30
0
 40
0.0068897637795276
  0
CIRCLE
  5
144
330
1A
100
AcDbEntity
  8
BLACK
100
AcDbCircle
 10
0.7651968503937008
 20
1.8081102362204724
 30
0
 40
0.0068897637795276
  0
CIRCLE
  5
145
330
1A
100
AcDbEntity
  8
BLACK
100
AcDbCircle
 10
0.7651968503937008
 20
1.8868503937007874
 30
0
 40
0.0068897637795276
  0
CIRCLE
  5
146
330
1A
100
AcDbEntity
  8
BLACK
100
AcDbCircle
 10
0.8439370078740157
 20
1.4931496062992127
 30
0
 40
0.0068897637795276
  0
CIRCLE
  5
147
330
1A
100
AcDbEntity
  8
BLACK
100
AcDbCircle
 10
0.8439370078740157
 20
1.5718897637795275
 30
0
 40
0.0068897637795276
  0
CIRCLE
  5
148
330
1A
100
AcDbEntity
  8
BLACK
100
AcDbCircle
 10
0.8439370078740157
 20
1.6506299212598425
 30
0
 40
0.0068897637795276
  0
CIRCLE
  5
149
330
1A
100
AcDbEntity
  8
BLACK
100
AcDbCircle
 10
0.8439370078740157
 20
1.7293700787401574
 30
0
 40
0.0068897637795276
  0
CIRCLE
  5
14A
330
1A
100
AcDbEntity
  8
BLACK
100
AcDbCircle
 10
0.8439370078740157
 20
1.8081102362204724
 30
0
 40
0.0068897637795276
  0
CIRCLE
  5
14B
330
1A
100
AcDbEntity
  8
BLACK
100
AcDbCircle
 10
0.8439370078740157
 20
1.8868503937007874
 30
0
 40
0.0068897637795276
  0
CIRCLE
  5
14C
330
1A
100
AcDbEntity
  8
BLACK
100
AcDbCircle
 10
0.9462992125984252
 20
1.068740157480315
 30
0
 40
0.0068897637795276
  0
CIRCLE
  5
14D
330
1A
100
AcDbEntity
  8
BLACK
100
AcDbCircle
 10
0.8478740157480315
 20
1.068740157480315
 30
0
 40
0.0068897637795276
  0
CIRCLE
  5
14E
330
1A
100
AcDbEntity
  8
BLACK
100
AcDbCircle
 10
0.7494488188976378
 20
1.068740157480315
 30
0
 40
0.0068897637795276
  0
CIRCLE
  5
14F
330
1A
100
AcDbEntity
  8
BLACK
100
AcDbCircle
 10
0.6510236220472441
 20
1.068740157480315
 30
0
 40
0.0068897637795276
  0
CIRCLE
  5
150
330
1A
100
AcDbEntity
  8
BLACK
100
AcDbCircle
 10
0.5525984251968504
 20
1.068740157480315
 30
0
 40
0.0068897637795276
  0
CIRCLE
  5
151
330
1A
100
AcDbEntity
  8
BLACK
100
AcDbCircle
 10
0.9462992125984252
 20
0.9506299212598425
 30
0
 40
0.0068897637795276
  0
CIRCLE
  5
152
330
1A
100
AcDbEntity
  8
BLACK
100
AcDbCircle
 10
0.8478740157480315
 20
0.9506299212598425
 30
0
 40
0.0068897637795276
  0
CIRCLE
  5
153
330
1A
100
AcDbEntity
  8
BLACK
100
AcDbCircle
 10
0.7494488188976378
 20
0.9506299212598425
 30
0
 40
0.0068897637795276
  0
CIRCLE
  5
154
330
1A
100
AcDbEntity
  8
BLACK
100
AcDbCircle
 10
0.6510236220472441
 20
0.9506299212598425
 30
0
 40
0.0068897637795276
  0
CIRCLE
  5
155
330
1A
100
AcDbEntity
  8
BLACK
100
AcDbCircle
 10
0.5525984251968504
 20
0.9506299212598425
 30
0
 40
0.0068897637795276
  0
CIRCLE
  5
156
330
1A
100
AcDbEntity
  8
BLACK
100
AcDbCircle
 10
0.9462992125984252
 20
1.285275590551181
 30
0
 40
0.0068897637795276
  0
CIRCLE
  5
157
330
1A
100
AcDbEntity
  8
BLACK
100
AcDbCircle
 10
0.8478740157480315
 20
1.285275590551181
 30
0
 40
0.0068897637795276
  0
CIRCLE
  5
158
330
1A
100
AcDbEntity
  8
BLACK
100
AcDbCircle
 10
0.7494488188976378
 20
1.285275590551181
 30
0
 40
0.0068897637795276
  0
CIRCLE
  5
159
330
1A
100
AcDbEntity
  8
BLACK
100
AcDbCircle
 10
0.6510236220472441
 20
1.285275590551181
 30
0
 40
0.0068897637795276
  0
CIRCLE
  5
15A
330
1A
100
AcDbEntity
  8
BLACK
100
AcDbCircle
 10
0.5525984251968504
 20
1.285275590551181
 30
0
 40
0.0068897637795276
  0
CIRCLE
  5
15B
330
1A
100
AcDbEntity
  8
BLACK
100
AcDbCircle
 10
0.9462992125984252
 20
1.1671653543307086
 30
0
 40
0.0068897637795276
  0
CIRCLE
  5
15C
330
1A
100
AcDbEntity
  8
BLACK
100
AcDbCircle
 10
0.8478740157480315
 20
1.1671653543307086
 30
0
 40
0.0068897637795276
  0
CIRCLE
  5
15D
330
1A
100
AcDbEntity
  8
BLACK
100
AcDbCircle
 10
0.7494488188976378
 20
1.1671653543307086
 30
0
 40
0.0068897637795276
  0
CIRCLE
  5
15E
330
1A
100
AcDbEntity
  8
BLACK
100
AcDbCircle
 10
0.6510236220472441
 20
1.1671653543307086
 30
0
 40
0.0068897637795276
  0
CIRCLE
  5
15F
330
1A
100
AcDbEntity
  8
BLACK
100
AcDbCircle
 10
0.5525984251968504
 20
1.1671653543307086
 30
0
 40
0.0068897637795276
  0
CIRCLE
  5
160
330
1A
100
AcDbEntity
  8
BLACK
100
AcDbCircle
 10
0.9462992125984252
 20
2.1990551181102362
 30
0
 40
0.0068897637795276
  0
CIRCLE
  5
161
330
1A
100
AcDbEntity
  8
BLACK
100
AcDbCircle
 10
0.8478740157480315
 20
2.1990551181102362
 30
0
 40
0.0068897637795276
  0
CIRCLE
  5
162
330
1A
100
AcDbEntity
  8
BLACK
100
AcDbCircle
 10
0.7494488188976378
 20
2.1990551181102362
 30
0
 40
0.0068897637795276
  0
CIRCLE
  5
163
330
1A
100
AcDbEntity
  8
BLACK
100
AcDbCircle
 10
0.6510236220472441
 20
2.1990551181102362
 30
0
 40
0.0068897637795276
  0
CIRCLE
  5
164
330
1A
100
AcDbEntity
  8
BLACK
100
AcDbCircle
 10
0.5525984251968504
 20
2.1990551181102362
 30
0
 40
0.0068897637795276
  0
CIRCLE
  5
165
330
1A
100
AcDbEntity
  8
BLACK
100
AcDbCircle
 10
0.9462992125984252
 20
2.0809448818897636
 30
0
 40
0.0068897637795276
  0
CIRCLE
  5
166
330
1A
100
AcDbEntity
  8
BLACK
100
AcDbCircle
 10
0.8478740157480315
 20
2.0809448818897636
 30
0
 40
0.0068897637795276
  0
CIRCLE
  5
167
330
1A
100
AcDbEntity
  8
BLACK
100
AcDbCircle
 10
0.7494488188976378
 20
2.0809448818897636
 30
0
 40
0.0068897637795276
  0
CIRCLE
  5
168
330
1A
100
AcDbEntity
  8
BLACK
100
AcDbCircle
 10
0.6510236220472441
 20
2.0809448818897636
 30
0
 40
0.0068897637795276
  0
CIRCLE
  5
169
330
1A
100
AcDbEntity
  8
BLACK
100
AcDbCircle
 10
0.5525984251968504
 20
2.0809448818897636
 30
0
 40
0.0068897637795276
  0
CIRCLE
  5
16A
330
1A
100
AcDbEntity
  8
BLACK
100
AcDbCircle
 10
0.9462992125984252
 20
2.4155905511811024
 30
0
 40
0.0068897637795276
  0
CIRCLE
  5
16B
330
1A
100
AcDbEntity
  8
BLACK
100
AcDbCircle
 10
0.8478740157480315
 20
2.4155905511811024
 30
0
 40
0.0068897637795276
  0
CIRCLE
  5
16C
330
1A
100
AcDbEntity
  8
BLACK
100
AcDbCircle
 10
0.7494488188976378
 20
2.4155905511811024
 30
0
 40
0.0068897637795276
  0
CIRCLE
  5
16D
330
1A
100
AcDbEntity
  8
BLACK
100
AcDbCircle
 10
0.6510236220472441
 20
2.4155905511811024
 30
0
 40
0.0068897637795276
  0
CIRCLE
  5
16E
330
1A
100
AcDbEntity
  8
BLACK
100
AcDbCircle
 10
0.5525984251968504
 20
2.4155905511811024
 30
0
 40
0.0068897637795276
  0
CIRCLE
  5
16F
330
1A
100
AcDbEntity
  8
BLACK
100
AcDbCircle
 10
0.9462992125984252
 20
2.2974803149606298
 30
0
 40
0.0068897637795276
  0
CIRCLE
  5
170
330
1A
100
AcDbEntity
  8
BLACK
100
AcDbCircle
 10
0.8478740157480315
 20
2.2974803149606298
 30
0
 40
0.0068897637795276
  0
CIRCLE
  5
171
330
1A
100
AcDbEntity
  8
BLACK
100
AcDbCircle
 10
0.7494488188976378
 20
2.2974803149606298
 30
0
 40
0.0068897637795276
  0
CIRCLE
  5
172
330
1A
100
AcDbEntity
  8
BLACK
100
AcDbCircle
 10
0.6510236220472441
 20
2.2974803149606298
 30
0
 40
0.0068897637795276
  0
CIRCLE
  5
173
330
1A
100
AcDbEntity
  8
BLACK
100
AcDbCircle
 10
0.5525984251968504
 20
2.2974803149606298
 30
0
 40
0.0068897637795276
  0
LINE
  5
174
330
1A
100
AcDbEntity
  8
BLACK
  6
CONTINUOUS
100
AcDbLine
 10
5.1037795275590554
 20
1.0079133858267717
 30
0
 11
5.1195275590551184
 21
1.0079133858267717
 31
0
  0
ARC
  5
175
330
1A
100
AcDbEntity
  8
BLACK
100
AcDbCircle
 10
5.1195275590551184
 20
1.0256299212598425
 30
0
 40
0.0177165354330709
100
AcDbArc
 50
-90.00000000
 51
90.00000000
  0
LINE
  5
176
330
1A
100
AcDbEntity
  8
BLACK
  6
CONTINUOUS
100
AcDbLine
 10
5.1195275590551184
 20
1.0433464566929134
 30
0
 11
5.1037795275590554
 21
1.0433464566929134
 31
0
  0
ARC
  5
177
330
1A
100
AcDbEntity
  8
BLACK
100
AcDbCircle
 10
5.1037795275590554
 20
1.0256299212598425
 30
0
 40
0.0177165354330709
100
AcDbArc
 50
90.00000000
 51
270.00000000
  0
LINE
  5
178
330
1A
100
AcDbEntity
  8
BLACK
  6
CONTINUOUS
100
AcDbLine
 10
5.1037795275590554
 20
1.1752362204724409
 30
0
 11
5.1195275590551184
 21
1.1752362204724409
 31
0
  0
ARC
  5
179
330
1A
100
AcDbEntity
  8
BLACK
100
AcDbCircle
 10
5.1195275590551184
 20
1.1929527559055118
 30
0
 40
0.0177165354330709
100
AcDbArc
 50
-90.00000000
 51
90.00000000
  0
LINE
  5
17A
330
1A
100
AcDbEntity
  8
BLACK
  6
CONTINUOUS
100
AcDbLine
 10
5.1195275590551184
 20
1.2106692913385826
 30
0
 11
5.1037795275590554
 21
1.2106692913385826
 31
0
  0
ARC
  5
17B
330
1A
100
AcDbEntity
  8
BLACK
100
AcDbCircle
 10
5.1037795275590554
 20
1.1929527559055118
 30
0
 40
0.0177165354330709
100
AcDbArc
 50
90.00000000
 51
270.00000000
  0
CIRCLE
  5
17C
330
1A
100
AcDbEntity
  8
BLACK
100
AcDbCircle
 10
5.1360629921259839
 20
2.8010236220472442
 30
0
 40
0.0068897637795276
  0
CIRCLE
  5
17D
330
1A
100
AcDbEntity
  8
BLACK
100
AcDbCircle
 10
5.1360629921259839
 20
2.5734645669291338
 30
0
 40
0.0068897637795276
  0
LINE
  5
17E
330
1A
100
AcDbEntity
  8
BLACK
  6
CONTINUOUS
100
AcDbLine
 10
5.3006299212598424
 20
2.8770078740157481
 30
0
 11
5.261259842519685
 21
2.8770078740157481
 31
0
  0
ARC
  5
17F
330
1A
100
AcDbEntity
  8
BLACK
100
AcDbCircle
 10
5.261259842519685
 20
2.8573228346456694
 30
0
 40
0.0196850393700787
100
AcDbArc
 50
90.00000000
 51
270.00000000
  0
LINE
  5
180
330
1A
100
AcDbEntity
  8
BLACK
  6
CONTINUOUS
100
AcDbLine
 10
5.261259842519685
 20
2.8376377952755907
 30
0
 11
5.3006299212598424
 21
2.8376377952755907
 31
0
  0
ARC
  5
181
330
1A
100
AcDbEntity
  8
BLACK
100
AcDbCircle
 10
5.3006299212598424
 20
2.8573228346456694
 30
0
 40
0.0196850393700787
100
AcDbArc
 50
270.00000000
 51
450.00000000
  0
LINE
  5
182
330
1A
100
AcDbEntity
  8
BLACK
  6
CONTINUOUS
100
AcDbLine
 10
5.3006299212598424
 20
2.5368503937007874
 30
0
 11
5.261259842519685
 21
2.5368503937007874
 31
0
  0
ARC
  5
183
330
1A
100
AcDbEntity
  8
BLACK
100
AcDbCircle
 10
5.261259842519685
 20
2.5171653543307086
 30
0
 40
0.0196850393700787
100
AcDbArc
 50
90.00000000
 51
270.00000000
  0
LINE
  5
184
330
1A
100
AcDbEntity
  8
BLACK
  6
CONTINUOUS
100
AcDbLine
 10
5.261259842519685
 20
2.4974803149606299
 30
0
 11
5.3006299212598424
 21
2.4974803149606299
 31
0
  0
ARC
  5
185
330
1A
100
AcDbEntity
  8
BLACK
100
AcDbCircle
 10
5.3006299212598424
 20
2.5171653543307086
 30
0
 40
0.0196850393700787
100
AcDbArc
 50
270.00000000
 51
450.00000000
  0
LINE
  5
186
330
1A
100
AcDbEntity
  8
BLACK
  6
CONTINUOUS
100
AcDbLine
 10
5.1370472440944877
 20
2.8779921259842518
 30
0
 11
5.0957086614173228
 21
2.8779921259842518
 31
0
  0
ARC
  5
187
330
1A
100
AcDbEntity
  8
BLACK
100
AcDbCircle
 10
5.0957086614173228
 20
2.8573228346456694
 30
0
 40
0.0206692913385827
100
AcDbArc
 50
90.00000000
 51
270.00000000
  0
LINE
  5
188
330
1A
100
AcDbEntity
  8
BLACK
  6
CONTINUOUS
100
AcDbLine
 10
5.0957086614173228
 20
2.8366535433070865
 30
0
 11
5.1370472440944877
 21
2.8366535433070865
 31
0
  0
ARC
  5
189
330
1A
100
AcDbEntity
  8
BLACK
100
AcDbCircle
 10
5.1370472440944877
 20
2.8573228346456694
 30
0
 40
0.0206692913385827
100
AcDbArc
 50
270.00000000
 51
450.00000000
  0
LINE
  5
18A
330
1A
100
AcDbEntity
  8
BLACK
  6
CONTINUOUS
100
AcDbLine
 10
5.1370472440944877
 20
2.5378346456692911
 30
0
 11
5.0957086614173228
 21
2.5378346456692911
 31
0
  0
ARC
  5
18B
330
1A
100
AcDbEntity
  8
BLACK
100
AcDbCircle
 10
5.0957086614173228
 20
2.5171653543307086
 30
0
 40
0.0206692913385827
100
AcDbArc
 50
90.00000000
 51
270.00000000
  0
LINE
  5
18C
330
1A
100
AcDbEntity
  8
BLACK
  6
CONTINUOUS
100
AcDbLine
 10
5.0957086614173228
 20
2.4964960629921258
 30
0
 11
5.1370472440944877
 21
2.4964960629921258
 31
0
  0
ARC
  5
18D
330
1A
100
AcDbEntity
  8
BLACK
100
AcDbCircle
 10
5.1370472440944877
 20
2.5171653543307086
 30
0
 40
0.0206692913385827
100
AcDbArc
 50
270.00000000
 51
450.00000000
  0
CIRCLE
  5
18E
330
1A
100
AcDbEntity
  8
BLACK
100
AcDbCircle
 10
1.4364566929133857
 20
0.5951181102362204
 30
0
 40
0.0068897637795276
  0
CIRCLE
  5
18F
330
1A
100
AcDbEntity
  8
BLACK
100
AcDbCircle
 10
2.1962992125984253
 20
0.5951181102362204
 30
0
 40
0.0068897637795276
  0
CIRCLE
  5
190
330
1A
100
AcDbEntity
  8
BLACK
100
AcDbCircle
 10
1.4364566929133857
 20
2.7848818897637795
 30
0
 40
0.0068897637795276
  0
CIRCLE
  5
191
330
1A
100
AcDbEntity
  8
BLACK
100
AcDbCircle
 10
2.1962992125984253
 20
2.7848818897637795
 30
0
 40
0.0068897637795276
  0
CIRCLE
  5
192
330
1A
100
AcDbEntity
  8
BLACK
100
AcDbCircle
 10
1.4364566929133857
 20
0.2608661417322835
 30
0
 40
0.0068897637795276
  0
CIRCLE
  5
193
330
1A
100
AcDbEntity
  8
BLACK
100
AcDbCircle
 10
1.4364566929133857
 20
3.1191338582677166
 30
0
 40
0.0068897637795276
  0
CIRCLE
  5
194
330
1A
100
AcDbEntity
  8
BLACK
100
AcDbCircle
 10
2.1962992125984253
 20
0.2608661417322835
 30
0
 40
0.0068897637795276
  0
CIRCLE
  5
195
330
1A
100
AcDbEntity
  8
BLACK
100
AcDbCircle
 10
2.1962992125984253
 20
3.1191338582677166
 30
0
 40
0.0068897637795276
  0
CIRCLE
  5
196
330
1A
100
AcDbEntity
  8
BLACK
100
AcDbCircle
 10
5.1899999999999995
 20
3.0899999999999999
 30
0
 40
0.0068897637795276
  0
LINE
  5
197
330
1A
100
AcDbEntity
  8
BLACK
  6
CONTINUOUS
100
AcDbLine
 10
5.0998425196850397
 20
1.3051574803149606
 30
0
 11
5.1155905511811026
 21
1.3051574803149606
 31
0
  0
ARC
  5
198
330
1A
100
AcDbEntity
  8
BLACK
100
AcDbCircle
 10
5.1155905511811026
 20
1.3149999999999999
 30
0
 40
0.0098425196850394
100
AcDbArc
 50
-90.00000000
 51
90.00000000
  0
LINE
  5
199
330
1A
100
AcDbEntity
  8
BLACK
  6
CONTINUOUS
100
AcDbLine
 10
5.1155905511811026
 20
1.3248425196850393
 30
0
 11
5.0998425196850397
 21
1.3248425196850393
 31
0
  0
ARC
  5
19A
330
1A
100
AcDbEntity
  8
BLACK
100
AcDbCircle
 10
5.0998425196850397
 20
1.3149999999999999
 30
0
 40
0.0098425196850394
100
AcDbArc
 50
90.00000000
 51
270.00000000
  0
LINE
  5
19B
330
1A
100
AcDbEntity
  8
BLACK
  6
CONTINUOUS
100
AcDbLine
 10
5.0998425196850397
 20
1.4724803149606298
 30
0
 11
5.1155905511811026
 21
1.4724803149606298
 31
0
  0
ARC
  5
19C
330
1A
100
AcDbEntity
  8
BLACK
100
AcDbCircle
 10
5.1155905511811026
 20
1.4823228346456692
 30
0
 40
0.0098425196850394
100
AcDbArc
 50
-90.00000000
 51
90.00000000
  0
LINE
  5
19D
330
1A
100
AcDbEntity
  8
BLACK
  6
CONTINUOUS
100
AcDbLine
 10
5.1155905511811026
 20
1.4921653543307087
 30
0
 11
5.0998425196850397
 21
1.4921653543307087
 31
0
  0
ARC
  5
19E
330
1A
100
AcDbEntity
  8
BLACK
100
AcDbCircle
 10
5.0998425196850397
 20
1.4823228346456692
 30
0
 40
0.0098425196850394
100
AcDbArc
 50
90.00000000
 51
270.00000000
  0
CIRCLE
  5
19F
330
1A
100
AcDbEntity
  8
BLACK
100
AcDbCircle
 10
0.39
 20
3.0899999999999999
 30
0
 40
0.0068897637795276
  0
CIRCLE
  5
1A0
330
1A
100
AcDbEntity
  8
BLACK
100
AcDbCircle
 10
3.0506299212598424
 20
0.5953149606299213
 30
0
 40
0.0068897637795276
  0
CIRCLE
  5
1A1
330
1A
100
AcDbEntity
  8
BLACK
100
AcDbCircle
 10
3.8104724409448818
 20
0.5953149606299213
 30
0
 40
0.0068897637795276
  0
CIRCLE
  5
1A2
330
1A
100
AcDbEntity
  8
BLACK
100
AcDbCircle
 10
4.5703149606299212
 20
0.5953149606299213
 30
0
 40
0.0068897637795276
  0
CIRCLE
  5
1A3
330
1A
100
AcDbEntity
  8
BLACK
100
AcDbCircle
 10
3.0506299212598424
 20
2.7846850393700788
 30
0
 40
0.0068897637795276
  0
CIRCLE
  5
1A4
330
1A
100
AcDbEntity
  8
BLACK
100
AcDbCircle
 10
3.8104724409448818
 20
2.7846850393700788
 30
0
 40
0.0068897637795276
  0
CIRCLE
  5
1A5
330
1A
100
AcDbEntity
  8
BLACK
100
AcDbCircle
 10
4.5703149606299212
 20
2.7846850393700788
 30
0
 40
0.0068897637795276
  0
CIRCLE
  5
1A6
330
1A
100
AcDbEntity
  8
BLACK
100
AcDbCircle
 10
3.0506299212598424
 20
0.2628346456692913
 30
0
 40
0.0068897637795276
  0
CIRCLE
  5
1A7
330
1A
100
AcDbEntity
  8
BLACK
100
AcDbCircle
 10
3.0506299212598424
 20
3.1171653543307087
 30
0
 40
0.0068897637795276
  0
CIRCLE
  5
1A8
330
1A
100
AcDbEntity
  8
BLACK
100
AcDbCircle
 10
3.8104724409448818
 20
0.2628346456692913
 30
0
 40
0.0068897637795276
  0
CIRCLE
  5
1A9
330
1A
100
AcDbEntity
  8
BLACK
100
AcDbCircle
 10
3.8104724409448818
 20
3.1171653543307087
 30
0
 40
0.0068897637795276
  0
CIRCLE
  5
1AA
330
1A
100
AcDbEntity
  8
BLACK
100
AcDbCircle
 10
4.5703149606299212
 20
0.2628346456692913
 30
0
 40
0.0068897637795276
  0
CIRCLE
  5
1AB
330
1A
100
AcDbEntity
  8
BLACK
100
AcDbCircle
 10
4.5703149606299212
 20
3.1171653543307087
 30
0
 40
0.0068897637795276
  0
CIRCLE
  5
1AC
330
1A
100
AcDbEntity
  8
BLACK
100
AcDbCircle
 10
5.1899999999999995
 20
0.29
 30
0
 40
0.0068897637795276
  0
CIRCLE
  5
1AD
330
1A
100
AcDbEntity
  8
BLACK
100
AcDbCircle
 10
0.39
 20
0.29
 30
0
 40
0.0068897637795276
  0
CIRCLE
  5
1AE
330
1A
100
AcDbEntity
  8
BLACK
100
AcDbCircle
 10
0.7494488188976378
 20
2.6321259842519686
 30
0
 40
0.0068897637795276
  0
CIRCLE
  5
1AF
330
1A
100
AcDbEntity
  8
BLACK
100
AcDbCircle
 10
0.7494488188976378
 20
0.7340944881889764
 30
0
 40
0.0068897637795276
  0
CIRCLE
  5
1B0
330
1A
100
AcDbEntity
  8
BLACK
100
AcDbCircle
 10
0.5289763779527559
 20
1.4931496062992127
 30
0
 40
0.0068897637795276
  0
CIRCLE
  5
1B1
330
1A
100
AcDbEntity
  8
BLACK
100
AcDbCircle
 10
0.5289763779527559
 20
1.5718897637795275
 30
0
 40
0.0068897637795276
  0
CIRCLE
  5
1B2
330
1A
100
AcDbEntity
  8
BLACK
100
AcDbCircle
 10
0.5289763779527559
 20
1.6506299212598425
 30
0
 40
0.0068897637795276
  0
CIRCLE
  5
1B3
330
1A
100
AcDbEntity
  8
BLACK
100
AcDbCircle
 10
0.5289763779527559
 20
1.7293700787401574
 30
0
 40
0.0068897637795276
  0
CIRCLE
  5
1B4
330
1A
100
AcDbEntity
  8
BLACK
100
AcDbCircle
 10
0.5289763779527559
 20
1.8081102362204724
 30
0
 40
0.0068897637795276
  0
CIRCLE
  5
1B5
330
1A
100
AcDbEntity
  8
BLACK
100
AcDbCircle
 10
0.5289763779527559
 20
1.8868503937007874
 30
0
 40
0.0068897637795276
  0
CIRCLE
  5
1B6
330
1A
100
AcDbEntity
  8
BLACK
100
AcDbCircle
 10
0.6077165354330708
 20
1.4931496062992127
 30
0
 40
0.0068897637795276
  0
CIRCLE
  5
1B7
330
1A
100
AcDbEntity
  8
BLACK
100
AcDbCircle
 10
0.6077165354330708
 20
1.5718897637795275
 30
0
 40
0.0068897637795276
  0
CIRCLE
  5
1B8
330
1A
100
AcDbEntity
  8
BLACK
100
AcDbCircle
 10
0.6077165354330708
 20
1.6506299212598425
 30
0
 40
0.0068897637795276
  0
CIRCLE
  5
1B9
330
1A
100
AcDbEntity
  8
BLACK
100
AcDbCircle
 10
0.6077165354330708
 20
1.7293700787401574
 30
0
 40
0.0068897637795276
  0
CIRCLE
  5
1BA
330
1A
100
AcDbEntity
  8
BLACK
100
AcDbCircle
 10
0.6077165354330708
 20
1.8081102362204724
 30
0
 40
0.0068897637795276
  0
CIRCLE
  5
1BB
330
1A
100
AcDbEntity
  8
BLACK
100
AcDbCircle
 10
0.6077165354330708
 20
1.8868503937007874
 30
0
 40
0.0068897637795276
  0
CIRCLE
  5
1BC
330
1A
100
AcDbEntity
  8
BLACK
100
AcDbCircle
 10
0.6864566929133858
 20
1.4931496062992127
 30
0
 40
0.0068897637795276
  0
CIRCLE
  5
1BD
330
1A
100
AcDbEntity
  8
BLACK
100
AcDbCircle
 10
0.6864566929133858
 20
1.5718897637795275
 30
0
 40
0.0068897637795276
  0
CIRCLE
  5
1BE
330
1A
100
AcDbEntity
  8
BLACK
100
AcDbCircle
 10
0.6864566929133858
 20
1.6506299212598425
 30
0
 40
0.0068897637795276
  0
CIRCLE
  5
1BF
330
1A
100
AcDbEntity
  8
BLACK
100
AcDbCircle
 10
0.6864566929133858
 20
1.7293700787401574
 30
0
 40
0.0068897637795276
  0
CIRCLE
  5
1C0
330
1A
100
AcDbEntity
  8
BLACK
100
AcDbCircle
 10
0.6864566929133858
 20
1.8081102362204724
 30
0
 40
0.0068897637795276
  0
CIRCLE
  5
1C1
330
1A
100
AcDbEntity
  8
BLACK
100
AcDbCircle
 10
0.6864566929133858
 20
1.8868503937007874
 30
0
 40
0.0068897637795276
  0
CIRCLE
  5
1C2
330
1A
100
AcDbEntity
  8
BLACK
100
AcDbCircle
 10
0.7651968503937008
 20
1.4931496062992127
 30
0
 40
0.0068897637795276
  0
CIRCLE
  5
1C3
330
1A
100
AcDbEntity
  8
BLACK
100
AcDbCircle
 10
0.7651968503937008
 20
1.5718897637795275
 30
0
 40
0.0068897637795276
  0
CIRCLE
  5
1C4
330
1A
100
AcDbEntity
  8
BLACK
100
AcDbCircle
 10
0.7651968503937008
 20
1.6506299212598425
 30
0
 40
0.0068897637795276
  0
CIRCLE
  5
1C5
330
1A
100
AcDbEntity
  8
BLACK
100
AcDbCircle
 10
0.7651968503937008
 20
1.7293700787401574
 30
0
 40
0.0068897637795276
  0
CIRCLE
  5
1C6
330
1A
100
AcDbEntity
  8
BLACK
100
AcDbCircle
 10
0.7651968503937008
 20
1.8081102362204724
 30
0
 40
0.0068897637795276
  0
CIRCLE
  5
1C7
330
1A
100
AcDbEntity
  8
BLACK
100
AcDbCircle
 10
0.7651968503937008
 20
1.8868503937007874
 30
0
 40
0.0068897637795276
  0
CIRCLE
  5
1C8
330
1A
100
AcDbEntity
  8
BLACK
100
AcDbCircle
 10
0.8439370078740157
 20
1.4931496062992127
 30
0
 40
0.0068897637795276
  0
CIRCLE
  5
1C9
330
1A
100
AcDbEntity
  8
BLACK
100
AcDbCircle
 10
0.8439370078740157
 20
1.5718897637795275
 30
0
 40
0.0068897637795276
  0
CIRCLE
  5
1CA
330
1A
100
AcDbEntity
  8
BLACK
100
AcDbCircle
 10
0.8439370078740157
 20
1.6506299212598425
 30
0
 40
0.0068897637795276
  0
CIRCLE
  5
1CB
330
1A
100
AcDbEntity
  8
BLACK
100
AcDbCircle
 10
0.8439370078740157
 20
1.7293700787401574
 30
0
 40
0.0068897637795276
  0
CIRCLE
  5
1CC
330
1A
100
AcDbEntity
  8
BLACK
100
AcDbCircle
 10
0.8439370078740157
 20
1.8081102362204724
 30
0
 40
0.0068897637795276
  0
CIRCLE
  5
1CD
330
1A
100
AcDbEntity
  8
BLACK
100
AcDbCircle
 10
0.8439370078740157
 20
1.8868503937007874
 30
0
 40
0.0068897637795276
  0
CIRCLE
  5
1CE
330
1A
100
AcDbEntity
  8
BLACK
100
AcDbCircle
 10
0.9462992125984252
 20
1.068740157480315
 30
0
 40
0.0068897637795276
  0
CIRCLE
  5
1CF
330
1A
100
AcDbEntity
  8
BLACK
100
AcDbCircle
 10
0.8478740157480315
 20
1.068740157480315
 30
0
 40
0.0068897637795276
  0
CIRCLE
  5
1D0
330
1A
100
AcDbEntity
  8
BLACK
100
AcDbCircle
 10
0.7494488188976378
 20
1.068740157480315
 30
0
 40
0.0068897637795276
  0
CIRCLE
  5
1D1
330
1A
100
AcDbEntity
  8
BLACK
100
AcDbCircle
 10
0.6510236220472441
 20
1.068740157480315
 30
0
 40
0.0068897637795276
  0
CIRCLE
  5
1D2
330
1A
100
AcDbEntity
  8
BLACK
100
AcDbCircle
 10
0.5525984251968504
 20
1.068740157480315
 30
0
 40
0.0068897637795276
  0
CIRCLE
  5
1D3
330
1A
100
AcDbEntity
  8
BLACK
100
AcDbCircle
 10
0.9462992125984252
 20
0.9506299212598425
 30
0
 40
0.0068897637795276
  0
CIRCLE
  5
1D4
330
1A
100
AcDbEntity
  8
BLACK
100
AcDbCircle
 10
0.8478740157480315
 20
0.9506299212598425
 30
0
 40
0.0068897637795276
  0
CIRCLE
  5
1D5
330
1A
100
AcDbEntity
  8
BLACK
100
AcDbCircle
 10
0.7494488188976378
 20
0.9506299212598425
 30
0
 40
0.0068897637795276
  0
CIRCLE
  5
1D6
330
1A
100
AcDbEntity
  8
BLACK
100
AcDbCircle
 10
0.6510236220472441
 20
0.9506299212598425
 30
0
 40
0.0068897637795276
  0
CIRCLE
  5
1D7
330
1A
100
AcDbEntity
  8
BLACK
100
AcDbCircle
 10
0.5525984251968504
 20
0.9506299212598425
 30
0
 40
0.0068897637795276
  0
CIRCLE
  5
1D8
330
1A
100
AcDbEntity
  8
BLACK
100
AcDbCircle
 10
0.9462992125984252
 20
1.285275590551181
 30
0
 40
0.0068897637795276
  0
CIRCLE
  5
1D9
330
1A
100
AcDbEntity
  8
BLACK
100
AcDbCircle
 10
0.8478740157480315
 20
1.285275590551181
 30
0
 40
0.0068897637795276
  0
CIRCLE
  5
1DA
330
1A
100
AcDbEntity
  8
BLACK
100
AcDbCircle
 10
0.7494488188976378
 20
1.285275590551181
 30
0
 40
0.0068897637795276
  0
CIRCLE
  5
1DB
330
1A
100
AcDbEntity
  8
BLACK
100
AcDbCircle
 10
0.6510236220472441
 20
1.285275590551181
 30
0
 40
0.0068897637795276
  0
CIRCLE
  5
1DC
330
1A
100
AcDbEntity
  8
BLACK
100
AcDbCircle
 10
0.5525984251968504
 20
1.285275590551181
 30
0
 40
0.0068897637795276
  0
CIRCLE
  5
1DD
330
1A
100
AcDbEntity
  8
BLACK
100
AcDbCircle
 10
0.9462992125984252
 20
1.1671653543307086
 30
0
 40
0.0068897637795276
  0
CIRCLE
  5
1DE
330
1A
100
AcDbEntity
  8
BLACK
100
AcDbCircle
 10
0.8478740157480315
 20
1.1671653543307086
 30
0
 40
0.0068897637795276
  0
CIRCLE
  5
1DF
330
1A
100
AcDbEntity
  8
BLACK
100
AcDbCircle
 10
0.7494488188976378
 20
1.1671653543307086
 30
0
 40
0.0068897637795276
  0
CIRCLE
  5
1E0
330
1A
100
AcDbEntity
  8
BLACK
100
AcDbCircle
 10
0.6510236220472441
 20
1.1671653543307086
 30
0
 40
0.0068897637795276
  0
CIRCLE
  5
1E1
330
1A
100
AcDbEntity
  8
BLACK
100
AcDbCircle
 10
0.5525984251968504
 20
1.1671653543307086
 30
0
 40
0.0068897637795276
  0
CIRCLE
  5
1E2
330
1A
100
AcDbEntity
  8
BLACK
100
AcDbCircle
 10
0.9462992125984252
 20
2.1990551181102362
 30
0
 40
0.0068897637795276
  0
CIRCLE
  5
1E3
330
1A
100
AcDbEntity
  8
BLACK
100
AcDbCircle
 10
0.8478740157480315
 20
2.1990551181102362
 30
0
 40
0.0068897637795276
  0
CIRCLE
  5
1E4
330
1A
100
AcDbEntity
  8
BLACK
100
AcDbCircle
 10
0.7494488188976378
 20
2.1990551181102362
 30
0
 40
0.0068897637795276
  0
CIRCLE
  5
1E5
330
1A
100
AcDbEntity
  8
BLACK
100
AcDbCircle
 10
0.6510236220472441
 20
2.1990551181102362
 30
0
 40
0.0068897637795276
  0
CIRCLE
  5
1E6
330
1A
100
AcDbEntity
  8
BLACK
100
AcDbCircle
 10
0.5525984251968504
 20
2.1990551181102362
 30
0
 40
0.0068897637795276
  0
CIRCLE
  5
1E7
330
1A
100
AcDbEntity
  8
BLACK
100
AcDbCircle
 10
0.9462992125984252
 20
2.0809448818897636
 30
0
 40
0.0068897637795276
  0
CIRCLE
  5
1E8
330
1A
100
AcDbEntity
  8
BLACK
100
AcDbCircle
 10
0.8478740157480315
 20
2.0809448818897636
 30
0
 40
0.0068897637795276
  0
CIRCLE
  5
1E9
330
1A
100
AcDbEntity
  8
BLACK
100
AcDbCircle
 10
0.7494488188976378
 20
2.0809448818897636
 30
0
 40
0.0068897637795276
  0
CIRCLE
  5
1EA
330
1A
100
AcDbEntity
  8
BLACK
100
AcDbCircle
 10
0.6510236220472441
 20
2.0809448818897636
 30
0
 40
0.0068897637795276
  0
CIRCLE
  5
1EB
330
1A
100
AcDbEntity
  8
BLACK
100
AcDbCircle
 10
0.5525984251968504
 20
2.0809448818897636
 30
0
 40
0.0068897637795276
  0
CIRCLE
  5
1EC
330
1A
100
AcDbEntity
  8
BLACK
100
AcDbCircle
 10
0.9462992125984252
 20
2.4155905511811024
 30
0
 40
0.0068897637795276
  0
CIRCLE
  5
1ED
330
1A
100
AcDbEntity
  8
BLACK
100
AcDbCircle
 10
0.8478740157480315
 20
2.4155905511811024
 30
0
 40
0.0068897637795276
  0
CIRCLE
  5
1EE
330
1A
100
AcDbEntity
  8
BLACK
100
AcDbCircle
 10
0.7494488188976378
 20
2.4155905511811024
 30
0
 40
0.0068897637795276
  0
CIRCLE
  5
1EF
330
1A
100
AcDbEntity
  8
BLACK
100
AcDbCircle
 10
0.6510236220472441
 20
2.4155905511811024
 30
0
 40
0.0068897637795276
  0
CIRCLE
  5
1F0
330
1A
100
AcDbEntity
  8
BLACK
100
AcDbCircle
 10
0.5525984251968504
 20
2.4155905511811024
 30
0
 40
0.0068897637795276
  0
CIRCLE
  5
1F1
330
1A
100
AcDbEntity
  8
BLACK
100
AcDbCircle
 10
0.9462992125984252
 20
2.2974803149606298
 30
0
 40
0.0068897637795276
  0
CIRCLE
  5
1F2
330
1A
100
AcDbEntity
  8
BLACK
100
AcDbCircle
 10
0.8478740157480315
 20
2.2974803149606298
 30
0
 40
0.0068897637795276
  0
CIRCLE
  5
1F3
330
1A
100
AcDbEntity
  8
BLACK
100
AcDbCircle
 10
0.7494488188976378
 20
2.2974803149606298
 30
0
 40
0.0068897637795276
  0
CIRCLE
  5
1F4
330
1A
100
AcDbEntity
  8
BLACK
100
AcDbCircle
 10
0.6510236220472441
 20
2.2974803149606298
 30
0
 40
0.0068897637795276
  0
CIRCLE
  5
1F5
330
1A
100
AcDbEntity
  8
BLACK
100
AcDbCircle
 10
0.5525984251968504
 20
2.2974803149606298
 30
0
 40
0.0068897637795276
  0
LINE
  5
1F6
330
1A
100
AcDbEntity
  8
BLACK
  6
CONTINUOUS
100
AcDbLine
 10
5.1037795275590554
 20
1.0157874015748032
 30
0
 11
5.1195275590551184
 21
1.0157874015748032
 31
0
  0
ARC
  5
1F7
330
1A
100
AcDbEntity
  8
BLACK
100
AcDbCircle
 10
5.1195275590551184
 20
1.0256299212598425
 30
0
 40
0.0098425196850394
100
AcDbArc
 50
-90.00000000
 51
90.00000000
  0
LINE
  5
1F8
330
1A
100
AcDbEntity
  8
BLACK
  6
CONTINUOUS
100
AcDbLine
 10
5.1195275590551184
 20
1.0354724409448819
 30
0
 11
5.1037795275590554
 21
1.0354724409448819
 31
0
  0
ARC
  5
1F9
330
1A
100
AcDbEntity
  8
BLACK
100
AcDbCircle
 10
5.1037795275590554
 20
1.0256299212598425
 30
0
 40
0.0098425196850394
100
AcDbArc
 50
90.00000000
 51
270.00000000
  0
LINE
  5
1FA
330
1A
100
AcDbEntity
  8
BLACK
  6
CONTINUOUS
100
AcDbLine
 10
5.1037795275590554
 20
1.1831102362204724
 30
0
 11
5.1195275590551184
 21
1.1831102362204724
 31
0
  0
ARC
  5
1FB
330
1A
100
AcDbEntity
  8
BLACK
100
AcDbCircle
 10
5.1195275590551184
 20
1.1929527559055118
 30
0
 40
0.0098425196850394
100
AcDbArc
 50
-90.00000000
 51
90.00000000
  0
LINE
  5
1FC
330
1A
100
AcDbEntity
  8
BLACK
  6
CONTINUOUS
100
AcDbLine
 10
5.1195275590551184
 20
1.2027952755905511
 30
0
 11
5.1037795275590554
 21
1.2027952755905511
 31
0
  0
ARC
  5
1FD
330
1A
100
AcDbEntity
  8
BLACK
100
AcDbCircle
 10
5.1037795275590554
 20
1.1929527559055118
 30
0
 40
0.0098425196850394
100
AcDbArc
 50
90.00000000
 51
270.00000000
  0
CIRCLE
  5
1FE
330
1A
100
AcDbEntity
  8
BLACK
100
AcDbCircle
 10
5.1360629921259839
 20
2.8010236220472442
 30
0
 40
0.0068897637795276
  0
CIRCLE
  5
1FF
330
1A
100
AcDbEntity
  8
BLACK
100
AcDbCircle
 10
5.1360629921259839
 20
2.5734645669291338
 30
0
 40
0.0068897637795276
  0
LINE
  5
200
330
1A
100
AcDbEntity
  8
BLACK
  6
CONTINUOUS
100
AcDbLine
 10
5.2966929133858267
 20
2.8691338582677166
 30
0
 11
5.2651968503937008
 21
2.8691338582677166
 31
0
  0
ARC
  5
201
330
1A
100
AcDbEntity
  8
BLACK
100
AcDbCircle
 10
5.2651968503937008
 20
2.8573228346456694
 30
0
 40
0.0118110236220472
100
AcDbArc
 50
90.00000000
 51
270.00000000
  0
LINE
  5
202
330
1A
100
AcDbEntity
  8
BLACK
  6
CONTINUOUS
100
AcDbLine
 10
5.2651968503937008
 20
2.8455118110236222
 30
0
 11
5.2966929133858267
 21
2.8455118110236222
 31
0
  0
ARC
  5
203
330
1A
100
AcDbEntity
  8
BLACK
100
AcDbCircle
 10
5.2966929133858267
 20
2.8573228346456694
 30
0
 40
0.0118110236220472
100
AcDbArc
 50
270.00000000
 51
450.00000000
  0
LINE
  5
204
330
1A
100
AcDbEntity
  8
BLACK
  6
CONTINUOUS
100
AcDbLine
 10
5.2966929133858267
 20
2.5289763779527559
 30
0
 11
5.2651968503937008
 21
2.5289763779527559
 31
0
  0
ARC
  5
205
330
1A
100
AcDbEntity
  8
BLACK
100
AcDbCircle
 10
5.2651968503937008
 20
2.5171653543307086
 30
0
 40
0.0118110236220472
100
AcDbArc
 50
90.00000000
 51
270.00000000
  0
LINE
  5
206
330
1A
100
AcDbEntity
  8
BLACK
  6
CONTINUOUS
100
AcDbLine
 10
5.2651968503937008
 20
2.5053543307086614
 30
0
 11
5.2966929133858267
 21
2.5053543307086614
 31
0
  0
ARC
  5
207
330
1A
100
AcDbEntity
  8
BLACK
100
AcDbCircle
 10
5.2966929133858267
 20
2.5171653543307086
 30
0
 40
0.0118110236220472
100
AcDbArc
 50
270.00000000
 51
450.00000000
  0
LINE
  5
208
330
1A
100
AcDbEntity
  8
BLACK
  6
CONTINUOUS
100
AcDbLine
 10
5.1380314960629923
 20
2.8691338582677166
 30
0
 11
5.0947244094488191
 21
2.8691338582677166
 31
0
  0
ARC
  5
209
330
1A
100
AcDbEntity
  8
BLACK
100
AcDbCircle
 10
5.0947244094488191
 20
2.8573228346456694
 30
0
 40
0.0118110236220472
100
AcDbArc
 50
90.00000000
 51
270.00000000
  0
LINE
  5
20A
330
1A
100
AcDbEntity
  8
BLACK
  6
CONTINUOUS
100
AcDbLine
 10
5.0947244094488191
 20
2.8455118110236222
 30
0
 11
5.1380314960629923
 21
2.8455118110236222
 31
0
  0
ARC
  5
20B
330
1A
100
AcDbEntity
  8
BLACK
100
AcDbCircle
 10
5.1380314960629923
 20
2.8573228346456694
 30
0
 40
0.0118110236220472
100
AcDbArc
 50
270.00000000
 51
450.00000000
  0
LINE
  5
20C
330
1A
100
AcDbEntity
  8
BLACK
  6
CONTINUOUS
100
AcDbLine
 10
5.1380314960629923
 20
2.5289763779527559
 30
0
 11
5.0947244094488191
 21
2.5289763779527559
 31
0
  0
ARC
  5
20D
330
1A
100
AcDbEntity
  8
BLACK
100
AcDbCircle
 10
5.0947244094488191
 20
2.5171653543307086
 30
0
 40
0.0118110236220472
100
AcDbArc
 50
90.00000000
 51
270.00000000
  0
LINE
  5
20E
330
1A
100
AcDbEntity
  8
BLACK
  6
CONTINUOUS
100
AcDbLine
 10
5.0947244094488191
 20
2.5053543307086614
 30
0
 11
5.1380314960629923
 21
2.5053543307086614
 31
0
  0
ARC
  5
20F
330
1A
100
AcDbEntity
  8
BLACK
100
AcDbCircle
 10
5.1380314960629923
 20
2.5171653543307086
 30
0
 40
0.0118110236220472
100
AcDbArc
 50
270.00000000
 51
450.00000000
  0
ENDSEC
  0
SECTION
  2
OBJECTS
  0
DICTIONARY
  5
20
330
0
100
AcDbDictionary
281
1
  3
ACAD_GROUP
350
210
  3
ACAD_LAYOUT
350
21
  3
ACAD_PLOTSTYLENAME
350
11
  0
DICTIONARY
  5
210
330
20
100
AcDbDictionary
281
1
  0
ACDBDICTIONARYWDFLT
  5
11
330
20
100
AcDbDictionary
281
1
  3
Normal
350
10
100
AcDbDictionaryWithDefault
340
10
  0
ACDBPLACEHOLDER
  5
10
330
11
  0
DICTIONARY
  5
21
330
20
100
AcDbDictionary
281
1
  3
Model
350
1D
  3
Layout1
350
1E
  3
Layout2
350
1F
  0
LAYOUT
  5
1D
330
21
100
AcDbPlotSettings
  1

  2
none_device
  4
A3
  6

 40
0.0
 41
0.0
 42
0.0
 43
0.0
 44
420.0
 45
297.0
 46
0.0
 47
0.0
 48
0.0
 49
0.0
140
0.0
141
0.0
142
1.0
143
1.0
 70
1024
 72
1
 73
0
 74
5
  7

 75
16
 76
0
 77
2
 78
300
147
1.0
148
0.0
149
0.0
100
AcDbLayout
  1
Model
 70
1
 71
0
 10
0.0
 20
0.0
 11
420.0
 21
297.0
 12
0.0
 22
0.0
 32
0.0
 14
1e+20
 24
1e+20
 34
1e+20
 15
-1e+20
 25
-1e+20
 35
-1e+20
146
0.0
 13
0.0
 23
0.0
 33
0.0
 16
1.0
 26
0.0
 36
0.0
 17
0.0
 27
1.0
 37
0.0
 76
0
330
1A
  0
LAYOUT
  5
1E
330
21
100
AcDbPlotSettings
  1

  2
none_device
  4
A3
  6

 40
0.0
 41
0.0
 42
0.0
 43
0.0
 44
420.0
 45
297.0
 46
0.0
 47
0.0
 48
0.0
 49
0.0
140
0.0
141
0.0
142
1.0
143
1.0
 70
0
 72
1
 73
0
 74
5
  7

 75
16
 76
0
 77
2
 78
300
147
1.0
148
0.0
149
0.0
100
AcDbLayout
  1
Layout1
 70
1
 71
1
 10
0.0
 20
0.0
 11
420.0
 21
297.0
 12
0.0
 22
0.0
 32
0.0
 14
1e+20
 24
1e+20
 34
1e+20
 15
-1e+20
 25
-1e+20
 35
-1e+20
146
0.0
 13
0.0
 23
0.0
 33
0.0
 16
1.0
 26
0.0
 36
0.0
 17
0.0
 27
1.0
 37
0.0
 76
0
330
1B
  0
LAYOUT
  5
1F
330
21
100
AcDbPlotSettings
  1

  2
none_device
  4
A3
  6

 40
0.0
 41
0.0
 42
0.0
 43
0.0
 44
420.0
 45
297.0
 46
0.0
 47
0.0
 48
0.0
 49
0.0
140
0.0
141
0.0
142
1.0
143
1.0
 70
0
 72
1
 73
0
 74
5
  7

 75
16
 76
0
 77
2
 78
300
147
1.0
148
0.0
149
0.0
100
AcDbLayout
  1
Layout2
 70
1
 71
2
 10
0.0
 20
0.0
 11
420.0
 21
297.0
 12
0.0
 22
0.0
 32
0.0
 14
1e+20
 24
1e+20
 34
1e+20
 15
-1e+20
 25
-1e+20
 35
-1e+20
146
0.0
 13
0.0
 23
0.0
 33
0.0
 16
1.0
 26
0.0
 36
0.0
 17
0.0
 27
1.0
 37
0.0
 76
0
330
1C
  0
ENDSEC
  0
EOF
