  0
SECTION
  2
HEADER
  9
$ACADVER
  1
AC1018
  9
$HANDSEED
  5
FFFFFFFF
  9
$ANGBASE
  50
0.0
  9
$ANGDIR
  70
1
  9
$MEASUREMENT
  70
0
  9
$INSUNITS
  70
1
  0
ENDSEC
  0
SECTION
  2
TABLES
  0
TABLE
  2
APPID
  5
1
330
0
100
AcDbSymbolTable
 70
1
  0
APPID
  5
2
330
1
100
AcDbSymbolTableRecord
100
AcDbRegAppTableRecord
  2
ACAD
 70
0
  0
ENDTAB
  0
TABLE
  2
LTYPE
  5
3
330
0
100
AcDbSymbolTable
 70
6
  0
LTYPE
  5
4
330
3
100
AcDbSymbolTableRecord
100
AcDbLinetypeTableRecord
  2
ByBlock
 70
0
  3

 72
65
 73
0
 40
0
  0
LTYPE
  5
5
330
3
100
AcDbSymbolTableRecord
100
AcDbLinetypeTableRecord
  2
ByLayer
 70
0
  3

 72
65
 73
0
 40
0
  0
LTYPE
  5
6
330
3
100
AcDbSymbolTableRecord
100
AcDbLinetypeTableRecord
  2
CONTINUOUS
 70
0
  3
Solid line
 72
65
 73
0
 40
0
  0
LTYPE
  5
7
330
3
100
AcDbSymbolTableRecord
100
AcDbLinetypeTableRecord
  2
DASHDOT
 70
0
  3
Dash Dot ____ _ ____ _
 72
65
 73
4
 40
2
 49
1.25
 74
0
 49
-0.25
 74
0
 49
0.25
 74
0
 49
-0.25
 74
0
  0
LTYPE
  5
8
330
3
100
AcDbSymbolTableRecord
100
AcDbLinetypeTableRecord
  2
DASHED
 70
0
  3
Dashed __ __ __ __ __
 72
65
 73
2
 40
0.75
 49
0.5
 74
0
 49
-0.25
 74
0
  0
LTYPE
  5
9
330
3
100
AcDbSymbolTableRecord
100
AcDbLinetypeTableRecord
  2
DOTTED
 70
0
  3
Dotted .  .  .  .
 72
65
 73
2
 40
0.2
 49
0.0
 74
0
 49
-0.2
 74
0
  0
ENDTAB
  0
TABLE
  2
STYLE
  5
A
330
0
100
AcDbSymbolTable
 70
4
  0
STYLE
  5
B
330
A
100
AcDbSymbolTableRecord
100
AcDbTextStyleTableRecord
  2
KICAD
 70
0
 40
0
 41
1
 42
1
 50
0
 71
0
  3
isocp.shx
  0
STYLE
  5
C
330
A
100
AcDbSymbolTableRecord
100
AcDbTextStyleTableRecord
  2
KICADB
 70
0
 40
0
 41
1
 42
1
 50
0
 71
0
  3
isocp.shx
  0
STYLE
  5
D
330
A
100
AcDbSymbolTableRecord
100
AcDbTextStyleTableRecord
  2
KICADI
 70
0
 40
0
 41
1
 42
1
 50
15
 71
0
  3
isocp.shx
  0
STYLE
  5
E
330
A
100
AcDbSymbolTableRecord
100
AcDbTextStyleTableRecord
  2
KICADBI
 70
0
 40
0
 41
1
 42
1
 50
15
 71
0
  3
isocp.shx
  0
ENDTAB
  0
TABLE
  2
LAYER
  5
F
330
0
100
AcDbSymbolTable
 70
2
  0
LAYER
  5
12
330
F
100
AcDbSymbolTableRecord
100
AcDbLayerTableRecord
  2
0
 70
0
 62
7
  6
CONTINUOUS
390
10
  0
LAYER
  5
13
330
F
100
AcDbSymbolTableRecord
100
AcDbLayerTableRecord
  2
BLACK
 70
0
 62
250
  6
CONTINUOUS
390
10
  0
ENDTAB
  0
TABLE
  2
VPORT
  5
14
330
0
100
AcDbSymbolTable
 70
0
  0
ENDTAB
  0
TABLE
  2
VIEW
  5
15
330
0
100
AcDbSymbolTable
 70
0
  0
ENDTAB
  0
TABLE
  2
UCS
  5
16
330
0
100
AcDbSymbolTable
 70
0
  0
ENDTAB
  0
TABLE
  2
DIMSTYLE
  5
17
330
0
100
AcDbSymbolTable
 70
1
100
AcDbDimStyleTable
 71
0
  0
DIMSTYLE
105
18
330
17
100
AcDbSymbolTableRecord
100
AcDbDimStyleTableRecord
  2
Standard
 70
0
  0
ENDTAB
  0
TABLE
  2
BLOCK_RECORD
  5
19
330
0
100
AcDbSymbolTable
 70
3
  0
BLOCK_RECORD
  5
1A
330
19
100
AcDbSymbolTableRecord
100
AcDbBlockTableRecord
  2
*Model_Space
340
1D
 70
0
280
1
281
0
  0
BLOCK_RECORD
  5
1B
330
19
100
AcDbSymbolTableRecord
100
AcDbBlockTableRecord
  2
*Paper_Space
340
1E
 70
0
280
1
281
0
  0
BLOCK_RECORD
  5
1C
330
19
100
AcDbSymbolTableRecord
100
AcDbBlockTableRecord
  2
*Paper_Space0
340
1F
 70
0
280
1
281
0
  0
ENDTAB
  0
ENDSEC
  0
SECTION
  2
BLOCKS
  0
BLOCK
  5
23
330
1A
100
AcDbEntity
  8
0
100
AcDbBlockBegin
  2
*Model_Space
 70
0
 10
0.0
 20
0.0
 30
0.0
  3
*Model_Space
  1

  0
ENDBLK
  5
22
330
1A
100
AcDbEntity
  8
0
100
AcDbBlockEnd
  0
BLOCK
  5
25
330
1B
100
AcDbEntity
 67
1
  8
0
100
AcDbBlockBegin
  2
*Paper_Space
 70
0
 10
0.0
 20
0.0
 30
0.0
  3
*Paper_Space
  1

  0
ENDBLK
  5
24
330
1B
100
AcDbEntity
 67
1
  8
0
100
AcDbBlockEnd
  0
BLOCK
  5
27
330
1C
100
AcDbEntity
 67
1
  8
0
100
AcDbBlockBegin
  2
*Paper_Space0
 70
0
 10
0.0
 20
0.0
 30
0.0
  3
*Paper_Space0
  1

  0
ENDBLK
  5
26
330
1C
100
AcDbEntity
 67
1
  8
0
100
AcDbBlockEnd
  0
ENDSEC
  0
SECTION
  2
ENTITIES
  0
LINE
  5
28
330
1A
100
AcDbEntity
  8
BLACK
  6
CONTINUOUS
100
AcDbLine
 10
5.3173622047244091
 20
0.6535826771653543
 30
0
 11
5.2779921259842517
 21
0.6535826771653543
 31
0
  0
LINE
  5
29
330
1A
100
AcDbEntity
  8
BLACK
  6
CONTINUOUS
100
AcDbLine
 10
5.2779921259842517
 20
0.6535826771653543
 30
0
 11
5.2779921259842517
 21
0.689015748031496
 31
0
  0
LINE
  5
2A
330
1A
100
AcDbEntity
  8
BLACK
  6
CONTINUOUS
100
AcDbLine
 10
5.2779921259842517
 20
0.689015748031496
 30
0
 11
5.3173622047244091
 21
0.689015748031496
 31
0
  0
LINE
  5
2B
330
1A
100
AcDbEntity
  8
BLACK
  6
CONTINUOUS
100
AcDbLine
 10
5.3173622047244091
 20
0.689015748031496
 30
0
 11
5.3173622047244091
 21
0.6535826771653543
 31
0
  0
LINE
  5
2C
330
1A
100
AcDbEntity
  8
BLACK
  6
CONTINUOUS
100
AcDbLine
 10
5.3173622047244091
 20
0.7165748031496063
 30
0
 11
5.2779921259842517
 21
0.7165748031496063
 31
0
  0
LINE
  5
2D
330
1A
100
AcDbEntity
  8
BLACK
  6
CONTINUOUS
100
AcDbLine
 10
5.2779921259842517
 20
0.7165748031496063
 30
0
 11
5.2779921259842517
 21
0.752007874015748
 31
0
  0
LINE
  5
2E
330
1A
100
AcDbEntity
  8
BLACK
  6
CONTINUOUS
100
AcDbLine
 10
5.2779921259842517
 20
0.752007874015748
 30
0
 11
5.3173622047244091
 21
0.752007874015748
 31
0
  0
LINE
  5
2F
330
1A
100
AcDbEntity
  8
BLACK
  6
CONTINUOUS
100
AcDbLine
 10
5.3173622047244091
 20
0.752007874015748
 30
0
 11
5.3173622047244091
 21
0.7165748031496063
 31
0
  0
LINE
  5
30
330
1A
100
AcDbEntity
  8
BLACK
  6
CONTINUOUS
100
AcDbLine
 10
5.3173622047244091
 20
0.7628346456692913
 30
0
 11
5.2779921259842517
 21
0.7628346456692913
 31
0
  0
LINE
  5
31
330
1A
100
AcDbEntity
  8
BLACK
  6
CONTINUOUS
100
AcDbLine
 10
5.2779921259842517
 20
0.7628346456692913
 30
0
 11
5.2779921259842517
 21
0.798267716535433
 31
0
  0
LINE
  5
32
330
1A
100
AcDbEntity
  8
BLACK
  6
CONTINUOUS
100
AcDbLine
 10
5.2779921259842517
 20
0.798267716535433
 30
0
 11
5.3173622047244091
 21
0.798267716535433
 31
0
  0
LINE
  5
33
330
1A
100
AcDbEntity
  8
BLACK
  6
CONTINUOUS
100
AcDbLine
 10
5.3173622047244091
 20
0.798267716535433
 30
0
 11
5.3173622047244091
 21
0.7628346456692913
 31
0
  0
LINE
  5
34
330
1A
100
AcDbEntity
  8
BLACK
  6
CONTINUOUS
100
AcDbLine
 10
5.3173622047244091
 20
0.8258267716535432
 30
0
 11
5.2779921259842517
 21
0.8258267716535432
 31
0
  0
LINE
  5
35
330
1A
100
AcDbEntity
  8
BLACK
  6
CONTINUOUS
100
AcDbLine
 10
5.2779921259842517
 20
0.8258267716535432
 30
0
 11
5.2779921259842517
 21
0.861259842519685
 31
0
  0
LINE
  5
36
330
1A
100
AcDbEntity
  8
BLACK
  6
CONTINUOUS
100
AcDbLine
 10
5.2779921259842517
 20
0.861259842519685
 30
0
 11
5.3173622047244091
 21
0.861259842519685
 31
0
  0
LINE
  5
37
330
1A
100
AcDbEntity
  8
BLACK
  6
CONTINUOUS
100
AcDbLine
 10
5.3173622047244091
 20
0.861259842519685
 30
0
 11
5.3173622047244091
 21
0.8258267716535432
 31
0
  0
LINE
  5
38
330
1A
100
AcDbEntity
  8
BLACK
  6
CONTINUOUS
100
AcDbLine
 10
5.3173622047244091
 20
0.8720866141732283
 30
0
 11
5.2779921259842517
 21
0.8720866141732283
 31
0
  0
LINE
  5
39
330
1A
100
AcDbEntity
  8
BLACK
  6
CONTINUOUS
100
AcDbLine
 10
5.2779921259842517
 20
0.8720866141732283
 30
0
 11
5.2779921259842517
 21
0.9075196850393701
 31
0
  0
LINE
  5
3A
330
1A
100
AcDbEntity
  8
BLACK
  6
CONTINUOUS
100
AcDbLine
 10
5.2779921259842517
 20
0.9075196850393701
 30
0
 11
5.3173622047244091
 21
0.9075196850393701
 31
0
  0
LINE
  5
3B
330
1A
100
AcDbEntity
  8
BLACK
  6
CONTINUOUS
100
AcDbLine
 10
5.3173622047244091
 20
0.9075196850393701
 30
0
 11
5.3173622047244091
 21
0.8720866141732283
 31
0
  0
LINE
  5
3C
330
1A
100
AcDbEntity
  8
BLACK
  6
CONTINUOUS
100
AcDbLine
 10
5.3173622047244091
 20
0.9350787401574803
 30
0
 11
5.2779921259842517
 21
0.9350787401574803
 31
0
  0
LINE
  5
3D
330
1A
100
AcDbEntity
  8
BLACK
  6
CONTINUOUS
100
AcDbLine
 10
5.2779921259842517
 20
0.9350787401574803
 30
0
 11
5.2779921259842517
 21
0.9705118110236221
 31
0
  0
LINE
  5
3E
330
1A
100
AcDbEntity
  8
BLACK
  6
CONTINUOUS
100
AcDbLine
 10
5.2779921259842517
 20
0.9705118110236221
 30
0
 11
5.3173622047244091
 21
0.9705118110236221
 31
0
  0
LINE
  5
3F
330
1A
100
AcDbEntity
  8
BLACK
  6
CONTINUOUS
100
AcDbLine
 10
5.3173622047244091
 20
0.9705118110236221
 30
0
 11
5.3173622047244091
 21
0.9350787401574803
 31
0
  0
LINE
  5
40
330
1A
100
AcDbEntity
  8
BLACK
  6
CONTINUOUS
100
AcDbLine
 10
5.1652403149606299
 20
1.0613729527559055
 30
0
 11
5.1681141338582677
 21
1.059452716535433
 31
0
  0
LINE
  5
41
330
1A
100
AcDbEntity
  8
BLACK
  6
CONTINUOUS
100
AcDbLine
 10
5.1681141338582677
 20
1.059452716535433
 30
0
 11
5.1700343700787403
 21
1.0565788976377952
 31
0
  0
LINE
  5
42
330
1A
100
AcDbEntity
  8
BLACK
  6
CONTINUOUS
100
AcDbLine
 10
5.1700343700787403
 20
1.0565788976377952
 30
0
 11
5.170708661417323
 21
1.0531889763779527
 31
0
  0
LINE
  5
43
330
1A
100
AcDbEntity
  8
BLACK
  6
CONTINUOUS
100
AcDbLine
 10
5.170708661417323
 20
1.0531889763779527
 30
0
 11
5.170708661417323
 21
1.0197244094488189
 31
0
  0
LINE
  5
44
330
1A
100
AcDbEntity
  8
BLACK
  6
CONTINUOUS
100
AcDbLine
 10
5.170708661417323
 20
1.0197244094488189
 30
0
 11
5.1700343700787403
 21
1.0163344881889764
 31
0
  0
LINE
  5
45
330
1A
100
AcDbEntity
  8
BLACK
  6
CONTINUOUS
100
AcDbLine
 10
5.1700343700787403
 20
1.0163344881889764
 30
0
 11
5.1681141338582677
 21
1.0134606692913386
 31
0
  0
LINE
  5
46
330
1A
100
AcDbEntity
  8
BLACK
  6
CONTINUOUS
100
AcDbLine
 10
5.1681141338582677
 20
1.0134606692913386
 30
0
 11
5.1652403149606299
 21
1.0115404330708662
 31
0
  0
LINE
  5
47
330
1A
100
AcDbEntity
  8
BLACK
  6
CONTINUOUS
100
AcDbLine
 10
5.1652403149606299
 20
1.0115404330708662
 30
0
 11
5.1618503937007869
 21
1.0108661417322835
 31
0
  0
LINE
  5
48
330
1A
100
AcDbEntity
  8
BLACK
  6
CONTINUOUS
100
AcDbLine
 10
5.1618503937007869
 20
1.0108661417322835
 30
0
 11
5.1441338582677165
 21
1.0108661417322835
 31
0
  0
LINE
  5
49
330
1A
100
AcDbEntity
  8
BLACK
  6
CONTINUOUS
100
AcDbLine
 10
5.1441338582677165
 20
1.0108661417322835
 30
0
 11
5.1407439370078736
 21
1.0115404330708662
 31
0
  0
LINE
  5
4A
330
1A
100
AcDbEntity
  8
BLACK
  6
CONTINUOUS
100
AcDbLine
 10
5.1407439370078736
 20
1.0115404330708662
 30
0
 11
5.1378701181102358
 21
1.0134606692913386
 31
0
  0
LINE
  5
4B
330
1A
100
AcDbEntity
  8
BLACK
  6
CONTINUOUS
100
AcDbLine
 10
5.1378701181102358
 20
1.0134606692913386
 30
0
 11
5.135949881889764
 21
1.0163344881889764
 31
0
  0
LINE
  5
4C
330
1A
100
AcDbEntity
  8
BLACK
  6
CONTINUOUS
100
AcDbLine
 10
5.135949881889764
 20
1.0163344881889764
 30
0
 11
5.1352755905511813
 21
1.0197244094488189
 31
0
  0
LINE
  5
4D
330
1A
100
AcDbEntity
  8
BLACK
  6
CONTINUOUS
100
AcDbLine
 10
5.1352755905511813
 20
1.0197244094488189
 30
0
 11
5.1352755905511813
 21
1.0531889763779527
 31
0
  0
LINE
  5
4E
330
1A
100
AcDbEntity
  8
BLACK
  6
CONTINUOUS
100
AcDbLine
 10
5.1352755905511813
 20
1.0531889763779527
 30
0
 11
5.135949881889764
 21
1.0565788976377952
 31
0
  0
LINE
  5
4F
330
1A
100
AcDbEntity
  8
BLACK
  6
CONTINUOUS
100
AcDbLine
 10
5.135949881889764
 20
1.0565788976377952
 30
0
 11
5.1378701181102358
 21
1.059452716535433
 31
0
  0
LINE
  5
50
330
1A
100
AcDbEntity
  8
BLACK
  6
CONTINUOUS
100
AcDbLine
 10
5.1378701181102358
 20
1.059452716535433
 30
0
 11
5.1407439370078736
 21
1.0613729527559055
 31
0
  0
LINE
  5
51
330
1A
100
AcDbEntity
  8
BLACK
  6
CONTINUOUS
100
AcDbLine
 10
5.1407439370078736
 20
1.0613729527559055
 30
0
 11
5.1441338582677165
 21
1.0620472440944881
 31
0
  0
LINE
  5
52
330
1A
100
AcDbEntity
  8
BLACK
  6
CONTINUOUS
100
AcDbLine
 10
5.1441338582677165
 20
1.0620472440944881
 30
0
 11
5.1618503937007869
 21
1.0620472440944881
 31
0
  0
LINE
  5
53
330
1A
100
AcDbEntity
  8
BLACK
  6
CONTINUOUS
100
AcDbLine
 10
5.1618503937007869
 20
1.0620472440944881
 30
0
 11
5.1652403149606299
 21
1.0613729527559055
 31
0
  0
LINE
  5
54
330
1A
100
AcDbEntity
  8
BLACK
  6
CONTINUOUS
100
AcDbLine
 10
5.1070965748031494
 20
1.0752648425196849
 30
0
 11
5.109491456692913
 21
1.0736646850393701
 31
0
  0
LINE
  5
55
330
1A
100
AcDbEntity
  8
BLACK
  6
CONTINUOUS
100
AcDbLine
 10
5.109491456692913
 20
1.0736646850393701
 30
0
 11
5.1110916141732279
 21
1.0712698031496062
 31
0
  0
LINE
  5
56
330
1A
100
AcDbEntity
  8
BLACK
  6
CONTINUOUS
100
AcDbLine
 10
5.1110916141732279
 20
1.0712698031496062
 30
0
 11
5.1116535433070869
 21
1.0684448818897638
 31
0
  0
LINE
  5
57
330
1A
100
AcDbEntity
  8
BLACK
  6
CONTINUOUS
100
AcDbLine
 10
5.1116535433070869
 20
1.0684448818897638
 30
0
 11
5.1116535433070869
 21
1.0536811023622048
 31
0
  0
LINE
  5
58
330
1A
100
AcDbEntity
  8
BLACK
  6
CONTINUOUS
100
AcDbLine
 10
5.1116535433070869
 20
1.0536811023622048
 30
0
 11
5.1110916141732279
 21
1.0508561811023622
 31
0
  0
LINE
  5
59
330
1A
100
AcDbEntity
  8
BLACK
  6
CONTINUOUS
100
AcDbLine
 10
5.1110916141732279
 20
1.0508561811023622
 30
0
 11
5.109491456692913
 21
1.0484612992125983
 31
0
  0
LINE
  5
5A
330
1A
100
AcDbEntity
  8
BLACK
  6
CONTINUOUS
100
AcDbLine
 10
5.109491456692913
 20
1.0484612992125983
 30
0
 11
5.1070965748031494
 21
1.0468611417322835
 31
0
  0
LINE
  5
5B
330
1A
100
AcDbEntity
  8
BLACK
  6
CONTINUOUS
100
AcDbLine
 10
5.1070965748031494
 20
1.0468611417322835
 30
0
 11
5.1042716535433073
 21
1.0462992125984252
 31
0
  0
LINE
  5
5C
330
1A
100
AcDbEntity
  8
BLACK
  6
CONTINUOUS
100
AcDbLine
 10
5.1042716535433073
 20
1.0462992125984252
 30
0
 11
5.0481692913385823
 21
1.0462992125984252
 31
0
  0
LINE
  5
5D
330
1A
100
AcDbEntity
  8
BLACK
  6
CONTINUOUS
100
AcDbLine
 10
5.0481692913385823
 20
1.0462992125984252
 30
0
 11
5.0453443700787401
 21
1.0468611417322835
 31
0
  0
LINE
  5
5E
330
1A
100
AcDbEntity
  8
BLACK
  6
CONTINUOUS
100
AcDbLine
 10
5.0453443700787401
 20
1.0468611417322835
 30
0
 11
5.0429494881889765
 21
1.0484612992125983
 31
0
  0
LINE
  5
5F
330
1A
100
AcDbEntity
  8
BLACK
  6
CONTINUOUS
100
AcDbLine
 10
5.0429494881889765
 20
1.0484612992125983
 30
0
 11
5.0413493307086616
 21
1.0508561811023622
 31
0
  0
LINE
  5
60
330
1A
100
AcDbEntity
  8
BLACK
  6
CONTINUOUS
100
AcDbLine
 10
5.0413493307086616
 20
1.0508561811023622
 30
0
 11
5.0407874015748027
 21
1.0536811023622048
 31
0
  0
LINE
  5
61
330
1A
100
AcDbEntity
  8
BLACK
  6
CONTINUOUS
100
AcDbLine
 10
5.0407874015748027
 20
1.0536811023622048
 30
0
 11
5.0407874015748027
 21
1.0684448818897638
 31
0
  0
LINE
  5
62
330
1A
100
AcDbEntity
  8
BLACK
  6
CONTINUOUS
100
AcDbLine
 10
5.0407874015748027
 20
1.0684448818897638
 30
0
 11
5.0413493307086616
 21
1.0712698031496062
 31
0
  0
LINE
  5
63
330
1A
100
AcDbEntity
  8
BLACK
  6
CONTINUOUS
100
AcDbLine
 10
5.0413493307086616
 20
1.0712698031496062
 30
0
 11
5.0429494881889765
 21
1.0736646850393701
 31
0
  0
LINE
  5
64
330
1A
100
AcDbEntity
  8
BLACK
  6
CONTINUOUS
100
AcDbLine
 10
5.0429494881889765
 20
1.0736646850393701
 30
0
 11
5.0453443700787401
 21
1.0752648425196849
 31
0
  0
LINE
  5
65
330
1A
100
AcDbEntity
  8
BLACK
  6
CONTINUOUS
100
AcDbLine
 10
5.0453443700787401
 20
1.0752648425196849
 30
0
 11
5.0481692913385823
 21
1.0758267716535432
 31
0
  0
LINE
  5
66
330
1A
100
AcDbEntity
  8
BLACK
  6
CONTINUOUS
100
AcDbLine
 10
5.0481692913385823
 20
1.0758267716535432
 30
0
 11
5.1042716535433073
 21
1.0758267716535432
 31
0
  0
LINE
  5
67
330
1A
100
AcDbEntity
  8
BLACK
  6
CONTINUOUS
100
AcDbLine
 10
5.1042716535433073
 20
1.0758267716535432
 30
0
 11
5.1070965748031494
 21
1.0752648425196849
 31
0
  0
LINE
  5
68
330
1A
100
AcDbEntity
  8
BLACK
  6
CONTINUOUS
100
AcDbLine
 10
5.1080079921259838
 20
1.1206528346456692
 30
0
 11
5.1099238582677167
 21
1.1193726771653543
 31
0
  0
LINE
  5
69
330
1A
100
AcDbEntity
  8
BLACK
  6
CONTINUOUS
100
AcDbLine
 10
5.1099238582677167
 20
1.1193726771653543
 30
0
 11
5.1112040157480312
 21
1.117456811023622
 31
0
  0
LINE
  5
6A
330
1A
100
AcDbEntity
  8
BLACK
  6
CONTINUOUS
100
AcDbLine
 10
5.1112040157480312
 20
1.117456811023622
 30
0
 11
5.1116535433070869
 21
1.1151968503937009
 31
0
  0
LINE
  5
6B
330
1A
100
AcDbEntity
  8
BLACK
  6
CONTINUOUS
100
AcDbLine
 10
5.1116535433070869
 20
1.1151968503937009
 30
0
 11
5.1116535433070869
 21
1.1033858267716534
 31
0
  0
LINE
  5
6C
330
1A
100
AcDbEntity
  8
BLACK
  6
CONTINUOUS
100
AcDbLine
 10
5.1116535433070869
 20
1.1033858267716534
 30
0
 11
5.1112040157480312
 21
1.1011258661417322
 31
0
  0
LINE
  5
6D
330
1A
100
AcDbEntity
  8
BLACK
  6
CONTINUOUS
100
AcDbLine
 10
5.1112040157480312
 20
1.1011258661417322
 30
0
 11
5.1099238582677167
 21
1.09921
 31
0
  0
LINE
  5
6E
330
1A
100
AcDbEntity
  8
BLACK
  6
CONTINUOUS
100
AcDbLine
 10
5.1099238582677167
 20
1.09921
 30
0
 11
5.1080079921259838
 21
1.0979298425196851
 31
0
  0
LINE
  5
6F
330
1A
100
AcDbEntity
  8
BLACK
  6
CONTINUOUS
100
AcDbLine
 10
5.1080079921259838
 20
1.0979298425196851
 30
0
 11
5.1057480314960628
 21
1.0974803149606298
 31
0
  0
LINE
  5
70
330
1A
100
AcDbEntity
  8
BLACK
  6
CONTINUOUS
100
AcDbLine
 10
5.1057480314960628
 20
1.0974803149606298
 30
0
 11
5.0466929133858267
 21
1.0974803149606298
 31
0
  0
LINE
  5
71
330
1A
100
AcDbEntity
  8
BLACK
  6
CONTINUOUS
100
AcDbLine
 10
5.0466929133858267
 20
1.0974803149606298
 30
0
 11
5.0444329527559058
 21
1.0979298425196851
 31
0
  0
LINE
  5
72
330
1A
100
AcDbEntity
  8
BLACK
  6
CONTINUOUS
100
AcDbLine
 10
5.0444329527559058
 20
1.0979298425196851
 30
0
 11
5.0425170866141729
 21
1.09921
 31
0
  0
LINE
  5
73
330
1A
100
AcDbEntity
  8
BLACK
  6
CONTINUOUS
100
AcDbLine
 10
5.0425170866141729
 20
1.09921
 30
0
 11
5.0412369291338583
 21
1.1011258661417322
 31
0
  0
LINE
  5
74
330
1A
100
AcDbEntity
  8
BLACK
  6
CONTINUOUS
100
AcDbLine
 10
5.0412369291338583
 20
1.1011258661417322
 30
0
 11
5.0407874015748027
 21
1.1033858267716534
 31
0
  0
LINE
  5
75
330
1A
100
AcDbEntity
  8
BLACK
  6
CONTINUOUS
100
AcDbLine
 10
5.0407874015748027
 20
1.1033858267716534
 30
0
 11
5.0407874015748027
 21
1.1151968503937009
 31
0
  0
LINE
  5
76
330
1A
100
AcDbEntity
  8
BLACK
  6
CONTINUOUS
100
AcDbLine
 10
5.0407874015748027
 20
1.1151968503937009
 30
0
 11
5.0412369291338583
 21
1.117456811023622
 31
0
  0
LINE
  5
77
330
1A
100
AcDbEntity
  8
BLACK
  6
CONTINUOUS
100
AcDbLine
 10
5.0412369291338583
 20
1.117456811023622
 30
0
 11
5.0425170866141729
 21
1.1193726771653543
 31
0
  0
LINE
  5
78
330
1A
100
AcDbEntity
  8
BLACK
  6
CONTINUOUS
100
AcDbLine
 10
5.0425170866141729
 20
1.1193726771653543
 30
0
 11
5.0444329527559058
 21
1.1206528346456692
 31
0
  0
LINE
  5
79
330
1A
100
AcDbEntity
  8
BLACK
  6
CONTINUOUS
100
AcDbLine
 10
5.0444329527559058
 20
1.1206528346456692
 30
0
 11
5.0466929133858267
 21
1.1211023622047245
 31
0
  0
LINE
  5
7A
330
1A
100
AcDbEntity
  8
BLACK
  6
CONTINUOUS
100
AcDbLine
 10
5.0466929133858267
 20
1.1211023622047245
 30
0
 11
5.1057480314960628
 21
1.1211023622047245
 31
0
  0
LINE
  5
7B
330
1A
100
AcDbEntity
  8
BLACK
  6
CONTINUOUS
100
AcDbLine
 10
5.1057480314960628
 20
1.1211023622047245
 30
0
 11
5.1080079921259838
 21
1.1206528346456692
 31
0
  0
LINE
  5
7C
330
1A
100
AcDbEntity
  8
BLACK
  6
CONTINUOUS
100
AcDbLine
 10
5.1070965748031494
 20
1.1717215354330708
 30
0
 11
5.109491456692913
 21
1.1701213779527559
 31
0
  0
LINE
  5
7D
330
1A
100
AcDbEntity
  8
BLACK
  6
CONTINUOUS
100
AcDbLine
 10
5.109491456692913
 20
1.1701213779527559
 30
0
 11
5.1110916141732279
 21
1.1677264960629921
 31
0
  0
LINE
  5
7E
330
1A
100
AcDbEntity
  8
BLACK
  6
CONTINUOUS
100
AcDbLine
 10
5.1110916141732279
 20
1.1677264960629921
 30
0
 11
5.1116535433070869
 21
1.1649015748031495
 31
0
  0
LINE
  5
7F
330
1A
100
AcDbEntity
  8
BLACK
  6
CONTINUOUS
100
AcDbLine
 10
5.1116535433070869
 20
1.1649015748031495
 30
0
 11
5.1116535433070869
 21
1.1501377952755905
 31
0
  0
LINE
  5
80
330
1A
100
AcDbEntity
  8
BLACK
  6
CONTINUOUS
100
AcDbLine
 10
5.1116535433070869
 20
1.1501377952755905
 30
0
 11
5.1110916141732279
 21
1.1473128740157481
 31
0
  0
LINE
  5
81
330
1A
100
AcDbEntity
  8
BLACK
  6
CONTINUOUS
100
AcDbLine
 10
5.1110916141732279
 20
1.1473128740157481
 30
0
 11
5.109491456692913
 21
1.1449179921259842
 31
0
  0
LINE
  5
82
330
1A
100
AcDbEntity
  8
BLACK
  6
CONTINUOUS
100
AcDbLine
 10
5.109491456692913
 20
1.1449179921259842
 30
0
 11
5.1070965748031494
 21
1.1433178346456692
 31
0
  0
LINE
  5
83
330
1A
100
AcDbEntity
  8
BLACK
  6
CONTINUOUS
100
AcDbLine
 10
5.1070965748031494
 20
1.1433178346456692
 30
0
 11
5.1042716535433073
 21
1.1427559055118111
 31
0
  0
LINE
  5
84
330
1A
100
AcDbEntity
  8
BLACK
  6
CONTINUOUS
100
AcDbLine
 10
5.1042716535433073
 20
1.1427559055118111
 30
0
 11
5.0481692913385823
 21
1.1427559055118111
 31
0
  0
LINE
  5
85
330
1A
100
AcDbEntity
  8
BLACK
  6
CONTINUOUS
100
AcDbLine
 10
5.0481692913385823
 20
1.1427559055118111
 30
0
 11
5.0453443700787401
 21
1.1433178346456692
 31
0
  0
LINE
  5
86
330
1A
100
AcDbEntity
  8
BLACK
  6
CONTINUOUS
100
AcDbLine
 10
5.0453443700787401
 20
1.1433178346456692
 30
0
 11
5.0429494881889765
 21
1.1449179921259842
 31
0
  0
LINE
  5
87
330
1A
100
AcDbEntity
  8
BLACK
  6
CONTINUOUS
100
AcDbLine
 10
5.0429494881889765
 20
1.1449179921259842
 30
0
 11
5.0413493307086616
 21
1.1473128740157481
 31
0
  0
LINE
  5
88
330
1A
100
AcDbEntity
  8
BLACK
  6
CONTINUOUS
100
AcDbLine
 10
5.0413493307086616
 20
1.1473128740157481
 30
0
 11
5.0407874015748027
 21
1.1501377952755905
 31
0
  0
LINE
  5
89
330
1A
100
AcDbEntity
  8
BLACK
  6
CONTINUOUS
100
AcDbLine
 10
5.0407874015748027
 20
1.1501377952755905
 30
0
 11
5.0407874015748027
 21
1.1649015748031495
 31
0
  0
LINE
  5
8A
330
1A
100
AcDbEntity
  8
BLACK
  6
CONTINUOUS
100
AcDbLine
 10
5.0407874015748027
 20
1.1649015748031495
 30
0
 11
5.0413493307086616
 21
1.1677264960629921
 31
0
  0
LINE
  5
8B
330
1A
100
AcDbEntity
  8
BLACK
  6
CONTINUOUS
100
AcDbLine
 10
5.0413493307086616
 20
1.1677264960629921
 30
0
 11
5.0429494881889765
 21
1.1701213779527559
 31
0
  0
LINE
  5
8C
330
1A
100
AcDbEntity
  8
BLACK
  6
CONTINUOUS
100
AcDbLine
 10
5.0429494881889765
 20
1.1701213779527559
 30
0
 11
5.0453443700787401
 21
1.1717215354330708
 31
0
  0
LINE
  5
8D
330
1A
100
AcDbEntity
  8
BLACK
  6
CONTINUOUS
100
AcDbLine
 10
5.0453443700787401
 20
1.1717215354330708
 30
0
 11
5.0481692913385823
 21
1.1722834645669291
 31
0
  0
LINE
  5
8E
330
1A
100
AcDbEntity
  8
BLACK
  6
CONTINUOUS
100
AcDbLine
 10
5.0481692913385823
 20
1.1722834645669291
 30
0
 11
5.1042716535433073
 21
1.1722834645669291
 31
0
  0
LINE
  5
8F
330
1A
100
AcDbEntity
  8
BLACK
  6
CONTINUOUS
100
AcDbLine
 10
5.1042716535433073
 20
1.1722834645669291
 30
0
 11
5.1070965748031494
 21
1.1717215354330708
 31
0
  0
LINE
  5
90
330
1A
100
AcDbEntity
  8
BLACK
  6
CONTINUOUS
100
AcDbLine
 10
5.1652403149606299
 20
1.2070422440944881
 30
0
 11
5.1681141338582677
 21
1.2051220078740157
 31
0
  0
LINE
  5
91
330
1A
100
AcDbEntity
  8
BLACK
  6
CONTINUOUS
100
AcDbLine
 10
5.1681141338582677
 20
1.2051220078740157
 30
0
 11
5.1700343700787403
 21
1.2022481889763779
 31
0
  0
LINE
  5
92
330
1A
100
AcDbEntity
  8
BLACK
  6
CONTINUOUS
100
AcDbLine
 10
5.1700343700787403
 20
1.2022481889763779
 30
0
 11
5.170708661417323
 21
1.1988582677165354
 31
0
  0
LINE
  5
93
330
1A
100
AcDbEntity
  8
BLACK
  6
CONTINUOUS
100
AcDbLine
 10
5.170708661417323
 20
1.1988582677165354
 30
0
 11
5.170708661417323
 21
1.1653937007874016
 31
0
  0
LINE
  5
94
330
1A
100
AcDbEntity
  8
BLACK
  6
CONTINUOUS
100
AcDbLine
 10
5.170708661417323
 20
1.1653937007874016
 30
0
 11
5.1700343700787403
 21
1.1620037795275591
 31
0
  0
LINE
  5
95
330
1A
100
AcDbEntity
  8
BLACK
  6
CONTINUOUS
100
AcDbLine
 10
5.1700343700787403
 20
1.1620037795275591
 30
0
 11
5.1681141338582677
 21
1.1591299606299212
 31
0
  0
LINE
  5
96
330
1A
100
AcDbEntity
  8
BLACK
  6
CONTINUOUS
100
AcDbLine
 10
5.1681141338582677
 20
1.1591299606299212
 30
0
 11
5.1652403149606299
 21
1.1572097244094488
 31
0
  0
LINE
  5
97
330
1A
100
AcDbEntity
  8
BLACK
  6
CONTINUOUS
100
AcDbLine
 10
5.1652403149606299
 20
1.1572097244094488
 30
0
 11
5.1618503937007869
 21
1.1565354330708661
 31
0
  0
LINE
  5
98
330
1A
100
AcDbEntity
  8
BLACK
  6
CONTINUOUS
100
AcDbLine
 10
5.1618503937007869
 20
1.1565354330708661
 30
0
 11
5.1441338582677165
 21
1.1565354330708661
 31
0
  0
LINE
  5
99
330
1A
100
AcDbEntity
  8
BLACK
  6
CONTINUOUS
100
AcDbLine
 10
5.1441338582677165
 20
1.1565354330708661
 30
0
 11
5.1407439370078736
 21
1.1572097244094488
 31
0
  0
LINE
  5
9A
330
1A
100
AcDbEntity
  8
BLACK
  6
CONTINUOUS
100
AcDbLine
 10
5.1407439370078736
 20
1.1572097244094488
 30
0
 11
5.1378701181102358
 21
1.1591299606299212
 31
0
  0
LINE
  5
9B
330
1A
100
AcDbEntity
  8
BLACK
  6
CONTINUOUS
100
AcDbLine
 10
5.1378701181102358
 20
1.1591299606299212
 30
0
 11
5.135949881889764
 21
1.1620037795275591
 31
0
  0
LINE
  5
9C
330
1A
100
AcDbEntity
  8
BLACK
  6
CONTINUOUS
100
AcDbLine
 10
5.135949881889764
 20
1.1620037795275591
 30
0
 11
5.1352755905511813
 21
1.1653937007874016
 31
0
  0
LINE
  5
9D
330
1A
100
AcDbEntity
  8
BLACK
  6
CONTINUOUS
100
AcDbLine
 10
5.1352755905511813
 20
1.1653937007874016
 30
0
 11
5.1352755905511813
 21
1.1988582677165354
 31
0
  0
LINE
  5
9E
330
1A
100
AcDbEntity
  8
BLACK
  6
CONTINUOUS
100
AcDbLine
 10
5.1352755905511813
 20
1.1988582677165354
 30
0
 11
5.135949881889764
 21
1.2022481889763779
 31
0
  0
LINE
  5
9F
330
1A
100
AcDbEntity
  8
BLACK
  6
CONTINUOUS
100
AcDbLine
 10
5.135949881889764
 20
1.2022481889763779
 30
0
 11
5.1378701181102358
 21
1.2051220078740157
 31
0
  0
LINE
  5
A0
330
1A
100
AcDbEntity
  8
BLACK
  6
CONTINUOUS
100
AcDbLine
 10
5.1378701181102358
 20
1.2051220078740157
 30
0
 11
5.1407439370078736
 21
1.2070422440944881
 31
0
  0
LINE
  5
A1
330
1A
100
AcDbEntity
  8
BLACK
  6
CONTINUOUS
100
AcDbLine
 10
5.1407439370078736
 20
1.2070422440944881
 30
0
 11
5.1441338582677165
 21
1.2077165354330708
 31
0
  0
LINE
  5
A2
330
1A
100
AcDbEntity
  8
BLACK
  6
CONTINUOUS
100
AcDbLine
 10
5.1441338582677165
 20
1.2077165354330708
 30
0
 11
5.1618503937007869
 21
1.2077165354330708
 31
0
  0
LINE
  5
A3
330
1A
100
AcDbEntity
  8
BLACK
  6
CONTINUOUS
100
AcDbLine
 10
5.1618503937007869
 20
1.2077165354330708
 30
0
 11
5.1652403149606299
 21
1.2070422440944881
 31
0
  0
LINE
  5
A4
330
1A
100
AcDbEntity
  8
BLACK
  6
CONTINUOUS
100
AcDbLine
 10
5.1613033070866141
 20
1.3507430314960629
 30
0
 11
5.1641771259842519
 21
1.3488227952755905
 31
0
  0
LINE
  5
A5
330
1A
100
AcDbEntity
  8
BLACK
  6
CONTINUOUS
100
AcDbLine
 10
5.1641771259842519
 20
1.3488227952755905
 30
0
 11
5.1660973622047246
 21
1.3459489763779526
 31
0
  0
LINE
  5
A6
330
1A
100
AcDbEntity
  8
BLACK
  6
CONTINUOUS
100
AcDbLine
 10
5.1660973622047246
 20
1.3459489763779526
 30
0
 11
5.1667716535433073
 21
1.3425590551181101
 31
0
  0
LINE
  5
A7
330
1A
100
AcDbEntity
  8
BLACK
  6
CONTINUOUS
100
AcDbLine
 10
5.1667716535433073
 20
1.3425590551181101
 30
0
 11
5.1667716535433073
 21
1.3090944881889763
 31
0
  0
LINE
  5
A8
330
1A
100
AcDbEntity
  8
BLACK
  6
CONTINUOUS
100
AcDbLine
 10
5.1667716535433073
 20
1.3090944881889763
 30
0
 11
5.1660973622047246
 21
1.3057045669291338
 31
0
  0
LINE
  5
A9
330
1A
100
AcDbEntity
  8
BLACK
  6
CONTINUOUS
100
AcDbLine
 10
5.1660973622047246
 20
1.3057045669291338
 30
0
 11
5.1641771259842519
 21
1.302830748031496
 31
0
  0
LINE
  5
AA
330
1A
100
AcDbEntity
  8
BLACK
  6
CONTINUOUS
100
AcDbLine
 10
5.1641771259842519
 20
1.302830748031496
 30
0
 11
5.1613033070866141
 21
1.3009105118110236
 31
0
  0
LINE
  5
AB
330
1A
100
AcDbEntity
  8
BLACK
  6
CONTINUOUS
100
AcDbLine
 10
5.1613033070866141
 20
1.3009105118110236
 30
0
 11
5.1579133858267712
 21
1.3002362204724409
 31
0
  0
LINE
  5
AC
330
1A
100
AcDbEntity
  8
BLACK
  6
CONTINUOUS
100
AcDbLine
 10
5.1579133858267712
 20
1.3002362204724409
 30
0
 11
5.1401968503937008
 21
1.3002362204724409
 31
0
  0
LINE
  5
AD
330
1A
100
AcDbEntity
  8
BLACK
  6
CONTINUOUS
100
AcDbLine
 10
5.1401968503937008
 20
1.3002362204724409
 30
0
 11
5.1368069291338578
 21
1.3009105118110236
 31
0
  0
LINE
  5
AE
330
1A
100
AcDbEntity
  8
BLACK
  6
CONTINUOUS
100
AcDbLine
 10
5.1368069291338578
 20
1.3009105118110236
 30
0
 11
5.13393311023622
 21
1.302830748031496
 31
0
  0
LINE
  5
AF
330
1A
100
AcDbEntity
  8
BLACK
  6
CONTINUOUS
100
AcDbLine
 10
5.13393311023622
 20
1.302830748031496
 30
0
 11
5.1320128740157482
 21
1.3057045669291338
 31
0
  0
LINE
  5
B0
330
1A
100
AcDbEntity
  8
BLACK
  6
CONTINUOUS
100
AcDbLine
 10
5.1320128740157482
 20
1.3057045669291338
 30
0
 11
5.1313385826771656
 21
1.3090944881889763
 31
0
  0
LINE
  5
B1
330
1A
100
AcDbEntity
  8
BLACK
  6
CONTINUOUS
100
AcDbLine
 10
5.1313385826771656
 20
1.3090944881889763
 30
0
 11
5.1313385826771656
 21
1.3425590551181101
 31
0
  0
LINE
  5
B2
330
1A
100
AcDbEntity
  8
BLACK
  6
CONTINUOUS
100
AcDbLine
 10
5.1313385826771656
 20
1.3425590551181101
 30
0
 11
5.1320128740157482
 21
1.3459489763779526
 31
0
  0
LINE
  5
B3
330
1A
100
AcDbEntity
  8
BLACK
  6
CONTINUOUS
100
AcDbLine
 10
5.1320128740157482
 20
1.3459489763779526
 30
0
 11
5.13393311023622
 21
1.3488227952755905
 31
0
  0
LINE
  5
B4
330
1A
100
AcDbEntity
  8
BLACK
  6
CONTINUOUS
100
AcDbLine
 10
5.13393311023622
 20
1.3488227952755905
 30
0
 11
5.1368069291338578
 21
1.3507430314960629
 31
0
  0
LINE
  5
B5
330
1A
100
AcDbEntity
  8
BLACK
  6
CONTINUOUS
100
AcDbLine
 10
5.1368069291338578
 20
1.3507430314960629
 30
0
 11
5.1401968503937008
 21
1.3514173228346456
 31
0
  0
LINE
  5
B6
330
1A
100
AcDbEntity
  8
BLACK
  6
CONTINUOUS
100
AcDbLine
 10
5.1401968503937008
 20
1.3514173228346456
 30
0
 11
5.1579133858267712
 21
1.3514173228346456
 31
0
  0
LINE
  5
B7
330
1A
100
AcDbEntity
  8
BLACK
  6
CONTINUOUS
100
AcDbLine
 10
5.1579133858267712
 20
1.3514173228346456
 30
0
 11
5.1613033070866141
 21
1.3507430314960629
 31
0
  0
LINE
  5
B8
330
1A
100
AcDbEntity
  8
BLACK
  6
CONTINUOUS
100
AcDbLine
 10
5.1031595669291336
 20
1.3646349212598425
 30
0
 11
5.1055544488188973
 21
1.3630347637795275
 31
0
  0
LINE
  5
B9
330
1A
100
AcDbEntity
  8
BLACK
  6
CONTINUOUS
100
AcDbLine
 10
5.1055544488188973
 20
1.3630347637795275
 30
0
 11
5.1071546062992121
 21
1.3606398818897638
 31
0
  0
LINE
  5
BA
330
1A
100
AcDbEntity
  8
BLACK
  6
CONTINUOUS
100
AcDbLine
 10
5.1071546062992121
 20
1.3606398818897638
 30
0
 11
5.1077165354330711
 21
1.3578149606299212
 31
0
  0
LINE
  5
BB
330
1A
100
AcDbEntity
  8
BLACK
  6
CONTINUOUS
100
AcDbLine
 10
5.1077165354330711
 20
1.3578149606299212
 30
0
 11
5.1077165354330711
 21
1.3430511811023622
 31
0
  0
LINE
  5
BC
330
1A
100
AcDbEntity
  8
BLACK
  6
CONTINUOUS
100
AcDbLine
 10
5.1077165354330711
 20
1.3430511811023622
 30
0
 11
5.1071546062992121
 21
1.3402262598425196
 31
0
  0
LINE
  5
BD
330
1A
100
AcDbEntity
  8
BLACK
  6
CONTINUOUS
100
AcDbLine
 10
5.1071546062992121
 20
1.3402262598425196
 30
0
 11
5.1055544488188973
 21
1.337831377952756
 31
0
  0
LINE
  5
BE
330
1A
100
AcDbEntity
  8
BLACK
  6
CONTINUOUS
100
AcDbLine
 10
5.1055544488188973
 20
1.337831377952756
 30
0
 11
5.1031595669291336
 21
1.3362312204724409
 31
0
  0
LINE
  5
BF
330
1A
100
AcDbEntity
  8
BLACK
  6
CONTINUOUS
100
AcDbLine
 10
5.1031595669291336
 20
1.3362312204724409
 30
0
 11
5.1003346456692915
 21
1.3356692913385826
 31
0
  0
LINE
  5
C0
330
1A
100
AcDbEntity
  8
BLACK
  6
CONTINUOUS
100
AcDbLine
 10
5.1003346456692915
 20
1.3356692913385826
 30
0
 11
5.0442322834645665
 21
1.3356692913385826
 31
0
  0
LINE
  5
C1
330
1A
100
AcDbEntity
  8
BLACK
  6
CONTINUOUS
100
AcDbLine
 10
5.0442322834645665
 20
1.3356692913385826
 30
0
 11
5.0414073622047244
 21
1.3362312204724409
 31
0
  0
LINE
  5
C2
330
1A
100
AcDbEntity
  8
BLACK
  6
CONTINUOUS
100
AcDbLine
 10
5.0414073622047244
 20
1.3362312204724409
 30
0
 11
5.0390124803149607
 21
1.337831377952756
 31
0
  0
LINE
  5
C3
330
1A
100
AcDbEntity
  8
BLACK
  6
CONTINUOUS
100
AcDbLine
 10
5.0390124803149607
 20
1.337831377952756
 30
0
 11
5.0374123228346459
 21
1.3402262598425196
 31
0
  0
LINE
  5
C4
330
1A
100
AcDbEntity
  8
BLACK
  6
CONTINUOUS
100
AcDbLine
 10
5.0374123228346459
 20
1.3402262598425196
 30
0
 11
5.0368503937007869
 21
1.3430511811023622
 31
0
  0
LINE
  5
C5
330
1A
100
AcDbEntity
  8
BLACK
  6
CONTINUOUS
100
AcDbLine
 10
5.0368503937007869
 20
1.3430511811023622
 30
0
 11
5.0368503937007869
 21
1.3578149606299212
 31
0
  0
LINE
  5
C6
330
1A
100
AcDbEntity
  8
BLACK
  6
CONTINUOUS
100
AcDbLine
 10
5.0368503937007869
 20
1.3578149606299212
 30
0
 11
5.0374123228346459
 21
1.3606398818897638
 31
0
  0
LINE
  5
C7
330
1A
100
AcDbEntity
  8
BLACK
  6
CONTINUOUS
100
AcDbLine
 10
5.0374123228346459
 20
1.3606398818897638
 30
0
 11
5.0390124803149607
 21
1.3630347637795275
 31
0
  0
LINE
  5
C8
330
1A
100
AcDbEntity
  8
BLACK
  6
CONTINUOUS
100
AcDbLine
 10
5.0390124803149607
 20
1.3630347637795275
 30
0
 11
5.0414073622047244
 21
1.3646349212598425
 31
0
  0
LINE
  5
C9
330
1A
100
AcDbEntity
  8
BLACK
  6
CONTINUOUS
100
AcDbLine
 10
5.0414073622047244
 20
1.3646349212598425
 30
0
 11
5.0442322834645665
 21
1.3651968503937009
 31
0
  0
LINE
  5
CA
330
1A
100
AcDbEntity
  8
BLACK
  6
CONTINUOUS
100
AcDbLine
 10
5.0442322834645665
 20
1.3651968503937009
 30
0
 11
5.1003346456692915
 21
1.3651968503937009
 31
0
  0
LINE
  5
CB
330
1A
100
AcDbEntity
  8
BLACK
  6
CONTINUOUS
100
AcDbLine
 10
5.1003346456692915
 20
1.3651968503937009
 30
0
 11
5.1031595669291336
 21
1.3646349212598425
 31
0
  0
LINE
  5
CC
330
1A
100
AcDbEntity
  8
BLACK
  6
CONTINUOUS
100
AcDbLine
 10
5.104070984251968
 20
1.4100229133858266
 30
0
 11
5.1059868503937009
 21
1.4087427559055117
 31
0
  0
LINE
  5
CD
330
1A
100
AcDbEntity
  8
BLACK
  6
CONTINUOUS
100
AcDbLine
 10
5.1059868503937009
 20
1.4087427559055117
 30
0
 11
5.1072670078740154
 21
1.4068268897637795
 31
0
  0
LINE
  5
CE
330
1A
100
AcDbEntity
  8
BLACK
  6
CONTINUOUS
100
AcDbLine
 10
5.1072670078740154
 20
1.4068268897637795
 30
0
 11
5.1077165354330711
 21
1.4045669291338583
 31
0
  0
LINE
  5
CF
330
1A
100
AcDbEntity
  8
BLACK
  6
CONTINUOUS
100
AcDbLine
 10
5.1077165354330711
 20
1.4045669291338583
 30
0
 11
5.1077165354330711
 21
1.3927559055118111
 31
0
  0
LINE
  5
D0
330
1A
100
AcDbEntity
  8
BLACK
  6
CONTINUOUS
100
AcDbLine
 10
5.1077165354330711
 20
1.3927559055118111
 30
0
 11
5.1072670078740154
 21
1.3904959448818897
 31
0
  0
LINE
  5
D1
330
1A
100
AcDbEntity
  8
BLACK
  6
CONTINUOUS
100
AcDbLine
 10
5.1072670078740154
 20
1.3904959448818897
 30
0
 11
5.1059868503937009
 21
1.3885800787401574
 31
0
  0
LINE
  5
D2
330
1A
100
AcDbEntity
  8
BLACK
  6
CONTINUOUS
100
AcDbLine
 10
5.1059868503937009
 20
1.3885800787401574
 30
0
 11
5.104070984251968
 21
1.3872999212598425
 31
0
  0
LINE
  5
D3
330
1A
100
AcDbEntity
  8
BLACK
  6
CONTINUOUS
100
AcDbLine
 10
5.104070984251968
 20
1.3872999212598425
 30
0
 11
5.1018110236220471
 21
1.3868503937007874
 31
0
  0
LINE
  5
D4
330
1A
100
AcDbEntity
  8
BLACK
  6
CONTINUOUS
100
AcDbLine
 10
5.1018110236220471
 20
1.3868503937007874
 30
0
 11
5.042755905511811
 21
1.3868503937007874
 31
0
  0
LINE
  5
D5
330
1A
100
AcDbEntity
  8
BLACK
  6
CONTINUOUS
100
AcDbLine
 10
5.042755905511811
 20
1.3868503937007874
 30
0
 11
5.04049594488189
 21
1.3872999212598425
 31
0
  0
LINE
  5
D6
330
1A
100
AcDbEntity
  8
BLACK
  6
CONTINUOUS
100
AcDbLine
 10
5.04049594488189
 20
1.3872999212598425
 30
0
 11
5.0385800787401571
 21
1.3885800787401574
 31
0
  0
LINE
  5
D7
330
1A
100
AcDbEntity
  8
BLACK
  6
CONTINUOUS
100
AcDbLine
 10
5.0385800787401571
 20
1.3885800787401574
 30
0
 11
5.0372999212598426
 21
1.3904959448818897
 31
0
  0
LINE
  5
D8
330
1A
100
AcDbEntity
  8
BLACK
  6
CONTINUOUS
100
AcDbLine
 10
5.0372999212598426
 20
1.3904959448818897
 30
0
 11
5.0368503937007869
 21
1.3927559055118111
 31
0
  0
LINE
  5
D9
330
1A
100
AcDbEntity
  8
BLACK
  6
CONTINUOUS
100
AcDbLine
 10
5.0368503937007869
 20
1.3927559055118111
 30
0
 11
5.0368503937007869
 21
1.4045669291338583
 31
0
  0
LINE
  5
DA
330
1A
100
AcDbEntity
  8
BLACK
  6
CONTINUOUS
100
AcDbLine
 10
5.0368503937007869
 20
1.4045669291338583
 30
0
 11
5.0372999212598426
 21
1.4068268897637795
 31
0
  0
LINE
  5
DB
330
1A
100
AcDbEntity
  8
BLACK
  6
CONTINUOUS
100
AcDbLine
 10
5.0372999212598426
 20
1.4068268897637795
 30
0
 11
5.0385800787401571
 21
1.4087427559055117
 31
0
  0
LINE
  5
DC
330
1A
100
AcDbEntity
  8
BLACK
  6
CONTINUOUS
100
AcDbLine
 10
5.0385800787401571
 20
1.4087427559055117
 30
0
 11
5.04049594488189
 21
1.4100229133858266
 31
0
  0
LINE
  5
DD
330
1A
100
AcDbEntity
  8
BLACK
  6
CONTINUOUS
100
AcDbLine
 10
5.04049594488189
 20
1.4100229133858266
 30
0
 11
5.042755905511811
 21
1.4104724409448819
 31
0
  0
LINE
  5
DE
330
1A
100
AcDbEntity
  8
BLACK
  6
CONTINUOUS
100
AcDbLine
 10
5.042755905511811
 20
1.4104724409448819
 30
0
 11
5.1018110236220471
 21
1.4104724409448819
 31
0
  0
LINE
  5
DF
330
1A
100
AcDbEntity
  8
BLACK
  6
CONTINUOUS
100
AcDbLine
 10
5.1018110236220471
 20
1.4104724409448819
 30
0
 11
5.104070984251968
 21
1.4100229133858266
 31
0
  0
LINE
  5
E0
330
1A
100
AcDbEntity
  8
BLACK
  6
CONTINUOUS
100
AcDbLine
 10
5.1031595669291336
 20
1.4610916141732284
 30
0
 11
5.1055544488188973
 21
1.4594914566929134
 31
0
  0
LINE
  5
E1
330
1A
100
AcDbEntity
  8
BLACK
  6
CONTINUOUS
100
AcDbLine
 10
5.1055544488188973
 20
1.4594914566929134
 30
0
 11
5.1071546062992121
 21
1.4570965748031495
 31
0
  0
LINE
  5
E2
330
1A
100
AcDbEntity
  8
BLACK
  6
CONTINUOUS
100
AcDbLine
 10
5.1071546062992121
 20
1.4570965748031495
 30
0
 11
5.1077165354330711
 21
1.4542716535433071
 31
0
  0
LINE
  5
E3
330
1A
100
AcDbEntity
  8
BLACK
  6
CONTINUOUS
100
AcDbLine
 10
5.1077165354330711
 20
1.4542716535433071
 30
0
 11
5.1077165354330711
 21
1.4395078740157481
 31
0
  0
LINE
  5
E4
330
1A
100
AcDbEntity
  8
BLACK
  6
CONTINUOUS
100
AcDbLine
 10
5.1077165354330711
 20
1.4395078740157481
 30
0
 11
5.1071546062992121
 21
1.4366829527559055
 31
0
  0
LINE
  5
E5
330
1A
100
AcDbEntity
  8
BLACK
  6
CONTINUOUS
100
AcDbLine
 10
5.1071546062992121
 20
1.4366829527559055
 30
0
 11
5.1055544488188973
 21
1.4342880708661416
 31
0
  0
LINE
  5
E6
330
1A
100
AcDbEntity
  8
BLACK
  6
CONTINUOUS
100
AcDbLine
 10
5.1055544488188973
 20
1.4342880708661416
 30
0
 11
5.1031595669291336
 21
1.4326879133858268
 31
0
  0
LINE
  5
E7
330
1A
100
AcDbEntity
  8
BLACK
  6
CONTINUOUS
100
AcDbLine
 10
5.1031595669291336
 20
1.4326879133858268
 30
0
 11
5.1003346456692915
 21
1.4321259842519685
 31
0
  0
LINE
  5
E8
330
1A
100
AcDbEntity
  8
BLACK
  6
CONTINUOUS
100
AcDbLine
 10
5.1003346456692915
 20
1.4321259842519685
 30
0
 11
5.0442322834645665
 21
1.4321259842519685
 31
0
  0
LINE
  5
E9
330
1A
100
AcDbEntity
  8
BLACK
  6
CONTINUOUS
100
AcDbLine
 10
5.0442322834645665
 20
1.4321259842519685
 30
0
 11
5.0414073622047244
 21
1.4326879133858268
 31
0
  0
LINE
  5
EA
330
1A
100
AcDbEntity
  8
BLACK
  6
CONTINUOUS
100
AcDbLine
 10
5.0414073622047244
 20
1.4326879133858268
 30
0
 11
5.0390124803149607
 21
1.4342880708661416
 31
0
  0
LINE
  5
EB
330
1A
100
AcDbEntity
  8
BLACK
  6
CONTINUOUS
100
AcDbLine
 10
5.0390124803149607
 20
1.4342880708661416
 30
0
 11
5.0374123228346459
 21
1.4366829527559055
 31
0
  0
LINE
  5
EC
330
1A
100
AcDbEntity
  8
BLACK
  6
CONTINUOUS
100
AcDbLine
 10
5.0374123228346459
 20
1.4366829527559055
 30
0
 11
5.0368503937007869
 21
1.4395078740157481
 31
0
  0
LINE
  5
ED
330
1A
100
AcDbEntity
  8
BLACK
  6
CONTINUOUS
100
AcDbLine
 10
5.0368503937007869
 20
1.4395078740157481
 30
0
 11
5.0368503937007869
 21
1.4542716535433071
 31
0
  0
LINE
  5
EE
330
1A
100
AcDbEntity
  8
BLACK
  6
CONTINUOUS
100
AcDbLine
 10
5.0368503937007869
 20
1.4542716535433071
 30
0
 11
5.0374123228346459
 21
1.4570965748031495
 31
0
  0
LINE
  5
EF
330
1A
100
AcDbEntity
  8
BLACK
  6
CONTINUOUS
100
AcDbLine
 10
5.0374123228346459
 20
1.4570965748031495
 30
0
 11
5.0390124803149607
 21
1.4594914566929134
 31
0
  0
LINE
  5
F0
330
1A
100
AcDbEntity
  8
BLACK
  6
CONTINUOUS
100
AcDbLine
 10
5.0390124803149607
 20
1.4594914566929134
 30
0
 11
5.0414073622047244
 21
1.4610916141732284
 31
0
  0
LINE
  5
F1
330
1A
100
AcDbEntity
  8
BLACK
  6
CONTINUOUS
100
AcDbLine
 10
5.0414073622047244
 20
1.4610916141732284
 30
0
 11
5.0442322834645665
 21
1.4616535433070865
 31
0
  0
LINE
  5
F2
330
1A
100
AcDbEntity
  8
BLACK
  6
CONTINUOUS
100
AcDbLine
 10
5.0442322834645665
 20
1.4616535433070865
 30
0
 11
5.1003346456692915
 21
1.4616535433070865
 31
0
  0
LINE
  5
F3
330
1A
100
AcDbEntity
  8
BLACK
  6
CONTINUOUS
100
AcDbLine
 10
5.1003346456692915
 20
1.4616535433070865
 30
0
 11
5.1031595669291336
 21
1.4610916141732284
 31
0
  0
LINE
  5
F4
330
1A
100
AcDbEntity
  8
BLACK
  6
CONTINUOUS
100
AcDbLine
 10
5.1613033070866141
 20
1.4964123228346455
 30
0
 11
5.1641771259842519
 21
1.4944920866141731
 31
0
  0
LINE
  5
F5
330
1A
100
AcDbEntity
  8
BLACK
  6
CONTINUOUS
100
AcDbLine
 10
5.1641771259842519
 20
1.4944920866141731
 30
0
 11
5.1660973622047246
 21
1.4916182677165355
 31
0
  0
LINE
  5
F6
330
1A
100
AcDbEntity
  8
BLACK
  6
CONTINUOUS
100
AcDbLine
 10
5.1660973622047246
 20
1.4916182677165355
 30
0
 11
5.1667716535433073
 21
1.4882283464566928
 31
0
  0
LINE
  5
F7
330
1A
100
AcDbEntity
  8
BLACK
  6
CONTINUOUS
100
AcDbLine
 10
5.1667716535433073
 20
1.4882283464566928
 30
0
 11
5.1667716535433073
 21
1.454763779527559
 31
0
  0
LINE
  5
F8
330
1A
100
AcDbEntity
  8
BLACK
  6
CONTINUOUS
100
AcDbLine
 10
5.1667716535433073
 20
1.454763779527559
 30
0
 11
5.1660973622047246
 21
1.4513738582677165
 31
0
  0
LINE
  5
F9
330
1A
100
AcDbEntity
  8
BLACK
  6
CONTINUOUS
100
AcDbLine
 10
5.1660973622047246
 20
1.4513738582677165
 30
0
 11
5.1641771259842519
 21
1.4485000393700787
 31
0
  0
LINE
  5
FA
330
1A
100
AcDbEntity
  8
BLACK
  6
CONTINUOUS
100
AcDbLine
 10
5.1641771259842519
 20
1.4485000393700787
 30
0
 11
5.1613033070866141
 21
1.4465798031496062
 31
0
  0
LINE
  5
FB
330
1A
100
AcDbEntity
  8
BLACK
  6
CONTINUOUS
100
AcDbLine
 10
5.1613033070866141
 20
1.4465798031496062
 30
0
 11
5.1579133858267712
 21
1.4459055118110236
 31
0
  0
LINE
  5
FC
330
1A
100
AcDbEntity
  8
BLACK
  6
CONTINUOUS
100
AcDbLine
 10
5.1579133858267712
 20
1.4459055118110236
 30
0
 11
5.1401968503937008
 21
1.4459055118110236
 31
0
  0
LINE
  5
FD
330
1A
100
AcDbEntity
  8
BLACK
  6
CONTINUOUS
100
AcDbLine
 10
5.1401968503937008
 20
1.4459055118110236
 30
0
 11
5.1368069291338578
 21
1.4465798031496062
 31
0
  0
LINE
  5
FE
330
1A
100
AcDbEntity
  8
BLACK
  6
CONTINUOUS
100
AcDbLine
 10
5.1368069291338578
 20
1.4465798031496062
 30
0
 11
5.13393311023622
 21
1.4485000393700787
 31
0
  0
LINE
  5
FF
330
1A
100
AcDbEntity
  8
BLACK
  6
CONTINUOUS
100
AcDbLine
 10
5.13393311023622
 20
1.4485000393700787
 30
0
 11
5.1320128740157482
 21
1.4513738582677165
 31
0
  0
LINE
  5
100
330
1A
100
AcDbEntity
  8
BLACK
  6
CONTINUOUS
100
AcDbLine
 10
5.1320128740157482
 20
1.4513738582677165
 30
0
 11
5.1313385826771656
 21
1.454763779527559
 31
0
  0
LINE
  5
101
330
1A
100
AcDbEntity
  8
BLACK
  6
CONTINUOUS
100
AcDbLine
 10
5.1313385826771656
 20
1.454763779527559
 30
0
 11
5.1313385826771656
 21
1.4882283464566928
 31
0
  0
LINE
  5
102
330
1A
100
AcDbEntity
  8
BLACK
  6
CONTINUOUS
100
AcDbLine
 10
5.1313385826771656
 20
1.4882283464566928
 30
0
 11
5.1320128740157482
 21
1.4916182677165355
 31
0
  0
LINE
  5
103
330
1A
100
AcDbEntity
  8
BLACK
  6
CONTINUOUS
100
AcDbLine
 10
5.1320128740157482
 20
1.4916182677165355
 30
0
 11
5.13393311023622
 21
1.4944920866141731
 31
0
  0
LINE
  5
104
330
1A
100
AcDbEntity
  8
BLACK
  6
CONTINUOUS
100
AcDbLine
 10
5.13393311023622
 20
1.4944920866141731
 30
0
 11
5.1368069291338578
 21
1.4964123228346455
 31
0
  0
LINE
  5
105
330
1A
100
AcDbEntity
  8
BLACK
  6
CONTINUOUS
100
AcDbLine
 10
5.1368069291338578
 20
1.4964123228346455
 30
0
 11
5.1401968503937008
 21
1.4970866141732284
 31
0
  0
LINE
  5
106
330
1A
100
AcDbEntity
  8
BLACK
  6
CONTINUOUS
100
AcDbLine
 10
5.1401968503937008
 20
1.4970866141732284
 30
0
 11
5.1579133858267712
 21
1.4970866141732284
 31
0
  0
LINE
  5
107
330
1A
100
AcDbEntity
  8
BLACK
  6
CONTINUOUS
100
AcDbLine
 10
5.1579133858267712
 20
1.4970866141732284
 30
0
 11
5.1613033070866141
 21
1.4964123228346455
 31
0
  0
LINE
  5
108
330
1A
100
AcDbEntity
  8
BLACK
  6
CONTINUOUS
100
AcDbLine
 10
5.3173622047244091
 20
1.5896062992125983
 30
0
 11
5.2779921259842517
 21
1.5896062992125983
 31
0
  0
LINE
  5
109
330
1A
100
AcDbEntity
  8
BLACK
  6
CONTINUOUS
100
AcDbLine
 10
5.2779921259842517
 20
1.5896062992125983
 30
0
 11
5.2779921259842517
 21
1.6250393700787402
 31
0
  0
LINE
  5
10A
330
1A
100
AcDbEntity
  8
BLACK
  6
CONTINUOUS
100
AcDbLine
 10
5.2779921259842517
 20
1.6250393700787402
 30
0
 11
5.3173622047244091
 21
1.6250393700787402
 31
0
  0
LINE
  5
10B
330
1A
100
AcDbEntity
  8
BLACK
  6
CONTINUOUS
100
AcDbLine
 10
5.3173622047244091
 20
1.6250393700787402
 30
0
 11
5.3173622047244091
 21
1.5896062992125983
 31
0
  0
LINE
  5
10C
330
1A
100
AcDbEntity
  8
BLACK
  6
CONTINUOUS
100
AcDbLine
 10
5.3173622047244091
 20
1.6525984251968504
 30
0
 11
5.2779921259842517
 21
1.6525984251968504
 31
0
  0
LINE
  5
10D
330
1A
100
AcDbEntity
  8
BLACK
  6
CONTINUOUS
100
AcDbLine
 10
5.2779921259842517
 20
1.6525984251968504
 30
0
 11
5.2779921259842517
 21
1.6880314960629921
 31
0
  0
LINE
  5
10E
330
1A
100
AcDbEntity
  8
BLACK
  6
CONTINUOUS
100
AcDbLine
 10
5.2779921259842517
 20
1.6880314960629921
 30
0
 11
5.3173622047244091
 21
1.6880314960629921
 31
0
  0
LINE
  5
10F
330
1A
100
AcDbEntity
  8
BLACK
  6
CONTINUOUS
100
AcDbLine
 10
5.3173622047244091
 20
1.6880314960629921
 30
0
 11
5.3173622047244091
 21
1.6525984251968504
 31
0
  0
LINE
  5
110
330
1A
100
AcDbEntity
  8
BLACK
  6
CONTINUOUS
100
AcDbLine
 10
5.1853020078740153
 20
1.7313526771653542
 30
0
 11
5.1884951574803146
 21
1.7292190944881889
 31
0
  0
LINE
  5
111
330
1A
100
AcDbEntity
  8
BLACK
  6
CONTINUOUS
100
AcDbLine
 10
5.1884951574803146
 20
1.7292190944881889
 30
0
 11
5.1906287401574804
 21
1.7260259448818898
 31
0
  0
LINE
  5
112
330
1A
100
AcDbEntity
  8
BLACK
  6
CONTINUOUS
100
AcDbLine
 10
5.1906287401574804
 20
1.7260259448818898
 30
0
 11
5.1913779527559054
 21
1.7222593700787401
 31
0
  0
LINE
  5
113
330
1A
100
AcDbEntity
  8
BLACK
  6
CONTINUOUS
100
AcDbLine
 10
5.1913779527559054
 20
1.7222593700787401
 30
0
 11
5.1913779527559054
 21
1.6868262992125984
 31
0
  0
LINE
  5
114
330
1A
100
AcDbEntity
  8
BLACK
  6
CONTINUOUS
100
AcDbLine
 10
5.1913779527559054
 20
1.6868262992125984
 30
0
 11
5.1906287401574804
 21
1.6830597244094487
 31
0
  0
LINE
  5
115
330
1A
100
AcDbEntity
  8
BLACK
  6
CONTINUOUS
100
AcDbLine
 10
5.1906287401574804
 20
1.6830597244094487
 30
0
 11
5.1884951574803146
 21
1.6798665748031496
 31
0
  0
LINE
  5
116
330
1A
100
AcDbEntity
  8
BLACK
  6
CONTINUOUS
100
AcDbLine
 10
5.1884951574803146
 20
1.6798665748031496
 30
0
 11
5.1853020078740153
 21
1.6777329921259843
 31
0
  0
LINE
  5
117
330
1A
100
AcDbEntity
  8
BLACK
  6
CONTINUOUS
100
AcDbLine
 10
5.1853020078740153
 20
1.6777329921259843
 30
0
 11
5.1815354330708656
 21
1.6769837795275591
 31
0
  0
LINE
  5
118
330
1A
100
AcDbEntity
  8
BLACK
  6
CONTINUOUS
100
AcDbLine
 10
5.1815354330708656
 20
1.6769837795275591
 30
0
 11
5.1608661417322832
 21
1.6769837795275591
 31
0
  0
LINE
  5
119
330
1A
100
AcDbEntity
  8
BLACK
  6
CONTINUOUS
100
AcDbLine
 10
5.1608661417322832
 20
1.6769837795275591
 30
0
 11
5.1570995669291335
 21
1.6777329921259843
 31
0
  0
LINE
  5
11A
330
1A
100
AcDbEntity
  8
BLACK
  6
CONTINUOUS
100
AcDbLine
 10
5.1570995669291335
 20
1.6777329921259843
 30
0
 11
5.1539064173228342
 21
1.6798665748031496
 31
0
  0
LINE
  5
11B
330
1A
100
AcDbEntity
  8
BLACK
  6
CONTINUOUS
100
AcDbLine
 10
5.1539064173228342
 20
1.6798665748031496
 30
0
 11
5.1517728346456693
 21
1.6830597244094487
 31
0
  0
LINE
  5
11C
330
1A
100
AcDbEntity
  8
BLACK
  6
CONTINUOUS
100
AcDbLine
 10
5.1517728346456693
 20
1.6830597244094487
 30
0
 11
5.1510236220472443
 21
1.6868262992125984
 31
0
  0
LINE
  5
11D
330
1A
100
AcDbEntity
  8
BLACK
  6
CONTINUOUS
100
AcDbLine
 10
5.1510236220472443
 20
1.6868262992125984
 30
0
 11
5.1510236220472443
 21
1.7222593700787401
 31
0
  0
LINE
  5
11E
330
1A
100
AcDbEntity
  8
BLACK
  6
CONTINUOUS
100
AcDbLine
 10
5.1510236220472443
 20
1.7222593700787401
 30
0
 11
5.1517728346456693
 21
1.7260259448818898
 31
0
  0
LINE
  5
11F
330
1A
100
AcDbEntity
  8
BLACK
  6
CONTINUOUS
100
AcDbLine
 10
5.1517728346456693
 20
1.7260259448818898
 30
0
 11
5.1539064173228342
 21
1.7292190944881889
 31
0
  0
LINE
  5
120
330
1A
100
AcDbEntity
  8
BLACK
  6
CONTINUOUS
100
AcDbLine
 10
5.1539064173228342
 20
1.7292190944881889
 30
0
 11
5.1570995669291335
 21
1.7313526771653542
 31
0
  0
LINE
  5
121
330
1A
100
AcDbEntity
  8
BLACK
  6
CONTINUOUS
100
AcDbLine
 10
5.1570995669291335
 20
1.7313526771653542
 30
0
 11
5.1608661417322832
 21
1.7321018897637794
 31
0
  0
LINE
  5
122
330
1A
100
AcDbEntity
  8
BLACK
  6
CONTINUOUS
100
AcDbLine
 10
5.1608661417322832
 20
1.7321018897637794
 30
0
 11
5.1815354330708656
 21
1.7321018897637794
 31
0
  0
LINE
  5
123
330
1A
100
AcDbEntity
  8
BLACK
  6
CONTINUOUS
100
AcDbLine
 10
5.1815354330708656
 20
1.7321018897637794
 30
0
 11
5.1853020078740153
 21
1.7313526771653542
 31
0
  0
LINE
  5
124
330
1A
100
AcDbEntity
  8
BLACK
  6
CONTINUOUS
100
AcDbLine
 10
5.2571524015748032
 20
1.7313526771653542
 30
0
 11
5.2603455511811026
 21
1.7292190944881889
 31
0
  0
LINE
  5
125
330
1A
100
AcDbEntity
  8
BLACK
  6
CONTINUOUS
100
AcDbLine
 10
5.2603455511811026
 20
1.7292190944881889
 30
0
 11
5.2624791338582675
 21
1.7260259448818898
 31
0
  0
LINE
  5
126
330
1A
100
AcDbEntity
  8
BLACK
  6
CONTINUOUS
100
AcDbLine
 10
5.2624791338582675
 20
1.7260259448818898
 30
0
 11
5.2632283464566925
 21
1.7222593700787401
 31
0
  0
LINE
  5
127
330
1A
100
AcDbEntity
  8
BLACK
  6
CONTINUOUS
100
AcDbLine
 10
5.2632283464566925
 20
1.7222593700787401
 30
0
 11
5.2632283464566925
 21
1.6868262992125984
 31
0
  0
LINE
  5
128
330
1A
100
AcDbEntity
  8
BLACK
  6
CONTINUOUS
100
AcDbLine
 10
5.2632283464566925
 20
1.6868262992125984
 30
0
 11
5.2624791338582675
 21
1.6830597244094487
 31
0
  0
LINE
  5
129
330
1A
100
AcDbEntity
  8
BLACK
  6
CONTINUOUS
100
AcDbLine
 10
5.2624791338582675
 20
1.6830597244094487
 30
0
 11
5.2603455511811026
 21
1.6798665748031496
 31
0
  0
LINE
  5
12A
330
1A
100
AcDbEntity
  8
BLACK
  6
CONTINUOUS
100
AcDbLine
 10
5.2603455511811026
 20
1.6798665748031496
 30
0
 11
5.2571524015748032
 21
1.6777329921259843
 31
0
  0
LINE
  5
12B
330
1A
100
AcDbEntity
  8
BLACK
  6
CONTINUOUS
100
AcDbLine
 10
5.2571524015748032
 20
1.6777329921259843
 30
0
 11
5.2533858267716536
 21
1.6769837795275591
 31
0
  0
LINE
  5
12C
330
1A
100
AcDbEntity
  8
BLACK
  6
CONTINUOUS
100
AcDbLine
 10
5.2533858267716536
 20
1.6769837795275591
 30
0
 11
5.2327165354330711
 21
1.6769837795275591
 31
0
  0
LINE
  5
12D
330
1A
100
AcDbEntity
  8
BLACK
  6
CONTINUOUS
100
AcDbLine
 10
5.2327165354330711
 20
1.6769837795275591
 30
0
 11
5.2289499606299215
 21
1.6777329921259843
 31
0
  0
LINE
  5
12E
330
1A
100
AcDbEntity
  8
BLACK
  6
CONTINUOUS
100
AcDbLine
 10
5.2289499606299215
 20
1.6777329921259843
 30
0
 11
5.2257568110236221
 21
1.6798665748031496
 31
0
  0
LINE
  5
12F
330
1A
100
AcDbEntity
  8
BLACK
  6
CONTINUOUS
100
AcDbLine
 10
5.2257568110236221
 20
1.6798665748031496
 30
0
 11
5.2236232283464563
 21
1.6830597244094487
 31
0
  0
LINE
  5
130
330
1A
100
AcDbEntity
  8
BLACK
  6
CONTINUOUS
100
AcDbLine
 10
5.2236232283464563
 20
1.6830597244094487
 30
0
 11
5.2228740157480313
 21
1.6868262992125984
 31
0
  0
LINE
  5
131
330
1A
100
AcDbEntity
  8
BLACK
  6
CONTINUOUS
100
AcDbLine
 10
5.2228740157480313
 20
1.6868262992125984
 30
0
 11
5.2228740157480313
 21
1.7222593700787401
 31
0
  0
LINE
  5
132
330
1A
100
AcDbEntity
  8
BLACK
  6
CONTINUOUS
100
AcDbLine
 10
5.2228740157480313
 20
1.7222593700787401
 30
0
 11
5.2236232283464563
 21
1.7260259448818898
 31
0
  0
LINE
  5
133
330
1A
100
AcDbEntity
  8
BLACK
  6
CONTINUOUS
100
AcDbLine
 10
5.2236232283464563
 20
1.7260259448818898
 30
0
 11
5.2257568110236221
 21
1.7292190944881889
 31
0
  0
LINE
  5
134
330
1A
100
AcDbEntity
  8
BLACK
  6
CONTINUOUS
100
AcDbLine
 10
5.2257568110236221
 20
1.7292190944881889
 30
0
 11
5.2289499606299215
 21
1.7313526771653542
 31
0
  0
LINE
  5
135
330
1A
100
AcDbEntity
  8
BLACK
  6
CONTINUOUS
100
AcDbLine
 10
5.2289499606299215
 20
1.7313526771653542
 30
0
 11
5.2327165354330711
 21
1.7321018897637794
 31
0
  0
LINE
  5
136
330
1A
100
AcDbEntity
  8
BLACK
  6
CONTINUOUS
100
AcDbLine
 10
5.2327165354330711
 20
1.7321018897637794
 30
0
 11
5.2533858267716536
 21
1.7321018897637794
 31
0
  0
LINE
  5
137
330
1A
100
AcDbEntity
  8
BLACK
  6
CONTINUOUS
100
AcDbLine
 10
5.2533858267716536
 20
1.7321018897637794
 30
0
 11
5.2571524015748032
 21
1.7313526771653542
 31
0
  0
LINE
  5
138
330
1A
100
AcDbEntity
  8
BLACK
  6
CONTINUOUS
100
AcDbLine
 10
5.3173622047244091
 20
1.698556968503937
 30
0
 11
5.2779921259842517
 21
1.698556968503937
 31
0
  0
LINE
  5
139
330
1A
100
AcDbEntity
  8
BLACK
  6
CONTINUOUS
100
AcDbLine
 10
5.2779921259842517
 20
1.698556968503937
 30
0
 11
5.2779921259842517
 21
1.7339900393700787
 31
0
  0
LINE
  5
13A
330
1A
100
AcDbEntity
  8
BLACK
  6
CONTINUOUS
100
AcDbLine
 10
5.2779921259842517
 20
1.7339900393700787
 30
0
 11
5.3173622047244091
 21
1.7339900393700787
 31
0
  0
LINE
  5
13B
330
1A
100
AcDbEntity
  8
BLACK
  6
CONTINUOUS
100
AcDbLine
 10
5.3173622047244091
 20
1.7339900393700787
 30
0
 11
5.3173622047244091
 21
1.698556968503937
 31
0
  0
LINE
  5
13C
330
1A
100
AcDbEntity
  8
BLACK
  6
CONTINUOUS
100
AcDbLine
 10
5.1843177559055116
 20
1.8081243307086614
 30
0
 11
5.1875109055118109
 21
1.8059907480314961
 31
0
  0
LINE
  5
13D
330
1A
100
AcDbEntity
  8
BLACK
  6
CONTINUOUS
100
AcDbLine
 10
5.1875109055118109
 20
1.8059907480314961
 30
0
 11
5.1896444881889758
 21
1.8027975984251967
 31
0
  0
LINE
  5
13E
330
1A
100
AcDbEntity
  8
BLACK
  6
CONTINUOUS
100
AcDbLine
 10
5.1896444881889758
 20
1.8027975984251967
 30
0
 11
5.1903937007874017
 21
1.7990310236220473
 31
0
  0
LINE
  5
13F
330
1A
100
AcDbEntity
  8
BLACK
  6
CONTINUOUS
100
AcDbLine
 10
5.1903937007874017
 20
1.7990310236220473
 30
0
 11
5.1903937007874017
 21
1.7635979527559054
 31
0
  0
LINE
  5
140
330
1A
100
AcDbEntity
  8
BLACK
  6
CONTINUOUS
100
AcDbLine
 10
5.1903937007874017
 20
1.7635979527559054
 30
0
 11
5.1896444881889758
 21
1.7598313779527559
 31
0
  0
LINE
  5
141
330
1A
100
AcDbEntity
  8
BLACK
  6
CONTINUOUS
100
AcDbLine
 10
5.1896444881889758
 20
1.7598313779527559
 30
0
 11
5.1875109055118109
 21
1.7566382283464566
 31
0
  0
LINE
  5
142
330
1A
100
AcDbEntity
  8
BLACK
  6
CONTINUOUS
100
AcDbLine
 10
5.1875109055118109
 20
1.7566382283464566
 30
0
 11
5.1843177559055116
 21
1.7545046456692912
 31
0
  0
LINE
  5
143
330
1A
100
AcDbEntity
  8
BLACK
  6
CONTINUOUS
100
AcDbLine
 10
5.1843177559055116
 20
1.7545046456692912
 30
0
 11
5.1805511811023619
 21
1.753755433070866
 31
0
  0
LINE
  5
144
330
1A
100
AcDbEntity
  8
BLACK
  6
CONTINUOUS
100
AcDbLine
 10
5.1805511811023619
 20
1.753755433070866
 30
0
 11
5.1598818897637795
 21
1.753755433070866
 31
0
  0
LINE
  5
145
330
1A
100
AcDbEntity
  8
BLACK
  6
CONTINUOUS
100
AcDbLine
 10
5.1598818897637795
 20
1.753755433070866
 30
0
 11
5.1561153149606298
 21
1.7545046456692912
 31
0
  0
LINE
  5
146
330
1A
100
AcDbEntity
  8
BLACK
  6
CONTINUOUS
100
AcDbLine
 10
5.1561153149606298
 20
1.7545046456692912
 30
0
 11
5.1529221653543305
 21
1.7566382283464566
 31
0
  0
LINE
  5
147
330
1A
100
AcDbEntity
  8
BLACK
  6
CONTINUOUS
100
AcDbLine
 10
5.1529221653543305
 20
1.7566382283464566
 30
0
 11
5.1507885826771656
 21
1.7598313779527559
 31
0
  0
LINE
  5
148
330
1A
100
AcDbEntity
  8
BLACK
  6
CONTINUOUS
100
AcDbLine
 10
5.1507885826771656
 20
1.7598313779527559
 30
0
 11
5.1500393700787397
 21
1.7635979527559054
 31
0
  0
LINE
  5
149
330
1A
100
AcDbEntity
  8
BLACK
  6
CONTINUOUS
100
AcDbLine
 10
5.1500393700787397
 20
1.7635979527559054
 30
0
 11
5.1500393700787397
 21
1.7990310236220473
 31
0
  0
LINE
  5
14A
330
1A
100
AcDbEntity
  8
BLACK
  6
CONTINUOUS
100
AcDbLine
 10
5.1500393700787397
 20
1.7990310236220473
 30
0
 11
5.1507885826771656
 21
1.8027975984251967
 31
0
  0
LINE
  5
14B
330
1A
100
AcDbEntity
  8
BLACK
  6
CONTINUOUS
100
AcDbLine
 10
5.1507885826771656
 20
1.8027975984251967
 30
0
 11
5.1529221653543305
 21
1.8059907480314961
 31
0
  0
LINE
  5
14C
330
1A
100
AcDbEntity
  8
BLACK
  6
CONTINUOUS
100
AcDbLine
 10
5.1529221653543305
 20
1.8059907480314961
 30
0
 11
5.1561153149606298
 21
1.8081243307086614
 31
0
  0
LINE
  5
14D
330
1A
100
AcDbEntity
  8
BLACK
  6
CONTINUOUS
100
AcDbLine
 10
5.1561153149606298
 20
1.8081243307086614
 30
0
 11
5.1598818897637795
 21
1.8088735433070866
 31
0
  0
LINE
  5
14E
330
1A
100
AcDbEntity
  8
BLACK
  6
CONTINUOUS
100
AcDbLine
 10
5.1598818897637795
 20
1.8088735433070866
 30
0
 11
5.1805511811023619
 21
1.8088735433070866
 31
0
  0
LINE
  5
14F
330
1A
100
AcDbEntity
  8
BLACK
  6
CONTINUOUS
100
AcDbLine
 10
5.1805511811023619
 20
1.8088735433070866
 30
0
 11
5.1843177559055116
 21
1.8081243307086614
 31
0
  0
LINE
  5
150
330
1A
100
AcDbEntity
  8
BLACK
  6
CONTINUOUS
100
AcDbLine
 10
5.2561681496062995
 20
1.8081243307086614
 30
0
 11
5.259361299212598
 21
1.8059907480314961
 31
0
  0
LINE
  5
151
330
1A
100
AcDbEntity
  8
BLACK
  6
CONTINUOUS
100
AcDbLine
 10
5.259361299212598
 20
1.8059907480314961
 30
0
 11
5.2614948818897638
 21
1.8027975984251967
 31
0
  0
LINE
  5
152
330
1A
100
AcDbEntity
  8
BLACK
  6
CONTINUOUS
100
AcDbLine
 10
5.2614948818897638
 20
1.8027975984251967
 30
0
 11
5.2622440944881888
 21
1.7990310236220473
 31
0
  0
LINE
  5
153
330
1A
100
AcDbEntity
  8
BLACK
  6
CONTINUOUS
100
AcDbLine
 10
5.2622440944881888
 20
1.7990310236220473
 30
0
 11
5.2622440944881888
 21
1.7635979527559054
 31
0
  0
LINE
  5
154
330
1A
100
AcDbEntity
  8
BLACK
  6
CONTINUOUS
100
AcDbLine
 10
5.2622440944881888
 20
1.7635979527559054
 30
0
 11
5.2614948818897638
 21
1.7598313779527559
 31
0
  0
LINE
  5
155
330
1A
100
AcDbEntity
  8
BLACK
  6
CONTINUOUS
100
AcDbLine
 10
5.2614948818897638
 20
1.7598313779527559
 30
0
 11
5.259361299212598
 21
1.7566382283464566
 31
0
  0
LINE
  5
156
330
1A
100
AcDbEntity
  8
BLACK
  6
CONTINUOUS
100
AcDbLine
 10
5.259361299212598
 20
1.7566382283464566
 30
0
 11
5.2561681496062995
 21
1.7545046456692912
 31
0
  0
LINE
  5
157
330
1A
100
AcDbEntity
  8
BLACK
  6
CONTINUOUS
100
AcDbLine
 10
5.2561681496062995
 20
1.7545046456692912
 30
0
 11
5.2524015748031498
 21
1.753755433070866
 31
0
  0
LINE
  5
158
330
1A
100
AcDbEntity
  8
BLACK
  6
CONTINUOUS
100
AcDbLine
 10
5.2524015748031498
 20
1.753755433070866
 30
0
 11
5.2317322834645665
 21
1.753755433070866
 31
0
  0
LINE
  5
159
330
1A
100
AcDbEntity
  8
BLACK
  6
CONTINUOUS
100
AcDbLine
 10
5.2317322834645665
 20
1.753755433070866
 30
0
 11
5.2279657086614169
 21
1.7545046456692912
 31
0
  0
LINE
  5
15A
330
1A
100
AcDbEntity
  8
BLACK
  6
CONTINUOUS
100
AcDbLine
 10
5.2279657086614169
 20
1.7545046456692912
 30
0
 11
5.2247725590551184
 21
1.7566382283464566
 31
0
  0
LINE
  5
15B
330
1A
100
AcDbEntity
  8
BLACK
  6
CONTINUOUS
100
AcDbLine
 10
5.2247725590551184
 20
1.7566382283464566
 30
0
 11
5.2226389763779526
 21
1.7598313779527559
 31
0
  0
LINE
  5
15C
330
1A
100
AcDbEntity
  8
BLACK
  6
CONTINUOUS
100
AcDbLine
 10
5.2226389763779526
 20
1.7598313779527559
 30
0
 11
5.2218897637795276
 21
1.7635979527559054
 31
0
  0
LINE
  5
15D
330
1A
100
AcDbEntity
  8
BLACK
  6
CONTINUOUS
100
AcDbLine
 10
5.2218897637795276
 20
1.7635979527559054
 30
0
 11
5.2218897637795276
 21
1.7990310236220473
 31
0
  0
LINE
  5
15E
330
1A
100
AcDbEntity
  8
BLACK
  6
CONTINUOUS
100
AcDbLine
 10
5.2218897637795276
 20
1.7990310236220473
 30
0
 11
5.2226389763779526
 21
1.8027975984251967
 31
0
  0
LINE
  5
15F
330
1A
100
AcDbEntity
  8
BLACK
  6
CONTINUOUS
100
AcDbLine
 10
5.2226389763779526
 20
1.8027975984251967
 30
0
 11
5.2247725590551184
 21
1.8059907480314961
 31
0
  0
LINE
  5
160
330
1A
100
AcDbEntity
  8
BLACK
  6
CONTINUOUS
100
AcDbLine
 10
5.2247725590551184
 20
1.8059907480314961
 30
0
 11
5.2279657086614169
 21
1.8081243307086614
 31
0
  0
LINE
  5
161
330
1A
100
AcDbEntity
  8
BLACK
  6
CONTINUOUS
100
AcDbLine
 10
5.2279657086614169
 20
1.8081243307086614
 30
0
 11
5.2317322834645665
 21
1.8088735433070866
 31
0
  0
LINE
  5
162
330
1A
100
AcDbEntity
  8
BLACK
  6
CONTINUOUS
100
AcDbLine
 10
5.2317322834645665
 20
1.8088735433070866
 30
0
 11
5.2524015748031498
 21
1.8088735433070866
 31
0
  0
LINE
  5
163
330
1A
100
AcDbEntity
  8
BLACK
  6
CONTINUOUS
100
AcDbLine
 10
5.2524015748031498
 20
1.8088735433070866
 30
0
 11
5.2561681496062995
 21
1.8081243307086614
 31
0
  0
LINE
  5
164
330
1A
100
AcDbEntity
  8
BLACK
  6
CONTINUOUS
100
AcDbLine
 10
5.3173622047244091
 20
1.7615490944881889
 30
0
 11
5.2779921259842517
 21
1.7615490944881889
 31
0
  0
LINE
  5
165
330
1A
100
AcDbEntity
  8
BLACK
  6
CONTINUOUS
100
AcDbLine
 10
5.2779921259842517
 20
1.7615490944881889
 30
0
 11
5.2779921259842517
 21
1.7969821653543308
 31
0
  0
LINE
  5
166
330
1A
100
AcDbEntity
  8
BLACK
  6
CONTINUOUS
100
AcDbLine
 10
5.2779921259842517
 20
1.7969821653543308
 30
0
 11
5.3173622047244091
 21
1.7969821653543308
 31
0
  0
LINE
  5
167
330
1A
100
AcDbEntity
  8
BLACK
  6
CONTINUOUS
100
AcDbLine
 10
5.3173622047244091
 20
1.7969821653543308
 30
0
 11
5.3173622047244091
 21
1.7615490944881889
 31
0
  0
LINE
  5
168
330
1A
100
AcDbEntity
  8
BLACK
  6
CONTINUOUS
100
AcDbLine
 10
5.3173622047244091
 20
1.8075076377952755
 30
0
 11
5.2779921259842517
 21
1.8075076377952755
 31
0
  0
LINE
  5
169
330
1A
100
AcDbEntity
  8
BLACK
  6
CONTINUOUS
100
AcDbLine
 10
5.2779921259842517
 20
1.8075076377952755
 30
0
 11
5.2779921259842517
 21
1.8429407086614173
 31
0
  0
LINE
  5
16A
330
1A
100
AcDbEntity
  8
BLACK
  6
CONTINUOUS
100
AcDbLine
 10
5.2779921259842517
 20
1.8429407086614173
 30
0
 11
5.3173622047244091
 21
1.8429407086614173
 31
0
  0
LINE
  5
16B
330
1A
100
AcDbEntity
  8
BLACK
  6
CONTINUOUS
100
AcDbLine
 10
5.3173622047244091
 20
1.8429407086614173
 30
0
 11
5.3173622047244091
 21
1.8075076377952755
 31
0
  0
LINE
  5
16C
330
1A
100
AcDbEntity
  8
BLACK
  6
CONTINUOUS
100
AcDbLine
 10
5.1833335039370079
 20
1.8848959842519684
 30
0
 11
5.1865266535433072
 21
1.882762401574803
 31
0
  0
LINE
  5
16D
330
1A
100
AcDbEntity
  8
BLACK
  6
CONTINUOUS
100
AcDbLine
 10
5.1865266535433072
 20
1.882762401574803
 30
0
 11
5.1886602362204721
 21
1.8795692519685039
 31
0
  0
LINE
  5
16E
330
1A
100
AcDbEntity
  8
BLACK
  6
CONTINUOUS
100
AcDbLine
 10
5.1886602362204721
 20
1.8795692519685039
 30
0
 11
5.1894094488188971
 21
1.8758026771653542
 31
0
  0
LINE
  5
16F
330
1A
100
AcDbEntity
  8
BLACK
  6
CONTINUOUS
100
AcDbLine
 10
5.1894094488188971
 20
1.8758026771653542
 30
0
 11
5.1894094488188971
 21
1.8403696062992125
 31
0
  0
LINE
  5
170
330
1A
100
AcDbEntity
  8
BLACK
  6
CONTINUOUS
100
AcDbLine
 10
5.1894094488188971
 20
1.8403696062992125
 30
0
 11
5.1886602362204721
 21
1.8366030314960629
 31
0
  0
LINE
  5
171
330
1A
100
AcDbEntity
  8
BLACK
  6
CONTINUOUS
100
AcDbLine
 10
5.1886602362204721
 20
1.8366030314960629
 30
0
 11
5.1865266535433072
 21
1.8334098818897637
 31
0
  0
LINE
  5
172
330
1A
100
AcDbEntity
  8
BLACK
  6
CONTINUOUS
100
AcDbLine
 10
5.1865266535433072
 20
1.8334098818897637
 30
0
 11
5.1833335039370079
 21
1.8312762992125984
 31
0
  0
LINE
  5
173
330
1A
100
AcDbEntity
  8
BLACK
  6
CONTINUOUS
100
AcDbLine
 10
5.1833335039370079
 20
1.8312762992125984
 30
0
 11
5.1795669291338582
 21
1.8305270866141732
 31
0
  0
LINE
  5
174
330
1A
100
AcDbEntity
  8
BLACK
  6
CONTINUOUS
100
AcDbLine
 10
5.1795669291338582
 20
1.8305270866141732
 30
0
 11
5.1588976377952758
 21
1.8305270866141732
 31
0
  0
LINE
  5
175
330
1A
100
AcDbEntity
  8
BLACK
  6
CONTINUOUS
100
AcDbLine
 10
5.1588976377952758
 20
1.8305270866141732
 30
0
 11
5.1551310629921261
 21
1.8312762992125984
 31
0
  0
LINE
  5
176
330
1A
100
AcDbEntity
  8
BLACK
  6
CONTINUOUS
100
AcDbLine
 10
5.1551310629921261
 20
1.8312762992125984
 30
0
 11
5.1519379133858267
 21
1.8334098818897637
 31
0
  0
LINE
  5
177
330
1A
100
AcDbEntity
  8
BLACK
  6
CONTINUOUS
100
AcDbLine
 10
5.1519379133858267
 20
1.8334098818897637
 30
0
 11
5.1498043307086609
 21
1.8366030314960629
 31
0
  0
LINE
  5
178
330
1A
100
AcDbEntity
  8
BLACK
  6
CONTINUOUS
100
AcDbLine
 10
5.1498043307086609
 20
1.8366030314960629
 30
0
 11
5.149055118110236
 21
1.8403696062992125
 31
0
  0
LINE
  5
179
330
1A
100
AcDbEntity
  8
BLACK
  6
CONTINUOUS
100
AcDbLine
 10
5.149055118110236
 20
1.8403696062992125
 30
0
 11
5.149055118110236
 21
1.8758026771653542
 31
0
  0
LINE
  5
17A
330
1A
100
AcDbEntity
  8
BLACK
  6
CONTINUOUS
100
AcDbLine
 10
5.149055118110236
 20
1.8758026771653542
 30
0
 11
5.1498043307086609
 21
1.8795692519685039
 31
0
  0
LINE
  5
17B
330
1A
100
AcDbEntity
  8
BLACK
  6
CONTINUOUS
100
AcDbLine
 10
5.1498043307086609
 20
1.8795692519685039
 30
0
 11
5.1519379133858267
 21
1.882762401574803
 31
0
  0
LINE
  5
17C
330
1A
100
AcDbEntity
  8
BLACK
  6
CONTINUOUS
100
AcDbLine
 10
5.1519379133858267
 20
1.882762401574803
 30
0
 11
5.1551310629921261
 21
1.8848959842519684
 31
0
  0
LINE
  5
17D
330
1A
100
AcDbEntity
  8
BLACK
  6
CONTINUOUS
100
AcDbLine
 10
5.1551310629921261
 20
1.8848959842519684
 30
0
 11
5.1588976377952758
 21
1.8856451968503936
 31
0
  0
LINE
  5
17E
330
1A
100
AcDbEntity
  8
BLACK
  6
CONTINUOUS
100
AcDbLine
 10
5.1588976377952758
 20
1.8856451968503936
 30
0
 11
5.1795669291338582
 21
1.8856451968503936
 31
0
  0
LINE
  5
17F
330
1A
100
AcDbEntity
  8
BLACK
  6
CONTINUOUS
100
AcDbLine
 10
5.1795669291338582
 20
1.8856451968503936
 30
0
 11
5.1833335039370079
 21
1.8848959842519684
 31
0
  0
LINE
  5
180
330
1A
100
AcDbEntity
  8
BLACK
  6
CONTINUOUS
100
AcDbLine
 10
5.2551838976377949
 20
1.8848959842519684
 30
0
 11
5.2583770472440943
 21
1.882762401574803
 31
0
  0
LINE
  5
181
330
1A
100
AcDbEntity
  8
BLACK
  6
CONTINUOUS
100
AcDbLine
 10
5.2583770472440943
 20
1.882762401574803
 30
0
 11
5.2605106299212601
 21
1.8795692519685039
 31
0
  0
LINE
  5
182
330
1A
100
AcDbEntity
  8
BLACK
  6
CONTINUOUS
100
AcDbLine
 10
5.2605106299212601
 20
1.8795692519685039
 30
0
 11
5.261259842519685
 21
1.8758026771653542
 31
0
  0
LINE
  5
183
330
1A
100
AcDbEntity
  8
BLACK
  6
CONTINUOUS
100
AcDbLine
 10
5.261259842519685
 20
1.8758026771653542
 30
0
 11
5.261259842519685
 21
1.8403696062992125
 31
0
  0
LINE
  5
184
330
1A
100
AcDbEntity
  8
BLACK
  6
CONTINUOUS
100
AcDbLine
 10
5.261259842519685
 20
1.8403696062992125
 30
0
 11
5.2605106299212601
 21
1.8366030314960629
 31
0
  0
LINE
  5
185
330
1A
100
AcDbEntity
  8
BLACK
  6
CONTINUOUS
100
AcDbLine
 10
5.2605106299212601
 20
1.8366030314960629
 30
0
 11
5.2583770472440943
 21
1.8334098818897637
 31
0
  0
LINE
  5
186
330
1A
100
AcDbEntity
  8
BLACK
  6
CONTINUOUS
100
AcDbLine
 10
5.2583770472440943
 20
1.8334098818897637
 30
0
 11
5.2551838976377949
 21
1.8312762992125984
 31
0
  0
LINE
  5
187
330
1A
100
AcDbEntity
  8
BLACK
  6
CONTINUOUS
100
AcDbLine
 10
5.2551838976377949
 20
1.8312762992125984
 30
0
 11
5.2514173228346452
 21
1.8305270866141732
 31
0
  0
LINE
  5
188
330
1A
100
AcDbEntity
  8
BLACK
  6
CONTINUOUS
100
AcDbLine
 10
5.2514173228346452
 20
1.8305270866141732
 30
0
 11
5.2307480314960628
 21
1.8305270866141732
 31
0
  0
LINE
  5
189
330
1A
100
AcDbEntity
  8
BLACK
  6
CONTINUOUS
100
AcDbLine
 10
5.2307480314960628
 20
1.8305270866141732
 30
0
 11
5.2269814566929131
 21
1.8312762992125984
 31
0
  0
LINE
  5
18A
330
1A
100
AcDbEntity
  8
BLACK
  6
CONTINUOUS
100
AcDbLine
 10
5.2269814566929131
 20
1.8312762992125984
 30
0
 11
5.2237883070866138
 21
1.8334098818897637
 31
0
  0
LINE
  5
18B
330
1A
100
AcDbEntity
  8
BLACK
  6
CONTINUOUS
100
AcDbLine
 10
5.2237883070866138
 20
1.8334098818897637
 30
0
 11
5.2216547244094489
 21
1.8366030314960629
 31
0
  0
LINE
  5
18C
330
1A
100
AcDbEntity
  8
BLACK
  6
CONTINUOUS
100
AcDbLine
 10
5.2216547244094489
 20
1.8366030314960629
 30
0
 11
5.2209055118110239
 21
1.8403696062992125
 31
0
  0
LINE
  5
18D
330
1A
100
AcDbEntity
  8
BLACK
  6
CONTINUOUS
100
AcDbLine
 10
5.2209055118110239
 20
1.8403696062992125
 30
0
 11
5.2209055118110239
 21
1.8758026771653542
 31
0
  0
LINE
  5
18E
330
1A
100
AcDbEntity
  8
BLACK
  6
CONTINUOUS
100
AcDbLine
 10
5.2209055118110239
 20
1.8758026771653542
 30
0
 11
5.2216547244094489
 21
1.8795692519685039
 31
0
  0
LINE
  5
18F
330
1A
100
AcDbEntity
  8
BLACK
  6
CONTINUOUS
100
AcDbLine
 10
5.2216547244094489
 20
1.8795692519685039
 30
0
 11
5.2237883070866138
 21
1.882762401574803
 31
0
  0
LINE
  5
190
330
1A
100
AcDbEntity
  8
BLACK
  6
CONTINUOUS
100
AcDbLine
 10
5.2237883070866138
 20
1.882762401574803
 30
0
 11
5.2269814566929131
 21
1.8848959842519684
 31
0
  0
LINE
  5
191
330
1A
100
AcDbEntity
  8
BLACK
  6
CONTINUOUS
100
AcDbLine
 10
5.2269814566929131
 20
1.8848959842519684
 30
0
 11
5.2307480314960628
 21
1.8856451968503936
 31
0
  0
LINE
  5
192
330
1A
100
AcDbEntity
  8
BLACK
  6
CONTINUOUS
100
AcDbLine
 10
5.2307480314960628
 20
1.8856451968503936
 30
0
 11
5.2514173228346452
 21
1.8856451968503936
 31
0
  0
LINE
  5
193
330
1A
100
AcDbEntity
  8
BLACK
  6
CONTINUOUS
100
AcDbLine
 10
5.2514173228346452
 20
1.8856451968503936
 30
0
 11
5.2551838976377949
 21
1.8848959842519684
 31
0
  0
LINE
  5
194
330
1A
100
AcDbEntity
  8
BLACK
  6
CONTINUOUS
100
AcDbLine
 10
5.3173622047244091
 20
1.8704997637795275
 30
0
 11
5.2779921259842517
 21
1.8704997637795275
 31
0
  0
LINE
  5
195
330
1A
100
AcDbEntity
  8
BLACK
  6
CONTINUOUS
100
AcDbLine
 10
5.2779921259842517
 20
1.8704997637795275
 30
0
 11
5.2779921259842517
 21
1.9059328346456692
 31
0
  0
LINE
  5
196
330
1A
100
AcDbEntity
  8
BLACK
  6
CONTINUOUS
100
AcDbLine
 10
5.2779921259842517
 20
1.9059328346456692
 30
0
 11
5.3173622047244091
 21
1.9059328346456692
 31
0
  0
LINE
  5
197
330
1A
100
AcDbEntity
  8
BLACK
  6
CONTINUOUS
100
AcDbLine
 10
5.3173622047244091
 20
1.9059328346456692
 30
0
 11
5.3173622047244091
 21
1.8704997637795275
 31
0
  0
LINE
  5
198
330
1A
100
AcDbEntity
  8
BLACK
  6
CONTINUOUS
100
AcDbLine
 10
5.1823492519685042
 20
1.9616676377952755
 30
0
 11
5.1855424015748026
 21
1.9595340551181102
 31
0
  0
LINE
  5
199
330
1A
100
AcDbEntity
  8
BLACK
  6
CONTINUOUS
100
AcDbLine
 10
5.1855424015748026
 20
1.9595340551181102
 30
0
 11
5.1876759842519684
 21
1.9563409055118111
 31
0
  0
LINE
  5
19A
330
1A
100
AcDbEntity
  8
BLACK
  6
CONTINUOUS
100
AcDbLine
 10
5.1876759842519684
 20
1.9563409055118111
 30
0
 11
5.1884251968503934
 21
1.9525743307086614
 31
0
  0
LINE
  5
19B
330
1A
100
AcDbEntity
  8
BLACK
  6
CONTINUOUS
100
AcDbLine
 10
5.1884251968503934
 20
1.9525743307086614
 30
0
 11
5.1884251968503934
 21
1.9171412598425197
 31
0
  0
LINE
  5
19C
330
1A
100
AcDbEntity
  8
BLACK
  6
CONTINUOUS
100
AcDbLine
 10
5.1884251968503934
 20
1.9171412598425197
 30
0
 11
5.1876759842519684
 21
1.91337468503937
 31
0
  0
LINE
  5
19D
330
1A
100
AcDbEntity
  8
BLACK
  6
CONTINUOUS
100
AcDbLine
 10
5.1876759842519684
 20
1.91337468503937
 30
0
 11
5.1855424015748026
 21
1.9101815354330709
 31
0
  0
LINE
  5
19E
330
1A
100
AcDbEntity
  8
BLACK
  6
CONTINUOUS
100
AcDbLine
 10
5.1855424015748026
 20
1.9101815354330709
 30
0
 11
5.1823492519685042
 21
1.9080479527559056
 31
0
  0
LINE
  5
19F
330
1A
100
AcDbEntity
  8
BLACK
  6
CONTINUOUS
100
AcDbLine
 10
5.1823492519685042
 20
1.9080479527559056
 30
0
 11
5.1785826771653545
 21
1.9072987401574804
 31
0
  0
LINE
  5
1A0
330
1A
100
AcDbEntity
  8
BLACK
  6
CONTINUOUS
100
AcDbLine
 10
5.1785826771653545
 20
1.9072987401574804
 30
0
 11
5.1579133858267712
 21
1.9072987401574804
 31
0
  0
LINE
  5
1A1
330
1A
100
AcDbEntity
  8
BLACK
  6
CONTINUOUS
100
AcDbLine
 10
5.1579133858267712
 20
1.9072987401574804
 30
0
 11
5.1541468110236215
 21
1.9080479527559056
 31
0
  0
LINE
  5
1A2
330
1A
100
AcDbEntity
  8
BLACK
  6
CONTINUOUS
100
AcDbLine
 10
5.1541468110236215
 20
1.9080479527559056
 30
0
 11
5.150953661417323
 21
1.9101815354330709
 31
0
  0
LINE
  5
1A3
330
1A
100
AcDbEntity
  8
BLACK
  6
CONTINUOUS
100
AcDbLine
 10
5.150953661417323
 20
1.9101815354330709
 30
0
 11
5.1488200787401572
 21
1.91337468503937
 31
0
  0
LINE
  5
1A4
330
1A
100
AcDbEntity
  8
BLACK
  6
CONTINUOUS
100
AcDbLine
 10
5.1488200787401572
 20
1.91337468503937
 30
0
 11
5.1480708661417323
 21
1.9171412598425197
 31
0
  0
LINE
  5
1A5
330
1A
100
AcDbEntity
  8
BLACK
  6
CONTINUOUS
100
AcDbLine
 10
5.1480708661417323
 20
1.9171412598425197
 30
0
 11
5.1480708661417323
 21
1.9525743307086614
 31
0
  0
LINE
  5
1A6
330
1A
100
AcDbEntity
  8
BLACK
  6
CONTINUOUS
100
AcDbLine
 10
5.1480708661417323
 20
1.9525743307086614
 30
0
 11
5.1488200787401572
 21
1.9563409055118111
 31
0
  0
LINE
  5
1A7
330
1A
100
AcDbEntity
  8
BLACK
  6
CONTINUOUS
100
AcDbLine
 10
5.1488200787401572
 20
1.9563409055118111
 30
0
 11
5.150953661417323
 21
1.9595340551181102
 31
0
  0
LINE
  5
1A8
330
1A
100
AcDbEntity
  8
BLACK
  6
CONTINUOUS
100
AcDbLine
 10
5.150953661417323
 20
1.9595340551181102
 30
0
 11
5.1541468110236215
 21
1.9616676377952755
 31
0
  0
LINE
  5
1A9
330
1A
100
AcDbEntity
  8
BLACK
  6
CONTINUOUS
100
AcDbLine
 10
5.1541468110236215
 20
1.9616676377952755
 30
0
 11
5.1579133858267712
 21
1.9624168503937007
 31
0
  0
LINE
  5
1AA
330
1A
100
AcDbEntity
  8
BLACK
  6
CONTINUOUS
100
AcDbLine
 10
5.1579133858267712
 20
1.9624168503937007
 30
0
 11
5.1785826771653545
 21
1.9624168503937007
 31
0
  0
LINE
  5
1AB
330
1A
100
AcDbEntity
  8
BLACK
  6
CONTINUOUS
100
AcDbLine
 10
5.1785826771653545
 20
1.9624168503937007
 30
0
 11
5.1823492519685042
 21
1.9616676377952755
 31
0
  0
LINE
  5
1AC
330
1A
100
AcDbEntity
  8
BLACK
  6
CONTINUOUS
100
AcDbLine
 10
5.2541996456692912
 20
1.9616676377952755
 30
0
 11
5.2573927952755906
 21
1.9595340551181102
 31
0
  0
LINE
  5
1AD
330
1A
100
AcDbEntity
  8
BLACK
  6
CONTINUOUS
100
AcDbLine
 10
5.2573927952755906
 20
1.9595340551181102
 30
0
 11
5.2595263779527555
 21
1.9563409055118111
 31
0
  0
LINE
  5
1AE
330
1A
100
AcDbEntity
  8
BLACK
  6
CONTINUOUS
100
AcDbLine
 10
5.2595263779527555
 20
1.9563409055118111
 30
0
 11
5.2602755905511813
 21
1.9525743307086614
 31
0
  0
LINE
  5
1AF
330
1A
100
AcDbEntity
  8
BLACK
  6
CONTINUOUS
100
AcDbLine
 10
5.2602755905511813
 20
1.9525743307086614
 30
0
 11
5.2602755905511813
 21
1.9171412598425197
 31
0
  0
LINE
  5
1B0
330
1A
100
AcDbEntity
  8
BLACK
  6
CONTINUOUS
100
AcDbLine
 10
5.2602755905511813
 20
1.9171412598425197
 30
0
 11
5.2595263779527555
 21
1.91337468503937
 31
0
  0
LINE
  5
1B1
330
1A
100
AcDbEntity
  8
BLACK
  6
CONTINUOUS
100
AcDbLine
 10
5.2595263779527555
 20
1.91337468503937
 30
0
 11
5.2573927952755906
 21
1.9101815354330709
 31
0
  0
LINE
  5
1B2
330
1A
100
AcDbEntity
  8
BLACK
  6
CONTINUOUS
100
AcDbLine
 10
5.2573927952755906
 20
1.9101815354330709
 30
0
 11
5.2541996456692912
 21
1.9080479527559056
 31
0
  0
LINE
  5
1B3
330
1A
100
AcDbEntity
  8
BLACK
  6
CONTINUOUS
100
AcDbLine
 10
5.2541996456692912
 20
1.9080479527559056
 30
0
 11
5.2504330708661415
 21
1.9072987401574804
 31
0
  0
LINE
  5
1B4
330
1A
100
AcDbEntity
  8
BLACK
  6
CONTINUOUS
100
AcDbLine
 10
5.2504330708661415
 20
1.9072987401574804
 30
0
 11
5.2297637795275591
 21
1.9072987401574804
 31
0
  0
LINE
  5
1B5
330
1A
100
AcDbEntity
  8
BLACK
  6
CONTINUOUS
100
AcDbLine
 10
5.2297637795275591
 20
1.9072987401574804
 30
0
 11
5.2259972047244094
 21
1.9080479527559056
 31
0
  0
LINE
  5
1B6
330
1A
100
AcDbEntity
  8
BLACK
  6
CONTINUOUS
100
AcDbLine
 10
5.2259972047244094
 20
1.9080479527559056
 30
0
 11
5.2228040551181101
 21
1.9101815354330709
 31
0
  0
LINE
  5
1B7
330
1A
100
AcDbEntity
  8
BLACK
  6
CONTINUOUS
100
AcDbLine
 10
5.2228040551181101
 20
1.9101815354330709
 30
0
 11
5.2206704724409452
 21
1.91337468503937
 31
0
  0
LINE
  5
1B8
330
1A
100
AcDbEntity
  8
BLACK
  6
CONTINUOUS
100
AcDbLine
 10
5.2206704724409452
 20
1.91337468503937
 30
0
 11
5.2199212598425193
 21
1.9171412598425197
 31
0
  0
LINE
  5
1B9
330
1A
100
AcDbEntity
  8
BLACK
  6
CONTINUOUS
100
AcDbLine
 10
5.2199212598425193
 20
1.9171412598425197
 30
0
 11
5.2199212598425193
 21
1.9525743307086614
 31
0
  0
LINE
  5
1BA
330
1A
100
AcDbEntity
  8
BLACK
  6
CONTINUOUS
100
AcDbLine
 10
5.2199212598425193
 20
1.9525743307086614
 30
0
 11
5.2206704724409452
 21
1.9563409055118111
 31
0
  0
LINE
  5
1BB
330
1A
100
AcDbEntity
  8
BLACK
  6
CONTINUOUS
100
AcDbLine
 10
5.2206704724409452
 20
1.9563409055118111
 30
0
 11
5.2228040551181101
 21
1.9595340551181102
 31
0
  0
LINE
  5
1BC
330
1A
100
AcDbEntity
  8
BLACK
  6
CONTINUOUS
100
AcDbLine
 10
5.2228040551181101
 20
1.9595340551181102
 30
0
 11
5.2259972047244094
 21
1.9616676377952755
 31
0
  0
LINE
  5
1BD
330
1A
100
AcDbEntity
  8
BLACK
  6
CONTINUOUS
100
AcDbLine
 10
5.2259972047244094
 20
1.9616676377952755
 30
0
 11
5.2297637795275591
 21
1.9624168503937007
 31
0
  0
LINE
  5
1BE
330
1A
100
AcDbEntity
  8
BLACK
  6
CONTINUOUS
100
AcDbLine
 10
5.2297637795275591
 20
1.9624168503937007
 30
0
 11
5.2504330708661415
 21
1.9624168503937007
 31
0
  0
LINE
  5
1BF
330
1A
100
AcDbEntity
  8
BLACK
  6
CONTINUOUS
100
AcDbLine
 10
5.2504330708661415
 20
1.9624168503937007
 30
0
 11
5.2541996456692912
 21
1.9616676377952755
 31
0
  0
LINE
  5
1C0
330
1A
100
AcDbEntity
  8
BLACK
  6
CONTINUOUS
100
AcDbLine
 10
5.3173622047244091
 20
1.9164583070866141
 30
0
 11
5.2779921259842517
 21
1.9164583070866141
 31
0
  0
LINE
  5
1C1
330
1A
100
AcDbEntity
  8
BLACK
  6
CONTINUOUS
100
AcDbLine
 10
5.2779921259842517
 20
1.9164583070866141
 30
0
 11
5.2779921259842517
 21
1.9518913779527558
 31
0
  0
LINE
  5
1C2
330
1A
100
AcDbEntity
  8
BLACK
  6
CONTINUOUS
100
AcDbLine
 10
5.2779921259842517
 20
1.9518913779527558
 30
0
 11
5.3173622047244091
 21
1.9518913779527558
 31
0
  0
LINE
  5
1C3
330
1A
100
AcDbEntity
  8
BLACK
  6
CONTINUOUS
100
AcDbLine
 10
5.3173622047244091
 20
1.9518913779527558
 30
0
 11
5.3173622047244091
 21
1.9164583070866141
 31
0
  0
LINE
  5
1C4
330
1A
100
AcDbEntity
  8
BLACK
  6
CONTINUOUS
100
AcDbLine
 10
5.3173622047244091
 20
1.979450433070866
 30
0
 11
5.2779921259842517
 21
1.979450433070866
 31
0
  0
LINE
  5
1C5
330
1A
100
AcDbEntity
  8
BLACK
  6
CONTINUOUS
100
AcDbLine
 10
5.2779921259842517
 20
1.979450433070866
 30
0
 11
5.2779921259842517
 21
2.0148835039370079
 31
0
  0
LINE
  5
1C6
330
1A
100
AcDbEntity
  8
BLACK
  6
CONTINUOUS
100
AcDbLine
 10
5.2779921259842517
 20
2.0148835039370079
 30
0
 11
5.3173622047244091
 21
2.0148835039370079
 31
0
  0
LINE
  5
1C7
330
1A
100
AcDbEntity
  8
BLACK
  6
CONTINUOUS
100
AcDbLine
 10
5.3173622047244091
 20
2.0148835039370079
 30
0
 11
5.3173622047244091
 21
1.979450433070866
 31
0
  0
LINE
  5
1C8
330
1A
100
AcDbEntity
  8
BLACK
  6
CONTINUOUS
100
AcDbLine
 10
5.3173622047244091
 20
2.0254089763779528
 30
0
 11
5.2779921259842517
 21
2.0254089763779528
 31
0
  0
LINE
  5
1C9
330
1A
100
AcDbEntity
  8
BLACK
  6
CONTINUOUS
100
AcDbLine
 10
5.2779921259842517
 20
2.0254089763779528
 30
0
 11
5.2779921259842517
 21
2.0608420472440945
 31
0
  0
LINE
  5
1CA
330
1A
100
AcDbEntity
  8
BLACK
  6
CONTINUOUS
100
AcDbLine
 10
5.2779921259842517
 20
2.0608420472440945
 30
0
 11
5.3173622047244091
 21
2.0608420472440945
 31
0
  0
LINE
  5
1CB
330
1A
100
AcDbEntity
  8
BLACK
  6
CONTINUOUS
100
AcDbLine
 10
5.3173622047244091
 20
2.0608420472440945
 30
0
 11
5.3173622047244091
 21
2.0254089763779528
 31
0
  0
LINE
  5
1CC
330
1A
100
AcDbEntity
  8
BLACK
  6
CONTINUOUS
100
AcDbLine
 10
5.3173622047244091
 20
2.0884011023622047
 30
0
 11
5.2779921259842517
 21
2.0884011023622047
 31
0
  0
LINE
  5
1CD
330
1A
100
AcDbEntity
  8
BLACK
  6
CONTINUOUS
100
AcDbLine
 10
5.2779921259842517
 20
2.0884011023622047
 30
0
 11
5.2779921259842517
 21
2.1238341732283463
 31
0
  0
LINE
  5
1CE
330
1A
100
AcDbEntity
  8
BLACK
  6
CONTINUOUS
100
AcDbLine
 10
5.2779921259842517
 20
2.1238341732283463
 30
0
 11
5.3173622047244091
 21
2.1238341732283463
 31
0
  0
LINE
  5
1CF
330
1A
100
AcDbEntity
  8
BLACK
  6
CONTINUOUS
100
AcDbLine
 10
5.3173622047244091
 20
2.1238341732283463
 30
0
 11
5.3173622047244091
 21
2.0884011023622047
 31
0
  0
LINE
  5
1D0
330
1A
100
AcDbEntity
  8
BLACK
  6
CONTINUOUS
100
AcDbLine
 10
5.3173622047244091
 20
2.1343596456692913
 30
0
 11
5.2779921259842517
 21
2.1343596456692913
 31
0
  0
LINE
  5
1D1
330
1A
100
AcDbEntity
  8
BLACK
  6
CONTINUOUS
100
AcDbLine
 10
5.2779921259842517
 20
2.1343596456692913
 30
0
 11
5.2779921259842517
 21
2.1697927165354329
 31
0
  0
LINE
  5
1D2
330
1A
100
AcDbEntity
  8
BLACK
  6
CONTINUOUS
100
AcDbLine
 10
5.2779921259842517
 20
2.1697927165354329
 30
0
 11
5.3173622047244091
 21
2.1697927165354329
 31
0
  0
LINE
  5
1D3
330
1A
100
AcDbEntity
  8
BLACK
  6
CONTINUOUS
100
AcDbLine
 10
5.3173622047244091
 20
2.1697927165354329
 30
0
 11
5.3173622047244091
 21
2.1343596456692913
 31
0
  0
LINE
  5
1D4
330
1A
100
AcDbEntity
  8
BLACK
  6
CONTINUOUS
100
AcDbLine
 10
5.1823492519685042
 20
2.2077306299212598
 30
0
 11
5.1855424015748026
 21
2.2055970472440944
 31
0
  0
LINE
  5
1D5
330
1A
100
AcDbEntity
  8
BLACK
  6
CONTINUOUS
100
AcDbLine
 10
5.1855424015748026
 20
2.2055970472440944
 30
0
 11
5.1876759842519684
 21
2.2024038976377951
 31
0
  0
LINE
  5
1D6
330
1A
100
AcDbEntity
  8
BLACK
  6
CONTINUOUS
100
AcDbLine
 10
5.1876759842519684
 20
2.2024038976377951
 30
0
 11
5.1884251968503934
 21
2.1986373228346454
 31
0
  0
LINE
  5
1D7
330
1A
100
AcDbEntity
  8
BLACK
  6
CONTINUOUS
100
AcDbLine
 10
5.1884251968503934
 20
2.1986373228346454
 30
0
 11
5.1884251968503934
 21
2.1632042519685037
 31
0
  0
LINE
  5
1D8
330
1A
100
AcDbEntity
  8
BLACK
  6
CONTINUOUS
100
AcDbLine
 10
5.1884251968503934
 20
2.1632042519685037
 30
0
 11
5.1876759842519684
 21
2.1594376771653541
 31
0
  0
LINE
  5
1D9
330
1A
100
AcDbEntity
  8
BLACK
  6
CONTINUOUS
100
AcDbLine
 10
5.1876759842519684
 20
2.1594376771653541
 30
0
 11
5.1855424015748026
 21
2.1562445275590552
 31
0
  0
LINE
  5
1DA
330
1A
100
AcDbEntity
  8
BLACK
  6
CONTINUOUS
100
AcDbLine
 10
5.1855424015748026
 20
2.1562445275590552
 30
0
 11
5.1823492519685042
 21
2.1541109448818898
 31
0
  0
LINE
  5
1DB
330
1A
100
AcDbEntity
  8
BLACK
  6
CONTINUOUS
100
AcDbLine
 10
5.1823492519685042
 20
2.1541109448818898
 30
0
 11
5.1785826771653545
 21
2.1533617322834644
 31
0
  0
LINE
  5
1DC
330
1A
100
AcDbEntity
  8
BLACK
  6
CONTINUOUS
100
AcDbLine
 10
5.1785826771653545
 20
2.1533617322834644
 30
0
 11
5.1579133858267712
 21
2.1533617322834644
 31
0
  0
LINE
  5
1DD
330
1A
100
AcDbEntity
  8
BLACK
  6
CONTINUOUS
100
AcDbLine
 10
5.1579133858267712
 20
2.1533617322834644
 30
0
 11
5.1541468110236215
 21
2.1541109448818898
 31
0
  0
LINE
  5
1DE
330
1A
100
AcDbEntity
  8
BLACK
  6
CONTINUOUS
100
AcDbLine
 10
5.1541468110236215
 20
2.1541109448818898
 30
0
 11
5.150953661417323
 21
2.1562445275590552
 31
0
  0
LINE
  5
1DF
330
1A
100
AcDbEntity
  8
BLACK
  6
CONTINUOUS
100
AcDbLine
 10
5.150953661417323
 20
2.1562445275590552
 30
0
 11
5.1488200787401572
 21
2.1594376771653541
 31
0
  0
LINE
  5
1E0
330
1A
100
AcDbEntity
  8
BLACK
  6
CONTINUOUS
100
AcDbLine
 10
5.1488200787401572
 20
2.1594376771653541
 30
0
 11
5.1480708661417323
 21
2.1632042519685037
 31
0
  0
LINE
  5
1E1
330
1A
100
AcDbEntity
  8
BLACK
  6
CONTINUOUS
100
AcDbLine
 10
5.1480708661417323
 20
2.1632042519685037
 30
0
 11
5.1480708661417323
 21
2.1986373228346454
 31
0
  0
LINE
  5
1E2
330
1A
100
AcDbEntity
  8
BLACK
  6
CONTINUOUS
100
AcDbLine
 10
5.1480708661417323
 20
2.1986373228346454
 30
0
 11
5.1488200787401572
 21
2.2024038976377951
 31
0
  0
LINE
  5
1E3
330
1A
100
AcDbEntity
  8
BLACK
  6
CONTINUOUS
100
AcDbLine
 10
5.1488200787401572
 20
2.2024038976377951
 30
0
 11
5.150953661417323
 21
2.2055970472440944
 31
0
  0
LINE
  5
1E4
330
1A
100
AcDbEntity
  8
BLACK
  6
CONTINUOUS
100
AcDbLine
 10
5.150953661417323
 20
2.2055970472440944
 30
0
 11
5.1541468110236215
 21
2.2077306299212598
 31
0
  0
LINE
  5
1E5
330
1A
100
AcDbEntity
  8
BLACK
  6
CONTINUOUS
100
AcDbLine
 10
5.1541468110236215
 20
2.2077306299212598
 30
0
 11
5.1579133858267712
 21
2.2084798425196852
 31
0
  0
LINE
  5
1E6
330
1A
100
AcDbEntity
  8
BLACK
  6
CONTINUOUS
100
AcDbLine
 10
5.1579133858267712
 20
2.2084798425196852
 30
0
 11
5.1785826771653545
 21
2.2084798425196852
 31
0
  0
LINE
  5
1E7
330
1A
100
AcDbEntity
  8
BLACK
  6
CONTINUOUS
100
AcDbLine
 10
5.1785826771653545
 20
2.2084798425196852
 30
0
 11
5.1823492519685042
 21
2.2077306299212598
 31
0
  0
LINE
  5
1E8
330
1A
100
AcDbEntity
  8
BLACK
  6
CONTINUOUS
100
AcDbLine
 10
5.2541996456692912
 20
2.2077306299212598
 30
0
 11
5.2573927952755906
 21
2.2055970472440944
 31
0
  0
LINE
  5
1E9
330
1A
100
AcDbEntity
  8
BLACK
  6
CONTINUOUS
100
AcDbLine
 10
5.2573927952755906
 20
2.2055970472440944
 30
0
 11
5.2595263779527555
 21
2.2024038976377951
 31
0
  0
LINE
  5
1EA
330
1A
100
AcDbEntity
  8
BLACK
  6
CONTINUOUS
100
AcDbLine
 10
5.2595263779527555
 20
2.2024038976377951
 30
0
 11
5.2602755905511813
 21
2.1986373228346454
 31
0
  0
LINE
  5
1EB
330
1A
100
AcDbEntity
  8
BLACK
  6
CONTINUOUS
100
AcDbLine
 10
5.2602755905511813
 20
2.1986373228346454
 30
0
 11
5.2602755905511813
 21
2.1632042519685037
 31
0
  0
LINE
  5
1EC
330
1A
100
AcDbEntity
  8
BLACK
  6
CONTINUOUS
100
AcDbLine
 10
5.2602755905511813
 20
2.1632042519685037
 30
0
 11
5.2595263779527555
 21
2.1594376771653541
 31
0
  0
LINE
  5
1ED
330
1A
100
AcDbEntity
  8
BLACK
  6
CONTINUOUS
100
AcDbLine
 10
5.2595263779527555
 20
2.1594376771653541
 30
0
 11
5.2573927952755906
 21
2.1562445275590552
 31
0
  0
LINE
  5
1EE
330
1A
100
AcDbEntity
  8
BLACK
  6
CONTINUOUS
100
AcDbLine
 10
5.2573927952755906
 20
2.1562445275590552
 30
0
 11
5.2541996456692912
 21
2.1541109448818898
 31
0
  0
LINE
  5
1EF
330
1A
100
AcDbEntity
  8
BLACK
  6
CONTINUOUS
100
AcDbLine
 10
5.2541996456692912
 20
2.1541109448818898
 30
0
 11
5.2504330708661415
 21
2.1533617322834644
 31
0
  0
LINE
  5
1F0
330
1A
100
AcDbEntity
  8
BLACK
  6
CONTINUOUS
100
AcDbLine
 10
5.2504330708661415
 20
2.1533617322834644
 30
0
 11
5.2297637795275591
 21
2.1533617322834644
 31
0
  0
LINE
  5
1F1
330
1A
100
AcDbEntity
  8
BLACK
  6
CONTINUOUS
100
AcDbLine
 10
5.2297637795275591
 20
2.1533617322834644
 30
0
 11
5.2259972047244094
 21
2.1541109448818898
 31
0
  0
LINE
  5
1F2
330
1A
100
AcDbEntity
  8
BLACK
  6
CONTINUOUS
100
AcDbLine
 10
5.2259972047244094
 20
2.1541109448818898
 30
0
 11
5.2228040551181101
 21
2.1562445275590552
 31
0
  0
LINE
  5
1F3
330
1A
100
AcDbEntity
  8
BLACK
  6
CONTINUOUS
100
AcDbLine
 10
5.2228040551181101
 20
2.1562445275590552
 30
0
 11
5.2206704724409452
 21
2.1594376771653541
 31
0
  0
LINE
  5
1F4
330
1A
100
AcDbEntity
  8
BLACK
  6
CONTINUOUS
100
AcDbLine
 10
5.2206704724409452
 20
2.1594376771653541
 30
0
 11
5.2199212598425193
 21
2.1632042519685037
 31
0
  0
LINE
  5
1F5
330
1A
100
AcDbEntity
  8
BLACK
  6
CONTINUOUS
100
AcDbLine
 10
5.2199212598425193
 20
2.1632042519685037
 30
0
 11
5.2199212598425193
 21
2.1986373228346454
 31
0
  0
LINE
  5
1F6
330
1A
100
AcDbEntity
  8
BLACK
  6
CONTINUOUS
100
AcDbLine
 10
5.2199212598425193
 20
2.1986373228346454
 30
0
 11
5.2206704724409452
 21
2.2024038976377951
 31
0
  0
LINE
  5
1F7
330
1A
100
AcDbEntity
  8
BLACK
  6
CONTINUOUS
100
AcDbLine
 10
5.2206704724409452
 20
2.2024038976377951
 30
0
 11
5.2228040551181101
 21
2.2055970472440944
 31
0
  0
LINE
  5
1F8
330
1A
100
AcDbEntity
  8
BLACK
  6
CONTINUOUS
100
AcDbLine
 10
5.2228040551181101
 20
2.2055970472440944
 30
0
 11
5.2259972047244094
 21
2.2077306299212598
 31
0
  0
LINE
  5
1F9
330
1A
100
AcDbEntity
  8
BLACK
  6
CONTINUOUS
100
AcDbLine
 10
5.2259972047244094
 20
2.2077306299212598
 30
0
 11
5.2297637795275591
 21
2.2084798425196852
 31
0
  0
LINE
  5
1FA
330
1A
100
AcDbEntity
  8
BLACK
  6
CONTINUOUS
100
AcDbLine
 10
5.2297637795275591
 20
2.2084798425196852
 30
0
 11
5.2504330708661415
 21
2.2084798425196852
 31
0
  0
LINE
  5
1FB
330
1A
100
AcDbEntity
  8
BLACK
  6
CONTINUOUS
100
AcDbLine
 10
5.2504330708661415
 20
2.2084798425196852
 30
0
 11
5.2541996456692912
 21
2.2077306299212598
 31
0
  0
LINE
  5
1FC
330
1A
100
AcDbEntity
  8
BLACK
  6
CONTINUOUS
100
AcDbLine
 10
5.3173622047244091
 20
2.1973517716535431
 30
0
 11
5.2779921259842517
 21
2.1973517716535431
 31
0
  0
LINE
  5
1FD
330
1A
100
AcDbEntity
  8
BLACK
  6
CONTINUOUS
100
AcDbLine
 10
5.2779921259842517
 20
2.1973517716535431
 30
0
 11
5.2779921259842517
 21
2.2327848425196848
 31
0
  0
LINE
  5
1FE
330
1A
100
AcDbEntity
  8
BLACK
  6
CONTINUOUS
100
AcDbLine
 10
5.2779921259842517
 20
2.2327848425196848
 30
0
 11
5.3173622047244091
 21
2.2327848425196848
 31
0
  0
LINE
  5
1FF
330
1A
100
AcDbEntity
  8
BLACK
  6
CONTINUOUS
100
AcDbLine
 10
5.3173622047244091
 20
2.2327848425196848
 30
0
 11
5.3173622047244091
 21
2.1973517716535431
 31
0
  0
LINE
  5
200
330
1A
100
AcDbEntity
  8
BLACK
  6
CONTINUOUS
100
AcDbLine
 10
5.182841377952756
 20
2.283518031496063
 30
0
 11
5.1860345275590554
 21
2.2813844488188977
 31
0
  0
LINE
  5
201
330
1A
100
AcDbEntity
  8
BLACK
  6
CONTINUOUS
100
AcDbLine
 10
5.1860345275590554
 20
2.2813844488188977
 30
0
 11
5.1881681102362203
 21
2.2781912992125983
 31
0
  0
LINE
  5
202
330
1A
100
AcDbEntity
  8
BLACK
  6
CONTINUOUS
100
AcDbLine
 10
5.1881681102362203
 20
2.2781912992125983
 30
0
 11
5.1889173228346452
 21
2.2744247244094487
 31
0
  0
LINE
  5
203
330
1A
100
AcDbEntity
  8
BLACK
  6
CONTINUOUS
100
AcDbLine
 10
5.1889173228346452
 20
2.2744247244094487
 30
0
 11
5.1889173228346452
 21
2.238991653543307
 31
0
  0
LINE
  5
204
330
1A
100
AcDbEntity
  8
BLACK
  6
CONTINUOUS
100
AcDbLine
 10
5.1889173228346452
 20
2.238991653543307
 30
0
 11
5.1881681102362203
 21
2.2352250787401573
 31
0
  0
LINE
  5
205
330
1A
100
AcDbEntity
  8
BLACK
  6
CONTINUOUS
100
AcDbLine
 10
5.1881681102362203
 20
2.2352250787401573
 30
0
 11
5.1860345275590554
 21
2.2320319291338584
 31
0
  0
LINE
  5
206
330
1A
100
AcDbEntity
  8
BLACK
  6
CONTINUOUS
100
AcDbLine
 10
5.1860345275590554
 20
2.2320319291338584
 30
0
 11
5.182841377952756
 21
2.229898346456693
 31
0
  0
LINE
  5
207
330
1A
100
AcDbEntity
  8
BLACK
  6
CONTINUOUS
100
AcDbLine
 10
5.182841377952756
 20
2.229898346456693
 30
0
 11
5.1790748031496063
 21
2.2291491338582676
 31
0
  0
LINE
  5
208
330
1A
100
AcDbEntity
  8
BLACK
  6
CONTINUOUS
100
AcDbLine
 10
5.1790748031496063
 20
2.2291491338582676
 30
0
 11
5.1584055118110239
 21
2.2291491338582676
 31
0
  0
LINE
  5
209
330
1A
100
AcDbEntity
  8
BLACK
  6
CONTINUOUS
100
AcDbLine
 10
5.1584055118110239
 20
2.2291491338582676
 30
0
 11
5.1546389370078742
 21
2.229898346456693
 31
0
  0
LINE
  5
20A
330
1A
100
AcDbEntity
  8
BLACK
  6
CONTINUOUS
100
AcDbLine
 10
5.1546389370078742
 20
2.229898346456693
 30
0
 11
5.1514457874015749
 21
2.2320319291338584
 31
0
  0
LINE
  5
20B
330
1A
100
AcDbEntity
  8
BLACK
  6
CONTINUOUS
100
AcDbLine
 10
5.1514457874015749
 20
2.2320319291338584
 30
0
 11
5.1493122047244091
 21
2.2352250787401573
 31
0
  0
LINE
  5
20C
330
1A
100
AcDbEntity
  8
BLACK
  6
CONTINUOUS
100
AcDbLine
 10
5.1493122047244091
 20
2.2352250787401573
 30
0
 11
5.1485629921259841
 21
2.238991653543307
 31
0
  0
LINE
  5
20D
330
1A
100
AcDbEntity
  8
BLACK
  6
CONTINUOUS
100
AcDbLine
 10
5.1485629921259841
 20
2.238991653543307
 30
0
 11
5.1485629921259841
 21
2.2744247244094487
 31
0
  0
LINE
  5
20E
330
1A
100
AcDbEntity
  8
BLACK
  6
CONTINUOUS
100
AcDbLine
 10
5.1485629921259841
 20
2.2744247244094487
 30
0
 11
5.1493122047244091
 21
2.2781912992125983
 31
0
  0
LINE
  5
20F
330
1A
100
AcDbEntity
  8
BLACK
  6
CONTINUOUS
100
AcDbLine
 10
5.1493122047244091
 20
2.2781912992125983
 30
0
 11
5.1514457874015749
 21
2.2813844488188977
 31
0
  0
LINE
  5
210
330
1A
100
AcDbEntity
  8
BLACK
  6
CONTINUOUS
100
AcDbLine
 10
5.1514457874015749
 20
2.2813844488188977
 30
0
 11
5.1546389370078742
 21
2.283518031496063
 31
0
  0
LINE
  5
211
330
1A
100
AcDbEntity
  8
BLACK
  6
CONTINUOUS
100
AcDbLine
 10
5.1546389370078742
 20
2.283518031496063
 30
0
 11
5.1584055118110239
 21
2.284267244094488
 31
0
  0
LINE
  5
212
330
1A
100
AcDbEntity
  8
BLACK
  6
CONTINUOUS
100
AcDbLine
 10
5.1584055118110239
 20
2.284267244094488
 30
0
 11
5.1790748031496063
 21
2.284267244094488
 31
0
  0
LINE
  5
213
330
1A
100
AcDbEntity
  8
BLACK
  6
CONTINUOUS
100
AcDbLine
 10
5.1790748031496063
 20
2.284267244094488
 30
0
 11
5.182841377952756
 21
2.283518031496063
 31
0
  0
LINE
  5
214
330
1A
100
AcDbEntity
  8
BLACK
  6
CONTINUOUS
100
AcDbLine
 10
5.2546917716535431
 20
2.283518031496063
 30
0
 11
5.2578849212598424
 21
2.2813844488188977
 31
0
  0
LINE
  5
215
330
1A
100
AcDbEntity
  8
BLACK
  6
CONTINUOUS
100
AcDbLine
 10
5.2578849212598424
 20
2.2813844488188977
 30
0
 11
5.2600185039370073
 21
2.2781912992125983
 31
0
  0
LINE
  5
216
330
1A
100
AcDbEntity
  8
BLACK
  6
CONTINUOUS
100
AcDbLine
 10
5.2600185039370073
 20
2.2781912992125983
 30
0
 11
5.2607677165354332
 21
2.2744247244094487
 31
0
  0
LINE
  5
217
330
1A
100
AcDbEntity
  8
BLACK
  6
CONTINUOUS
100
AcDbLine
 10
5.2607677165354332
 20
2.2744247244094487
 30
0
 11
5.2607677165354332
 21
2.238991653543307
 31
0
  0
LINE
  5
218
330
1A
100
AcDbEntity
  8
BLACK
  6
CONTINUOUS
100
AcDbLine
 10
5.2607677165354332
 20
2.238991653543307
 30
0
 11
5.2600185039370073
 21
2.2352250787401573
 31
0
  0
LINE
  5
219
330
1A
100
AcDbEntity
  8
BLACK
  6
CONTINUOUS
100
AcDbLine
 10
5.2600185039370073
 20
2.2352250787401573
 30
0
 11
5.2578849212598424
 21
2.2320319291338584
 31
0
  0
LINE
  5
21A
330
1A
100
AcDbEntity
  8
BLACK
  6
CONTINUOUS
100
AcDbLine
 10
5.2578849212598424
 20
2.2320319291338584
 30
0
 11
5.2546917716535431
 21
2.229898346456693
 31
0
  0
LINE
  5
21B
330
1A
100
AcDbEntity
  8
BLACK
  6
CONTINUOUS
100
AcDbLine
 10
5.2546917716535431
 20
2.229898346456693
 30
0
 11
5.2509251968503934
 21
2.2291491338582676
 31
0
  0
LINE
  5
21C
330
1A
100
AcDbEntity
  8
BLACK
  6
CONTINUOUS
100
AcDbLine
 10
5.2509251968503934
 20
2.2291491338582676
 30
0
 11
5.230255905511811
 21
2.2291491338582676
 31
0
  0
LINE
  5
21D
330
1A
100
AcDbEntity
  8
BLACK
  6
CONTINUOUS
100
AcDbLine
 10
5.230255905511811
 20
2.2291491338582676
 30
0
 11
5.2264893307086613
 21
2.229898346456693
 31
0
  0
LINE
  5
21E
330
1A
100
AcDbEntity
  8
BLACK
  6
CONTINUOUS
100
AcDbLine
 10
5.2264893307086613
 20
2.229898346456693
 30
0
 11
5.2232961811023619
 21
2.2320319291338584
 31
0
  0
LINE
  5
21F
330
1A
100
AcDbEntity
  8
BLACK
  6
CONTINUOUS
100
AcDbLine
 10
5.2232961811023619
 20
2.2320319291338584
 30
0
 11
5.221162598425197
 21
2.2352250787401573
 31
0
  0
LINE
  5
220
330
1A
100
AcDbEntity
  8
BLACK
  6
CONTINUOUS
100
AcDbLine
 10
5.221162598425197
 20
2.2352250787401573
 30
0
 11
5.2204133858267712
 21
2.238991653543307
 31
0
  0
LINE
  5
221
330
1A
100
AcDbEntity
  8
BLACK
  6
CONTINUOUS
100
AcDbLine
 10
5.2204133858267712
 20
2.238991653543307
 30
0
 11
5.2204133858267712
 21
2.2744247244094487
 31
0
  0
LINE
  5
222
330
1A
100
AcDbEntity
  8
BLACK
  6
CONTINUOUS
100
AcDbLine
 10
5.2204133858267712
 20
2.2744247244094487
 30
0
 11
5.221162598425197
 21
2.2781912992125983
 31
0
  0
LINE
  5
223
330
1A
100
AcDbEntity
  8
BLACK
  6
CONTINUOUS
100
AcDbLine
 10
5.221162598425197
 20
2.2781912992125983
 30
0
 11
5.2232961811023619
 21
2.2813844488188977
 31
0
  0
LINE
  5
224
330
1A
100
AcDbEntity
  8
BLACK
  6
CONTINUOUS
100
AcDbLine
 10
5.2232961811023619
 20
2.2813844488188977
 30
0
 11
5.2264893307086613
 21
2.283518031496063
 31
0
  0
LINE
  5
225
330
1A
100
AcDbEntity
  8
BLACK
  6
CONTINUOUS
100
AcDbLine
 10
5.2264893307086613
 20
2.283518031496063
 30
0
 11
5.230255905511811
 21
2.284267244094488
 31
0
  0
LINE
  5
226
330
1A
100
AcDbEntity
  8
BLACK
  6
CONTINUOUS
100
AcDbLine
 10
5.230255905511811
 20
2.284267244094488
 30
0
 11
5.2509251968503934
 21
2.284267244094488
 31
0
  0
LINE
  5
227
330
1A
100
AcDbEntity
  8
BLACK
  6
CONTINUOUS
100
AcDbLine
 10
5.2509251968503934
 20
2.284267244094488
 30
0
 11
5.2546917716535431
 21
2.283518031496063
 31
0
  0
LINE
  5
228
330
1A
100
AcDbEntity
  8
BLACK
  6
CONTINUOUS
100
AcDbLine
 10
5.3173622047244091
 20
2.2433103149606297
 30
0
 11
5.2779921259842517
 21
2.2433103149606297
 31
0
  0
LINE
  5
229
330
1A
100
AcDbEntity
  8
BLACK
  6
CONTINUOUS
100
AcDbLine
 10
5.2779921259842517
 20
2.2433103149606297
 30
0
 11
5.2779921259842517
 21
2.2787433858267714
 31
0
  0
LINE
  5
22A
330
1A
100
AcDbEntity
  8
BLACK
  6
CONTINUOUS
100
AcDbLine
 10
5.2779921259842517
 20
2.2787433858267714
 30
0
 11
5.3173622047244091
 21
2.2787433858267714
 31
0
  0
LINE
  5
22B
330
1A
100
AcDbEntity
  8
BLACK
  6
CONTINUOUS
100
AcDbLine
 10
5.3173622047244091
 20
2.2787433858267714
 30
0
 11
5.3173622047244091
 21
2.2433103149606297
 31
0
  0
LINE
  5
22C
330
1A
100
AcDbEntity
  8
BLACK
  6
CONTINUOUS
100
AcDbLine
 10
5.3173622047244091
 20
2.306302440944882
 30
0
 11
5.2779921259842517
 21
2.306302440944882
 31
0
  0
LINE
  5
22D
330
1A
100
AcDbEntity
  8
BLACK
  6
CONTINUOUS
100
AcDbLine
 10
5.2779921259842517
 20
2.306302440944882
 30
0
 11
5.2779921259842517
 21
2.3417355118110237
 31
0
  0
LINE
  5
22E
330
1A
100
AcDbEntity
  8
BLACK
  6
CONTINUOUS
100
AcDbLine
 10
5.2779921259842517
 20
2.3417355118110237
 30
0
 11
5.3173622047244091
 21
2.3417355118110237
 31
0
  0
LINE
  5
22F
330
1A
100
AcDbEntity
  8
BLACK
  6
CONTINUOUS
100
AcDbLine
 10
5.3173622047244091
 20
2.3417355118110237
 30
0
 11
5.3173622047244091
 21
2.306302440944882
 31
0
  0
LINE
  5
230
330
1A
100
AcDbEntity
  8
BLACK
  6
CONTINUOUS
100
AcDbLine
 10
5.182841377952756
 20
2.3612739370078741
 30
0
 11
5.1860345275590554
 21
2.3591403543307088
 31
0
  0
LINE
  5
231
330
1A
100
AcDbEntity
  8
BLACK
  6
CONTINUOUS
100
AcDbLine
 10
5.1860345275590554
 20
2.3591403543307088
 30
0
 11
5.1881681102362203
 21
2.3559472047244094
 31
0
  0
LINE
  5
232
330
1A
100
AcDbEntity
  8
BLACK
  6
CONTINUOUS
100
AcDbLine
 10
5.1881681102362203
 20
2.3559472047244094
 30
0
 11
5.1889173228346452
 21
2.3521806299212598
 31
0
  0
LINE
  5
233
330
1A
100
AcDbEntity
  8
BLACK
  6
CONTINUOUS
100
AcDbLine
 10
5.1889173228346452
 20
2.3521806299212598
 30
0
 11
5.1889173228346452
 21
2.3167475590551181
 31
0
  0
LINE
  5
234
330
1A
100
AcDbEntity
  8
BLACK
  6
CONTINUOUS
100
AcDbLine
 10
5.1889173228346452
 20
2.3167475590551181
 30
0
 11
5.1881681102362203
 21
2.3129809842519684
 31
0
  0
LINE
  5
235
330
1A
100
AcDbEntity
  8
BLACK
  6
CONTINUOUS
100
AcDbLine
 10
5.1881681102362203
 20
2.3129809842519684
 30
0
 11
5.1860345275590554
 21
2.3097878346456691
 31
0
  0
LINE
  5
236
330
1A
100
AcDbEntity
  8
BLACK
  6
CONTINUOUS
100
AcDbLine
 10
5.1860345275590554
 20
2.3097878346456691
 30
0
 11
5.182841377952756
 21
2.3076542519685037
 31
0
  0
LINE
  5
237
330
1A
100
AcDbEntity
  8
BLACK
  6
CONTINUOUS
100
AcDbLine
 10
5.182841377952756
 20
2.3076542519685037
 30
0
 11
5.1790748031496063
 21
2.3069050393700787
 31
0
  0
LINE
  5
238
330
1A
100
AcDbEntity
  8
BLACK
  6
CONTINUOUS
100
AcDbLine
 10
5.1790748031496063
 20
2.3069050393700787
 30
0
 11
5.1584055118110239
 21
2.3069050393700787
 31
0
  0
LINE
  5
239
330
1A
100
AcDbEntity
  8
BLACK
  6
CONTINUOUS
100
AcDbLine
 10
5.1584055118110239
 20
2.3069050393700787
 30
0
 11
5.1546389370078742
 21
2.3076542519685037
 31
0
  0
LINE
  5
23A
330
1A
100
AcDbEntity
  8
BLACK
  6
CONTINUOUS
100
AcDbLine
 10
5.1546389370078742
 20
2.3076542519685037
 30
0
 11
5.1514457874015749
 21
2.3097878346456691
 31
0
  0
LINE
  5
23B
330
1A
100
AcDbEntity
  8
BLACK
  6
CONTINUOUS
100
AcDbLine
 10
5.1514457874015749
 20
2.3097878346456691
 30
0
 11
5.1493122047244091
 21
2.3129809842519684
 31
0
  0
LINE
  5
23C
330
1A
100
AcDbEntity
  8
BLACK
  6
CONTINUOUS
100
AcDbLine
 10
5.1493122047244091
 20
2.3129809842519684
 30
0
 11
5.1485629921259841
 21
2.3167475590551181
 31
0
  0
LINE
  5
23D
330
1A
100
AcDbEntity
  8
BLACK
  6
CONTINUOUS
100
AcDbLine
 10
5.1485629921259841
 20
2.3167475590551181
 30
0
 11
5.1485629921259841
 21
2.3521806299212598
 31
0
  0
LINE
  5
23E
330
1A
100
AcDbEntity
  8
BLACK
  6
CONTINUOUS
100
AcDbLine
 10
5.1485629921259841
 20
2.3521806299212598
 30
0
 11
5.1493122047244091
 21
2.3559472047244094
 31
0
  0
LINE
  5
23F
330
1A
100
AcDbEntity
  8
BLACK
  6
CONTINUOUS
100
AcDbLine
 10
5.1493122047244091
 20
2.3559472047244094
 30
0
 11
5.1514457874015749
 21
2.3591403543307088
 31
0
  0
LINE
  5
240
330
1A
100
AcDbEntity
  8
BLACK
  6
CONTINUOUS
100
AcDbLine
 10
5.1514457874015749
 20
2.3591403543307088
 30
0
 11
5.1546389370078742
 21
2.3612739370078741
 31
0
  0
LINE
  5
241
330
1A
100
AcDbEntity
  8
BLACK
  6
CONTINUOUS
100
AcDbLine
 10
5.1546389370078742
 20
2.3612739370078741
 30
0
 11
5.1584055118110239
 21
2.3620231496062991
 31
0
  0
LINE
  5
242
330
1A
100
AcDbEntity
  8
BLACK
  6
CONTINUOUS
100
AcDbLine
 10
5.1584055118110239
 20
2.3620231496062991
 30
0
 11
5.1790748031496063
 21
2.3620231496062991
 31
0
  0
LINE
  5
243
330
1A
100
AcDbEntity
  8
BLACK
  6
CONTINUOUS
100
AcDbLine
 10
5.1790748031496063
 20
2.3620231496062991
 30
0
 11
5.182841377952756
 21
2.3612739370078741
 31
0
  0
LINE
  5
244
330
1A
100
AcDbEntity
  8
BLACK
  6
CONTINUOUS
100
AcDbLine
 10
5.2546917716535431
 20
2.3612739370078741
 30
0
 11
5.2578849212598424
 21
2.3591403543307088
 31
0
  0
LINE
  5
245
330
1A
100
AcDbEntity
  8
BLACK
  6
CONTINUOUS
100
AcDbLine
 10
5.2578849212598424
 20
2.3591403543307088
 30
0
 11
5.2600185039370073
 21
2.3559472047244094
 31
0
  0
LINE
  5
246
330
1A
100
AcDbEntity
  8
BLACK
  6
CONTINUOUS
100
AcDbLine
 10
5.2600185039370073
 20
2.3559472047244094
 30
0
 11
5.2607677165354332
 21
2.3521806299212598
 31
0
  0
LINE
  5
247
330
1A
100
AcDbEntity
  8
BLACK
  6
CONTINUOUS
100
AcDbLine
 10
5.2607677165354332
 20
2.3521806299212598
 30
0
 11
5.2607677165354332
 21
2.3167475590551181
 31
0
  0
LINE
  5
248
330
1A
100
AcDbEntity
  8
BLACK
  6
CONTINUOUS
100
AcDbLine
 10
5.2607677165354332
 20
2.3167475590551181
 30
0
 11
5.2600185039370073
 21
2.3129809842519684
 31
0
  0
LINE
  5
249
330
1A
100
AcDbEntity
  8
BLACK
  6
CONTINUOUS
100
AcDbLine
 10
5.2600185039370073
 20
2.3129809842519684
 30
0
 11
5.2578849212598424
 21
2.3097878346456691
 31
0
  0
LINE
  5
24A
330
1A
100
AcDbEntity
  8
BLACK
  6
CONTINUOUS
100
AcDbLine
 10
5.2578849212598424
 20
2.3097878346456691
 30
0
 11
5.2546917716535431
 21
2.3076542519685037
 31
0
  0
LINE
  5
24B
330
1A
100
AcDbEntity
  8
BLACK
  6
CONTINUOUS
100
AcDbLine
 10
5.2546917716535431
 20
2.3076542519685037
 30
0
 11
5.2509251968503934
 21
2.3069050393700787
 31
0
  0
LINE
  5
24C
330
1A
100
AcDbEntity
  8
BLACK
  6
CONTINUOUS
100
AcDbLine
 10
5.2509251968503934
 20
2.3069050393700787
 30
0
 11
5.230255905511811
 21
2.3069050393700787
 31
0
  0
LINE
  5
24D
330
1A
100
AcDbEntity
  8
BLACK
  6
CONTINUOUS
100
AcDbLine
 10
5.230255905511811
 20
2.3069050393700787
 30
0
 11
5.2264893307086613
 21
2.3076542519685037
 31
0
  0
LINE
  5
24E
330
1A
100
AcDbEntity
  8
BLACK
  6
CONTINUOUS
100
AcDbLine
 10
5.2264893307086613
 20
2.3076542519685037
 30
0
 11
5.2232961811023619
 21
2.3097878346456691
 31
0
  0
LINE
  5
24F
330
1A
100
AcDbEntity
  8
BLACK
  6
CONTINUOUS
100
AcDbLine
 10
5.2232961811023619
 20
2.3097878346456691
 30
0
 11
5.221162598425197
 21
2.3129809842519684
 31
0
  0
LINE
  5
250
330
1A
100
AcDbEntity
  8
BLACK
  6
CONTINUOUS
100
AcDbLine
 10
5.221162598425197
 20
2.3129809842519684
 30
0
 11
5.2204133858267712
 21
2.3167475590551181
 31
0
  0
LINE
  5
251
330
1A
100
AcDbEntity
  8
BLACK
  6
CONTINUOUS
100
AcDbLine
 10
5.2204133858267712
 20
2.3167475590551181
 30
0
 11
5.2204133858267712
 21
2.3521806299212598
 31
0
  0
LINE
  5
252
330
1A
100
AcDbEntity
  8
BLACK
  6
CONTINUOUS
100
AcDbLine
 10
5.2204133858267712
 20
2.3521806299212598
 30
0
 11
5.221162598425197
 21
2.3559472047244094
 31
0
  0
LINE
  5
253
330
1A
100
AcDbEntity
  8
BLACK
  6
CONTINUOUS
100
AcDbLine
 10
5.221162598425197
 20
2.3559472047244094
 30
0
 11
5.2232961811023619
 21
2.3591403543307088
 31
0
  0
LINE
  5
254
330
1A
100
AcDbEntity
  8
BLACK
  6
CONTINUOUS
100
AcDbLine
 10
5.2232961811023619
 20
2.3591403543307088
 30
0
 11
5.2264893307086613
 21
2.3612739370078741
 31
0
  0
LINE
  5
255
330
1A
100
AcDbEntity
  8
BLACK
  6
CONTINUOUS
100
AcDbLine
 10
5.2264893307086613
 20
2.3612739370078741
 30
0
 11
5.230255905511811
 21
2.3620231496062991
 31
0
  0
LINE
  5
256
330
1A
100
AcDbEntity
  8
BLACK
  6
CONTINUOUS
100
AcDbLine
 10
5.230255905511811
 20
2.3620231496062991
 30
0
 11
5.2509251968503934
 21
2.3620231496062991
 31
0
  0
LINE
  5
257
330
1A
100
AcDbEntity
  8
BLACK
  6
CONTINUOUS
100
AcDbLine
 10
5.2509251968503934
 20
2.3620231496062991
 30
0
 11
5.2546917716535431
 21
2.3612739370078741
 31
0
  0
LINE
  5
258
330
1A
100
AcDbEntity
  8
BLACK
  6
CONTINUOUS
100
AcDbLine
 10
3.0283138188976375
 20
2.3683846456692912
 30
0
 11
3.0315069685039369
 21
2.3662510629921258
 31
0
  0
LINE
  5
259
330
1A
100
AcDbEntity
  8
BLACK
  6
CONTINUOUS
100
AcDbLine
 10
3.0315069685039369
 20
2.3662510629921258
 30
0
 11
3.0336405511811022
 21
2.3630579133858269
 31
0
  0
LINE
  5
25A
330
1A
100
AcDbEntity
  8
BLACK
  6
CONTINUOUS
100
AcDbLine
 10
3.0336405511811022
 20
2.3630579133858269
 30
0
 11
3.0343897637795276
 21
2.3592913385826773
 31
0
  0
LINE
  5
25B
330
1A
100
AcDbEntity
  8
BLACK
  6
CONTINUOUS
100
AcDbLine
 10
3.0343897637795276
 20
2.3592913385826773
 30
0
 11
3.0343897637795276
 21
2.3238582677165356
 31
0
  0
LINE
  5
25C
330
1A
100
AcDbEntity
  8
BLACK
  6
CONTINUOUS
100
AcDbLine
 10
3.0343897637795276
 20
2.3238582677165356
 30
0
 11
3.0336405511811022
 21
2.3200916929133859
 31
0
  0
LINE
  5
25D
330
1A
100
AcDbEntity
  8
BLACK
  6
CONTINUOUS
100
AcDbLine
 10
3.0336405511811022
 20
2.3200916929133859
 30
0
 11
3.0315069685039369
 21
2.3168985433070866
 31
0
  0
LINE
  5
25E
330
1A
100
AcDbEntity
  8
BLACK
  6
CONTINUOUS
100
AcDbLine
 10
3.0315069685039369
 20
2.3168985433070866
 30
0
 11
3.0283138188976375
 21
2.3147649606299212
 31
0
  0
LINE
  5
25F
330
1A
100
AcDbEntity
  8
BLACK
  6
CONTINUOUS
100
AcDbLine
 10
3.0283138188976375
 20
2.3147649606299212
 30
0
 11
3.0245472440944883
 21
2.3140157480314958
 31
0
  0
LINE
  5
260
330
1A
100
AcDbEntity
  8
BLACK
  6
CONTINUOUS
100
AcDbLine
 10
3.0245472440944883
 20
2.3140157480314958
 30
0
 11
3.0038779527559054
 21
2.3140157480314958
 31
0
  0
LINE
  5
261
330
1A
100
AcDbEntity
  8
BLACK
  6
CONTINUOUS
100
AcDbLine
 10
3.0038779527559054
 20
2.3140157480314958
 30
0
 11
3.0001113779527557
 21
2.3147649606299212
 31
0
  0
LINE
  5
262
330
1A
100
AcDbEntity
  8
BLACK
  6
CONTINUOUS
100
AcDbLine
 10
3.0001113779527557
 20
2.3147649606299212
 30
0
 11
2.9969182283464568
 21
2.3168985433070866
 31
0
  0
LINE
  5
263
330
1A
100
AcDbEntity
  8
BLACK
  6
CONTINUOUS
100
AcDbLine
 10
2.9969182283464568
 20
2.3168985433070866
 30
0
 11
2.9947846456692915
 21
2.3200916929133859
 31
0
  0
LINE
  5
264
330
1A
100
AcDbEntity
  8
BLACK
  6
CONTINUOUS
100
AcDbLine
 10
2.9947846456692915
 20
2.3200916929133859
 30
0
 11
2.9940354330708661
 21
2.3238582677165356
 31
0
  0
LINE
  5
265
330
1A
100
AcDbEntity
  8
BLACK
  6
CONTINUOUS
100
AcDbLine
 10
2.9940354330708661
 20
2.3238582677165356
 30
0
 11
2.9940354330708661
 21
2.3592913385826773
 31
0
  0
LINE
  5
266
330
1A
100
AcDbEntity
  8
BLACK
  6
CONTINUOUS
100
AcDbLine
 10
2.9940354330708661
 20
2.3592913385826773
 30
0
 11
2.9947846456692915
 21
2.3630579133858269
 31
0
  0
LINE
  5
267
330
1A
100
AcDbEntity
  8
BLACK
  6
CONTINUOUS
100
AcDbLine
 10
2.9947846456692915
 20
2.3630579133858269
 30
0
 11
2.9969182283464568
 21
2.3662510629921258
 31
0
  0
LINE
  5
268
330
1A
100
AcDbEntity
  8
BLACK
  6
CONTINUOUS
100
AcDbLine
 10
2.9969182283464568
 20
2.3662510629921258
 30
0
 11
3.0001113779527557
 21
2.3683846456692912
 31
0
  0
LINE
  5
269
330
1A
100
AcDbEntity
  8
BLACK
  6
CONTINUOUS
100
AcDbLine
 10
3.0001113779527557
 20
2.3683846456692912
 30
0
 11
3.0038779527559054
 21
2.3691338582677166
 31
0
  0
LINE
  5
26A
330
1A
100
AcDbEntity
  8
BLACK
  6
CONTINUOUS
100
AcDbLine
 10
3.0038779527559054
 20
2.3691338582677166
 30
0
 11
3.0245472440944883
 21
2.3691338582677166
 31
0
  0
LINE
  5
26B
330
1A
100
AcDbEntity
  8
BLACK
  6
CONTINUOUS
100
AcDbLine
 10
3.0245472440944883
 20
2.3691338582677166
 30
0
 11
3.0283138188976375
 21
2.3683846456692912
 31
0
  0
LINE
  5
26C
330
1A
100
AcDbEntity
  8
BLACK
  6
CONTINUOUS
100
AcDbLine
 10
3.100164212598425
 20
2.3683846456692912
 30
0
 11
3.1033573622047244
 21
2.3662510629921258
 31
0
  0
LINE
  5
26D
330
1A
100
AcDbEntity
  8
BLACK
  6
CONTINUOUS
100
AcDbLine
 10
3.1033573622047244
 20
2.3662510629921258
 30
0
 11
3.1054909448818897
 21
2.3630579133858269
 31
0
  0
LINE
  5
26E
330
1A
100
AcDbEntity
  8
BLACK
  6
CONTINUOUS
100
AcDbLine
 10
3.1054909448818897
 20
2.3630579133858269
 30
0
 11
3.1062401574803147
 21
2.3592913385826773
 31
0
  0
LINE
  5
26F
330
1A
100
AcDbEntity
  8
BLACK
  6
CONTINUOUS
100
AcDbLine
 10
3.1062401574803147
 20
2.3592913385826773
 30
0
 11
3.1062401574803147
 21
2.3238582677165356
 31
0
  0
LINE
  5
270
330
1A
100
AcDbEntity
  8
BLACK
  6
CONTINUOUS
100
AcDbLine
 10
3.1062401574803147
 20
2.3238582677165356
 30
0
 11
3.1054909448818897
 21
2.3200916929133859
 31
0
  0
LINE
  5
271
330
1A
100
AcDbEntity
  8
BLACK
  6
CONTINUOUS
100
AcDbLine
 10
3.1054909448818897
 20
2.3200916929133859
 30
0
 11
3.1033573622047244
 21
2.3168985433070866
 31
0
  0
LINE
  5
272
330
1A
100
AcDbEntity
  8
BLACK
  6
CONTINUOUS
100
AcDbLine
 10
3.1033573622047244
 20
2.3168985433070866
 30
0
 11
3.100164212598425
 21
2.3147649606299212
 31
0
  0
LINE
  5
273
330
1A
100
AcDbEntity
  8
BLACK
  6
CONTINUOUS
100
AcDbLine
 10
3.100164212598425
 20
2.3147649606299212
 30
0
 11
3.0963976377952753
 21
2.3140157480314958
 31
0
  0
LINE
  5
274
330
1A
100
AcDbEntity
  8
BLACK
  6
CONTINUOUS
100
AcDbLine
 10
3.0963976377952753
 20
2.3140157480314958
 30
0
 11
3.0757283464566929
 21
2.3140157480314958
 31
0
  0
LINE
  5
275
330
1A
100
AcDbEntity
  8
BLACK
  6
CONTINUOUS
100
AcDbLine
 10
3.0757283464566929
 20
2.3140157480314958
 30
0
 11
3.0719617716535432
 21
2.3147649606299212
 31
0
  0
LINE
  5
276
330
1A
100
AcDbEntity
  8
BLACK
  6
CONTINUOUS
100
AcDbLine
 10
3.0719617716535432
 20
2.3147649606299212
 30
0
 11
3.0687686220472439
 21
2.3168985433070866
 31
0
  0
LINE
  5
277
330
1A
100
AcDbEntity
  8
BLACK
  6
CONTINUOUS
100
AcDbLine
 10
3.0687686220472439
 20
2.3168985433070866
 30
0
 11
3.0666350393700785
 21
2.3200916929133859
 31
0
  0
LINE
  5
278
330
1A
100
AcDbEntity
  8
BLACK
  6
CONTINUOUS
100
AcDbLine
 10
3.0666350393700785
 20
2.3200916929133859
 30
0
 11
3.0658858267716536
 21
2.3238582677165356
 31
0
  0
LINE
  5
279
330
1A
100
AcDbEntity
  8
BLACK
  6
CONTINUOUS
100
AcDbLine
 10
3.0658858267716536
 20
2.3238582677165356
 30
0
 11
3.0658858267716536
 21
2.3592913385826773
 31
0
  0
LINE
  5
27A
330
1A
100
AcDbEntity
  8
BLACK
  6
CONTINUOUS
100
AcDbLine
 10
3.0658858267716536
 20
2.3592913385826773
 30
0
 11
3.0666350393700785
 21
2.3630579133858269
 31
0
  0
LINE
  5
27B
330
1A
100
AcDbEntity
  8
BLACK
  6
CONTINUOUS
100
AcDbLine
 10
3.0666350393700785
 20
2.3630579133858269
 30
0
 11
3.0687686220472439
 21
2.3662510629921258
 31
0
  0
LINE
  5
27C
330
1A
100
AcDbEntity
  8
BLACK
  6
CONTINUOUS
100
AcDbLine
 10
3.0687686220472439
 20
2.3662510629921258
 30
0
 11
3.0719617716535432
 21
2.3683846456692912
 31
0
  0
LINE
  5
27D
330
1A
100
AcDbEntity
  8
BLACK
  6
CONTINUOUS
100
AcDbLine
 10
3.0719617716535432
 20
2.3683846456692912
 30
0
 11
3.0757283464566929
 21
2.3691338582677166
 31
0
  0
LINE
  5
27E
330
1A
100
AcDbEntity
  8
BLACK
  6
CONTINUOUS
100
AcDbLine
 10
3.0757283464566929
 20
2.3691338582677166
 30
0
 11
3.0963976377952753
 21
2.3691338582677166
 31
0
  0
LINE
  5
27F
330
1A
100
AcDbEntity
  8
BLACK
  6
CONTINUOUS
100
AcDbLine
 10
3.0963976377952753
 20
2.3691338582677166
 30
0
 11
3.100164212598425
 21
2.3683846456692912
 31
0
  0
LINE
  5
280
330
1A
100
AcDbEntity
  8
BLACK
  6
CONTINUOUS
100
AcDbLine
 10
5.3173622047244091
 20
2.3522610236220474
 30
0
 11
5.2779921259842517
 21
2.3522610236220474
 31
0
  0
LINE
  5
281
330
1A
100
AcDbEntity
  8
BLACK
  6
CONTINUOUS
100
AcDbLine
 10
5.2779921259842517
 20
2.3522610236220474
 30
0
 11
5.2779921259842517
 21
2.387694094488189
 31
0
  0
LINE
  5
282
330
1A
100
AcDbEntity
  8
BLACK
  6
CONTINUOUS
100
AcDbLine
 10
5.2779921259842517
 20
2.387694094488189
 30
0
 11
5.3173622047244091
 21
2.387694094488189
 31
0
  0
LINE
  5
283
330
1A
100
AcDbEntity
  8
BLACK
  6
CONTINUOUS
100
AcDbLine
 10
5.3173622047244091
 20
2.387694094488189
 30
0
 11
5.3173622047244091
 21
2.3522610236220474
 31
0
  0
LINE
  5
284
330
1A
100
AcDbEntity
  8
BLACK
  6
CONTINUOUS
100
AcDbLine
 10
5.182841377952756
 20
2.4380455905511811
 30
0
 11
5.1860345275590554
 21
2.4359120078740157
 31
0
  0
LINE
  5
285
330
1A
100
AcDbEntity
  8
BLACK
  6
CONTINUOUS
100
AcDbLine
 10
5.1860345275590554
 20
2.4359120078740157
 30
0
 11
5.1881681102362203
 21
2.4327188582677164
 31
0
  0
LINE
  5
286
330
1A
100
AcDbEntity
  8
BLACK
  6
CONTINUOUS
100
AcDbLine
 10
5.1881681102362203
 20
2.4327188582677164
 30
0
 11
5.1889173228346452
 21
2.4289522834645667
 31
0
  0
LINE
  5
287
330
1A
100
AcDbEntity
  8
BLACK
  6
CONTINUOUS
100
AcDbLine
 10
5.1889173228346452
 20
2.4289522834645667
 30
0
 11
5.1889173228346452
 21
2.393519212598425
 31
0
  0
LINE
  5
288
330
1A
100
AcDbEntity
  8
BLACK
  6
CONTINUOUS
100
AcDbLine
 10
5.1889173228346452
 20
2.393519212598425
 30
0
 11
5.1881681102362203
 21
2.3897526377952754
 31
0
  0
LINE
  5
289
330
1A
100
AcDbEntity
  8
BLACK
  6
CONTINUOUS
100
AcDbLine
 10
5.1881681102362203
 20
2.3897526377952754
 30
0
 11
5.1860345275590554
 21
2.3865594881889765
 31
0
  0
LINE
  5
28A
330
1A
100
AcDbEntity
  8
BLACK
  6
CONTINUOUS
100
AcDbLine
 10
5.1860345275590554
 20
2.3865594881889765
 30
0
 11
5.182841377952756
 21
2.3844259055118111
 31
0
  0
LINE
  5
28B
330
1A
100
AcDbEntity
  8
BLACK
  6
CONTINUOUS
100
AcDbLine
 10
5.182841377952756
 20
2.3844259055118111
 30
0
 11
5.1790748031496063
 21
2.3836766929133857
 31
0
  0
LINE
  5
28C
330
1A
100
AcDbEntity
  8
BLACK
  6
CONTINUOUS
100
AcDbLine
 10
5.1790748031496063
 20
2.3836766929133857
 30
0
 11
5.1584055118110239
 21
2.3836766929133857
 31
0
  0
LINE
  5
28D
330
1A
100
AcDbEntity
  8
BLACK
  6
CONTINUOUS
100
AcDbLine
 10
5.1584055118110239
 20
2.3836766929133857
 30
0
 11
5.1546389370078742
 21
2.3844259055118111
 31
0
  0
LINE
  5
28E
330
1A
100
AcDbEntity
  8
BLACK
  6
CONTINUOUS
100
AcDbLine
 10
5.1546389370078742
 20
2.3844259055118111
 30
0
 11
5.1514457874015749
 21
2.3865594881889765
 31
0
  0
LINE
  5
28F
330
1A
100
AcDbEntity
  8
BLACK
  6
CONTINUOUS
100
AcDbLine
 10
5.1514457874015749
 20
2.3865594881889765
 30
0
 11
5.1493122047244091
 21
2.3897526377952754
 31
0
  0
LINE
  5
290
330
1A
100
AcDbEntity
  8
BLACK
  6
CONTINUOUS
100
AcDbLine
 10
5.1493122047244091
 20
2.3897526377952754
 30
0
 11
5.1485629921259841
 21
2.393519212598425
 31
0
  0
LINE
  5
291
330
1A
100
AcDbEntity
  8
BLACK
  6
CONTINUOUS
100
AcDbLine
 10
5.1485629921259841
 20
2.393519212598425
 30
0
 11
5.1485629921259841
 21
2.4289522834645667
 31
0
  0
LINE
  5
292
330
1A
100
AcDbEntity
  8
BLACK
  6
CONTINUOUS
100
AcDbLine
 10
5.1485629921259841
 20
2.4289522834645667
 30
0
 11
5.1493122047244091
 21
2.4327188582677164
 31
0
  0
LINE
  5
293
330
1A
100
AcDbEntity
  8
BLACK
  6
CONTINUOUS
100
AcDbLine
 10
5.1493122047244091
 20
2.4327188582677164
 30
0
 11
5.1514457874015749
 21
2.4359120078740157
 31
0
  0
LINE
  5
294
330
1A
100
AcDbEntity
  8
BLACK
  6
CONTINUOUS
100
AcDbLine
 10
5.1514457874015749
 20
2.4359120078740157
 30
0
 11
5.1546389370078742
 21
2.4380455905511811
 31
0
  0
LINE
  5
295
330
1A
100
AcDbEntity
  8
BLACK
  6
CONTINUOUS
100
AcDbLine
 10
5.1546389370078742
 20
2.4380455905511811
 30
0
 11
5.1584055118110239
 21
2.4387948031496061
 31
0
  0
LINE
  5
296
330
1A
100
AcDbEntity
  8
BLACK
  6
CONTINUOUS
100
AcDbLine
 10
5.1584055118110239
 20
2.4387948031496061
 30
0
 11
5.1790748031496063
 21
2.4387948031496061
 31
0
  0
LINE
  5
297
330
1A
100
AcDbEntity
  8
BLACK
  6
CONTINUOUS
100
AcDbLine
 10
5.1790748031496063
 20
2.4387948031496061
 30
0
 11
5.182841377952756
 21
2.4380455905511811
 31
0
  0
LINE
  5
298
330
1A
100
AcDbEntity
  8
BLACK
  6
CONTINUOUS
100
AcDbLine
 10
5.2546917716535431
 20
2.4380455905511811
 30
0
 11
5.2578849212598424
 21
2.4359120078740157
 31
0
  0
LINE
  5
299
330
1A
100
AcDbEntity
  8
BLACK
  6
CONTINUOUS
100
AcDbLine
 10
5.2578849212598424
 20
2.4359120078740157
 30
0
 11
5.2600185039370073
 21
2.4327188582677164
 31
0
  0
LINE
  5
29A
330
1A
100
AcDbEntity
  8
BLACK
  6
CONTINUOUS
100
AcDbLine
 10
5.2600185039370073
 20
2.4327188582677164
 30
0
 11
5.2607677165354332
 21
2.4289522834645667
 31
0
  0
LINE
  5
29B
330
1A
100
AcDbEntity
  8
BLACK
  6
CONTINUOUS
100
AcDbLine
 10
5.2607677165354332
 20
2.4289522834645667
 30
0
 11
5.2607677165354332
 21
2.393519212598425
 31
0
  0
LINE
  5
29C
330
1A
100
AcDbEntity
  8
BLACK
  6
CONTINUOUS
100
AcDbLine
 10
5.2607677165354332
 20
2.393519212598425
 30
0
 11
5.2600185039370073
 21
2.3897526377952754
 31
0
  0
LINE
  5
29D
330
1A
100
AcDbEntity
  8
BLACK
  6
CONTINUOUS
100
AcDbLine
 10
5.2600185039370073
 20
2.3897526377952754
 30
0
 11
5.2578849212598424
 21
2.3865594881889765
 31
0
  0
LINE
  5
29E
330
1A
100
AcDbEntity
  8
BLACK
  6
CONTINUOUS
100
AcDbLine
 10
5.2578849212598424
 20
2.3865594881889765
 30
0
 11
5.2546917716535431
 21
2.3844259055118111
 31
0
  0
LINE
  5
29F
330
1A
100
AcDbEntity
  8
BLACK
  6
CONTINUOUS
100
AcDbLine
 10
5.2546917716535431
 20
2.3844259055118111
 30
0
 11
5.2509251968503934
 21
2.3836766929133857
 31
0
  0
LINE
  5
2A0
330
1A
100
AcDbEntity
  8
BLACK
  6
CONTINUOUS
100
AcDbLine
 10
5.2509251968503934
 20
2.3836766929133857
 30
0
 11
5.230255905511811
 21
2.3836766929133857
 31
0
  0
LINE
  5
2A1
330
1A
100
AcDbEntity
  8
BLACK
  6
CONTINUOUS
100
AcDbLine
 10
5.230255905511811
 20
2.3836766929133857
 30
0
 11
5.2264893307086613
 21
2.3844259055118111
 31
0
  0
LINE
  5
2A2
330
1A
100
AcDbEntity
  8
BLACK
  6
CONTINUOUS
100
AcDbLine
 10
5.2264893307086613
 20
2.3844259055118111
 30
0
 11
5.2232961811023619
 21
2.3865594881889765
 31
0
  0
LINE
  5
2A3
330
1A
100
AcDbEntity
  8
BLACK
  6
CONTINUOUS
100
AcDbLine
 10
5.2232961811023619
 20
2.3865594881889765
 30
0
 11
5.221162598425197
 21
2.3897526377952754
 31
0
  0
LINE
  5
2A4
330
1A
100
AcDbEntity
  8
BLACK
  6
CONTINUOUS
100
AcDbLine
 10
5.221162598425197
 20
2.3897526377952754
 30
0
 11
5.2204133858267712
 21
2.393519212598425
 31
0
  0
LINE
  5
2A5
330
1A
100
AcDbEntity
  8
BLACK
  6
CONTINUOUS
100
AcDbLine
 10
5.2204133858267712
 20
2.393519212598425
 30
0
 11
5.2204133858267712
 21
2.4289522834645667
 31
0
  0
LINE
  5
2A6
330
1A
100
AcDbEntity
  8
BLACK
  6
CONTINUOUS
100
AcDbLine
 10
5.2204133858267712
 20
2.4289522834645667
 30
0
 11
5.221162598425197
 21
2.4327188582677164
 31
0
  0
LINE
  5
2A7
330
1A
100
AcDbEntity
  8
BLACK
  6
CONTINUOUS
100
AcDbLine
 10
5.221162598425197
 20
2.4327188582677164
 30
0
 11
5.2232961811023619
 21
2.4359120078740157
 31
0
  0
LINE
  5
2A8
330
1A
100
AcDbEntity
  8
BLACK
  6
CONTINUOUS
100
AcDbLine
 10
5.2232961811023619
 20
2.4359120078740157
 30
0
 11
5.2264893307086613
 21
2.4380455905511811
 31
0
  0
LINE
  5
2A9
330
1A
100
AcDbEntity
  8
BLACK
  6
CONTINUOUS
100
AcDbLine
 10
5.2264893307086613
 20
2.4380455905511811
 30
0
 11
5.230255905511811
 21
2.4387948031496061
 31
0
  0
LINE
  5
2AA
330
1A
100
AcDbEntity
  8
BLACK
  6
CONTINUOUS
100
AcDbLine
 10
5.230255905511811
 20
2.4387948031496061
 30
0
 11
5.2509251968503934
 21
2.4387948031496061
 31
0
  0
LINE
  5
2AB
330
1A
100
AcDbEntity
  8
BLACK
  6
CONTINUOUS
100
AcDbLine
 10
5.2509251968503934
 20
2.4387948031496061
 30
0
 11
5.2546917716535431
 21
2.4380455905511811
 31
0
  0
LINE
  5
2AC
330
1A
100
AcDbEntity
  8
BLACK
  6
CONTINUOUS
100
AcDbLine
 10
3.0283138188976375
 20
2.4490933070866143
 30
0
 11
3.0315069685039369
 21
2.446959724409449
 31
0
  0
LINE
  5
2AD
330
1A
100
AcDbEntity
  8
BLACK
  6
CONTINUOUS
100
AcDbLine
 10
3.0315069685039369
 20
2.446959724409449
 30
0
 11
3.0336405511811022
 21
2.4437665748031496
 31
0
  0
LINE
  5
2AE
330
1A
100
AcDbEntity
  8
BLACK
  6
CONTINUOUS
100
AcDbLine
 10
3.0336405511811022
 20
2.4437665748031496
 30
0
 11
3.0343897637795276
 21
2.4399999999999999
 31
0
  0
LINE
  5
2AF
330
1A
100
AcDbEntity
  8
BLACK
  6
CONTINUOUS
100
AcDbLine
 10
3.0343897637795276
 20
2.4399999999999999
 30
0
 11
3.0343897637795276
 21
2.4045669291338583
 31
0
  0
LINE
  5
2B0
330
1A
100
AcDbEntity
  8
BLACK
  6
CONTINUOUS
100
AcDbLine
 10
3.0343897637795276
 20
2.4045669291338583
 30
0
 11
3.0336405511811022
 21
2.4008003543307086
 31
0
  0
LINE
  5
2B1
330
1A
100
AcDbEntity
  8
BLACK
  6
CONTINUOUS
100
AcDbLine
 10
3.0336405511811022
 20
2.4008003543307086
 30
0
 11
3.0315069685039369
 21
2.3976072047244092
 31
0
  0
LINE
  5
2B2
330
1A
100
AcDbEntity
  8
BLACK
  6
CONTINUOUS
100
AcDbLine
 10
3.0315069685039369
 20
2.3976072047244092
 30
0
 11
3.0283138188976375
 21
2.3954736220472439
 31
0
  0
LINE
  5
2B3
330
1A
100
AcDbEntity
  8
BLACK
  6
CONTINUOUS
100
AcDbLine
 10
3.0283138188976375
 20
2.3954736220472439
 30
0
 11
3.0245472440944883
 21
2.3947244094488189
 31
0
  0
LINE
  5
2B4
330
1A
100
AcDbEntity
  8
BLACK
  6
CONTINUOUS
100
AcDbLine
 10
3.0245472440944883
 20
2.3947244094488189
 30
0
 11
3.0038779527559054
 21
2.3947244094488189
 31
0
  0
LINE
  5
2B5
330
1A
100
AcDbEntity
  8
BLACK
  6
CONTINUOUS
100
AcDbLine
 10
3.0038779527559054
 20
2.3947244094488189
 30
0
 11
3.0001113779527557
 21
2.3954736220472439
 31
0
  0
LINE
  5
2B6
330
1A
100
AcDbEntity
  8
BLACK
  6
CONTINUOUS
100
AcDbLine
 10
3.0001113779527557
 20
2.3954736220472439
 30
0
 11
2.9969182283464568
 21
2.3976072047244092
 31
0
  0
LINE
  5
2B7
330
1A
100
AcDbEntity
  8
BLACK
  6
CONTINUOUS
100
AcDbLine
 10
2.9969182283464568
 20
2.3976072047244092
 30
0
 11
2.9947846456692915
 21
2.4008003543307086
 31
0
  0
LINE
  5
2B8
330
1A
100
AcDbEntity
  8
BLACK
  6
CONTINUOUS
100
AcDbLine
 10
2.9947846456692915
 20
2.4008003543307086
 30
0
 11
2.9940354330708661
 21
2.4045669291338583
 31
0
  0
LINE
  5
2B9
330
1A
100
AcDbEntity
  8
BLACK
  6
CONTINUOUS
100
AcDbLine
 10
2.9940354330708661
 20
2.4045669291338583
 30
0
 11
2.9940354330708661
 21
2.4399999999999999
 31
0
  0
LINE
  5
2BA
330
1A
100
AcDbEntity
  8
BLACK
  6
CONTINUOUS
100
AcDbLine
 10
2.9940354330708661
 20
2.4399999999999999
 30
0
 11
2.9947846456692915
 21
2.4437665748031496
 31
0
  0
LINE
  5
2BB
330
1A
100
AcDbEntity
  8
BLACK
  6
CONTINUOUS
100
AcDbLine
 10
2.9947846456692915
 20
2.4437665748031496
 30
0
 11
2.9969182283464568
 21
2.446959724409449
 31
0
  0
LINE
  5
2BC
330
1A
100
AcDbEntity
  8
BLACK
  6
CONTINUOUS
100
AcDbLine
 10
2.9969182283464568
 20
2.446959724409449
 30
0
 11
3.0001113779527557
 21
2.4490933070866143
 31
0
  0
LINE
  5
2BD
330
1A
100
AcDbEntity
  8
BLACK
  6
CONTINUOUS
100
AcDbLine
 10
3.0001113779527557
 20
2.4490933070866143
 30
0
 11
3.0038779527559054
 21
2.4498425196850393
 31
0
  0
LINE
  5
2BE
330
1A
100
AcDbEntity
  8
BLACK
  6
CONTINUOUS
100
AcDbLine
 10
3.0038779527559054
 20
2.4498425196850393
 30
0
 11
3.0245472440944883
 21
2.4498425196850393
 31
0
  0
LINE
  5
2BF
330
1A
100
AcDbEntity
  8
BLACK
  6
CONTINUOUS
100
AcDbLine
 10
3.0245472440944883
 20
2.4498425196850393
 30
0
 11
3.0283138188976375
 21
2.4490933070866143
 31
0
  0
LINE
  5
2C0
330
1A
100
AcDbEntity
  8
BLACK
  6
CONTINUOUS
100
AcDbLine
 10
3.100164212598425
 20
2.4490933070866143
 30
0
 11
3.1033573622047244
 21
2.446959724409449
 31
0
  0
LINE
  5
2C1
330
1A
100
AcDbEntity
  8
BLACK
  6
CONTINUOUS
100
AcDbLine
 10
3.1033573622047244
 20
2.446959724409449
 30
0
 11
3.1054909448818897
 21
2.4437665748031496
 31
0
  0
LINE
  5
2C2
330
1A
100
AcDbEntity
  8
BLACK
  6
CONTINUOUS
100
AcDbLine
 10
3.1054909448818897
 20
2.4437665748031496
 30
0
 11
3.1062401574803147
 21
2.4399999999999999
 31
0
  0
LINE
  5
2C3
330
1A
100
AcDbEntity
  8
BLACK
  6
CONTINUOUS
100
AcDbLine
 10
3.1062401574803147
 20
2.4399999999999999
 30
0
 11
3.1062401574803147
 21
2.4045669291338583
 31
0
  0
LINE
  5
2C4
330
1A
100
AcDbEntity
  8
BLACK
  6
CONTINUOUS
100
AcDbLine
 10
3.1062401574803147
 20
2.4045669291338583
 30
0
 11
3.1054909448818897
 21
2.4008003543307086
 31
0
  0
LINE
  5
2C5
330
1A
100
AcDbEntity
  8
BLACK
  6
CONTINUOUS
100
AcDbLine
 10
3.1054909448818897
 20
2.4008003543307086
 30
0
 11
3.1033573622047244
 21
2.3976072047244092
 31
0
  0
LINE
  5
2C6
330
1A
100
AcDbEntity
  8
BLACK
  6
CONTINUOUS
100
AcDbLine
 10
3.1033573622047244
 20
2.3976072047244092
 30
0
 11
3.100164212598425
 21
2.3954736220472439
 31
0
  0
LINE
  5
2C7
330
1A
100
AcDbEntity
  8
BLACK
  6
CONTINUOUS
100
AcDbLine
 10
3.100164212598425
 20
2.3954736220472439
 30
0
 11
3.0963976377952753
 21
2.3947244094488189
 31
0
  0
LINE
  5
2C8
330
1A
100
AcDbEntity
  8
BLACK
  6
CONTINUOUS
100
AcDbLine
 10
3.0963976377952753
 20
2.3947244094488189
 30
0
 11
3.0757283464566929
 21
2.3947244094488189
 31
0
  0
LINE
  5
2C9
330
1A
100
AcDbEntity
  8
BLACK
  6
CONTINUOUS
100
AcDbLine
 10
3.0757283464566929
 20
2.3947244094488189
 30
0
 11
3.0719617716535432
 21
2.3954736220472439
 31
0
  0
LINE
  5
2CA
330
1A
100
AcDbEntity
  8
BLACK
  6
CONTINUOUS
100
AcDbLine
 10
3.0719617716535432
 20
2.3954736220472439
 30
0
 11
3.0687686220472439
 21
2.3976072047244092
 31
0
  0
LINE
  5
2CB
330
1A
100
AcDbEntity
  8
BLACK
  6
CONTINUOUS
100
AcDbLine
 10
3.0687686220472439
 20
2.3976072047244092
 30
0
 11
3.0666350393700785
 21
2.4008003543307086
 31
0
  0
LINE
  5
2CC
330
1A
100
AcDbEntity
  8
BLACK
  6
CONTINUOUS
100
AcDbLine
 10
3.0666350393700785
 20
2.4008003543307086
 30
0
 11
3.0658858267716536
 21
2.4045669291338583
 31
0
  0
LINE
  5
2CD
330
1A
100
AcDbEntity
  8
BLACK
  6
CONTINUOUS
100
AcDbLine
 10
3.0658858267716536
 20
2.4045669291338583
 30
0
 11
3.0658858267716536
 21
2.4399999999999999
 31
0
  0
LINE
  5
2CE
330
1A
100
AcDbEntity
  8
BLACK
  6
CONTINUOUS
100
AcDbLine
 10
3.0658858267716536
 20
2.4399999999999999
 30
0
 11
3.0666350393700785
 21
2.4437665748031496
 31
0
  0
LINE
  5
2CF
330
1A
100
AcDbEntity
  8
BLACK
  6
CONTINUOUS
100
AcDbLine
 10
3.0666350393700785
 20
2.4437665748031496
 30
0
 11
3.0687686220472439
 21
2.446959724409449
 31
0
  0
LINE
  5
2D0
330
1A
100
AcDbEntity
  8
BLACK
  6
CONTINUOUS
100
AcDbLine
 10
3.0687686220472439
 20
2.446959724409449
 30
0
 11
3.0719617716535432
 21
2.4490933070866143
 31
0
  0
LINE
  5
2D1
330
1A
100
AcDbEntity
  8
BLACK
  6
CONTINUOUS
100
AcDbLine
 10
3.0719617716535432
 20
2.4490933070866143
 30
0
 11
3.0757283464566929
 21
2.4498425196850393
 31
0
  0
LINE
  5
2D2
330
1A
100
AcDbEntity
  8
BLACK
  6
CONTINUOUS
100
AcDbLine
 10
3.0757283464566929
 20
2.4498425196850393
 30
0
 11
3.0963976377952753
 21
2.4498425196850393
 31
0
  0
LINE
  5
2D3
330
1A
100
AcDbEntity
  8
BLACK
  6
CONTINUOUS
100
AcDbLine
 10
3.0963976377952753
 20
2.4498425196850393
 30
0
 11
3.100164212598425
 21
2.4490933070866143
 31
0
  0
LINE
  5
2D4
330
1A
100
AcDbEntity
  8
BLACK
  6
CONTINUOUS
100
AcDbLine
 10
5.3173622047244091
 20
2.4152531496062992
 30
0
 11
5.2779921259842517
 21
2.4152531496062992
 31
0
  0
LINE
  5
2D5
330
1A
100
AcDbEntity
  8
BLACK
  6
CONTINUOUS
100
AcDbLine
 10
5.2779921259842517
 20
2.4152531496062992
 30
0
 11
5.2779921259842517
 21
2.4506862204724409
 31
0
  0
LINE
  5
2D6
330
1A
100
AcDbEntity
  8
BLACK
  6
CONTINUOUS
100
AcDbLine
 10
5.2779921259842517
 20
2.4506862204724409
 30
0
 11
5.3173622047244091
 21
2.4506862204724409
 31
0
  0
LINE
  5
2D7
330
1A
100
AcDbEntity
  8
BLACK
  6
CONTINUOUS
100
AcDbLine
 10
5.3173622047244091
 20
2.4506862204724409
 30
0
 11
5.3173622047244091
 21
2.4152531496062992
 31
0
  0
LINE
  5
2D8
330
1A
100
AcDbEntity
  8
BLACK
  6
CONTINUOUS
100
AcDbLine
 10
5.3173622047244091
 20
2.5541732283464564
 30
0
 11
5.2779921259842517
 21
2.5541732283464564
 31
0
  0
LINE
  5
2D9
330
1A
100
AcDbEntity
  8
BLACK
  6
CONTINUOUS
100
AcDbLine
 10
5.2779921259842517
 20
2.5541732283464564
 30
0
 11
5.2779921259842517
 21
2.5896062992125986
 31
0
  0
LINE
  5
2DA
330
1A
100
AcDbEntity
  8
BLACK
  6
CONTINUOUS
100
AcDbLine
 10
5.2779921259842517
 20
2.5896062992125986
 30
0
 11
5.3173622047244091
 21
2.5896062992125986
 31
0
  0
LINE
  5
2DB
330
1A
100
AcDbEntity
  8
BLACK
  6
CONTINUOUS
100
AcDbLine
 10
5.3173622047244091
 20
2.5896062992125986
 30
0
 11
5.3173622047244091
 21
2.5541732283464564
 31
0
  0
LINE
  5
2DC
330
1A
100
AcDbEntity
  8
BLACK
  6
CONTINUOUS
100
AcDbLine
 10
5.2532153937007875
 20
2.6001759842519685
 30
0
 11
5.2564085433070868
 21
2.5980424015748032
 31
0
  0
LINE
  5
2DD
330
1A
100
AcDbEntity
  8
BLACK
  6
CONTINUOUS
100
AcDbLine
 10
5.2564085433070868
 20
2.5980424015748032
 30
0
 11
5.2585421259842517
 21
2.5948492519685038
 31
0
  0
LINE
  5
2DE
330
1A
100
AcDbEntity
  8
BLACK
  6
CONTINUOUS
100
AcDbLine
 10
5.2585421259842517
 20
2.5948492519685038
 30
0
 11
5.2592913385826767
 21
2.5910826771653541
 31
0
  0
LINE
  5
2DF
330
1A
100
AcDbEntity
  8
BLACK
  6
CONTINUOUS
100
AcDbLine
 10
5.2592913385826767
 20
2.5910826771653541
 30
0
 11
5.2592913385826767
 21
2.5704133858267717
 31
0
  0
LINE
  5
2E0
330
1A
100
AcDbEntity
  8
BLACK
  6
CONTINUOUS
100
AcDbLine
 10
5.2592913385826767
 20
2.5704133858267717
 30
0
 11
5.2585421259842517
 21
2.566646811023622
 31
0
  0
LINE
  5
2E1
330
1A
100
AcDbEntity
  8
BLACK
  6
CONTINUOUS
100
AcDbLine
 10
5.2585421259842517
 20
2.566646811023622
 30
0
 11
5.2564085433070868
 21
2.5634536614173227
 31
0
  0
LINE
  5
2E2
330
1A
100
AcDbEntity
  8
BLACK
  6
CONTINUOUS
100
AcDbLine
 10
5.2564085433070868
 20
2.5634536614173227
 30
0
 11
5.2532153937007875
 21
2.5613200787401573
 31
0
  0
LINE
  5
2E3
330
1A
100
AcDbEntity
  8
BLACK
  6
CONTINUOUS
100
AcDbLine
 10
5.2532153937007875
 20
2.5613200787401573
 30
0
 11
5.2494488188976378
 21
2.5605708661417323
 31
0
  0
LINE
  5
2E4
330
1A
100
AcDbEntity
  8
BLACK
  6
CONTINUOUS
100
AcDbLine
 10
5.2494488188976378
 20
2.5605708661417323
 30
0
 11
5.2140157480314961
 21
2.5605708661417323
 31
0
  0
LINE
  5
2E5
330
1A
100
AcDbEntity
  8
BLACK
  6
CONTINUOUS
100
AcDbLine
 10
5.2140157480314961
 20
2.5605708661417323
 30
0
 11
5.2102491732283465
 21
2.5613200787401573
 31
0
  0
LINE
  5
2E6
330
1A
100
AcDbEntity
  8
BLACK
  6
CONTINUOUS
100
AcDbLine
 10
5.2102491732283465
 20
2.5613200787401573
 30
0
 11
5.2070560236220471
 21
2.5634536614173227
 31
0
  0
LINE
  5
2E7
330
1A
100
AcDbEntity
  8
BLACK
  6
CONTINUOUS
100
AcDbLine
 10
5.2070560236220471
 20
2.5634536614173227
 30
0
 11
5.2049224409448822
 21
2.566646811023622
 31
0
  0
LINE
  5
2E8
330
1A
100
AcDbEntity
  8
BLACK
  6
CONTINUOUS
100
AcDbLine
 10
5.2049224409448822
 20
2.566646811023622
 30
0
 11
5.2041732283464563
 21
2.5704133858267717
 31
0
  0
LINE
  5
2E9
330
1A
100
AcDbEntity
  8
BLACK
  6
CONTINUOUS
100
AcDbLine
 10
5.2041732283464563
 20
2.5704133858267717
 30
0
 11
5.2041732283464563
 21
2.5910826771653541
 31
0
  0
LINE
  5
2EA
330
1A
100
AcDbEntity
  8
BLACK
  6
CONTINUOUS
100
AcDbLine
 10
5.2041732283464563
 20
2.5910826771653541
 30
0
 11
5.2049224409448822
 21
2.5948492519685038
 31
0
  0
LINE
  5
2EB
330
1A
100
AcDbEntity
  8
BLACK
  6
CONTINUOUS
100
AcDbLine
 10
5.2049224409448822
 20
2.5948492519685038
 30
0
 11
5.2070560236220471
 21
2.5980424015748032
 31
0
  0
LINE
  5
2EC
330
1A
100
AcDbEntity
  8
BLACK
  6
CONTINUOUS
100
AcDbLine
 10
5.2070560236220471
 20
2.5980424015748032
 30
0
 11
5.2102491732283465
 21
2.6001759842519685
 31
0
  0
LINE
  5
2ED
330
1A
100
AcDbEntity
  8
BLACK
  6
CONTINUOUS
100
AcDbLine
 10
5.2102491732283465
 20
2.6001759842519685
 30
0
 11
5.2140157480314961
 21
2.6009251968503935
 31
0
  0
LINE
  5
2EE
330
1A
100
AcDbEntity
  8
BLACK
  6
CONTINUOUS
100
AcDbLine
 10
5.2140157480314961
 20
2.6009251968503935
 30
0
 11
5.2494488188976378
 21
2.6009251968503935
 31
0
  0
LINE
  5
2EF
330
1A
100
AcDbEntity
  8
BLACK
  6
CONTINUOUS
100
AcDbLine
 10
5.2494488188976378
 20
2.6009251968503935
 30
0
 11
5.2532153937007875
 21
2.6001759842519685
 31
0
  0
LINE
  5
2F0
330
1A
100
AcDbEntity
  8
BLACK
  6
CONTINUOUS
100
AcDbLine
 10
5.3173622047244091
 20
2.6171653543307087
 30
0
 11
5.2779921259842517
 21
2.6171653543307087
 31
0
  0
LINE
  5
2F1
330
1A
100
AcDbEntity
  8
BLACK
  6
CONTINUOUS
100
AcDbLine
 10
5.2779921259842517
 20
2.6171653543307087
 30
0
 11
5.2779921259842517
 21
2.6525984251968504
 31
0
  0
LINE
  5
2F2
330
1A
100
AcDbEntity
  8
BLACK
  6
CONTINUOUS
100
AcDbLine
 10
5.2779921259842517
 20
2.6525984251968504
 30
0
 11
5.3173622047244091
 21
2.6525984251968504
 31
0
  0
LINE
  5
2F3
330
1A
100
AcDbEntity
  8
BLACK
  6
CONTINUOUS
100
AcDbLine
 10
5.3173622047244091
 20
2.6525984251968504
 30
0
 11
5.3173622047244091
 21
2.6171653543307087
 31
0
  0
LINE
  5
2F4
330
1A
100
AcDbEntity
  8
BLACK
  6
CONTINUOUS
100
AcDbLine
 10
5.2532153937007875
 20
2.672026377952756
 30
0
 11
5.2564085433070868
 21
2.6698927952755906
 31
0
  0
LINE
  5
2F5
330
1A
100
AcDbEntity
  8
BLACK
  6
CONTINUOUS
100
AcDbLine
 10
5.2564085433070868
 20
2.6698927952755906
 30
0
 11
5.2585421259842517
 21
2.6666996456692913
 31
0
  0
LINE
  5
2F6
330
1A
100
AcDbEntity
  8
BLACK
  6
CONTINUOUS
100
AcDbLine
 10
5.2585421259842517
 20
2.6666996456692913
 30
0
 11
5.2592913385826767
 21
2.6629330708661416
 31
0
  0
LINE
  5
2F7
330
1A
100
AcDbEntity
  8
BLACK
  6
CONTINUOUS
100
AcDbLine
 10
5.2592913385826767
 20
2.6629330708661416
 30
0
 11
5.2592913385826767
 21
2.6422637795275592
 31
0
  0
LINE
  5
2F8
330
1A
100
AcDbEntity
  8
BLACK
  6
CONTINUOUS
100
AcDbLine
 10
5.2592913385826767
 20
2.6422637795275592
 30
0
 11
5.2585421259842517
 21
2.6384972047244095
 31
0
  0
LINE
  5
2F9
330
1A
100
AcDbEntity
  8
BLACK
  6
CONTINUOUS
100
AcDbLine
 10
5.2585421259842517
 20
2.6384972047244095
 30
0
 11
5.2564085433070868
 21
2.6353040551181102
 31
0
  0
LINE
  5
2FA
330
1A
100
AcDbEntity
  8
BLACK
  6
CONTINUOUS
100
AcDbLine
 10
5.2564085433070868
 20
2.6353040551181102
 30
0
 11
5.2532153937007875
 21
2.6331704724409448
 31
0
  0
LINE
  5
2FB
330
1A
100
AcDbEntity
  8
BLACK
  6
CONTINUOUS
100
AcDbLine
 10
5.2532153937007875
 20
2.6331704724409448
 30
0
 11
5.2494488188976378
 21
2.6324212598425198
 31
0
  0
LINE
  5
2FC
330
1A
100
AcDbEntity
  8
BLACK
  6
CONTINUOUS
100
AcDbLine
 10
5.2494488188976378
 20
2.6324212598425198
 30
0
 11
5.2140157480314961
 21
2.6324212598425198
 31
0
  0
LINE
  5
2FD
330
1A
100
AcDbEntity
  8
BLACK
  6
CONTINUOUS
100
AcDbLine
 10
5.2140157480314961
 20
2.6324212598425198
 30
0
 11
5.2102491732283465
 21
2.6331704724409448
 31
0
  0
LINE
  5
2FE
330
1A
100
AcDbEntity
  8
BLACK
  6
CONTINUOUS
100
AcDbLine
 10
5.2102491732283465
 20
2.6331704724409448
 30
0
 11
5.2070560236220471
 21
2.6353040551181102
 31
0
  0
LINE
  5
2FF
330
1A
100
AcDbEntity
  8
BLACK
  6
CONTINUOUS
100
AcDbLine
 10
5.2070560236220471
 20
2.6353040551181102
 30
0
 11
5.2049224409448822
 21
2.6384972047244095
 31
0
  0
LINE
  5
300
330
1A
100
AcDbEntity
  8
BLACK
  6
CONTINUOUS
100
AcDbLine
 10
5.2049224409448822
 20
2.6384972047244095
 30
0
 11
5.2041732283464563
 21
2.6422637795275592
 31
0
  0
LINE
  5
301
330
1A
100
AcDbEntity
  8
BLACK
  6
CONTINUOUS
100
AcDbLine
 10
5.2041732283464563
 20
2.6422637795275592
 30
0
 11
5.2041732283464563
 21
2.6629330708661416
 31
0
  0
LINE
  5
302
330
1A
100
AcDbEntity
  8
BLACK
  6
CONTINUOUS
100
AcDbLine
 10
5.2041732283464563
 20
2.6629330708661416
 30
0
 11
5.2049224409448822
 21
2.6666996456692913
 31
0
  0
LINE
  5
303
330
1A
100
AcDbEntity
  8
BLACK
  6
CONTINUOUS
100
AcDbLine
 10
5.2049224409448822
 20
2.6666996456692913
 30
0
 11
5.2070560236220471
 21
2.6698927952755906
 31
0
  0
LINE
  5
304
330
1A
100
AcDbEntity
  8
BLACK
  6
CONTINUOUS
100
AcDbLine
 10
5.2070560236220471
 20
2.6698927952755906
 30
0
 11
5.2102491732283465
 21
2.672026377952756
 31
0
  0
LINE
  5
305
330
1A
100
AcDbEntity
  8
BLACK
  6
CONTINUOUS
100
AcDbLine
 10
5.2102491732283465
 20
2.672026377952756
 30
0
 11
5.2140157480314961
 21
2.672775590551181
 31
0
  0
LINE
  5
306
330
1A
100
AcDbEntity
  8
BLACK
  6
CONTINUOUS
100
AcDbLine
 10
5.2140157480314961
 20
2.672775590551181
 30
0
 11
5.2494488188976378
 21
2.672775590551181
 31
0
  0
LINE
  5
307
330
1A
100
AcDbEntity
  8
BLACK
  6
CONTINUOUS
100
AcDbLine
 10
5.2494488188976378
 20
2.672775590551181
 30
0
 11
5.2532153937007875
 21
2.672026377952756
 31
0
  0
LINE
  5
308
330
1A
100
AcDbEntity
  8
BLACK
  6
CONTINUOUS
100
AcDbLine
 10
5.2532153937007875
 20
2.7355106299212597
 30
0
 11
5.2564085433070868
 21
2.7333770472440944
 31
0
  0
LINE
  5
309
330
1A
100
AcDbEntity
  8
BLACK
  6
CONTINUOUS
100
AcDbLine
 10
5.2564085433070868
 20
2.7333770472440944
 30
0
 11
5.2585421259842517
 21
2.730183897637795
 31
0
  0
LINE
  5
30A
330
1A
100
AcDbEntity
  8
BLACK
  6
CONTINUOUS
100
AcDbLine
 10
5.2585421259842517
 20
2.730183897637795
 30
0
 11
5.2592913385826767
 21
2.7264173228346458
 31
0
  0
LINE
  5
30B
330
1A
100
AcDbEntity
  8
BLACK
  6
CONTINUOUS
100
AcDbLine
 10
5.2592913385826767
 20
2.7264173228346458
 30
0
 11
5.2592913385826767
 21
2.7057480314960629
 31
0
  0
LINE
  5
30C
330
1A
100
AcDbEntity
  8
BLACK
  6
CONTINUOUS
100
AcDbLine
 10
5.2592913385826767
 20
2.7057480314960629
 30
0
 11
5.2585421259842517
 21
2.7019814566929132
 31
0
  0
LINE
  5
30D
330
1A
100
AcDbEntity
  8
BLACK
  6
CONTINUOUS
100
AcDbLine
 10
5.2585421259842517
 20
2.7019814566929132
 30
0
 11
5.2564085433070868
 21
2.6987883070866143
 31
0
  0
LINE
  5
30E
330
1A
100
AcDbEntity
  8
BLACK
  6
CONTINUOUS
100
AcDbLine
 10
5.2564085433070868
 20
2.6987883070866143
 30
0
 11
5.2532153937007875
 21
2.696654724409449
 31
0
  0
LINE
  5
30F
330
1A
100
AcDbEntity
  8
BLACK
  6
CONTINUOUS
100
AcDbLine
 10
5.2532153937007875
 20
2.696654724409449
 30
0
 11
5.2494488188976378
 21
2.6959055118110236
 31
0
  0
LINE
  5
310
330
1A
100
AcDbEntity
  8
BLACK
  6
CONTINUOUS
100
AcDbLine
 10
5.2494488188976378
 20
2.6959055118110236
 30
0
 11
5.2140157480314961
 21
2.6959055118110236
 31
0
  0
LINE
  5
311
330
1A
100
AcDbEntity
  8
BLACK
  6
CONTINUOUS
100
AcDbLine
 10
5.2140157480314961
 20
2.6959055118110236
 30
0
 11
5.2102491732283465
 21
2.696654724409449
 31
0
  0
LINE
  5
312
330
1A
100
AcDbEntity
  8
BLACK
  6
CONTINUOUS
100
AcDbLine
 10
5.2102491732283465
 20
2.696654724409449
 30
0
 11
5.2070560236220471
 21
2.6987883070866143
 31
0
  0
LINE
  5
313
330
1A
100
AcDbEntity
  8
BLACK
  6
CONTINUOUS
100
AcDbLine
 10
5.2070560236220471
 20
2.6987883070866143
 30
0
 11
5.2049224409448822
 21
2.7019814566929132
 31
0
  0
LINE
  5
314
330
1A
100
AcDbEntity
  8
BLACK
  6
CONTINUOUS
100
AcDbLine
 10
5.2049224409448822
 20
2.7019814566929132
 30
0
 11
5.2041732283464563
 21
2.7057480314960629
 31
0
  0
LINE
  5
315
330
1A
100
AcDbEntity
  8
BLACK
  6
CONTINUOUS
100
AcDbLine
 10
5.2041732283464563
 20
2.7057480314960629
 30
0
 11
5.2041732283464563
 21
2.7264173228346458
 31
0
  0
LINE
  5
316
330
1A
100
AcDbEntity
  8
BLACK
  6
CONTINUOUS
100
AcDbLine
 10
5.2041732283464563
 20
2.7264173228346458
 30
0
 11
5.2049224409448822
 21
2.730183897637795
 31
0
  0
LINE
  5
317
330
1A
100
AcDbEntity
  8
BLACK
  6
CONTINUOUS
100
AcDbLine
 10
5.2049224409448822
 20
2.730183897637795
 30
0
 11
5.2070560236220471
 21
2.7333770472440944
 31
0
  0
LINE
  5
318
330
1A
100
AcDbEntity
  8
BLACK
  6
CONTINUOUS
100
AcDbLine
 10
5.2070560236220471
 20
2.7333770472440944
 30
0
 11
5.2102491732283465
 21
2.7355106299212597
 31
0
  0
LINE
  5
319
330
1A
100
AcDbEntity
  8
BLACK
  6
CONTINUOUS
100
AcDbLine
 10
5.2102491732283465
 20
2.7355106299212597
 30
0
 11
5.2140157480314961
 21
2.7362598425196851
 31
0
  0
LINE
  5
31A
330
1A
100
AcDbEntity
  8
BLACK
  6
CONTINUOUS
100
AcDbLine
 10
5.2140157480314961
 20
2.7362598425196851
 30
0
 11
5.2494488188976378
 21
2.7362598425196851
 31
0
  0
LINE
  5
31B
330
1A
100
AcDbEntity
  8
BLACK
  6
CONTINUOUS
100
AcDbLine
 10
5.2494488188976378
 20
2.7362598425196851
 30
0
 11
5.2532153937007875
 21
2.7355106299212597
 31
0
  0
LINE
  5
31C
330
1A
100
AcDbEntity
  8
BLACK
  6
CONTINUOUS
100
AcDbLine
 10
5.3173622047244091
 20
2.7077165354330708
 30
0
 11
5.2779921259842517
 21
2.7077165354330708
 31
0
  0
LINE
  5
31D
330
1A
100
AcDbEntity
  8
BLACK
  6
CONTINUOUS
100
AcDbLine
 10
5.2779921259842517
 20
2.7077165354330708
 30
0
 11
5.2779921259842517
 21
2.7431496062992125
 31
0
  0
LINE
  5
31E
330
1A
100
AcDbEntity
  8
BLACK
  6
CONTINUOUS
100
AcDbLine
 10
5.2779921259842517
 20
2.7431496062992125
 30
0
 11
5.3173622047244091
 21
2.7431496062992125
 31
0
  0
LINE
  5
31F
330
1A
100
AcDbEntity
  8
BLACK
  6
CONTINUOUS
100
AcDbLine
 10
5.3173622047244091
 20
2.7431496062992125
 30
0
 11
5.3173622047244091
 21
2.7077165354330708
 31
0
  0
LINE
  5
320
330
1A
100
AcDbEntity
  8
BLACK
  6
CONTINUOUS
100
AcDbLine
 10
5.2532153937007875
 20
2.8073610236220472
 30
0
 11
5.2564085433070868
 21
2.8052274409448819
 31
0
  0
LINE
  5
321
330
1A
100
AcDbEntity
  8
BLACK
  6
CONTINUOUS
100
AcDbLine
 10
5.2564085433070868
 20
2.8052274409448819
 30
0
 11
5.2585421259842517
 21
2.8020342913385825
 31
0
  0
LINE
  5
322
330
1A
100
AcDbEntity
  8
BLACK
  6
CONTINUOUS
100
AcDbLine
 10
5.2585421259842517
 20
2.8020342913385825
 30
0
 11
5.2592913385826767
 21
2.7982677165354328
 31
0
  0
LINE
  5
323
330
1A
100
AcDbEntity
  8
BLACK
  6
CONTINUOUS
100
AcDbLine
 10
5.2592913385826767
 20
2.7982677165354328
 30
0
 11
5.2592913385826767
 21
2.7775984251968504
 31
0
  0
LINE
  5
324
330
1A
100
AcDbEntity
  8
BLACK
  6
CONTINUOUS
100
AcDbLine
 10
5.2592913385826767
 20
2.7775984251968504
 30
0
 11
5.2585421259842517
 21
2.7738318503937007
 31
0
  0
LINE
  5
325
330
1A
100
AcDbEntity
  8
BLACK
  6
CONTINUOUS
100
AcDbLine
 10
5.2585421259842517
 20
2.7738318503937007
 30
0
 11
5.2564085433070868
 21
2.7706387007874014
 31
0
  0
LINE
  5
326
330
1A
100
AcDbEntity
  8
BLACK
  6
CONTINUOUS
100
AcDbLine
 10
5.2564085433070868
 20
2.7706387007874014
 30
0
 11
5.2532153937007875
 21
2.768505118110236
 31
0
  0
LINE
  5
327
330
1A
100
AcDbEntity
  8
BLACK
  6
CONTINUOUS
100
AcDbLine
 10
5.2532153937007875
 20
2.768505118110236
 30
0
 11
5.2494488188976378
 21
2.7677559055118111
 31
0
  0
LINE
  5
328
330
1A
100
AcDbEntity
  8
BLACK
  6
CONTINUOUS
100
AcDbLine
 10
5.2494488188976378
 20
2.7677559055118111
 30
0
 11
5.2140157480314961
 21
2.7677559055118111
 31
0
  0
LINE
  5
329
330
1A
100
AcDbEntity
  8
BLACK
  6
CONTINUOUS
100
AcDbLine
 10
5.2140157480314961
 20
2.7677559055118111
 30
0
 11
5.2102491732283465
 21
2.768505118110236
 31
0
  0
LINE
  5
32A
330
1A
100
AcDbEntity
  8
BLACK
  6
CONTINUOUS
100
AcDbLine
 10
5.2102491732283465
 20
2.768505118110236
 30
0
 11
5.2070560236220471
 21
2.7706387007874014
 31
0
  0
LINE
  5
32B
330
1A
100
AcDbEntity
  8
BLACK
  6
CONTINUOUS
100
AcDbLine
 10
5.2070560236220471
 20
2.7706387007874014
 30
0
 11
5.2049224409448822
 21
2.7738318503937007
 31
0
  0
LINE
  5
32C
330
1A
100
AcDbEntity
  8
BLACK
  6
CONTINUOUS
100
AcDbLine
 10
5.2049224409448822
 20
2.7738318503937007
 30
0
 11
5.2041732283464563
 21
2.7775984251968504
 31
0
  0
LINE
  5
32D
330
1A
100
AcDbEntity
  8
BLACK
  6
CONTINUOUS
100
AcDbLine
 10
5.2041732283464563
 20
2.7775984251968504
 30
0
 11
5.2041732283464563
 21
2.7982677165354328
 31
0
  0
LINE
  5
32E
330
1A
100
AcDbEntity
  8
BLACK
  6
CONTINUOUS
100
AcDbLine
 10
5.2041732283464563
 20
2.7982677165354328
 30
0
 11
5.2049224409448822
 21
2.8020342913385825
 31
0
  0
LINE
  5
32F
330
1A
100
AcDbEntity
  8
BLACK
  6
CONTINUOUS
100
AcDbLine
 10
5.2049224409448822
 20
2.8020342913385825
 30
0
 11
5.2070560236220471
 21
2.8052274409448819
 31
0
  0
LINE
  5
330
330
1A
100
AcDbEntity
  8
BLACK
  6
CONTINUOUS
100
AcDbLine
 10
5.2070560236220471
 20
2.8052274409448819
 30
0
 11
5.2102491732283465
 21
2.8073610236220472
 31
0
  0
LINE
  5
331
330
1A
100
AcDbEntity
  8
BLACK
  6
CONTINUOUS
100
AcDbLine
 10
5.2102491732283465
 20
2.8073610236220472
 30
0
 11
5.2140157480314961
 21
2.8081102362204722
 31
0
  0
LINE
  5
332
330
1A
100
AcDbEntity
  8
BLACK
  6
CONTINUOUS
100
AcDbLine
 10
5.2140157480314961
 20
2.8081102362204722
 30
0
 11
5.2494488188976378
 21
2.8081102362204722
 31
0
  0
LINE
  5
333
330
1A
100
AcDbEntity
  8
BLACK
  6
CONTINUOUS
100
AcDbLine
 10
5.2494488188976378
 20
2.8081102362204722
 30
0
 11
5.2532153937007875
 21
2.8073610236220472
 31
0
  0
LINE
  5
334
330
1A
100
AcDbEntity
  8
BLACK
  6
CONTINUOUS
100
AcDbLine
 10
5.3173622047244091
 20
2.7707086614173226
 30
0
 11
5.2779921259842517
 21
2.7707086614173226
 31
0
  0
LINE
  5
335
330
1A
100
AcDbEntity
  8
BLACK
  6
CONTINUOUS
100
AcDbLine
 10
5.2779921259842517
 20
2.7707086614173226
 30
0
 11
5.2779921259842517
 21
2.8061417322834643
 31
0
  0
LINE
  5
336
330
1A
100
AcDbEntity
  8
BLACK
  6
CONTINUOUS
100
AcDbLine
 10
5.2779921259842517
 20
2.8061417322834643
 30
0
 11
5.3173622047244091
 21
2.8061417322834643
 31
0
  0
LINE
  5
337
330
1A
100
AcDbEntity
  8
BLACK
  6
CONTINUOUS
100
AcDbLine
 10
5.3173622047244091
 20
2.8061417322834643
 30
0
 11
5.3173622047244091
 21
2.7707086614173226
 31
0
  0
CIRCLE
  5
338
330
1A
100
AcDbEntity
  8
BLACK
100
AcDbCircle
 10
1.4364566929133857
 20
0.5951181102362204
 30
0
 40
0.0068897637795276
  0
CIRCLE
  5
339
330
1A
100
AcDbEntity
  8
BLACK
100
AcDbCircle
 10
2.1962992125984253
 20
0.5951181102362204
 30
0
 40
0.0068897637795276
  0
CIRCLE
  5
33A
330
1A
100
AcDbEntity
  8
BLACK
100
AcDbCircle
 10
1.4364566929133857
 20
2.7848818897637795
 30
0
 40
0.0068897637795276
  0
CIRCLE
  5
33B
330
1A
100
AcDbEntity
  8
BLACK
100
AcDbCircle
 10
2.1962992125984253
 20
2.7848818897637795
 30
0
 40
0.0068897637795276
  0
CIRCLE
  5
33C
330
1A
100
AcDbEntity
  8
BLACK
100
AcDbCircle
 10
1.4364566929133857
 20
0.2608661417322835
 30
0
 40
0.0068897637795276
  0
CIRCLE
  5
33D
330
1A
100
AcDbEntity
  8
BLACK
100
AcDbCircle
 10
1.4364566929133857
 20
3.1191338582677166
 30
0
 40
0.0068897637795276
  0
CIRCLE
  5
33E
330
1A
100
AcDbEntity
  8
BLACK
100
AcDbCircle
 10
2.1962992125984253
 20
0.2608661417322835
 30
0
 40
0.0068897637795276
  0
CIRCLE
  5
33F
330
1A
100
AcDbEntity
  8
BLACK
100
AcDbCircle
 10
2.1962992125984253
 20
3.1191338582677166
 30
0
 40
0.0068897637795276
  0
CIRCLE
  5
340
330
1A
100
AcDbEntity
  8
BLACK
100
AcDbCircle
 10
5.1899999999999995
 20
3.0899999999999999
 30
0
 40
0.0068897637795276
  0
LINE
  5
341
330
1A
100
AcDbEntity
  8
BLACK
  6
CONTINUOUS
100
AcDbLine
 10
5.0998425196850397
 20
1.3051574803149606
 30
0
 11
5.1155905511811026
 21
1.3051574803149606
 31
0
  0
ARC
  5
342
330
1A
100
AcDbEntity
  8
BLACK
100
AcDbCircle
 10
5.1155905511811026
 20
1.3149999999999999
 30
0
 40
0.0098425196850394
100
AcDbArc
 50
-90.00000000
 51
90.00000000
  0
LINE
  5
343
330
1A
100
AcDbEntity
  8
BLACK
  6
CONTINUOUS
100
AcDbLine
 10
5.1155905511811026
 20
1.3248425196850393
 30
0
 11
5.0998425196850397
 21
1.3248425196850393
 31
0
  0
ARC
  5
344
330
1A
100
AcDbEntity
  8
BLACK
100
AcDbCircle
 10
5.0998425196850397
 20
1.3149999999999999
 30
0
 40
0.0098425196850394
100
AcDbArc
 50
90.00000000
 51
270.00000000
  0
LINE
  5
345
330
1A
100
AcDbEntity
  8
BLACK
  6
CONTINUOUS
100
AcDbLine
 10
5.0998425196850397
 20
1.4724803149606298
 30
0
 11
5.1155905511811026
 21
1.4724803149606298
 31
0
  0
ARC
  5
346
330
1A
100
AcDbEntity
  8
BLACK
100
AcDbCircle
 10
5.1155905511811026
 20
1.4823228346456692
 30
0
 40
0.0098425196850394
100
AcDbArc
 50
-90.00000000
 51
90.00000000
  0
LINE
  5
347
330
1A
100
AcDbEntity
  8
BLACK
  6
CONTINUOUS
100
AcDbLine
 10
5.1155905511811026
 20
1.4921653543307087
 30
0
 11
5.0998425196850397
 21
1.4921653543307087
 31
0
  0
ARC
  5
348
330
1A
100
AcDbEntity
  8
BLACK
100
AcDbCircle
 10
5.0998425196850397
 20
1.4823228346456692
 30
0
 40
0.0098425196850394
100
AcDbArc
 50
90.00000000
 51
270.00000000
  0
CIRCLE
  5
349
330
1A
100
AcDbEntity
  8
BLACK
100
AcDbCircle
 10
0.39
 20
3.0899999999999999
 30
0
 40
0.0068897637795276
  0
CIRCLE
  5
34A
330
1A
100
AcDbEntity
  8
BLACK
100
AcDbCircle
 10
3.0506299212598424
 20
0.5953149606299213
 30
0
 40
0.0068897637795276
  0
CIRCLE
  5
34B
330
1A
100
AcDbEntity
  8
BLACK
100
AcDbCircle
 10
3.8104724409448818
 20
0.5953149606299213
 30
0
 40
0.0068897637795276
  0
CIRCLE
  5
34C
330
1A
100
AcDbEntity
  8
BLACK
100
AcDbCircle
 10
4.5703149606299212
 20
0.5953149606299213
 30
0
 40
0.0068897637795276
  0
CIRCLE
  5
34D
330
1A
100
AcDbEntity
  8
BLACK
100
AcDbCircle
 10
3.0506299212598424
 20
2.7846850393700788
 30
0
 40
0.0068897637795276
  0
CIRCLE
  5
34E
330
1A
100
AcDbEntity
  8
BLACK
100
AcDbCircle
 10
3.8104724409448818
 20
2.7846850393700788
 30
0
 40
0.0068897637795276
  0
CIRCLE
  5
34F
330
1A
100
AcDbEntity
  8
BLACK
100
AcDbCircle
 10
4.5703149606299212
 20
2.7846850393700788
 30
0
 40
0.0068897637795276
  0
CIRCLE
  5
350
330
1A
100
AcDbEntity
  8
BLACK
100
AcDbCircle
 10
3.0506299212598424
 20
0.2628346456692913
 30
0
 40
0.0068897637795276
  0
CIRCLE
  5
351
330
1A
100
AcDbEntity
  8
BLACK
100
AcDbCircle
 10
3.0506299212598424
 20
3.1171653543307087
 30
0
 40
0.0068897637795276
  0
CIRCLE
  5
352
330
1A
100
AcDbEntity
  8
BLACK
100
AcDbCircle
 10
3.8104724409448818
 20
0.2628346456692913
 30
0
 40
0.0068897637795276
  0
CIRCLE
  5
353
330
1A
100
AcDbEntity
  8
BLACK
100
AcDbCircle
 10
3.8104724409448818
 20
3.1171653543307087
 30
0
 40
0.0068897637795276
  0
CIRCLE
  5
354
330
1A
100
AcDbEntity
  8
BLACK
100
AcDbCircle
 10
4.5703149606299212
 20
0.2628346456692913
 30
0
 40
0.0068897637795276
  0
CIRCLE
  5
355
330
1A
100
AcDbEntity
  8
BLACK
100
AcDbCircle
 10
4.5703149606299212
 20
3.1171653543307087
 30
0
 40
0.0068897637795276
  0
CIRCLE
  5
356
330
1A
100
AcDbEntity
  8
BLACK
100
AcDbCircle
 10
5.1899999999999995
 20
0.29
 30
0
 40
0.0068897637795276
  0
CIRCLE
  5
357
330
1A
100
AcDbEntity
  8
BLACK
100
AcDbCircle
 10
0.39
 20
0.29
 30
0
 40
0.0068897637795276
  0
CIRCLE
  5
358
330
1A
100
AcDbEntity
  8
BLACK
100
AcDbCircle
 10
0.7494488188976378
 20
2.6321259842519686
 30
0
 40
0.0068897637795276
  0
CIRCLE
  5
359
330
1A
100
AcDbEntity
  8
BLACK
100
AcDbCircle
 10
0.7494488188976378
 20
0.7340944881889764
 30
0
 40
0.0068897637795276
  0
CIRCLE
  5
35A
330
1A
100
AcDbEntity
  8
BLACK
100
AcDbCircle
 10
0.5289763779527559
 20
1.4931496062992127
 30
0
 40
0.0068897637795276
  0
CIRCLE
  5
35B
330
1A
100
AcDbEntity
  8
BLACK
100
AcDbCircle
 10
0.5289763779527559
 20
1.5718897637795275
 30
0
 40
0.0068897637795276
  0
CIRCLE
  5
35C
330
1A
100
AcDbEntity
  8
BLACK
100
AcDbCircle
 10
0.5289763779527559
 20
1.6506299212598425
 30
0
 40
0.0068897637795276
  0
CIRCLE
  5
35D
330
1A
100
AcDbEntity
  8
BLACK
100
AcDbCircle
 10
0.5289763779527559
 20
1.7293700787401574
 30
0
 40
0.0068897637795276
  0
CIRCLE
  5
35E
330
1A
100
AcDbEntity
  8
BLACK
100
AcDbCircle
 10
0.5289763779527559
 20
1.8081102362204724
 30
0
 40
0.0068897637795276
  0
CIRCLE
  5
35F
330
1A
100
AcDbEntity
  8
BLACK
100
AcDbCircle
 10
0.5289763779527559
 20
1.8868503937007874
 30
0
 40
0.0068897637795276
  0
CIRCLE
  5
360
330
1A
100
AcDbEntity
  8
BLACK
100
AcDbCircle
 10
0.6077165354330708
 20
1.4931496062992127
 30
0
 40
0.0068897637795276
  0
CIRCLE
  5
361
330
1A
100
AcDbEntity
  8
BLACK
100
AcDbCircle
 10
0.6077165354330708
 20
1.5718897637795275
 30
0
 40
0.0068897637795276
  0
CIRCLE
  5
362
330
1A
100
AcDbEntity
  8
BLACK
100
AcDbCircle
 10
0.6077165354330708
 20
1.6506299212598425
 30
0
 40
0.0068897637795276
  0
CIRCLE
  5
363
330
1A
100
AcDbEntity
  8
BLACK
100
AcDbCircle
 10
0.6077165354330708
 20
1.7293700787401574
 30
0
 40
0.0068897637795276
  0
CIRCLE
  5
364
330
1A
100
AcDbEntity
  8
BLACK
100
AcDbCircle
 10
0.6077165354330708
 20
1.8081102362204724
 30
0
 40
0.0068897637795276
  0
CIRCLE
  5
365
330
1A
100
AcDbEntity
  8
BLACK
100
AcDbCircle
 10
0.6077165354330708
 20
1.8868503937007874
 30
0
 40
0.0068897637795276
  0
CIRCLE
  5
366
330
1A
100
AcDbEntity
  8
BLACK
100
AcDbCircle
 10
0.6864566929133858
 20
1.4931496062992127
 30
0
 40
0.0068897637795276
  0
CIRCLE
  5
367
330
1A
100
AcDbEntity
  8
BLACK
100
AcDbCircle
 10
0.6864566929133858
 20
1.5718897637795275
 30
0
 40
0.0068897637795276
  0
CIRCLE
  5
368
330
1A
100
AcDbEntity
  8
BLACK
100
AcDbCircle
 10
0.6864566929133858
 20
1.6506299212598425
 30
0
 40
0.0068897637795276
  0
CIRCLE
  5
369
330
1A
100
AcDbEntity
  8
BLACK
100
AcDbCircle
 10
0.6864566929133858
 20
1.7293700787401574
 30
0
 40
0.0068897637795276
  0
CIRCLE
  5
36A
330
1A
100
AcDbEntity
  8
BLACK
100
AcDbCircle
 10
0.6864566929133858
 20
1.8081102362204724
 30
0
 40
0.0068897637795276
  0
CIRCLE
  5
36B
330
1A
100
AcDbEntity
  8
BLACK
100
AcDbCircle
 10
0.6864566929133858
 20
1.8868503937007874
 30
0
 40
0.0068897637795276
  0
CIRCLE
  5
36C
330
1A
100
AcDbEntity
  8
BLACK
100
AcDbCircle
 10
0.7651968503937008
 20
1.4931496062992127
 30
0
 40
0.0068897637795276
  0
CIRCLE
  5
36D
330
1A
100
AcDbEntity
  8
BLACK
100
AcDbCircle
 10
0.7651968503937008
 20
1.5718897637795275
 30
0
 40
0.0068897637795276
  0
CIRCLE
  5
36E
330
1A
100
AcDbEntity
  8
BLACK
100
AcDbCircle
 10
0.7651968503937008
 20
1.6506299212598425
 30
0
 40
0.0068897637795276
  0
CIRCLE
  5
36F
330
1A
100
AcDbEntity
  8
BLACK
100
AcDbCircle
 10
0.7651968503937008
 20
1.7293700787401574
 30
0
 40
0.0068897637795276
  0
CIRCLE
  5
370
330
1A
100
AcDbEntity
  8
BLACK
100
AcDbCircle
 10
0.7651968503937008
 20
1.8081102362204724
 30
0
 40
0.0068897637795276
  0
CIRCLE
  5
371
330
1A
100
AcDbEntity
  8
BLACK
100
AcDbCircle
 10
0.7651968503937008
 20
1.8868503937007874
 30
0
 40
0.0068897637795276
  0
CIRCLE
  5
372
330
1A
100
AcDbEntity
  8
BLACK
100
AcDbCircle
 10
0.8439370078740157
 20
1.4931496062992127
 30
0
 40
0.0068897637795276
  0
CIRCLE
  5
373
330
1A
100
AcDbEntity
  8
BLACK
100
AcDbCircle
 10
0.8439370078740157
 20
1.5718897637795275
 30
0
 40
0.0068897637795276
  0
CIRCLE
  5
374
330
1A
100
AcDbEntity
  8
BLACK
100
AcDbCircle
 10
0.8439370078740157
 20
1.6506299212598425
 30
0
 40
0.0068897637795276
  0
CIRCLE
  5
375
330
1A
100
AcDbEntity
  8
BLACK
100
AcDbCircle
 10
0.8439370078740157
 20
1.7293700787401574
 30
0
 40
0.0068897637795276
  0
CIRCLE
  5
376
330
1A
100
AcDbEntity
  8
BLACK
100
AcDbCircle
 10
0.8439370078740157
 20
1.8081102362204724
 30
0
 40
0.0068897637795276
  0
CIRCLE
  5
377
330
1A
100
AcDbEntity
  8
BLACK
100
AcDbCircle
 10
0.8439370078740157
 20
1.8868503937007874
 30
0
 40
0.0068897637795276
  0
CIRCLE
  5
378
330
1A
100
AcDbEntity
  8
BLACK
100
AcDbCircle
 10
0.9462992125984252
 20
1.068740157480315
 30
0
 40
0.0068897637795276
  0
CIRCLE
  5
379
330
1A
100
AcDbEntity
  8
BLACK
100
AcDbCircle
 10
0.8478740157480315
 20
1.068740157480315
 30
0
 40
0.0068897637795276
  0
CIRCLE
  5
37A
330
1A
100
AcDbEntity
  8
BLACK
100
AcDbCircle
 10
0.7494488188976378
 20
1.068740157480315
 30
0
 40
0.0068897637795276
  0
CIRCLE
  5
37B
330
1A
100
AcDbEntity
  8
BLACK
100
AcDbCircle
 10
0.6510236220472441
 20
1.068740157480315
 30
0
 40
0.0068897637795276
  0
CIRCLE
  5
37C
330
1A
100
AcDbEntity
  8
BLACK
100
AcDbCircle
 10
0.5525984251968504
 20
1.068740157480315
 30
0
 40
0.0068897637795276
  0
CIRCLE
  5
37D
330
1A
100
AcDbEntity
  8
BLACK
100
AcDbCircle
 10
0.9462992125984252
 20
0.9506299212598425
 30
0
 40
0.0068897637795276
  0
CIRCLE
  5
37E
330
1A
100
AcDbEntity
  8
BLACK
100
AcDbCircle
 10
0.8478740157480315
 20
0.9506299212598425
 30
0
 40
0.0068897637795276
  0
CIRCLE
  5
37F
330
1A
100
AcDbEntity
  8
BLACK
100
AcDbCircle
 10
0.7494488188976378
 20
0.9506299212598425
 30
0
 40
0.0068897637795276
  0
CIRCLE
  5
380
330
1A
100
AcDbEntity
  8
BLACK
100
AcDbCircle
 10
0.6510236220472441
 20
0.9506299212598425
 30
0
 40
0.0068897637795276
  0
CIRCLE
  5
381
330
1A
100
AcDbEntity
  8
BLACK
100
AcDbCircle
 10
0.5525984251968504
 20
0.9506299212598425
 30
0
 40
0.0068897637795276
  0
CIRCLE
  5
382
330
1A
100
AcDbEntity
  8
BLACK
100
AcDbCircle
 10
0.9462992125984252
 20
1.285275590551181
 30
0
 40
0.0068897637795276
  0
CIRCLE
  5
383
330
1A
100
AcDbEntity
  8
BLACK
100
AcDbCircle
 10
0.8478740157480315
 20
1.285275590551181
 30
0
 40
0.0068897637795276
  0
CIRCLE
  5
384
330
1A
100
AcDbEntity
  8
BLACK
100
AcDbCircle
 10
0.7494488188976378
 20
1.285275590551181
 30
0
 40
0.0068897637795276
  0
CIRCLE
  5
385
330
1A
100
AcDbEntity
  8
BLACK
100
AcDbCircle
 10
0.6510236220472441
 20
1.285275590551181
 30
0
 40
0.0068897637795276
  0
CIRCLE
  5
386
330
1A
100
AcDbEntity
  8
BLACK
100
AcDbCircle
 10
0.5525984251968504
 20
1.285275590551181
 30
0
 40
0.0068897637795276
  0
CIRCLE
  5
387
330
1A
100
AcDbEntity
  8
BLACK
100
AcDbCircle
 10
0.9462992125984252
 20
1.1671653543307086
 30
0
 40
0.0068897637795276
  0
CIRCLE
  5
388
330
1A
100
AcDbEntity
  8
BLACK
100
AcDbCircle
 10
0.8478740157480315
 20
1.1671653543307086
 30
0
 40
0.0068897637795276
  0
CIRCLE
  5
389
330
1A
100
AcDbEntity
  8
BLACK
100
AcDbCircle
 10
0.7494488188976378
 20
1.1671653543307086
 30
0
 40
0.0068897637795276
  0
CIRCLE
  5
38A
330
1A
100
AcDbEntity
  8
BLACK
100
AcDbCircle
 10
0.6510236220472441
 20
1.1671653543307086
 30
0
 40
0.0068897637795276
  0
CIRCLE
  5
38B
330
1A
100
AcDbEntity
  8
BLACK
100
AcDbCircle
 10
0.5525984251968504
 20
1.1671653543307086
 30
0
 40
0.0068897637795276
  0
CIRCLE
  5
38C
330
1A
100
AcDbEntity
  8
BLACK
100
AcDbCircle
 10
0.9462992125984252
 20
2.1990551181102362
 30
0
 40
0.0068897637795276
  0
CIRCLE
  5
38D
330
1A
100
AcDbEntity
  8
BLACK
100
AcDbCircle
 10
0.8478740157480315
 20
2.1990551181102362
 30
0
 40
0.0068897637795276
  0
CIRCLE
  5
38E
330
1A
100
AcDbEntity
  8
BLACK
100
AcDbCircle
 10
0.7494488188976378
 20
2.1990551181102362
 30
0
 40
0.0068897637795276
  0
CIRCLE
  5
38F
330
1A
100
AcDbEntity
  8
BLACK
100
AcDbCircle
 10
0.6510236220472441
 20
2.1990551181102362
 30
0
 40
0.0068897637795276
  0
CIRCLE
  5
390
330
1A
100
AcDbEntity
  8
BLACK
100
AcDbCircle
 10
0.5525984251968504
 20
2.1990551181102362
 30
0
 40
0.0068897637795276
  0
CIRCLE
  5
391
330
1A
100
AcDbEntity
  8
BLACK
100
AcDbCircle
 10
0.9462992125984252
 20
2.0809448818897636
 30
0
 40
0.0068897637795276
  0
CIRCLE
  5
392
330
1A
100
AcDbEntity
  8
BLACK
100
AcDbCircle
 10
0.8478740157480315
 20
2.0809448818897636
 30
0
 40
0.0068897637795276
  0
CIRCLE
  5
393
330
1A
100
AcDbEntity
  8
BLACK
100
AcDbCircle
 10
0.7494488188976378
 20
2.0809448818897636
 30
0
 40
0.0068897637795276
  0
CIRCLE
  5
394
330
1A
100
AcDbEntity
  8
BLACK
100
AcDbCircle
 10
0.6510236220472441
 20
2.0809448818897636
 30
0
 40
0.0068897637795276
  0
CIRCLE
  5
395
330
1A
100
AcDbEntity
  8
BLACK
100
AcDbCircle
 10
0.5525984251968504
 20
2.0809448818897636
 30
0
 40
0.0068897637795276
  0
CIRCLE
  5
396
330
1A
100
AcDbEntity
  8
BLACK
100
AcDbCircle
 10
0.9462992125984252
 20
2.4155905511811024
 30
0
 40
0.0068897637795276
  0
CIRCLE
  5
397
330
1A
100
AcDbEntity
  8
BLACK
100
AcDbCircle
 10
0.8478740157480315
 20
2.4155905511811024
 30
0
 40
0.0068897637795276
  0
CIRCLE
  5
398
330
1A
100
AcDbEntity
  8
BLACK
100
AcDbCircle
 10
0.7494488188976378
 20
2.4155905511811024
 30
0
 40
0.0068897637795276
  0
CIRCLE
  5
399
330
1A
100
AcDbEntity
  8
BLACK
100
AcDbCircle
 10
0.6510236220472441
 20
2.4155905511811024
 30
0
 40
0.0068897637795276
  0
CIRCLE
  5
39A
330
1A
100
AcDbEntity
  8
BLACK
100
AcDbCircle
 10
0.5525984251968504
 20
2.4155905511811024
 30
0
 40
0.0068897637795276
  0
CIRCLE
  5
39B
330
1A
100
AcDbEntity
  8
BLACK
100
AcDbCircle
 10
0.9462992125984252
 20
2.2974803149606298
 30
0
 40
0.0068897637795276
  0
CIRCLE
  5
39C
330
1A
100
AcDbEntity
  8
BLACK
100
AcDbCircle
 10
0.8478740157480315
 20
2.2974803149606298
 30
0
 40
0.0068897637795276
  0
CIRCLE
  5
39D
330
1A
100
AcDbEntity
  8
BLACK
100
AcDbCircle
 10
0.7494488188976378
 20
2.2974803149606298
 30
0
 40
0.0068897637795276
  0
CIRCLE
  5
39E
330
1A
100
AcDbEntity
  8
BLACK
100
AcDbCircle
 10
0.6510236220472441
 20
2.2974803149606298
 30
0
 40
0.0068897637795276
  0
CIRCLE
  5
39F
330
1A
100
AcDbEntity
  8
BLACK
100
AcDbCircle
 10
0.5525984251968504
 20
2.2974803149606298
 30
0
 40
0.0068897637795276
  0
LINE
  5
3A0
330
1A
100
AcDbEntity
  8
BLACK
  6
CONTINUOUS
100
AcDbLine
 10
5.1037795275590554
 20
1.0157874015748032
 30
0
 11
5.1195275590551184
 21
1.0157874015748032
 31
0
  0
ARC
  5
3A1
330
1A
100
AcDbEntity
  8
BLACK
100
AcDbCircle
 10
5.1195275590551184
 20
1.0256299212598425
 30
0
 40
0.0098425196850394
100
AcDbArc
 50
-90.00000000
 51
90.00000000
  0
LINE
  5
3A2
330
1A
100
AcDbEntity
  8
BLACK
  6
CONTINUOUS
100
AcDbLine
 10
5.1195275590551184
 20
1.0354724409448819
 30
0
 11
5.1037795275590554
 21
1.0354724409448819
 31
0
  0
ARC
  5
3A3
330
1A
100
AcDbEntity
  8
BLACK
100
AcDbCircle
 10
5.1037795275590554
 20
1.0256299212598425
 30
0
 40
0.0098425196850394
100
AcDbArc
 50
90.00000000
 51
270.00000000
  0
LINE
  5
3A4
330
1A
100
AcDbEntity
  8
BLACK
  6
CONTINUOUS
100
AcDbLine
 10
5.1037795275590554
 20
1.1831102362204724
 30
0
 11
5.1195275590551184
 21
1.1831102362204724
 31
0
  0
ARC
  5
3A5
330
1A
100
AcDbEntity
  8
BLACK
100
AcDbCircle
 10
5.1195275590551184
 20
1.1929527559055118
 30
0
 40
0.0098425196850394
100
AcDbArc
 50
-90.00000000
 51
90.00000000
  0
LINE
  5
3A6
330
1A
100
AcDbEntity
  8
BLACK
  6
CONTINUOUS
100
AcDbLine
 10
5.1195275590551184
 20
1.2027952755905511
 30
0
 11
5.1037795275590554
 21
1.2027952755905511
 31
0
  0
ARC
  5
3A7
330
1A
100
AcDbEntity
  8
BLACK
100
AcDbCircle
 10
5.1037795275590554
 20
1.1929527559055118
 30
0
 40
0.0098425196850394
100
AcDbArc
 50
90.00000000
 51
270.00000000
  0
CIRCLE
  5
3A8
330
1A
100
AcDbEntity
  8
BLACK
100
AcDbCircle
 10
5.1360629921259839
 20
2.8010236220472442
 30
0
 40
0.0068897637795276
  0
CIRCLE
  5
3A9
330
1A
100
AcDbEntity
  8
BLACK
100
AcDbCircle
 10
5.1360629921259839
 20
2.5734645669291338
 30
0
 40
0.0068897637795276
  0
LINE
  5
3AA
330
1A
100
AcDbEntity
  8
BLACK
  6
CONTINUOUS
100
AcDbLine
 10
5.2966929133858267
 20
2.8691338582677166
 30
0
 11
5.2651968503937008
 21
2.8691338582677166
 31
0
  0
ARC
  5
3AB
330
1A
100
AcDbEntity
  8
BLACK
100
AcDbCircle
 10
5.2651968503937008
 20
2.8573228346456694
 30
0
 40
0.0118110236220472
100
AcDbArc
 50
90.00000000
 51
270.00000000
  0
LINE
  5
3AC
330
1A
100
AcDbEntity
  8
BLACK
  6
CONTINUOUS
100
AcDbLine
 10
5.2651968503937008
 20
2.8455118110236222
 30
0
 11
5.2966929133858267
 21
2.8455118110236222
 31
0
  0
ARC
  5
3AD
330
1A
100
AcDbEntity
  8
BLACK
100
AcDbCircle
 10
5.2966929133858267
 20
2.8573228346456694
 30
0
 40
0.0118110236220472
100
AcDbArc
 50
270.00000000
 51
450.00000000
  0
LINE
  5
3AE
330
1A
100
AcDbEntity
  8
BLACK
  6
CONTINUOUS
100
AcDbLine
 10
5.2966929133858267
 20
2.5289763779527559
 30
0
 11
5.2651968503937008
 21
2.5289763779527559
 31
0
  0
ARC
  5
3AF
330
1A
100
AcDbEntity
  8
BLACK
100
AcDbCircle
 10
5.2651968503937008
 20
2.5171653543307086
 30
0
 40
0.0118110236220472
100
AcDbArc
 50
90.00000000
 51
270.00000000
  0
LINE
  5
3B0
330
1A
100
AcDbEntity
  8
BLACK
  6
CONTINUOUS
100
AcDbLine
 10
5.2651968503937008
 20
2.5053543307086614
 30
0
 11
5.2966929133858267
 21
2.5053543307086614
 31
0
  0
ARC
  5
3B1
330
1A
100
AcDbEntity
  8
BLACK
100
AcDbCircle
 10
5.2966929133858267
 20
2.5171653543307086
 30
0
 40
0.0118110236220472
100
AcDbArc
 50
270.00000000
 51
450.00000000
  0
LINE
  5
3B2
330
1A
100
AcDbEntity
  8
BLACK
  6
CONTINUOUS
100
AcDbLine
 10
5.1380314960629923
 20
2.8691338582677166
 30
0
 11
5.0947244094488191
 21
2.8691338582677166
 31
0
  0
ARC
  5
3B3
330
1A
100
AcDbEntity
  8
BLACK
100
AcDbCircle
 10
5.0947244094488191
 20
2.8573228346456694
 30
0
 40
0.0118110236220472
100
AcDbArc
 50
90.00000000
 51
270.00000000
  0
LINE
  5
3B4
330
1A
100
AcDbEntity
  8
BLACK
  6
CONTINUOUS
100
AcDbLine
 10
5.0947244094488191
 20
2.8455118110236222
 30
0
 11
5.1380314960629923
 21
2.8455118110236222
 31
0
  0
ARC
  5
3B5
330
1A
100
AcDbEntity
  8
BLACK
100
AcDbCircle
 10
5.1380314960629923
 20
2.8573228346456694
 30
0
 40
0.0118110236220472
100
AcDbArc
 50
270.00000000
 51
450.00000000
  0
LINE
  5
3B6
330
1A
100
AcDbEntity
  8
BLACK
  6
CONTINUOUS
100
AcDbLine
 10
5.1380314960629923
 20
2.5289763779527559
 30
0
 11
5.0947244094488191
 21
2.5289763779527559
 31
0
  0
ARC
  5
3B7
330
1A
100
AcDbEntity
  8
BLACK
100
AcDbCircle
 10
5.0947244094488191
 20
2.5171653543307086
 30
0
 40
0.0118110236220472
100
AcDbArc
 50
90.00000000
 51
270.00000000
  0
LINE
  5
3B8
330
1A
100
AcDbEntity
  8
BLACK
  6
CONTINUOUS
100
AcDbLine
 10
5.0947244094488191
 20
2.5053543307086614
 30
0
 11
5.1380314960629923
 21
2.5053543307086614
 31
0
  0
ARC
  5
3B9
330
1A
100
AcDbEntity
  8
BLACK
100
AcDbCircle
 10
5.1380314960629923
 20
2.5171653543307086
 30
0
 40
0.0118110236220472
100
AcDbArc
 50
270.00000000
 51
450.00000000
  0
ENDSEC
  0
SECTION
  2
OBJECTS
  0
DICTIONARY
  5
20
330
0
100
AcDbDictionary
281
1
  3
ACAD_GROUP
350
3BA
  3
ACAD_LAYOUT
350
21
  3
ACAD_PLOTSTYLENAME
350
11
  0
DICTIONARY
  5
3BA
330
20
100
AcDbDictionary
281
1
  0
ACDBDICTIONARYWDFLT
  5
11
330
20
100
AcDbDictionary
281
1
  3
Normal
350
10
100
AcDbDictionaryWithDefault
340
10
  0
ACDBPLACEHOLDER
  5
10
330
11
  0
DICTIONARY
  5
21
330
20
100
AcDbDictionary
281
1
  3
Model
350
1D
  3
Layout1
350
1E
  3
Layout2
350
1F
  0
LAYOUT
  5
1D
330
21
100
AcDbPlotSettings
  1

  2
none_device
  4
A3
  6

 40
0.0
 41
0.0
 42
0.0
 43
0.0
 44
420.0
 45
297.0
 46
0.0
 47
0.0
 48
0.0
 49
0.0
140
0.0
141
0.0
142
1.0
143
1.0
 70
1024
 72
1
 73
0
 74
5
  7

 75
16
 76
0
 77
2
 78
300
147
1.0
148
0.0
149
0.0
100
AcDbLayout
  1
Model
 70
1
 71
0
 10
0.0
 20
0.0
 11
420.0
 21
297.0
 12
0.0
 22
0.0
 32
0.0
 14
1e+20
 24
1e+20
 34
1e+20
 15
-1e+20
 25
-1e+20
 35
-1e+20
146
0.0
 13
0.0
 23
0.0
 33
0.0
 16
1.0
 26
0.0
 36
0.0
 17
0.0
 27
1.0
 37
0.0
 76
0
330
1A
  0
LAYOUT
  5
1E
330
21
100
AcDbPlotSettings
  1

  2
none_device
  4
A3
  6

 40
0.0
 41
0.0
 42
0.0
 43
0.0
 44
420.0
 45
297.0
 46
0.0
 47
0.0
 48
0.0
 49
0.0
140
0.0
141
0.0
142
1.0
143
1.0
 70
0
 72
1
 73
0
 74
5
  7

 75
16
 76
0
 77
2
 78
300
147
1.0
148
0.0
149
0.0
100
AcDbLayout
  1
Layout1
 70
1
 71
1
 10
0.0
 20
0.0
 11
420.0
 21
297.0
 12
0.0
 22
0.0
 32
0.0
 14
1e+20
 24
1e+20
 34
1e+20
 15
-1e+20
 25
-1e+20
 35
-1e+20
146
0.0
 13
0.0
 23
0.0
 33
0.0
 16
1.0
 26
0.0
 36
0.0
 17
0.0
 27
1.0
 37
0.0
 76
0
330
1B
  0
LAYOUT
  5
1F
330
21
100
AcDbPlotSettings
  1

  2
none_device
  4
A3
  6

 40
0.0
 41
0.0
 42
0.0
 43
0.0
 44
420.0
 45
297.0
 46
0.0
 47
0.0
 48
0.0
 49
0.0
140
0.0
141
0.0
142
1.0
143
1.0
 70
0
 72
1
 73
0
 74
5
  7

 75
16
 76
0
 77
2
 78
300
147
1.0
148
0.0
149
0.0
100
AcDbLayout
  1
Layout2
 70
1
 71
2
 10
0.0
 20
0.0
 11
420.0
 21
297.0
 12
0.0
 22
0.0
 32
0.0
 14
1e+20
 24
1e+20
 34
1e+20
 15
-1e+20
 25
-1e+20
 35
-1e+20
146
0.0
 13
0.0
 23
0.0
 33
0.0
 16
1.0
 26
0.0
 36
0.0
 17
0.0
 27
1.0
 37
0.0
 76
0
330
1C
  0
ENDSEC
  0
EOF
