  0
SECTION
  2
HEADER
  9
$ANGBASE
  50
0.0
  9
$ANGDIR
  70
1
  9
$MEASUREMENT
  70
0
  0
ENDSEC
  0
SECTION
  2
TABLES
  0
TABLE
  2
LTYPE
  70
4
  0
LTYPE
  5
40F
  2
CONTINUOUS
  70
0
  3
Solid line
  72
65
  73
0
  40
0.0
  0
LTYPE
  5
410
  2
DASHDOT
 70
0
  3
Dash Dot ____ _ ____ _
 72
65
 73
4
 40
2.0
 49
1.25
 49
-0.25
 49
0.25
 49
-0.25
  0
LTYPE
  5
411
  2
DASHED
 70
0
  3
Dashed __ __ __ __ __
 72
65
 73
2
 40
0.75
 49
0.5
 49
-0.25
  0
LTYPE
  5
43B
  2
DOTTED
 70
0
  3
Dotted .  .  .  .
 72
65
 73
2
 40
0.2
 49
0.0
 49
-0.2
  0
ENDTAB
  0
TABLE
  2
STYLE
  70
4
  0
STYLE
  2
KICAD
  70
0
  40
0
  41
1
  42
1
  50
0
  71
0
  3
isocp.shx
  0
STYLE
  2
KICADB
  70
0
  40
0
  41
1
  42
1
  50
0
  71
0
  3
isocp.shx
  0
STYLE
  2
KICADI
  70
0
  40
0
  41
1
  42
1
  50
15
  71
0
  3
isocp.shx
  0
STYLE
  2
KICADBI
  70
0
  40
0
  41
1
  42
1
  50
15
  71
0
  3
isocp.shx
  0
ENDTAB
  0
TABLE
  2
LAYER
  70
1
  0
LAYER
  2
BLACK
  70
0
  62
7
  6
CONTINUOUS
  0
ENDTAB
  0
ENDSEC
  0
SECTION
  2
ENTITIES
0
CIRCLE
8
BLACK
10
1.4364566929133857
20
0.5951181102362204
40
0.0068897637795276
0
CIRCLE
8
BLACK
10
2.1962992125984253
20
0.5951181102362204
40
0.0068897637795276
0
CIRCLE
8
BLACK
10
1.4364566929133857
20
2.7848818897637795
40
0.0068897637795276
0
CIRCLE
8
BLACK
10
2.1962992125984253
20
2.7848818897637795
40
0.0068897637795276
0
CIRCLE
8
BLACK
10
1.4364566929133857
20
0.2608661417322835
40
0.0068897637795276
0
CIRCLE
8
BLACK
10
1.4364566929133857
20
3.1191338582677166
40
0.0068897637795276
0
CIRCLE
8
BLACK
10
2.1962992125984253
20
0.2608661417322835
40
0.0068897637795276
0
CIRCLE
8
BLACK
10
2.1962992125984253
20
3.1191338582677166
40
0.0068897637795276
0
CIRCLE
8
BLACK
10
5.1899999999999995
20
3.0899999999999999
40
0.0068897637795276
0
LINE
8
BLACK
6
CONTINUOUS
10
5.0998425196850397
20
1.3051574803149606
11
5.1155905511811026
21
1.3051574803149606
0
ARC
8
BLACK
10
5.1155905511811026
20
1.3149999999999999
40
0.0098425196850394
50
-90.00000000
51
90.00000000
0
LINE
8
BLACK
6
CONTINUOUS
10
5.1155905511811026
20
1.3248425196850393
11
5.0998425196850397
21
1.3248425196850393
0
ARC
8
BLACK
10
5.0998425196850397
20
1.3149999999999999
40
0.0098425196850394
50
90.00000000
51
270.00000000
0
LINE
8
BLACK
6
CONTINUOUS
10
5.0998425196850397
20
1.4724803149606298
11
5.1155905511811026
21
1.4724803149606298
0
ARC
8
BLACK
10
5.1155905511811026
20
1.4823228346456692
40
0.0098425196850394
50
-90.00000000
51
90.00000000
0
LINE
8
BLACK
6
CONTINUOUS
10
5.1155905511811026
20
1.4921653543307087
11
5.0998425196850397
21
1.4921653543307087
0
ARC
8
BLACK
10
5.0998425196850397
20
1.4823228346456692
40
0.0098425196850394
50
90.00000000
51
270.00000000
0
CIRCLE
8
BLACK
10
0.39
20
3.0899999999999999
40
0.0068897637795276
0
CIRCLE
8
BLACK
10
3.0506299212598424
20
0.5953149606299213
40
0.0068897637795276
0
CIRCLE
8
BLACK
10
3.8104724409448818
20
0.5953149606299213
40
0.0068897637795276
0
CIRCLE
8
BLACK
10
4.5703149606299212
20
0.5953149606299213
40
0.0068897637795276
0
CIRCLE
8
BLACK
10
3.0506299212598424
20
2.7846850393700788
40
0.0068897637795276
0
CIRCLE
8
BLACK
10
3.8104724409448818
20
2.7846850393700788
40
0.0068897637795276
0
CIRCLE
8
BLACK
10
4.5703149606299212
20
2.7846850393700788
40
0.0068897637795276
0
CIRCLE
8
BLACK
10
3.0506299212598424
20
0.2628346456692913
40
0.0068897637795276
0
CIRCLE
8
BLACK
10
3.0506299212598424
20
3.1171653543307087
40
0.0068897637795276
0
CIRCLE
8
BLACK
10
3.8104724409448818
20
0.2628346456692913
40
0.0068897637795276
0
CIRCLE
8
BLACK
10
3.8104724409448818
20
3.1171653543307087
40
0.0068897637795276
0
CIRCLE
8
BLACK
10
4.5703149606299212
20
0.2628346456692913
40
0.0068897637795276
0
CIRCLE
8
BLACK
10
4.5703149606299212
20
3.1171653543307087
40
0.0068897637795276
0
CIRCLE
8
BLACK
10
5.1899999999999995
20
0.29
40
0.0068897637795276
0
CIRCLE
8
BLACK
10
0.39
20
0.29
40
0.0068897637795276
0
CIRCLE
8
BLACK
10
0.7494488188976378
20
2.6321259842519686
40
0.0068897637795276
0
CIRCLE
8
BLACK
10
0.7494488188976378
20
0.7340944881889764
40
0.0068897637795276
0
CIRCLE
8
BLACK
10
0.5289763779527559
20
1.4931496062992127
40
0.0068897637795276
0
CIRCLE
8
BLACK
10
0.5289763779527559
20
1.5718897637795275
40
0.0068897637795276
0
CIRCLE
8
BLACK
10
0.5289763779527559
20
1.6506299212598425
40
0.0068897637795276
0
CIRCLE
8
BLACK
10
0.5289763779527559
20
1.7293700787401574
40
0.0068897637795276
0
CIRCLE
8
BLACK
10
0.5289763779527559
20
1.8081102362204724
40
0.0068897637795276
0
CIRCLE
8
BLACK
10
0.5289763779527559
20
1.8868503937007874
40
0.0068897637795276
0
CIRCLE
8
BLACK
10
0.6077165354330708
20
1.4931496062992127
40
0.0068897637795276
0
CIRCLE
8
BLACK
10
0.6077165354330708
20
1.5718897637795275
40
0.0068897637795276
0
CIRCLE
8
BLACK
10
0.6077165354330708
20
1.6506299212598425
40
0.0068897637795276
0
CIRCLE
8
BLACK
10
0.6077165354330708
20
1.7293700787401574
40
0.0068897637795276
0
CIRCLE
8
BLACK
10
0.6077165354330708
20
1.8081102362204724
40
0.0068897637795276
0
CIRCLE
8
BLACK
10
0.6077165354330708
20
1.8868503937007874
40
0.0068897637795276
0
CIRCLE
8
BLACK
10
0.6864566929133858
20
1.4931496062992127
40
0.0068897637795276
0
CIRCLE
8
BLACK
10
0.6864566929133858
20
1.5718897637795275
40
0.0068897637795276
0
CIRCLE
8
BLACK
10
0.6864566929133858
20
1.6506299212598425
40
0.0068897637795276
0
CIRCLE
8
BLACK
10
0.6864566929133858
20
1.7293700787401574
40
0.0068897637795276
0
CIRCLE
8
BLACK
10
0.6864566929133858
20
1.8081102362204724
40
0.0068897637795276
0
CIRCLE
8
BLACK
10
0.6864566929133858
20
1.8868503937007874
40
0.0068897637795276
0
CIRCLE
8
BLACK
10
0.7651968503937008
20
1.4931496062992127
40
0.0068897637795276
0
CIRCLE
8
BLACK
10
0.7651968503937008
20
1.5718897637795275
40
0.0068897637795276
0
CIRCLE
8
BLACK
10
0.7651968503937008
20
1.6506299212598425
40
0.0068897637795276
0
CIRCLE
8
BLACK
10
0.7651968503937008
20
1.7293700787401574
40
0.0068897637795276
0
CIRCLE
8
BLACK
10
0.7651968503937008
20
1.8081102362204724
40
0.0068897637795276
0
CIRCLE
8
BLACK
10
0.7651968503937008
20
1.8868503937007874
40
0.0068897637795276
0
CIRCLE
8
BLACK
10
0.8439370078740157
20
1.4931496062992127
40
0.0068897637795276
0
CIRCLE
8
BLACK
10
0.8439370078740157
20
1.5718897637795275
40
0.0068897637795276
0
CIRCLE
8
BLACK
10
0.8439370078740157
20
1.6506299212598425
40
0.0068897637795276
0
CIRCLE
8
BLACK
10
0.8439370078740157
20
1.7293700787401574
40
0.0068897637795276
0
CIRCLE
8
BLACK
10
0.8439370078740157
20
1.8081102362204724
40
0.0068897637795276
0
CIRCLE
8
BLACK
10
0.8439370078740157
20
1.8868503937007874
40
0.0068897637795276
0
CIRCLE
8
BLACK
10
0.9462992125984252
20
1.068740157480315
40
0.0068897637795276
0
CIRCLE
8
BLACK
10
0.8478740157480315
20
1.068740157480315
40
0.0068897637795276
0
CIRCLE
8
BLACK
10
0.7494488188976378
20
1.068740157480315
40
0.0068897637795276
0
CIRCLE
8
BLACK
10
0.6510236220472441
20
1.068740157480315
40
0.0068897637795276
0
CIRCLE
8
BLACK
10
0.5525984251968504
20
1.068740157480315
40
0.0068897637795276
0
CIRCLE
8
BLACK
10
0.9462992125984252
20
0.9506299212598425
40
0.0068897637795276
0
CIRCLE
8
BLACK
10
0.8478740157480315
20
0.9506299212598425
40
0.0068897637795276
0
CIRCLE
8
BLACK
10
0.7494488188976378
20
0.9506299212598425
40
0.0068897637795276
0
CIRCLE
8
BLACK
10
0.6510236220472441
20
0.9506299212598425
40
0.0068897637795276
0
CIRCLE
8
BLACK
10
0.5525984251968504
20
0.9506299212598425
40
0.0068897637795276
0
CIRCLE
8
BLACK
10
0.9462992125984252
20
1.285275590551181
40
0.0068897637795276
0
CIRCLE
8
BLACK
10
0.8478740157480315
20
1.285275590551181
40
0.0068897637795276
0
CIRCLE
8
BLACK
10
0.7494488188976378
20
1.285275590551181
40
0.0068897637795276
0
CIRCLE
8
BLACK
10
0.6510236220472441
20
1.285275590551181
40
0.0068897637795276
0
CIRCLE
8
BLACK
10
0.5525984251968504
20
1.285275590551181
40
0.0068897637795276
0
CIRCLE
8
BLACK
10
0.9462992125984252
20
1.1671653543307086
40
0.0068897637795276
0
CIRCLE
8
BLACK
10
0.8478740157480315
20
1.1671653543307086
40
0.0068897637795276
0
CIRCLE
8
BLACK
10
0.7494488188976378
20
1.1671653543307086
40
0.0068897637795276
0
CIRCLE
8
BLACK
10
0.6510236220472441
20
1.1671653543307086
40
0.0068897637795276
0
CIRCLE
8
BLACK
10
0.5525984251968504
20
1.1671653543307086
40
0.0068897637795276
0
CIRCLE
8
BLACK
10
0.9462992125984252
20
2.1990551181102362
40
0.0068897637795276
0
CIRCLE
8
BLACK
10
0.8478740157480315
20
2.1990551181102362
40
0.0068897637795276
0
CIRCLE
8
BLACK
10
0.7494488188976378
20
2.1990551181102362
40
0.0068897637795276
0
CIRCLE
8
BLACK
10
0.6510236220472441
20
2.1990551181102362
40
0.0068897637795276
0
CIRCLE
8
BLACK
10
0.5525984251968504
20
2.1990551181102362
40
0.0068897637795276
0
CIRCLE
8
BLACK
10
0.9462992125984252
20
2.0809448818897636
40
0.0068897637795276
0
CIRCLE
8
BLACK
10
0.8478740157480315
20
2.0809448818897636
40
0.0068897637795276
0
CIRCLE
8
BLACK
10
0.7494488188976378
20
2.0809448818897636
40
0.0068897637795276
0
CIRCLE
8
BLACK
10
0.6510236220472441
20
2.0809448818897636
40
0.0068897637795276
0
CIRCLE
8
BLACK
10
0.5525984251968504
20
2.0809448818897636
40
0.0068897637795276
0
CIRCLE
8
BLACK
10
0.9462992125984252
20
2.4155905511811024
40
0.0068897637795276
0
CIRCLE
8
BLACK
10
0.8478740157480315
20
2.4155905511811024
40
0.0068897637795276
0
CIRCLE
8
BLACK
10
0.7494488188976378
20
2.4155905511811024
40
0.0068897637795276
0
CIRCLE
8
BLACK
10
0.6510236220472441
20
2.4155905511811024
40
0.0068897637795276
0
CIRCLE
8
BLACK
10
0.5525984251968504
20
2.4155905511811024
40
0.0068897637795276
0
CIRCLE
8
BLACK
10
0.9462992125984252
20
2.2974803149606298
40
0.0068897637795276
0
CIRCLE
8
BLACK
10
0.8478740157480315
20
2.2974803149606298
40
0.0068897637795276
0
CIRCLE
8
BLACK
10
0.7494488188976378
20
2.2974803149606298
40
0.0068897637795276
0
CIRCLE
8
BLACK
10
0.6510236220472441
20
2.2974803149606298
40
0.0068897637795276
0
CIRCLE
8
BLACK
10
0.5525984251968504
20
2.2974803149606298
40
0.0068897637795276
0
LINE
8
BLACK
6
CONTINUOUS
10
5.1037795275590554
20
1.0157874015748032
11
5.1195275590551184
21
1.0157874015748032
0
ARC
8
BLACK
10
5.1195275590551184
20
1.0256299212598425
40
0.0098425196850394
50
-90.00000000
51
90.00000000
0
LINE
8
BLACK
6
CONTINUOUS
10
5.1195275590551184
20
1.0354724409448819
11
5.1037795275590554
21
1.0354724409448819
0
ARC
8
BLACK
10
5.1037795275590554
20
1.0256299212598425
40
0.0098425196850394
50
90.00000000
51
270.00000000
0
LINE
8
BLACK
6
CONTINUOUS
10
5.1037795275590554
20
1.1831102362204724
11
5.1195275590551184
21
1.1831102362204724
0
ARC
8
BLACK
10
5.1195275590551184
20
1.1929527559055118
40
0.0098425196850394
50
-90.00000000
51
90.00000000
0
LINE
8
BLACK
6
CONTINUOUS
10
5.1195275590551184
20
1.2027952755905511
11
5.1037795275590554
21
1.2027952755905511
0
ARC
8
BLACK
10
5.1037795275590554
20
1.1929527559055118
40
0.0098425196850394
50
90.00000000
51
270.00000000
0
CIRCLE
8
BLACK
10
5.1360629921259839
20
2.8010236220472442
40
0.0068897637795276
0
CIRCLE
8
BLACK
10
5.1360629921259839
20
2.5734645669291338
40
0.0068897637795276
0
LINE
8
BLACK
6
CONTINUOUS
10
5.2966929133858267
20
2.8691338582677166
11
5.2651968503937008
21
2.8691338582677166
0
ARC
8
BLACK
10
5.2651968503937008
20
2.8573228346456694
40
0.0118110236220472
50
90.00000000
51
270.00000000
0
LINE
8
BLACK
6
CONTINUOUS
10
5.2651968503937008
20
2.8455118110236222
11
5.2966929133858267
21
2.8455118110236222
0
ARC
8
BLACK
10
5.2966929133858267
20
2.8573228346456694
40
0.0118110236220472
50
270.00000000
51
450.00000000
0
LINE
8
BLACK
6
CONTINUOUS
10
5.2966929133858267
20
2.5289763779527559
11
5.2651968503937008
21
2.5289763779527559
0
ARC
8
BLACK
10
5.2651968503937008
20
2.5171653543307086
40
0.0118110236220472
50
90.00000000
51
270.00000000
0
LINE
8
BLACK
6
CONTINUOUS
10
5.2651968503937008
20
2.5053543307086614
11
5.2966929133858267
21
2.5053543307086614
0
ARC
8
BLACK
10
5.2966929133858267
20
2.5171653543307086
40
0.0118110236220472
50
270.00000000
51
450.00000000
0
LINE
8
BLACK
6
CONTINUOUS
10
5.1380314960629923
20
2.8691338582677166
11
5.0947244094488191
21
2.8691338582677166
0
ARC
8
BLACK
10
5.0947244094488191
20
2.8573228346456694
40
0.0118110236220472
50
90.00000000
51
270.00000000
0
LINE
8
BLACK
6
CONTINUOUS
10
5.0947244094488191
20
2.8455118110236222
11
5.1380314960629923
21
2.8455118110236222
0
ARC
8
BLACK
10
5.1380314960629923
20
2.8573228346456694
40
0.0118110236220472
50
270.00000000
51
450.00000000
0
LINE
8
BLACK
6
CONTINUOUS
10
5.1380314960629923
20
2.5289763779527559
11
5.0947244094488191
21
2.5289763779527559
0
ARC
8
BLACK
10
5.0947244094488191
20
2.5171653543307086
40
0.0118110236220472
50
90.00000000
51
270.00000000
0
LINE
8
BLACK
6
CONTINUOUS
10
5.0947244094488191
20
2.5053543307086614
11
5.1380314960629923
21
2.5053543307086614
0
ARC
8
BLACK
10
5.1380314960629923
20
2.5171653543307086
40
0.0118110236220472
50
270.00000000
51
450.00000000
  0
ENDSEC
  0
EOF
