  0
SECTION
  2
HEADER
  9
$ANGBASE
  50
0.0
  9
$ANGDIR
  70
1
  9
$MEASUREMENT
  70
0
  0
ENDSEC
  0
SECTION
  2
TABLES
  0
TABLE
  2
LTYPE
  70
4
  0
LTYPE
  5
40F
  2
CONTINUOUS
  70
0
  3
Solid line
  72
65
  73
0
  40
0.0
  0
LTYPE
  5
410
  2
DASHDOT
 70
0
  3
Dash Dot ____ _ ____ _
 72
65
 73
4
 40
2.0
 49
1.25
 49
-0.25
 49
0.25
 49
-0.25
  0
LTYPE
  5
411
  2
DASHED
 70
0
  3
Dashed __ __ __ __ __
 72
65
 73
2
 40
0.75
 49
0.5
 49
-0.25
  0
LTYPE
  5
43B
  2
DOTTED
 70
0
  3
Dotted .  .  .  .
 72
65
 73
2
 40
0.2
 49
0.0
 49
-0.2
  0
ENDTAB
  0
TABLE
  2
STYLE
  70
4
  0
STYLE
  2
KICAD
  70
0
  40
0
  41
1
  42
1
  50
0
  71
0
  3
isocp.shx
  0
STYLE
  2
KICADB
  70
0
  40
0
  41
1
  42
1
  50
0
  71
0
  3
isocp.shx
  0
STYLE
  2
KICADI
  70
0
  40
0
  41
1
  42
1
  50
15
  71
0
  3
isocp.shx
  0
STYLE
  2
KICADBI
  70
0
  40
0
  41
1
  42
1
  50
15
  71
0
  3
isocp.shx
  0
ENDTAB
  0
TABLE
  2
LAYER
  70
1
  0
LAYER
  2
BLACK
  70
0
  62
7
  6
CONTINUOUS
  0
ENDTAB
  0
ENDSEC
  0
SECTION
  2
ENTITIES
0
LINE
8
BLACK
6
CONTINUOUS
10
2.26638
20
2.44984
11
2.26777
21
2.44927
0
LINE
8
BLACK
6
CONTINUOUS
10
2.26777
20
2.44927
11
2.26835
21
2.44787
0
LINE
8
BLACK
6
CONTINUOUS
10
2.26835
20
2.44787
11
2.26835
21
2.37307
0
LINE
8
BLACK
6
CONTINUOUS
10
2.26835
20
2.37307
11
2.26777
21
2.37168
0
LINE
8
BLACK
6
CONTINUOUS
10
2.26777
20
2.37168
11
2.26638
21
2.3711
0
LINE
8
BLACK
6
CONTINUOUS
10
2.26638
20
2.3711
11
2.13409
21
2.3711
0
LINE
8
BLACK
6
CONTINUOUS
10
2.13409
20
2.3711
11
2.1327
21
2.37168
0
LINE
8
BLACK
6
CONTINUOUS
10
2.1327
20
2.37168
11
2.13213
21
2.37307
0
LINE
8
BLACK
6
CONTINUOUS
10
2.13213
20
2.37307
11
2.13213
21
2.44787
0
LINE
8
BLACK
6
CONTINUOUS
10
2.13213
20
2.44787
11
2.1327
21
2.44927
0
LINE
8
BLACK
6
CONTINUOUS
10
2.1327
20
2.44927
11
2.13409
21
2.44984
0
LINE
8
BLACK
6
CONTINUOUS
10
2.13409
20
2.44984
11
2.26638
21
2.44984
0
LINE
8
BLACK
6
CONTINUOUS
10
2.13606
20
2.44591
11
2.13606
21
2.37504
0
LINE
8
BLACK
6
CONTINUOUS
10
2.13606
20
2.37504
11
2.26441
21
2.37504
0
LINE
8
BLACK
6
CONTINUOUS
10
2.26441
20
2.37504
11
2.26441
21
2.44591
0
LINE
8
BLACK
6
CONTINUOUS
10
2.26441
20
2.44591
11
2.13606
21
2.44591
0
LINE
8
BLACK
6
CONTINUOUS
10
2.61776
20
3.23134
11
2.61915
21
3.23076
0
LINE
8
BLACK
6
CONTINUOUS
10
2.61915
20
3.23076
11
2.61972
21
3.22937
0
LINE
8
BLACK
6
CONTINUOUS
10
2.61972
20
3.22937
11
2.61972
21
0.15063
0
LINE
8
BLACK
6
CONTINUOUS
10
2.61972
20
0.15063
11
2.61915
21
0.149238
0
LINE
8
BLACK
6
CONTINUOUS
10
2.61915
20
0.149238
11
2.61776
21
0.148661
0
LINE
8
BLACK
6
CONTINUOUS
10
2.61776
20
0.148661
11
1.015
21
0.148661
0
LINE
8
BLACK
6
CONTINUOUS
10
1.015
20
0.148661
11
1.01361
21
0.149238
0
LINE
8
BLACK
6
CONTINUOUS
10
1.01361
20
0.149238
11
1.01303
21
0.15063
0
LINE
8
BLACK
6
CONTINUOUS
10
1.01303
20
0.15063
11
1.01303
21
3.22937
0
LINE
8
BLACK
6
CONTINUOUS
10
1.01303
20
3.22937
11
1.01361
21
3.23076
0
LINE
8
BLACK
6
CONTINUOUS
10
1.01361
20
3.23076
11
1.015
21
3.23134
0
LINE
8
BLACK
6
CONTINUOUS
10
1.015
20
3.23134
11
2.61776
21
3.23134
0
LINE
8
BLACK
6
CONTINUOUS
10
1.01697
20
3.2274
11
1.01697
21
0.152598
0
LINE
8
BLACK
6
CONTINUOUS
10
1.01697
20
0.152598
11
2.61579
21
0.152598
0
LINE
8
BLACK
6
CONTINUOUS
10
2.61579
20
0.152598
11
2.61579
21
3.2274
0
LINE
8
BLACK
6
CONTINUOUS
10
2.61579
20
3.2274
11
1.01697
21
3.2274
0
LINE
8
BLACK
6
CONTINUOUS
10
3.11677
20
2.44984
11
3.11816
21
2.44927
0
LINE
8
BLACK
6
CONTINUOUS
10
3.11816
20
2.44927
11
3.11874
21
2.44787
0
LINE
8
BLACK
6
CONTINUOUS
10
3.11874
20
2.44787
11
3.11874
21
2.37307
0
LINE
8
BLACK
6
CONTINUOUS
10
3.11874
20
2.37307
11
3.11816
21
2.37168
0
LINE
8
BLACK
6
CONTINUOUS
10
3.11816
20
2.37168
11
3.11677
21
2.3711
0
LINE
8
BLACK
6
CONTINUOUS
10
3.11677
20
2.3711
11
2.98449
21
2.3711
0
LINE
8
BLACK
6
CONTINUOUS
10
2.98449
20
2.3711
11
2.9831
21
2.37168
0
LINE
8
BLACK
6
CONTINUOUS
10
2.9831
20
2.37168
11
2.98252
21
2.37307
0
LINE
8
BLACK
6
CONTINUOUS
10
2.98252
20
2.37307
11
2.98252
21
2.44787
0
LINE
8
BLACK
6
CONTINUOUS
10
2.98252
20
2.44787
11
2.9831
21
2.44927
0
LINE
8
BLACK
6
CONTINUOUS
10
2.9831
20
2.44927
11
2.98449
21
2.44984
0
LINE
8
BLACK
6
CONTINUOUS
10
2.98449
20
2.44984
11
3.11677
21
2.44984
0
LINE
8
BLACK
6
CONTINUOUS
10
2.98646
20
2.44591
11
2.98646
21
2.37504
0
LINE
8
BLACK
6
CONTINUOUS
10
2.98646
20
2.37504
11
3.1148
21
2.37504
0
LINE
8
BLACK
6
CONTINUOUS
10
3.1148
20
2.37504
11
3.1148
21
2.44591
0
LINE
8
BLACK
6
CONTINUOUS
10
3.1148
20
2.44591
11
2.98646
21
2.44591
0
LINE
8
BLACK
6
CONTINUOUS
10
4.99531
20
3.23134
11
4.99671
21
3.23076
0
LINE
8
BLACK
6
CONTINUOUS
10
4.99671
20
3.23076
11
4.99728
21
3.22937
0
LINE
8
BLACK
6
CONTINUOUS
10
4.99728
20
3.22937
11
4.99728
21
0.15063
0
LINE
8
BLACK
6
CONTINUOUS
10
4.99728
20
0.15063
11
4.99671
21
0.149238
0
LINE
8
BLACK
6
CONTINUOUS
10
4.99671
20
0.149238
11
4.99531
21
0.148661
0
LINE
8
BLACK
6
CONTINUOUS
10
4.99531
20
0.148661
11
2.62563
21
0.148661
0
LINE
8
BLACK
6
CONTINUOUS
10
2.62563
20
0.148661
11
2.62424
21
0.149238
0
LINE
8
BLACK
6
CONTINUOUS
10
2.62424
20
0.149238
11
2.62366
21
0.15063
0
LINE
8
BLACK
6
CONTINUOUS
10
2.62366
20
0.15063
11
2.62366
21
3.22937
0
LINE
8
BLACK
6
CONTINUOUS
10
2.62366
20
3.22937
11
2.62424
21
3.23076
0
LINE
8
BLACK
6
CONTINUOUS
10
2.62424
20
3.23076
11
2.62563
21
3.23134
0
LINE
8
BLACK
6
CONTINUOUS
10
2.62563
20
3.23134
11
4.99531
21
3.23134
0
LINE
8
BLACK
6
CONTINUOUS
10
2.6276
20
3.2274
11
2.6276
21
0.152598
0
LINE
8
BLACK
6
CONTINUOUS
10
2.6276
20
0.152598
11
4.99335
21
0.152598
0
LINE
8
BLACK
6
CONTINUOUS
10
4.99335
20
0.152598
11
4.99335
21
3.2274
0
LINE
8
BLACK
6
CONTINUOUS
10
4.99335
20
3.2274
11
2.6276
21
3.2274
0
LINE
8
BLACK
6
CONTINUOUS
10
5.27819
20
1.97346
11
5.27958
21
1.97289
0
LINE
8
BLACK
6
CONTINUOUS
10
5.27958
20
1.97289
11
5.28016
21
1.9715
0
LINE
8
BLACK
6
CONTINUOUS
10
5.28016
20
1.9715
11
5.28016
21
1.89669
0
LINE
8
BLACK
6
CONTINUOUS
10
5.28016
20
1.89669
11
5.28001
21
1.89634
0
LINE
8
BLACK
6
CONTINUOUS
10
5.28001
20
1.89634
11
5.28057
21
1.89612
0
LINE
8
BLACK
6
CONTINUOUS
10
5.28057
20
1.89612
11
5.28114
21
1.89472
0
LINE
8
BLACK
6
CONTINUOUS
10
5.28114
20
1.89472
11
5.28114
21
1.81992
0
LINE
8
BLACK
6
CONTINUOUS
10
5.28114
20
1.81992
11
5.281
21
1.81957
0
LINE
8
BLACK
6
CONTINUOUS
10
5.281
20
1.81957
11
5.28155
21
1.81934
0
LINE
8
BLACK
6
CONTINUOUS
10
5.28155
20
1.81934
11
5.28213
21
1.81795
0
LINE
8
BLACK
6
CONTINUOUS
10
5.28213
20
1.81795
11
5.28213
21
1.74315
0
LINE
8
BLACK
6
CONTINUOUS
10
5.28213
20
1.74315
11
5.28198
21
1.7428
0
LINE
8
BLACK
6
CONTINUOUS
10
5.28198
20
1.7428
11
5.28253
21
1.74257
0
LINE
8
BLACK
6
CONTINUOUS
10
5.28253
20
1.74257
11
5.28311
21
1.74118
0
LINE
8
BLACK
6
CONTINUOUS
10
5.28311
20
1.74118
11
5.28311
21
1.66638
0
LINE
8
BLACK
6
CONTINUOUS
10
5.28311
20
1.66638
11
5.28253
21
1.66499
0
LINE
8
BLACK
6
CONTINUOUS
10
5.28253
20
1.66499
11
5.28114
21
1.66441
0
LINE
8
BLACK
6
CONTINUOUS
10
5.28114
20
1.66441
11
5.14886
21
1.66441
0
LINE
8
BLACK
6
CONTINUOUS
10
5.14886
20
1.66441
11
5.14747
21
1.66499
0
LINE
8
BLACK
6
CONTINUOUS
10
5.14747
20
1.66499
11
5.14689
21
1.66638
0
LINE
8
BLACK
6
CONTINUOUS
10
5.14689
20
1.66638
11
5.14689
21
1.74118
0
LINE
8
BLACK
6
CONTINUOUS
10
5.14689
20
1.74118
11
5.14703
21
1.74153
0
LINE
8
BLACK
6
CONTINUOUS
10
5.14703
20
1.74153
11
5.14648
21
1.74176
0
LINE
8
BLACK
6
CONTINUOUS
10
5.14648
20
1.74176
11
5.14591
21
1.74315
0
LINE
8
BLACK
6
CONTINUOUS
10
5.14591
20
1.74315
11
5.14591
21
1.81795
0
LINE
8
BLACK
6
CONTINUOUS
10
5.14591
20
1.81795
11
5.14605
21
1.8183
0
LINE
8
BLACK
6
CONTINUOUS
10
5.14605
20
1.8183
11
5.1455
21
1.81853
0
LINE
8
BLACK
6
CONTINUOUS
10
5.1455
20
1.81853
11
5.14492
21
1.81992
0
LINE
8
BLACK
6
CONTINUOUS
10
5.14492
20
1.81992
11
5.14492
21
1.89472
0
LINE
8
BLACK
6
CONTINUOUS
10
5.14492
20
1.89472
11
5.14507
21
1.89507
0
LINE
8
BLACK
6
CONTINUOUS
10
5.14507
20
1.89507
11
5.14451
21
1.8953
0
LINE
8
BLACK
6
CONTINUOUS
10
5.14451
20
1.8953
11
5.14394
21
1.89669
0
LINE
8
BLACK
6
CONTINUOUS
10
5.14394
20
1.89669
11
5.14394
21
1.9715
0
LINE
8
BLACK
6
CONTINUOUS
10
5.14394
20
1.9715
11
5.14451
21
1.97289
0
LINE
8
BLACK
6
CONTINUOUS
10
5.14451
20
1.97289
11
5.14591
21
1.97346
0
LINE
8
BLACK
6
CONTINUOUS
10
5.14591
20
1.97346
11
5.27819
21
1.97346
0
LINE
8
BLACK
6
CONTINUOUS
10
5.15083
20
1.73921
11
5.15083
21
1.66835
0
LINE
8
BLACK
6
CONTINUOUS
10
5.15083
20
1.66835
11
5.27917
21
1.66835
0
LINE
8
BLACK
6
CONTINUOUS
10
5.27917
20
1.66835
11
5.27917
21
1.73921
0
LINE
8
BLACK
6
CONTINUOUS
10
5.27917
20
1.73921
11
5.15083
21
1.73921
0
LINE
8
BLACK
6
CONTINUOUS
10
5.14984
20
1.81598
11
5.14984
21
1.74512
0
LINE
8
BLACK
6
CONTINUOUS
10
5.14984
20
1.74512
11
5.27819
21
1.74512
0
LINE
8
BLACK
6
CONTINUOUS
10
5.27819
20
1.74512
11
5.27819
21
1.81598
0
LINE
8
BLACK
6
CONTINUOUS
10
5.27819
20
1.81598
11
5.14984
21
1.81598
0
LINE
8
BLACK
6
CONTINUOUS
10
5.14886
20
1.89276
11
5.14886
21
1.82189
0
LINE
8
BLACK
6
CONTINUOUS
10
5.14886
20
1.82189
11
5.2772
21
1.82189
0
LINE
8
BLACK
6
CONTINUOUS
10
5.2772
20
1.82189
11
5.2772
21
1.89276
0
LINE
8
BLACK
6
CONTINUOUS
10
5.2772
20
1.89276
11
5.14886
21
1.89276
0
LINE
8
BLACK
6
CONTINUOUS
10
5.14787
20
1.96953
11
5.14787
21
1.89866
0
LINE
8
BLACK
6
CONTINUOUS
10
5.14787
20
1.89866
11
5.27622
21
1.89866
0
LINE
8
BLACK
6
CONTINUOUS
10
5.27622
20
1.89866
11
5.27622
21
1.96953
0
LINE
8
BLACK
6
CONTINUOUS
10
5.27622
20
1.96953
11
5.14787
21
1.96953
0
LINE
8
BLACK
6
CONTINUOUS
10
5.27868
20
2.44984
11
5.28007
21
2.44927
0
LINE
8
BLACK
6
CONTINUOUS
10
5.28007
20
2.44927
11
5.28065
21
2.44787
0
LINE
8
BLACK
6
CONTINUOUS
10
5.28065
20
2.44787
11
5.28065
21
2.37307
0
LINE
8
BLACK
6
CONTINUOUS
10
5.28065
20
2.37307
11
5.28024
21
2.37209
0
LINE
8
BLACK
6
CONTINUOUS
10
5.28024
20
2.37209
11
5.28065
21
2.3711
0
LINE
8
BLACK
6
CONTINUOUS
10
5.28065
20
2.3711
11
5.28065
21
2.2963
0
LINE
8
BLACK
6
CONTINUOUS
10
5.28065
20
2.2963
11
5.28007
21
2.29491
0
LINE
8
BLACK
6
CONTINUOUS
10
5.28007
20
2.29491
11
5.27987
21
2.29482
0
LINE
8
BLACK
6
CONTINUOUS
10
5.27987
20
2.29482
11
5.28007
21
2.29474
0
LINE
8
BLACK
6
CONTINUOUS
10
5.28007
20
2.29474
11
5.28065
21
2.29335
0
LINE
8
BLACK
6
CONTINUOUS
10
5.28065
20
2.29335
11
5.28065
21
2.21854
0
LINE
8
BLACK
6
CONTINUOUS
10
5.28065
20
2.21854
11
5.28016
21
2.21736
0
LINE
8
BLACK
6
CONTINUOUS
10
5.28016
20
2.21736
11
5.28016
21
2.14276
0
LINE
8
BLACK
6
CONTINUOUS
10
5.28016
20
2.14276
11
5.27958
21
2.14136
0
LINE
8
BLACK
6
CONTINUOUS
10
5.27958
20
2.14136
11
5.27819
21
2.14079
0
LINE
8
BLACK
6
CONTINUOUS
10
5.27819
20
2.14079
11
5.14591
21
2.14079
0
LINE
8
BLACK
6
CONTINUOUS
10
5.14591
20
2.14079
11
5.14451
21
2.14136
0
LINE
8
BLACK
6
CONTINUOUS
10
5.14451
20
2.14136
11
5.14394
21
2.14276
0
LINE
8
BLACK
6
CONTINUOUS
10
5.14394
20
2.14276
11
5.14394
21
2.21756
0
LINE
8
BLACK
6
CONTINUOUS
10
5.14394
20
2.21756
11
5.14443
21
2.21875
0
LINE
8
BLACK
6
CONTINUOUS
10
5.14443
20
2.21875
11
5.14443
21
2.29335
0
LINE
8
BLACK
6
CONTINUOUS
10
5.14443
20
2.29335
11
5.14501
21
2.29474
0
LINE
8
BLACK
6
CONTINUOUS
10
5.14501
20
2.29474
11
5.14521
21
2.29482
0
LINE
8
BLACK
6
CONTINUOUS
10
5.14521
20
2.29482
11
5.14501
21
2.29491
0
LINE
8
BLACK
6
CONTINUOUS
10
5.14501
20
2.29491
11
5.14443
21
2.2963
0
LINE
8
BLACK
6
CONTINUOUS
10
5.14443
20
2.2963
11
5.14443
21
2.3711
0
LINE
8
BLACK
6
CONTINUOUS
10
5.14443
20
2.3711
11
5.14484
21
2.37209
0
LINE
8
BLACK
6
CONTINUOUS
10
5.14484
20
2.37209
11
5.14443
21
2.37307
0
LINE
8
BLACK
6
CONTINUOUS
10
5.14443
20
2.37307
11
5.14443
21
2.44787
0
LINE
8
BLACK
6
CONTINUOUS
10
5.14443
20
2.44787
11
5.14501
21
2.44927
0
LINE
8
BLACK
6
CONTINUOUS
10
5.14501
20
2.44927
11
5.1464
21
2.44984
0
LINE
8
BLACK
6
CONTINUOUS
10
5.1464
20
2.44984
11
5.27868
21
2.44984
0
LINE
8
BLACK
6
CONTINUOUS
10
5.14787
20
2.21559
11
5.14787
21
2.14472
0
LINE
8
BLACK
6
CONTINUOUS
10
5.14787
20
2.14472
11
5.27622
21
2.14472
0
LINE
8
BLACK
6
CONTINUOUS
10
5.27622
20
2.14472
11
5.27622
21
2.21559
0
LINE
8
BLACK
6
CONTINUOUS
10
5.27622
20
2.21559
11
5.14787
21
2.21559
0
LINE
8
BLACK
6
CONTINUOUS
10
5.14837
20
2.29138
11
5.14837
21
2.22051
0
LINE
8
BLACK
6
CONTINUOUS
10
5.14837
20
2.22051
11
5.27671
21
2.22051
0
LINE
8
BLACK
6
CONTINUOUS
10
5.27671
20
2.22051
11
5.27671
21
2.29138
0
LINE
8
BLACK
6
CONTINUOUS
10
5.27671
20
2.29138
11
5.14837
21
2.29138
0
LINE
8
BLACK
6
CONTINUOUS
10
5.14837
20
2.36913
11
5.14837
21
2.29827
0
LINE
8
BLACK
6
CONTINUOUS
10
5.14837
20
2.29827
11
5.27671
21
2.29827
0
LINE
8
BLACK
6
CONTINUOUS
10
5.27671
20
2.29827
11
5.27671
21
2.36913
0
LINE
8
BLACK
6
CONTINUOUS
10
5.27671
20
2.36913
11
5.14837
21
2.36913
0
LINE
8
BLACK
6
CONTINUOUS
10
5.14837
20
2.44591
11
5.14837
21
2.37504
0
LINE
8
BLACK
6
CONTINUOUS
10
5.14837
20
2.37504
11
5.27671
21
2.37504
0
LINE
8
BLACK
6
CONTINUOUS
10
5.27671
20
2.37504
11
5.27671
21
2.44591
0
LINE
8
BLACK
6
CONTINUOUS
10
5.27671
20
2.44591
11
5.14837
21
2.44591
0
LINE
8
BLACK
6
CONTINUOUS
10
5.27799
20
2.82012
11
5.27938
21
2.81954
0
LINE
8
BLACK
6
CONTINUOUS
10
5.27938
20
2.81954
11
5.27996
21
2.81815
0
LINE
8
BLACK
6
CONTINUOUS
10
5.27996
20
2.81815
11
5.27996
21
2.68587
0
LINE
8
BLACK
6
CONTINUOUS
10
5.27996
20
2.68587
11
5.27938
21
2.68447
0
LINE
8
BLACK
6
CONTINUOUS
10
5.27938
20
2.68447
11
5.27906
21
2.68434
0
LINE
8
BLACK
6
CONTINUOUS
10
5.27906
20
2.68434
11
5.27938
21
2.68421
0
LINE
8
BLACK
6
CONTINUOUS
10
5.27938
20
2.68421
11
5.27996
21
2.68281
0
LINE
8
BLACK
6
CONTINUOUS
10
5.27996
20
2.68281
11
5.27996
21
2.55053
0
LINE
8
BLACK
6
CONTINUOUS
10
5.27996
20
2.55053
11
5.27938
21
2.54914
0
LINE
8
BLACK
6
CONTINUOUS
10
5.27938
20
2.54914
11
5.27799
21
2.54856
0
LINE
8
BLACK
6
CONTINUOUS
10
5.27799
20
2.54856
11
5.20319
21
2.54856
0
LINE
8
BLACK
6
CONTINUOUS
10
5.20319
20
2.54856
11
5.2018
21
2.54914
0
LINE
8
BLACK
6
CONTINUOUS
10
5.2018
20
2.54914
11
5.20122
21
2.55053
0
LINE
8
BLACK
6
CONTINUOUS
10
5.20122
20
2.55053
11
5.20122
21
2.68281
0
LINE
8
BLACK
6
CONTINUOUS
10
5.20122
20
2.68281
11
5.2018
21
2.68421
0
LINE
8
BLACK
6
CONTINUOUS
10
5.2018
20
2.68421
11
5.20212
21
2.68434
0
LINE
8
BLACK
6
CONTINUOUS
10
5.20212
20
2.68434
11
5.2018
21
2.68447
0
LINE
8
BLACK
6
CONTINUOUS
10
5.2018
20
2.68447
11
5.20122
21
2.68587
0
LINE
8
BLACK
6
CONTINUOUS
10
5.20122
20
2.68587
11
5.20122
21
2.81815
0
LINE
8
BLACK
6
CONTINUOUS
10
5.20122
20
2.81815
11
5.2018
21
2.81954
0
LINE
8
BLACK
6
CONTINUOUS
10
5.2018
20
2.81954
11
5.20319
21
2.82012
0
LINE
8
BLACK
6
CONTINUOUS
10
5.20319
20
2.82012
11
5.27799
21
2.82012
0
LINE
8
BLACK
6
CONTINUOUS
10
5.20516
20
2.68085
11
5.20516
21
2.5525
0
LINE
8
BLACK
6
CONTINUOUS
10
5.20516
20
2.5525
11
5.27602
21
2.5525
0
LINE
8
BLACK
6
CONTINUOUS
10
5.27602
20
2.5525
11
5.27602
21
2.68085
0
LINE
8
BLACK
6
CONTINUOUS
10
5.27602
20
2.68085
11
5.20516
21
2.68085
0
LINE
8
BLACK
6
CONTINUOUS
10
5.20516
20
2.81618
11
5.20516
21
2.68783
0
LINE
8
BLACK
6
CONTINUOUS
10
5.20516
20
2.68783
11
5.27602
21
2.68783
0
LINE
8
BLACK
6
CONTINUOUS
10
5.27602
20
2.68783
11
5.27602
21
2.81618
0
LINE
8
BLACK
6
CONTINUOUS
10
5.27602
20
2.81618
11
5.20516
21
2.81618
  0
ENDSEC
  0
EOF
