  0
SECTION
  2
HEADER
  9
$ACADVER
  1
AC1018
  9
$HANDSEED
  5
FFFFFFFF
  9
$ANGBASE
  50
0.0
  9
$ANGDIR
  70
1
  9
$MEASUREMENT
  70
0
  9
$INSUNITS
  70
1
  0
ENDSEC
  0
SECTION
  2
TABLES
  0
TABLE
  2
APPID
  5
1
330
0
100
AcDbSymbolTable
 70
1
  0
APPID
  5
2
330
1
100
AcDbSymbolTableRecord
100
AcDbRegAppTableRecord
  2
ACAD
 70
0
  0
ENDTAB
  0
TABLE
  2
LTYPE
  5
3
330
0
100
AcDbSymbolTable
 70
6
  0
LTYPE
  5
4
330
3
100
AcDbSymbolTableRecord
100
AcDbLinetypeTableRecord
  2
ByBlock
 70
0
  3

 72
65
 73
0
 40
0
  0
LTYPE
  5
5
330
3
100
AcDbSymbolTableRecord
100
AcDbLinetypeTableRecord
  2
ByLayer
 70
0
  3

 72
65
 73
0
 40
0
  0
LTYPE
  5
6
330
3
100
AcDbSymbolTableRecord
100
AcDbLinetypeTableRecord
  2
CONTINUOUS
 70
0
  3
Solid line
 72
65
 73
0
 40
0
  0
LTYPE
  5
7
330
3
100
AcDbSymbolTableRecord
100
AcDbLinetypeTableRecord
  2
DASHDOT
 70
0
  3
Dash Dot ____ _ ____ _
 72
65
 73
4
 40
2
 49
1.25
 74
0
 49
-0.25
 74
0
 49
0.25
 74
0
 49
-0.25
 74
0
  0
LTYPE
  5
8
330
3
100
AcDbSymbolTableRecord
100
AcDbLinetypeTableRecord
  2
DASHED
 70
0
  3
Dashed __ __ __ __ __
 72
65
 73
2
 40
0.75
 49
0.5
 74
0
 49
-0.25
 74
0
  0
LTYPE
  5
9
330
3
100
AcDbSymbolTableRecord
100
AcDbLinetypeTableRecord
  2
DOTTED
 70
0
  3
Dotted .  .  .  .
 72
65
 73
2
 40
0.2
 49
0.0
 74
0
 49
-0.2
 74
0
  0
ENDTAB
  0
TABLE
  2
STYLE
  5
A
330
0
100
AcDbSymbolTable
 70
4
  0
STYLE
  5
B
330
A
100
AcDbSymbolTableRecord
100
AcDbTextStyleTableRecord
  2
KICAD
 70
0
 40
0
 41
1
 42
1
 50
0
 71
0
  3
isocp.shx
  0
STYLE
  5
C
330
A
100
AcDbSymbolTableRecord
100
AcDbTextStyleTableRecord
  2
KICADB
 70
0
 40
0
 41
1
 42
1
 50
0
 71
0
  3
isocp.shx
  0
STYLE
  5
D
330
A
100
AcDbSymbolTableRecord
100
AcDbTextStyleTableRecord
  2
KICADI
 70
0
 40
0
 41
1
 42
1
 50
15
 71
0
  3
isocp.shx
  0
STYLE
  5
E
330
A
100
AcDbSymbolTableRecord
100
AcDbTextStyleTableRecord
  2
KICADBI
 70
0
 40
0
 41
1
 42
1
 50
15
 71
0
  3
isocp.shx
  0
ENDTAB
  0
TABLE
  2
LAYER
  5
F
330
0
100
AcDbSymbolTable
 70
2
  0
LAYER
  5
12
330
F
100
AcDbSymbolTableRecord
100
AcDbLayerTableRecord
  2
0
 70
0
 62
7
  6
CONTINUOUS
390
10
  0
LAYER
  5
13
330
F
100
AcDbSymbolTableRecord
100
AcDbLayerTableRecord
  2
BLACK
 70
0
 62
250
  6
CONTINUOUS
390
10
  0
ENDTAB
  0
TABLE
  2
VPORT
  5
14
330
0
100
AcDbSymbolTable
 70
0
  0
ENDTAB
  0
TABLE
  2
VIEW
  5
15
330
0
100
AcDbSymbolTable
 70
0
  0
ENDTAB
  0
TABLE
  2
UCS
  5
16
330
0
100
AcDbSymbolTable
 70
0
  0
ENDTAB
  0
TABLE
  2
DIMSTYLE
  5
17
330
0
100
AcDbSymbolTable
 70
1
100
AcDbDimStyleTable
 71
0
  0
DIMSTYLE
105
18
330
17
100
AcDbSymbolTableRecord
100
AcDbDimStyleTableRecord
  2
Standard
 70
0
  0
ENDTAB
  0
TABLE
  2
BLOCK_RECORD
  5
19
330
0
100
AcDbSymbolTable
 70
3
  0
BLOCK_RECORD
  5
1A
330
19
100
AcDbSymbolTableRecord
100
AcDbBlockTableRecord
  2
*Model_Space
340
1D
 70
0
280
1
281
0
  0
BLOCK_RECORD
  5
1B
330
19
100
AcDbSymbolTableRecord
100
AcDbBlockTableRecord
  2
*Paper_Space
340
1E
 70
0
280
1
281
0
  0
BLOCK_RECORD
  5
1C
330
19
100
AcDbSymbolTableRecord
100
AcDbBlockTableRecord
  2
*Paper_Space0
340
1F
 70
0
280
1
281
0
  0
ENDTAB
  0
ENDSEC
  0
SECTION
  2
BLOCKS
  0
BLOCK
  5
23
330
1A
100
AcDbEntity
  8
0
100
AcDbBlockBegin
  2
*Model_Space
 70
0
 10
0.0
 20
0.0
 30
0.0
  3
*Model_Space
  1

  0
ENDBLK
  5
22
330
1A
100
AcDbEntity
  8
0
100
AcDbBlockEnd
  0
BLOCK
  5
25
330
1B
100
AcDbEntity
 67
1
  8
0
100
AcDbBlockBegin
  2
*Paper_Space
 70
0
 10
0.0
 20
0.0
 30
0.0
  3
*Paper_Space
  1

  0
ENDBLK
  5
24
330
1B
100
AcDbEntity
 67
1
  8
0
100
AcDbBlockEnd
  0
BLOCK
  5
27
330
1C
100
AcDbEntity
 67
1
  8
0
100
AcDbBlockBegin
  2
*Paper_Space0
 70
0
 10
0.0
 20
0.0
 30
0.0
  3
*Paper_Space0
  1

  0
ENDBLK
  5
26
330
1C
100
AcDbEntity
 67
1
  8
0
100
AcDbBlockEnd
  0
ENDSEC
  0
SECTION
  2
ENTITIES
  0
CIRCLE
  5
28
330
1A
100
AcDbEntity
  8
BLACK
100
AcDbCircle
 10
1.4364566929133857
 20
0.5951181102362204
 30
0
 40
0.0068897637795276
  0
CIRCLE
  5
29
330
1A
100
AcDbEntity
  8
BLACK
100
AcDbCircle
 10
2.1962992125984253
 20
0.5951181102362204
 30
0
 40
0.0068897637795276
  0
CIRCLE
  5
2A
330
1A
100
AcDbEntity
  8
BLACK
100
AcDbCircle
 10
1.4364566929133857
 20
2.7848818897637795
 30
0
 40
0.0068897637795276
  0
CIRCLE
  5
2B
330
1A
100
AcDbEntity
  8
BLACK
100
AcDbCircle
 10
2.1962992125984253
 20
2.7848818897637795
 30
0
 40
0.0068897637795276
  0
CIRCLE
  5
2C
330
1A
100
AcDbEntity
  8
BLACK
100
AcDbCircle
 10
1.4364566929133857
 20
0.2608661417322835
 30
0
 40
0.0068897637795276
  0
CIRCLE
  5
2D
330
1A
100
AcDbEntity
  8
BLACK
100
AcDbCircle
 10
1.4364566929133857
 20
3.1191338582677166
 30
0
 40
0.0068897637795276
  0
CIRCLE
  5
2E
330
1A
100
AcDbEntity
  8
BLACK
100
AcDbCircle
 10
2.1962992125984253
 20
0.2608661417322835
 30
0
 40
0.0068897637795276
  0
CIRCLE
  5
2F
330
1A
100
AcDbEntity
  8
BLACK
100
AcDbCircle
 10
2.1962992125984253
 20
3.1191338582677166
 30
0
 40
0.0068897637795276
  0
CIRCLE
  5
30
330
1A
100
AcDbEntity
  8
BLACK
100
AcDbCircle
 10
5.1899999999999995
 20
3.0899999999999999
 30
0
 40
0.0068897637795276
  0
LINE
  5
31
330
1A
100
AcDbEntity
  8
BLACK
  6
CONTINUOUS
100
AcDbLine
 10
5.0998425196850397
 20
1.3051574803149606
 30
0
 11
5.1155905511811026
 21
1.3051574803149606
 31
0
  0
ARC
  5
32
330
1A
100
AcDbEntity
  8
BLACK
100
AcDbCircle
 10
5.1155905511811026
 20
1.3149999999999999
 30
0
 40
0.0098425196850394
100
AcDbArc
 50
-90.00000000
 51
90.00000000
  0
LINE
  5
33
330
1A
100
AcDbEntity
  8
BLACK
  6
CONTINUOUS
100
AcDbLine
 10
5.1155905511811026
 20
1.3248425196850393
 30
0
 11
5.0998425196850397
 21
1.3248425196850393
 31
0
  0
ARC
  5
34
330
1A
100
AcDbEntity
  8
BLACK
100
AcDbCircle
 10
5.0998425196850397
 20
1.3149999999999999
 30
0
 40
0.0098425196850394
100
AcDbArc
 50
90.00000000
 51
270.00000000
  0
LINE
  5
35
330
1A
100
AcDbEntity
  8
BLACK
  6
CONTINUOUS
100
AcDbLine
 10
5.0998425196850397
 20
1.4724803149606298
 30
0
 11
5.1155905511811026
 21
1.4724803149606298
 31
0
  0
ARC
  5
36
330
1A
100
AcDbEntity
  8
BLACK
100
AcDbCircle
 10
5.1155905511811026
 20
1.4823228346456692
 30
0
 40
0.0098425196850394
100
AcDbArc
 50
-90.00000000
 51
90.00000000
  0
LINE
  5
37
330
1A
100
AcDbEntity
  8
BLACK
  6
CONTINUOUS
100
AcDbLine
 10
5.1155905511811026
 20
1.4921653543307087
 30
0
 11
5.0998425196850397
 21
1.4921653543307087
 31
0
  0
ARC
  5
38
330
1A
100
AcDbEntity
  8
BLACK
100
AcDbCircle
 10
5.0998425196850397
 20
1.4823228346456692
 30
0
 40
0.0098425196850394
100
AcDbArc
 50
90.00000000
 51
270.00000000
  0
CIRCLE
  5
39
330
1A
100
AcDbEntity
  8
BLACK
100
AcDbCircle
 10
0.39
 20
3.0899999999999999
 30
0
 40
0.0068897637795276
  0
CIRCLE
  5
3A
330
1A
100
AcDbEntity
  8
BLACK
100
AcDbCircle
 10
3.0506299212598424
 20
0.5953149606299213
 30
0
 40
0.0068897637795276
  0
CIRCLE
  5
3B
330
1A
100
AcDbEntity
  8
BLACK
100
AcDbCircle
 10
3.8104724409448818
 20
0.5953149606299213
 30
0
 40
0.0068897637795276
  0
CIRCLE
  5
3C
330
1A
100
AcDbEntity
  8
BLACK
100
AcDbCircle
 10
4.5703149606299212
 20
0.5953149606299213
 30
0
 40
0.0068897637795276
  0
CIRCLE
  5
3D
330
1A
100
AcDbEntity
  8
BLACK
100
AcDbCircle
 10
3.0506299212598424
 20
2.7846850393700788
 30
0
 40
0.0068897637795276
  0
CIRCLE
  5
3E
330
1A
100
AcDbEntity
  8
BLACK
100
AcDbCircle
 10
3.8104724409448818
 20
2.7846850393700788
 30
0
 40
0.0068897637795276
  0
CIRCLE
  5
3F
330
1A
100
AcDbEntity
  8
BLACK
100
AcDbCircle
 10
4.5703149606299212
 20
2.7846850393700788
 30
0
 40
0.0068897637795276
  0
CIRCLE
  5
40
330
1A
100
AcDbEntity
  8
BLACK
100
AcDbCircle
 10
3.0506299212598424
 20
0.2628346456692913
 30
0
 40
0.0068897637795276
  0
CIRCLE
  5
41
330
1A
100
AcDbEntity
  8
BLACK
100
AcDbCircle
 10
3.0506299212598424
 20
3.1171653543307087
 30
0
 40
0.0068897637795276
  0
CIRCLE
  5
42
330
1A
100
AcDbEntity
  8
BLACK
100
AcDbCircle
 10
3.8104724409448818
 20
0.2628346456692913
 30
0
 40
0.0068897637795276
  0
CIRCLE
  5
43
330
1A
100
AcDbEntity
  8
BLACK
100
AcDbCircle
 10
3.8104724409448818
 20
3.1171653543307087
 30
0
 40
0.0068897637795276
  0
CIRCLE
  5
44
330
1A
100
AcDbEntity
  8
BLACK
100
AcDbCircle
 10
4.5703149606299212
 20
0.2628346456692913
 30
0
 40
0.0068897637795276
  0
CIRCLE
  5
45
330
1A
100
AcDbEntity
  8
BLACK
100
AcDbCircle
 10
4.5703149606299212
 20
3.1171653543307087
 30
0
 40
0.0068897637795276
  0
CIRCLE
  5
46
330
1A
100
AcDbEntity
  8
BLACK
100
AcDbCircle
 10
5.1899999999999995
 20
0.29
 30
0
 40
0.0068897637795276
  0
CIRCLE
  5
47
330
1A
100
AcDbEntity
  8
BLACK
100
AcDbCircle
 10
0.39
 20
0.29
 30
0
 40
0.0068897637795276
  0
CIRCLE
  5
48
330
1A
100
AcDbEntity
  8
BLACK
100
AcDbCircle
 10
0.7494488188976378
 20
2.6321259842519686
 30
0
 40
0.0068897637795276
  0
CIRCLE
  5
49
330
1A
100
AcDbEntity
  8
BLACK
100
AcDbCircle
 10
0.7494488188976378
 20
0.7340944881889764
 30
0
 40
0.0068897637795276
  0
CIRCLE
  5
4A
330
1A
100
AcDbEntity
  8
BLACK
100
AcDbCircle
 10
0.5289763779527559
 20
1.4931496062992127
 30
0
 40
0.0068897637795276
  0
CIRCLE
  5
4B
330
1A
100
AcDbEntity
  8
BLACK
100
AcDbCircle
 10
0.5289763779527559
 20
1.5718897637795275
 30
0
 40
0.0068897637795276
  0
CIRCLE
  5
4C
330
1A
100
AcDbEntity
  8
BLACK
100
AcDbCircle
 10
0.5289763779527559
 20
1.6506299212598425
 30
0
 40
0.0068897637795276
  0
CIRCLE
  5
4D
330
1A
100
AcDbEntity
  8
BLACK
100
AcDbCircle
 10
0.5289763779527559
 20
1.7293700787401574
 30
0
 40
0.0068897637795276
  0
CIRCLE
  5
4E
330
1A
100
AcDbEntity
  8
BLACK
100
AcDbCircle
 10
0.5289763779527559
 20
1.8081102362204724
 30
0
 40
0.0068897637795276
  0
CIRCLE
  5
4F
330
1A
100
AcDbEntity
  8
BLACK
100
AcDbCircle
 10
0.5289763779527559
 20
1.8868503937007874
 30
0
 40
0.0068897637795276
  0
CIRCLE
  5
50
330
1A
100
AcDbEntity
  8
BLACK
100
AcDbCircle
 10
0.6077165354330708
 20
1.4931496062992127
 30
0
 40
0.0068897637795276
  0
CIRCLE
  5
51
330
1A
100
AcDbEntity
  8
BLACK
100
AcDbCircle
 10
0.6077165354330708
 20
1.5718897637795275
 30
0
 40
0.0068897637795276
  0
CIRCLE
  5
52
330
1A
100
AcDbEntity
  8
BLACK
100
AcDbCircle
 10
0.6077165354330708
 20
1.6506299212598425
 30
0
 40
0.0068897637795276
  0
CIRCLE
  5
53
330
1A
100
AcDbEntity
  8
BLACK
100
AcDbCircle
 10
0.6077165354330708
 20
1.7293700787401574
 30
0
 40
0.0068897637795276
  0
CIRCLE
  5
54
330
1A
100
AcDbEntity
  8
BLACK
100
AcDbCircle
 10
0.6077165354330708
 20
1.8081102362204724
 30
0
 40
0.0068897637795276
  0
CIRCLE
  5
55
330
1A
100
AcDbEntity
  8
BLACK
100
AcDbCircle
 10
0.6077165354330708
 20
1.8868503937007874
 30
0
 40
0.0068897637795276
  0
CIRCLE
  5
56
330
1A
100
AcDbEntity
  8
BLACK
100
AcDbCircle
 10
0.6864566929133858
 20
1.4931496062992127
 30
0
 40
0.0068897637795276
  0
CIRCLE
  5
57
330
1A
100
AcDbEntity
  8
BLACK
100
AcDbCircle
 10
0.6864566929133858
 20
1.5718897637795275
 30
0
 40
0.0068897637795276
  0
CIRCLE
  5
58
330
1A
100
AcDbEntity
  8
BLACK
100
AcDbCircle
 10
0.6864566929133858
 20
1.6506299212598425
 30
0
 40
0.0068897637795276
  0
CIRCLE
  5
59
330
1A
100
AcDbEntity
  8
BLACK
100
AcDbCircle
 10
0.6864566929133858
 20
1.7293700787401574
 30
0
 40
0.0068897637795276
  0
CIRCLE
  5
5A
330
1A
100
AcDbEntity
  8
BLACK
100
AcDbCircle
 10
0.6864566929133858
 20
1.8081102362204724
 30
0
 40
0.0068897637795276
  0
CIRCLE
  5
5B
330
1A
100
AcDbEntity
  8
BLACK
100
AcDbCircle
 10
0.6864566929133858
 20
1.8868503937007874
 30
0
 40
0.0068897637795276
  0
CIRCLE
  5
5C
330
1A
100
AcDbEntity
  8
BLACK
100
AcDbCircle
 10
0.7651968503937008
 20
1.4931496062992127
 30
0
 40
0.0068897637795276
  0
CIRCLE
  5
5D
330
1A
100
AcDbEntity
  8
BLACK
100
AcDbCircle
 10
0.7651968503937008
 20
1.5718897637795275
 30
0
 40
0.0068897637795276
  0
CIRCLE
  5
5E
330
1A
100
AcDbEntity
  8
BLACK
100
AcDbCircle
 10
0.7651968503937008
 20
1.6506299212598425
 30
0
 40
0.0068897637795276
  0
CIRCLE
  5
5F
330
1A
100
AcDbEntity
  8
BLACK
100
AcDbCircle
 10
0.7651968503937008
 20
1.7293700787401574
 30
0
 40
0.0068897637795276
  0
CIRCLE
  5
60
330
1A
100
AcDbEntity
  8
BLACK
100
AcDbCircle
 10
0.7651968503937008
 20
1.8081102362204724
 30
0
 40
0.0068897637795276
  0
CIRCLE
  5
61
330
1A
100
AcDbEntity
  8
BLACK
100
AcDbCircle
 10
0.7651968503937008
 20
1.8868503937007874
 30
0
 40
0.0068897637795276
  0
CIRCLE
  5
62
330
1A
100
AcDbEntity
  8
BLACK
100
AcDbCircle
 10
0.8439370078740157
 20
1.4931496062992127
 30
0
 40
0.0068897637795276
  0
CIRCLE
  5
63
330
1A
100
AcDbEntity
  8
BLACK
100
AcDbCircle
 10
0.8439370078740157
 20
1.5718897637795275
 30
0
 40
0.0068897637795276
  0
CIRCLE
  5
64
330
1A
100
AcDbEntity
  8
BLACK
100
AcDbCircle
 10
0.8439370078740157
 20
1.6506299212598425
 30
0
 40
0.0068897637795276
  0
CIRCLE
  5
65
330
1A
100
AcDbEntity
  8
BLACK
100
AcDbCircle
 10
0.8439370078740157
 20
1.7293700787401574
 30
0
 40
0.0068897637795276
  0
CIRCLE
  5
66
330
1A
100
AcDbEntity
  8
BLACK
100
AcDbCircle
 10
0.8439370078740157
 20
1.8081102362204724
 30
0
 40
0.0068897637795276
  0
CIRCLE
  5
67
330
1A
100
AcDbEntity
  8
BLACK
100
AcDbCircle
 10
0.8439370078740157
 20
1.8868503937007874
 30
0
 40
0.0068897637795276
  0
CIRCLE
  5
68
330
1A
100
AcDbEntity
  8
BLACK
100
AcDbCircle
 10
0.9462992125984252
 20
1.068740157480315
 30
0
 40
0.0068897637795276
  0
CIRCLE
  5
69
330
1A
100
AcDbEntity
  8
BLACK
100
AcDbCircle
 10
0.8478740157480315
 20
1.068740157480315
 30
0
 40
0.0068897637795276
  0
CIRCLE
  5
6A
330
1A
100
AcDbEntity
  8
BLACK
100
AcDbCircle
 10
0.7494488188976378
 20
1.068740157480315
 30
0
 40
0.0068897637795276
  0
CIRCLE
  5
6B
330
1A
100
AcDbEntity
  8
BLACK
100
AcDbCircle
 10
0.6510236220472441
 20
1.068740157480315
 30
0
 40
0.0068897637795276
  0
CIRCLE
  5
6C
330
1A
100
AcDbEntity
  8
BLACK
100
AcDbCircle
 10
0.5525984251968504
 20
1.068740157480315
 30
0
 40
0.0068897637795276
  0
CIRCLE
  5
6D
330
1A
100
AcDbEntity
  8
BLACK
100
AcDbCircle
 10
0.9462992125984252
 20
0.9506299212598425
 30
0
 40
0.0068897637795276
  0
CIRCLE
  5
6E
330
1A
100
AcDbEntity
  8
BLACK
100
AcDbCircle
 10
0.8478740157480315
 20
0.9506299212598425
 30
0
 40
0.0068897637795276
  0
CIRCLE
  5
6F
330
1A
100
AcDbEntity
  8
BLACK
100
AcDbCircle
 10
0.7494488188976378
 20
0.9506299212598425
 30
0
 40
0.0068897637795276
  0
CIRCLE
  5
70
330
1A
100
AcDbEntity
  8
BLACK
100
AcDbCircle
 10
0.6510236220472441
 20
0.9506299212598425
 30
0
 40
0.0068897637795276
  0
CIRCLE
  5
71
330
1A
100
AcDbEntity
  8
BLACK
100
AcDbCircle
 10
0.5525984251968504
 20
0.9506299212598425
 30
0
 40
0.0068897637795276
  0
CIRCLE
  5
72
330
1A
100
AcDbEntity
  8
BLACK
100
AcDbCircle
 10
0.9462992125984252
 20
1.285275590551181
 30
0
 40
0.0068897637795276
  0
CIRCLE
  5
73
330
1A
100
AcDbEntity
  8
BLACK
100
AcDbCircle
 10
0.8478740157480315
 20
1.285275590551181
 30
0
 40
0.0068897637795276
  0
CIRCLE
  5
74
330
1A
100
AcDbEntity
  8
BLACK
100
AcDbCircle
 10
0.7494488188976378
 20
1.285275590551181
 30
0
 40
0.0068897637795276
  0
CIRCLE
  5
75
330
1A
100
AcDbEntity
  8
BLACK
100
AcDbCircle
 10
0.6510236220472441
 20
1.285275590551181
 30
0
 40
0.0068897637795276
  0
CIRCLE
  5
76
330
1A
100
AcDbEntity
  8
BLACK
100
AcDbCircle
 10
0.5525984251968504
 20
1.285275590551181
 30
0
 40
0.0068897637795276
  0
CIRCLE
  5
77
330
1A
100
AcDbEntity
  8
BLACK
100
AcDbCircle
 10
0.9462992125984252
 20
1.1671653543307086
 30
0
 40
0.0068897637795276
  0
CIRCLE
  5
78
330
1A
100
AcDbEntity
  8
BLACK
100
AcDbCircle
 10
0.8478740157480315
 20
1.1671653543307086
 30
0
 40
0.0068897637795276
  0
CIRCLE
  5
79
330
1A
100
AcDbEntity
  8
BLACK
100
AcDbCircle
 10
0.7494488188976378
 20
1.1671653543307086
 30
0
 40
0.0068897637795276
  0
CIRCLE
  5
7A
330
1A
100
AcDbEntity
  8
BLACK
100
AcDbCircle
 10
0.6510236220472441
 20
1.1671653543307086
 30
0
 40
0.0068897637795276
  0
CIRCLE
  5
7B
330
1A
100
AcDbEntity
  8
BLACK
100
AcDbCircle
 10
0.5525984251968504
 20
1.1671653543307086
 30
0
 40
0.0068897637795276
  0
CIRCLE
  5
7C
330
1A
100
AcDbEntity
  8
BLACK
100
AcDbCircle
 10
0.9462992125984252
 20
2.1990551181102362
 30
0
 40
0.0068897637795276
  0
CIRCLE
  5
7D
330
1A
100
AcDbEntity
  8
BLACK
100
AcDbCircle
 10
0.8478740157480315
 20
2.1990551181102362
 30
0
 40
0.0068897637795276
  0
CIRCLE
  5
7E
330
1A
100
AcDbEntity
  8
BLACK
100
AcDbCircle
 10
0.7494488188976378
 20
2.1990551181102362
 30
0
 40
0.0068897637795276
  0
CIRCLE
  5
7F
330
1A
100
AcDbEntity
  8
BLACK
100
AcDbCircle
 10
0.6510236220472441
 20
2.1990551181102362
 30
0
 40
0.0068897637795276
  0
CIRCLE
  5
80
330
1A
100
AcDbEntity
  8
BLACK
100
AcDbCircle
 10
0.5525984251968504
 20
2.1990551181102362
 30
0
 40
0.0068897637795276
  0
CIRCLE
  5
81
330
1A
100
AcDbEntity
  8
BLACK
100
AcDbCircle
 10
0.9462992125984252
 20
2.0809448818897636
 30
0
 40
0.0068897637795276
  0
CIRCLE
  5
82
330
1A
100
AcDbEntity
  8
BLACK
100
AcDbCircle
 10
0.8478740157480315
 20
2.0809448818897636
 30
0
 40
0.0068897637795276
  0
CIRCLE
  5
83
330
1A
100
AcDbEntity
  8
BLACK
100
AcDbCircle
 10
0.7494488188976378
 20
2.0809448818897636
 30
0
 40
0.0068897637795276
  0
CIRCLE
  5
84
330
1A
100
AcDbEntity
  8
BLACK
100
AcDbCircle
 10
0.6510236220472441
 20
2.0809448818897636
 30
0
 40
0.0068897637795276
  0
CIRCLE
  5
85
330
1A
100
AcDbEntity
  8
BLACK
100
AcDbCircle
 10
0.5525984251968504
 20
2.0809448818897636
 30
0
 40
0.0068897637795276
  0
CIRCLE
  5
86
330
1A
100
AcDbEntity
  8
BLACK
100
AcDbCircle
 10
0.9462992125984252
 20
2.4155905511811024
 30
0
 40
0.0068897637795276
  0
CIRCLE
  5
87
330
1A
100
AcDbEntity
  8
BLACK
100
AcDbCircle
 10
0.8478740157480315
 20
2.4155905511811024
 30
0
 40
0.0068897637795276
  0
CIRCLE
  5
88
330
1A
100
AcDbEntity
  8
BLACK
100
AcDbCircle
 10
0.7494488188976378
 20
2.4155905511811024
 30
0
 40
0.0068897637795276
  0
CIRCLE
  5
89
330
1A
100
AcDbEntity
  8
BLACK
100
AcDbCircle
 10
0.6510236220472441
 20
2.4155905511811024
 30
0
 40
0.0068897637795276
  0
CIRCLE
  5
8A
330
1A
100
AcDbEntity
  8
BLACK
100
AcDbCircle
 10
0.5525984251968504
 20
2.4155905511811024
 30
0
 40
0.0068897637795276
  0
CIRCLE
  5
8B
330
1A
100
AcDbEntity
  8
BLACK
100
AcDbCircle
 10
0.9462992125984252
 20
2.2974803149606298
 30
0
 40
0.0068897637795276
  0
CIRCLE
  5
8C
330
1A
100
AcDbEntity
  8
BLACK
100
AcDbCircle
 10
0.8478740157480315
 20
2.2974803149606298
 30
0
 40
0.0068897637795276
  0
CIRCLE
  5
8D
330
1A
100
AcDbEntity
  8
BLACK
100
AcDbCircle
 10
0.7494488188976378
 20
2.2974803149606298
 30
0
 40
0.0068897637795276
  0
CIRCLE
  5
8E
330
1A
100
AcDbEntity
  8
BLACK
100
AcDbCircle
 10
0.6510236220472441
 20
2.2974803149606298
 30
0
 40
0.0068897637795276
  0
CIRCLE
  5
8F
330
1A
100
AcDbEntity
  8
BLACK
100
AcDbCircle
 10
0.5525984251968504
 20
2.2974803149606298
 30
0
 40
0.0068897637795276
  0
LINE
  5
90
330
1A
100
AcDbEntity
  8
BLACK
  6
CONTINUOUS
100
AcDbLine
 10
5.1037795275590554
 20
1.0157874015748032
 30
0
 11
5.1195275590551184
 21
1.0157874015748032
 31
0
  0
ARC
  5
91
330
1A
100
AcDbEntity
  8
BLACK
100
AcDbCircle
 10
5.1195275590551184
 20
1.0256299212598425
 30
0
 40
0.0098425196850394
100
AcDbArc
 50
-90.00000000
 51
90.00000000
  0
LINE
  5
92
330
1A
100
AcDbEntity
  8
BLACK
  6
CONTINUOUS
100
AcDbLine
 10
5.1195275590551184
 20
1.0354724409448819
 30
0
 11
5.1037795275590554
 21
1.0354724409448819
 31
0
  0
ARC
  5
93
330
1A
100
AcDbEntity
  8
BLACK
100
AcDbCircle
 10
5.1037795275590554
 20
1.0256299212598425
 30
0
 40
0.0098425196850394
100
AcDbArc
 50
90.00000000
 51
270.00000000
  0
LINE
  5
94
330
1A
100
AcDbEntity
  8
BLACK
  6
CONTINUOUS
100
AcDbLine
 10
5.1037795275590554
 20
1.1831102362204724
 30
0
 11
5.1195275590551184
 21
1.1831102362204724
 31
0
  0
ARC
  5
95
330
1A
100
AcDbEntity
  8
BLACK
100
AcDbCircle
 10
5.1195275590551184
 20
1.1929527559055118
 30
0
 40
0.0098425196850394
100
AcDbArc
 50
-90.00000000
 51
90.00000000
  0
LINE
  5
96
330
1A
100
AcDbEntity
  8
BLACK
  6
CONTINUOUS
100
AcDbLine
 10
5.1195275590551184
 20
1.2027952755905511
 30
0
 11
5.1037795275590554
 21
1.2027952755905511
 31
0
  0
ARC
  5
97
330
1A
100
AcDbEntity
  8
BLACK
100
AcDbCircle
 10
5.1037795275590554
 20
1.1929527559055118
 30
0
 40
0.0098425196850394
100
AcDbArc
 50
90.00000000
 51
270.00000000
  0
CIRCLE
  5
98
330
1A
100
AcDbEntity
  8
BLACK
100
AcDbCircle
 10
5.1360629921259839
 20
2.8010236220472442
 30
0
 40
0.0068897637795276
  0
CIRCLE
  5
99
330
1A
100
AcDbEntity
  8
BLACK
100
AcDbCircle
 10
5.1360629921259839
 20
2.5734645669291338
 30
0
 40
0.0068897637795276
  0
LINE
  5
9A
330
1A
100
AcDbEntity
  8
BLACK
  6
CONTINUOUS
100
AcDbLine
 10
5.2966929133858267
 20
2.8691338582677166
 30
0
 11
5.2651968503937008
 21
2.8691338582677166
 31
0
  0
ARC
  5
9B
330
1A
100
AcDbEntity
  8
BLACK
100
AcDbCircle
 10
5.2651968503937008
 20
2.8573228346456694
 30
0
 40
0.0118110236220472
100
AcDbArc
 50
90.00000000
 51
270.00000000
  0
LINE
  5
9C
330
1A
100
AcDbEntity
  8
BLACK
  6
CONTINUOUS
100
AcDbLine
 10
5.2651968503937008
 20
2.8455118110236222
 30
0
 11
5.2966929133858267
 21
2.8455118110236222
 31
0
  0
ARC
  5
9D
330
1A
100
AcDbEntity
  8
BLACK
100
AcDbCircle
 10
5.2966929133858267
 20
2.8573228346456694
 30
0
 40
0.0118110236220472
100
AcDbArc
 50
270.00000000
 51
450.00000000
  0
LINE
  5
9E
330
1A
100
AcDbEntity
  8
BLACK
  6
CONTINUOUS
100
AcDbLine
 10
5.2966929133858267
 20
2.5289763779527559
 30
0
 11
5.2651968503937008
 21
2.5289763779527559
 31
0
  0
ARC
  5
9F
330
1A
100
AcDbEntity
  8
BLACK
100
AcDbCircle
 10
5.2651968503937008
 20
2.5171653543307086
 30
0
 40
0.0118110236220472
100
AcDbArc
 50
90.00000000
 51
270.00000000
  0
LINE
  5
A0
330
1A
100
AcDbEntity
  8
BLACK
  6
CONTINUOUS
100
AcDbLine
 10
5.2651968503937008
 20
2.5053543307086614
 30
0
 11
5.2966929133858267
 21
2.5053543307086614
 31
0
  0
ARC
  5
A1
330
1A
100
AcDbEntity
  8
BLACK
100
AcDbCircle
 10
5.2966929133858267
 20
2.5171653543307086
 30
0
 40
0.0118110236220472
100
AcDbArc
 50
270.00000000
 51
450.00000000
  0
LINE
  5
A2
330
1A
100
AcDbEntity
  8
BLACK
  6
CONTINUOUS
100
AcDbLine
 10
5.1380314960629923
 20
2.8691338582677166
 30
0
 11
5.0947244094488191
 21
2.8691338582677166
 31
0
  0
ARC
  5
A3
330
1A
100
AcDbEntity
  8
BLACK
100
AcDbCircle
 10
5.0947244094488191
 20
2.8573228346456694
 30
0
 40
0.0118110236220472
100
AcDbArc
 50
90.00000000
 51
270.00000000
  0
LINE
  5
A4
330
1A
100
AcDbEntity
  8
BLACK
  6
CONTINUOUS
100
AcDbLine
 10
5.0947244094488191
 20
2.8455118110236222
 30
0
 11
5.1380314960629923
 21
2.8455118110236222
 31
0
  0
ARC
  5
A5
330
1A
100
AcDbEntity
  8
BLACK
100
AcDbCircle
 10
5.1380314960629923
 20
2.8573228346456694
 30
0
 40
0.0118110236220472
100
AcDbArc
 50
270.00000000
 51
450.00000000
  0
LINE
  5
A6
330
1A
100
AcDbEntity
  8
BLACK
  6
CONTINUOUS
100
AcDbLine
 10
5.1380314960629923
 20
2.5289763779527559
 30
0
 11
5.0947244094488191
 21
2.5289763779527559
 31
0
  0
ARC
  5
A7
330
1A
100
AcDbEntity
  8
BLACK
100
AcDbCircle
 10
5.0947244094488191
 20
2.5171653543307086
 30
0
 40
0.0118110236220472
100
AcDbArc
 50
90.00000000
 51
270.00000000
  0
LINE
  5
A8
330
1A
100
AcDbEntity
  8
BLACK
  6
CONTINUOUS
100
AcDbLine
 10
5.0947244094488191
 20
2.5053543307086614
 30
0
 11
5.1380314960629923
 21
2.5053543307086614
 31
0
  0
ARC
  5
A9
330
1A
100
AcDbEntity
  8
BLACK
100
AcDbCircle
 10
5.1380314960629923
 20
2.5171653543307086
 30
0
 40
0.0118110236220472
100
AcDbArc
 50
270.00000000
 51
450.00000000
  0
ENDSEC
  0
SECTION
  2
OBJECTS
  0
DICTIONARY
  5
20
330
0
100
AcDbDictionary
281
1
  3
ACAD_GROUP
350
AA
  3
ACAD_LAYOUT
350
21
  3
ACAD_PLOTSTYLENAME
350
11
  0
DICTIONARY
  5
AA
330
20
100
AcDbDictionary
281
1
  0
ACDBDICTIONARYWDFLT
  5
11
330
20
100
AcDbDictionary
281
1
  3
Normal
350
10
100
AcDbDictionaryWithDefault
340
10
  0
ACDBPLACEHOLDER
  5
10
330
11
  0
DICTIONARY
  5
21
330
20
100
AcDbDictionary
281
1
  3
Model
350
1D
  3
Layout1
350
1E
  3
Layout2
350
1F
  0
LAYOUT
  5
1D
330
21
100
AcDbPlotSettings
  1

  2
none_device
  4
A3
  6

 40
0.0
 41
0.0
 42
0.0
 43
0.0
 44
420.0
 45
297.0
 46
0.0
 47
0.0
 48
0.0
 49
0.0
140
0.0
141
0.0
142
1.0
143
1.0
 70
1024
 72
1
 73
0
 74
5
  7

 75
16
 76
0
 77
2
 78
300
147
1.0
148
0.0
149
0.0
100
AcDbLayout
  1
Model
 70
1
 71
0
 10
0.0
 20
0.0
 11
420.0
 21
297.0
 12
0.0
 22
0.0
 32
0.0
 14
1e+20
 24
1e+20
 34
1e+20
 15
-1e+20
 25
-1e+20
 35
-1e+20
146
0.0
 13
0.0
 23
0.0
 33
0.0
 16
1.0
 26
0.0
 36
0.0
 17
0.0
 27
1.0
 37
0.0
 76
0
330
1A
  0
LAYOUT
  5
1E
330
21
100
AcDbPlotSettings
  1

  2
none_device
  4
A3
  6

 40
0.0
 41
0.0
 42
0.0
 43
0.0
 44
420.0
 45
297.0
 46
0.0
 47
0.0
 48
0.0
 49
0.0
140
0.0
141
0.0
142
1.0
143
1.0
 70
0
 72
1
 73
0
 74
5
  7

 75
16
 76
0
 77
2
 78
300
147
1.0
148
0.0
149
0.0
100
AcDbLayout
  1
Layout1
 70
1
 71
1
 10
0.0
 20
0.0
 11
420.0
 21
297.0
 12
0.0
 22
0.0
 32
0.0
 14
1e+20
 24
1e+20
 34
1e+20
 15
-1e+20
 25
-1e+20
 35
-1e+20
146
0.0
 13
0.0
 23
0.0
 33
0.0
 16
1.0
 26
0.0
 36
0.0
 17
0.0
 27
1.0
 37
0.0
 76
0
330
1B
  0
LAYOUT
  5
1F
330
21
100
AcDbPlotSettings
  1

  2
none_device
  4
A3
  6

 40
0.0
 41
0.0
 42
0.0
 43
0.0
 44
420.0
 45
297.0
 46
0.0
 47
0.0
 48
0.0
 49
0.0
140
0.0
141
0.0
142
1.0
143
1.0
 70
0
 72
1
 73
0
 74
5
  7

 75
16
 76
0
 77
2
 78
300
147
1.0
148
0.0
149
0.0
100
AcDbLayout
  1
Layout2
 70
1
 71
2
 10
0.0
 20
0.0
 11
420.0
 21
297.0
 12
0.0
 22
0.0
 32
0.0
 14
1e+20
 24
1e+20
 34
1e+20
 15
-1e+20
 25
-1e+20
 35
-1e+20
146
0.0
 13
0.0
 23
0.0
 33
0.0
 16
1.0
 26
0.0
 36
0.0
 17
0.0
 27
1.0
 37
0.0
 76
0
330
1C
  0
ENDSEC
  0
EOF
