  0
SECTION
  2
HEADER
  9
$ANGBASE
  50
0.0
  9
$ANGDIR
  70
1
  9
$MEASUREMENT
  70
0
  0
ENDSEC
  0
SECTION
  2
TABLES
  0
TABLE
  2
LTYPE
  70
4
  0
LTYPE
  5
40F
  2
CONTINUOUS
  70
0
  3
Solid line
  72
65
  73
0
  40
0.0
  0
LTYPE
  5
410
  2
DASHDOT
 70
0
  3
Dash Dot ____ _ ____ _
 72
65
 73
4
 40
2.0
 49
1.25
 49
-0.25
 49
0.25
 49
-0.25
  0
LTYPE
  5
411
  2
DASHED
 70
0
  3
Dashed __ __ __ __ __
 72
65
 73
2
 40
0.75
 49
0.5
 49
-0.25
  0
LTYPE
  5
43B
  2
DOTTED
 70
0
  3
Dotted .  .  .  .
 72
65
 73
2
 40
0.2
 49
0.0
 49
-0.2
  0
ENDTAB
  0
TABLE
  2
STYLE
  70
4
  0
STYLE
  2
KICAD
  70
0
  40
0
  41
1
  42
1
  50
0
  71
0
  3
isocp.shx
  0
STYLE
  2
KICADB
  70
0
  40
0
  41
1
  42
1
  50
0
  71
0
  3
isocp.shx
  0
STYLE
  2
KICADI
  70
0
  40
0
  41
1
  42
1
  50
15
  71
0
  3
isocp.shx
  0
STYLE
  2
KICADBI
  70
0
  40
0
  41
1
  42
1
  50
15
  71
0
  3
isocp.shx
  0
ENDTAB
  0
TABLE
  2
LAYER
  70
1
  0
LAYER
  2
BLACK
  70
0
  62
7
  6
CONTINUOUS
  0
ENDTAB
  0
ENDSEC
  0
SECTION
  2
ENTITIES
0
LINE
8
BLACK
6
CONTINUOUS
10
2.6181325590551179
20
3.2302794094488188
11
2.6186652362204725
21
3.2297467322834645
0
LINE
8
BLACK
6
CONTINUOUS
10
2.6186652362204725
20
3.2297467322834645
11
2.6187401574803149
21
3.2293700787401574
0
LINE
8
BLACK
6
CONTINUOUS
10
2.6187401574803149
20
3.2293700787401574
11
2.6187401574803149
21
0.1506299212598425
0
LINE
8
BLACK
6
CONTINUOUS
10
2.6187401574803149
20
0.1506299212598425
11
2.6186652362204725
21
0.1502532677165354
0
LINE
8
BLACK
6
CONTINUOUS
10
2.6186652362204725
20
0.1502532677165354
11
2.6181325590551179
21
0.1497205905511811
0
LINE
8
BLACK
6
CONTINUOUS
10
2.6181325590551179
20
0.1497205905511811
11
2.6177559055118111
21
0.1496456692913386
0
LINE
8
BLACK
6
CONTINUOUS
10
2.6177559055118111
20
0.1496456692913386
11
1.0149999999999999
21
0.1496456692913386
0
LINE
8
BLACK
6
CONTINUOUS
10
1.0149999999999999
20
0.1496456692913386
11
1.0146233464566929
21
0.1497205905511811
0
LINE
8
BLACK
6
CONTINUOUS
10
1.0146233464566929
20
0.1497205905511811
11
1.0140906692913385
21
0.1502532677165354
0
LINE
8
BLACK
6
CONTINUOUS
10
1.0140906692913385
20
0.1502532677165354
11
1.014015748031496
21
0.1506299212598425
0
LINE
8
BLACK
6
CONTINUOUS
10
1.014015748031496
20
0.1506299212598425
11
1.014015748031496
21
3.2293700787401574
0
LINE
8
BLACK
6
CONTINUOUS
10
1.014015748031496
20
3.2293700787401574
11
1.0140906692913385
21
3.2297467322834645
0
LINE
8
BLACK
6
CONTINUOUS
10
1.0140906692913385
20
3.2297467322834645
11
1.0146233464566929
21
3.2302794094488188
0
LINE
8
BLACK
6
CONTINUOUS
10
1.0146233464566929
20
3.2302794094488188
11
1.0149999999999999
21
3.2303543307086615
0
LINE
8
BLACK
6
CONTINUOUS
10
1.0149999999999999
20
3.2303543307086615
11
2.6177559055118111
21
3.2303543307086615
0
LINE
8
BLACK
6
CONTINUOUS
10
2.6177559055118111
20
3.2303543307086615
11
2.6181325590551179
21
3.2302794094488188
0
LINE
8
BLACK
6
CONTINUOUS
10
1.0159842519685038
20
3.2283858267716536
11
1.0159842519685038
21
0.1516141732283464
0
LINE
8
BLACK
6
CONTINUOUS
10
1.0159842519685038
20
0.1516141732283464
11
2.616771653543307
21
0.1516141732283464
0
LINE
8
BLACK
6
CONTINUOUS
10
2.616771653543307
20
0.1516141732283464
11
2.616771653543307
21
3.2283858267716536
0
LINE
8
BLACK
6
CONTINUOUS
10
2.616771653543307
20
3.2283858267716536
11
1.0159842519685038
21
3.2283858267716536
0
LINE
8
BLACK
6
CONTINUOUS
10
3.117032834645669
20
2.3807950393700787
11
3.1180981889763779
21
2.3797296850393699
0
LINE
8
BLACK
6
CONTINUOUS
10
3.1180981889763779
20
2.3797296850393699
11
3.118248031496063
21
2.378976377952756
0
LINE
8
BLACK
6
CONTINUOUS
10
3.118248031496063
20
2.378976377952756
11
3.118248031496063
21
2.3041732283464564
0
LINE
8
BLACK
6
CONTINUOUS
10
3.118248031496063
20
2.3041732283464564
11
3.1180981889763779
21
2.3034199212598425
0
LINE
8
BLACK
6
CONTINUOUS
10
3.1180981889763779
20
2.3034199212598425
11
3.117032834645669
21
2.3023545669291337
0
LINE
8
BLACK
6
CONTINUOUS
10
3.117032834645669
20
2.3023545669291337
11
3.1162795275590551
21
2.3022047244094486
0
LINE
8
BLACK
6
CONTINUOUS
10
3.1162795275590551
20
2.3022047244094486
11
2.9839960629921261
21
2.3022047244094486
0
LINE
8
BLACK
6
CONTINUOUS
10
2.9839960629921261
20
2.3022047244094486
11
2.9832427559055117
21
2.3023545669291337
0
LINE
8
BLACK
6
CONTINUOUS
10
2.9832427559055117
20
2.3023545669291337
11
2.9821774015748033
21
2.3034199212598425
0
LINE
8
BLACK
6
CONTINUOUS
10
2.9821774015748033
20
2.3034199212598425
11
2.9820275590551182
21
2.3041732283464564
0
LINE
8
BLACK
6
CONTINUOUS
10
2.9820275590551182
20
2.3041732283464564
11
2.9820275590551182
21
2.378976377952756
0
LINE
8
BLACK
6
CONTINUOUS
10
2.9820275590551182
20
2.378976377952756
11
2.9821774015748033
21
2.3797296850393699
0
LINE
8
BLACK
6
CONTINUOUS
10
2.9821774015748033
20
2.3797296850393699
11
2.9832427559055117
21
2.3807950393700787
0
LINE
8
BLACK
6
CONTINUOUS
10
2.9832427559055117
20
2.3807950393700787
11
2.9839960629921261
21
2.3809448818897638
0
LINE
8
BLACK
6
CONTINUOUS
10
2.9839960629921261
20
2.3809448818897638
11
3.1162795275590551
21
2.3809448818897638
0
LINE
8
BLACK
6
CONTINUOUS
10
3.1162795275590551
20
2.3809448818897638
11
3.117032834645669
21
2.3807950393700787
0
LINE
8
BLACK
6
CONTINUOUS
10
2.9859645669291339
20
2.3770078740157481
11
2.9859645669291339
21
2.3061417322834643
0
LINE
8
BLACK
6
CONTINUOUS
10
2.9859645669291339
20
2.3061417322834643
11
3.1143110236220473
21
2.3061417322834643
0
LINE
8
BLACK
6
CONTINUOUS
10
3.1143110236220473
20
2.3061417322834643
11
3.1143110236220473
21
2.3770078740157481
0
LINE
8
BLACK
6
CONTINUOUS
10
3.1143110236220473
20
2.3770078740157481
11
2.9859645669291339
21
2.3770078740157481
0
LINE
8
BLACK
6
CONTINUOUS
10
3.117032834645669
20
2.4615037007874014
11
3.1180981889763779
21
2.460438346456693
0
LINE
8
BLACK
6
CONTINUOUS
10
3.1180981889763779
20
2.460438346456693
11
3.118248031496063
21
2.4596850393700787
0
LINE
8
BLACK
6
CONTINUOUS
10
3.118248031496063
20
2.4596850393700787
11
3.118248031496063
21
2.3848818897637796
0
LINE
8
BLACK
6
CONTINUOUS
10
3.118248031496063
20
2.3848818897637796
11
3.1180981889763779
21
2.3841285826771652
0
LINE
8
BLACK
6
CONTINUOUS
10
3.1180981889763779
20
2.3841285826771652
11
3.117032834645669
21
2.3830632283464568
0
LINE
8
BLACK
6
CONTINUOUS
10
3.117032834645669
20
2.3830632283464568
11
3.1162795275590551
21
2.3829133858267717
0
LINE
8
BLACK
6
CONTINUOUS
10
3.1162795275590551
20
2.3829133858267717
11
2.9839960629921261
21
2.3829133858267717
0
LINE
8
BLACK
6
CONTINUOUS
10
2.9839960629921261
20
2.3829133858267717
11
2.9832427559055117
21
2.3830632283464568
0
LINE
8
BLACK
6
CONTINUOUS
10
2.9832427559055117
20
2.3830632283464568
11
2.9821774015748033
21
2.3841285826771652
0
LINE
8
BLACK
6
CONTINUOUS
10
2.9821774015748033
20
2.3841285826771652
11
2.9820275590551182
21
2.3848818897637796
0
LINE
8
BLACK
6
CONTINUOUS
10
2.9820275590551182
20
2.3848818897637796
11
2.9820275590551182
21
2.4596850393700787
0
LINE
8
BLACK
6
CONTINUOUS
10
2.9820275590551182
20
2.4596850393700787
11
2.9821774015748033
21
2.460438346456693
0
LINE
8
BLACK
6
CONTINUOUS
10
2.9821774015748033
20
2.460438346456693
11
2.9832427559055117
21
2.4615037007874014
0
LINE
8
BLACK
6
CONTINUOUS
10
2.9832427559055117
20
2.4615037007874014
11
2.9839960629921261
21
2.4616535433070865
0
LINE
8
BLACK
6
CONTINUOUS
10
2.9839960629921261
20
2.4616535433070865
11
3.1162795275590551
21
2.4616535433070865
0
LINE
8
BLACK
6
CONTINUOUS
10
3.1162795275590551
20
2.4616535433070865
11
3.117032834645669
21
2.4615037007874014
0
LINE
8
BLACK
6
CONTINUOUS
10
2.9859645669291339
20
2.4577165354330708
11
2.9859645669291339
21
2.3868503937007874
0
LINE
8
BLACK
6
CONTINUOUS
10
2.9859645669291339
20
2.3868503937007874
11
3.1143110236220473
21
2.3868503937007874
0
LINE
8
BLACK
6
CONTINUOUS
10
3.1143110236220473
20
2.3868503937007874
11
3.1143110236220473
21
2.4577165354330708
0
LINE
8
BLACK
6
CONTINUOUS
10
3.1143110236220473
20
2.4577165354330708
11
2.9859645669291339
21
2.4577165354330708
0
LINE
8
BLACK
6
CONTINUOUS
10
4.9956916141732286
20
3.2302794094488188
11
4.9962242913385824
21
3.2297467322834645
0
LINE
8
BLACK
6
CONTINUOUS
10
4.9962242913385824
20
3.2297467322834645
11
4.9962992125984247
21
3.2293700787401574
0
LINE
8
BLACK
6
CONTINUOUS
10
4.9962992125984247
20
3.2293700787401574
11
4.9962992125984247
21
0.1506299212598425
0
LINE
8
BLACK
6
CONTINUOUS
10
4.9962992125984247
20
0.1506299212598425
11
4.9962242913385824
21
0.1502532677165354
0
LINE
8
BLACK
6
CONTINUOUS
10
4.9962242913385824
20
0.1502532677165354
11
4.9956916141732286
21
0.1497205905511811
0
LINE
8
BLACK
6
CONTINUOUS
10
4.9956916141732286
20
0.1497205905511811
11
4.995314960629921
21
0.1496456692913386
0
LINE
8
BLACK
6
CONTINUOUS
10
4.995314960629921
20
0.1496456692913386
11
2.6256299212598426
21
0.1496456692913386
0
LINE
8
BLACK
6
CONTINUOUS
10
2.6256299212598426
20
0.1496456692913386
11
2.6252532677165354
21
0.1497205905511811
0
LINE
8
BLACK
6
CONTINUOUS
10
2.6252532677165354
20
0.1497205905511811
11
2.6247205905511812
21
0.1502532677165354
0
LINE
8
BLACK
6
CONTINUOUS
10
2.6247205905511812
20
0.1502532677165354
11
2.6246456692913385
21
0.1506299212598425
0
LINE
8
BLACK
6
CONTINUOUS
10
2.6246456692913385
20
0.1506299212598425
11
2.6246456692913385
21
3.2293700787401574
0
LINE
8
BLACK
6
CONTINUOUS
10
2.6246456692913385
20
3.2293700787401574
11
2.6247205905511812
21
3.2297467322834645
0
LINE
8
BLACK
6
CONTINUOUS
10
2.6247205905511812
20
3.2297467322834645
11
2.6252532677165354
21
3.2302794094488188
0
LINE
8
BLACK
6
CONTINUOUS
10
2.6252532677165354
20
3.2302794094488188
11
2.6256299212598426
21
3.2303543307086615
0
LINE
8
BLACK
6
CONTINUOUS
10
2.6256299212598426
20
3.2303543307086615
11
4.995314960629921
21
3.2303543307086615
0
LINE
8
BLACK
6
CONTINUOUS
10
4.995314960629921
20
3.2303543307086615
11
4.9956916141732286
21
3.2302794094488188
0
LINE
8
BLACK
6
CONTINUOUS
10
2.6266141732283463
20
3.2283858267716536
11
2.6266141732283463
21
0.1516141732283464
0
LINE
8
BLACK
6
CONTINUOUS
10
2.6266141732283463
20
0.1516141732283464
11
4.9943307086614173
21
0.1516141732283464
0
LINE
8
BLACK
6
CONTINUOUS
10
4.9943307086614173
20
0.1516141732283464
11
4.9943307086614173
21
3.2283858267716536
0
LINE
8
BLACK
6
CONTINUOUS
10
4.9943307086614173
20
3.2283858267716536
11
2.6266141732283463
21
3.2283858267716536
0
LINE
8
BLACK
6
CONTINUOUS
10
5.2710682677165357
20
1.9740780314960629
11
5.2721336220472441
21
1.9730126771653542
0
LINE
8
BLACK
6
CONTINUOUS
10
5.2721336220472441
20
1.9730126771653542
11
5.2722834645669288
21
1.9722593700787401
0
LINE
8
BLACK
6
CONTINUOUS
10
5.2722834645669288
20
1.9722593700787401
11
5.2722834645669288
21
1.897456220472441
0
LINE
8
BLACK
6
CONTINUOUS
10
5.2722834645669288
20
1.897456220472441
11
5.2722202755905512
21
1.8971386220472441
0
LINE
8
BLACK
6
CONTINUOUS
10
5.2722202755905512
20
1.8971386220472441
11
5.2731178740157478
21
1.8962410236220473
0
LINE
8
BLACK
6
CONTINUOUS
10
5.2731178740157478
20
1.8962410236220473
11
5.2732677165354334
21
1.8954877165354331
0
LINE
8
BLACK
6
CONTINUOUS
10
5.2732677165354334
20
1.8954877165354331
11
5.2732677165354334
21
1.8206845669291338
0
LINE
8
BLACK
6
CONTINUOUS
10
5.2732677165354334
20
1.8206845669291338
11
5.2732045275590549
21
1.820366968503937
0
LINE
8
BLACK
6
CONTINUOUS
10
5.2732045275590549
20
1.820366968503937
11
5.2741021259842515
21
1.8194693700787401
0
LINE
8
BLACK
6
CONTINUOUS
10
5.2741021259842515
20
1.8194693700787401
11
5.2742519685039371
21
1.818716062992126
0
LINE
8
BLACK
6
CONTINUOUS
10
5.2742519685039371
20
1.818716062992126
11
5.2742519685039371
21
1.7439129133858267
0
LINE
8
BLACK
6
CONTINUOUS
10
5.2742519685039371
20
1.7439129133858267
11
5.2741887795275586
21
1.7435953149606298
0
LINE
8
BLACK
6
CONTINUOUS
10
5.2741887795275586
20
1.7435953149606298
11
5.2750863779527561
21
1.7426977165354329
0
LINE
8
BLACK
6
CONTINUOUS
10
5.2750863779527561
20
1.7426977165354329
11
5.2752362204724408
21
1.7419444094488188
0
LINE
8
BLACK
6
CONTINUOUS
10
5.2752362204724408
20
1.7419444094488188
11
5.2752362204724408
21
1.6671412598425197
0
LINE
8
BLACK
6
CONTINUOUS
10
5.2752362204724408
20
1.6671412598425197
11
5.2750863779527561
21
1.6663879527559056
0
LINE
8
BLACK
6
CONTINUOUS
10
5.2750863779527561
20
1.6663879527559056
11
5.2740210236220468
21
1.6653225984251969
0
LINE
8
BLACK
6
CONTINUOUS
10
5.2740210236220468
20
1.6653225984251969
11
5.2732677165354334
21
1.6651727559055118
0
LINE
8
BLACK
6
CONTINUOUS
10
5.2732677165354334
20
1.6651727559055118
11
5.1409842519685034
21
1.6651727559055118
0
LINE
8
BLACK
6
CONTINUOUS
10
5.1409842519685034
20
1.6651727559055118
11
5.1402309448818899
21
1.6653225984251969
0
LINE
8
BLACK
6
CONTINUOUS
10
5.1402309448818899
20
1.6653225984251969
11
5.1391655905511806
21
1.6663879527559056
0
LINE
8
BLACK
6
CONTINUOUS
10
5.1391655905511806
20
1.6663879527559056
11
5.139015748031496
21
1.6671412598425197
0
LINE
8
BLACK
6
CONTINUOUS
10
5.139015748031496
20
1.6671412598425197
11
5.139015748031496
21
1.7419444094488188
0
LINE
8
BLACK
6
CONTINUOUS
10
5.139015748031496
20
1.7419444094488188
11
5.1390788976377948
21
1.7422620472440944
0
LINE
8
BLACK
6
CONTINUOUS
10
5.1390788976377948
20
1.7422620472440944
11
5.1381813385826769
21
1.7431596062992125
0
LINE
8
BLACK
6
CONTINUOUS
10
5.1381813385826769
20
1.7431596062992125
11
5.1380314960629923
21
1.7439129133858267
0
LINE
8
BLACK
6
CONTINUOUS
10
5.1380314960629923
20
1.7439129133858267
11
5.1380314960629923
21
1.818716062992126
0
LINE
8
BLACK
6
CONTINUOUS
10
5.1380314960629923
20
1.818716062992126
11
5.1380946456692911
21
1.8190337007874016
0
LINE
8
BLACK
6
CONTINUOUS
10
5.1380946456692911
20
1.8190337007874016
11
5.1371970866141732
21
1.8199312598425197
0
LINE
8
BLACK
6
CONTINUOUS
10
5.1371970866141732
20
1.8199312598425197
11
5.1370472440944877
21
1.8206845669291338
0
LINE
8
BLACK
6
CONTINUOUS
10
5.1370472440944877
20
1.8206845669291338
11
5.1370472440944877
21
1.8954877165354331
0
LINE
8
BLACK
6
CONTINUOUS
10
5.1370472440944877
20
1.8954877165354331
11
5.1371103937007874
21
1.8958053543307085
0
LINE
8
BLACK
6
CONTINUOUS
10
5.1371103937007874
20
1.8958053543307085
11
5.1362128346456695
21
1.8967029133858266
0
LINE
8
BLACK
6
CONTINUOUS
10
5.1362128346456695
20
1.8967029133858266
11
5.1360629921259839
21
1.897456220472441
0
LINE
8
BLACK
6
CONTINUOUS
10
5.1360629921259839
20
1.897456220472441
11
5.1360629921259839
21
1.9722593700787401
0
LINE
8
BLACK
6
CONTINUOUS
10
5.1360629921259839
20
1.9722593700787401
11
5.1362128346456695
21
1.9730126771653542
0
LINE
8
BLACK
6
CONTINUOUS
10
5.1362128346456695
20
1.9730126771653542
11
5.1372781889763779
21
1.9740780314960629
0
LINE
8
BLACK
6
CONTINUOUS
10
5.1372781889763779
20
1.9740780314960629
11
5.1380314960629923
21
1.974227874015748
0
LINE
8
BLACK
6
CONTINUOUS
10
5.1380314960629923
20
1.974227874015748
11
5.2703149606299213
21
1.974227874015748
0
LINE
8
BLACK
6
CONTINUOUS
10
5.2703149606299213
20
1.974227874015748
11
5.2710682677165357
21
1.9740780314960629
0
LINE
8
BLACK
6
CONTINUOUS
10
5.1429527559055117
20
1.7399759055118109
11
5.1429527559055117
21
1.6691097637795276
0
LINE
8
BLACK
6
CONTINUOUS
10
5.1429527559055117
20
1.6691097637795276
11
5.271299212598425
21
1.6691097637795276
0
LINE
8
BLACK
6
CONTINUOUS
10
5.271299212598425
20
1.6691097637795276
11
5.271299212598425
21
1.7399759055118109
0
LINE
8
BLACK
6
CONTINUOUS
10
5.271299212598425
20
1.7399759055118109
11
5.1429527559055117
21
1.7399759055118109
0
LINE
8
BLACK
6
CONTINUOUS
10
5.141968503937008
20
1.8167475590551181
11
5.141968503937008
21
1.7458814173228345
0
LINE
8
BLACK
6
CONTINUOUS
10
5.141968503937008
20
1.7458814173228345
11
5.2703149606299213
21
1.7458814173228345
0
LINE
8
BLACK
6
CONTINUOUS
10
5.2703149606299213
20
1.7458814173228345
11
5.2703149606299213
21
1.8167475590551181
0
LINE
8
BLACK
6
CONTINUOUS
10
5.2703149606299213
20
1.8167475590551181
11
5.141968503937008
21
1.8167475590551181
0
LINE
8
BLACK
6
CONTINUOUS
10
5.1409842519685034
20
1.8935192125984253
11
5.1409842519685034
21
1.8226530708661417
0
LINE
8
BLACK
6
CONTINUOUS
10
5.1409842519685034
20
1.8226530708661417
11
5.2693307086614176
21
1.8226530708661417
0
LINE
8
BLACK
6
CONTINUOUS
10
5.2693307086614176
20
1.8226530708661417
11
5.2693307086614176
21
1.8935192125984253
0
LINE
8
BLACK
6
CONTINUOUS
10
5.2693307086614176
20
1.8935192125984253
11
5.1409842519685034
21
1.8935192125984253
0
LINE
8
BLACK
6
CONTINUOUS
10
5.1399999999999997
20
1.9702908661417322
11
5.1399999999999997
21
1.8994247244094489
0
LINE
8
BLACK
6
CONTINUOUS
10
5.1399999999999997
20
1.8994247244094489
11
5.268346456692913
21
1.8994247244094489
0
LINE
8
BLACK
6
CONTINUOUS
10
5.268346456692913
20
1.8994247244094489
11
5.268346456692913
21
1.9702908661417322
0
LINE
8
BLACK
6
CONTINUOUS
10
5.268346456692913
20
1.9702908661417322
11
5.1399999999999997
21
1.9702908661417322
0
LINE
8
BLACK
6
CONTINUOUS
10
5.2715603937007876
20
2.4504559842519686
11
5.272625748031496
21
2.4493906299212598
0
LINE
8
BLACK
6
CONTINUOUS
10
5.272625748031496
20
2.4493906299212598
11
5.2727755905511806
21
2.4486373228346454
0
LINE
8
BLACK
6
CONTINUOUS
10
5.2727755905511806
20
2.4486373228346454
11
5.2727755905511806
21
2.3738341732283463
0
LINE
8
BLACK
6
CONTINUOUS
10
5.2727755905511806
20
2.3738341732283463
11
5.272625748031496
21
2.3730808661417324
0
LINE
8
BLACK
6
CONTINUOUS
10
5.272625748031496
20
2.3730808661417324
11
5.2723948031496057
21
2.3728499212598426
0
LINE
8
BLACK
6
CONTINUOUS
10
5.2723948031496057
20
2.3728499212598426
11
5.272625748031496
21
2.3726189763779528
0
LINE
8
BLACK
6
CONTINUOUS
10
5.272625748031496
20
2.3726189763779528
11
5.2727755905511806
21
2.3718656692913385
0
LINE
8
BLACK
6
CONTINUOUS
10
5.2727755905511806
20
2.3718656692913385
11
5.2727755905511806
21
2.2970625196850394
0
LINE
8
BLACK
6
CONTINUOUS
10
5.2727755905511806
20
2.2970625196850394
11
5.272625748031496
21
2.296309212598425
0
LINE
8
BLACK
6
CONTINUOUS
10
5.272625748031496
20
2.296309212598425
11
5.2719026771653539
21
2.2955861417322834
0
LINE
8
BLACK
6
CONTINUOUS
10
5.2719026771653539
20
2.2955861417322834
11
5.272625748031496
21
2.2948630708661417
0
LINE
8
BLACK
6
CONTINUOUS
10
5.272625748031496
20
2.2948630708661417
11
5.2727755905511806
21
2.2941097637795274
0
LINE
8
BLACK
6
CONTINUOUS
10
5.2727755905511806
20
2.2941097637795274
11
5.2727755905511806
21
2.2193066141732283
0
LINE
8
BLACK
6
CONTINUOUS
10
5.2727755905511806
20
2.2193066141732283
11
5.272625748031496
21
2.2185533070866139
0
LINE
8
BLACK
6
CONTINUOUS
10
5.272625748031496
20
2.2185533070866139
11
5.2722834645669288
21
2.2182110236220471
0
LINE
8
BLACK
6
CONTINUOUS
10
5.2722834645669288
20
2.2182110236220471
11
5.2722834645669288
21
2.143519212598425
0
LINE
8
BLACK
6
CONTINUOUS
10
5.2722834645669288
20
2.143519212598425
11
5.2721336220472441
21
2.1427659055118111
0
LINE
8
BLACK
6
CONTINUOUS
10
5.2721336220472441
20
2.1427659055118111
11
5.2710682677165357
21
2.1417005511811023
0
LINE
8
BLACK
6
CONTINUOUS
10
5.2710682677165357
20
2.1417005511811023
11
5.2703149606299213
21
2.1415507086614172
0
LINE
8
BLACK
6
CONTINUOUS
10
5.2703149606299213
20
2.1415507086614172
11
5.1380314960629923
21
2.1415507086614172
0
LINE
8
BLACK
6
CONTINUOUS
10
5.1380314960629923
20
2.1415507086614172
11
5.1372781889763779
21
2.1417005511811023
0
LINE
8
BLACK
6
CONTINUOUS
10
5.1372781889763779
20
2.1417005511811023
11
5.1362128346456695
21
2.1427659055118111
0
LINE
8
BLACK
6
CONTINUOUS
10
5.1362128346456695
20
2.1427659055118111
11
5.1360629921259839
21
2.143519212598425
0
LINE
8
BLACK
6
CONTINUOUS
10
5.1360629921259839
20
2.143519212598425
11
5.1360629921259839
21
2.2183223622047246
0
LINE
8
BLACK
6
CONTINUOUS
10
5.1360629921259839
20
2.2183223622047246
11
5.1362128346456695
21
2.2190756692913385
0
LINE
8
BLACK
6
CONTINUOUS
10
5.1362128346456695
20
2.2190756692913385
11
5.1365551181102358
21
2.2194179527559053
0
LINE
8
BLACK
6
CONTINUOUS
10
5.1365551181102358
20
2.2194179527559053
11
5.1365551181102358
21
2.2941097637795274
0
LINE
8
BLACK
6
CONTINUOUS
10
5.1365551181102358
20
2.2941097637795274
11
5.1367049606299213
21
2.2948630708661417
0
LINE
8
BLACK
6
CONTINUOUS
10
5.1367049606299213
20
2.2948630708661417
11
5.1374280314960625
21
2.2955861417322834
0
LINE
8
BLACK
6
CONTINUOUS
10
5.1374280314960625
20
2.2955861417322834
11
5.1367049606299213
21
2.296309212598425
0
LINE
8
BLACK
6
CONTINUOUS
10
5.1367049606299213
20
2.296309212598425
11
5.1365551181102358
21
2.2970625196850394
0
LINE
8
BLACK
6
CONTINUOUS
10
5.1365551181102358
20
2.2970625196850394
11
5.1365551181102358
21
2.3718656692913385
0
LINE
8
BLACK
6
CONTINUOUS
10
5.1365551181102358
20
2.3718656692913385
11
5.1367049606299213
21
2.3726189763779528
0
LINE
8
BLACK
6
CONTINUOUS
10
5.1367049606299213
20
2.3726189763779528
11
5.1369359055118107
21
2.3728499212598426
0
LINE
8
BLACK
6
CONTINUOUS
10
5.1369359055118107
20
2.3728499212598426
11
5.1367049606299213
21
2.3730808661417324
0
LINE
8
BLACK
6
CONTINUOUS
10
5.1367049606299213
20
2.3730808661417324
11
5.1365551181102358
21
2.3738341732283463
0
LINE
8
BLACK
6
CONTINUOUS
10
5.1365551181102358
20
2.3738341732283463
11
5.1365551181102358
21
2.4486373228346454
0
LINE
8
BLACK
6
CONTINUOUS
10
5.1365551181102358
20
2.4486373228346454
11
5.1367049606299213
21
2.4493906299212598
0
LINE
8
BLACK
6
CONTINUOUS
10
5.1367049606299213
20
2.4493906299212598
11
5.1377703149606297
21
2.4504559842519686
0
LINE
8
BLACK
6
CONTINUOUS
10
5.1377703149606297
20
2.4504559842519686
11
5.1385236220472441
21
2.4506058267716533
0
LINE
8
BLACK
6
CONTINUOUS
10
5.1385236220472441
20
2.4506058267716533
11
5.2708070866141732
21
2.4506058267716533
0
LINE
8
BLACK
6
CONTINUOUS
10
5.2708070866141732
20
2.4506058267716533
11
5.2715603937007876
21
2.4504559842519686
0
LINE
8
BLACK
6
CONTINUOUS
10
5.1399999999999997
20
2.2163538582677167
11
5.1399999999999997
21
2.1454877165354329
0
LINE
8
BLACK
6
CONTINUOUS
10
5.1399999999999997
20
2.1454877165354329
11
5.268346456692913
21
2.1454877165354329
0
LINE
8
BLACK
6
CONTINUOUS
10
5.268346456692913
20
2.1454877165354329
11
5.268346456692913
21
2.2163538582677167
0
LINE
8
BLACK
6
CONTINUOUS
10
5.268346456692913
20
2.2163538582677167
11
5.1399999999999997
21
2.2163538582677167
0
LINE
8
BLACK
6
CONTINUOUS
10
5.1404921259842515
20
2.2921412598425195
11
5.1404921259842515
21
2.2212751181102361
0
LINE
8
BLACK
6
CONTINUOUS
10
5.1404921259842515
20
2.2212751181102361
11
5.2688385826771649
21
2.2212751181102361
0
LINE
8
BLACK
6
CONTINUOUS
10
5.2688385826771649
20
2.2212751181102361
11
5.2688385826771649
21
2.2921412598425195
0
LINE
8
BLACK
6
CONTINUOUS
10
5.2688385826771649
20
2.2921412598425195
11
5.1404921259842515
21
2.2921412598425195
0
LINE
8
BLACK
6
CONTINUOUS
10
5.1404921259842515
20
2.3698971653543306
11
5.1404921259842515
21
2.2990310236220473
0
LINE
8
BLACK
6
CONTINUOUS
10
5.1404921259842515
20
2.2990310236220473
11
5.2688385826771649
21
2.2990310236220473
0
LINE
8
BLACK
6
CONTINUOUS
10
5.2688385826771649
20
2.2990310236220473
11
5.2688385826771649
21
2.3698971653543306
0
LINE
8
BLACK
6
CONTINUOUS
10
5.2688385826771649
20
2.3698971653543306
11
5.1404921259842515
21
2.3698971653543306
0
LINE
8
BLACK
6
CONTINUOUS
10
5.1404921259842515
20
2.4466688188976375
11
5.1404921259842515
21
2.3758026771653542
0
LINE
8
BLACK
6
CONTINUOUS
10
5.1404921259842515
20
2.3758026771653542
11
5.2688385826771649
21
2.3758026771653542
0
LINE
8
BLACK
6
CONTINUOUS
10
5.2688385826771649
20
2.3758026771653542
11
5.2688385826771649
21
2.4466688188976375
0
LINE
8
BLACK
6
CONTINUOUS
10
5.2688385826771649
20
2.4466688188976375
11
5.1404921259842515
21
2.4466688188976375
0
LINE
8
BLACK
6
CONTINUOUS
10
5.2698871653543309
20
2.8199682677165354
11
5.2709525196850393
21
2.8189029133858265
0
LINE
8
BLACK
6
CONTINUOUS
10
5.2709525196850393
20
2.8189029133858265
11
5.2711023622047239
21
2.8181496062992126
0
LINE
8
BLACK
6
CONTINUOUS
10
5.2711023622047239
20
2.8181496062992126
11
5.2711023622047239
21
2.6858661417322836
0
LINE
8
BLACK
6
CONTINUOUS
10
5.2711023622047239
20
2.6858661417322836
11
5.2709525196850393
21
2.6851128346456692
0
LINE
8
BLACK
6
CONTINUOUS
10
5.2709525196850393
20
2.6851128346456692
11
5.2701802362204724
21
2.6843405511811023
0
LINE
8
BLACK
6
CONTINUOUS
10
5.2701802362204724
20
2.6843405511811023
11
5.2709525196850393
21
2.6835682677165353
0
LINE
8
BLACK
6
CONTINUOUS
10
5.2709525196850393
20
2.6835682677165353
11
5.2711023622047239
21
2.6828149606299214
0
LINE
8
BLACK
6
CONTINUOUS
10
5.2711023622047239
20
2.6828149606299214
11
5.2711023622047239
21
2.5505314960629919
0
LINE
8
BLACK
6
CONTINUOUS
10
5.2711023622047239
20
2.5505314960629919
11
5.2709525196850393
21
2.549778188976378
0
LINE
8
BLACK
6
CONTINUOUS
10
5.2709525196850393
20
2.549778188976378
11
5.2698871653543309
21
2.5487128346456691
0
LINE
8
BLACK
6
CONTINUOUS
10
5.2698871653543309
20
2.5487128346456691
11
5.2691338582677165
21
2.548562992125984
0
LINE
8
BLACK
6
CONTINUOUS
10
5.2691338582677165
20
2.548562992125984
11
5.1943307086614174
21
2.548562992125984
0
LINE
8
BLACK
6
CONTINUOUS
10
5.1943307086614174
20
2.548562992125984
11
5.1935774015748031
21
2.5487128346456691
0
LINE
8
BLACK
6
CONTINUOUS
10
5.1935774015748031
20
2.5487128346456691
11
5.1925120472440947
21
2.549778188976378
0
LINE
8
BLACK
6
CONTINUOUS
10
5.1925120472440947
20
2.549778188976378
11
5.1923622047244091
21
2.5505314960629919
0
LINE
8
BLACK
6
CONTINUOUS
10
5.1923622047244091
20
2.5505314960629919
11
5.1923622047244091
21
2.6828149606299214
0
LINE
8
BLACK
6
CONTINUOUS
10
5.1923622047244091
20
2.6828149606299214
11
5.1925120472440947
21
2.6835682677165353
0
LINE
8
BLACK
6
CONTINUOUS
10
5.1925120472440947
20
2.6835682677165353
11
5.1932843307086616
21
2.6843405511811023
0
LINE
8
BLACK
6
CONTINUOUS
10
5.1932843307086616
20
2.6843405511811023
11
5.1925120472440947
21
2.6851128346456692
0
LINE
8
BLACK
6
CONTINUOUS
10
5.1925120472440947
20
2.6851128346456692
11
5.1923622047244091
21
2.6858661417322836
0
LINE
8
BLACK
6
CONTINUOUS
10
5.1923622047244091
20
2.6858661417322836
11
5.1923622047244091
21
2.8181496062992126
0
LINE
8
BLACK
6
CONTINUOUS
10
5.1923622047244091
20
2.8181496062992126
11
5.1925120472440947
21
2.8189029133858265
0
LINE
8
BLACK
6
CONTINUOUS
10
5.1925120472440947
20
2.8189029133858265
11
5.1935774015748031
21
2.8199682677165354
0
LINE
8
BLACK
6
CONTINUOUS
10
5.1935774015748031
20
2.8199682677165354
11
5.1943307086614174
21
2.8201181102362205
0
LINE
8
BLACK
6
CONTINUOUS
10
5.1943307086614174
20
2.8201181102362205
11
5.2691338582677165
21
2.8201181102362205
0
LINE
8
BLACK
6
CONTINUOUS
10
5.2691338582677165
20
2.8201181102362205
11
5.2698871653543309
21
2.8199682677165354
0
LINE
8
BLACK
6
CONTINUOUS
10
5.1962992125984249
20
2.6808464566929131
11
5.1962992125984249
21
2.5524999999999998
0
LINE
8
BLACK
6
CONTINUOUS
10
5.1962992125984249
20
2.5524999999999998
11
5.2671653543307082
21
2.5524999999999998
0
LINE
8
BLACK
6
CONTINUOUS
10
5.2671653543307082
20
2.5524999999999998
11
5.2671653543307082
21
2.6808464566929131
0
LINE
8
BLACK
6
CONTINUOUS
10
5.2671653543307082
20
2.6808464566929131
11
5.1962992125984249
21
2.6808464566929131
0
LINE
8
BLACK
6
CONTINUOUS
10
5.1962992125984249
20
2.8161811023622048
11
5.1962992125984249
21
2.6878346456692914
0
LINE
8
BLACK
6
CONTINUOUS
10
5.1962992125984249
20
2.6878346456692914
11
5.2671653543307082
21
2.6878346456692914
0
LINE
8
BLACK
6
CONTINUOUS
10
5.2671653543307082
20
2.6878346456692914
11
5.2671653543307082
21
2.8161811023622048
0
LINE
8
BLACK
6
CONTINUOUS
10
5.2671653543307082
20
2.8161811023622048
11
5.1962992125984249
21
2.8161811023622048
0
CIRCLE
8
BLACK
10
1.4364566929133857
20
0.5951181102362204
40
0.0068897637795276
0
CIRCLE
8
BLACK
10
2.1962992125984253
20
0.5951181102362204
40
0.0068897637795276
0
CIRCLE
8
BLACK
10
1.4364566929133857
20
2.7848818897637795
40
0.0068897637795276
0
CIRCLE
8
BLACK
10
2.1962992125984253
20
2.7848818897637795
40
0.0068897637795276
0
CIRCLE
8
BLACK
10
1.4364566929133857
20
0.2608661417322835
40
0.0068897637795276
0
CIRCLE
8
BLACK
10
1.4364566929133857
20
3.1191338582677166
40
0.0068897637795276
0
CIRCLE
8
BLACK
10
2.1962992125984253
20
0.2608661417322835
40
0.0068897637795276
0
CIRCLE
8
BLACK
10
2.1962992125984253
20
3.1191338582677166
40
0.0068897637795276
0
CIRCLE
8
BLACK
10
5.1899999999999995
20
3.0899999999999999
40
0.0068897637795276
0
LINE
8
BLACK
6
CONTINUOUS
10
5.1175107480314956
20
1.3246533858267717
11
5.1210587795275586
21
1.3231837401574802
0
LINE
8
BLACK
6
CONTINUOUS
10
5.1210587795275586
20
1.3231837401574802
11
5.1237742913385826
21
1.3204682283464566
0
LINE
8
BLACK
6
CONTINUOUS
10
5.1237742913385826
20
1.3204682283464566
11
5.1252439370078742
21
1.3169201968503936
0
LINE
8
BLACK
6
CONTINUOUS
10
5.1252439370078742
20
1.3169201968503936
11
5.1252439370078742
21
1.3130798031496063
0
LINE
8
BLACK
6
CONTINUOUS
10
5.1252439370078742
20
1.3130798031496063
11
5.1237742913385826
21
1.3095317716535433
0
LINE
8
BLACK
6
CONTINUOUS
10
5.1237742913385826
20
1.3095317716535433
11
5.1210587795275586
21
1.3068162598425197
0
LINE
8
BLACK
6
CONTINUOUS
10
5.1210587795275586
20
1.3068162598425197
11
5.1175107480314956
21
1.3053466141732284
0
LINE
8
BLACK
6
CONTINUOUS
10
5.1175107480314956
20
1.3053466141732284
11
5.1155905511811026
21
1.3051574803149606
0
LINE
8
BLACK
6
CONTINUOUS
10
5.1155905511811026
20
1.3051574803149606
11
5.0998425196850397
21
1.3051574803149606
0
LINE
8
BLACK
6
CONTINUOUS
10
5.0998425196850397
20
1.3051574803149606
11
5.0979223228346457
21
1.3053466141732284
0
LINE
8
BLACK
6
CONTINUOUS
10
5.0979223228346457
20
1.3053466141732284
11
5.0943742913385828
21
1.3068162598425197
0
LINE
8
BLACK
6
CONTINUOUS
10
5.0943742913385828
20
1.3068162598425197
11
5.0916587795275587
21
1.3095317716535433
0
LINE
8
BLACK
6
CONTINUOUS
10
5.0916587795275587
20
1.3095317716535433
11
5.0901891338582672
21
1.3130798031496063
0
LINE
8
BLACK
6
CONTINUOUS
10
5.0901891338582672
20
1.3130798031496063
11
5.0901891338582672
21
1.3169201968503936
0
LINE
8
BLACK
6
CONTINUOUS
10
5.0901891338582672
20
1.3169201968503936
11
5.0916587795275587
21
1.3204682283464566
0
LINE
8
BLACK
6
CONTINUOUS
10
5.0916587795275587
20
1.3204682283464566
11
5.0943742913385828
21
1.3231837401574802
0
LINE
8
BLACK
6
CONTINUOUS
10
5.0943742913385828
20
1.3231837401574802
11
5.0979223228346457
21
1.3246533858267717
0
LINE
8
BLACK
6
CONTINUOUS
10
5.0979223228346457
20
1.3246533858267717
11
5.0998425196850397
21
1.3248425196850393
0
LINE
8
BLACK
6
CONTINUOUS
10
5.0998425196850397
20
1.3248425196850393
11
5.1155905511811026
21
1.3248425196850393
0
LINE
8
BLACK
6
CONTINUOUS
10
5.1155905511811026
20
1.3248425196850393
11
5.1175107480314956
21
1.3246533858267717
0
LINE
8
BLACK
6
CONTINUOUS
10
5.1175107480314956
20
1.4919762204724409
11
5.1210587795275586
21
1.4905065748031496
0
LINE
8
BLACK
6
CONTINUOUS
10
5.1210587795275586
20
1.4905065748031496
11
5.1237742913385826
21
1.487791062992126
0
LINE
8
BLACK
6
CONTINUOUS
10
5.1237742913385826
20
1.487791062992126
11
5.1252439370078742
21
1.4842430314960628
0
LINE
8
BLACK
6
CONTINUOUS
10
5.1252439370078742
20
1.4842430314960628
11
5.1252439370078742
21
1.4804026377952755
0
LINE
8
BLACK
6
CONTINUOUS
10
5.1252439370078742
20
1.4804026377952755
11
5.1237742913385826
21
1.4768546062992125
0
LINE
8
BLACK
6
CONTINUOUS
10
5.1237742913385826
20
1.4768546062992125
11
5.1210587795275586
21
1.4741390944881889
0
LINE
8
BLACK
6
CONTINUOUS
10
5.1210587795275586
20
1.4741390944881889
11
5.1175107480314956
21
1.4726694488188976
0
LINE
8
BLACK
6
CONTINUOUS
10
5.1175107480314956
20
1.4726694488188976
11
5.1155905511811026
21
1.4724803149606298
0
LINE
8
BLACK
6
CONTINUOUS
10
5.1155905511811026
20
1.4724803149606298
11
5.0998425196850397
21
1.4724803149606298
0
LINE
8
BLACK
6
CONTINUOUS
10
5.0998425196850397
20
1.4724803149606298
11
5.0979223228346457
21
1.4726694488188976
0
LINE
8
BLACK
6
CONTINUOUS
10
5.0979223228346457
20
1.4726694488188976
11
5.0943742913385828
21
1.4741390944881889
0
LINE
8
BLACK
6
CONTINUOUS
10
5.0943742913385828
20
1.4741390944881889
11
5.0916587795275587
21
1.4768546062992125
0
LINE
8
BLACK
6
CONTINUOUS
10
5.0916587795275587
20
1.4768546062992125
11
5.0901891338582672
21
1.4804026377952755
0
LINE
8
BLACK
6
CONTINUOUS
10
5.0901891338582672
20
1.4804026377952755
11
5.0901891338582672
21
1.4842430314960628
0
LINE
8
BLACK
6
CONTINUOUS
10
5.0901891338582672
20
1.4842430314960628
11
5.0916587795275587
21
1.487791062992126
0
LINE
8
BLACK
6
CONTINUOUS
10
5.0916587795275587
20
1.487791062992126
11
5.0943742913385828
21
1.4905065748031496
0
LINE
8
BLACK
6
CONTINUOUS
10
5.0943742913385828
20
1.4905065748031496
11
5.0979223228346457
21
1.4919762204724409
0
LINE
8
BLACK
6
CONTINUOUS
10
5.0979223228346457
20
1.4919762204724409
11
5.0998425196850397
21
1.4921653543307087
0
LINE
8
BLACK
6
CONTINUOUS
10
5.0998425196850397
20
1.4921653543307087
11
5.1155905511811026
21
1.4921653543307087
0
LINE
8
BLACK
6
CONTINUOUS
10
5.1155905511811026
20
1.4921653543307087
11
5.1175107480314956
21
1.4919762204724409
0
CIRCLE
8
BLACK
10
0.39
20
3.0899999999999999
40
0.0068897637795276
0
CIRCLE
8
BLACK
10
3.0506299212598424
20
0.5953149606299213
40
0.0068897637795276
0
CIRCLE
8
BLACK
10
3.8104724409448818
20
0.5953149606299213
40
0.0068897637795276
0
CIRCLE
8
BLACK
10
4.5703149606299212
20
0.5953149606299213
40
0.0068897637795276
0
CIRCLE
8
BLACK
10
3.0506299212598424
20
2.7846850393700788
40
0.0068897637795276
0
CIRCLE
8
BLACK
10
3.8104724409448818
20
2.7846850393700788
40
0.0068897637795276
0
CIRCLE
8
BLACK
10
4.5703149606299212
20
2.7846850393700788
40
0.0068897637795276
0
CIRCLE
8
BLACK
10
3.0506299212598424
20
0.2628346456692913
40
0.0068897637795276
0
CIRCLE
8
BLACK
10
3.0506299212598424
20
3.1171653543307087
40
0.0068897637795276
0
CIRCLE
8
BLACK
10
3.8104724409448818
20
0.2628346456692913
40
0.0068897637795276
0
CIRCLE
8
BLACK
10
3.8104724409448818
20
3.1171653543307087
40
0.0068897637795276
0
CIRCLE
8
BLACK
10
4.5703149606299212
20
0.2628346456692913
40
0.0068897637795276
0
CIRCLE
8
BLACK
10
4.5703149606299212
20
3.1171653543307087
40
0.0068897637795276
0
CIRCLE
8
BLACK
10
5.1899999999999995
20
0.29
40
0.0068897637795276
0
CIRCLE
8
BLACK
10
0.39
20
0.29
40
0.0068897637795276
0
CIRCLE
8
BLACK
10
0.7494488188976378
20
2.6321259842519686
40
0.0068897637795276
0
CIRCLE
8
BLACK
10
0.7494488188976378
20
0.7340944881889764
40
0.0068897637795276
0
CIRCLE
8
BLACK
10
0.5289763779527559
20
1.4931496062992127
40
0.0068897637795276
0
CIRCLE
8
BLACK
10
0.5289763779527559
20
1.5718897637795275
40
0.0068897637795276
0
CIRCLE
8
BLACK
10
0.5289763779527559
20
1.6506299212598425
40
0.0068897637795276
0
CIRCLE
8
BLACK
10
0.5289763779527559
20
1.7293700787401574
40
0.0068897637795276
0
CIRCLE
8
BLACK
10
0.5289763779527559
20
1.8081102362204724
40
0.0068897637795276
0
CIRCLE
8
BLACK
10
0.5289763779527559
20
1.8868503937007874
40
0.0068897637795276
0
CIRCLE
8
BLACK
10
0.6077165354330708
20
1.4931496062992127
40
0.0068897637795276
0
CIRCLE
8
BLACK
10
0.6077165354330708
20
1.5718897637795275
40
0.0068897637795276
0
CIRCLE
8
BLACK
10
0.6077165354330708
20
1.6506299212598425
40
0.0068897637795276
0
CIRCLE
8
BLACK
10
0.6077165354330708
20
1.7293700787401574
40
0.0068897637795276
0
CIRCLE
8
BLACK
10
0.6077165354330708
20
1.8081102362204724
40
0.0068897637795276
0
CIRCLE
8
BLACK
10
0.6077165354330708
20
1.8868503937007874
40
0.0068897637795276
0
CIRCLE
8
BLACK
10
0.6864566929133858
20
1.4931496062992127
40
0.0068897637795276
0
CIRCLE
8
BLACK
10
0.6864566929133858
20
1.5718897637795275
40
0.0068897637795276
0
CIRCLE
8
BLACK
10
0.6864566929133858
20
1.6506299212598425
40
0.0068897637795276
0
CIRCLE
8
BLACK
10
0.6864566929133858
20
1.7293700787401574
40
0.0068897637795276
0
CIRCLE
8
BLACK
10
0.6864566929133858
20
1.8081102362204724
40
0.0068897637795276
0
CIRCLE
8
BLACK
10
0.6864566929133858
20
1.8868503937007874
40
0.0068897637795276
0
CIRCLE
8
BLACK
10
0.7651968503937008
20
1.4931496062992127
40
0.0068897637795276
0
CIRCLE
8
BLACK
10
0.7651968503937008
20
1.5718897637795275
40
0.0068897637795276
0
CIRCLE
8
BLACK
10
0.7651968503937008
20
1.6506299212598425
40
0.0068897637795276
0
CIRCLE
8
BLACK
10
0.7651968503937008
20
1.7293700787401574
40
0.0068897637795276
0
CIRCLE
8
BLACK
10
0.7651968503937008
20
1.8081102362204724
40
0.0068897637795276
0
CIRCLE
8
BLACK
10
0.7651968503937008
20
1.8868503937007874
40
0.0068897637795276
0
CIRCLE
8
BLACK
10
0.8439370078740157
20
1.4931496062992127
40
0.0068897637795276
0
CIRCLE
8
BLACK
10
0.8439370078740157
20
1.5718897637795275
40
0.0068897637795276
0
CIRCLE
8
BLACK
10
0.8439370078740157
20
1.6506299212598425
40
0.0068897637795276
0
CIRCLE
8
BLACK
10
0.8439370078740157
20
1.7293700787401574
40
0.0068897637795276
0
CIRCLE
8
BLACK
10
0.8439370078740157
20
1.8081102362204724
40
0.0068897637795276
0
CIRCLE
8
BLACK
10
0.8439370078740157
20
1.8868503937007874
40
0.0068897637795276
0
CIRCLE
8
BLACK
10
0.9462992125984252
20
1.068740157480315
40
0.0068897637795276
0
CIRCLE
8
BLACK
10
0.8478740157480315
20
1.068740157480315
40
0.0068897637795276
0
CIRCLE
8
BLACK
10
0.7494488188976378
20
1.068740157480315
40
0.0068897637795276
0
CIRCLE
8
BLACK
10
0.6510236220472441
20
1.068740157480315
40
0.0068897637795276
0
CIRCLE
8
BLACK
10
0.5525984251968504
20
1.068740157480315
40
0.0068897637795276
0
CIRCLE
8
BLACK
10
0.9462992125984252
20
0.9506299212598425
40
0.0068897637795276
0
CIRCLE
8
BLACK
10
0.8478740157480315
20
0.9506299212598425
40
0.0068897637795276
0
CIRCLE
8
BLACK
10
0.7494488188976378
20
0.9506299212598425
40
0.0068897637795276
0
CIRCLE
8
BLACK
10
0.6510236220472441
20
0.9506299212598425
40
0.0068897637795276
0
CIRCLE
8
BLACK
10
0.5525984251968504
20
0.9506299212598425
40
0.0068897637795276
0
CIRCLE
8
BLACK
10
0.9462992125984252
20
1.285275590551181
40
0.0068897637795276
0
CIRCLE
8
BLACK
10
0.8478740157480315
20
1.285275590551181
40
0.0068897637795276
0
CIRCLE
8
BLACK
10
0.7494488188976378
20
1.285275590551181
40
0.0068897637795276
0
CIRCLE
8
BLACK
10
0.6510236220472441
20
1.285275590551181
40
0.0068897637795276
0
CIRCLE
8
BLACK
10
0.5525984251968504
20
1.285275590551181
40
0.0068897637795276
0
CIRCLE
8
BLACK
10
0.9462992125984252
20
1.1671653543307086
40
0.0068897637795276
0
CIRCLE
8
BLACK
10
0.8478740157480315
20
1.1671653543307086
40
0.0068897637795276
0
CIRCLE
8
BLACK
10
0.7494488188976378
20
1.1671653543307086
40
0.0068897637795276
0
CIRCLE
8
BLACK
10
0.6510236220472441
20
1.1671653543307086
40
0.0068897637795276
0
CIRCLE
8
BLACK
10
0.5525984251968504
20
1.1671653543307086
40
0.0068897637795276
0
CIRCLE
8
BLACK
10
0.9462992125984252
20
2.1990551181102362
40
0.0068897637795276
0
CIRCLE
8
BLACK
10
0.8478740157480315
20
2.1990551181102362
40
0.0068897637795276
0
CIRCLE
8
BLACK
10
0.7494488188976378
20
2.1990551181102362
40
0.0068897637795276
0
CIRCLE
8
BLACK
10
0.6510236220472441
20
2.1990551181102362
40
0.0068897637795276
0
CIRCLE
8
BLACK
10
0.5525984251968504
20
2.1990551181102362
40
0.0068897637795276
0
CIRCLE
8
BLACK
10
0.9462992125984252
20
2.0809448818897636
40
0.0068897637795276
0
CIRCLE
8
BLACK
10
0.8478740157480315
20
2.0809448818897636
40
0.0068897637795276
0
CIRCLE
8
BLACK
10
0.7494488188976378
20
2.0809448818897636
40
0.0068897637795276
0
CIRCLE
8
BLACK
10
0.6510236220472441
20
2.0809448818897636
40
0.0068897637795276
0
CIRCLE
8
BLACK
10
0.5525984251968504
20
2.0809448818897636
40
0.0068897637795276
0
CIRCLE
8
BLACK
10
0.9462992125984252
20
2.4155905511811024
40
0.0068897637795276
0
CIRCLE
8
BLACK
10
0.8478740157480315
20
2.4155905511811024
40
0.0068897637795276
0
CIRCLE
8
BLACK
10
0.7494488188976378
20
2.4155905511811024
40
0.0068897637795276
0
CIRCLE
8
BLACK
10
0.6510236220472441
20
2.4155905511811024
40
0.0068897637795276
0
CIRCLE
8
BLACK
10
0.5525984251968504
20
2.4155905511811024
40
0.0068897637795276
0
CIRCLE
8
BLACK
10
0.9462992125984252
20
2.2974803149606298
40
0.0068897637795276
0
CIRCLE
8
BLACK
10
0.8478740157480315
20
2.2974803149606298
40
0.0068897637795276
0
CIRCLE
8
BLACK
10
0.7494488188976378
20
2.2974803149606298
40
0.0068897637795276
0
CIRCLE
8
BLACK
10
0.6510236220472441
20
2.2974803149606298
40
0.0068897637795276
0
CIRCLE
8
BLACK
10
0.5525984251968504
20
2.2974803149606298
40
0.0068897637795276
0
LINE
8
BLACK
6
CONTINUOUS
10
5.1214477559055114
20
1.0352833070866141
11
5.1249957874015744
21
1.0338136614173228
0
LINE
8
BLACK
6
CONTINUOUS
10
5.1249957874015744
20
1.0338136614173228
11
5.1277112992125984
21
1.0310981496062992
0
LINE
8
BLACK
6
CONTINUOUS
10
5.1277112992125984
20
1.0310981496062992
11
5.1291809448818899
21
1.0275501181102362
0
LINE
8
BLACK
6
CONTINUOUS
10
5.1291809448818899
20
1.0275501181102362
11
5.1291809448818899
21
1.0237097244094489
0
LINE
8
BLACK
6
CONTINUOUS
10
5.1291809448818899
20
1.0237097244094489
11
5.1277112992125984
21
1.0201616929133859
0
LINE
8
BLACK
6
CONTINUOUS
10
5.1277112992125984
20
1.0201616929133859
11
5.1249957874015744
21
1.0174461811023623
0
LINE
8
BLACK
6
CONTINUOUS
10
5.1249957874015744
20
1.0174461811023623
11
5.1214477559055114
21
1.0159765354330708
0
LINE
8
BLACK
6
CONTINUOUS
10
5.1214477559055114
20
1.0159765354330708
11
5.1195275590551184
21
1.0157874015748032
0
LINE
8
BLACK
6
CONTINUOUS
10
5.1195275590551184
20
1.0157874015748032
11
5.1037795275590554
21
1.0157874015748032
0
LINE
8
BLACK
6
CONTINUOUS
10
5.1037795275590554
20
1.0157874015748032
11
5.1018593307086615
21
1.0159765354330708
0
LINE
8
BLACK
6
CONTINUOUS
10
5.1018593307086615
20
1.0159765354330708
11
5.0983112992125985
21
1.0174461811023623
0
LINE
8
BLACK
6
CONTINUOUS
10
5.0983112992125985
20
1.0174461811023623
11
5.0955957874015745
21
1.0201616929133859
0
LINE
8
BLACK
6
CONTINUOUS
10
5.0955957874015745
20
1.0201616929133859
11
5.094126141732283
21
1.0237097244094489
0
LINE
8
BLACK
6
CONTINUOUS
10
5.094126141732283
20
1.0237097244094489
11
5.094126141732283
21
1.0275501181102362
0
LINE
8
BLACK
6
CONTINUOUS
10
5.094126141732283
20
1.0275501181102362
11
5.0955957874015745
21
1.0310981496062992
0
LINE
8
BLACK
6
CONTINUOUS
10
5.0955957874015745
20
1.0310981496062992
11
5.0983112992125985
21
1.0338136614173228
0
LINE
8
BLACK
6
CONTINUOUS
10
5.0983112992125985
20
1.0338136614173228
11
5.1018593307086615
21
1.0352833070866141
0
LINE
8
BLACK
6
CONTINUOUS
10
5.1018593307086615
20
1.0352833070866141
11
5.1037795275590554
21
1.0354724409448819
0
LINE
8
BLACK
6
CONTINUOUS
10
5.1037795275590554
20
1.0354724409448819
11
5.1195275590551184
21
1.0354724409448819
0
LINE
8
BLACK
6
CONTINUOUS
10
5.1195275590551184
20
1.0354724409448819
11
5.1214477559055114
21
1.0352833070866141
0
LINE
8
BLACK
6
CONTINUOUS
10
5.1214477559055114
20
1.2026061417322835
11
5.1249957874015744
21
1.201136496062992
0
LINE
8
BLACK
6
CONTINUOUS
10
5.1249957874015744
20
1.201136496062992
11
5.1277112992125984
21
1.1984209842519684
0
LINE
8
BLACK
6
CONTINUOUS
10
5.1277112992125984
20
1.1984209842519684
11
5.1291809448818899
21
1.1948729527559054
0
LINE
8
BLACK
6
CONTINUOUS
10
5.1291809448818899
20
1.1948729527559054
11
5.1291809448818899
21
1.1910325590551181
0
LINE
8
BLACK
6
CONTINUOUS
10
5.1291809448818899
20
1.1910325590551181
11
5.1277112992125984
21
1.1874845275590551
0
LINE
8
BLACK
6
CONTINUOUS
10
5.1277112992125984
20
1.1874845275590551
11
5.1249957874015744
21
1.1847690157480315
0
LINE
8
BLACK
6
CONTINUOUS
10
5.1249957874015744
20
1.1847690157480315
11
5.1214477559055114
21
1.1832993700787402
0
LINE
8
BLACK
6
CONTINUOUS
10
5.1214477559055114
20
1.1832993700787402
11
5.1195275590551184
21
1.1831102362204724
0
LINE
8
BLACK
6
CONTINUOUS
10
5.1195275590551184
20
1.1831102362204724
11
5.1037795275590554
21
1.1831102362204724
0
LINE
8
BLACK
6
CONTINUOUS
10
5.1037795275590554
20
1.1831102362204724
11
5.1018593307086615
21
1.1832993700787402
0
LINE
8
BLACK
6
CONTINUOUS
10
5.1018593307086615
20
1.1832993700787402
11
5.0983112992125985
21
1.1847690157480315
0
LINE
8
BLACK
6
CONTINUOUS
10
5.0983112992125985
20
1.1847690157480315
11
5.0955957874015745
21
1.1874845275590551
0
LINE
8
BLACK
6
CONTINUOUS
10
5.0955957874015745
20
1.1874845275590551
11
5.094126141732283
21
1.1910325590551181
0
LINE
8
BLACK
6
CONTINUOUS
10
5.094126141732283
20
1.1910325590551181
11
5.094126141732283
21
1.1948729527559054
0
LINE
8
BLACK
6
CONTINUOUS
10
5.094126141732283
20
1.1948729527559054
11
5.0955957874015745
21
1.1984209842519684
0
LINE
8
BLACK
6
CONTINUOUS
10
5.0955957874015745
20
1.1984209842519684
11
5.0983112992125985
21
1.201136496062992
0
LINE
8
BLACK
6
CONTINUOUS
10
5.0983112992125985
20
1.201136496062992
11
5.1018593307086615
21
1.2026061417322835
0
LINE
8
BLACK
6
CONTINUOUS
10
5.1018593307086615
20
1.2026061417322835
11
5.1037795275590554
21
1.2027952755905511
0
LINE
8
BLACK
6
CONTINUOUS
10
5.1037795275590554
20
1.2027952755905511
11
5.1195275590551184
21
1.2027952755905511
0
LINE
8
BLACK
6
CONTINUOUS
10
5.1195275590551184
20
1.2027952755905511
11
5.1214477559055114
21
1.2026061417322835
0
CIRCLE
8
BLACK
10
5.1360629921259839
20
2.8010236220472442
40
0.0068897637795276
0
CIRCLE
8
BLACK
10
5.1360629921259839
20
2.5734645669291338
40
0.0068897637795276
0
LINE
8
BLACK
6
CONTINUOUS
10
5.2982345669291337
20
2.8690327952755905
11
5.3012127952755908
21
2.8682348031496061
0
LINE
8
BLACK
6
CONTINUOUS
10
5.3012127952755908
20
2.8682348031496061
11
5.3038829921259838
21
2.8666931496062991
0
LINE
8
BLACK
6
CONTINUOUS
10
5.3038829921259838
20
2.8666931496062991
11
5.3060632283464564
21
2.8645129133858269
0
LINE
8
BLACK
6
CONTINUOUS
10
5.3060632283464564
20
2.8645129133858269
11
5.3076048818897634
21
2.861842716535433
0
LINE
8
BLACK
6
CONTINUOUS
10
5.3076048818897634
20
2.861842716535433
11
5.3084028740157478
21
2.8588644881889764
0
LINE
8
BLACK
6
CONTINUOUS
10
5.3084028740157478
20
2.8588644881889764
11
5.3084028740157478
21
2.8557811811023623
0
LINE
8
BLACK
6
CONTINUOUS
10
5.3084028740157478
20
2.8557811811023623
11
5.3076048818897634
21
2.8528029527559053
0
LINE
8
BLACK
6
CONTINUOUS
10
5.3076048818897634
20
2.8528029527559053
11
5.3060632283464564
21
2.8501327559055118
0
LINE
8
BLACK
6
CONTINUOUS
10
5.3060632283464564
20
2.8501327559055118
11
5.3038829921259838
21
2.8479525196850393
0
LINE
8
BLACK
6
CONTINUOUS
10
5.3038829921259838
20
2.8479525196850393
11
5.3012127952755908
21
2.8464108661417322
0
LINE
8
BLACK
6
CONTINUOUS
10
5.3012127952755908
20
2.8464108661417322
11
5.2982345669291337
21
2.8456128740157478
0
LINE
8
BLACK
6
CONTINUOUS
10
5.2982345669291337
20
2.8456128740157478
11
5.2966929133858267
21
2.8455118110236222
0
LINE
8
BLACK
6
CONTINUOUS
10
5.2966929133858267
20
2.8455118110236222
11
5.2651968503937008
21
2.8455118110236222
0
LINE
8
BLACK
6
CONTINUOUS
10
5.2651968503937008
20
2.8455118110236222
11
5.2636551968503937
21
2.8456128740157478
0
LINE
8
BLACK
6
CONTINUOUS
10
5.2636551968503937
20
2.8456128740157478
11
5.2606769685039367
21
2.8464108661417322
0
LINE
8
BLACK
6
CONTINUOUS
10
5.2606769685039367
20
2.8464108661417322
11
5.2580067716535428
21
2.8479525196850393
0
LINE
8
BLACK
6
CONTINUOUS
10
5.2580067716535428
20
2.8479525196850393
11
5.2558265354330711
21
2.8501327559055118
0
LINE
8
BLACK
6
CONTINUOUS
10
5.2558265354330711
20
2.8501327559055118
11
5.2542848818897641
21
2.8528029527559053
0
LINE
8
BLACK
6
CONTINUOUS
10
5.2542848818897641
20
2.8528029527559053
11
5.2534868897637796
21
2.8557811811023623
0
LINE
8
BLACK
6
CONTINUOUS
10
5.2534868897637796
20
2.8557811811023623
11
5.2534868897637796
21
2.8588644881889764
0
LINE
8
BLACK
6
CONTINUOUS
10
5.2534868897637796
20
2.8588644881889764
11
5.2542848818897641
21
2.861842716535433
0
LINE
8
BLACK
6
CONTINUOUS
10
5.2542848818897641
20
2.861842716535433
11
5.2558265354330711
21
2.8645129133858269
0
LINE
8
BLACK
6
CONTINUOUS
10
5.2558265354330711
20
2.8645129133858269
11
5.2580067716535428
21
2.8666931496062991
0
LINE
8
BLACK
6
CONTINUOUS
10
5.2580067716535428
20
2.8666931496062991
11
5.2606769685039367
21
2.8682348031496061
0
LINE
8
BLACK
6
CONTINUOUS
10
5.2606769685039367
20
2.8682348031496061
11
5.2636551968503937
21
2.8690327952755905
0
LINE
8
BLACK
6
CONTINUOUS
10
5.2636551968503937
20
2.8690327952755905
11
5.2651968503937008
21
2.8691338582677166
0
LINE
8
BLACK
6
CONTINUOUS
10
5.2651968503937008
20
2.8691338582677166
11
5.2966929133858267
21
2.8691338582677166
0
LINE
8
BLACK
6
CONTINUOUS
10
5.2966929133858267
20
2.8691338582677166
11
5.2982345669291337
21
2.8690327952755905
0
LINE
8
BLACK
6
CONTINUOUS
10
5.2982345669291337
20
2.5288753149606298
11
5.3012127952755908
21
2.5280773228346458
0
LINE
8
BLACK
6
CONTINUOUS
10
5.3012127952755908
20
2.5280773228346458
11
5.3038829921259838
21
2.5265356692913383
0
LINE
8
BLACK
6
CONTINUOUS
10
5.3038829921259838
20
2.5265356692913383
11
5.3060632283464564
21
2.5243554330708662
0
LINE
8
BLACK
6
CONTINUOUS
10
5.3060632283464564
20
2.5243554330708662
11
5.3076048818897634
21
2.5216852362204722
0
LINE
8
BLACK
6
CONTINUOUS
10
5.3076048818897634
20
2.5216852362204722
11
5.3084028740157478
21
2.5187070078740157
0
LINE
8
BLACK
6
CONTINUOUS
10
5.3084028740157478
20
2.5187070078740157
11
5.3084028740157478
21
2.5156237007874016
0
LINE
8
BLACK
6
CONTINUOUS
10
5.3084028740157478
20
2.5156237007874016
11
5.3076048818897634
21
2.5126454724409446
0
LINE
8
BLACK
6
CONTINUOUS
10
5.3076048818897634
20
2.5126454724409446
11
5.3060632283464564
21
2.5099752755905511
0
LINE
8
BLACK
6
CONTINUOUS
10
5.3060632283464564
20
2.5099752755905511
11
5.3038829921259838
21
2.5077950393700785
0
LINE
8
BLACK
6
CONTINUOUS
10
5.3038829921259838
20
2.5077950393700785
11
5.3012127952755908
21
2.5062533858267715
0
LINE
8
BLACK
6
CONTINUOUS
10
5.3012127952755908
20
2.5062533858267715
11
5.2982345669291337
21
2.5054553937007875
0
LINE
8
BLACK
6
CONTINUOUS
10
5.2982345669291337
20
2.5054553937007875
11
5.2966929133858267
21
2.5053543307086614
0
LINE
8
BLACK
6
CONTINUOUS
10
5.2966929133858267
20
2.5053543307086614
11
5.2651968503937008
21
2.5053543307086614
0
LINE
8
BLACK
6
CONTINUOUS
10
5.2651968503937008
20
2.5053543307086614
11
5.2636551968503937
21
2.5054553937007875
0
LINE
8
BLACK
6
CONTINUOUS
10
5.2636551968503937
20
2.5054553937007875
11
5.2606769685039367
21
2.5062533858267715
0
LINE
8
BLACK
6
CONTINUOUS
10
5.2606769685039367
20
2.5062533858267715
11
5.2580067716535428
21
2.5077950393700785
0
LINE
8
BLACK
6
CONTINUOUS
10
5.2580067716535428
20
2.5077950393700785
11
5.2558265354330711
21
2.5099752755905511
0
LINE
8
BLACK
6
CONTINUOUS
10
5.2558265354330711
20
2.5099752755905511
11
5.2542848818897641
21
2.5126454724409446
0
LINE
8
BLACK
6
CONTINUOUS
10
5.2542848818897641
20
2.5126454724409446
11
5.2534868897637796
21
2.5156237007874016
0
LINE
8
BLACK
6
CONTINUOUS
10
5.2534868897637796
20
2.5156237007874016
11
5.2534868897637796
21
2.5187070078740157
0
LINE
8
BLACK
6
CONTINUOUS
10
5.2534868897637796
20
2.5187070078740157
11
5.2542848818897641
21
2.5216852362204722
0
LINE
8
BLACK
6
CONTINUOUS
10
5.2542848818897641
20
2.5216852362204722
11
5.2558265354330711
21
2.5243554330708662
0
LINE
8
BLACK
6
CONTINUOUS
10
5.2558265354330711
20
2.5243554330708662
11
5.2580067716535428
21
2.5265356692913383
0
LINE
8
BLACK
6
CONTINUOUS
10
5.2580067716535428
20
2.5265356692913383
11
5.2606769685039367
21
2.5280773228346458
0
LINE
8
BLACK
6
CONTINUOUS
10
5.2606769685039367
20
2.5280773228346458
11
5.2636551968503937
21
2.5288753149606298
0
LINE
8
BLACK
6
CONTINUOUS
10
5.2636551968503937
20
2.5288753149606298
11
5.2651968503937008
21
2.5289763779527559
0
LINE
8
BLACK
6
CONTINUOUS
10
5.2651968503937008
20
2.5289763779527559
11
5.2966929133858267
21
2.5289763779527559
0
LINE
8
BLACK
6
CONTINUOUS
10
5.2966929133858267
20
2.5289763779527559
11
5.2982345669291337
21
2.5288753149606298
0
LINE
8
BLACK
6
CONTINUOUS
10
5.1395731496062993
20
2.8690327952755905
11
5.1425513779527554
21
2.8682348031496061
0
LINE
8
BLACK
6
CONTINUOUS
10
5.1425513779527554
20
2.8682348031496061
11
5.1452215748031493
21
2.8666931496062991
0
LINE
8
BLACK
6
CONTINUOUS
10
5.1452215748031493
20
2.8666931496062991
11
5.1474018110236219
21
2.8645129133858269
0
LINE
8
BLACK
6
CONTINUOUS
10
5.1474018110236219
20
2.8645129133858269
11
5.148943464566929
21
2.861842716535433
0
LINE
8
BLACK
6
CONTINUOUS
10
5.148943464566929
20
2.861842716535433
11
5.1497414566929134
21
2.8588644881889764
0
LINE
8
BLACK
6
CONTINUOUS
10
5.1497414566929134
20
2.8588644881889764
11
5.1497414566929134
21
2.8557811811023623
0
LINE
8
BLACK
6
CONTINUOUS
10
5.1497414566929134
20
2.8557811811023623
11
5.148943464566929
21
2.8528029527559053
0
LINE
8
BLACK
6
CONTINUOUS
10
5.148943464566929
20
2.8528029527559053
11
5.1474018110236219
21
2.8501327559055118
0
LINE
8
BLACK
6
CONTINUOUS
10
5.1474018110236219
20
2.8501327559055118
11
5.1452215748031493
21
2.8479525196850393
0
LINE
8
BLACK
6
CONTINUOUS
10
5.1452215748031493
20
2.8479525196850393
11
5.1425513779527554
21
2.8464108661417322
0
LINE
8
BLACK
6
CONTINUOUS
10
5.1425513779527554
20
2.8464108661417322
11
5.1395731496062993
21
2.8456128740157478
0
LINE
8
BLACK
6
CONTINUOUS
10
5.1395731496062993
20
2.8456128740157478
11
5.1380314960629923
21
2.8455118110236222
0
LINE
8
BLACK
6
CONTINUOUS
10
5.1380314960629923
20
2.8455118110236222
11
5.0947244094488191
21
2.8455118110236222
0
LINE
8
BLACK
6
CONTINUOUS
10
5.0947244094488191
20
2.8455118110236222
11
5.0931827559055121
21
2.8456128740157478
0
LINE
8
BLACK
6
CONTINUOUS
10
5.0931827559055121
20
2.8456128740157478
11
5.0902045275590551
21
2.8464108661417322
0
LINE
8
BLACK
6
CONTINUOUS
10
5.0902045275590551
20
2.8464108661417322
11
5.0875343307086611
21
2.8479525196850393
0
LINE
8
BLACK
6
CONTINUOUS
10
5.0875343307086611
20
2.8479525196850393
11
5.0853540944881885
21
2.8501327559055118
0
LINE
8
BLACK
6
CONTINUOUS
10
5.0853540944881885
20
2.8501327559055118
11
5.0838124409448815
21
2.8528029527559053
0
LINE
8
BLACK
6
CONTINUOUS
10
5.0838124409448815
20
2.8528029527559053
11
5.0830144488188971
21
2.8557811811023623
0
LINE
8
BLACK
6
CONTINUOUS
10
5.0830144488188971
20
2.8557811811023623
11
5.0830144488188971
21
2.8588644881889764
0
LINE
8
BLACK
6
CONTINUOUS
10
5.0830144488188971
20
2.8588644881889764
11
5.0838124409448815
21
2.861842716535433
0
LINE
8
BLACK
6
CONTINUOUS
10
5.0838124409448815
20
2.861842716535433
11
5.0853540944881885
21
2.8645129133858269
0
LINE
8
BLACK
6
CONTINUOUS
10
5.0853540944881885
20
2.8645129133858269
11
5.0875343307086611
21
2.8666931496062991
0
LINE
8
BLACK
6
CONTINUOUS
10
5.0875343307086611
20
2.8666931496062991
11
5.0902045275590551
21
2.8682348031496061
0
LINE
8
BLACK
6
CONTINUOUS
10
5.0902045275590551
20
2.8682348031496061
11
5.0931827559055121
21
2.8690327952755905
0
LINE
8
BLACK
6
CONTINUOUS
10
5.0931827559055121
20
2.8690327952755905
11
5.0947244094488191
21
2.8691338582677166
0
LINE
8
BLACK
6
CONTINUOUS
10
5.0947244094488191
20
2.8691338582677166
11
5.1380314960629923
21
2.8691338582677166
0
LINE
8
BLACK
6
CONTINUOUS
10
5.1380314960629923
20
2.8691338582677166
11
5.1395731496062993
21
2.8690327952755905
0
LINE
8
BLACK
6
CONTINUOUS
10
5.1395731496062993
20
2.5288753149606298
11
5.1425513779527554
21
2.5280773228346458
0
LINE
8
BLACK
6
CONTINUOUS
10
5.1425513779527554
20
2.5280773228346458
11
5.1452215748031493
21
2.5265356692913383
0
LINE
8
BLACK
6
CONTINUOUS
10
5.1452215748031493
20
2.5265356692913383
11
5.1474018110236219
21
2.5243554330708662
0
LINE
8
BLACK
6
CONTINUOUS
10
5.1474018110236219
20
2.5243554330708662
11
5.148943464566929
21
2.5216852362204722
0
LINE
8
BLACK
6
CONTINUOUS
10
5.148943464566929
20
2.5216852362204722
11
5.1497414566929134
21
2.5187070078740157
0
LINE
8
BLACK
6
CONTINUOUS
10
5.1497414566929134
20
2.5187070078740157
11
5.1497414566929134
21
2.5156237007874016
0
LINE
8
BLACK
6
CONTINUOUS
10
5.1497414566929134
20
2.5156237007874016
11
5.148943464566929
21
2.5126454724409446
0
LINE
8
BLACK
6
CONTINUOUS
10
5.148943464566929
20
2.5126454724409446
11
5.1474018110236219
21
2.5099752755905511
0
LINE
8
BLACK
6
CONTINUOUS
10
5.1474018110236219
20
2.5099752755905511
11
5.1452215748031493
21
2.5077950393700785
0
LINE
8
BLACK
6
CONTINUOUS
10
5.1452215748031493
20
2.5077950393700785
11
5.1425513779527554
21
2.5062533858267715
0
LINE
8
BLACK
6
CONTINUOUS
10
5.1425513779527554
20
2.5062533858267715
11
5.1395731496062993
21
2.5054553937007875
0
LINE
8
BLACK
6
CONTINUOUS
10
5.1395731496062993
20
2.5054553937007875
11
5.1380314960629923
21
2.5053543307086614
0
LINE
8
BLACK
6
CONTINUOUS
10
5.1380314960629923
20
2.5053543307086614
11
5.0947244094488191
21
2.5053543307086614
0
LINE
8
BLACK
6
CONTINUOUS
10
5.0947244094488191
20
2.5053543307086614
11
5.0931827559055121
21
2.5054553937007875
0
LINE
8
BLACK
6
CONTINUOUS
10
5.0931827559055121
20
2.5054553937007875
11
5.0902045275590551
21
2.5062533858267715
0
LINE
8
BLACK
6
CONTINUOUS
10
5.0902045275590551
20
2.5062533858267715
11
5.0875343307086611
21
2.5077950393700785
0
LINE
8
BLACK
6
CONTINUOUS
10
5.0875343307086611
20
2.5077950393700785
11
5.0853540944881885
21
2.5099752755905511
0
LINE
8
BLACK
6
CONTINUOUS
10
5.0853540944881885
20
2.5099752755905511
11
5.0838124409448815
21
2.5126454724409446
0
LINE
8
BLACK
6
CONTINUOUS
10
5.0838124409448815
20
2.5126454724409446
11
5.0830144488188971
21
2.5156237007874016
0
LINE
8
BLACK
6
CONTINUOUS
10
5.0830144488188971
20
2.5156237007874016
11
5.0830144488188971
21
2.5187070078740157
0
LINE
8
BLACK
6
CONTINUOUS
10
5.0830144488188971
20
2.5187070078740157
11
5.0838124409448815
21
2.5216852362204722
0
LINE
8
BLACK
6
CONTINUOUS
10
5.0838124409448815
20
2.5216852362204722
11
5.0853540944881885
21
2.5243554330708662
0
LINE
8
BLACK
6
CONTINUOUS
10
5.0853540944881885
20
2.5243554330708662
11
5.0875343307086611
21
2.5265356692913383
0
LINE
8
BLACK
6
CONTINUOUS
10
5.0875343307086611
20
2.5265356692913383
11
5.0902045275590551
21
2.5280773228346458
0
LINE
8
BLACK
6
CONTINUOUS
10
5.0902045275590551
20
2.5280773228346458
11
5.0931827559055121
21
2.5288753149606298
0
LINE
8
BLACK
6
CONTINUOUS
10
5.0931827559055121
20
2.5288753149606298
11
5.0947244094488191
21
2.5289763779527559
0
LINE
8
BLACK
6
CONTINUOUS
10
5.0947244094488191
20
2.5289763779527559
11
5.1380314960629923
21
2.5289763779527559
0
LINE
8
BLACK
6
CONTINUOUS
10
5.1380314960629923
20
2.5289763779527559
11
5.1395731496062993
21
2.5288753149606298
  0
ENDSEC
  0
EOF
