  0
SECTION
  2
HEADER
  9
$ANGBASE
  50
0.0
  9
$ANGDIR
  70
1
  9
$MEASUREMENT
  70
0
  0
ENDSEC
  0
SECTION
  2
TABLES
  0
TABLE
  2
LTYPE
  70
4
  0
LTYPE
  5
40F
  2
CONTINUOUS
  70
0
  3
Solid line
  72
65
  73
0
  40
0.0
  0
LTYPE
  5
410
  2
DASHDOT
 70
0
  3
Dash Dot ____ _ ____ _
 72
65
 73
4
 40
2.0
 49
1.25
 49
-0.25
 49
0.25
 49
-0.25
  0
LTYPE
  5
411
  2
DASHED
 70
0
  3
Dashed __ __ __ __ __
 72
65
 73
2
 40
0.75
 49
0.5
 49
-0.25
  0
LTYPE
  5
43B
  2
DOTTED
 70
0
  3
Dotted .  .  .  .
 72
65
 73
2
 40
0.2
 49
0.0
 49
-0.2
  0
ENDTAB
  0
TABLE
  2
STYLE
  70
4
  0
STYLE
  2
KICAD
  70
0
  40
0
  41
1
  42
1
  50
0
  71
0
  3
isocp.shx
  0
STYLE
  2
KICADB
  70
0
  40
0
  41
1
  42
1
  50
0
  71
0
  3
isocp.shx
  0
STYLE
  2
KICADI
  70
0
  40
0
  41
1
  42
1
  50
15
  71
0
  3
isocp.shx
  0
STYLE
  2
KICADBI
  70
0
  40
0
  41
1
  42
1
  50
15
  71
0
  3
isocp.shx
  0
ENDTAB
  0
TABLE
  2
LAYER
  70
1
  0
LAYER
  2
BLACK
  70
0
  62
7
  6
CONTINUOUS
  0
ENDTAB
  0
ENDSEC
  0
SECTION
  2
ENTITIES
0
LINE
8
BLACK
6
CONTINUOUS
10
5.31719
20
0.688267
11
5.32038
21
0.686133
0
LINE
8
BLACK
6
CONTINUOUS
10
5.32038
20
0.686133
11
5.32252
21
0.68294
0
LINE
8
BLACK
6
CONTINUOUS
10
5.32252
20
0.68294
11
5.32327
21
0.679173
0
LINE
8
BLACK
6
CONTINUOUS
10
5.32327
20
0.679173
11
5.32327
21
0.663425
0
LINE
8
BLACK
6
CONTINUOUS
10
5.32327
20
0.663425
11
5.32252
21
0.659659
0
LINE
8
BLACK
6
CONTINUOUS
10
5.32252
20
0.659659
11
5.32038
21
0.656465
0
LINE
8
BLACK
6
CONTINUOUS
10
5.32038
20
0.656465
11
5.31719
21
0.654332
0
LINE
8
BLACK
6
CONTINUOUS
10
5.31719
20
0.654332
11
5.31343
21
0.653583
0
LINE
8
BLACK
6
CONTINUOUS
10
5.31343
20
0.653583
11
5.29374
21
0.653583
0
LINE
8
BLACK
6
CONTINUOUS
10
5.29374
20
0.653583
11
5.28997
21
0.654332
0
LINE
8
BLACK
6
CONTINUOUS
10
5.28997
20
0.654332
11
5.28678
21
0.656465
0
LINE
8
BLACK
6
CONTINUOUS
10
5.28678
20
0.656465
11
5.28465
21
0.659659
0
LINE
8
BLACK
6
CONTINUOUS
10
5.28465
20
0.659659
11
5.2839
21
0.663425
0
LINE
8
BLACK
6
CONTINUOUS
10
5.2839
20
0.663425
11
5.2839
21
0.679173
0
LINE
8
BLACK
6
CONTINUOUS
10
5.2839
20
0.679173
11
5.28465
21
0.68294
0
LINE
8
BLACK
6
CONTINUOUS
10
5.28465
20
0.68294
11
5.28678
21
0.686133
0
LINE
8
BLACK
6
CONTINUOUS
10
5.28678
20
0.686133
11
5.28997
21
0.688267
0
LINE
8
BLACK
6
CONTINUOUS
10
5.28997
20
0.688267
11
5.29374
21
0.689016
0
LINE
8
BLACK
6
CONTINUOUS
10
5.29374
20
0.689016
11
5.31343
21
0.689016
0
LINE
8
BLACK
6
CONTINUOUS
10
5.31343
20
0.689016
11
5.31719
21
0.688267
0
LINE
8
BLACK
6
CONTINUOUS
10
5.31719
20
0.751259
11
5.32038
21
0.749125
0
LINE
8
BLACK
6
CONTINUOUS
10
5.32038
20
0.749125
11
5.32252
21
0.745932
0
LINE
8
BLACK
6
CONTINUOUS
10
5.32252
20
0.745932
11
5.32327
21
0.742165
0
LINE
8
BLACK
6
CONTINUOUS
10
5.32327
20
0.742165
11
5.32327
21
0.726417
0
LINE
8
BLACK
6
CONTINUOUS
10
5.32327
20
0.726417
11
5.32252
21
0.722651
0
LINE
8
BLACK
6
CONTINUOUS
10
5.32252
20
0.722651
11
5.32038
21
0.719458
0
LINE
8
BLACK
6
CONTINUOUS
10
5.32038
20
0.719458
11
5.31719
21
0.717324
0
LINE
8
BLACK
6
CONTINUOUS
10
5.31719
20
0.717324
11
5.31343
21
0.716575
0
LINE
8
BLACK
6
CONTINUOUS
10
5.31343
20
0.716575
11
5.29374
21
0.716575
0
LINE
8
BLACK
6
CONTINUOUS
10
5.29374
20
0.716575
11
5.28997
21
0.717324
0
LINE
8
BLACK
6
CONTINUOUS
10
5.28997
20
0.717324
11
5.28678
21
0.719458
0
LINE
8
BLACK
6
CONTINUOUS
10
5.28678
20
0.719458
11
5.28465
21
0.722651
0
LINE
8
BLACK
6
CONTINUOUS
10
5.28465
20
0.722651
11
5.2839
21
0.726417
0
LINE
8
BLACK
6
CONTINUOUS
10
5.2839
20
0.726417
11
5.2839
21
0.742165
0
LINE
8
BLACK
6
CONTINUOUS
10
5.2839
20
0.742165
11
5.28465
21
0.745932
0
LINE
8
BLACK
6
CONTINUOUS
10
5.28465
20
0.745932
11
5.28678
21
0.749125
0
LINE
8
BLACK
6
CONTINUOUS
10
5.28678
20
0.749125
11
5.28997
21
0.751259
0
LINE
8
BLACK
6
CONTINUOUS
10
5.28997
20
0.751259
11
5.29374
21
0.752008
0
LINE
8
BLACK
6
CONTINUOUS
10
5.29374
20
0.752008
11
5.31343
21
0.752008
0
LINE
8
BLACK
6
CONTINUOUS
10
5.31343
20
0.752008
11
5.31719
21
0.751259
0
LINE
8
BLACK
6
CONTINUOUS
10
5.31719
20
0.797519
11
5.32038
21
0.795385
0
LINE
8
BLACK
6
CONTINUOUS
10
5.32038
20
0.795385
11
5.32252
21
0.792192
0
LINE
8
BLACK
6
CONTINUOUS
10
5.32252
20
0.792192
11
5.32327
21
0.788425
0
LINE
8
BLACK
6
CONTINUOUS
10
5.32327
20
0.788425
11
5.32327
21
0.772677
0
LINE
8
BLACK
6
CONTINUOUS
10
5.32327
20
0.772677
11
5.32252
21
0.768911
0
LINE
8
BLACK
6
CONTINUOUS
10
5.32252
20
0.768911
11
5.32038
21
0.765717
0
LINE
8
BLACK
6
CONTINUOUS
10
5.32038
20
0.765717
11
5.31719
21
0.763584
0
LINE
8
BLACK
6
CONTINUOUS
10
5.31719
20
0.763584
11
5.31343
21
0.762835
0
LINE
8
BLACK
6
CONTINUOUS
10
5.31343
20
0.762835
11
5.29374
21
0.762835
0
LINE
8
BLACK
6
CONTINUOUS
10
5.29374
20
0.762835
11
5.28997
21
0.763584
0
LINE
8
BLACK
6
CONTINUOUS
10
5.28997
20
0.763584
11
5.28678
21
0.765717
0
LINE
8
BLACK
6
CONTINUOUS
10
5.28678
20
0.765717
11
5.28465
21
0.768911
0
LINE
8
BLACK
6
CONTINUOUS
10
5.28465
20
0.768911
11
5.2839
21
0.772677
0
LINE
8
BLACK
6
CONTINUOUS
10
5.2839
20
0.772677
11
5.2839
21
0.788425
0
LINE
8
BLACK
6
CONTINUOUS
10
5.2839
20
0.788425
11
5.28465
21
0.792192
0
LINE
8
BLACK
6
CONTINUOUS
10
5.28465
20
0.792192
11
5.28678
21
0.795385
0
LINE
8
BLACK
6
CONTINUOUS
10
5.28678
20
0.795385
11
5.28997
21
0.797519
0
LINE
8
BLACK
6
CONTINUOUS
10
5.28997
20
0.797519
11
5.29374
21
0.798268
0
LINE
8
BLACK
6
CONTINUOUS
10
5.29374
20
0.798268
11
5.31343
21
0.798268
0
LINE
8
BLACK
6
CONTINUOUS
10
5.31343
20
0.798268
11
5.31719
21
0.797519
0
LINE
8
BLACK
6
CONTINUOUS
10
5.31719
20
0.860511
11
5.32038
21
0.858377
0
LINE
8
BLACK
6
CONTINUOUS
10
5.32038
20
0.858377
11
5.32252
21
0.855184
0
LINE
8
BLACK
6
CONTINUOUS
10
5.32252
20
0.855184
11
5.32327
21
0.851417
0
LINE
8
BLACK
6
CONTINUOUS
10
5.32327
20
0.851417
11
5.32327
21
0.835669
0
LINE
8
BLACK
6
CONTINUOUS
10
5.32327
20
0.835669
11
5.32252
21
0.831903
0
LINE
8
BLACK
6
CONTINUOUS
10
5.32252
20
0.831903
11
5.32038
21
0.82871
0
LINE
8
BLACK
6
CONTINUOUS
10
5.32038
20
0.82871
11
5.31719
21
0.826576
0
LINE
8
BLACK
6
CONTINUOUS
10
5.31719
20
0.826576
11
5.31343
21
0.825827
0
LINE
8
BLACK
6
CONTINUOUS
10
5.31343
20
0.825827
11
5.29374
21
0.825827
0
LINE
8
BLACK
6
CONTINUOUS
10
5.29374
20
0.825827
11
5.28997
21
0.826576
0
LINE
8
BLACK
6
CONTINUOUS
10
5.28997
20
0.826576
11
5.28678
21
0.82871
0
LINE
8
BLACK
6
CONTINUOUS
10
5.28678
20
0.82871
11
5.28465
21
0.831903
0
LINE
8
BLACK
6
CONTINUOUS
10
5.28465
20
0.831903
11
5.2839
21
0.835669
0
LINE
8
BLACK
6
CONTINUOUS
10
5.2839
20
0.835669
11
5.2839
21
0.851417
0
LINE
8
BLACK
6
CONTINUOUS
10
5.2839
20
0.851417
11
5.28465
21
0.855184
0
LINE
8
BLACK
6
CONTINUOUS
10
5.28465
20
0.855184
11
5.28678
21
0.858377
0
LINE
8
BLACK
6
CONTINUOUS
10
5.28678
20
0.858377
11
5.28997
21
0.860511
0
LINE
8
BLACK
6
CONTINUOUS
10
5.28997
20
0.860511
11
5.29374
21
0.86126
0
LINE
8
BLACK
6
CONTINUOUS
10
5.29374
20
0.86126
11
5.31343
21
0.86126
0
LINE
8
BLACK
6
CONTINUOUS
10
5.31343
20
0.86126
11
5.31719
21
0.860511
0
LINE
8
BLACK
6
CONTINUOUS
10
5.31719
20
0.90677
11
5.32038
21
0.904637
0
LINE
8
BLACK
6
CONTINUOUS
10
5.32038
20
0.904637
11
5.32252
21
0.901444
0
LINE
8
BLACK
6
CONTINUOUS
10
5.32252
20
0.901444
11
5.32327
21
0.897677
0
LINE
8
BLACK
6
CONTINUOUS
10
5.32327
20
0.897677
11
5.32327
21
0.881929
0
LINE
8
BLACK
6
CONTINUOUS
10
5.32327
20
0.881929
11
5.32252
21
0.878163
0
LINE
8
BLACK
6
CONTINUOUS
10
5.32252
20
0.878163
11
5.32038
21
0.874969
0
LINE
8
BLACK
6
CONTINUOUS
10
5.32038
20
0.874969
11
5.31719
21
0.872836
0
LINE
8
BLACK
6
CONTINUOUS
10
5.31719
20
0.872836
11
5.31343
21
0.872087
0
LINE
8
BLACK
6
CONTINUOUS
10
5.31343
20
0.872087
11
5.29374
21
0.872087
0
LINE
8
BLACK
6
CONTINUOUS
10
5.29374
20
0.872087
11
5.28997
21
0.872836
0
LINE
8
BLACK
6
CONTINUOUS
10
5.28997
20
0.872836
11
5.28678
21
0.874969
0
LINE
8
BLACK
6
CONTINUOUS
10
5.28678
20
0.874969
11
5.28465
21
0.878163
0
LINE
8
BLACK
6
CONTINUOUS
10
5.28465
20
0.878163
11
5.2839
21
0.881929
0
LINE
8
BLACK
6
CONTINUOUS
10
5.2839
20
0.881929
11
5.2839
21
0.897677
0
LINE
8
BLACK
6
CONTINUOUS
10
5.2839
20
0.897677
11
5.28465
21
0.901444
0
LINE
8
BLACK
6
CONTINUOUS
10
5.28465
20
0.901444
11
5.28678
21
0.904637
0
LINE
8
BLACK
6
CONTINUOUS
10
5.28678
20
0.904637
11
5.28997
21
0.90677
0
LINE
8
BLACK
6
CONTINUOUS
10
5.28997
20
0.90677
11
5.29374
21
0.90752
0
LINE
8
BLACK
6
CONTINUOUS
10
5.29374
20
0.90752
11
5.31343
21
0.90752
0
LINE
8
BLACK
6
CONTINUOUS
10
5.31343
20
0.90752
11
5.31719
21
0.90677
0
LINE
8
BLACK
6
CONTINUOUS
10
5.31719
20
0.969763
11
5.32038
21
0.967629
0
LINE
8
BLACK
6
CONTINUOUS
10
5.32038
20
0.967629
11
5.32252
21
0.964436
0
LINE
8
BLACK
6
CONTINUOUS
10
5.32252
20
0.964436
11
5.32327
21
0.960669
0
LINE
8
BLACK
6
CONTINUOUS
10
5.32327
20
0.960669
11
5.32327
21
0.944921
0
LINE
8
BLACK
6
CONTINUOUS
10
5.32327
20
0.944921
11
5.32252
21
0.941155
0
LINE
8
BLACK
6
CONTINUOUS
10
5.32252
20
0.941155
11
5.32038
21
0.937962
0
LINE
8
BLACK
6
CONTINUOUS
10
5.32038
20
0.937962
11
5.31719
21
0.935828
0
LINE
8
BLACK
6
CONTINUOUS
10
5.31719
20
0.935828
11
5.31343
21
0.935079
0
LINE
8
BLACK
6
CONTINUOUS
10
5.31343
20
0.935079
11
5.29374
21
0.935079
0
LINE
8
BLACK
6
CONTINUOUS
10
5.29374
20
0.935079
11
5.28997
21
0.935828
0
LINE
8
BLACK
6
CONTINUOUS
10
5.28997
20
0.935828
11
5.28678
21
0.937962
0
LINE
8
BLACK
6
CONTINUOUS
10
5.28678
20
0.937962
11
5.28465
21
0.941155
0
LINE
8
BLACK
6
CONTINUOUS
10
5.28465
20
0.941155
11
5.2839
21
0.944921
0
LINE
8
BLACK
6
CONTINUOUS
10
5.2839
20
0.944921
11
5.2839
21
0.960669
0
LINE
8
BLACK
6
CONTINUOUS
10
5.2839
20
0.960669
11
5.28465
21
0.964436
0
LINE
8
BLACK
6
CONTINUOUS
10
5.28465
20
0.964436
11
5.28678
21
0.967629
0
LINE
8
BLACK
6
CONTINUOUS
10
5.28678
20
0.967629
11
5.28997
21
0.969763
0
LINE
8
BLACK
6
CONTINUOUS
10
5.28997
20
0.969763
11
5.29374
21
0.970512
0
LINE
8
BLACK
6
CONTINUOUS
10
5.29374
20
0.970512
11
5.31343
21
0.970512
0
LINE
8
BLACK
6
CONTINUOUS
10
5.31343
20
0.970512
11
5.31719
21
0.969763
0
LINE
8
BLACK
6
CONTINUOUS
10
5.16524
20
1.06137
11
5.16811
21
1.05945
0
LINE
8
BLACK
6
CONTINUOUS
10
5.16811
20
1.05945
11
5.17003
21
1.05658
0
LINE
8
BLACK
6
CONTINUOUS
10
5.17003
20
1.05658
11
5.17071
21
1.05319
0
LINE
8
BLACK
6
CONTINUOUS
10
5.17071
20
1.05319
11
5.17071
21
1.01972
0
LINE
8
BLACK
6
CONTINUOUS
10
5.17071
20
1.01972
11
5.17003
21
1.01633
0
LINE
8
BLACK
6
CONTINUOUS
10
5.17003
20
1.01633
11
5.16811
21
1.01346
0
LINE
8
BLACK
6
CONTINUOUS
10
5.16811
20
1.01346
11
5.16524
21
1.01154
0
LINE
8
BLACK
6
CONTINUOUS
10
5.16524
20
1.01154
11
5.16185
21
1.01087
0
LINE
8
BLACK
6
CONTINUOUS
10
5.16185
20
1.01087
11
5.14413
21
1.01087
0
LINE
8
BLACK
6
CONTINUOUS
10
5.14413
20
1.01087
11
5.14074
21
1.01154
0
LINE
8
BLACK
6
CONTINUOUS
10
5.14074
20
1.01154
11
5.13787
21
1.01346
0
LINE
8
BLACK
6
CONTINUOUS
10
5.13787
20
1.01346
11
5.13595
21
1.01633
0
LINE
8
BLACK
6
CONTINUOUS
10
5.13595
20
1.01633
11
5.13528
21
1.01972
0
LINE
8
BLACK
6
CONTINUOUS
10
5.13528
20
1.01972
11
5.13528
21
1.05319
0
LINE
8
BLACK
6
CONTINUOUS
10
5.13528
20
1.05319
11
5.13595
21
1.05658
0
LINE
8
BLACK
6
CONTINUOUS
10
5.13595
20
1.05658
11
5.13787
21
1.05945
0
LINE
8
BLACK
6
CONTINUOUS
10
5.13787
20
1.05945
11
5.14074
21
1.06137
0
LINE
8
BLACK
6
CONTINUOUS
10
5.14074
20
1.06137
11
5.14413
21
1.06205
0
LINE
8
BLACK
6
CONTINUOUS
10
5.14413
20
1.06205
11
5.16185
21
1.06205
0
LINE
8
BLACK
6
CONTINUOUS
10
5.16185
20
1.06205
11
5.16524
21
1.06137
0
LINE
8
BLACK
6
CONTINUOUS
10
5.1071
20
1.07526
11
5.10949
21
1.07366
0
LINE
8
BLACK
6
CONTINUOUS
10
5.10949
20
1.07366
11
5.11109
21
1.07127
0
LINE
8
BLACK
6
CONTINUOUS
10
5.11109
20
1.07127
11
5.11165
21
1.06844
0
LINE
8
BLACK
6
CONTINUOUS
10
5.11165
20
1.06844
11
5.11165
21
1.05368
0
LINE
8
BLACK
6
CONTINUOUS
10
5.11165
20
1.05368
11
5.11109
21
1.05086
0
LINE
8
BLACK
6
CONTINUOUS
10
5.11109
20
1.05086
11
5.10949
21
1.04846
0
LINE
8
BLACK
6
CONTINUOUS
10
5.10949
20
1.04846
11
5.1071
21
1.04686
0
LINE
8
BLACK
6
CONTINUOUS
10
5.1071
20
1.04686
11
5.10427
21
1.0463
0
LINE
8
BLACK
6
CONTINUOUS
10
5.10427
20
1.0463
11
5.04817
21
1.0463
0
LINE
8
BLACK
6
CONTINUOUS
10
5.04817
20
1.0463
11
5.04534
21
1.04686
0
LINE
8
BLACK
6
CONTINUOUS
10
5.04534
20
1.04686
11
5.04295
21
1.04846
0
LINE
8
BLACK
6
CONTINUOUS
10
5.04295
20
1.04846
11
5.04135
21
1.05086
0
LINE
8
BLACK
6
CONTINUOUS
10
5.04135
20
1.05086
11
5.04079
21
1.05368
0
LINE
8
BLACK
6
CONTINUOUS
10
5.04079
20
1.05368
11
5.04079
21
1.06844
0
LINE
8
BLACK
6
CONTINUOUS
10
5.04079
20
1.06844
11
5.04135
21
1.07127
0
LINE
8
BLACK
6
CONTINUOUS
10
5.04135
20
1.07127
11
5.04295
21
1.07366
0
LINE
8
BLACK
6
CONTINUOUS
10
5.04295
20
1.07366
11
5.04534
21
1.07526
0
LINE
8
BLACK
6
CONTINUOUS
10
5.04534
20
1.07526
11
5.04817
21
1.07583
0
LINE
8
BLACK
6
CONTINUOUS
10
5.04817
20
1.07583
11
5.10427
21
1.07583
0
LINE
8
BLACK
6
CONTINUOUS
10
5.10427
20
1.07583
11
5.1071
21
1.07526
0
LINE
8
BLACK
6
CONTINUOUS
10
5.10801
20
1.12065
11
5.10992
21
1.11937
0
LINE
8
BLACK
6
CONTINUOUS
10
5.10992
20
1.11937
11
5.1112
21
1.11746
0
LINE
8
BLACK
6
CONTINUOUS
10
5.1112
20
1.11746
11
5.11165
21
1.1152
0
LINE
8
BLACK
6
CONTINUOUS
10
5.11165
20
1.1152
11
5.11165
21
1.10339
0
LINE
8
BLACK
6
CONTINUOUS
10
5.11165
20
1.10339
11
5.1112
21
1.10113
0
LINE
8
BLACK
6
CONTINUOUS
10
5.1112
20
1.10113
11
5.10992
21
1.09921
0
LINE
8
BLACK
6
CONTINUOUS
10
5.10992
20
1.09921
11
5.10801
21
1.09793
0
LINE
8
BLACK
6
CONTINUOUS
10
5.10801
20
1.09793
11
5.10575
21
1.09748
0
LINE
8
BLACK
6
CONTINUOUS
10
5.10575
20
1.09748
11
5.04669
21
1.09748
0
LINE
8
BLACK
6
CONTINUOUS
10
5.04669
20
1.09748
11
5.04443
21
1.09793
0
LINE
8
BLACK
6
CONTINUOUS
10
5.04443
20
1.09793
11
5.04252
21
1.09921
0
LINE
8
BLACK
6
CONTINUOUS
10
5.04252
20
1.09921
11
5.04124
21
1.10113
0
LINE
8
BLACK
6
CONTINUOUS
10
5.04124
20
1.10113
11
5.04079
21
1.10339
0
LINE
8
BLACK
6
CONTINUOUS
10
5.04079
20
1.10339
11
5.04079
21
1.1152
0
LINE
8
BLACK
6
CONTINUOUS
10
5.04079
20
1.1152
11
5.04124
21
1.11746
0
LINE
8
BLACK
6
CONTINUOUS
10
5.04124
20
1.11746
11
5.04252
21
1.11937
0
LINE
8
BLACK
6
CONTINUOUS
10
5.04252
20
1.11937
11
5.04443
21
1.12065
0
LINE
8
BLACK
6
CONTINUOUS
10
5.04443
20
1.12065
11
5.04669
21
1.1211
0
LINE
8
BLACK
6
CONTINUOUS
10
5.04669
20
1.1211
11
5.10575
21
1.1211
0
LINE
8
BLACK
6
CONTINUOUS
10
5.10575
20
1.1211
11
5.10801
21
1.12065
0
LINE
8
BLACK
6
CONTINUOUS
10
5.1071
20
1.17172
11
5.10949
21
1.17012
0
LINE
8
BLACK
6
CONTINUOUS
10
5.10949
20
1.17012
11
5.11109
21
1.16773
0
LINE
8
BLACK
6
CONTINUOUS
10
5.11109
20
1.16773
11
5.11165
21
1.1649
0
LINE
8
BLACK
6
CONTINUOUS
10
5.11165
20
1.1649
11
5.11165
21
1.15014
0
LINE
8
BLACK
6
CONTINUOUS
10
5.11165
20
1.15014
11
5.11109
21
1.14731
0
LINE
8
BLACK
6
CONTINUOUS
10
5.11109
20
1.14731
11
5.10949
21
1.14492
0
LINE
8
BLACK
6
CONTINUOUS
10
5.10949
20
1.14492
11
5.1071
21
1.14332
0
LINE
8
BLACK
6
CONTINUOUS
10
5.1071
20
1.14332
11
5.10427
21
1.14276
0
LINE
8
BLACK
6
CONTINUOUS
10
5.10427
20
1.14276
11
5.04817
21
1.14276
0
LINE
8
BLACK
6
CONTINUOUS
10
5.04817
20
1.14276
11
5.04534
21
1.14332
0
LINE
8
BLACK
6
CONTINUOUS
10
5.04534
20
1.14332
11
5.04295
21
1.14492
0
LINE
8
BLACK
6
CONTINUOUS
10
5.04295
20
1.14492
11
5.04135
21
1.14731
0
LINE
8
BLACK
6
CONTINUOUS
10
5.04135
20
1.14731
11
5.04079
21
1.15014
0
LINE
8
BLACK
6
CONTINUOUS
10
5.04079
20
1.15014
11
5.04079
21
1.1649
0
LINE
8
BLACK
6
CONTINUOUS
10
5.04079
20
1.1649
11
5.04135
21
1.16773
0
LINE
8
BLACK
6
CONTINUOUS
10
5.04135
20
1.16773
11
5.04295
21
1.17012
0
LINE
8
BLACK
6
CONTINUOUS
10
5.04295
20
1.17012
11
5.04534
21
1.17172
0
LINE
8
BLACK
6
CONTINUOUS
10
5.04534
20
1.17172
11
5.04817
21
1.17228
0
LINE
8
BLACK
6
CONTINUOUS
10
5.04817
20
1.17228
11
5.10427
21
1.17228
0
LINE
8
BLACK
6
CONTINUOUS
10
5.10427
20
1.17228
11
5.1071
21
1.17172
0
LINE
8
BLACK
6
CONTINUOUS
10
5.16524
20
1.20704
11
5.16811
21
1.20512
0
LINE
8
BLACK
6
CONTINUOUS
10
5.16811
20
1.20512
11
5.17003
21
1.20225
0
LINE
8
BLACK
6
CONTINUOUS
10
5.17003
20
1.20225
11
5.17071
21
1.19886
0
LINE
8
BLACK
6
CONTINUOUS
10
5.17071
20
1.19886
11
5.17071
21
1.16539
0
LINE
8
BLACK
6
CONTINUOUS
10
5.17071
20
1.16539
11
5.17003
21
1.162
0
LINE
8
BLACK
6
CONTINUOUS
10
5.17003
20
1.162
11
5.16811
21
1.15913
0
LINE
8
BLACK
6
CONTINUOUS
10
5.16811
20
1.15913
11
5.16524
21
1.15721
0
LINE
8
BLACK
6
CONTINUOUS
10
5.16524
20
1.15721
11
5.16185
21
1.15654
0
LINE
8
BLACK
6
CONTINUOUS
10
5.16185
20
1.15654
11
5.14413
21
1.15654
0
LINE
8
BLACK
6
CONTINUOUS
10
5.14413
20
1.15654
11
5.14074
21
1.15721
0
LINE
8
BLACK
6
CONTINUOUS
10
5.14074
20
1.15721
11
5.13787
21
1.15913
0
LINE
8
BLACK
6
CONTINUOUS
10
5.13787
20
1.15913
11
5.13595
21
1.162
0
LINE
8
BLACK
6
CONTINUOUS
10
5.13595
20
1.162
11
5.13528
21
1.16539
0
LINE
8
BLACK
6
CONTINUOUS
10
5.13528
20
1.16539
11
5.13528
21
1.19886
0
LINE
8
BLACK
6
CONTINUOUS
10
5.13528
20
1.19886
11
5.13595
21
1.20225
0
LINE
8
BLACK
6
CONTINUOUS
10
5.13595
20
1.20225
11
5.13787
21
1.20512
0
LINE
8
BLACK
6
CONTINUOUS
10
5.13787
20
1.20512
11
5.14074
21
1.20704
0
LINE
8
BLACK
6
CONTINUOUS
10
5.14074
20
1.20704
11
5.14413
21
1.20772
0
LINE
8
BLACK
6
CONTINUOUS
10
5.14413
20
1.20772
11
5.16185
21
1.20772
0
LINE
8
BLACK
6
CONTINUOUS
10
5.16185
20
1.20772
11
5.16524
21
1.20704
0
LINE
8
BLACK
6
CONTINUOUS
10
5.1613
20
1.35074
11
5.16418
21
1.34882
0
LINE
8
BLACK
6
CONTINUOUS
10
5.16418
20
1.34882
11
5.1661
21
1.34595
0
LINE
8
BLACK
6
CONTINUOUS
10
5.1661
20
1.34595
11
5.16677
21
1.34256
0
LINE
8
BLACK
6
CONTINUOUS
10
5.16677
20
1.34256
11
5.16677
21
1.30909
0
LINE
8
BLACK
6
CONTINUOUS
10
5.16677
20
1.30909
11
5.1661
21
1.3057
0
LINE
8
BLACK
6
CONTINUOUS
10
5.1661
20
1.3057
11
5.16418
21
1.30283
0
LINE
8
BLACK
6
CONTINUOUS
10
5.16418
20
1.30283
11
5.1613
21
1.30091
0
LINE
8
BLACK
6
CONTINUOUS
10
5.1613
20
1.30091
11
5.15791
21
1.30024
0
LINE
8
BLACK
6
CONTINUOUS
10
5.15791
20
1.30024
11
5.1402
21
1.30024
0
LINE
8
BLACK
6
CONTINUOUS
10
5.1402
20
1.30024
11
5.13681
21
1.30091
0
LINE
8
BLACK
6
CONTINUOUS
10
5.13681
20
1.30091
11
5.13393
21
1.30283
0
LINE
8
BLACK
6
CONTINUOUS
10
5.13393
20
1.30283
11
5.13201
21
1.3057
0
LINE
8
BLACK
6
CONTINUOUS
10
5.13201
20
1.3057
11
5.13134
21
1.30909
0
LINE
8
BLACK
6
CONTINUOUS
10
5.13134
20
1.30909
11
5.13134
21
1.34256
0
LINE
8
BLACK
6
CONTINUOUS
10
5.13134
20
1.34256
11
5.13201
21
1.34595
0
LINE
8
BLACK
6
CONTINUOUS
10
5.13201
20
1.34595
11
5.13393
21
1.34882
0
LINE
8
BLACK
6
CONTINUOUS
10
5.13393
20
1.34882
11
5.13681
21
1.35074
0
LINE
8
BLACK
6
CONTINUOUS
10
5.13681
20
1.35074
11
5.1402
21
1.35142
0
LINE
8
BLACK
6
CONTINUOUS
10
5.1402
20
1.35142
11
5.15791
21
1.35142
0
LINE
8
BLACK
6
CONTINUOUS
10
5.15791
20
1.35142
11
5.1613
21
1.35074
0
LINE
8
BLACK
6
CONTINUOUS
10
5.10316
20
1.36463
11
5.10555
21
1.36303
0
LINE
8
BLACK
6
CONTINUOUS
10
5.10555
20
1.36303
11
5.10715
21
1.36064
0
LINE
8
BLACK
6
CONTINUOUS
10
5.10715
20
1.36064
11
5.10772
21
1.35781
0
LINE
8
BLACK
6
CONTINUOUS
10
5.10772
20
1.35781
11
5.10772
21
1.34305
0
LINE
8
BLACK
6
CONTINUOUS
10
5.10772
20
1.34305
11
5.10715
21
1.34023
0
LINE
8
BLACK
6
CONTINUOUS
10
5.10715
20
1.34023
11
5.10555
21
1.33783
0
LINE
8
BLACK
6
CONTINUOUS
10
5.10555
20
1.33783
11
5.10316
21
1.33623
0
LINE
8
BLACK
6
CONTINUOUS
10
5.10316
20
1.33623
11
5.10033
21
1.33567
0
LINE
8
BLACK
6
CONTINUOUS
10
5.10033
20
1.33567
11
5.04423
21
1.33567
0
LINE
8
BLACK
6
CONTINUOUS
10
5.04423
20
1.33567
11
5.04141
21
1.33623
0
LINE
8
BLACK
6
CONTINUOUS
10
5.04141
20
1.33623
11
5.03901
21
1.33783
0
LINE
8
BLACK
6
CONTINUOUS
10
5.03901
20
1.33783
11
5.03741
21
1.34023
0
LINE
8
BLACK
6
CONTINUOUS
10
5.03741
20
1.34023
11
5.03685
21
1.34305
0
LINE
8
BLACK
6
CONTINUOUS
10
5.03685
20
1.34305
11
5.03685
21
1.35781
0
LINE
8
BLACK
6
CONTINUOUS
10
5.03685
20
1.35781
11
5.03741
21
1.36064
0
LINE
8
BLACK
6
CONTINUOUS
10
5.03741
20
1.36064
11
5.03901
21
1.36303
0
LINE
8
BLACK
6
CONTINUOUS
10
5.03901
20
1.36303
11
5.04141
21
1.36463
0
LINE
8
BLACK
6
CONTINUOUS
10
5.04141
20
1.36463
11
5.04423
21
1.3652
0
LINE
8
BLACK
6
CONTINUOUS
10
5.04423
20
1.3652
11
5.10033
21
1.3652
0
LINE
8
BLACK
6
CONTINUOUS
10
5.10033
20
1.3652
11
5.10316
21
1.36463
0
LINE
8
BLACK
6
CONTINUOUS
10
5.10407
20
1.41002
11
5.10599
21
1.40874
0
LINE
8
BLACK
6
CONTINUOUS
10
5.10599
20
1.40874
11
5.10727
21
1.40683
0
LINE
8
BLACK
6
CONTINUOUS
10
5.10727
20
1.40683
11
5.10772
21
1.40457
0
LINE
8
BLACK
6
CONTINUOUS
10
5.10772
20
1.40457
11
5.10772
21
1.39276
0
LINE
8
BLACK
6
CONTINUOUS
10
5.10772
20
1.39276
11
5.10727
21
1.3905
0
LINE
8
BLACK
6
CONTINUOUS
10
5.10727
20
1.3905
11
5.10599
21
1.38858
0
LINE
8
BLACK
6
CONTINUOUS
10
5.10599
20
1.38858
11
5.10407
21
1.3873
0
LINE
8
BLACK
6
CONTINUOUS
10
5.10407
20
1.3873
11
5.10181
21
1.38685
0
LINE
8
BLACK
6
CONTINUOUS
10
5.10181
20
1.38685
11
5.04276
21
1.38685
0
LINE
8
BLACK
6
CONTINUOUS
10
5.04276
20
1.38685
11
5.0405
21
1.3873
0
LINE
8
BLACK
6
CONTINUOUS
10
5.0405
20
1.3873
11
5.03858
21
1.38858
0
LINE
8
BLACK
6
CONTINUOUS
10
5.03858
20
1.38858
11
5.0373
21
1.3905
0
LINE
8
BLACK
6
CONTINUOUS
10
5.0373
20
1.3905
11
5.03685
21
1.39276
0
LINE
8
BLACK
6
CONTINUOUS
10
5.03685
20
1.39276
11
5.03685
21
1.40457
0
LINE
8
BLACK
6
CONTINUOUS
10
5.03685
20
1.40457
11
5.0373
21
1.40683
0
LINE
8
BLACK
6
CONTINUOUS
10
5.0373
20
1.40683
11
5.03858
21
1.40874
0
LINE
8
BLACK
6
CONTINUOUS
10
5.03858
20
1.40874
11
5.0405
21
1.41002
0
LINE
8
BLACK
6
CONTINUOUS
10
5.0405
20
1.41002
11
5.04276
21
1.41047
0
LINE
8
BLACK
6
CONTINUOUS
10
5.04276
20
1.41047
11
5.10181
21
1.41047
0
LINE
8
BLACK
6
CONTINUOUS
10
5.10181
20
1.41047
11
5.10407
21
1.41002
0
LINE
8
BLACK
6
CONTINUOUS
10
5.10316
20
1.46109
11
5.10555
21
1.45949
0
LINE
8
BLACK
6
CONTINUOUS
10
5.10555
20
1.45949
11
5.10715
21
1.4571
0
LINE
8
BLACK
6
CONTINUOUS
10
5.10715
20
1.4571
11
5.10772
21
1.45427
0
LINE
8
BLACK
6
CONTINUOUS
10
5.10772
20
1.45427
11
5.10772
21
1.43951
0
LINE
8
BLACK
6
CONTINUOUS
10
5.10772
20
1.43951
11
5.10715
21
1.43668
0
LINE
8
BLACK
6
CONTINUOUS
10
5.10715
20
1.43668
11
5.10555
21
1.43429
0
LINE
8
BLACK
6
CONTINUOUS
10
5.10555
20
1.43429
11
5.10316
21
1.43269
0
LINE
8
BLACK
6
CONTINUOUS
10
5.10316
20
1.43269
11
5.10033
21
1.43213
0
LINE
8
BLACK
6
CONTINUOUS
10
5.10033
20
1.43213
11
5.04423
21
1.43213
0
LINE
8
BLACK
6
CONTINUOUS
10
5.04423
20
1.43213
11
5.04141
21
1.43269
0
LINE
8
BLACK
6
CONTINUOUS
10
5.04141
20
1.43269
11
5.03901
21
1.43429
0
LINE
8
BLACK
6
CONTINUOUS
10
5.03901
20
1.43429
11
5.03741
21
1.43668
0
LINE
8
BLACK
6
CONTINUOUS
10
5.03741
20
1.43668
11
5.03685
21
1.43951
0
LINE
8
BLACK
6
CONTINUOUS
10
5.03685
20
1.43951
11
5.03685
21
1.45427
0
LINE
8
BLACK
6
CONTINUOUS
10
5.03685
20
1.45427
11
5.03741
21
1.4571
0
LINE
8
BLACK
6
CONTINUOUS
10
5.03741
20
1.4571
11
5.03901
21
1.45949
0
LINE
8
BLACK
6
CONTINUOUS
10
5.03901
20
1.45949
11
5.04141
21
1.46109
0
LINE
8
BLACK
6
CONTINUOUS
10
5.04141
20
1.46109
11
5.04423
21
1.46165
0
LINE
8
BLACK
6
CONTINUOUS
10
5.04423
20
1.46165
11
5.10033
21
1.46165
0
LINE
8
BLACK
6
CONTINUOUS
10
5.10033
20
1.46165
11
5.10316
21
1.46109
0
LINE
8
BLACK
6
CONTINUOUS
10
5.1613
20
1.49641
11
5.16418
21
1.49449
0
LINE
8
BLACK
6
CONTINUOUS
10
5.16418
20
1.49449
11
5.1661
21
1.49162
0
LINE
8
BLACK
6
CONTINUOUS
10
5.1661
20
1.49162
11
5.16677
21
1.48823
0
LINE
8
BLACK
6
CONTINUOUS
10
5.16677
20
1.48823
11
5.16677
21
1.45476
0
LINE
8
BLACK
6
CONTINUOUS
10
5.16677
20
1.45476
11
5.1661
21
1.45137
0
LINE
8
BLACK
6
CONTINUOUS
10
5.1661
20
1.45137
11
5.16418
21
1.4485
0
LINE
8
BLACK
6
CONTINUOUS
10
5.16418
20
1.4485
11
5.1613
21
1.44658
0
LINE
8
BLACK
6
CONTINUOUS
10
5.1613
20
1.44658
11
5.15791
21
1.44591
0
LINE
8
BLACK
6
CONTINUOUS
10
5.15791
20
1.44591
11
5.1402
21
1.44591
0
LINE
8
BLACK
6
CONTINUOUS
10
5.1402
20
1.44591
11
5.13681
21
1.44658
0
LINE
8
BLACK
6
CONTINUOUS
10
5.13681
20
1.44658
11
5.13393
21
1.4485
0
LINE
8
BLACK
6
CONTINUOUS
10
5.13393
20
1.4485
11
5.13201
21
1.45137
0
LINE
8
BLACK
6
CONTINUOUS
10
5.13201
20
1.45137
11
5.13134
21
1.45476
0
LINE
8
BLACK
6
CONTINUOUS
10
5.13134
20
1.45476
11
5.13134
21
1.48823
0
LINE
8
BLACK
6
CONTINUOUS
10
5.13134
20
1.48823
11
5.13201
21
1.49162
0
LINE
8
BLACK
6
CONTINUOUS
10
5.13201
20
1.49162
11
5.13393
21
1.49449
0
LINE
8
BLACK
6
CONTINUOUS
10
5.13393
20
1.49449
11
5.13681
21
1.49641
0
LINE
8
BLACK
6
CONTINUOUS
10
5.13681
20
1.49641
11
5.1402
21
1.49709
0
LINE
8
BLACK
6
CONTINUOUS
10
5.1402
20
1.49709
11
5.15791
21
1.49709
0
LINE
8
BLACK
6
CONTINUOUS
10
5.15791
20
1.49709
11
5.1613
21
1.49641
0
LINE
8
BLACK
6
CONTINUOUS
10
5.31325
20
1.62429
11
5.31645
21
1.62216
0
LINE
8
BLACK
6
CONTINUOUS
10
5.31645
20
1.62216
11
5.31858
21
1.61896
0
LINE
8
BLACK
6
CONTINUOUS
10
5.31858
20
1.61896
11
5.31933
21
1.6152
0
LINE
8
BLACK
6
CONTINUOUS
10
5.31933
20
1.6152
11
5.31933
21
1.59945
0
LINE
8
BLACK
6
CONTINUOUS
10
5.31933
20
1.59945
11
5.31858
21
1.59568
0
LINE
8
BLACK
6
CONTINUOUS
10
5.31858
20
1.59568
11
5.31645
21
1.59249
0
LINE
8
BLACK
6
CONTINUOUS
10
5.31645
20
1.59249
11
5.31325
21
1.59036
0
LINE
8
BLACK
6
CONTINUOUS
10
5.31325
20
1.59036
11
5.30949
21
1.58961
0
LINE
8
BLACK
6
CONTINUOUS
10
5.30949
20
1.58961
11
5.2898
21
1.58961
0
LINE
8
BLACK
6
CONTINUOUS
10
5.2898
20
1.58961
11
5.28604
21
1.59036
0
LINE
8
BLACK
6
CONTINUOUS
10
5.28604
20
1.59036
11
5.28284
21
1.59249
0
LINE
8
BLACK
6
CONTINUOUS
10
5.28284
20
1.59249
11
5.28071
21
1.59568
0
LINE
8
BLACK
6
CONTINUOUS
10
5.28071
20
1.59568
11
5.27996
21
1.59945
0
LINE
8
BLACK
6
CONTINUOUS
10
5.27996
20
1.59945
11
5.27996
21
1.6152
0
LINE
8
BLACK
6
CONTINUOUS
10
5.27996
20
1.6152
11
5.28071
21
1.61896
0
LINE
8
BLACK
6
CONTINUOUS
10
5.28071
20
1.61896
11
5.28284
21
1.62216
0
LINE
8
BLACK
6
CONTINUOUS
10
5.28284
20
1.62216
11
5.28604
21
1.62429
0
LINE
8
BLACK
6
CONTINUOUS
10
5.28604
20
1.62429
11
5.2898
21
1.62504
0
LINE
8
BLACK
6
CONTINUOUS
10
5.2898
20
1.62504
11
5.30949
21
1.62504
0
LINE
8
BLACK
6
CONTINUOUS
10
5.30949
20
1.62504
11
5.31325
21
1.62429
0
LINE
8
BLACK
6
CONTINUOUS
10
5.31325
20
1.68728
11
5.31645
21
1.68515
0
LINE
8
BLACK
6
CONTINUOUS
10
5.31645
20
1.68515
11
5.31858
21
1.68196
0
LINE
8
BLACK
6
CONTINUOUS
10
5.31858
20
1.68196
11
5.31933
21
1.67819
0
LINE
8
BLACK
6
CONTINUOUS
10
5.31933
20
1.67819
11
5.31933
21
1.66244
0
LINE
8
BLACK
6
CONTINUOUS
10
5.31933
20
1.66244
11
5.31858
21
1.65867
0
LINE
8
BLACK
6
CONTINUOUS
10
5.31858
20
1.65867
11
5.31645
21
1.65548
0
LINE
8
BLACK
6
CONTINUOUS
10
5.31645
20
1.65548
11
5.31325
21
1.65335
0
LINE
8
BLACK
6
CONTINUOUS
10
5.31325
20
1.65335
11
5.30949
21
1.6526
0
LINE
8
BLACK
6
CONTINUOUS
10
5.30949
20
1.6526
11
5.2898
21
1.6526
0
LINE
8
BLACK
6
CONTINUOUS
10
5.2898
20
1.6526
11
5.28604
21
1.65335
0
LINE
8
BLACK
6
CONTINUOUS
10
5.28604
20
1.65335
11
5.28284
21
1.65548
0
LINE
8
BLACK
6
CONTINUOUS
10
5.28284
20
1.65548
11
5.28071
21
1.65867
0
LINE
8
BLACK
6
CONTINUOUS
10
5.28071
20
1.65867
11
5.27996
21
1.66244
0
LINE
8
BLACK
6
CONTINUOUS
10
5.27996
20
1.66244
11
5.27996
21
1.67819
0
LINE
8
BLACK
6
CONTINUOUS
10
5.27996
20
1.67819
11
5.28071
21
1.68196
0
LINE
8
BLACK
6
CONTINUOUS
10
5.28071
20
1.68196
11
5.28284
21
1.68515
0
LINE
8
BLACK
6
CONTINUOUS
10
5.28284
20
1.68515
11
5.28604
21
1.68728
0
LINE
8
BLACK
6
CONTINUOUS
10
5.28604
20
1.68728
11
5.2898
21
1.68803
0
LINE
8
BLACK
6
CONTINUOUS
10
5.2898
20
1.68803
11
5.30949
21
1.68803
0
LINE
8
BLACK
6
CONTINUOUS
10
5.30949
20
1.68803
11
5.31325
21
1.68728
0
LINE
8
BLACK
6
CONTINUOUS
10
5.1853
20
1.73135
11
5.1885
21
1.72922
0
LINE
8
BLACK
6
CONTINUOUS
10
5.1885
20
1.72922
11
5.19063
21
1.72603
0
LINE
8
BLACK
6
CONTINUOUS
10
5.19063
20
1.72603
11
5.19138
21
1.72226
0
LINE
8
BLACK
6
CONTINUOUS
10
5.19138
20
1.72226
11
5.19138
21
1.68683
0
LINE
8
BLACK
6
CONTINUOUS
10
5.19138
20
1.68683
11
5.19063
21
1.68306
0
LINE
8
BLACK
6
CONTINUOUS
10
5.19063
20
1.68306
11
5.1885
21
1.67987
0
LINE
8
BLACK
6
CONTINUOUS
10
5.1885
20
1.67987
11
5.1853
21
1.67773
0
LINE
8
BLACK
6
CONTINUOUS
10
5.1853
20
1.67773
11
5.18154
21
1.67698
0
LINE
8
BLACK
6
CONTINUOUS
10
5.18154
20
1.67698
11
5.16087
21
1.67698
0
LINE
8
BLACK
6
CONTINUOUS
10
5.16087
20
1.67698
11
5.1571
21
1.67773
0
LINE
8
BLACK
6
CONTINUOUS
10
5.1571
20
1.67773
11
5.15391
21
1.67987
0
LINE
8
BLACK
6
CONTINUOUS
10
5.15391
20
1.67987
11
5.15177
21
1.68306
0
LINE
8
BLACK
6
CONTINUOUS
10
5.15177
20
1.68306
11
5.15102
21
1.68683
0
LINE
8
BLACK
6
CONTINUOUS
10
5.15102
20
1.68683
11
5.15102
21
1.72226
0
LINE
8
BLACK
6
CONTINUOUS
10
5.15102
20
1.72226
11
5.15177
21
1.72603
0
LINE
8
BLACK
6
CONTINUOUS
10
5.15177
20
1.72603
11
5.15391
21
1.72922
0
LINE
8
BLACK
6
CONTINUOUS
10
5.15391
20
1.72922
11
5.1571
21
1.73135
0
LINE
8
BLACK
6
CONTINUOUS
10
5.1571
20
1.73135
11
5.16087
21
1.7321
0
LINE
8
BLACK
6
CONTINUOUS
10
5.16087
20
1.7321
11
5.18154
21
1.7321
0
LINE
8
BLACK
6
CONTINUOUS
10
5.18154
20
1.7321
11
5.1853
21
1.73135
0
LINE
8
BLACK
6
CONTINUOUS
10
5.25715
20
1.73135
11
5.26035
21
1.72922
0
LINE
8
BLACK
6
CONTINUOUS
10
5.26035
20
1.72922
11
5.26248
21
1.72603
0
LINE
8
BLACK
6
CONTINUOUS
10
5.26248
20
1.72603
11
5.26323
21
1.72226
0
LINE
8
BLACK
6
CONTINUOUS
10
5.26323
20
1.72226
11
5.26323
21
1.68683
0
LINE
8
BLACK
6
CONTINUOUS
10
5.26323
20
1.68683
11
5.26248
21
1.68306
0
LINE
8
BLACK
6
CONTINUOUS
10
5.26248
20
1.68306
11
5.26035
21
1.67987
0
LINE
8
BLACK
6
CONTINUOUS
10
5.26035
20
1.67987
11
5.25715
21
1.67773
0
LINE
8
BLACK
6
CONTINUOUS
10
5.25715
20
1.67773
11
5.25339
21
1.67698
0
LINE
8
BLACK
6
CONTINUOUS
10
5.25339
20
1.67698
11
5.23272
21
1.67698
0
LINE
8
BLACK
6
CONTINUOUS
10
5.23272
20
1.67698
11
5.22895
21
1.67773
0
LINE
8
BLACK
6
CONTINUOUS
10
5.22895
20
1.67773
11
5.22576
21
1.67987
0
LINE
8
BLACK
6
CONTINUOUS
10
5.22576
20
1.67987
11
5.22362
21
1.68306
0
LINE
8
BLACK
6
CONTINUOUS
10
5.22362
20
1.68306
11
5.22287
21
1.68683
0
LINE
8
BLACK
6
CONTINUOUS
10
5.22287
20
1.68683
11
5.22287
21
1.72226
0
LINE
8
BLACK
6
CONTINUOUS
10
5.22287
20
1.72226
11
5.22362
21
1.72603
0
LINE
8
BLACK
6
CONTINUOUS
10
5.22362
20
1.72603
11
5.22576
21
1.72922
0
LINE
8
BLACK
6
CONTINUOUS
10
5.22576
20
1.72922
11
5.22895
21
1.73135
0
LINE
8
BLACK
6
CONTINUOUS
10
5.22895
20
1.73135
11
5.23272
21
1.7321
0
LINE
8
BLACK
6
CONTINUOUS
10
5.23272
20
1.7321
11
5.25339
21
1.7321
0
LINE
8
BLACK
6
CONTINUOUS
10
5.25339
20
1.7321
11
5.25715
21
1.73135
0
LINE
8
BLACK
6
CONTINUOUS
10
5.31325
20
1.73324
11
5.31645
21
1.73111
0
LINE
8
BLACK
6
CONTINUOUS
10
5.31645
20
1.73111
11
5.31858
21
1.72791
0
LINE
8
BLACK
6
CONTINUOUS
10
5.31858
20
1.72791
11
5.31933
21
1.72415
0
LINE
8
BLACK
6
CONTINUOUS
10
5.31933
20
1.72415
11
5.31933
21
1.7084
0
LINE
8
BLACK
6
CONTINUOUS
10
5.31933
20
1.7084
11
5.31858
21
1.70463
0
LINE
8
BLACK
6
CONTINUOUS
10
5.31858
20
1.70463
11
5.31645
21
1.70144
0
LINE
8
BLACK
6
CONTINUOUS
10
5.31645
20
1.70144
11
5.31325
21
1.69931
0
LINE
8
BLACK
6
CONTINUOUS
10
5.31325
20
1.69931
11
5.30949
21
1.69856
0
LINE
8
BLACK
6
CONTINUOUS
10
5.30949
20
1.69856
11
5.2898
21
1.69856
0
LINE
8
BLACK
6
CONTINUOUS
10
5.2898
20
1.69856
11
5.28604
21
1.69931
0
LINE
8
BLACK
6
CONTINUOUS
10
5.28604
20
1.69931
11
5.28284
21
1.70144
0
LINE
8
BLACK
6
CONTINUOUS
10
5.28284
20
1.70144
11
5.28071
21
1.70463
0
LINE
8
BLACK
6
CONTINUOUS
10
5.28071
20
1.70463
11
5.27996
21
1.7084
0
LINE
8
BLACK
6
CONTINUOUS
10
5.27996
20
1.7084
11
5.27996
21
1.72415
0
LINE
8
BLACK
6
CONTINUOUS
10
5.27996
20
1.72415
11
5.28071
21
1.72791
0
LINE
8
BLACK
6
CONTINUOUS
10
5.28071
20
1.72791
11
5.28284
21
1.73111
0
LINE
8
BLACK
6
CONTINUOUS
10
5.28284
20
1.73111
11
5.28604
21
1.73324
0
LINE
8
BLACK
6
CONTINUOUS
10
5.28604
20
1.73324
11
5.2898
21
1.73399
0
LINE
8
BLACK
6
CONTINUOUS
10
5.2898
20
1.73399
11
5.30949
21
1.73399
0
LINE
8
BLACK
6
CONTINUOUS
10
5.30949
20
1.73399
11
5.31325
21
1.73324
0
LINE
8
BLACK
6
CONTINUOUS
10
5.18432
20
1.80812
11
5.18751
21
1.80599
0
LINE
8
BLACK
6
CONTINUOUS
10
5.18751
20
1.80599
11
5.18964
21
1.8028
0
LINE
8
BLACK
6
CONTINUOUS
10
5.18964
20
1.8028
11
5.19039
21
1.79903
0
LINE
8
BLACK
6
CONTINUOUS
10
5.19039
20
1.79903
11
5.19039
21
1.7636
0
LINE
8
BLACK
6
CONTINUOUS
10
5.19039
20
1.7636
11
5.18964
21
1.75983
0
LINE
8
BLACK
6
CONTINUOUS
10
5.18964
20
1.75983
11
5.18751
21
1.75664
0
LINE
8
BLACK
6
CONTINUOUS
10
5.18751
20
1.75664
11
5.18432
21
1.7545
0
LINE
8
BLACK
6
CONTINUOUS
10
5.18432
20
1.7545
11
5.18055
21
1.75376
0
LINE
8
BLACK
6
CONTINUOUS
10
5.18055
20
1.75376
11
5.15988
21
1.75376
0
LINE
8
BLACK
6
CONTINUOUS
10
5.15988
20
1.75376
11
5.15612
21
1.7545
0
LINE
8
BLACK
6
CONTINUOUS
10
5.15612
20
1.7545
11
5.15292
21
1.75664
0
LINE
8
BLACK
6
CONTINUOUS
10
5.15292
20
1.75664
11
5.15079
21
1.75983
0
LINE
8
BLACK
6
CONTINUOUS
10
5.15079
20
1.75983
11
5.15004
21
1.7636
0
LINE
8
BLACK
6
CONTINUOUS
10
5.15004
20
1.7636
11
5.15004
21
1.79903
0
LINE
8
BLACK
6
CONTINUOUS
10
5.15004
20
1.79903
11
5.15079
21
1.8028
0
LINE
8
BLACK
6
CONTINUOUS
10
5.15079
20
1.8028
11
5.15292
21
1.80599
0
LINE
8
BLACK
6
CONTINUOUS
10
5.15292
20
1.80599
11
5.15612
21
1.80812
0
LINE
8
BLACK
6
CONTINUOUS
10
5.15612
20
1.80812
11
5.15988
21
1.80887
0
LINE
8
BLACK
6
CONTINUOUS
10
5.15988
20
1.80887
11
5.18055
21
1.80887
0
LINE
8
BLACK
6
CONTINUOUS
10
5.18055
20
1.80887
11
5.18432
21
1.80812
0
LINE
8
BLACK
6
CONTINUOUS
10
5.25617
20
1.80812
11
5.25936
21
1.80599
0
LINE
8
BLACK
6
CONTINUOUS
10
5.25936
20
1.80599
11
5.26149
21
1.8028
0
LINE
8
BLACK
6
CONTINUOUS
10
5.26149
20
1.8028
11
5.26224
21
1.79903
0
LINE
8
BLACK
6
CONTINUOUS
10
5.26224
20
1.79903
11
5.26224
21
1.7636
0
LINE
8
BLACK
6
CONTINUOUS
10
5.26224
20
1.7636
11
5.26149
21
1.75983
0
LINE
8
BLACK
6
CONTINUOUS
10
5.26149
20
1.75983
11
5.25936
21
1.75664
0
LINE
8
BLACK
6
CONTINUOUS
10
5.25936
20
1.75664
11
5.25617
21
1.7545
0
LINE
8
BLACK
6
CONTINUOUS
10
5.25617
20
1.7545
11
5.2524
21
1.75376
0
LINE
8
BLACK
6
CONTINUOUS
10
5.2524
20
1.75376
11
5.23173
21
1.75376
0
LINE
8
BLACK
6
CONTINUOUS
10
5.23173
20
1.75376
11
5.22797
21
1.7545
0
LINE
8
BLACK
6
CONTINUOUS
10
5.22797
20
1.7545
11
5.22477
21
1.75664
0
LINE
8
BLACK
6
CONTINUOUS
10
5.22477
20
1.75664
11
5.22264
21
1.75983
0
LINE
8
BLACK
6
CONTINUOUS
10
5.22264
20
1.75983
11
5.22189
21
1.7636
0
LINE
8
BLACK
6
CONTINUOUS
10
5.22189
20
1.7636
11
5.22189
21
1.79903
0
LINE
8
BLACK
6
CONTINUOUS
10
5.22189
20
1.79903
11
5.22264
21
1.8028
0
LINE
8
BLACK
6
CONTINUOUS
10
5.22264
20
1.8028
11
5.22477
21
1.80599
0
LINE
8
BLACK
6
CONTINUOUS
10
5.22477
20
1.80599
11
5.22797
21
1.80812
0
LINE
8
BLACK
6
CONTINUOUS
10
5.22797
20
1.80812
11
5.23173
21
1.80887
0
LINE
8
BLACK
6
CONTINUOUS
10
5.23173
20
1.80887
11
5.2524
21
1.80887
0
LINE
8
BLACK
6
CONTINUOUS
10
5.2524
20
1.80887
11
5.25617
21
1.80812
0
LINE
8
BLACK
6
CONTINUOUS
10
5.31325
20
1.79623
11
5.31645
21
1.7941
0
LINE
8
BLACK
6
CONTINUOUS
10
5.31645
20
1.7941
11
5.31858
21
1.79091
0
LINE
8
BLACK
6
CONTINUOUS
10
5.31858
20
1.79091
11
5.31933
21
1.78714
0
LINE
8
BLACK
6
CONTINUOUS
10
5.31933
20
1.78714
11
5.31933
21
1.77139
0
LINE
8
BLACK
6
CONTINUOUS
10
5.31933
20
1.77139
11
5.31858
21
1.76763
0
LINE
8
BLACK
6
CONTINUOUS
10
5.31858
20
1.76763
11
5.31645
21
1.76443
0
LINE
8
BLACK
6
CONTINUOUS
10
5.31645
20
1.76443
11
5.31325
21
1.7623
0
LINE
8
BLACK
6
CONTINUOUS
10
5.31325
20
1.7623
11
5.30949
21
1.76155
0
LINE
8
BLACK
6
CONTINUOUS
10
5.30949
20
1.76155
11
5.2898
21
1.76155
0
LINE
8
BLACK
6
CONTINUOUS
10
5.2898
20
1.76155
11
5.28604
21
1.7623
0
LINE
8
BLACK
6
CONTINUOUS
10
5.28604
20
1.7623
11
5.28284
21
1.76443
0
LINE
8
BLACK
6
CONTINUOUS
10
5.28284
20
1.76443
11
5.28071
21
1.76763
0
LINE
8
BLACK
6
CONTINUOUS
10
5.28071
20
1.76763
11
5.27996
21
1.77139
0
LINE
8
BLACK
6
CONTINUOUS
10
5.27996
20
1.77139
11
5.27996
21
1.78714
0
LINE
8
BLACK
6
CONTINUOUS
10
5.27996
20
1.78714
11
5.28071
21
1.79091
0
LINE
8
BLACK
6
CONTINUOUS
10
5.28071
20
1.79091
11
5.28284
21
1.7941
0
LINE
8
BLACK
6
CONTINUOUS
10
5.28284
20
1.7941
11
5.28604
21
1.79623
0
LINE
8
BLACK
6
CONTINUOUS
10
5.28604
20
1.79623
11
5.2898
21
1.79698
0
LINE
8
BLACK
6
CONTINUOUS
10
5.2898
20
1.79698
11
5.30949
21
1.79698
0
LINE
8
BLACK
6
CONTINUOUS
10
5.30949
20
1.79698
11
5.31325
21
1.79623
0
LINE
8
BLACK
6
CONTINUOUS
10
5.31325
20
1.84219
11
5.31645
21
1.84006
0
LINE
8
BLACK
6
CONTINUOUS
10
5.31645
20
1.84006
11
5.31858
21
1.83686
0
LINE
8
BLACK
6
CONTINUOUS
10
5.31858
20
1.83686
11
5.31933
21
1.8331
0
LINE
8
BLACK
6
CONTINUOUS
10
5.31933
20
1.8331
11
5.31933
21
1.81735
0
LINE
8
BLACK
6
CONTINUOUS
10
5.31933
20
1.81735
11
5.31858
21
1.81358
0
LINE
8
BLACK
6
CONTINUOUS
10
5.31858
20
1.81358
11
5.31645
21
1.81039
0
LINE
8
BLACK
6
CONTINUOUS
10
5.31645
20
1.81039
11
5.31325
21
1.80826
0
LINE
8
BLACK
6
CONTINUOUS
10
5.31325
20
1.80826
11
5.30949
21
1.80751
0
LINE
8
BLACK
6
CONTINUOUS
10
5.30949
20
1.80751
11
5.2898
21
1.80751
0
LINE
8
BLACK
6
CONTINUOUS
10
5.2898
20
1.80751
11
5.28604
21
1.80826
0
LINE
8
BLACK
6
CONTINUOUS
10
5.28604
20
1.80826
11
5.28284
21
1.81039
0
LINE
8
BLACK
6
CONTINUOUS
10
5.28284
20
1.81039
11
5.28071
21
1.81358
0
LINE
8
BLACK
6
CONTINUOUS
10
5.28071
20
1.81358
11
5.27996
21
1.81735
0
LINE
8
BLACK
6
CONTINUOUS
10
5.27996
20
1.81735
11
5.27996
21
1.8331
0
LINE
8
BLACK
6
CONTINUOUS
10
5.27996
20
1.8331
11
5.28071
21
1.83686
0
LINE
8
BLACK
6
CONTINUOUS
10
5.28071
20
1.83686
11
5.28284
21
1.84006
0
LINE
8
BLACK
6
CONTINUOUS
10
5.28284
20
1.84006
11
5.28604
21
1.84219
0
LINE
8
BLACK
6
CONTINUOUS
10
5.28604
20
1.84219
11
5.2898
21
1.84294
0
LINE
8
BLACK
6
CONTINUOUS
10
5.2898
20
1.84294
11
5.30949
21
1.84294
0
LINE
8
BLACK
6
CONTINUOUS
10
5.30949
20
1.84294
11
5.31325
21
1.84219
0
LINE
8
BLACK
6
CONTINUOUS
10
5.18333
20
1.8849
11
5.18653
21
1.88276
0
LINE
8
BLACK
6
CONTINUOUS
10
5.18653
20
1.88276
11
5.18866
21
1.87957
0
LINE
8
BLACK
6
CONTINUOUS
10
5.18866
20
1.87957
11
5.18941
21
1.8758
0
LINE
8
BLACK
6
CONTINUOUS
10
5.18941
20
1.8758
11
5.18941
21
1.84037
0
LINE
8
BLACK
6
CONTINUOUS
10
5.18941
20
1.84037
11
5.18866
21
1.8366
0
LINE
8
BLACK
6
CONTINUOUS
10
5.18866
20
1.8366
11
5.18653
21
1.83341
0
LINE
8
BLACK
6
CONTINUOUS
10
5.18653
20
1.83341
11
5.18333
21
1.83128
0
LINE
8
BLACK
6
CONTINUOUS
10
5.18333
20
1.83128
11
5.17957
21
1.83053
0
LINE
8
BLACK
6
CONTINUOUS
10
5.17957
20
1.83053
11
5.1589
21
1.83053
0
LINE
8
BLACK
6
CONTINUOUS
10
5.1589
20
1.83053
11
5.15513
21
1.83128
0
LINE
8
BLACK
6
CONTINUOUS
10
5.15513
20
1.83128
11
5.15194
21
1.83341
0
LINE
8
BLACK
6
CONTINUOUS
10
5.15194
20
1.83341
11
5.1498
21
1.8366
0
LINE
8
BLACK
6
CONTINUOUS
10
5.1498
20
1.8366
11
5.14906
21
1.84037
0
LINE
8
BLACK
6
CONTINUOUS
10
5.14906
20
1.84037
11
5.14906
21
1.8758
0
LINE
8
BLACK
6
CONTINUOUS
10
5.14906
20
1.8758
11
5.1498
21
1.87957
0
LINE
8
BLACK
6
CONTINUOUS
10
5.1498
20
1.87957
11
5.15194
21
1.88276
0
LINE
8
BLACK
6
CONTINUOUS
10
5.15194
20
1.88276
11
5.15513
21
1.8849
0
LINE
8
BLACK
6
CONTINUOUS
10
5.15513
20
1.8849
11
5.1589
21
1.88565
0
LINE
8
BLACK
6
CONTINUOUS
10
5.1589
20
1.88565
11
5.17957
21
1.88565
0
LINE
8
BLACK
6
CONTINUOUS
10
5.17957
20
1.88565
11
5.18333
21
1.8849
0
LINE
8
BLACK
6
CONTINUOUS
10
5.25518
20
1.8849
11
5.25838
21
1.88276
0
LINE
8
BLACK
6
CONTINUOUS
10
5.25838
20
1.88276
11
5.26051
21
1.87957
0
LINE
8
BLACK
6
CONTINUOUS
10
5.26051
20
1.87957
11
5.26126
21
1.8758
0
LINE
8
BLACK
6
CONTINUOUS
10
5.26126
20
1.8758
11
5.26126
21
1.84037
0
LINE
8
BLACK
6
CONTINUOUS
10
5.26126
20
1.84037
11
5.26051
21
1.8366
0
LINE
8
BLACK
6
CONTINUOUS
10
5.26051
20
1.8366
11
5.25838
21
1.83341
0
LINE
8
BLACK
6
CONTINUOUS
10
5.25838
20
1.83341
11
5.25518
21
1.83128
0
LINE
8
BLACK
6
CONTINUOUS
10
5.25518
20
1.83128
11
5.25142
21
1.83053
0
LINE
8
BLACK
6
CONTINUOUS
10
5.25142
20
1.83053
11
5.23075
21
1.83053
0
LINE
8
BLACK
6
CONTINUOUS
10
5.23075
20
1.83053
11
5.22698
21
1.83128
0
LINE
8
BLACK
6
CONTINUOUS
10
5.22698
20
1.83128
11
5.22379
21
1.83341
0
LINE
8
BLACK
6
CONTINUOUS
10
5.22379
20
1.83341
11
5.22165
21
1.8366
0
LINE
8
BLACK
6
CONTINUOUS
10
5.22165
20
1.8366
11
5.22091
21
1.84037
0
LINE
8
BLACK
6
CONTINUOUS
10
5.22091
20
1.84037
11
5.22091
21
1.8758
0
LINE
8
BLACK
6
CONTINUOUS
10
5.22091
20
1.8758
11
5.22165
21
1.87957
0
LINE
8
BLACK
6
CONTINUOUS
10
5.22165
20
1.87957
11
5.22379
21
1.88276
0
LINE
8
BLACK
6
CONTINUOUS
10
5.22379
20
1.88276
11
5.22698
21
1.8849
0
LINE
8
BLACK
6
CONTINUOUS
10
5.22698
20
1.8849
11
5.23075
21
1.88565
0
LINE
8
BLACK
6
CONTINUOUS
10
5.23075
20
1.88565
11
5.25142
21
1.88565
0
LINE
8
BLACK
6
CONTINUOUS
10
5.25142
20
1.88565
11
5.25518
21
1.8849
0
LINE
8
BLACK
6
CONTINUOUS
10
5.31325
20
1.90518
11
5.31645
21
1.90305
0
LINE
8
BLACK
6
CONTINUOUS
10
5.31645
20
1.90305
11
5.31858
21
1.89986
0
LINE
8
BLACK
6
CONTINUOUS
10
5.31858
20
1.89986
11
5.31933
21
1.89609
0
LINE
8
BLACK
6
CONTINUOUS
10
5.31933
20
1.89609
11
5.31933
21
1.88034
0
LINE
8
BLACK
6
CONTINUOUS
10
5.31933
20
1.88034
11
5.31858
21
1.87658
0
LINE
8
BLACK
6
CONTINUOUS
10
5.31858
20
1.87658
11
5.31645
21
1.87338
0
LINE
8
BLACK
6
CONTINUOUS
10
5.31645
20
1.87338
11
5.31325
21
1.87125
0
LINE
8
BLACK
6
CONTINUOUS
10
5.31325
20
1.87125
11
5.30949
21
1.8705
0
LINE
8
BLACK
6
CONTINUOUS
10
5.30949
20
1.8705
11
5.2898
21
1.8705
0
LINE
8
BLACK
6
CONTINUOUS
10
5.2898
20
1.8705
11
5.28604
21
1.87125
0
LINE
8
BLACK
6
CONTINUOUS
10
5.28604
20
1.87125
11
5.28284
21
1.87338
0
LINE
8
BLACK
6
CONTINUOUS
10
5.28284
20
1.87338
11
5.28071
21
1.87658
0
LINE
8
BLACK
6
CONTINUOUS
10
5.28071
20
1.87658
11
5.27996
21
1.88034
0
LINE
8
BLACK
6
CONTINUOUS
10
5.27996
20
1.88034
11
5.27996
21
1.89609
0
LINE
8
BLACK
6
CONTINUOUS
10
5.27996
20
1.89609
11
5.28071
21
1.89986
0
LINE
8
BLACK
6
CONTINUOUS
10
5.28071
20
1.89986
11
5.28284
21
1.90305
0
LINE
8
BLACK
6
CONTINUOUS
10
5.28284
20
1.90305
11
5.28604
21
1.90518
0
LINE
8
BLACK
6
CONTINUOUS
10
5.28604
20
1.90518
11
5.2898
21
1.90593
0
LINE
8
BLACK
6
CONTINUOUS
10
5.2898
20
1.90593
11
5.30949
21
1.90593
0
LINE
8
BLACK
6
CONTINUOUS
10
5.30949
20
1.90593
11
5.31325
21
1.90518
0
LINE
8
BLACK
6
CONTINUOUS
10
5.18235
20
1.96167
11
5.18554
21
1.95953
0
LINE
8
BLACK
6
CONTINUOUS
10
5.18554
20
1.95953
11
5.18768
21
1.95634
0
LINE
8
BLACK
6
CONTINUOUS
10
5.18768
20
1.95634
11
5.18843
21
1.95257
0
LINE
8
BLACK
6
CONTINUOUS
10
5.18843
20
1.95257
11
5.18843
21
1.91714
0
LINE
8
BLACK
6
CONTINUOUS
10
5.18843
20
1.91714
11
5.18768
21
1.91337
0
LINE
8
BLACK
6
CONTINUOUS
10
5.18768
20
1.91337
11
5.18554
21
1.91018
0
LINE
8
BLACK
6
CONTINUOUS
10
5.18554
20
1.91018
11
5.18235
21
1.90805
0
LINE
8
BLACK
6
CONTINUOUS
10
5.18235
20
1.90805
11
5.17858
21
1.9073
0
LINE
8
BLACK
6
CONTINUOUS
10
5.17858
20
1.9073
11
5.15791
21
1.9073
0
LINE
8
BLACK
6
CONTINUOUS
10
5.15791
20
1.9073
11
5.15415
21
1.90805
0
LINE
8
BLACK
6
CONTINUOUS
10
5.15415
20
1.90805
11
5.15095
21
1.91018
0
LINE
8
BLACK
6
CONTINUOUS
10
5.15095
20
1.91018
11
5.14882
21
1.91337
0
LINE
8
BLACK
6
CONTINUOUS
10
5.14882
20
1.91337
11
5.14807
21
1.91714
0
LINE
8
BLACK
6
CONTINUOUS
10
5.14807
20
1.91714
11
5.14807
21
1.95257
0
LINE
8
BLACK
6
CONTINUOUS
10
5.14807
20
1.95257
11
5.14882
21
1.95634
0
LINE
8
BLACK
6
CONTINUOUS
10
5.14882
20
1.95634
11
5.15095
21
1.95953
0
LINE
8
BLACK
6
CONTINUOUS
10
5.15095
20
1.95953
11
5.15415
21
1.96167
0
LINE
8
BLACK
6
CONTINUOUS
10
5.15415
20
1.96167
11
5.15791
21
1.96242
0
LINE
8
BLACK
6
CONTINUOUS
10
5.15791
20
1.96242
11
5.17858
21
1.96242
0
LINE
8
BLACK
6
CONTINUOUS
10
5.17858
20
1.96242
11
5.18235
21
1.96167
0
LINE
8
BLACK
6
CONTINUOUS
10
5.2542
20
1.96167
11
5.25739
21
1.95953
0
LINE
8
BLACK
6
CONTINUOUS
10
5.25739
20
1.95953
11
5.25953
21
1.95634
0
LINE
8
BLACK
6
CONTINUOUS
10
5.25953
20
1.95634
11
5.26028
21
1.95257
0
LINE
8
BLACK
6
CONTINUOUS
10
5.26028
20
1.95257
11
5.26028
21
1.91714
0
LINE
8
BLACK
6
CONTINUOUS
10
5.26028
20
1.91714
11
5.25953
21
1.91337
0
LINE
8
BLACK
6
CONTINUOUS
10
5.25953
20
1.91337
11
5.25739
21
1.91018
0
LINE
8
BLACK
6
CONTINUOUS
10
5.25739
20
1.91018
11
5.2542
21
1.90805
0
LINE
8
BLACK
6
CONTINUOUS
10
5.2542
20
1.90805
11
5.25043
21
1.9073
0
LINE
8
BLACK
6
CONTINUOUS
10
5.25043
20
1.9073
11
5.22976
21
1.9073
0
LINE
8
BLACK
6
CONTINUOUS
10
5.22976
20
1.9073
11
5.226
21
1.90805
0
LINE
8
BLACK
6
CONTINUOUS
10
5.226
20
1.90805
11
5.2228
21
1.91018
0
LINE
8
BLACK
6
CONTINUOUS
10
5.2228
20
1.91018
11
5.22067
21
1.91337
0
LINE
8
BLACK
6
CONTINUOUS
10
5.22067
20
1.91337
11
5.21992
21
1.91714
0
LINE
8
BLACK
6
CONTINUOUS
10
5.21992
20
1.91714
11
5.21992
21
1.95257
0
LINE
8
BLACK
6
CONTINUOUS
10
5.21992
20
1.95257
11
5.22067
21
1.95634
0
LINE
8
BLACK
6
CONTINUOUS
10
5.22067
20
1.95634
11
5.2228
21
1.95953
0
LINE
8
BLACK
6
CONTINUOUS
10
5.2228
20
1.95953
11
5.226
21
1.96167
0
LINE
8
BLACK
6
CONTINUOUS
10
5.226
20
1.96167
11
5.22976
21
1.96242
0
LINE
8
BLACK
6
CONTINUOUS
10
5.22976
20
1.96242
11
5.25043
21
1.96242
0
LINE
8
BLACK
6
CONTINUOUS
10
5.25043
20
1.96242
11
5.2542
21
1.96167
0
LINE
8
BLACK
6
CONTINUOUS
10
5.31325
20
1.95114
11
5.31645
21
1.94901
0
LINE
8
BLACK
6
CONTINUOUS
10
5.31645
20
1.94901
11
5.31858
21
1.94582
0
LINE
8
BLACK
6
CONTINUOUS
10
5.31858
20
1.94582
11
5.31933
21
1.94205
0
LINE
8
BLACK
6
CONTINUOUS
10
5.31933
20
1.94205
11
5.31933
21
1.9263
0
LINE
8
BLACK
6
CONTINUOUS
10
5.31933
20
1.9263
11
5.31858
21
1.92253
0
LINE
8
BLACK
6
CONTINUOUS
10
5.31858
20
1.92253
11
5.31645
21
1.91934
0
LINE
8
BLACK
6
CONTINUOUS
10
5.31645
20
1.91934
11
5.31325
21
1.91721
0
LINE
8
BLACK
6
CONTINUOUS
10
5.31325
20
1.91721
11
5.30949
21
1.91646
0
LINE
8
BLACK
6
CONTINUOUS
10
5.30949
20
1.91646
11
5.2898
21
1.91646
0
LINE
8
BLACK
6
CONTINUOUS
10
5.2898
20
1.91646
11
5.28604
21
1.91721
0
LINE
8
BLACK
6
CONTINUOUS
10
5.28604
20
1.91721
11
5.28284
21
1.91934
0
LINE
8
BLACK
6
CONTINUOUS
10
5.28284
20
1.91934
11
5.28071
21
1.92253
0
LINE
8
BLACK
6
CONTINUOUS
10
5.28071
20
1.92253
11
5.27996
21
1.9263
0
LINE
8
BLACK
6
CONTINUOUS
10
5.27996
20
1.9263
11
5.27996
21
1.94205
0
LINE
8
BLACK
6
CONTINUOUS
10
5.27996
20
1.94205
11
5.28071
21
1.94582
0
LINE
8
BLACK
6
CONTINUOUS
10
5.28071
20
1.94582
11
5.28284
21
1.94901
0
LINE
8
BLACK
6
CONTINUOUS
10
5.28284
20
1.94901
11
5.28604
21
1.95114
0
LINE
8
BLACK
6
CONTINUOUS
10
5.28604
20
1.95114
11
5.2898
21
1.95189
0
LINE
8
BLACK
6
CONTINUOUS
10
5.2898
20
1.95189
11
5.30949
21
1.95189
0
LINE
8
BLACK
6
CONTINUOUS
10
5.30949
20
1.95189
11
5.31325
21
1.95114
0
LINE
8
BLACK
6
CONTINUOUS
10
5.31325
20
2.01413
11
5.31645
21
2.012
0
LINE
8
BLACK
6
CONTINUOUS
10
5.31645
20
2.012
11
5.31858
21
2.00881
0
LINE
8
BLACK
6
CONTINUOUS
10
5.31858
20
2.00881
11
5.31933
21
2.00504
0
LINE
8
BLACK
6
CONTINUOUS
10
5.31933
20
2.00504
11
5.31933
21
1.98929
0
LINE
8
BLACK
6
CONTINUOUS
10
5.31933
20
1.98929
11
5.31858
21
1.98553
0
LINE
8
BLACK
6
CONTINUOUS
10
5.31858
20
1.98553
11
5.31645
21
1.98233
0
LINE
8
BLACK
6
CONTINUOUS
10
5.31645
20
1.98233
11
5.31325
21
1.9802
0
LINE
8
BLACK
6
CONTINUOUS
10
5.31325
20
1.9802
11
5.30949
21
1.97945
0
LINE
8
BLACK
6
CONTINUOUS
10
5.30949
20
1.97945
11
5.2898
21
1.97945
0
LINE
8
BLACK
6
CONTINUOUS
10
5.2898
20
1.97945
11
5.28604
21
1.9802
0
LINE
8
BLACK
6
CONTINUOUS
10
5.28604
20
1.9802
11
5.28284
21
1.98233
0
LINE
8
BLACK
6
CONTINUOUS
10
5.28284
20
1.98233
11
5.28071
21
1.98553
0
LINE
8
BLACK
6
CONTINUOUS
10
5.28071
20
1.98553
11
5.27996
21
1.98929
0
LINE
8
BLACK
6
CONTINUOUS
10
5.27996
20
1.98929
11
5.27996
21
2.00504
0
LINE
8
BLACK
6
CONTINUOUS
10
5.27996
20
2.00504
11
5.28071
21
2.00881
0
LINE
8
BLACK
6
CONTINUOUS
10
5.28071
20
2.00881
11
5.28284
21
2.012
0
LINE
8
BLACK
6
CONTINUOUS
10
5.28284
20
2.012
11
5.28604
21
2.01413
0
LINE
8
BLACK
6
CONTINUOUS
10
5.28604
20
2.01413
11
5.2898
21
2.01488
0
LINE
8
BLACK
6
CONTINUOUS
10
5.2898
20
2.01488
11
5.30949
21
2.01488
0
LINE
8
BLACK
6
CONTINUOUS
10
5.30949
20
2.01488
11
5.31325
21
2.01413
0
LINE
8
BLACK
6
CONTINUOUS
10
5.31325
20
2.06009
11
5.31645
21
2.05796
0
LINE
8
BLACK
6
CONTINUOUS
10
5.31645
20
2.05796
11
5.31858
21
2.05477
0
LINE
8
BLACK
6
CONTINUOUS
10
5.31858
20
2.05477
11
5.31933
21
2.051
0
LINE
8
BLACK
6
CONTINUOUS
10
5.31933
20
2.051
11
5.31933
21
2.03525
0
LINE
8
BLACK
6
CONTINUOUS
10
5.31933
20
2.03525
11
5.31858
21
2.03148
0
LINE
8
BLACK
6
CONTINUOUS
10
5.31858
20
2.03148
11
5.31645
21
2.02829
0
LINE
8
BLACK
6
CONTINUOUS
10
5.31645
20
2.02829
11
5.31325
21
2.02616
0
LINE
8
BLACK
6
CONTINUOUS
10
5.31325
20
2.02616
11
5.30949
21
2.02541
0
LINE
8
BLACK
6
CONTINUOUS
10
5.30949
20
2.02541
11
5.2898
21
2.02541
0
LINE
8
BLACK
6
CONTINUOUS
10
5.2898
20
2.02541
11
5.28604
21
2.02616
0
LINE
8
BLACK
6
CONTINUOUS
10
5.28604
20
2.02616
11
5.28284
21
2.02829
0
LINE
8
BLACK
6
CONTINUOUS
10
5.28284
20
2.02829
11
5.28071
21
2.03148
0
LINE
8
BLACK
6
CONTINUOUS
10
5.28071
20
2.03148
11
5.27996
21
2.03525
0
LINE
8
BLACK
6
CONTINUOUS
10
5.27996
20
2.03525
11
5.27996
21
2.051
0
LINE
8
BLACK
6
CONTINUOUS
10
5.27996
20
2.051
11
5.28071
21
2.05477
0
LINE
8
BLACK
6
CONTINUOUS
10
5.28071
20
2.05477
11
5.28284
21
2.05796
0
LINE
8
BLACK
6
CONTINUOUS
10
5.28284
20
2.05796
11
5.28604
21
2.06009
0
LINE
8
BLACK
6
CONTINUOUS
10
5.28604
20
2.06009
11
5.2898
21
2.06084
0
LINE
8
BLACK
6
CONTINUOUS
10
5.2898
20
2.06084
11
5.30949
21
2.06084
0
LINE
8
BLACK
6
CONTINUOUS
10
5.30949
20
2.06084
11
5.31325
21
2.06009
0
LINE
8
BLACK
6
CONTINUOUS
10
5.31325
20
2.12308
11
5.31645
21
2.12095
0
LINE
8
BLACK
6
CONTINUOUS
10
5.31645
20
2.12095
11
5.31858
21
2.11776
0
LINE
8
BLACK
6
CONTINUOUS
10
5.31858
20
2.11776
11
5.31933
21
2.11399
0
LINE
8
BLACK
6
CONTINUOUS
10
5.31933
20
2.11399
11
5.31933
21
2.09824
0
LINE
8
BLACK
6
CONTINUOUS
10
5.31933
20
2.09824
11
5.31858
21
2.09448
0
LINE
8
BLACK
6
CONTINUOUS
10
5.31858
20
2.09448
11
5.31645
21
2.09128
0
LINE
8
BLACK
6
CONTINUOUS
10
5.31645
20
2.09128
11
5.31325
21
2.08915
0
LINE
8
BLACK
6
CONTINUOUS
10
5.31325
20
2.08915
11
5.30949
21
2.0884
0
LINE
8
BLACK
6
CONTINUOUS
10
5.30949
20
2.0884
11
5.2898
21
2.0884
0
LINE
8
BLACK
6
CONTINUOUS
10
5.2898
20
2.0884
11
5.28604
21
2.08915
0
LINE
8
BLACK
6
CONTINUOUS
10
5.28604
20
2.08915
11
5.28284
21
2.09128
0
LINE
8
BLACK
6
CONTINUOUS
10
5.28284
20
2.09128
11
5.28071
21
2.09448
0
LINE
8
BLACK
6
CONTINUOUS
10
5.28071
20
2.09448
11
5.27996
21
2.09824
0
LINE
8
BLACK
6
CONTINUOUS
10
5.27996
20
2.09824
11
5.27996
21
2.11399
0
LINE
8
BLACK
6
CONTINUOUS
10
5.27996
20
2.11399
11
5.28071
21
2.11776
0
LINE
8
BLACK
6
CONTINUOUS
10
5.28071
20
2.11776
11
5.28284
21
2.12095
0
LINE
8
BLACK
6
CONTINUOUS
10
5.28284
20
2.12095
11
5.28604
21
2.12308
0
LINE
8
BLACK
6
CONTINUOUS
10
5.28604
20
2.12308
11
5.2898
21
2.12383
0
LINE
8
BLACK
6
CONTINUOUS
10
5.2898
20
2.12383
11
5.30949
21
2.12383
0
LINE
8
BLACK
6
CONTINUOUS
10
5.30949
20
2.12383
11
5.31325
21
2.12308
0
LINE
8
BLACK
6
CONTINUOUS
10
5.31325
20
2.16904
11
5.31645
21
2.16691
0
LINE
8
BLACK
6
CONTINUOUS
10
5.31645
20
2.16691
11
5.31858
21
2.16372
0
LINE
8
BLACK
6
CONTINUOUS
10
5.31858
20
2.16372
11
5.31933
21
2.15995
0
LINE
8
BLACK
6
CONTINUOUS
10
5.31933
20
2.15995
11
5.31933
21
2.1442
0
LINE
8
BLACK
6
CONTINUOUS
10
5.31933
20
2.1442
11
5.31858
21
2.14044
0
LINE
8
BLACK
6
CONTINUOUS
10
5.31858
20
2.14044
11
5.31645
21
2.13724
0
LINE
8
BLACK
6
CONTINUOUS
10
5.31645
20
2.13724
11
5.31325
21
2.13511
0
LINE
8
BLACK
6
CONTINUOUS
10
5.31325
20
2.13511
11
5.30949
21
2.13436
0
LINE
8
BLACK
6
CONTINUOUS
10
5.30949
20
2.13436
11
5.2898
21
2.13436
0
LINE
8
BLACK
6
CONTINUOUS
10
5.2898
20
2.13436
11
5.28604
21
2.13511
0
LINE
8
BLACK
6
CONTINUOUS
10
5.28604
20
2.13511
11
5.28284
21
2.13724
0
LINE
8
BLACK
6
CONTINUOUS
10
5.28284
20
2.13724
11
5.28071
21
2.14044
0
LINE
8
BLACK
6
CONTINUOUS
10
5.28071
20
2.14044
11
5.27996
21
2.1442
0
LINE
8
BLACK
6
CONTINUOUS
10
5.27996
20
2.1442
11
5.27996
21
2.15995
0
LINE
8
BLACK
6
CONTINUOUS
10
5.27996
20
2.15995
11
5.28071
21
2.16372
0
LINE
8
BLACK
6
CONTINUOUS
10
5.28071
20
2.16372
11
5.28284
21
2.16691
0
LINE
8
BLACK
6
CONTINUOUS
10
5.28284
20
2.16691
11
5.28604
21
2.16904
0
LINE
8
BLACK
6
CONTINUOUS
10
5.28604
20
2.16904
11
5.2898
21
2.16979
0
LINE
8
BLACK
6
CONTINUOUS
10
5.2898
20
2.16979
11
5.30949
21
2.16979
0
LINE
8
BLACK
6
CONTINUOUS
10
5.30949
20
2.16979
11
5.31325
21
2.16904
0
LINE
8
BLACK
6
CONTINUOUS
10
5.18235
20
2.20773
11
5.18554
21
2.2056
0
LINE
8
BLACK
6
CONTINUOUS
10
5.18554
20
2.2056
11
5.18768
21
2.2024
0
LINE
8
BLACK
6
CONTINUOUS
10
5.18768
20
2.2024
11
5.18843
21
2.19864
0
LINE
8
BLACK
6
CONTINUOUS
10
5.18843
20
2.19864
11
5.18843
21
2.1632
0
LINE
8
BLACK
6
CONTINUOUS
10
5.18843
20
2.1632
11
5.18768
21
2.15944
0
LINE
8
BLACK
6
CONTINUOUS
10
5.18768
20
2.15944
11
5.18554
21
2.15624
0
LINE
8
BLACK
6
CONTINUOUS
10
5.18554
20
2.15624
11
5.18235
21
2.15411
0
LINE
8
BLACK
6
CONTINUOUS
10
5.18235
20
2.15411
11
5.17858
21
2.15336
0
LINE
8
BLACK
6
CONTINUOUS
10
5.17858
20
2.15336
11
5.15791
21
2.15336
0
LINE
8
BLACK
6
CONTINUOUS
10
5.15791
20
2.15336
11
5.15415
21
2.15411
0
LINE
8
BLACK
6
CONTINUOUS
10
5.15415
20
2.15411
11
5.15095
21
2.15624
0
LINE
8
BLACK
6
CONTINUOUS
10
5.15095
20
2.15624
11
5.14882
21
2.15944
0
LINE
8
BLACK
6
CONTINUOUS
10
5.14882
20
2.15944
11
5.14807
21
2.1632
0
LINE
8
BLACK
6
CONTINUOUS
10
5.14807
20
2.1632
11
5.14807
21
2.19864
0
LINE
8
BLACK
6
CONTINUOUS
10
5.14807
20
2.19864
11
5.14882
21
2.2024
0
LINE
8
BLACK
6
CONTINUOUS
10
5.14882
20
2.2024
11
5.15095
21
2.2056
0
LINE
8
BLACK
6
CONTINUOUS
10
5.15095
20
2.2056
11
5.15415
21
2.20773
0
LINE
8
BLACK
6
CONTINUOUS
10
5.15415
20
2.20773
11
5.15791
21
2.20848
0
LINE
8
BLACK
6
CONTINUOUS
10
5.15791
20
2.20848
11
5.17858
21
2.20848
0
LINE
8
BLACK
6
CONTINUOUS
10
5.17858
20
2.20848
11
5.18235
21
2.20773
0
LINE
8
BLACK
6
CONTINUOUS
10
5.2542
20
2.20773
11
5.25739
21
2.2056
0
LINE
8
BLACK
6
CONTINUOUS
10
5.25739
20
2.2056
11
5.25953
21
2.2024
0
LINE
8
BLACK
6
CONTINUOUS
10
5.25953
20
2.2024
11
5.26028
21
2.19864
0
LINE
8
BLACK
6
CONTINUOUS
10
5.26028
20
2.19864
11
5.26028
21
2.1632
0
LINE
8
BLACK
6
CONTINUOUS
10
5.26028
20
2.1632
11
5.25953
21
2.15944
0
LINE
8
BLACK
6
CONTINUOUS
10
5.25953
20
2.15944
11
5.25739
21
2.15624
0
LINE
8
BLACK
6
CONTINUOUS
10
5.25739
20
2.15624
11
5.2542
21
2.15411
0
LINE
8
BLACK
6
CONTINUOUS
10
5.2542
20
2.15411
11
5.25043
21
2.15336
0
LINE
8
BLACK
6
CONTINUOUS
10
5.25043
20
2.15336
11
5.22976
21
2.15336
0
LINE
8
BLACK
6
CONTINUOUS
10
5.22976
20
2.15336
11
5.226
21
2.15411
0
LINE
8
BLACK
6
CONTINUOUS
10
5.226
20
2.15411
11
5.2228
21
2.15624
0
LINE
8
BLACK
6
CONTINUOUS
10
5.2228
20
2.15624
11
5.22067
21
2.15944
0
LINE
8
BLACK
6
CONTINUOUS
10
5.22067
20
2.15944
11
5.21992
21
2.1632
0
LINE
8
BLACK
6
CONTINUOUS
10
5.21992
20
2.1632
11
5.21992
21
2.19864
0
LINE
8
BLACK
6
CONTINUOUS
10
5.21992
20
2.19864
11
5.22067
21
2.2024
0
LINE
8
BLACK
6
CONTINUOUS
10
5.22067
20
2.2024
11
5.2228
21
2.2056
0
LINE
8
BLACK
6
CONTINUOUS
10
5.2228
20
2.2056
11
5.226
21
2.20773
0
LINE
8
BLACK
6
CONTINUOUS
10
5.226
20
2.20773
11
5.22976
21
2.20848
0
LINE
8
BLACK
6
CONTINUOUS
10
5.22976
20
2.20848
11
5.25043
21
2.20848
0
LINE
8
BLACK
6
CONTINUOUS
10
5.25043
20
2.20848
11
5.2542
21
2.20773
0
LINE
8
BLACK
6
CONTINUOUS
10
5.31325
20
2.23204
11
5.31645
21
2.2299
0
LINE
8
BLACK
6
CONTINUOUS
10
5.31645
20
2.2299
11
5.31858
21
2.22671
0
LINE
8
BLACK
6
CONTINUOUS
10
5.31858
20
2.22671
11
5.31933
21
2.22294
0
LINE
8
BLACK
6
CONTINUOUS
10
5.31933
20
2.22294
11
5.31933
21
2.20719
0
LINE
8
BLACK
6
CONTINUOUS
10
5.31933
20
2.20719
11
5.31858
21
2.20343
0
LINE
8
BLACK
6
CONTINUOUS
10
5.31858
20
2.20343
11
5.31645
21
2.20023
0
LINE
8
BLACK
6
CONTINUOUS
10
5.31645
20
2.20023
11
5.31325
21
2.1981
0
LINE
8
BLACK
6
CONTINUOUS
10
5.31325
20
2.1981
11
5.30949
21
2.19735
0
LINE
8
BLACK
6
CONTINUOUS
10
5.30949
20
2.19735
11
5.2898
21
2.19735
0
LINE
8
BLACK
6
CONTINUOUS
10
5.2898
20
2.19735
11
5.28604
21
2.1981
0
LINE
8
BLACK
6
CONTINUOUS
10
5.28604
20
2.1981
11
5.28284
21
2.20023
0
LINE
8
BLACK
6
CONTINUOUS
10
5.28284
20
2.20023
11
5.28071
21
2.20343
0
LINE
8
BLACK
6
CONTINUOUS
10
5.28071
20
2.20343
11
5.27996
21
2.20719
0
LINE
8
BLACK
6
CONTINUOUS
10
5.27996
20
2.20719
11
5.27996
21
2.22294
0
LINE
8
BLACK
6
CONTINUOUS
10
5.27996
20
2.22294
11
5.28071
21
2.22671
0
LINE
8
BLACK
6
CONTINUOUS
10
5.28071
20
2.22671
11
5.28284
21
2.2299
0
LINE
8
BLACK
6
CONTINUOUS
10
5.28284
20
2.2299
11
5.28604
21
2.23204
0
LINE
8
BLACK
6
CONTINUOUS
10
5.28604
20
2.23204
11
5.2898
21
2.23278
0
LINE
8
BLACK
6
CONTINUOUS
10
5.2898
20
2.23278
11
5.30949
21
2.23278
0
LINE
8
BLACK
6
CONTINUOUS
10
5.30949
20
2.23278
11
5.31325
21
2.23204
0
LINE
8
BLACK
6
CONTINUOUS
10
5.18284
20
2.28352
11
5.18603
21
2.28138
0
LINE
8
BLACK
6
CONTINUOUS
10
5.18603
20
2.28138
11
5.18817
21
2.27819
0
LINE
8
BLACK
6
CONTINUOUS
10
5.18817
20
2.27819
11
5.18892
21
2.27442
0
LINE
8
BLACK
6
CONTINUOUS
10
5.18892
20
2.27442
11
5.18892
21
2.23899
0
LINE
8
BLACK
6
CONTINUOUS
10
5.18892
20
2.23899
11
5.18817
21
2.23523
0
LINE
8
BLACK
6
CONTINUOUS
10
5.18817
20
2.23523
11
5.18603
21
2.23203
0
LINE
8
BLACK
6
CONTINUOUS
10
5.18603
20
2.23203
11
5.18284
21
2.2299
0
LINE
8
BLACK
6
CONTINUOUS
10
5.18284
20
2.2299
11
5.17907
21
2.22915
0
LINE
8
BLACK
6
CONTINUOUS
10
5.17907
20
2.22915
11
5.15841
21
2.22915
0
LINE
8
BLACK
6
CONTINUOUS
10
5.15841
20
2.22915
11
5.15464
21
2.2299
0
LINE
8
BLACK
6
CONTINUOUS
10
5.15464
20
2.2299
11
5.15145
21
2.23203
0
LINE
8
BLACK
6
CONTINUOUS
10
5.15145
20
2.23203
11
5.14931
21
2.23523
0
LINE
8
BLACK
6
CONTINUOUS
10
5.14931
20
2.23523
11
5.14856
21
2.23899
0
LINE
8
BLACK
6
CONTINUOUS
10
5.14856
20
2.23899
11
5.14856
21
2.27442
0
LINE
8
BLACK
6
CONTINUOUS
10
5.14856
20
2.27442
11
5.14931
21
2.27819
0
LINE
8
BLACK
6
CONTINUOUS
10
5.14931
20
2.27819
11
5.15145
21
2.28138
0
LINE
8
BLACK
6
CONTINUOUS
10
5.15145
20
2.28138
11
5.15464
21
2.28352
0
LINE
8
BLACK
6
CONTINUOUS
10
5.15464
20
2.28352
11
5.15841
21
2.28427
0
LINE
8
BLACK
6
CONTINUOUS
10
5.15841
20
2.28427
11
5.17907
21
2.28427
0
LINE
8
BLACK
6
CONTINUOUS
10
5.17907
20
2.28427
11
5.18284
21
2.28352
0
LINE
8
BLACK
6
CONTINUOUS
10
5.25469
20
2.28352
11
5.25788
21
2.28138
0
LINE
8
BLACK
6
CONTINUOUS
10
5.25788
20
2.28138
11
5.26002
21
2.27819
0
LINE
8
BLACK
6
CONTINUOUS
10
5.26002
20
2.27819
11
5.26077
21
2.27442
0
LINE
8
BLACK
6
CONTINUOUS
10
5.26077
20
2.27442
11
5.26077
21
2.23899
0
LINE
8
BLACK
6
CONTINUOUS
10
5.26077
20
2.23899
11
5.26002
21
2.23523
0
LINE
8
BLACK
6
CONTINUOUS
10
5.26002
20
2.23523
11
5.25788
21
2.23203
0
LINE
8
BLACK
6
CONTINUOUS
10
5.25788
20
2.23203
11
5.25469
21
2.2299
0
LINE
8
BLACK
6
CONTINUOUS
10
5.25469
20
2.2299
11
5.25093
21
2.22915
0
LINE
8
BLACK
6
CONTINUOUS
10
5.25093
20
2.22915
11
5.23026
21
2.22915
0
LINE
8
BLACK
6
CONTINUOUS
10
5.23026
20
2.22915
11
5.22649
21
2.2299
0
LINE
8
BLACK
6
CONTINUOUS
10
5.22649
20
2.2299
11
5.2233
21
2.23203
0
LINE
8
BLACK
6
CONTINUOUS
10
5.2233
20
2.23203
11
5.22116
21
2.23523
0
LINE
8
BLACK
6
CONTINUOUS
10
5.22116
20
2.23523
11
5.22041
21
2.23899
0
LINE
8
BLACK
6
CONTINUOUS
10
5.22041
20
2.23899
11
5.22041
21
2.27442
0
LINE
8
BLACK
6
CONTINUOUS
10
5.22041
20
2.27442
11
5.22116
21
2.27819
0
LINE
8
BLACK
6
CONTINUOUS
10
5.22116
20
2.27819
11
5.2233
21
2.28138
0
LINE
8
BLACK
6
CONTINUOUS
10
5.2233
20
2.28138
11
5.22649
21
2.28352
0
LINE
8
BLACK
6
CONTINUOUS
10
5.22649
20
2.28352
11
5.23026
21
2.28427
0
LINE
8
BLACK
6
CONTINUOUS
10
5.23026
20
2.28427
11
5.25093
21
2.28427
0
LINE
8
BLACK
6
CONTINUOUS
10
5.25093
20
2.28427
11
5.25469
21
2.28352
0
LINE
8
BLACK
6
CONTINUOUS
10
5.31325
20
2.27799
11
5.31645
21
2.27586
0
LINE
8
BLACK
6
CONTINUOUS
10
5.31645
20
2.27586
11
5.31858
21
2.27267
0
LINE
8
BLACK
6
CONTINUOUS
10
5.31858
20
2.27267
11
5.31933
21
2.2689
0
LINE
8
BLACK
6
CONTINUOUS
10
5.31933
20
2.2689
11
5.31933
21
2.25315
0
LINE
8
BLACK
6
CONTINUOUS
10
5.31933
20
2.25315
11
5.31858
21
2.24939
0
LINE
8
BLACK
6
CONTINUOUS
10
5.31858
20
2.24939
11
5.31645
21
2.24619
0
LINE
8
BLACK
6
CONTINUOUS
10
5.31645
20
2.24619
11
5.31325
21
2.24406
0
LINE
8
BLACK
6
CONTINUOUS
10
5.31325
20
2.24406
11
5.30949
21
2.24331
0
LINE
8
BLACK
6
CONTINUOUS
10
5.30949
20
2.24331
11
5.2898
21
2.24331
0
LINE
8
BLACK
6
CONTINUOUS
10
5.2898
20
2.24331
11
5.28604
21
2.24406
0
LINE
8
BLACK
6
CONTINUOUS
10
5.28604
20
2.24406
11
5.28284
21
2.24619
0
LINE
8
BLACK
6
CONTINUOUS
10
5.28284
20
2.24619
11
5.28071
21
2.24939
0
LINE
8
BLACK
6
CONTINUOUS
10
5.28071
20
2.24939
11
5.27996
21
2.25315
0
LINE
8
BLACK
6
CONTINUOUS
10
5.27996
20
2.25315
11
5.27996
21
2.2689
0
LINE
8
BLACK
6
CONTINUOUS
10
5.27996
20
2.2689
11
5.28071
21
2.27267
0
LINE
8
BLACK
6
CONTINUOUS
10
5.28071
20
2.27267
11
5.28284
21
2.27586
0
LINE
8
BLACK
6
CONTINUOUS
10
5.28284
20
2.27586
11
5.28604
21
2.27799
0
LINE
8
BLACK
6
CONTINUOUS
10
5.28604
20
2.27799
11
5.2898
21
2.27874
0
LINE
8
BLACK
6
CONTINUOUS
10
5.2898
20
2.27874
11
5.30949
21
2.27874
0
LINE
8
BLACK
6
CONTINUOUS
10
5.30949
20
2.27874
11
5.31325
21
2.27799
0
LINE
8
BLACK
6
CONTINUOUS
10
5.31325
20
2.34099
11
5.31645
21
2.33885
0
LINE
8
BLACK
6
CONTINUOUS
10
5.31645
20
2.33885
11
5.31858
21
2.33566
0
LINE
8
BLACK
6
CONTINUOUS
10
5.31858
20
2.33566
11
5.31933
21
2.33189
0
LINE
8
BLACK
6
CONTINUOUS
10
5.31933
20
2.33189
11
5.31933
21
2.31614
0
LINE
8
BLACK
6
CONTINUOUS
10
5.31933
20
2.31614
11
5.31858
21
2.31238
0
LINE
8
BLACK
6
CONTINUOUS
10
5.31858
20
2.31238
11
5.31645
21
2.30919
0
LINE
8
BLACK
6
CONTINUOUS
10
5.31645
20
2.30919
11
5.31325
21
2.30705
0
LINE
8
BLACK
6
CONTINUOUS
10
5.31325
20
2.30705
11
5.30949
21
2.3063
0
LINE
8
BLACK
6
CONTINUOUS
10
5.30949
20
2.3063
11
5.2898
21
2.3063
0
LINE
8
BLACK
6
CONTINUOUS
10
5.2898
20
2.3063
11
5.28604
21
2.30705
0
LINE
8
BLACK
6
CONTINUOUS
10
5.28604
20
2.30705
11
5.28284
21
2.30919
0
LINE
8
BLACK
6
CONTINUOUS
10
5.28284
20
2.30919
11
5.28071
21
2.31238
0
LINE
8
BLACK
6
CONTINUOUS
10
5.28071
20
2.31238
11
5.27996
21
2.31614
0
LINE
8
BLACK
6
CONTINUOUS
10
5.27996
20
2.31614
11
5.27996
21
2.33189
0
LINE
8
BLACK
6
CONTINUOUS
10
5.27996
20
2.33189
11
5.28071
21
2.33566
0
LINE
8
BLACK
6
CONTINUOUS
10
5.28071
20
2.33566
11
5.28284
21
2.33885
0
LINE
8
BLACK
6
CONTINUOUS
10
5.28284
20
2.33885
11
5.28604
21
2.34099
0
LINE
8
BLACK
6
CONTINUOUS
10
5.28604
20
2.34099
11
5.2898
21
2.34174
0
LINE
8
BLACK
6
CONTINUOUS
10
5.2898
20
2.34174
11
5.30949
21
2.34174
0
LINE
8
BLACK
6
CONTINUOUS
10
5.30949
20
2.34174
11
5.31325
21
2.34099
0
LINE
8
BLACK
6
CONTINUOUS
10
5.18284
20
2.36127
11
5.18603
21
2.35914
0
LINE
8
BLACK
6
CONTINUOUS
10
5.18603
20
2.35914
11
5.18817
21
2.35595
0
LINE
8
BLACK
6
CONTINUOUS
10
5.18817
20
2.35595
11
5.18892
21
2.35218
0
LINE
8
BLACK
6
CONTINUOUS
10
5.18892
20
2.35218
11
5.18892
21
2.31675
0
LINE
8
BLACK
6
CONTINUOUS
10
5.18892
20
2.31675
11
5.18817
21
2.31298
0
LINE
8
BLACK
6
CONTINUOUS
10
5.18817
20
2.31298
11
5.18603
21
2.30979
0
LINE
8
BLACK
6
CONTINUOUS
10
5.18603
20
2.30979
11
5.18284
21
2.30765
0
LINE
8
BLACK
6
CONTINUOUS
10
5.18284
20
2.30765
11
5.17907
21
2.30691
0
LINE
8
BLACK
6
CONTINUOUS
10
5.17907
20
2.30691
11
5.15841
21
2.30691
0
LINE
8
BLACK
6
CONTINUOUS
10
5.15841
20
2.30691
11
5.15464
21
2.30765
0
LINE
8
BLACK
6
CONTINUOUS
10
5.15464
20
2.30765
11
5.15145
21
2.30979
0
LINE
8
BLACK
6
CONTINUOUS
10
5.15145
20
2.30979
11
5.14931
21
2.31298
0
LINE
8
BLACK
6
CONTINUOUS
10
5.14931
20
2.31298
11
5.14856
21
2.31675
0
LINE
8
BLACK
6
CONTINUOUS
10
5.14856
20
2.31675
11
5.14856
21
2.35218
0
LINE
8
BLACK
6
CONTINUOUS
10
5.14856
20
2.35218
11
5.14931
21
2.35595
0
LINE
8
BLACK
6
CONTINUOUS
10
5.14931
20
2.35595
11
5.15145
21
2.35914
0
LINE
8
BLACK
6
CONTINUOUS
10
5.15145
20
2.35914
11
5.15464
21
2.36127
0
LINE
8
BLACK
6
CONTINUOUS
10
5.15464
20
2.36127
11
5.15841
21
2.36202
0
LINE
8
BLACK
6
CONTINUOUS
10
5.15841
20
2.36202
11
5.17907
21
2.36202
0
LINE
8
BLACK
6
CONTINUOUS
10
5.17907
20
2.36202
11
5.18284
21
2.36127
0
LINE
8
BLACK
6
CONTINUOUS
10
5.25469
20
2.36127
11
5.25788
21
2.35914
0
LINE
8
BLACK
6
CONTINUOUS
10
5.25788
20
2.35914
11
5.26002
21
2.35595
0
LINE
8
BLACK
6
CONTINUOUS
10
5.26002
20
2.35595
11
5.26077
21
2.35218
0
LINE
8
BLACK
6
CONTINUOUS
10
5.26077
20
2.35218
11
5.26077
21
2.31675
0
LINE
8
BLACK
6
CONTINUOUS
10
5.26077
20
2.31675
11
5.26002
21
2.31298
0
LINE
8
BLACK
6
CONTINUOUS
10
5.26002
20
2.31298
11
5.25788
21
2.30979
0
LINE
8
BLACK
6
CONTINUOUS
10
5.25788
20
2.30979
11
5.25469
21
2.30765
0
LINE
8
BLACK
6
CONTINUOUS
10
5.25469
20
2.30765
11
5.25093
21
2.30691
0
LINE
8
BLACK
6
CONTINUOUS
10
5.25093
20
2.30691
11
5.23026
21
2.30691
0
LINE
8
BLACK
6
CONTINUOUS
10
5.23026
20
2.30691
11
5.22649
21
2.30765
0
LINE
8
BLACK
6
CONTINUOUS
10
5.22649
20
2.30765
11
5.2233
21
2.30979
0
LINE
8
BLACK
6
CONTINUOUS
10
5.2233
20
2.30979
11
5.22116
21
2.31298
0
LINE
8
BLACK
6
CONTINUOUS
10
5.22116
20
2.31298
11
5.22041
21
2.31675
0
LINE
8
BLACK
6
CONTINUOUS
10
5.22041
20
2.31675
11
5.22041
21
2.35218
0
LINE
8
BLACK
6
CONTINUOUS
10
5.22041
20
2.35218
11
5.22116
21
2.35595
0
LINE
8
BLACK
6
CONTINUOUS
10
5.22116
20
2.35595
11
5.2233
21
2.35914
0
LINE
8
BLACK
6
CONTINUOUS
10
5.2233
20
2.35914
11
5.22649
21
2.36127
0
LINE
8
BLACK
6
CONTINUOUS
10
5.22649
20
2.36127
11
5.23026
21
2.36202
0
LINE
8
BLACK
6
CONTINUOUS
10
5.23026
20
2.36202
11
5.25093
21
2.36202
0
LINE
8
BLACK
6
CONTINUOUS
10
5.25093
20
2.36202
11
5.25469
21
2.36127
0
LINE
8
BLACK
6
CONTINUOUS
10
5.31325
20
2.38694
11
5.31645
21
2.38481
0
LINE
8
BLACK
6
CONTINUOUS
10
5.31645
20
2.38481
11
5.31858
21
2.38162
0
LINE
8
BLACK
6
CONTINUOUS
10
5.31858
20
2.38162
11
5.31933
21
2.37785
0
LINE
8
BLACK
6
CONTINUOUS
10
5.31933
20
2.37785
11
5.31933
21
2.3621
0
LINE
8
BLACK
6
CONTINUOUS
10
5.31933
20
2.3621
11
5.31858
21
2.35834
0
LINE
8
BLACK
6
CONTINUOUS
10
5.31858
20
2.35834
11
5.31645
21
2.35514
0
LINE
8
BLACK
6
CONTINUOUS
10
5.31645
20
2.35514
11
5.31325
21
2.35301
0
LINE
8
BLACK
6
CONTINUOUS
10
5.31325
20
2.35301
11
5.30949
21
2.35226
0
LINE
8
BLACK
6
CONTINUOUS
10
5.30949
20
2.35226
11
5.2898
21
2.35226
0
LINE
8
BLACK
6
CONTINUOUS
10
5.2898
20
2.35226
11
5.28604
21
2.35301
0
LINE
8
BLACK
6
CONTINUOUS
10
5.28604
20
2.35301
11
5.28284
21
2.35514
0
LINE
8
BLACK
6
CONTINUOUS
10
5.28284
20
2.35514
11
5.28071
21
2.35834
0
LINE
8
BLACK
6
CONTINUOUS
10
5.28071
20
2.35834
11
5.27996
21
2.3621
0
LINE
8
BLACK
6
CONTINUOUS
10
5.27996
20
2.3621
11
5.27996
21
2.37785
0
LINE
8
BLACK
6
CONTINUOUS
10
5.27996
20
2.37785
11
5.28071
21
2.38162
0
LINE
8
BLACK
6
CONTINUOUS
10
5.28071
20
2.38162
11
5.28284
21
2.38481
0
LINE
8
BLACK
6
CONTINUOUS
10
5.28284
20
2.38481
11
5.28604
21
2.38694
0
LINE
8
BLACK
6
CONTINUOUS
10
5.28604
20
2.38694
11
5.2898
21
2.38769
0
LINE
8
BLACK
6
CONTINUOUS
10
5.2898
20
2.38769
11
5.30949
21
2.38769
0
LINE
8
BLACK
6
CONTINUOUS
10
5.30949
20
2.38769
11
5.31325
21
2.38694
0
LINE
8
BLACK
6
CONTINUOUS
10
2.17841
20
2.43728
11
2.18161
21
2.43515
0
LINE
8
BLACK
6
CONTINUOUS
10
2.18161
20
2.43515
11
2.18374
21
2.43196
0
LINE
8
BLACK
6
CONTINUOUS
10
2.18374
20
2.43196
11
2.18449
21
2.42819
0
LINE
8
BLACK
6
CONTINUOUS
10
2.18449
20
2.42819
11
2.18449
21
2.39276
0
LINE
8
BLACK
6
CONTINUOUS
10
2.18449
20
2.39276
11
2.18374
21
2.38899
0
LINE
8
BLACK
6
CONTINUOUS
10
2.18374
20
2.38899
11
2.18161
21
2.3858
0
LINE
8
BLACK
6
CONTINUOUS
10
2.18161
20
2.3858
11
2.17841
21
2.38366
0
LINE
8
BLACK
6
CONTINUOUS
10
2.17841
20
2.38366
11
2.17465
21
2.38291
0
LINE
8
BLACK
6
CONTINUOUS
10
2.17465
20
2.38291
11
2.15398
21
2.38291
0
LINE
8
BLACK
6
CONTINUOUS
10
2.15398
20
2.38291
11
2.15021
21
2.38366
0
LINE
8
BLACK
6
CONTINUOUS
10
2.15021
20
2.38366
11
2.14702
21
2.3858
0
LINE
8
BLACK
6
CONTINUOUS
10
2.14702
20
2.3858
11
2.14488
21
2.38899
0
LINE
8
BLACK
6
CONTINUOUS
10
2.14488
20
2.38899
11
2.14413
21
2.39276
0
LINE
8
BLACK
6
CONTINUOUS
10
2.14413
20
2.39276
11
2.14413
21
2.42819
0
LINE
8
BLACK
6
CONTINUOUS
10
2.14413
20
2.42819
11
2.14488
21
2.43196
0
LINE
8
BLACK
6
CONTINUOUS
10
2.14488
20
2.43196
11
2.14702
21
2.43515
0
LINE
8
BLACK
6
CONTINUOUS
10
2.14702
20
2.43515
11
2.15021
21
2.43728
0
LINE
8
BLACK
6
CONTINUOUS
10
2.15021
20
2.43728
11
2.15398
21
2.43803
0
LINE
8
BLACK
6
CONTINUOUS
10
2.15398
20
2.43803
11
2.17465
21
2.43803
0
LINE
8
BLACK
6
CONTINUOUS
10
2.17465
20
2.43803
11
2.17841
21
2.43728
0
LINE
8
BLACK
6
CONTINUOUS
10
2.25026
20
2.43728
11
2.25346
21
2.43515
0
LINE
8
BLACK
6
CONTINUOUS
10
2.25346
20
2.43515
11
2.25559
21
2.43196
0
LINE
8
BLACK
6
CONTINUOUS
10
2.25559
20
2.43196
11
2.25634
21
2.42819
0
LINE
8
BLACK
6
CONTINUOUS
10
2.25634
20
2.42819
11
2.25634
21
2.39276
0
LINE
8
BLACK
6
CONTINUOUS
10
2.25634
20
2.39276
11
2.25559
21
2.38899
0
LINE
8
BLACK
6
CONTINUOUS
10
2.25559
20
2.38899
11
2.25346
21
2.3858
0
LINE
8
BLACK
6
CONTINUOUS
10
2.25346
20
2.3858
11
2.25026
21
2.38366
0
LINE
8
BLACK
6
CONTINUOUS
10
2.25026
20
2.38366
11
2.2465
21
2.38291
0
LINE
8
BLACK
6
CONTINUOUS
10
2.2465
20
2.38291
11
2.22583
21
2.38291
0
LINE
8
BLACK
6
CONTINUOUS
10
2.22583
20
2.38291
11
2.22206
21
2.38366
0
LINE
8
BLACK
6
CONTINUOUS
10
2.22206
20
2.38366
11
2.21887
21
2.3858
0
LINE
8
BLACK
6
CONTINUOUS
10
2.21887
20
2.3858
11
2.21673
21
2.38899
0
LINE
8
BLACK
6
CONTINUOUS
10
2.21673
20
2.38899
11
2.21598
21
2.39276
0
LINE
8
BLACK
6
CONTINUOUS
10
2.21598
20
2.39276
11
2.21598
21
2.42819
0
LINE
8
BLACK
6
CONTINUOUS
10
2.21598
20
2.42819
11
2.21673
21
2.43196
0
LINE
8
BLACK
6
CONTINUOUS
10
2.21673
20
2.43196
11
2.21887
21
2.43515
0
LINE
8
BLACK
6
CONTINUOUS
10
2.21887
20
2.43515
11
2.22206
21
2.43728
0
LINE
8
BLACK
6
CONTINUOUS
10
2.22206
20
2.43728
11
2.22583
21
2.43803
0
LINE
8
BLACK
6
CONTINUOUS
10
2.22583
20
2.43803
11
2.2465
21
2.43803
0
LINE
8
BLACK
6
CONTINUOUS
10
2.2465
20
2.43803
11
2.25026
21
2.43728
0
LINE
8
BLACK
6
CONTINUOUS
10
3.02881
20
2.43728
11
3.032
21
2.43515
0
LINE
8
BLACK
6
CONTINUOUS
10
3.032
20
2.43515
11
3.03413
21
2.43196
0
LINE
8
BLACK
6
CONTINUOUS
10
3.03413
20
2.43196
11
3.03488
21
2.42819
0
LINE
8
BLACK
6
CONTINUOUS
10
3.03488
20
2.42819
11
3.03488
21
2.39276
0
LINE
8
BLACK
6
CONTINUOUS
10
3.03488
20
2.39276
11
3.03413
21
2.38899
0
LINE
8
BLACK
6
CONTINUOUS
10
3.03413
20
2.38899
11
3.032
21
2.3858
0
LINE
8
BLACK
6
CONTINUOUS
10
3.032
20
2.3858
11
3.02881
21
2.38366
0
LINE
8
BLACK
6
CONTINUOUS
10
3.02881
20
2.38366
11
3.02504
21
2.38291
0
LINE
8
BLACK
6
CONTINUOUS
10
3.02504
20
2.38291
11
3.00437
21
2.38291
0
LINE
8
BLACK
6
CONTINUOUS
10
3.00437
20
2.38291
11
3.0006
21
2.38366
0
LINE
8
BLACK
6
CONTINUOUS
10
3.0006
20
2.38366
11
2.99741
21
2.3858
0
LINE
8
BLACK
6
CONTINUOUS
10
2.99741
20
2.3858
11
2.99528
21
2.38899
0
LINE
8
BLACK
6
CONTINUOUS
10
2.99528
20
2.38899
11
2.99453
21
2.39276
0
LINE
8
BLACK
6
CONTINUOUS
10
2.99453
20
2.39276
11
2.99453
21
2.42819
0
LINE
8
BLACK
6
CONTINUOUS
10
2.99453
20
2.42819
11
2.99528
21
2.43196
0
LINE
8
BLACK
6
CONTINUOUS
10
2.99528
20
2.43196
11
2.99741
21
2.43515
0
LINE
8
BLACK
6
CONTINUOUS
10
2.99741
20
2.43515
11
3.0006
21
2.43728
0
LINE
8
BLACK
6
CONTINUOUS
10
3.0006
20
2.43728
11
3.00437
21
2.43803
0
LINE
8
BLACK
6
CONTINUOUS
10
3.00437
20
2.43803
11
3.02504
21
2.43803
0
LINE
8
BLACK
6
CONTINUOUS
10
3.02504
20
2.43803
11
3.02881
21
2.43728
0
LINE
8
BLACK
6
CONTINUOUS
10
3.10066
20
2.43728
11
3.10385
21
2.43515
0
LINE
8
BLACK
6
CONTINUOUS
10
3.10385
20
2.43515
11
3.10598
21
2.43196
0
LINE
8
BLACK
6
CONTINUOUS
10
3.10598
20
2.43196
11
3.10673
21
2.42819
0
LINE
8
BLACK
6
CONTINUOUS
10
3.10673
20
2.42819
11
3.10673
21
2.39276
0
LINE
8
BLACK
6
CONTINUOUS
10
3.10673
20
2.39276
11
3.10598
21
2.38899
0
LINE
8
BLACK
6
CONTINUOUS
10
3.10598
20
2.38899
11
3.10385
21
2.3858
0
LINE
8
BLACK
6
CONTINUOUS
10
3.10385
20
2.3858
11
3.10066
21
2.38366
0
LINE
8
BLACK
6
CONTINUOUS
10
3.10066
20
2.38366
11
3.09689
21
2.38291
0
LINE
8
BLACK
6
CONTINUOUS
10
3.09689
20
2.38291
11
3.07622
21
2.38291
0
LINE
8
BLACK
6
CONTINUOUS
10
3.07622
20
2.38291
11
3.07245
21
2.38366
0
LINE
8
BLACK
6
CONTINUOUS
10
3.07245
20
2.38366
11
3.06926
21
2.3858
0
LINE
8
BLACK
6
CONTINUOUS
10
3.06926
20
2.3858
11
3.06713
21
2.38899
0
LINE
8
BLACK
6
CONTINUOUS
10
3.06713
20
2.38899
11
3.06638
21
2.39276
0
LINE
8
BLACK
6
CONTINUOUS
10
3.06638
20
2.39276
11
3.06638
21
2.42819
0
LINE
8
BLACK
6
CONTINUOUS
10
3.06638
20
2.42819
11
3.06713
21
2.43196
0
LINE
8
BLACK
6
CONTINUOUS
10
3.06713
20
2.43196
11
3.06926
21
2.43515
0
LINE
8
BLACK
6
CONTINUOUS
10
3.06926
20
2.43515
11
3.07245
21
2.43728
0
LINE
8
BLACK
6
CONTINUOUS
10
3.07245
20
2.43728
11
3.07622
21
2.43803
0
LINE
8
BLACK
6
CONTINUOUS
10
3.07622
20
2.43803
11
3.09689
21
2.43803
0
LINE
8
BLACK
6
CONTINUOUS
10
3.09689
20
2.43803
11
3.10066
21
2.43728
0
LINE
8
BLACK
6
CONTINUOUS
10
5.18284
20
2.43805
11
5.18603
21
2.43591
0
LINE
8
BLACK
6
CONTINUOUS
10
5.18603
20
2.43591
11
5.18817
21
2.43272
0
LINE
8
BLACK
6
CONTINUOUS
10
5.18817
20
2.43272
11
5.18892
21
2.42895
0
LINE
8
BLACK
6
CONTINUOUS
10
5.18892
20
2.42895
11
5.18892
21
2.39352
0
LINE
8
BLACK
6
CONTINUOUS
10
5.18892
20
2.39352
11
5.18817
21
2.38975
0
LINE
8
BLACK
6
CONTINUOUS
10
5.18817
20
2.38975
11
5.18603
21
2.38656
0
LINE
8
BLACK
6
CONTINUOUS
10
5.18603
20
2.38656
11
5.18284
21
2.38443
0
LINE
8
BLACK
6
CONTINUOUS
10
5.18284
20
2.38443
11
5.17907
21
2.38368
0
LINE
8
BLACK
6
CONTINUOUS
10
5.17907
20
2.38368
11
5.15841
21
2.38368
0
LINE
8
BLACK
6
CONTINUOUS
10
5.15841
20
2.38368
11
5.15464
21
2.38443
0
LINE
8
BLACK
6
CONTINUOUS
10
5.15464
20
2.38443
11
5.15145
21
2.38656
0
LINE
8
BLACK
6
CONTINUOUS
10
5.15145
20
2.38656
11
5.14931
21
2.38975
0
LINE
8
BLACK
6
CONTINUOUS
10
5.14931
20
2.38975
11
5.14856
21
2.39352
0
LINE
8
BLACK
6
CONTINUOUS
10
5.14856
20
2.39352
11
5.14856
21
2.42895
0
LINE
8
BLACK
6
CONTINUOUS
10
5.14856
20
2.42895
11
5.14931
21
2.43272
0
LINE
8
BLACK
6
CONTINUOUS
10
5.14931
20
2.43272
11
5.15145
21
2.43591
0
LINE
8
BLACK
6
CONTINUOUS
10
5.15145
20
2.43591
11
5.15464
21
2.43805
0
LINE
8
BLACK
6
CONTINUOUS
10
5.15464
20
2.43805
11
5.15841
21
2.43879
0
LINE
8
BLACK
6
CONTINUOUS
10
5.15841
20
2.43879
11
5.17907
21
2.43879
0
LINE
8
BLACK
6
CONTINUOUS
10
5.17907
20
2.43879
11
5.18284
21
2.43805
0
LINE
8
BLACK
6
CONTINUOUS
10
5.25469
20
2.43805
11
5.25788
21
2.43591
0
LINE
8
BLACK
6
CONTINUOUS
10
5.25788
20
2.43591
11
5.26002
21
2.43272
0
LINE
8
BLACK
6
CONTINUOUS
10
5.26002
20
2.43272
11
5.26077
21
2.42895
0
LINE
8
BLACK
6
CONTINUOUS
10
5.26077
20
2.42895
11
5.26077
21
2.39352
0
LINE
8
BLACK
6
CONTINUOUS
10
5.26077
20
2.39352
11
5.26002
21
2.38975
0
LINE
8
BLACK
6
CONTINUOUS
10
5.26002
20
2.38975
11
5.25788
21
2.38656
0
LINE
8
BLACK
6
CONTINUOUS
10
5.25788
20
2.38656
11
5.25469
21
2.38443
0
LINE
8
BLACK
6
CONTINUOUS
10
5.25469
20
2.38443
11
5.25093
21
2.38368
0
LINE
8
BLACK
6
CONTINUOUS
10
5.25093
20
2.38368
11
5.23026
21
2.38368
0
LINE
8
BLACK
6
CONTINUOUS
10
5.23026
20
2.38368
11
5.22649
21
2.38443
0
LINE
8
BLACK
6
CONTINUOUS
10
5.22649
20
2.38443
11
5.2233
21
2.38656
0
LINE
8
BLACK
6
CONTINUOUS
10
5.2233
20
2.38656
11
5.22116
21
2.38975
0
LINE
8
BLACK
6
CONTINUOUS
10
5.22116
20
2.38975
11
5.22041
21
2.39352
0
LINE
8
BLACK
6
CONTINUOUS
10
5.22041
20
2.39352
11
5.22041
21
2.42895
0
LINE
8
BLACK
6
CONTINUOUS
10
5.22041
20
2.42895
11
5.22116
21
2.43272
0
LINE
8
BLACK
6
CONTINUOUS
10
5.22116
20
2.43272
11
5.2233
21
2.43591
0
LINE
8
BLACK
6
CONTINUOUS
10
5.2233
20
2.43591
11
5.22649
21
2.43805
0
LINE
8
BLACK
6
CONTINUOUS
10
5.22649
20
2.43805
11
5.23026
21
2.43879
0
LINE
8
BLACK
6
CONTINUOUS
10
5.23026
20
2.43879
11
5.25093
21
2.43879
0
LINE
8
BLACK
6
CONTINUOUS
10
5.25093
20
2.43879
11
5.25469
21
2.43805
0
LINE
8
BLACK
6
CONTINUOUS
10
5.31325
20
2.44994
11
5.31645
21
2.4478
0
LINE
8
BLACK
6
CONTINUOUS
10
5.31645
20
2.4478
11
5.31858
21
2.44461
0
LINE
8
BLACK
6
CONTINUOUS
10
5.31858
20
2.44461
11
5.31933
21
2.44084
0
LINE
8
BLACK
6
CONTINUOUS
10
5.31933
20
2.44084
11
5.31933
21
2.4251
0
LINE
8
BLACK
6
CONTINUOUS
10
5.31933
20
2.4251
11
5.31858
21
2.42133
0
LINE
8
BLACK
6
CONTINUOUS
10
5.31858
20
2.42133
11
5.31645
21
2.41814
0
LINE
8
BLACK
6
CONTINUOUS
10
5.31645
20
2.41814
11
5.31325
21
2.416
0
LINE
8
BLACK
6
CONTINUOUS
10
5.31325
20
2.416
11
5.30949
21
2.41525
0
LINE
8
BLACK
6
CONTINUOUS
10
5.30949
20
2.41525
11
5.2898
21
2.41525
0
LINE
8
BLACK
6
CONTINUOUS
10
5.2898
20
2.41525
11
5.28604
21
2.416
0
LINE
8
BLACK
6
CONTINUOUS
10
5.28604
20
2.416
11
5.28284
21
2.41814
0
LINE
8
BLACK
6
CONTINUOUS
10
5.28284
20
2.41814
11
5.28071
21
2.42133
0
LINE
8
BLACK
6
CONTINUOUS
10
5.28071
20
2.42133
11
5.27996
21
2.4251
0
LINE
8
BLACK
6
CONTINUOUS
10
5.27996
20
2.4251
11
5.27996
21
2.44084
0
LINE
8
BLACK
6
CONTINUOUS
10
5.27996
20
2.44084
11
5.28071
21
2.44461
0
LINE
8
BLACK
6
CONTINUOUS
10
5.28071
20
2.44461
11
5.28284
21
2.4478
0
LINE
8
BLACK
6
CONTINUOUS
10
5.28284
20
2.4478
11
5.28604
21
2.44994
0
LINE
8
BLACK
6
CONTINUOUS
10
5.28604
20
2.44994
11
5.2898
21
2.45069
0
LINE
8
BLACK
6
CONTINUOUS
10
5.2898
20
2.45069
11
5.30949
21
2.45069
0
LINE
8
BLACK
6
CONTINUOUS
10
5.30949
20
2.45069
11
5.31325
21
2.44994
0
LINE
8
BLACK
6
CONTINUOUS
10
5.31129
20
2.58886
11
5.31448
21
2.58672
0
LINE
8
BLACK
6
CONTINUOUS
10
5.31448
20
2.58672
11
5.31661
21
2.58353
0
LINE
8
BLACK
6
CONTINUOUS
10
5.31661
20
2.58353
11
5.31736
21
2.57976
0
LINE
8
BLACK
6
CONTINUOUS
10
5.31736
20
2.57976
11
5.31736
21
2.56402
0
LINE
8
BLACK
6
CONTINUOUS
10
5.31736
20
2.56402
11
5.31661
21
2.56025
0
LINE
8
BLACK
6
CONTINUOUS
10
5.31661
20
2.56025
11
5.31448
21
2.55706
0
LINE
8
BLACK
6
CONTINUOUS
10
5.31448
20
2.55706
11
5.31129
21
2.55492
0
LINE
8
BLACK
6
CONTINUOUS
10
5.31129
20
2.55492
11
5.30752
21
2.55417
0
LINE
8
BLACK
6
CONTINUOUS
10
5.30752
20
2.55417
11
5.28783
21
2.55417
0
LINE
8
BLACK
6
CONTINUOUS
10
5.28783
20
2.55417
11
5.28407
21
2.55492
0
LINE
8
BLACK
6
CONTINUOUS
10
5.28407
20
2.55492
11
5.28087
21
2.55706
0
LINE
8
BLACK
6
CONTINUOUS
10
5.28087
20
2.55706
11
5.27874
21
2.56025
0
LINE
8
BLACK
6
CONTINUOUS
10
5.27874
20
2.56025
11
5.27799
21
2.56402
0
LINE
8
BLACK
6
CONTINUOUS
10
5.27799
20
2.56402
11
5.27799
21
2.57976
0
LINE
8
BLACK
6
CONTINUOUS
10
5.27799
20
2.57976
11
5.27874
21
2.58353
0
LINE
8
BLACK
6
CONTINUOUS
10
5.27874
20
2.58353
11
5.28087
21
2.58672
0
LINE
8
BLACK
6
CONTINUOUS
10
5.28087
20
2.58672
11
5.28407
21
2.58886
0
LINE
8
BLACK
6
CONTINUOUS
10
5.28407
20
2.58886
11
5.28783
21
2.58961
0
LINE
8
BLACK
6
CONTINUOUS
10
5.28783
20
2.58961
11
5.30752
21
2.58961
0
LINE
8
BLACK
6
CONTINUOUS
10
5.30752
20
2.58961
11
5.31129
21
2.58886
0
LINE
8
BLACK
6
CONTINUOUS
10
5.25322
20
2.60018
11
5.25641
21
2.59804
0
LINE
8
BLACK
6
CONTINUOUS
10
5.25641
20
2.59804
11
5.25854
21
2.59485
0
LINE
8
BLACK
6
CONTINUOUS
10
5.25854
20
2.59485
11
5.25929
21
2.59108
0
LINE
8
BLACK
6
CONTINUOUS
10
5.25929
20
2.59108
11
5.25929
21
2.57041
0
LINE
8
BLACK
6
CONTINUOUS
10
5.25929
20
2.57041
11
5.25854
21
2.56665
0
LINE
8
BLACK
6
CONTINUOUS
10
5.25854
20
2.56665
11
5.25641
21
2.56345
0
LINE
8
BLACK
6
CONTINUOUS
10
5.25641
20
2.56345
11
5.25322
21
2.56132
0
LINE
8
BLACK
6
CONTINUOUS
10
5.25322
20
2.56132
11
5.24945
21
2.56057
0
LINE
8
BLACK
6
CONTINUOUS
10
5.24945
20
2.56057
11
5.21402
21
2.56057
0
LINE
8
BLACK
6
CONTINUOUS
10
5.21402
20
2.56057
11
5.21025
21
2.56132
0
LINE
8
BLACK
6
CONTINUOUS
10
5.21025
20
2.56132
11
5.20706
21
2.56345
0
LINE
8
BLACK
6
CONTINUOUS
10
5.20706
20
2.56345
11
5.20492
21
2.56665
0
LINE
8
BLACK
6
CONTINUOUS
10
5.20492
20
2.56665
11
5.20417
21
2.57041
0
LINE
8
BLACK
6
CONTINUOUS
10
5.20417
20
2.57041
11
5.20417
21
2.59108
0
LINE
8
BLACK
6
CONTINUOUS
10
5.20417
20
2.59108
11
5.20492
21
2.59485
0
LINE
8
BLACK
6
CONTINUOUS
10
5.20492
20
2.59485
11
5.20706
21
2.59804
0
LINE
8
BLACK
6
CONTINUOUS
10
5.20706
20
2.59804
11
5.21025
21
2.60018
0
LINE
8
BLACK
6
CONTINUOUS
10
5.21025
20
2.60018
11
5.21402
21
2.60093
0
LINE
8
BLACK
6
CONTINUOUS
10
5.21402
20
2.60093
11
5.24945
21
2.60093
0
LINE
8
BLACK
6
CONTINUOUS
10
5.24945
20
2.60093
11
5.25322
21
2.60018
0
LINE
8
BLACK
6
CONTINUOUS
10
5.31129
20
2.65185
11
5.31448
21
2.64972
0
LINE
8
BLACK
6
CONTINUOUS
10
5.31448
20
2.64972
11
5.31661
21
2.64652
0
LINE
8
BLACK
6
CONTINUOUS
10
5.31661
20
2.64652
11
5.31736
21
2.64276
0
LINE
8
BLACK
6
CONTINUOUS
10
5.31736
20
2.64276
11
5.31736
21
2.62701
0
LINE
8
BLACK
6
CONTINUOUS
10
5.31736
20
2.62701
11
5.31661
21
2.62324
0
LINE
8
BLACK
6
CONTINUOUS
10
5.31661
20
2.62324
11
5.31448
21
2.62005
0
LINE
8
BLACK
6
CONTINUOUS
10
5.31448
20
2.62005
11
5.31129
21
2.61791
0
LINE
8
BLACK
6
CONTINUOUS
10
5.31129
20
2.61791
11
5.30752
21
2.61717
0
LINE
8
BLACK
6
CONTINUOUS
10
5.30752
20
2.61717
11
5.28783
21
2.61717
0
LINE
8
BLACK
6
CONTINUOUS
10
5.28783
20
2.61717
11
5.28407
21
2.61791
0
LINE
8
BLACK
6
CONTINUOUS
10
5.28407
20
2.61791
11
5.28087
21
2.62005
0
LINE
8
BLACK
6
CONTINUOUS
10
5.28087
20
2.62005
11
5.27874
21
2.62324
0
LINE
8
BLACK
6
CONTINUOUS
10
5.27874
20
2.62324
11
5.27799
21
2.62701
0
LINE
8
BLACK
6
CONTINUOUS
10
5.27799
20
2.62701
11
5.27799
21
2.64276
0
LINE
8
BLACK
6
CONTINUOUS
10
5.27799
20
2.64276
11
5.27874
21
2.64652
0
LINE
8
BLACK
6
CONTINUOUS
10
5.27874
20
2.64652
11
5.28087
21
2.64972
0
LINE
8
BLACK
6
CONTINUOUS
10
5.28087
20
2.64972
11
5.28407
21
2.65185
0
LINE
8
BLACK
6
CONTINUOUS
10
5.28407
20
2.65185
11
5.28783
21
2.6526
0
LINE
8
BLACK
6
CONTINUOUS
10
5.28783
20
2.6526
11
5.30752
21
2.6526
0
LINE
8
BLACK
6
CONTINUOUS
10
5.30752
20
2.6526
11
5.31129
21
2.65185
0
LINE
8
BLACK
6
CONTINUOUS
10
5.25322
20
2.67203
11
5.25641
21
2.66989
0
LINE
8
BLACK
6
CONTINUOUS
10
5.25641
20
2.66989
11
5.25854
21
2.6667
0
LINE
8
BLACK
6
CONTINUOUS
10
5.25854
20
2.6667
11
5.25929
21
2.66293
0
LINE
8
BLACK
6
CONTINUOUS
10
5.25929
20
2.66293
11
5.25929
21
2.64226
0
LINE
8
BLACK
6
CONTINUOUS
10
5.25929
20
2.64226
11
5.25854
21
2.6385
0
LINE
8
BLACK
6
CONTINUOUS
10
5.25854
20
2.6385
11
5.25641
21
2.6353
0
LINE
8
BLACK
6
CONTINUOUS
10
5.25641
20
2.6353
11
5.25322
21
2.63317
0
LINE
8
BLACK
6
CONTINUOUS
10
5.25322
20
2.63317
11
5.24945
21
2.63242
0
LINE
8
BLACK
6
CONTINUOUS
10
5.24945
20
2.63242
11
5.21402
21
2.63242
0
LINE
8
BLACK
6
CONTINUOUS
10
5.21402
20
2.63242
11
5.21025
21
2.63317
0
LINE
8
BLACK
6
CONTINUOUS
10
5.21025
20
2.63317
11
5.20706
21
2.6353
0
LINE
8
BLACK
6
CONTINUOUS
10
5.20706
20
2.6353
11
5.20492
21
2.6385
0
LINE
8
BLACK
6
CONTINUOUS
10
5.20492
20
2.6385
11
5.20417
21
2.64226
0
LINE
8
BLACK
6
CONTINUOUS
10
5.20417
20
2.64226
11
5.20417
21
2.66293
0
LINE
8
BLACK
6
CONTINUOUS
10
5.20417
20
2.66293
11
5.20492
21
2.6667
0
LINE
8
BLACK
6
CONTINUOUS
10
5.20492
20
2.6667
11
5.20706
21
2.66989
0
LINE
8
BLACK
6
CONTINUOUS
10
5.20706
20
2.66989
11
5.21025
21
2.67203
0
LINE
8
BLACK
6
CONTINUOUS
10
5.21025
20
2.67203
11
5.21402
21
2.67278
0
LINE
8
BLACK
6
CONTINUOUS
10
5.21402
20
2.67278
11
5.24945
21
2.67278
0
LINE
8
BLACK
6
CONTINUOUS
10
5.24945
20
2.67278
11
5.25322
21
2.67203
0
LINE
8
BLACK
6
CONTINUOUS
10
5.25322
20
2.73551
11
5.25641
21
2.73338
0
LINE
8
BLACK
6
CONTINUOUS
10
5.25641
20
2.73338
11
5.25854
21
2.73018
0
LINE
8
BLACK
6
CONTINUOUS
10
5.25854
20
2.73018
11
5.25929
21
2.72642
0
LINE
8
BLACK
6
CONTINUOUS
10
5.25929
20
2.72642
11
5.25929
21
2.70575
0
LINE
8
BLACK
6
CONTINUOUS
10
5.25929
20
2.70575
11
5.25854
21
2.70198
0
LINE
8
BLACK
6
CONTINUOUS
10
5.25854
20
2.70198
11
5.25641
21
2.69879
0
LINE
8
BLACK
6
CONTINUOUS
10
5.25641
20
2.69879
11
5.25322
21
2.69665
0
LINE
8
BLACK
6
CONTINUOUS
10
5.25322
20
2.69665
11
5.24945
21
2.69591
0
LINE
8
BLACK
6
CONTINUOUS
10
5.24945
20
2.69591
11
5.21402
21
2.69591
0
LINE
8
BLACK
6
CONTINUOUS
10
5.21402
20
2.69591
11
5.21025
21
2.69665
0
LINE
8
BLACK
6
CONTINUOUS
10
5.21025
20
2.69665
11
5.20706
21
2.69879
0
LINE
8
BLACK
6
CONTINUOUS
10
5.20706
20
2.69879
11
5.20492
21
2.70198
0
LINE
8
BLACK
6
CONTINUOUS
10
5.20492
20
2.70198
11
5.20417
21
2.70575
0
LINE
8
BLACK
6
CONTINUOUS
10
5.20417
20
2.70575
11
5.20417
21
2.72642
0
LINE
8
BLACK
6
CONTINUOUS
10
5.20417
20
2.72642
11
5.20492
21
2.73018
0
LINE
8
BLACK
6
CONTINUOUS
10
5.20492
20
2.73018
11
5.20706
21
2.73338
0
LINE
8
BLACK
6
CONTINUOUS
10
5.20706
20
2.73338
11
5.21025
21
2.73551
0
LINE
8
BLACK
6
CONTINUOUS
10
5.21025
20
2.73551
11
5.21402
21
2.73626
0
LINE
8
BLACK
6
CONTINUOUS
10
5.21402
20
2.73626
11
5.24945
21
2.73626
0
LINE
8
BLACK
6
CONTINUOUS
10
5.24945
20
2.73626
11
5.25322
21
2.73551
0
LINE
8
BLACK
6
CONTINUOUS
10
5.31522
20
2.7424
11
5.31842
21
2.74027
0
LINE
8
BLACK
6
CONTINUOUS
10
5.31842
20
2.74027
11
5.32055
21
2.73707
0
LINE
8
BLACK
6
CONTINUOUS
10
5.32055
20
2.73707
11
5.3213
21
2.73331
0
LINE
8
BLACK
6
CONTINUOUS
10
5.3213
20
2.73331
11
5.3213
21
2.71756
0
LINE
8
BLACK
6
CONTINUOUS
10
5.3213
20
2.71756
11
5.32055
21
2.71379
0
LINE
8
BLACK
6
CONTINUOUS
10
5.32055
20
2.71379
11
5.31842
21
2.7106
0
LINE
8
BLACK
6
CONTINUOUS
10
5.31842
20
2.7106
11
5.31522
21
2.70847
0
LINE
8
BLACK
6
CONTINUOUS
10
5.31522
20
2.70847
11
5.31146
21
2.70772
0
LINE
8
BLACK
6
CONTINUOUS
10
5.31146
20
2.70772
11
5.29177
21
2.70772
0
LINE
8
BLACK
6
CONTINUOUS
10
5.29177
20
2.70772
11
5.28801
21
2.70847
0
LINE
8
BLACK
6
CONTINUOUS
10
5.28801
20
2.70847
11
5.28481
21
2.7106
0
LINE
8
BLACK
6
CONTINUOUS
10
5.28481
20
2.7106
11
5.28268
21
2.71379
0
LINE
8
BLACK
6
CONTINUOUS
10
5.28268
20
2.71379
11
5.28193
21
2.71756
0
LINE
8
BLACK
6
CONTINUOUS
10
5.28193
20
2.71756
11
5.28193
21
2.73331
0
LINE
8
BLACK
6
CONTINUOUS
10
5.28193
20
2.73331
11
5.28268
21
2.73707
0
LINE
8
BLACK
6
CONTINUOUS
10
5.28268
20
2.73707
11
5.28481
21
2.74027
0
LINE
8
BLACK
6
CONTINUOUS
10
5.28481
20
2.74027
11
5.28801
21
2.7424
0
LINE
8
BLACK
6
CONTINUOUS
10
5.28801
20
2.7424
11
5.29177
21
2.74315
0
LINE
8
BLACK
6
CONTINUOUS
10
5.29177
20
2.74315
11
5.31146
21
2.74315
0
LINE
8
BLACK
6
CONTINUOUS
10
5.31146
20
2.74315
11
5.31522
21
2.7424
0
LINE
8
BLACK
6
CONTINUOUS
10
5.25322
20
2.80736
11
5.25641
21
2.80523
0
LINE
8
BLACK
6
CONTINUOUS
10
5.25641
20
2.80523
11
5.25854
21
2.80203
0
LINE
8
BLACK
6
CONTINUOUS
10
5.25854
20
2.80203
11
5.25929
21
2.79827
0
LINE
8
BLACK
6
CONTINUOUS
10
5.25929
20
2.79827
11
5.25929
21
2.7776
0
LINE
8
BLACK
6
CONTINUOUS
10
5.25929
20
2.7776
11
5.25854
21
2.77383
0
LINE
8
BLACK
6
CONTINUOUS
10
5.25854
20
2.77383
11
5.25641
21
2.77064
0
LINE
8
BLACK
6
CONTINUOUS
10
5.25641
20
2.77064
11
5.25322
21
2.76851
0
LINE
8
BLACK
6
CONTINUOUS
10
5.25322
20
2.76851
11
5.24945
21
2.76776
0
LINE
8
BLACK
6
CONTINUOUS
10
5.24945
20
2.76776
11
5.21402
21
2.76776
0
LINE
8
BLACK
6
CONTINUOUS
10
5.21402
20
2.76776
11
5.21025
21
2.76851
0
LINE
8
BLACK
6
CONTINUOUS
10
5.21025
20
2.76851
11
5.20706
21
2.77064
0
LINE
8
BLACK
6
CONTINUOUS
10
5.20706
20
2.77064
11
5.20492
21
2.77383
0
LINE
8
BLACK
6
CONTINUOUS
10
5.20492
20
2.77383
11
5.20417
21
2.7776
0
LINE
8
BLACK
6
CONTINUOUS
10
5.20417
20
2.7776
11
5.20417
21
2.79827
0
LINE
8
BLACK
6
CONTINUOUS
10
5.20417
20
2.79827
11
5.20492
21
2.80203
0
LINE
8
BLACK
6
CONTINUOUS
10
5.20492
20
2.80203
11
5.20706
21
2.80523
0
LINE
8
BLACK
6
CONTINUOUS
10
5.20706
20
2.80523
11
5.21025
21
2.80736
0
LINE
8
BLACK
6
CONTINUOUS
10
5.21025
20
2.80736
11
5.21402
21
2.80811
0
LINE
8
BLACK
6
CONTINUOUS
10
5.21402
20
2.80811
11
5.24945
21
2.80811
0
LINE
8
BLACK
6
CONTINUOUS
10
5.24945
20
2.80811
11
5.25322
21
2.80736
0
LINE
8
BLACK
6
CONTINUOUS
10
5.31522
20
2.80539
11
5.31842
21
2.80326
0
LINE
8
BLACK
6
CONTINUOUS
10
5.31842
20
2.80326
11
5.32055
21
2.80007
0
LINE
8
BLACK
6
CONTINUOUS
10
5.32055
20
2.80007
11
5.3213
21
2.7963
0
LINE
8
BLACK
6
CONTINUOUS
10
5.3213
20
2.7963
11
5.3213
21
2.78055
0
LINE
8
BLACK
6
CONTINUOUS
10
5.3213
20
2.78055
11
5.32055
21
2.77678
0
LINE
8
BLACK
6
CONTINUOUS
10
5.32055
20
2.77678
11
5.31842
21
2.77359
0
LINE
8
BLACK
6
CONTINUOUS
10
5.31842
20
2.77359
11
5.31522
21
2.77146
0
LINE
8
BLACK
6
CONTINUOUS
10
5.31522
20
2.77146
11
5.31146
21
2.77071
0
LINE
8
BLACK
6
CONTINUOUS
10
5.31146
20
2.77071
11
5.29177
21
2.77071
0
LINE
8
BLACK
6
CONTINUOUS
10
5.29177
20
2.77071
11
5.28801
21
2.77146
0
LINE
8
BLACK
6
CONTINUOUS
10
5.28801
20
2.77146
11
5.28481
21
2.77359
0
LINE
8
BLACK
6
CONTINUOUS
10
5.28481
20
2.77359
11
5.28268
21
2.77678
0
LINE
8
BLACK
6
CONTINUOUS
10
5.28268
20
2.77678
11
5.28193
21
2.78055
0
LINE
8
BLACK
6
CONTINUOUS
10
5.28193
20
2.78055
11
5.28193
21
2.7963
0
LINE
8
BLACK
6
CONTINUOUS
10
5.28193
20
2.7963
11
5.28268
21
2.80007
0
LINE
8
BLACK
6
CONTINUOUS
10
5.28268
20
2.80007
11
5.28481
21
2.80326
0
LINE
8
BLACK
6
CONTINUOUS
10
5.28481
20
2.80326
11
5.28801
21
2.80539
0
LINE
8
BLACK
6
CONTINUOUS
10
5.28801
20
2.80539
11
5.29177
21
2.80614
0
LINE
8
BLACK
6
CONTINUOUS
10
5.29177
20
2.80614
11
5.31146
21
2.80614
0
LINE
8
BLACK
6
CONTINUOUS
10
5.31146
20
2.80614
11
5.31522
21
2.80539
  0
ENDSEC
  0
EOF
