  0
SECTION
  2
HEADER
  9
$ANGBASE
  50
0.0
  9
$ANGDIR
  70
1
  9
$MEASUREMENT
  70
0
  0
ENDSEC
  0
SECTION
  2
TABLES
  0
TABLE
  2
LTYPE
  70
4
  0
LTYPE
  5
40F
  2
CONTINUOUS
  70
0
  3
Solid line
  72
65
  73
0
  40
0.0
  0
LTYPE
  5
410
  2
DASHDOT
 70
0
  3
Dash Dot ____ _ ____ _
 72
65
 73
4
 40
2.0
 49
1.25
 49
-0.25
 49
0.25
 49
-0.25
  0
LTYPE
  5
411
  2
DASHED
 70
0
  3
Dashed __ __ __ __ __
 72
65
 73
2
 40
0.75
 49
0.5
 49
-0.25
  0
LTYPE
  5
43B
  2
DOTTED
 70
0
  3
Dotted .  .  .  .
 72
65
 73
2
 40
0.2
 49
0.0
 49
-0.2
  0
ENDTAB
  0
TABLE
  2
STYLE
  70
4
  0
STYLE
  2
KICAD
  70
0
  40
0
  41
1
  42
1
  50
0
  71
0
  3
isocp.shx
  0
STYLE
  2
KICADB
  70
0
  40
0
  41
1
  42
1
  50
0
  71
0
  3
isocp.shx
  0
STYLE
  2
KICADI
  70
0
  40
0
  41
1
  42
1
  50
15
  71
0
  3
isocp.shx
  0
STYLE
  2
KICADBI
  70
0
  40
0
  41
1
  42
1
  50
15
  71
0
  3
isocp.shx
  0
ENDTAB
  0
TABLE
  2
LAYER
  70
1
  0
LAYER
  2
BLACK
  70
0
  62
7
  6
CONTINUOUS
  0
ENDTAB
  0
ENDSEC
  0
SECTION
  2
ENTITIES
0
LINE
8
BLACK
6
CONTINUOUS
10
5.36091
20
3.38374
11
5.36153
21
3.38374
0
LINE
8
BLACK
6
CONTINUOUS
10
5.36153
20
3.38374
11
5.36204
21
3.38338
0
LINE
8
BLACK
6
CONTINUOUS
10
5.36204
20
3.38338
11
5.36263
21
3.38319
0
LINE
8
BLACK
6
CONTINUOUS
10
5.36263
20
3.38319
11
5.363
21
3.38268
0
LINE
8
BLACK
6
CONTINUOUS
10
5.363
20
3.38268
11
5.3635
21
3.38231
0
LINE
8
BLACK
6
CONTINUOUS
10
5.3635
20
3.38231
11
5.36369
21
3.38172
0
LINE
8
BLACK
6
CONTINUOUS
10
5.36369
20
3.38172
11
5.36406
21
3.38122
0
LINE
8
BLACK
6
CONTINUOUS
10
5.36406
20
3.38122
11
5.36406
21
3.38059
0
LINE
8
BLACK
6
CONTINUOUS
10
5.36406
20
3.38059
11
5.36425
21
3.38
0
LINE
8
BLACK
6
CONTINUOUS
10
5.36425
20
3.38
11
5.36425
21
0
0
LINE
8
BLACK
6
CONTINUOUS
10
5.36425
20
0
11
5.36406
21
-0.000592992
0
LINE
8
BLACK
6
CONTINUOUS
10
5.36406
20
-0.000592992
11
5.36406
21
-0.00121661
0
LINE
8
BLACK
6
CONTINUOUS
10
5.36406
20
-0.00121661
11
5.36369
21
-0.00172106
0
LINE
8
BLACK
6
CONTINUOUS
10
5.36369
20
-0.00172106
11
5.3635
21
-0.00231413
0
LINE
8
BLACK
6
CONTINUOUS
10
5.3635
20
-0.00231413
11
5.363
21
-0.00268063
0
LINE
8
BLACK
6
CONTINUOUS
10
5.363
20
-0.00268063
11
5.36263
21
-0.00318512
0
LINE
8
BLACK
6
CONTINUOUS
10
5.36263
20
-0.00318512
11
5.36204
21
-0.0033778
0
LINE
8
BLACK
6
CONTINUOUS
10
5.36204
20
-0.0033778
11
5.36153
21
-0.00374433
0
LINE
8
BLACK
6
CONTINUOUS
10
5.36153
20
-0.00374433
11
5.36091
21
-0.00374433
0
LINE
8
BLACK
6
CONTINUOUS
10
5.36091
20
-0.00374433
11
5.36031
21
-0.00393701
0
LINE
8
BLACK
6
CONTINUOUS
10
5.36031
20
-0.00393701
11
0
21
-0.00393701
0
LINE
8
BLACK
6
CONTINUOUS
10
0
20
-0.00393701
11
-0.000593031
21
-0.00374433
0
LINE
8
BLACK
6
CONTINUOUS
10
-0.000593031
20
-0.00374433
11
-0.00121661
21
-0.00374433
0
LINE
8
BLACK
6
CONTINUOUS
10
-0.00121661
20
-0.00374433
11
-0.0017211
21
-0.0033778
0
LINE
8
BLACK
6
CONTINUOUS
10
-0.0017211
20
-0.0033778
11
-0.00231413
21
-0.00318512
0
LINE
8
BLACK
6
CONTINUOUS
10
-0.00231413
20
-0.00318512
11
-0.00268067
21
-0.00268063
0
LINE
8
BLACK
6
CONTINUOUS
10
-0.00268067
20
-0.00268063
11
-0.00318512
21
-0.00231413
0
LINE
8
BLACK
6
CONTINUOUS
10
-0.00318512
20
-0.00231413
11
-0.00337783
21
-0.00172106
0
LINE
8
BLACK
6
CONTINUOUS
10
-0.00337783
20
-0.00172106
11
-0.00374433
21
-0.00121661
0
LINE
8
BLACK
6
CONTINUOUS
10
-0.00374433
20
-0.00121661
11
-0.00374433
21
-0.000592992
0
LINE
8
BLACK
6
CONTINUOUS
10
-0.00374433
20
-0.000592992
11
-0.00393701
21
0
0
LINE
8
BLACK
6
CONTINUOUS
10
-0.00393701
20
0
11
-0.00393701
21
3.38
0
LINE
8
BLACK
6
CONTINUOUS
10
-0.00393701
20
3.38
11
-0.00374433
21
3.38059
0
LINE
8
BLACK
6
CONTINUOUS
10
-0.00374433
20
3.38059
11
-0.00374433
21
3.38122
0
LINE
8
BLACK
6
CONTINUOUS
10
-0.00374433
20
3.38122
11
-0.00337783
21
3.38172
0
LINE
8
BLACK
6
CONTINUOUS
10
-0.00337783
20
3.38172
11
-0.00318512
21
3.38231
0
LINE
8
BLACK
6
CONTINUOUS
10
-0.00318512
20
3.38231
11
-0.00268067
21
3.38268
0
LINE
8
BLACK
6
CONTINUOUS
10
-0.00268067
20
3.38268
11
-0.00231413
21
3.38319
0
LINE
8
BLACK
6
CONTINUOUS
10
-0.00231413
20
3.38319
11
-0.0017211
21
3.38338
0
LINE
8
BLACK
6
CONTINUOUS
10
-0.0017211
20
3.38338
11
-0.00121661
21
3.38374
0
LINE
8
BLACK
6
CONTINUOUS
10
-0.00121661
20
3.38374
11
-0.000593031
21
3.38374
0
LINE
8
BLACK
6
CONTINUOUS
10
-0.000593031
20
3.38374
11
0
21
3.38394
0
LINE
8
BLACK
6
CONTINUOUS
10
0
20
3.38394
11
5.36031
21
3.38394
0
LINE
8
BLACK
6
CONTINUOUS
10
5.36031
20
3.38394
11
5.36091
21
3.38374
0
LINE
8
BLACK
6
CONTINUOUS
10
0.00393701
20
3.37606
11
0.00393701
21
0.00393701
0
LINE
8
BLACK
6
CONTINUOUS
10
0.00393701
20
0.00393701
11
5.35638
21
0.00393701
0
LINE
8
BLACK
6
CONTINUOUS
10
5.35638
20
0.00393701
11
5.35638
21
3.37606
0
LINE
8
BLACK
6
CONTINUOUS
10
5.35638
20
3.37606
11
0.00393701
21
3.37606
  0
ENDSEC
  0
EOF
