  0
SECTION
  2
HEADER
  9
$ANGBASE
  50
0.0
  9
$ANGDIR
  70
1
  9
$MEASUREMENT
  70
0
  0
ENDSEC
  0
SECTION
  2
TABLES
  0
TABLE
  2
LTYPE
  70
4
  0
LTYPE
  5
40F
  2
CONTINUOUS
  70
0
  3
Solid line
  72
65
  73
0
  40
0.0
  0
LTYPE
  5
410
  2
DASHDOT
 70
0
  3
Dash Dot ____ _ ____ _
 72
65
 73
4
 40
2.0
 49
1.25
 49
-0.25
 49
0.25
 49
-0.25
  0
LTYPE
  5
411
  2
DASHED
 70
0
  3
Dashed __ __ __ __ __
 72
65
 73
2
 40
0.75
 49
0.5
 49
-0.25
  0
LTYPE
  5
43B
  2
DOTTED
 70
0
  3
Dotted .  .  .  .
 72
65
 73
2
 40
0.2
 49
0.0
 49
-0.2
  0
ENDTAB
  0
TABLE
  2
STYLE
  70
4
  0
STYLE
  2
KICAD
  70
0
  40
0
  41
1
  42
1
  50
0
  71
0
  3
isocp.shx
  0
STYLE
  2
KICADB
  70
0
  40
0
  41
1
  42
1
  50
0
  71
0
  3
isocp.shx
  0
STYLE
  2
KICADI
  70
0
  40
0
  41
1
  42
1
  50
15
  71
0
  3
isocp.shx
  0
STYLE
  2
KICADBI
  70
0
  40
0
  41
1
  42
1
  50
15
  71
0
  3
isocp.shx
  0
ENDTAB
  0
TABLE
  2
LAYER
  70
1
  0
LAYER
  2
BLACK
  70
0
  62
7
  6
CONTINUOUS
  0
ENDTAB
  0
ENDSEC
  0
SECTION
  2
ENTITIES
0
LINE
8
BLACK
6
CONTINUOUS
10
2.26638
20
2.44984
11
2.26777
21
2.44927
0
LINE
8
BLACK
6
CONTINUOUS
10
2.26777
20
2.44927
11
2.26835
21
2.44787
0
LINE
8
BLACK
6
CONTINUOUS
10
2.26835
20
2.44787
11
2.26835
21
2.37307
0
LINE
8
BLACK
6
CONTINUOUS
10
2.26835
20
2.37307
11
2.26777
21
2.37168
0
LINE
8
BLACK
6
CONTINUOUS
10
2.26777
20
2.37168
11
2.26638
21
2.3711
0
LINE
8
BLACK
6
CONTINUOUS
10
2.26638
20
2.3711
11
2.13409
21
2.3711
0
LINE
8
BLACK
6
CONTINUOUS
10
2.13409
20
2.3711
11
2.1327
21
2.37168
0
LINE
8
BLACK
6
CONTINUOUS
10
2.1327
20
2.37168
11
2.13213
21
2.37307
0
LINE
8
BLACK
6
CONTINUOUS
10
2.13213
20
2.37307
11
2.13213
21
2.44787
0
LINE
8
BLACK
6
CONTINUOUS
10
2.13213
20
2.44787
11
2.1327
21
2.44927
0
LINE
8
BLACK
6
CONTINUOUS
10
2.1327
20
2.44927
11
2.13409
21
2.44984
0
LINE
8
BLACK
6
CONTINUOUS
10
2.13409
20
2.44984
11
2.26638
21
2.44984
0
LINE
8
BLACK
6
CONTINUOUS
10
2.13606
20
2.44591
11
2.13606
21
2.37504
0
LINE
8
BLACK
6
CONTINUOUS
10
2.13606
20
2.37504
11
2.26441
21
2.37504
0
LINE
8
BLACK
6
CONTINUOUS
10
2.26441
20
2.37504
11
2.26441
21
2.44591
0
LINE
8
BLACK
6
CONTINUOUS
10
2.26441
20
2.44591
11
2.13606
21
2.44591
0
LINE
8
BLACK
6
CONTINUOUS
10
2.61776
20
3.23134
11
2.61915
21
3.23076
0
LINE
8
BLACK
6
CONTINUOUS
10
2.61915
20
3.23076
11
2.61972
21
3.22937
0
LINE
8
BLACK
6
CONTINUOUS
10
2.61972
20
3.22937
11
2.61972
21
0.15063
0
LINE
8
BLACK
6
CONTINUOUS
10
2.61972
20
0.15063
11
2.61915
21
0.149238
0
LINE
8
BLACK
6
CONTINUOUS
10
2.61915
20
0.149238
11
2.61776
21
0.148661
0
LINE
8
BLACK
6
CONTINUOUS
10
2.61776
20
0.148661
11
1.015
21
0.148661
0
LINE
8
BLACK
6
CONTINUOUS
10
1.015
20
0.148661
11
1.01361
21
0.149238
0
LINE
8
BLACK
6
CONTINUOUS
10
1.01361
20
0.149238
11
1.01303
21
0.15063
0
LINE
8
BLACK
6
CONTINUOUS
10
1.01303
20
0.15063
11
1.01303
21
3.22937
0
LINE
8
BLACK
6
CONTINUOUS
10
1.01303
20
3.22937
11
1.01361
21
3.23076
0
LINE
8
BLACK
6
CONTINUOUS
10
1.01361
20
3.23076
11
1.015
21
3.23134
0
LINE
8
BLACK
6
CONTINUOUS
10
1.015
20
3.23134
11
2.61776
21
3.23134
0
LINE
8
BLACK
6
CONTINUOUS
10
1.01697
20
3.2274
11
1.01697
21
0.152598
0
LINE
8
BLACK
6
CONTINUOUS
10
1.01697
20
0.152598
11
2.61579
21
0.152598
0
LINE
8
BLACK
6
CONTINUOUS
10
2.61579
20
0.152598
11
2.61579
21
3.2274
0
LINE
8
BLACK
6
CONTINUOUS
10
2.61579
20
3.2274
11
1.01697
21
3.2274
0
LINE
8
BLACK
6
CONTINUOUS
10
3.11677
20
2.44984
11
3.11816
21
2.44927
0
LINE
8
BLACK
6
CONTINUOUS
10
3.11816
20
2.44927
11
3.11874
21
2.44787
0
LINE
8
BLACK
6
CONTINUOUS
10
3.11874
20
2.44787
11
3.11874
21
2.37307
0
LINE
8
BLACK
6
CONTINUOUS
10
3.11874
20
2.37307
11
3.11816
21
2.37168
0
LINE
8
BLACK
6
CONTINUOUS
10
3.11816
20
2.37168
11
3.11677
21
2.3711
0
LINE
8
BLACK
6
CONTINUOUS
10
3.11677
20
2.3711
11
2.98449
21
2.3711
0
LINE
8
BLACK
6
CONTINUOUS
10
2.98449
20
2.3711
11
2.9831
21
2.37168
0
LINE
8
BLACK
6
CONTINUOUS
10
2.9831
20
2.37168
11
2.98252
21
2.37307
0
LINE
8
BLACK
6
CONTINUOUS
10
2.98252
20
2.37307
11
2.98252
21
2.44787
0
LINE
8
BLACK
6
CONTINUOUS
10
2.98252
20
2.44787
11
2.9831
21
2.44927
0
LINE
8
BLACK
6
CONTINUOUS
10
2.9831
20
2.44927
11
2.98449
21
2.44984
0
LINE
8
BLACK
6
CONTINUOUS
10
2.98449
20
2.44984
11
3.11677
21
2.44984
0
LINE
8
BLACK
6
CONTINUOUS
10
2.98646
20
2.44591
11
2.98646
21
2.37504
0
LINE
8
BLACK
6
CONTINUOUS
10
2.98646
20
2.37504
11
3.1148
21
2.37504
0
LINE
8
BLACK
6
CONTINUOUS
10
3.1148
20
2.37504
11
3.1148
21
2.44591
0
LINE
8
BLACK
6
CONTINUOUS
10
3.1148
20
2.44591
11
2.98646
21
2.44591
0
LINE
8
BLACK
6
CONTINUOUS
10
4.99531
20
3.23134
11
4.99671
21
3.23076
0
LINE
8
BLACK
6
CONTINUOUS
10
4.99671
20
3.23076
11
4.99728
21
3.22937
0
LINE
8
BLACK
6
CONTINUOUS
10
4.99728
20
3.22937
11
4.99728
21
0.15063
0
LINE
8
BLACK
6
CONTINUOUS
10
4.99728
20
0.15063
11
4.99671
21
0.149238
0
LINE
8
BLACK
6
CONTINUOUS
10
4.99671
20
0.149238
11
4.99531
21
0.148661
0
LINE
8
BLACK
6
CONTINUOUS
10
4.99531
20
0.148661
11
2.62563
21
0.148661
0
LINE
8
BLACK
6
CONTINUOUS
10
2.62563
20
0.148661
11
2.62424
21
0.149238
0
LINE
8
BLACK
6
CONTINUOUS
10
2.62424
20
0.149238
11
2.62366
21
0.15063
0
LINE
8
BLACK
6
CONTINUOUS
10
2.62366
20
0.15063
11
2.62366
21
3.22937
0
LINE
8
BLACK
6
CONTINUOUS
10
2.62366
20
3.22937
11
2.62424
21
3.23076
0
LINE
8
BLACK
6
CONTINUOUS
10
2.62424
20
3.23076
11
2.62563
21
3.23134
0
LINE
8
BLACK
6
CONTINUOUS
10
2.62563
20
3.23134
11
4.99531
21
3.23134
0
LINE
8
BLACK
6
CONTINUOUS
10
2.6276
20
3.2274
11
2.6276
21
0.152598
0
LINE
8
BLACK
6
CONTINUOUS
10
2.6276
20
0.152598
11
4.99335
21
0.152598
0
LINE
8
BLACK
6
CONTINUOUS
10
4.99335
20
0.152598
11
4.99335
21
3.2274
0
LINE
8
BLACK
6
CONTINUOUS
10
4.99335
20
3.2274
11
2.6276
21
3.2274
0
LINE
8
BLACK
6
CONTINUOUS
10
5.27031
20
1.97423
11
5.27171
21
1.97365
0
LINE
8
BLACK
6
CONTINUOUS
10
5.27171
20
1.97365
11
5.27228
21
1.97226
0
LINE
8
BLACK
6
CONTINUOUS
10
5.27228
20
1.97226
11
5.27228
21
1.89746
0
LINE
8
BLACK
6
CONTINUOUS
10
5.27228
20
1.89746
11
5.27214
21
1.89711
0
LINE
8
BLACK
6
CONTINUOUS
10
5.27214
20
1.89711
11
5.27269
21
1.89688
0
LINE
8
BLACK
6
CONTINUOUS
10
5.27269
20
1.89688
11
5.27327
21
1.89549
0
LINE
8
BLACK
6
CONTINUOUS
10
5.27327
20
1.89549
11
5.27327
21
1.82068
0
LINE
8
BLACK
6
CONTINUOUS
10
5.27327
20
1.82068
11
5.27312
21
1.82034
0
LINE
8
BLACK
6
CONTINUOUS
10
5.27312
20
1.82034
11
5.27368
21
1.82011
0
LINE
8
BLACK
6
CONTINUOUS
10
5.27368
20
1.82011
11
5.27425
21
1.81872
0
LINE
8
BLACK
6
CONTINUOUS
10
5.27425
20
1.81872
11
5.27425
21
1.74391
0
LINE
8
BLACK
6
CONTINUOUS
10
5.27425
20
1.74391
11
5.27411
21
1.74356
0
LINE
8
BLACK
6
CONTINUOUS
10
5.27411
20
1.74356
11
5.27466
21
1.74334
0
LINE
8
BLACK
6
CONTINUOUS
10
5.27466
20
1.74334
11
5.27524
21
1.74194
0
LINE
8
BLACK
6
CONTINUOUS
10
5.27524
20
1.74194
11
5.27524
21
1.66714
0
LINE
8
BLACK
6
CONTINUOUS
10
5.27524
20
1.66714
11
5.27466
21
1.66575
0
LINE
8
BLACK
6
CONTINUOUS
10
5.27466
20
1.66575
11
5.27327
21
1.66517
0
LINE
8
BLACK
6
CONTINUOUS
10
5.27327
20
1.66517
11
5.14098
21
1.66517
0
LINE
8
BLACK
6
CONTINUOUS
10
5.14098
20
1.66517
11
5.13959
21
1.66575
0
LINE
8
BLACK
6
CONTINUOUS
10
5.13959
20
1.66575
11
5.13902
21
1.66714
0
LINE
8
BLACK
6
CONTINUOUS
10
5.13902
20
1.66714
11
5.13902
21
1.74194
0
LINE
8
BLACK
6
CONTINUOUS
10
5.13902
20
1.74194
11
5.13916
21
1.74229
0
LINE
8
BLACK
6
CONTINUOUS
10
5.13916
20
1.74229
11
5.13861
21
1.74252
0
LINE
8
BLACK
6
CONTINUOUS
10
5.13861
20
1.74252
11
5.13803
21
1.74391
0
LINE
8
BLACK
6
CONTINUOUS
10
5.13803
20
1.74391
11
5.13803
21
1.81872
0
LINE
8
BLACK
6
CONTINUOUS
10
5.13803
20
1.81872
11
5.13818
21
1.81906
0
LINE
8
BLACK
6
CONTINUOUS
10
5.13818
20
1.81906
11
5.13762
21
1.81929
0
LINE
8
BLACK
6
CONTINUOUS
10
5.13762
20
1.81929
11
5.13705
21
1.82068
0
LINE
8
BLACK
6
CONTINUOUS
10
5.13705
20
1.82068
11
5.13705
21
1.89549
0
LINE
8
BLACK
6
CONTINUOUS
10
5.13705
20
1.89549
11
5.13719
21
1.89584
0
LINE
8
BLACK
6
CONTINUOUS
10
5.13719
20
1.89584
11
5.13664
21
1.89606
0
LINE
8
BLACK
6
CONTINUOUS
10
5.13664
20
1.89606
11
5.13606
21
1.89746
0
LINE
8
BLACK
6
CONTINUOUS
10
5.13606
20
1.89746
11
5.13606
21
1.97226
0
LINE
8
BLACK
6
CONTINUOUS
10
5.13606
20
1.97226
11
5.13664
21
1.97365
0
LINE
8
BLACK
6
CONTINUOUS
10
5.13664
20
1.97365
11
5.13803
21
1.97423
0
LINE
8
BLACK
6
CONTINUOUS
10
5.13803
20
1.97423
11
5.27031
21
1.97423
0
LINE
8
BLACK
6
CONTINUOUS
10
5.14295
20
1.73998
11
5.14295
21
1.66911
0
LINE
8
BLACK
6
CONTINUOUS
10
5.14295
20
1.66911
11
5.2713
21
1.66911
0
LINE
8
BLACK
6
CONTINUOUS
10
5.2713
20
1.66911
11
5.2713
21
1.73998
0
LINE
8
BLACK
6
CONTINUOUS
10
5.2713
20
1.73998
11
5.14295
21
1.73998
0
LINE
8
BLACK
6
CONTINUOUS
10
5.14197
20
1.81675
11
5.14197
21
1.74588
0
LINE
8
BLACK
6
CONTINUOUS
10
5.14197
20
1.74588
11
5.27031
21
1.74588
0
LINE
8
BLACK
6
CONTINUOUS
10
5.27031
20
1.74588
11
5.27031
21
1.81675
0
LINE
8
BLACK
6
CONTINUOUS
10
5.27031
20
1.81675
11
5.14197
21
1.81675
0
LINE
8
BLACK
6
CONTINUOUS
10
5.14098
20
1.89352
11
5.14098
21
1.82265
0
LINE
8
BLACK
6
CONTINUOUS
10
5.14098
20
1.82265
11
5.26933
21
1.82265
0
LINE
8
BLACK
6
CONTINUOUS
10
5.26933
20
1.82265
11
5.26933
21
1.89352
0
LINE
8
BLACK
6
CONTINUOUS
10
5.26933
20
1.89352
11
5.14098
21
1.89352
0
LINE
8
BLACK
6
CONTINUOUS
10
5.14
20
1.97029
11
5.14
21
1.89942
0
LINE
8
BLACK
6
CONTINUOUS
10
5.14
20
1.89942
11
5.26835
21
1.89942
0
LINE
8
BLACK
6
CONTINUOUS
10
5.26835
20
1.89942
11
5.26835
21
1.97029
0
LINE
8
BLACK
6
CONTINUOUS
10
5.26835
20
1.97029
11
5.14
21
1.97029
0
LINE
8
BLACK
6
CONTINUOUS
10
5.27081
20
2.45061
11
5.2722
21
2.45003
0
LINE
8
BLACK
6
CONTINUOUS
10
5.2722
20
2.45003
11
5.27278
21
2.44864
0
LINE
8
BLACK
6
CONTINUOUS
10
5.27278
20
2.44864
11
5.27278
21
2.37383
0
LINE
8
BLACK
6
CONTINUOUS
10
5.27278
20
2.37383
11
5.27237
21
2.37285
0
LINE
8
BLACK
6
CONTINUOUS
10
5.27237
20
2.37285
11
5.27278
21
2.37187
0
LINE
8
BLACK
6
CONTINUOUS
10
5.27278
20
2.37187
11
5.27278
21
2.29706
0
LINE
8
BLACK
6
CONTINUOUS
10
5.27278
20
2.29706
11
5.2722
21
2.29567
0
LINE
8
BLACK
6
CONTINUOUS
10
5.2722
20
2.29567
11
5.272
21
2.29559
0
LINE
8
BLACK
6
CONTINUOUS
10
5.272
20
2.29559
11
5.2722
21
2.2955
0
LINE
8
BLACK
6
CONTINUOUS
10
5.2722
20
2.2955
11
5.27278
21
2.29411
0
LINE
8
BLACK
6
CONTINUOUS
10
5.27278
20
2.29411
11
5.27278
21
2.21931
0
LINE
8
BLACK
6
CONTINUOUS
10
5.27278
20
2.21931
11
5.27228
21
2.21812
0
LINE
8
BLACK
6
CONTINUOUS
10
5.27228
20
2.21812
11
5.27228
21
2.14352
0
LINE
8
BLACK
6
CONTINUOUS
10
5.27228
20
2.14352
11
5.27171
21
2.14213
0
LINE
8
BLACK
6
CONTINUOUS
10
5.27171
20
2.14213
11
5.27031
21
2.14155
0
LINE
8
BLACK
6
CONTINUOUS
10
5.27031
20
2.14155
11
5.13803
21
2.14155
0
LINE
8
BLACK
6
CONTINUOUS
10
5.13803
20
2.14155
11
5.13664
21
2.14213
0
LINE
8
BLACK
6
CONTINUOUS
10
5.13664
20
2.14213
11
5.13606
21
2.14352
0
LINE
8
BLACK
6
CONTINUOUS
10
5.13606
20
2.14352
11
5.13606
21
2.21832
0
LINE
8
BLACK
6
CONTINUOUS
10
5.13606
20
2.21832
11
5.13656
21
2.21951
0
LINE
8
BLACK
6
CONTINUOUS
10
5.13656
20
2.21951
11
5.13656
21
2.29411
0
LINE
8
BLACK
6
CONTINUOUS
10
5.13656
20
2.29411
11
5.13713
21
2.2955
0
LINE
8
BLACK
6
CONTINUOUS
10
5.13713
20
2.2955
11
5.13734
21
2.29559
0
LINE
8
BLACK
6
CONTINUOUS
10
5.13734
20
2.29559
11
5.13713
21
2.29567
0
LINE
8
BLACK
6
CONTINUOUS
10
5.13713
20
2.29567
11
5.13656
21
2.29706
0
LINE
8
BLACK
6
CONTINUOUS
10
5.13656
20
2.29706
11
5.13656
21
2.37187
0
LINE
8
BLACK
6
CONTINUOUS
10
5.13656
20
2.37187
11
5.13696
21
2.37285
0
LINE
8
BLACK
6
CONTINUOUS
10
5.13696
20
2.37285
11
5.13656
21
2.37383
0
LINE
8
BLACK
6
CONTINUOUS
10
5.13656
20
2.37383
11
5.13656
21
2.44864
0
LINE
8
BLACK
6
CONTINUOUS
10
5.13656
20
2.44864
11
5.13713
21
2.45003
0
LINE
8
BLACK
6
CONTINUOUS
10
5.13713
20
2.45003
11
5.13852
21
2.45061
0
LINE
8
BLACK
6
CONTINUOUS
10
5.13852
20
2.45061
11
5.27081
21
2.45061
0
LINE
8
BLACK
6
CONTINUOUS
10
5.14
20
2.21635
11
5.14
21
2.14549
0
LINE
8
BLACK
6
CONTINUOUS
10
5.14
20
2.14549
11
5.26835
21
2.14549
0
LINE
8
BLACK
6
CONTINUOUS
10
5.26835
20
2.14549
11
5.26835
21
2.21635
0
LINE
8
BLACK
6
CONTINUOUS
10
5.26835
20
2.21635
11
5.14
21
2.21635
0
LINE
8
BLACK
6
CONTINUOUS
10
5.14049
20
2.29214
11
5.14049
21
2.22128
0
LINE
8
BLACK
6
CONTINUOUS
10
5.14049
20
2.22128
11
5.26884
21
2.22128
0
LINE
8
BLACK
6
CONTINUOUS
10
5.26884
20
2.22128
11
5.26884
21
2.29214
0
LINE
8
BLACK
6
CONTINUOUS
10
5.26884
20
2.29214
11
5.14049
21
2.29214
0
LINE
8
BLACK
6
CONTINUOUS
10
5.14049
20
2.3699
11
5.14049
21
2.29903
0
LINE
8
BLACK
6
CONTINUOUS
10
5.14049
20
2.29903
11
5.26884
21
2.29903
0
LINE
8
BLACK
6
CONTINUOUS
10
5.26884
20
2.29903
11
5.26884
21
2.3699
0
LINE
8
BLACK
6
CONTINUOUS
10
5.26884
20
2.3699
11
5.14049
21
2.3699
0
LINE
8
BLACK
6
CONTINUOUS
10
5.14049
20
2.44667
11
5.14049
21
2.3758
0
LINE
8
BLACK
6
CONTINUOUS
10
5.14049
20
2.3758
11
5.26884
21
2.3758
0
LINE
8
BLACK
6
CONTINUOUS
10
5.26884
20
2.3758
11
5.26884
21
2.44667
0
LINE
8
BLACK
6
CONTINUOUS
10
5.26884
20
2.44667
11
5.14049
21
2.44667
0
LINE
8
BLACK
6
CONTINUOUS
10
5.26913
20
2.82012
11
5.27053
21
2.81954
0
LINE
8
BLACK
6
CONTINUOUS
10
5.27053
20
2.81954
11
5.2711
21
2.81815
0
LINE
8
BLACK
6
CONTINUOUS
10
5.2711
20
2.81815
11
5.2711
21
2.68587
0
LINE
8
BLACK
6
CONTINUOUS
10
5.2711
20
2.68587
11
5.27053
21
2.68447
0
LINE
8
BLACK
6
CONTINUOUS
10
5.27053
20
2.68447
11
5.2702
21
2.68434
0
LINE
8
BLACK
6
CONTINUOUS
10
5.2702
20
2.68434
11
5.27053
21
2.68421
0
LINE
8
BLACK
6
CONTINUOUS
10
5.27053
20
2.68421
11
5.2711
21
2.68281
0
LINE
8
BLACK
6
CONTINUOUS
10
5.2711
20
2.68281
11
5.2711
21
2.55053
0
LINE
8
BLACK
6
CONTINUOUS
10
5.2711
20
2.55053
11
5.27053
21
2.54914
0
LINE
8
BLACK
6
CONTINUOUS
10
5.27053
20
2.54914
11
5.26913
21
2.54856
0
LINE
8
BLACK
6
CONTINUOUS
10
5.26913
20
2.54856
11
5.19433
21
2.54856
0
LINE
8
BLACK
6
CONTINUOUS
10
5.19433
20
2.54856
11
5.19294
21
2.54914
0
LINE
8
BLACK
6
CONTINUOUS
10
5.19294
20
2.54914
11
5.19236
21
2.55053
0
LINE
8
BLACK
6
CONTINUOUS
10
5.19236
20
2.55053
11
5.19236
21
2.68281
0
LINE
8
BLACK
6
CONTINUOUS
10
5.19236
20
2.68281
11
5.19294
21
2.68421
0
LINE
8
BLACK
6
CONTINUOUS
10
5.19294
20
2.68421
11
5.19326
21
2.68434
0
LINE
8
BLACK
6
CONTINUOUS
10
5.19326
20
2.68434
11
5.19294
21
2.68447
0
LINE
8
BLACK
6
CONTINUOUS
10
5.19294
20
2.68447
11
5.19236
21
2.68587
0
LINE
8
BLACK
6
CONTINUOUS
10
5.19236
20
2.68587
11
5.19236
21
2.81815
0
LINE
8
BLACK
6
CONTINUOUS
10
5.19236
20
2.81815
11
5.19294
21
2.81954
0
LINE
8
BLACK
6
CONTINUOUS
10
5.19294
20
2.81954
11
5.19433
21
2.82012
0
LINE
8
BLACK
6
CONTINUOUS
10
5.19433
20
2.82012
11
5.26913
21
2.82012
0
LINE
8
BLACK
6
CONTINUOUS
10
5.1963
20
2.68085
11
5.1963
21
2.5525
0
LINE
8
BLACK
6
CONTINUOUS
10
5.1963
20
2.5525
11
5.26717
21
2.5525
0
LINE
8
BLACK
6
CONTINUOUS
10
5.26717
20
2.5525
11
5.26717
21
2.68085
0
LINE
8
BLACK
6
CONTINUOUS
10
5.26717
20
2.68085
11
5.1963
21
2.68085
0
LINE
8
BLACK
6
CONTINUOUS
10
5.1963
20
2.81618
11
5.1963
21
2.68783
0
LINE
8
BLACK
6
CONTINUOUS
10
5.1963
20
2.68783
11
5.26717
21
2.68783
0
LINE
8
BLACK
6
CONTINUOUS
10
5.26717
20
2.68783
11
5.26717
21
2.81618
0
LINE
8
BLACK
6
CONTINUOUS
10
5.26717
20
2.81618
11
5.1963
21
2.81618
  0
ENDSEC
  0
EOF
