  0
SECTION
  2
HEADER
  9
$ANGBASE
  50
0.0
  9
$ANGDIR
  70
1
  9
$MEASUREMENT
  70
0
  0
ENDSEC
  0
SECTION
  2
TABLES
  0
TABLE
  2
LTYPE
  70
4
  0
LTYPE
  5
40F
  2
CONTINUOUS
  70
0
  3
Solid line
  72
65
  73
0
  40
0.0
  0
LTYPE
  5
410
  2
DASHDOT
 70
0
  3
Dash Dot ____ _ ____ _
 72
65
 73
4
 40
2.0
 49
1.25
 49
-0.25
 49
0.25
 49
-0.25
  0
LTYPE
  5
411
  2
DASHED
 70
0
  3
Dashed __ __ __ __ __
 72
65
 73
2
 40
0.75
 49
0.5
 49
-0.25
  0
LTYPE
  5
43B
  2
DOTTED
 70
0
  3
Dotted .  .  .  .
 72
65
 73
2
 40
0.2
 49
0.0
 49
-0.2
  0
ENDTAB
  0
TABLE
  2
STYLE
  70
4
  0
STYLE
  2
KICAD
  70
0
  40
0
  41
1
  42
1
  50
0
  71
0
  3
isocp.shx
  0
STYLE
  2
KICADB
  70
0
  40
0
  41
1
  42
1
  50
0
  71
0
  3
isocp.shx
  0
STYLE
  2
KICADI
  70
0
  40
0
  41
1
  42
1
  50
15
  71
0
  3
isocp.shx
  0
STYLE
  2
KICADBI
  70
0
  40
0
  41
1
  42
1
  50
15
  71
0
  3
isocp.shx
  0
ENDTAB
  0
TABLE
  2
LAYER
  70
1
  0
LAYER
  2
BLACK
  70
0
  62
7
  6
CONTINUOUS
  0
ENDTAB
  0
ENDSEC
  0
SECTION
  2
ENTITIES
0
LINE
8
BLACK
6
CONTINUOUS
10
5.38226
20
-0.017787
11
5.38295
21
-0.019685
0
LINE
8
BLACK
6
CONTINUOUS
10
5.38295
20
-0.019685
11
5.38295
21
-0.263009
0
LINE
8
BLACK
6
CONTINUOUS
10
5.38295
20
-0.263009
11
5.38277
21
-0.264019
0
LINE
8
BLACK
6
CONTINUOUS
10
5.38277
20
-0.264019
11
5.38148
21
-0.265566
0
LINE
8
BLACK
6
CONTINUOUS
10
5.38148
20
-0.265566
11
5.37949
21
-0.265917
0
LINE
8
BLACK
6
CONTINUOUS
10
5.37949
20
-0.265917
11
5.37774
21
-0.264907
0
LINE
8
BLACK
6
CONTINUOUS
10
5.37774
20
-0.264907
11
5.37705
21
-0.263009
0
LINE
8
BLACK
6
CONTINUOUS
10
5.37705
20
-0.263009
11
5.37705
21
-0.244787
0
LINE
8
BLACK
6
CONTINUOUS
10
5.37705
20
-0.244787
11
5.33701
21
-0.265628
0
LINE
8
BLACK
6
CONTINUOUS
10
5.33701
20
-0.265628
11
5.33603
21
-0.265936
0
LINE
8
BLACK
6
CONTINUOUS
10
5.33603
20
-0.265936
11
5.33406
21
-0.265499
0
LINE
8
BLACK
6
CONTINUOUS
10
5.33406
20
-0.265499
11
5.33283
21
-0.263897
0
LINE
8
BLACK
6
CONTINUOUS
10
5.33283
20
-0.263897
11
5.33292
21
-0.261879
0
LINE
8
BLACK
6
CONTINUOUS
10
5.33292
20
-0.261879
11
5.33429
21
-0.26039
0
LINE
8
BLACK
6
CONTINUOUS
10
5.33429
20
-0.26039
11
5.36793
21
-0.242874
0
LINE
8
BLACK
6
CONTINUOUS
10
5.36793
20
-0.242874
11
-0.987933
21
-0.242874
0
LINE
8
BLACK
6
CONTINUOUS
10
-0.987933
20
-0.242874
11
-0.954286
21
-0.26039
0
LINE
8
BLACK
6
CONTINUOUS
10
-0.954286
20
-0.26039
11
-0.953472
21
-0.261014
0
LINE
8
BLACK
6
CONTINUOUS
10
-0.953472
20
-0.261014
11
-0.9527
21
-0.26288
0
LINE
8
BLACK
6
CONTINUOUS
10
-0.9527
20
-0.26288
11
-0.953307
21
-0.264806
0
LINE
8
BLACK
6
CONTINUOUS
10
-0.953307
20
-0.264806
11
-0.95501
21
-0.265891
0
LINE
8
BLACK
6
CONTINUOUS
10
-0.95501
20
-0.265891
11
-0.957013
21
-0.265628
0
LINE
8
BLACK
6
CONTINUOUS
10
-0.957013
20
-0.265628
11
-0.997047
21
-0.244787
0
LINE
8
BLACK
6
CONTINUOUS
10
-0.997047
20
-0.244787
11
-0.997047
21
-0.263009
0
LINE
8
BLACK
6
CONTINUOUS
10
-0.997047
20
-0.263009
11
-0.997225
21
-0.264019
0
LINE
8
BLACK
6
CONTINUOUS
10
-0.997225
20
-0.264019
11
-0.998524
21
-0.265566
0
LINE
8
BLACK
6
CONTINUOUS
10
-0.998524
20
-0.265566
11
-1.00051
21
-0.265917
0
LINE
8
BLACK
6
CONTINUOUS
10
-1.00051
20
-0.265917
11
-1.00226
21
-0.264907
0
LINE
8
BLACK
6
CONTINUOUS
10
-1.00226
20
-0.264907
11
-1.00295
21
-0.263009
0
LINE
8
BLACK
6
CONTINUOUS
10
-1.00295
20
-0.263009
11
-1.00295
21
-0.019685
0
LINE
8
BLACK
6
CONTINUOUS
10
-1.00295
20
-0.019685
11
-1.00277
21
-0.0186751
0
LINE
8
BLACK
6
CONTINUOUS
10
-1.00277
20
-0.0186751
11
-1.00148
21
-0.0171279
0
LINE
8
BLACK
6
CONTINUOUS
10
-1.00148
20
-0.0171279
11
-0.999487
21
-0.0167771
0
LINE
8
BLACK
6
CONTINUOUS
10
-0.999487
20
-0.0167771
11
-0.997738
21
-0.017787
0
LINE
8
BLACK
6
CONTINUOUS
10
-0.997738
20
-0.017787
11
-0.997047
21
-0.019685
0
LINE
8
BLACK
6
CONTINUOUS
10
-0.997047
20
-0.019685
11
-0.997047
21
-0.235055
0
LINE
8
BLACK
6
CONTINUOUS
10
-0.997047
20
-0.235055
11
-0.957013
21
-0.214215
0
LINE
8
BLACK
6
CONTINUOUS
10
-0.957013
20
-0.214215
11
-0.956035
21
-0.213906
0
LINE
8
BLACK
6
CONTINUOUS
10
-0.956035
20
-0.213906
11
-0.954063
21
-0.214344
0
LINE
8
BLACK
6
CONTINUOUS
10
-0.954063
20
-0.214344
11
-0.952833
21
-0.215946
0
LINE
8
BLACK
6
CONTINUOUS
10
-0.952833
20
-0.215946
11
-0.952921
21
-0.217964
0
LINE
8
BLACK
6
CONTINUOUS
10
-0.952921
20
-0.217964
11
-0.954286
21
-0.219453
0
LINE
8
BLACK
6
CONTINUOUS
10
-0.954286
20
-0.219453
11
-0.987933
21
-0.236969
0
LINE
8
BLACK
6
CONTINUOUS
10
-0.987933
20
-0.236969
11
5.36793
21
-0.236969
0
LINE
8
BLACK
6
CONTINUOUS
10
5.36793
20
-0.236969
11
5.33429
21
-0.219453
0
LINE
8
BLACK
6
CONTINUOUS
10
5.33429
20
-0.219453
11
5.33347
21
-0.218829
0
LINE
8
BLACK
6
CONTINUOUS
10
5.33347
20
-0.218829
11
5.3327
21
-0.216963
0
LINE
8
BLACK
6
CONTINUOUS
10
5.3327
20
-0.216963
11
5.33331
21
-0.215036
0
LINE
8
BLACK
6
CONTINUOUS
10
5.33331
20
-0.215036
11
5.33501
21
-0.213951
0
LINE
8
BLACK
6
CONTINUOUS
10
5.33501
20
-0.213951
11
5.33701
21
-0.214215
0
LINE
8
BLACK
6
CONTINUOUS
10
5.33701
20
-0.214215
11
5.37705
21
-0.235055
0
LINE
8
BLACK
6
CONTINUOUS
10
5.37705
20
-0.235055
11
5.37705
21
-0.019685
0
LINE
8
BLACK
6
CONTINUOUS
10
5.37705
20
-0.019685
11
5.37723
21
-0.0186751
0
LINE
8
BLACK
6
CONTINUOUS
10
5.37723
20
-0.0186751
11
5.37852
21
-0.0171279
0
LINE
8
BLACK
6
CONTINUOUS
10
5.37852
20
-0.0171279
11
5.38051
21
-0.0167771
0
LINE
8
BLACK
6
CONTINUOUS
10
5.38051
20
-0.0167771
11
5.38226
21
-0.017787
0
LINE
8
BLACK
6
CONTINUOUS
10
2.00099
20
-0.170303
11
2.00116
21
-0.170274
0
LINE
8
BLACK
6
CONTINUOUS
10
2.00116
20
-0.170274
11
2.0019
21
-0.170702
0
LINE
8
BLACK
6
CONTINUOUS
10
2.0019
20
-0.170702
11
2.00269
21
-0.171047
0
LINE
8
BLACK
6
CONTINUOUS
10
2.00269
20
-0.171047
11
2.00276
21
-0.171199
0
LINE
8
BLACK
6
CONTINUOUS
10
2.00276
20
-0.171199
11
2.00291
21
-0.171284
0
LINE
8
BLACK
6
CONTINUOUS
10
2.00291
20
-0.171284
11
2.0032
21
-0.172089
0
LINE
8
BLACK
6
CONTINUOUS
10
2.0032
20
-0.172089
11
2.00358
21
-0.172857
0
LINE
8
BLACK
6
CONTINUOUS
10
2.00358
20
-0.172857
11
2.00354
21
-0.173022
0
LINE
8
BLACK
6
CONTINUOUS
10
2.00354
20
-0.173022
11
2.0036
21
-0.173182
0
LINE
8
BLACK
6
CONTINUOUS
10
2.0036
20
-0.173182
11
2.0036
21
-0.209599
0
LINE
8
BLACK
6
CONTINUOUS
10
2.0036
20
-0.209599
11
2.0119
21
-0.209599
0
LINE
8
BLACK
6
CONTINUOUS
10
2.0119
20
-0.209599
11
2.01291
21
-0.209777
0
LINE
8
BLACK
6
CONTINUOUS
10
2.01291
20
-0.209777
11
2.01445
21
-0.211076
0
LINE
8
BLACK
6
CONTINUOUS
10
2.01445
20
-0.211076
11
2.01481
21
-0.213065
0
LINE
8
BLACK
6
CONTINUOUS
10
2.01481
20
-0.213065
11
2.0138
21
-0.214814
0
LINE
8
BLACK
6
CONTINUOUS
10
2.0138
20
-0.214814
11
2.0119
21
-0.215505
0
LINE
8
BLACK
6
CONTINUOUS
10
2.0119
20
-0.215505
11
1.9894
21
-0.215505
0
LINE
8
BLACK
6
CONTINUOUS
10
1.9894
20
-0.215505
11
1.98839
21
-0.215327
0
LINE
8
BLACK
6
CONTINUOUS
10
1.98839
20
-0.215327
11
1.98684
21
-0.214028
0
LINE
8
BLACK
6
CONTINUOUS
10
1.98684
20
-0.214028
11
1.98649
21
-0.212039
0
LINE
8
BLACK
6
CONTINUOUS
10
1.98649
20
-0.212039
11
1.9875
21
-0.21029
0
LINE
8
BLACK
6
CONTINUOUS
10
1.9875
20
-0.21029
11
1.9894
21
-0.209599
0
LINE
8
BLACK
6
CONTINUOUS
10
1.9894
20
-0.209599
11
1.9977
21
-0.209599
0
LINE
8
BLACK
6
CONTINUOUS
10
1.9977
20
-0.209599
11
1.9977
21
-0.182185
0
LINE
8
BLACK
6
CONTINUOUS
10
1.9977
20
-0.182185
11
1.99524
21
-0.184644
0
LINE
8
BLACK
6
CONTINUOUS
10
1.99524
20
-0.184644
11
1.99451
21
-0.18515
0
LINE
8
BLACK
6
CONTINUOUS
10
1.99451
20
-0.18515
11
1.99447
21
-0.185197
0
LINE
8
BLACK
6
CONTINUOUS
10
1.99447
20
-0.185197
11
1.99072
21
-0.187071
0
LINE
8
BLACK
6
CONTINUOUS
10
1.99072
20
-0.187071
11
1.98974
21
-0.187364
0
LINE
8
BLACK
6
CONTINUOUS
10
1.98974
20
-0.187364
11
1.98777
21
-0.186895
0
LINE
8
BLACK
6
CONTINUOUS
10
1.98777
20
-0.186895
11
1.98657
21
-0.185272
0
LINE
8
BLACK
6
CONTINUOUS
10
1.98657
20
-0.185272
11
1.98669
21
-0.183256
0
LINE
8
BLACK
6
CONTINUOUS
10
1.98669
20
-0.183256
11
1.98808
21
-0.181789
0
LINE
8
BLACK
6
CONTINUOUS
10
1.98808
20
-0.181789
11
1.9914
21
-0.180129
0
LINE
8
BLACK
6
CONTINUOUS
10
1.9914
20
-0.180129
11
1.9946
21
-0.176925
0
LINE
8
BLACK
6
CONTINUOUS
10
1.9946
20
-0.176925
11
1.99819
21
-0.171544
0
LINE
8
BLACK
6
CONTINUOUS
10
1.99819
20
-0.171544
11
1.9989
21
-0.170802
0
LINE
8
BLACK
6
CONTINUOUS
10
1.9989
20
-0.170802
11
1.99906
21
-0.170755
0
LINE
8
BLACK
6
CONTINUOUS
10
1.99906
20
-0.170755
11
1.99917
21
-0.170625
0
LINE
8
BLACK
6
CONTINUOUS
10
1.99917
20
-0.170625
11
2.00002
21
-0.170476
0
LINE
8
BLACK
6
CONTINUOUS
10
2.00002
20
-0.170476
11
2.00084
21
-0.170235
0
LINE
8
BLACK
6
CONTINUOUS
10
2.00084
20
-0.170235
11
2.00099
21
-0.170303
0
LINE
8
BLACK
6
CONTINUOUS
10
2.04665
20
-0.170407
11
2.0482
21
-0.171705
0
LINE
8
BLACK
6
CONTINUOUS
10
2.0482
20
-0.171705
11
2.04855
21
-0.173695
0
LINE
8
BLACK
6
CONTINUOUS
10
2.04855
20
-0.173695
11
2.04754
21
-0.175444
0
LINE
8
BLACK
6
CONTINUOUS
10
2.04754
20
-0.175444
11
2.04564
21
-0.176135
0
LINE
8
BLACK
6
CONTINUOUS
10
2.04564
20
-0.176135
11
2.03884
21
-0.176135
0
LINE
8
BLACK
6
CONTINUOUS
10
2.03884
20
-0.176135
11
2.03614
21
-0.177483
0
LINE
8
BLACK
6
CONTINUOUS
10
2.03614
20
-0.177483
11
2.03481
21
-0.178813
0
LINE
8
BLACK
6
CONTINUOUS
10
2.03481
20
-0.178813
11
2.03151
21
-0.183768
0
LINE
8
BLACK
6
CONTINUOUS
10
2.03151
20
-0.183768
11
2.03078
21
-0.186685
0
LINE
8
BLACK
6
CONTINUOUS
10
2.03078
20
-0.186685
11
2.03307
21
-0.185539
0
LINE
8
BLACK
6
CONTINUOUS
10
2.03307
20
-0.185539
11
2.03406
21
-0.185247
0
LINE
8
BLACK
6
CONTINUOUS
10
2.03406
20
-0.185247
11
2.03423
21
-0.185288
0
LINE
8
BLACK
6
CONTINUOUS
10
2.03423
20
-0.185288
11
2.03439
21
-0.185227
0
LINE
8
BLACK
6
CONTINUOUS
10
2.03439
20
-0.185227
11
2.04189
21
-0.185227
0
LINE
8
BLACK
6
CONTINUOUS
10
2.04189
20
-0.185227
11
2.0429
21
-0.185405
0
LINE
8
BLACK
6
CONTINUOUS
10
2.0429
20
-0.185405
11
2.04304
21
-0.185519
0
LINE
8
BLACK
6
CONTINUOUS
10
2.04304
20
-0.185519
11
2.04321
21
-0.185539
0
LINE
8
BLACK
6
CONTINUOUS
10
2.04321
20
-0.185539
11
2.04696
21
-0.187414
0
LINE
8
BLACK
6
CONTINUOUS
10
2.04696
20
-0.187414
11
2.04767
21
-0.18794
0
LINE
8
BLACK
6
CONTINUOUS
10
2.04767
20
-0.18794
11
2.04773
21
-0.187967
0
LINE
8
BLACK
6
CONTINUOUS
10
2.04773
20
-0.187967
11
2.04961
21
-0.189842
0
LINE
8
BLACK
6
CONTINUOUS
10
2.04961
20
-0.189842
11
2.05011
21
-0.190565
0
LINE
8
BLACK
6
CONTINUOUS
10
2.05011
20
-0.190565
11
2.05016
21
-0.190609
0
LINE
8
BLACK
6
CONTINUOUS
10
2.05016
20
-0.190609
11
2.05203
21
-0.194359
0
LINE
8
BLACK
6
CONTINUOUS
10
2.05203
20
-0.194359
11
2.05233
21
-0.195341
0
LINE
8
BLACK
6
CONTINUOUS
10
2.05233
20
-0.195341
11
2.05228
21
-0.195513
0
LINE
8
BLACK
6
CONTINUOUS
10
2.05228
20
-0.195513
11
2.05235
21
-0.195679
0
LINE
8
BLACK
6
CONTINUOUS
10
2.05235
20
-0.195679
11
2.05235
21
-0.205053
0
LINE
8
BLACK
6
CONTINUOUS
10
2.05235
20
-0.205053
11
2.05217
21
-0.206063
0
LINE
8
BLACK
6
CONTINUOUS
10
2.05217
20
-0.206063
11
2.05205
21
-0.206198
0
LINE
8
BLACK
6
CONTINUOUS
10
2.05205
20
-0.206198
11
2.05203
21
-0.206373
0
LINE
8
BLACK
6
CONTINUOUS
10
2.05203
20
-0.206373
11
2.05016
21
-0.210123
0
LINE
8
BLACK
6
CONTINUOUS
10
2.05016
20
-0.210123
11
2.04963
21
-0.210832
0
LINE
8
BLACK
6
CONTINUOUS
10
2.04963
20
-0.210832
11
2.04961
21
-0.21089
0
LINE
8
BLACK
6
CONTINUOUS
10
2.04961
20
-0.21089
11
2.04773
21
-0.212765
0
LINE
8
BLACK
6
CONTINUOUS
10
2.04773
20
-0.212765
11
2.04701
21
-0.213271
0
LINE
8
BLACK
6
CONTINUOUS
10
2.04701
20
-0.213271
11
2.04696
21
-0.213318
0
LINE
8
BLACK
6
CONTINUOUS
10
2.04696
20
-0.213318
11
2.04321
21
-0.215193
0
LINE
8
BLACK
6
CONTINUOUS
10
2.04321
20
-0.215193
11
2.04223
21
-0.215485
0
LINE
8
BLACK
6
CONTINUOUS
10
2.04223
20
-0.215485
11
2.04206
21
-0.215444
0
LINE
8
BLACK
6
CONTINUOUS
10
2.04206
20
-0.215444
11
2.04189
21
-0.215505
0
LINE
8
BLACK
6
CONTINUOUS
10
2.04189
20
-0.215505
11
2.03439
21
-0.215505
0
LINE
8
BLACK
6
CONTINUOUS
10
2.03439
20
-0.215505
11
2.03338
21
-0.215327
0
LINE
8
BLACK
6
CONTINUOUS
10
2.03338
20
-0.215327
11
2.03325
21
-0.215213
0
LINE
8
BLACK
6
CONTINUOUS
10
2.03325
20
-0.215213
11
2.03307
21
-0.215193
0
LINE
8
BLACK
6
CONTINUOUS
10
2.03307
20
-0.215193
11
2.02932
21
-0.213318
0
LINE
8
BLACK
6
CONTINUOUS
10
2.02932
20
-0.213318
11
2.02862
21
-0.212792
0
LINE
8
BLACK
6
CONTINUOUS
10
2.02862
20
-0.212792
11
2.02856
21
-0.212765
0
LINE
8
BLACK
6
CONTINUOUS
10
2.02856
20
-0.212765
11
2.02668
21
-0.21089
0
LINE
8
BLACK
6
CONTINUOUS
10
2.02668
20
-0.21089
11
2.02618
21
-0.210167
0
LINE
8
BLACK
6
CONTINUOUS
10
2.02618
20
-0.210167
11
2.02613
21
-0.210123
0
LINE
8
BLACK
6
CONTINUOUS
10
2.02613
20
-0.210123
11
2.02425
21
-0.206373
0
LINE
8
BLACK
6
CONTINUOUS
10
2.02425
20
-0.206373
11
2.02396
21
-0.20539
0
LINE
8
BLACK
6
CONTINUOUS
10
2.02396
20
-0.20539
11
2.024
21
-0.205219
0
LINE
8
BLACK
6
CONTINUOUS
10
2.024
20
-0.205219
11
2.02394
21
-0.205053
0
LINE
8
BLACK
6
CONTINUOUS
10
2.02394
20
-0.205053
11
2.02394
21
-0.190055
0
LINE
8
BLACK
6
CONTINUOUS
10
2.02394
20
-0.190055
11
2.02404
21
-0.189474
0
LINE
8
BLACK
6
CONTINUOUS
10
2.02404
20
-0.189474
11
2.02403
21
-0.189339
0
LINE
8
BLACK
6
CONTINUOUS
10
2.02403
20
-0.189339
11
2.02591
21
-0.18184
0
LINE
8
BLACK
6
CONTINUOUS
10
2.02591
20
-0.18184
11
2.02631
21
-0.180934
0
LINE
8
BLACK
6
CONTINUOUS
10
2.02631
20
-0.180934
11
2.02631
21
-0.180918
0
LINE
8
BLACK
6
CONTINUOUS
10
2.02631
20
-0.180918
11
2.03006
21
-0.175293
0
LINE
8
BLACK
6
CONTINUOUS
10
2.03006
20
-0.175293
11
2.03037
21
-0.174968
0
LINE
8
BLACK
6
CONTINUOUS
10
2.03037
20
-0.174968
11
2.03043
21
-0.174843
0
LINE
8
BLACK
6
CONTINUOUS
10
2.03043
20
-0.174843
11
2.03231
21
-0.172969
0
LINE
8
BLACK
6
CONTINUOUS
10
2.03231
20
-0.172969
11
2.03303
21
-0.172462
0
LINE
8
BLACK
6
CONTINUOUS
10
2.03303
20
-0.172462
11
2.03307
21
-0.172416
0
LINE
8
BLACK
6
CONTINUOUS
10
2.03307
20
-0.172416
11
2.03682
21
-0.170541
0
LINE
8
BLACK
6
CONTINUOUS
10
2.03682
20
-0.170541
11
2.03781
21
-0.170248
0
LINE
8
BLACK
6
CONTINUOUS
10
2.03781
20
-0.170248
11
2.03798
21
-0.170289
0
LINE
8
BLACK
6
CONTINUOUS
10
2.03798
20
-0.170289
11
2.03814
21
-0.170229
0
LINE
8
BLACK
6
CONTINUOUS
10
2.03814
20
-0.170229
11
2.04564
21
-0.170229
0
LINE
8
BLACK
6
CONTINUOUS
10
2.04564
20
-0.170229
11
2.04665
21
-0.170407
0
LINE
8
BLACK
6
CONTINUOUS
10
2.03239
20
-0.192481
11
2.0312
21
-0.193679
0
LINE
8
BLACK
6
CONTINUOUS
10
2.0312
20
-0.193679
11
2.02985
21
-0.196376
0
LINE
8
BLACK
6
CONTINUOUS
10
2.02985
20
-0.196376
11
2.02985
21
-0.204356
0
LINE
8
BLACK
6
CONTINUOUS
10
2.02985
20
-0.204356
11
2.0312
21
-0.207053
0
LINE
8
BLACK
6
CONTINUOUS
10
2.0312
20
-0.207053
11
2.03239
21
-0.20825
0
LINE
8
BLACK
6
CONTINUOUS
10
2.03239
20
-0.20825
11
2.03509
21
-0.209599
0
LINE
8
BLACK
6
CONTINUOUS
10
2.03509
20
-0.209599
11
2.0412
21
-0.209599
0
LINE
8
BLACK
6
CONTINUOUS
10
2.0412
20
-0.209599
11
2.04389
21
-0.20825
0
LINE
8
BLACK
6
CONTINUOUS
10
2.04389
20
-0.20825
11
2.04509
21
-0.207053
0
LINE
8
BLACK
6
CONTINUOUS
10
2.04509
20
-0.207053
11
2.04644
21
-0.204356
0
LINE
8
BLACK
6
CONTINUOUS
10
2.04644
20
-0.204356
11
2.04644
21
-0.196376
0
LINE
8
BLACK
6
CONTINUOUS
10
2.04644
20
-0.196376
11
2.04509
21
-0.193679
0
LINE
8
BLACK
6
CONTINUOUS
10
2.04509
20
-0.193679
11
2.04389
21
-0.192481
0
LINE
8
BLACK
6
CONTINUOUS
10
2.04389
20
-0.192481
11
2.0412
21
-0.191133
0
LINE
8
BLACK
6
CONTINUOUS
10
2.0412
20
-0.191133
11
2.03509
21
-0.191133
0
LINE
8
BLACK
6
CONTINUOUS
10
2.03509
20
-0.191133
11
2.03239
21
-0.192481
0
LINE
8
BLACK
6
CONTINUOUS
10
2.0804
20
-0.170407
11
2.08053
21
-0.170521
0
LINE
8
BLACK
6
CONTINUOUS
10
2.08053
20
-0.170521
11
2.08071
21
-0.170541
0
LINE
8
BLACK
6
CONTINUOUS
10
2.08071
20
-0.170541
11
2.08446
21
-0.172416
0
LINE
8
BLACK
6
CONTINUOUS
10
2.08446
20
-0.172416
11
2.08517
21
-0.172941
0
LINE
8
BLACK
6
CONTINUOUS
10
2.08517
20
-0.172941
11
2.08523
21
-0.172969
0
LINE
8
BLACK
6
CONTINUOUS
10
2.08523
20
-0.172969
11
2.0871
21
-0.174843
0
LINE
8
BLACK
6
CONTINUOUS
10
2.0871
20
-0.174843
11
2.08761
21
-0.175567
0
LINE
8
BLACK
6
CONTINUOUS
10
2.08761
20
-0.175567
11
2.08765
21
-0.175611
0
LINE
8
BLACK
6
CONTINUOUS
10
2.08765
20
-0.175611
11
2.08953
21
-0.17936
0
LINE
8
BLACK
6
CONTINUOUS
10
2.08953
20
-0.17936
11
2.08982
21
-0.180343
0
LINE
8
BLACK
6
CONTINUOUS
10
2.08982
20
-0.180343
11
2.08978
21
-0.180515
0
LINE
8
BLACK
6
CONTINUOUS
10
2.08978
20
-0.180515
11
2.08984
21
-0.180681
0
LINE
8
BLACK
6
CONTINUOUS
10
2.08984
20
-0.180681
11
2.08984
21
-0.18443
0
LINE
8
BLACK
6
CONTINUOUS
10
2.08984
20
-0.18443
11
2.08969
21
-0.1853
0
LINE
8
BLACK
6
CONTINUOUS
10
2.08969
20
-0.1853
11
2.08969
21
-0.185364
0
LINE
8
BLACK
6
CONTINUOUS
10
2.08969
20
-0.185364
11
2.08781
21
-0.190988
0
LINE
8
BLACK
6
CONTINUOUS
10
2.08781
20
-0.190988
11
2.08733
21
-0.19189
0
LINE
8
BLACK
6
CONTINUOUS
10
2.08733
20
-0.19189
11
2.08718
21
-0.191983
0
LINE
8
BLACK
6
CONTINUOUS
10
2.08718
20
-0.191983
11
2.0871
21
-0.192143
0
LINE
8
BLACK
6
CONTINUOUS
10
2.0871
20
-0.192143
11
2.06964
21
-0.209599
0
LINE
8
BLACK
6
CONTINUOUS
10
2.06964
20
-0.209599
11
2.08689
21
-0.209599
0
LINE
8
BLACK
6
CONTINUOUS
10
2.08689
20
-0.209599
11
2.0879
21
-0.209777
0
LINE
8
BLACK
6
CONTINUOUS
10
2.0879
20
-0.209777
11
2.08945
21
-0.211076
0
LINE
8
BLACK
6
CONTINUOUS
10
2.08945
20
-0.211076
11
2.0898
21
-0.213065
0
LINE
8
BLACK
6
CONTINUOUS
10
2.0898
20
-0.213065
11
2.08879
21
-0.214814
0
LINE
8
BLACK
6
CONTINUOUS
10
2.08879
20
-0.214814
11
2.08689
21
-0.215505
0
LINE
8
BLACK
6
CONTINUOUS
10
2.08689
20
-0.215505
11
2.06252
21
-0.215505
0
LINE
8
BLACK
6
CONTINUOUS
10
2.06252
20
-0.215505
11
2.06188
21
-0.215393
0
LINE
8
BLACK
6
CONTINUOUS
10
2.06188
20
-0.215393
11
2.06175
21
-0.215404
0
LINE
8
BLACK
6
CONTINUOUS
10
2.06175
20
-0.215404
11
2.06169
21
-0.215358
0
LINE
8
BLACK
6
CONTINUOUS
10
2.06169
20
-0.215358
11
2.06151
21
-0.215327
0
LINE
8
BLACK
6
CONTINUOUS
10
2.06151
20
-0.215327
11
2.06083
21
-0.214755
0
LINE
8
BLACK
6
CONTINUOUS
10
2.06083
20
-0.214755
11
2.0601
21
-0.214246
0
LINE
8
BLACK
6
CONTINUOUS
10
2.0601
20
-0.214246
11
2.06006
21
-0.214115
0
LINE
8
BLACK
6
CONTINUOUS
10
2.06006
20
-0.214115
11
2.05996
21
-0.214028
0
LINE
8
BLACK
6
CONTINUOUS
10
2.05996
20
-0.214028
11
2.0598
21
-0.213153
0
LINE
8
BLACK
6
CONTINUOUS
10
2.0598
20
-0.213153
11
2.05957
21
-0.212295
0
LINE
8
BLACK
6
CONTINUOUS
10
2.05957
20
-0.212295
11
2.05963
21
-0.212172
0
LINE
8
BLACK
6
CONTINUOUS
10
2.05963
20
-0.212172
11
2.05961
21
-0.212039
0
LINE
8
BLACK
6
CONTINUOUS
10
2.05961
20
-0.212039
11
2.06005
21
-0.211269
0
LINE
8
BLACK
6
CONTINUOUS
10
2.06005
20
-0.211269
11
2.06043
21
-0.210464
0
LINE
8
BLACK
6
CONTINUOUS
10
2.06043
20
-0.210464
11
2.08243
21
-0.18846
0
LINE
8
BLACK
6
CONTINUOUS
10
2.08243
20
-0.18846
11
2.08394
21
-0.183951
0
LINE
8
BLACK
6
CONTINUOUS
10
2.08394
20
-0.183951
11
2.08394
21
-0.181378
0
LINE
8
BLACK
6
CONTINUOUS
10
2.08394
20
-0.181378
11
2.08259
21
-0.17868
0
LINE
8
BLACK
6
CONTINUOUS
10
2.08259
20
-0.17868
11
2.08139
21
-0.177483
0
LINE
8
BLACK
6
CONTINUOUS
10
2.08139
20
-0.177483
11
2.07869
21
-0.176135
0
LINE
8
BLACK
6
CONTINUOUS
10
2.07869
20
-0.176135
11
2.07071
21
-0.176135
0
LINE
8
BLACK
6
CONTINUOUS
10
2.07071
20
-0.176135
11
2.06801
21
-0.177483
0
LINE
8
BLACK
6
CONTINUOUS
10
2.06801
20
-0.177483
11
2.06648
21
-0.179019
0
LINE
8
BLACK
6
CONTINUOUS
10
2.06648
20
-0.179019
11
2.06564
21
-0.179607
0
LINE
8
BLACK
6
CONTINUOUS
10
2.06564
20
-0.179607
11
2.06363
21
-0.179784
0
LINE
8
BLACK
6
CONTINUOUS
10
2.06363
20
-0.179784
11
2.06197
21
-0.178625
0
LINE
8
BLACK
6
CONTINUOUS
10
2.06197
20
-0.178625
11
2.06145
21
-0.176674
0
LINE
8
BLACK
6
CONTINUOUS
10
2.06145
20
-0.176674
11
2.0623
21
-0.174843
0
LINE
8
BLACK
6
CONTINUOUS
10
2.0623
20
-0.174843
11
2.06418
21
-0.172969
0
LINE
8
BLACK
6
CONTINUOUS
10
2.06418
20
-0.172969
11
2.0649
21
-0.172462
0
LINE
8
BLACK
6
CONTINUOUS
10
2.0649
20
-0.172462
11
2.06494
21
-0.172416
0
LINE
8
BLACK
6
CONTINUOUS
10
2.06494
20
-0.172416
11
2.06869
21
-0.170541
0
LINE
8
BLACK
6
CONTINUOUS
10
2.06869
20
-0.170541
11
2.06968
21
-0.170248
0
LINE
8
BLACK
6
CONTINUOUS
10
2.06968
20
-0.170248
11
2.06985
21
-0.170289
0
LINE
8
BLACK
6
CONTINUOUS
10
2.06985
20
-0.170289
11
2.07002
21
-0.170229
0
LINE
8
BLACK
6
CONTINUOUS
10
2.07002
20
-0.170229
11
2.07939
21
-0.170229
0
LINE
8
BLACK
6
CONTINUOUS
10
2.07939
20
-0.170229
11
2.0804
21
-0.170407
0
LINE
8
BLACK
6
CONTINUOUS
10
2.13477
20
-0.170407
11
2.1349
21
-0.170521
0
LINE
8
BLACK
6
CONTINUOUS
10
2.1349
20
-0.170521
11
2.13508
21
-0.170541
0
LINE
8
BLACK
6
CONTINUOUS
10
2.13508
20
-0.170541
11
2.13883
21
-0.172416
0
LINE
8
BLACK
6
CONTINUOUS
10
2.13883
20
-0.172416
11
2.13954
21
-0.172941
0
LINE
8
BLACK
6
CONTINUOUS
10
2.13954
20
-0.172941
11
2.13959
21
-0.172969
0
LINE
8
BLACK
6
CONTINUOUS
10
2.13959
20
-0.172969
11
2.14147
21
-0.174843
0
LINE
8
BLACK
6
CONTINUOUS
10
2.14147
20
-0.174843
11
2.14198
21
-0.175567
0
LINE
8
BLACK
6
CONTINUOUS
10
2.14198
20
-0.175567
11
2.14202
21
-0.175611
0
LINE
8
BLACK
6
CONTINUOUS
10
2.14202
20
-0.175611
11
2.1439
21
-0.17936
0
LINE
8
BLACK
6
CONTINUOUS
10
2.1439
20
-0.17936
11
2.14404
21
-0.179849
0
LINE
8
BLACK
6
CONTINUOUS
10
2.14404
20
-0.179849
11
2.14412
21
-0.179965
0
LINE
8
BLACK
6
CONTINUOUS
10
2.14412
20
-0.179965
11
2.146
21
-0.187464
0
LINE
8
BLACK
6
CONTINUOUS
10
2.146
20
-0.187464
11
2.14604
21
-0.188052
0
LINE
8
BLACK
6
CONTINUOUS
10
2.14604
20
-0.188052
11
2.14608
21
-0.18818
0
LINE
8
BLACK
6
CONTINUOUS
10
2.14608
20
-0.18818
11
2.14608
21
-0.197554
0
LINE
8
BLACK
6
CONTINUOUS
10
2.14608
20
-0.197554
11
2.14598
21
-0.198134
0
LINE
8
BLACK
6
CONTINUOUS
10
2.14598
20
-0.198134
11
2.146
21
-0.19827
0
LINE
8
BLACK
6
CONTINUOUS
10
2.146
20
-0.19827
11
2.14412
21
-0.205769
0
LINE
8
BLACK
6
CONTINUOUS
10
2.14412
20
-0.205769
11
2.14391
21
-0.206234
0
LINE
8
BLACK
6
CONTINUOUS
10
2.14391
20
-0.206234
11
2.1439
21
-0.206373
0
LINE
8
BLACK
6
CONTINUOUS
10
2.1439
20
-0.206373
11
2.14202
21
-0.210123
0
LINE
8
BLACK
6
CONTINUOUS
10
2.14202
20
-0.210123
11
2.1415
21
-0.210832
0
LINE
8
BLACK
6
CONTINUOUS
10
2.1415
20
-0.210832
11
2.14147
21
-0.21089
0
LINE
8
BLACK
6
CONTINUOUS
10
2.14147
20
-0.21089
11
2.13959
21
-0.212765
0
LINE
8
BLACK
6
CONTINUOUS
10
2.13959
20
-0.212765
11
2.13887
21
-0.213271
0
LINE
8
BLACK
6
CONTINUOUS
10
2.13887
20
-0.213271
11
2.13883
21
-0.213318
0
LINE
8
BLACK
6
CONTINUOUS
10
2.13883
20
-0.213318
11
2.13508
21
-0.215193
0
LINE
8
BLACK
6
CONTINUOUS
10
2.13508
20
-0.215193
11
2.13409
21
-0.215485
0
LINE
8
BLACK
6
CONTINUOUS
10
2.13409
20
-0.215485
11
2.13392
21
-0.215444
0
LINE
8
BLACK
6
CONTINUOUS
10
2.13392
20
-0.215444
11
2.13376
21
-0.215505
0
LINE
8
BLACK
6
CONTINUOUS
10
2.13376
20
-0.215505
11
2.13001
21
-0.215505
0
LINE
8
BLACK
6
CONTINUOUS
10
2.13001
20
-0.215505
11
2.129
21
-0.215327
0
LINE
8
BLACK
6
CONTINUOUS
10
2.129
20
-0.215327
11
2.12886
21
-0.215213
0
LINE
8
BLACK
6
CONTINUOUS
10
2.12886
20
-0.215213
11
2.12869
21
-0.215193
0
LINE
8
BLACK
6
CONTINUOUS
10
2.12869
20
-0.215193
11
2.12494
21
-0.213318
0
LINE
8
BLACK
6
CONTINUOUS
10
2.12494
20
-0.213318
11
2.12423
21
-0.212792
0
LINE
8
BLACK
6
CONTINUOUS
10
2.12423
20
-0.212792
11
2.12417
21
-0.212765
0
LINE
8
BLACK
6
CONTINUOUS
10
2.12417
20
-0.212765
11
2.1223
21
-0.21089
0
LINE
8
BLACK
6
CONTINUOUS
10
2.1223
20
-0.21089
11
2.12179
21
-0.210167
0
LINE
8
BLACK
6
CONTINUOUS
10
2.12179
20
-0.210167
11
2.12174
21
-0.210123
0
LINE
8
BLACK
6
CONTINUOUS
10
2.12174
20
-0.210123
11
2.11987
21
-0.206373
0
LINE
8
BLACK
6
CONTINUOUS
10
2.11987
20
-0.206373
11
2.11972
21
-0.205885
0
LINE
8
BLACK
6
CONTINUOUS
10
2.11972
20
-0.205885
11
2.11964
21
-0.205769
0
LINE
8
BLACK
6
CONTINUOUS
10
2.11964
20
-0.205769
11
2.11777
21
-0.19827
0
LINE
8
BLACK
6
CONTINUOUS
10
2.11777
20
-0.19827
11
2.11773
21
-0.197682
0
LINE
8
BLACK
6
CONTINUOUS
10
2.11773
20
-0.197682
11
2.11768
21
-0.197554
0
LINE
8
BLACK
6
CONTINUOUS
10
2.11768
20
-0.197554
11
2.11768
21
-0.18818
0
LINE
8
BLACK
6
CONTINUOUS
10
2.11768
20
-0.18818
11
2.11778
21
-0.1876
0
LINE
8
BLACK
6
CONTINUOUS
10
2.11778
20
-0.1876
11
2.11777
21
-0.187464
0
LINE
8
BLACK
6
CONTINUOUS
10
2.11777
20
-0.187464
11
2.11964
21
-0.179965
0
LINE
8
BLACK
6
CONTINUOUS
10
2.11964
20
-0.179965
11
2.11985
21
-0.179499
0
LINE
8
BLACK
6
CONTINUOUS
10
2.11985
20
-0.179499
11
2.11987
21
-0.17936
0
LINE
8
BLACK
6
CONTINUOUS
10
2.11987
20
-0.17936
11
2.12174
21
-0.175611
0
LINE
8
BLACK
6
CONTINUOUS
10
2.12174
20
-0.175611
11
2.12227
21
-0.174902
0
LINE
8
BLACK
6
CONTINUOUS
10
2.12227
20
-0.174902
11
2.1223
21
-0.174843
0
LINE
8
BLACK
6
CONTINUOUS
10
2.1223
20
-0.174843
11
2.12417
21
-0.172969
0
LINE
8
BLACK
6
CONTINUOUS
10
2.12417
20
-0.172969
11
2.12489
21
-0.172462
0
LINE
8
BLACK
6
CONTINUOUS
10
2.12489
20
-0.172462
11
2.12494
21
-0.172416
0
LINE
8
BLACK
6
CONTINUOUS
10
2.12494
20
-0.172416
11
2.12869
21
-0.170541
0
LINE
8
BLACK
6
CONTINUOUS
10
2.12869
20
-0.170541
11
2.12967
21
-0.170248
0
LINE
8
BLACK
6
CONTINUOUS
10
2.12967
20
-0.170248
11
2.12984
21
-0.170289
0
LINE
8
BLACK
6
CONTINUOUS
10
2.12984
20
-0.170289
11
2.13001
21
-0.170229
0
LINE
8
BLACK
6
CONTINUOUS
10
2.13001
20
-0.170229
11
2.13376
21
-0.170229
0
LINE
8
BLACK
6
CONTINUOUS
10
2.13376
20
-0.170229
11
2.13477
21
-0.170407
0
LINE
8
BLACK
6
CONTINUOUS
10
2.12801
20
-0.177483
11
2.12681
21
-0.17868
0
LINE
8
BLACK
6
CONTINUOUS
10
2.12681
20
-0.17868
11
2.12529
21
-0.181711
0
LINE
8
BLACK
6
CONTINUOUS
10
2.12529
20
-0.181711
11
2.12359
21
-0.188544
0
LINE
8
BLACK
6
CONTINUOUS
10
2.12359
20
-0.188544
11
2.12359
21
-0.19719
0
LINE
8
BLACK
6
CONTINUOUS
10
2.12359
20
-0.19719
11
2.12529
21
-0.204022
0
LINE
8
BLACK
6
CONTINUOUS
10
2.12529
20
-0.204022
11
2.12681
21
-0.207053
0
LINE
8
BLACK
6
CONTINUOUS
10
2.12681
20
-0.207053
11
2.12801
21
-0.20825
0
LINE
8
BLACK
6
CONTINUOUS
10
2.12801
20
-0.20825
11
2.1307
21
-0.209599
0
LINE
8
BLACK
6
CONTINUOUS
10
2.1307
20
-0.209599
11
2.13306
21
-0.209599
0
LINE
8
BLACK
6
CONTINUOUS
10
2.13306
20
-0.209599
11
2.13576
21
-0.20825
0
LINE
8
BLACK
6
CONTINUOUS
10
2.13576
20
-0.20825
11
2.13695
21
-0.207053
0
LINE
8
BLACK
6
CONTINUOUS
10
2.13695
20
-0.207053
11
2.13847
21
-0.204022
0
LINE
8
BLACK
6
CONTINUOUS
10
2.13847
20
-0.204022
11
2.14018
21
-0.19719
0
LINE
8
BLACK
6
CONTINUOUS
10
2.14018
20
-0.19719
11
2.14018
21
-0.188544
0
LINE
8
BLACK
6
CONTINUOUS
10
2.14018
20
-0.188544
11
2.13847
21
-0.181711
0
LINE
8
BLACK
6
CONTINUOUS
10
2.13847
20
-0.181711
11
2.13695
21
-0.17868
0
LINE
8
BLACK
6
CONTINUOUS
10
2.13695
20
-0.17868
11
2.13576
21
-0.177483
0
LINE
8
BLACK
6
CONTINUOUS
10
2.13576
20
-0.177483
11
2.13306
21
-0.176135
0
LINE
8
BLACK
6
CONTINUOUS
10
2.13306
20
-0.176135
11
2.1307
21
-0.176135
0
LINE
8
BLACK
6
CONTINUOUS
10
2.1307
20
-0.176135
11
2.12801
21
-0.177483
0
LINE
8
BLACK
6
CONTINUOUS
10
2.17976
20
-0.170407
11
2.18131
21
-0.171705
0
LINE
8
BLACK
6
CONTINUOUS
10
2.18131
20
-0.171705
11
2.18166
21
-0.173695
0
LINE
8
BLACK
6
CONTINUOUS
10
2.18166
20
-0.173695
11
2.18065
21
-0.175444
0
LINE
8
BLACK
6
CONTINUOUS
10
2.18065
20
-0.175444
11
2.17875
21
-0.176135
0
LINE
8
BLACK
6
CONTINUOUS
10
2.17875
20
-0.176135
11
2.16268
21
-0.176135
0
LINE
8
BLACK
6
CONTINUOUS
10
2.16268
20
-0.176135
11
2.1617
21
-0.185906
0
LINE
8
BLACK
6
CONTINUOUS
10
2.1617
20
-0.185906
11
2.16243
21
-0.185539
0
LINE
8
BLACK
6
CONTINUOUS
10
2.16243
20
-0.185539
11
2.16342
21
-0.185247
0
LINE
8
BLACK
6
CONTINUOUS
10
2.16342
20
-0.185247
11
2.16359
21
-0.185288
0
LINE
8
BLACK
6
CONTINUOUS
10
2.16359
20
-0.185288
11
2.16375
21
-0.185227
0
LINE
8
BLACK
6
CONTINUOUS
10
2.16375
20
-0.185227
11
2.17313
21
-0.185227
0
LINE
8
BLACK
6
CONTINUOUS
10
2.17313
20
-0.185227
11
2.17414
21
-0.185405
0
LINE
8
BLACK
6
CONTINUOUS
10
2.17414
20
-0.185405
11
2.17427
21
-0.185519
0
LINE
8
BLACK
6
CONTINUOUS
10
2.17427
20
-0.185519
11
2.17445
21
-0.185539
0
LINE
8
BLACK
6
CONTINUOUS
10
2.17445
20
-0.185539
11
2.1782
21
-0.187414
0
LINE
8
BLACK
6
CONTINUOUS
10
2.1782
20
-0.187414
11
2.17891
21
-0.18794
0
LINE
8
BLACK
6
CONTINUOUS
10
2.17891
20
-0.18794
11
2.17896
21
-0.187967
0
LINE
8
BLACK
6
CONTINUOUS
10
2.17896
20
-0.187967
11
2.18084
21
-0.189842
0
LINE
8
BLACK
6
CONTINUOUS
10
2.18084
20
-0.189842
11
2.18135
21
-0.190565
0
LINE
8
BLACK
6
CONTINUOUS
10
2.18135
20
-0.190565
11
2.18139
21
-0.190609
0
LINE
8
BLACK
6
CONTINUOUS
10
2.18139
20
-0.190609
11
2.18327
21
-0.194359
0
LINE
8
BLACK
6
CONTINUOUS
10
2.18327
20
-0.194359
11
2.18356
21
-0.195341
0
LINE
8
BLACK
6
CONTINUOUS
10
2.18356
20
-0.195341
11
2.18352
21
-0.195513
0
LINE
8
BLACK
6
CONTINUOUS
10
2.18352
20
-0.195513
11
2.18358
21
-0.195679
0
LINE
8
BLACK
6
CONTINUOUS
10
2.18358
20
-0.195679
11
2.18358
21
-0.205053
0
LINE
8
BLACK
6
CONTINUOUS
10
2.18358
20
-0.205053
11
2.1834
21
-0.206063
0
LINE
8
BLACK
6
CONTINUOUS
10
2.1834
20
-0.206063
11
2.18329
21
-0.206198
0
LINE
8
BLACK
6
CONTINUOUS
10
2.18329
20
-0.206198
11
2.18327
21
-0.206373
0
LINE
8
BLACK
6
CONTINUOUS
10
2.18327
20
-0.206373
11
2.18139
21
-0.210123
0
LINE
8
BLACK
6
CONTINUOUS
10
2.18139
20
-0.210123
11
2.18087
21
-0.210832
0
LINE
8
BLACK
6
CONTINUOUS
10
2.18087
20
-0.210832
11
2.18084
21
-0.21089
0
LINE
8
BLACK
6
CONTINUOUS
10
2.18084
20
-0.21089
11
2.17896
21
-0.212765
0
LINE
8
BLACK
6
CONTINUOUS
10
2.17896
20
-0.212765
11
2.17824
21
-0.213271
0
LINE
8
BLACK
6
CONTINUOUS
10
2.17824
20
-0.213271
11
2.1782
21
-0.213318
0
LINE
8
BLACK
6
CONTINUOUS
10
2.1782
20
-0.213318
11
2.17445
21
-0.215193
0
LINE
8
BLACK
6
CONTINUOUS
10
2.17445
20
-0.215193
11
2.17346
21
-0.215485
0
LINE
8
BLACK
6
CONTINUOUS
10
2.17346
20
-0.215485
11
2.17329
21
-0.215444
0
LINE
8
BLACK
6
CONTINUOUS
10
2.17329
20
-0.215444
11
2.17313
21
-0.215505
0
LINE
8
BLACK
6
CONTINUOUS
10
2.17313
20
-0.215505
11
2.16375
21
-0.215505
0
LINE
8
BLACK
6
CONTINUOUS
10
2.16375
20
-0.215505
11
2.16274
21
-0.215327
0
LINE
8
BLACK
6
CONTINUOUS
10
2.16274
20
-0.215327
11
2.16261
21
-0.215213
0
LINE
8
BLACK
6
CONTINUOUS
10
2.16261
20
-0.215213
11
2.16243
21
-0.215193
0
LINE
8
BLACK
6
CONTINUOUS
10
2.16243
20
-0.215193
11
2.15868
21
-0.213318
0
LINE
8
BLACK
6
CONTINUOUS
10
2.15868
20
-0.213318
11
2.15797
21
-0.212792
0
LINE
8
BLACK
6
CONTINUOUS
10
2.15797
20
-0.212792
11
2.15792
21
-0.212765
0
LINE
8
BLACK
6
CONTINUOUS
10
2.15792
20
-0.212765
11
2.15604
21
-0.21089
0
LINE
8
BLACK
6
CONTINUOUS
10
2.15604
20
-0.21089
11
2.15545
21
-0.21005
0
LINE
8
BLACK
6
CONTINUOUS
10
2.15545
20
-0.21005
11
2.15528
21
-0.208038
0
LINE
8
BLACK
6
CONTINUOUS
10
2.15528
20
-0.208038
11
2.15644
21
-0.206384
0
LINE
8
BLACK
6
CONTINUOUS
10
2.15644
20
-0.206384
11
2.15839
21
-0.205861
0
LINE
8
BLACK
6
CONTINUOUS
10
2.15839
20
-0.205861
11
2.16022
21
-0.206714
0
LINE
8
BLACK
6
CONTINUOUS
10
2.16022
20
-0.206714
11
2.16175
21
-0.20825
0
LINE
8
BLACK
6
CONTINUOUS
10
2.16175
20
-0.20825
11
2.16445
21
-0.209599
0
LINE
8
BLACK
6
CONTINUOUS
10
2.16445
20
-0.209599
11
2.17243
21
-0.209599
0
LINE
8
BLACK
6
CONTINUOUS
10
2.17243
20
-0.209599
11
2.17513
21
-0.20825
0
LINE
8
BLACK
6
CONTINUOUS
10
2.17513
20
-0.20825
11
2.17632
21
-0.207053
0
LINE
8
BLACK
6
CONTINUOUS
10
2.17632
20
-0.207053
11
2.17767
21
-0.204356
0
LINE
8
BLACK
6
CONTINUOUS
10
2.17767
20
-0.204356
11
2.17767
21
-0.196376
0
LINE
8
BLACK
6
CONTINUOUS
10
2.17767
20
-0.196376
11
2.17632
21
-0.193679
0
LINE
8
BLACK
6
CONTINUOUS
10
2.17632
20
-0.193679
11
2.17513
21
-0.192481
0
LINE
8
BLACK
6
CONTINUOUS
10
2.17513
20
-0.192481
11
2.17243
21
-0.191133
0
LINE
8
BLACK
6
CONTINUOUS
10
2.17243
20
-0.191133
11
2.16445
21
-0.191133
0
LINE
8
BLACK
6
CONTINUOUS
10
2.16445
20
-0.191133
11
2.16175
21
-0.192481
0
LINE
8
BLACK
6
CONTINUOUS
10
2.16175
20
-0.192481
11
2.16022
21
-0.194017
0
LINE
8
BLACK
6
CONTINUOUS
10
2.16022
20
-0.194017
11
2.15938
21
-0.194606
0
LINE
8
BLACK
6
CONTINUOUS
10
2.15938
20
-0.194606
11
2.15936
21
-0.194607
0
LINE
8
BLACK
6
CONTINUOUS
10
2.15936
20
-0.194607
11
2.15934
21
-0.194621
0
LINE
8
BLACK
6
CONTINUOUS
10
2.15934
20
-0.194621
11
2.15835
21
-0.194695
0
LINE
8
BLACK
6
CONTINUOUS
10
2.15835
20
-0.194695
11
2.15736
21
-0.194782
0
LINE
8
BLACK
6
CONTINUOUS
10
2.15736
20
-0.194782
11
2.15735
21
-0.19477
0
LINE
8
BLACK
6
CONTINUOUS
10
2.15735
20
-0.19477
11
2.15733
21
-0.194772
0
LINE
8
BLACK
6
CONTINUOUS
10
2.15733
20
-0.194772
11
2.15652
21
-0.194192
0
LINE
8
BLACK
6
CONTINUOUS
10
2.15652
20
-0.194192
11
2.15571
21
-0.193623
0
LINE
8
BLACK
6
CONTINUOUS
10
2.15571
20
-0.193623
11
2.15571
21
-0.193604
0
LINE
8
BLACK
6
CONTINUOUS
10
2.15571
20
-0.193604
11
2.15569
21
-0.193593
0
LINE
8
BLACK
6
CONTINUOUS
10
2.15569
20
-0.193593
11
2.15544
21
-0.192631
0
LINE
8
BLACK
6
CONTINUOUS
10
2.15544
20
-0.192631
11
2.15519
21
-0.191672
0
LINE
8
BLACK
6
CONTINUOUS
10
2.15519
20
-0.191672
11
2.1552
21
-0.191655
0
LINE
8
BLACK
6
CONTINUOUS
10
2.1552
20
-0.191655
11
2.15519
21
-0.191636
0
LINE
8
BLACK
6
CONTINUOUS
10
2.15519
20
-0.191636
11
2.15707
21
-0.172888
0
LINE
8
BLACK
6
CONTINUOUS
10
2.15707
20
-0.172888
11
2.15711
21
-0.172738
0
LINE
8
BLACK
6
CONTINUOUS
10
2.15711
20
-0.172738
11
2.1571
21
-0.172669
0
LINE
8
BLACK
6
CONTINUOUS
10
2.1571
20
-0.172669
11
2.15716
21
-0.172563
0
LINE
8
BLACK
6
CONTINUOUS
10
2.15716
20
-0.172563
11
2.15734
21
-0.171901
0
LINE
8
BLACK
6
CONTINUOUS
10
2.15734
20
-0.171901
11
2.15779
21
-0.171463
0
LINE
8
BLACK
6
CONTINUOUS
10
2.15779
20
-0.171463
11
2.15811
21
-0.17092
0
LINE
8
BLACK
6
CONTINUOUS
10
2.15811
20
-0.17092
11
2.15849
21
-0.170779
0
LINE
8
BLACK
6
CONTINUOUS
10
2.15849
20
-0.170779
11
2.15879
21
-0.17049
0
LINE
8
BLACK
6
CONTINUOUS
10
2.15879
20
-0.17049
11
2.15941
21
-0.170444
0
LINE
8
BLACK
6
CONTINUOUS
10
2.15941
20
-0.170444
11
2.16
21
-0.170229
0
LINE
8
BLACK
6
CONTINUOUS
10
2.16
20
-0.170229
11
2.17875
21
-0.170229
0
LINE
8
BLACK
6
CONTINUOUS
10
2.17875
20
-0.170229
11
2.17976
21
-0.170407
0
LINE
8
BLACK
6
CONTINUOUS
10
2.21163
20
-0.170407
11
2.21177
21
-0.170521
0
LINE
8
BLACK
6
CONTINUOUS
10
2.21177
20
-0.170521
11
2.21194
21
-0.170541
0
LINE
8
BLACK
6
CONTINUOUS
10
2.21194
20
-0.170541
11
2.21569
21
-0.172416
0
LINE
8
BLACK
6
CONTINUOUS
10
2.21569
20
-0.172416
11
2.2164
21
-0.172941
0
LINE
8
BLACK
6
CONTINUOUS
10
2.2164
20
-0.172941
11
2.21646
21
-0.172969
0
LINE
8
BLACK
6
CONTINUOUS
10
2.21646
20
-0.172969
11
2.21833
21
-0.174843
0
LINE
8
BLACK
6
CONTINUOUS
10
2.21833
20
-0.174843
11
2.21884
21
-0.175567
0
LINE
8
BLACK
6
CONTINUOUS
10
2.21884
20
-0.175567
11
2.21889
21
-0.175611
0
LINE
8
BLACK
6
CONTINUOUS
10
2.21889
20
-0.175611
11
2.22076
21
-0.17936
0
LINE
8
BLACK
6
CONTINUOUS
10
2.22076
20
-0.17936
11
2.22105
21
-0.180343
0
LINE
8
BLACK
6
CONTINUOUS
10
2.22105
20
-0.180343
11
2.22101
21
-0.180515
0
LINE
8
BLACK
6
CONTINUOUS
10
2.22101
20
-0.180515
11
2.22107
21
-0.180681
0
LINE
8
BLACK
6
CONTINUOUS
10
2.22107
20
-0.180681
11
2.22107
21
-0.18443
0
LINE
8
BLACK
6
CONTINUOUS
10
2.22107
20
-0.18443
11
2.22092
21
-0.1853
0
LINE
8
BLACK
6
CONTINUOUS
10
2.22092
20
-0.1853
11
2.22092
21
-0.185364
0
LINE
8
BLACK
6
CONTINUOUS
10
2.22092
20
-0.185364
11
2.21905
21
-0.190988
0
LINE
8
BLACK
6
CONTINUOUS
10
2.21905
20
-0.190988
11
2.21856
21
-0.19189
0
LINE
8
BLACK
6
CONTINUOUS
10
2.21856
20
-0.19189
11
2.21841
21
-0.191983
0
LINE
8
BLACK
6
CONTINUOUS
10
2.21841
20
-0.191983
11
2.21833
21
-0.192143
0
LINE
8
BLACK
6
CONTINUOUS
10
2.21833
20
-0.192143
11
2.20088
21
-0.209599
0
LINE
8
BLACK
6
CONTINUOUS
10
2.20088
20
-0.209599
11
2.21812
21
-0.209599
0
LINE
8
BLACK
6
CONTINUOUS
10
2.21812
20
-0.209599
11
2.21913
21
-0.209777
0
LINE
8
BLACK
6
CONTINUOUS
10
2.21913
20
-0.209777
11
2.22068
21
-0.211076
0
LINE
8
BLACK
6
CONTINUOUS
10
2.22068
20
-0.211076
11
2.22103
21
-0.213065
0
LINE
8
BLACK
6
CONTINUOUS
10
2.22103
20
-0.213065
11
2.22002
21
-0.214814
0
LINE
8
BLACK
6
CONTINUOUS
10
2.22002
20
-0.214814
11
2.21812
21
-0.215505
0
LINE
8
BLACK
6
CONTINUOUS
10
2.21812
20
-0.215505
11
2.19375
21
-0.215505
0
LINE
8
BLACK
6
CONTINUOUS
10
2.19375
20
-0.215505
11
2.19311
21
-0.215393
0
LINE
8
BLACK
6
CONTINUOUS
10
2.19311
20
-0.215393
11
2.19299
21
-0.215404
0
LINE
8
BLACK
6
CONTINUOUS
10
2.19299
20
-0.215404
11
2.19292
21
-0.215358
0
LINE
8
BLACK
6
CONTINUOUS
10
2.19292
20
-0.215358
11
2.19274
21
-0.215327
0
LINE
8
BLACK
6
CONTINUOUS
10
2.19274
20
-0.215327
11
2.19206
21
-0.214755
0
LINE
8
BLACK
6
CONTINUOUS
10
2.19206
20
-0.214755
11
2.19133
21
-0.214246
0
LINE
8
BLACK
6
CONTINUOUS
10
2.19133
20
-0.214246
11
2.1913
21
-0.214115
0
LINE
8
BLACK
6
CONTINUOUS
10
2.1913
20
-0.214115
11
2.19119
21
-0.214028
0
LINE
8
BLACK
6
CONTINUOUS
10
2.19119
20
-0.214028
11
2.19104
21
-0.213153
0
LINE
8
BLACK
6
CONTINUOUS
10
2.19104
20
-0.213153
11
2.19081
21
-0.212295
0
LINE
8
BLACK
6
CONTINUOUS
10
2.19081
20
-0.212295
11
2.19087
21
-0.212172
0
LINE
8
BLACK
6
CONTINUOUS
10
2.19087
20
-0.212172
11
2.19084
21
-0.212039
0
LINE
8
BLACK
6
CONTINUOUS
10
2.19084
20
-0.212039
11
2.19129
21
-0.211269
0
LINE
8
BLACK
6
CONTINUOUS
10
2.19129
20
-0.211269
11
2.19166
21
-0.210464
0
LINE
8
BLACK
6
CONTINUOUS
10
2.19166
20
-0.210464
11
2.21367
21
-0.18846
0
LINE
8
BLACK
6
CONTINUOUS
10
2.21367
20
-0.18846
11
2.21517
21
-0.183951
0
LINE
8
BLACK
6
CONTINUOUS
10
2.21517
20
-0.183951
11
2.21517
21
-0.181378
0
LINE
8
BLACK
6
CONTINUOUS
10
2.21517
20
-0.181378
11
2.21382
21
-0.17868
0
LINE
8
BLACK
6
CONTINUOUS
10
2.21382
20
-0.17868
11
2.21262
21
-0.177483
0
LINE
8
BLACK
6
CONTINUOUS
10
2.21262
20
-0.177483
11
2.20993
21
-0.176135
0
LINE
8
BLACK
6
CONTINUOUS
10
2.20993
20
-0.176135
11
2.20195
21
-0.176135
0
LINE
8
BLACK
6
CONTINUOUS
10
2.20195
20
-0.176135
11
2.19925
21
-0.177483
0
LINE
8
BLACK
6
CONTINUOUS
10
2.19925
20
-0.177483
11
2.19771
21
-0.179019
0
LINE
8
BLACK
6
CONTINUOUS
10
2.19771
20
-0.179019
11
2.19687
21
-0.179607
0
LINE
8
BLACK
6
CONTINUOUS
10
2.19687
20
-0.179607
11
2.19486
21
-0.179784
0
LINE
8
BLACK
6
CONTINUOUS
10
2.19486
20
-0.179784
11
2.19321
21
-0.178625
0
LINE
8
BLACK
6
CONTINUOUS
10
2.19321
20
-0.178625
11
2.19268
21
-0.176674
0
LINE
8
BLACK
6
CONTINUOUS
10
2.19268
20
-0.176674
11
2.19354
21
-0.174843
0
LINE
8
BLACK
6
CONTINUOUS
10
2.19354
20
-0.174843
11
2.19541
21
-0.172969
0
LINE
8
BLACK
6
CONTINUOUS
10
2.19541
20
-0.172969
11
2.19613
21
-0.172462
0
LINE
8
BLACK
6
CONTINUOUS
10
2.19613
20
-0.172462
11
2.19618
21
-0.172416
0
LINE
8
BLACK
6
CONTINUOUS
10
2.19618
20
-0.172416
11
2.19993
21
-0.170541
0
LINE
8
BLACK
6
CONTINUOUS
10
2.19993
20
-0.170541
11
2.20091
21
-0.170248
0
LINE
8
BLACK
6
CONTINUOUS
10
2.20091
20
-0.170248
11
2.20108
21
-0.170289
0
LINE
8
BLACK
6
CONTINUOUS
10
2.20108
20
-0.170289
11
2.20125
21
-0.170229
0
LINE
8
BLACK
6
CONTINUOUS
10
2.20125
20
-0.170229
11
2.21062
21
-0.170229
0
LINE
8
BLACK
6
CONTINUOUS
10
2.21062
20
-0.170229
11
2.21163
21
-0.170407
0
LINE
8
BLACK
6
CONTINUOUS
10
2.24725
20
-0.170407
11
2.24739
21
-0.170521
0
LINE
8
BLACK
6
CONTINUOUS
10
2.24739
20
-0.170521
11
2.24756
21
-0.170541
0
LINE
8
BLACK
6
CONTINUOUS
10
2.24756
20
-0.170541
11
2.25131
21
-0.172416
0
LINE
8
BLACK
6
CONTINUOUS
10
2.25131
20
-0.172416
11
2.25202
21
-0.172941
0
LINE
8
BLACK
6
CONTINUOUS
10
2.25202
20
-0.172941
11
2.25208
21
-0.172969
0
LINE
8
BLACK
6
CONTINUOUS
10
2.25208
20
-0.172969
11
2.25396
21
-0.174843
0
LINE
8
BLACK
6
CONTINUOUS
10
2.25396
20
-0.174843
11
2.25446
21
-0.175567
0
LINE
8
BLACK
6
CONTINUOUS
10
2.25446
20
-0.175567
11
2.25451
21
-0.175611
0
LINE
8
BLACK
6
CONTINUOUS
10
2.25451
20
-0.175611
11
2.25638
21
-0.17936
0
LINE
8
BLACK
6
CONTINUOUS
10
2.25638
20
-0.17936
11
2.25653
21
-0.179849
0
LINE
8
BLACK
6
CONTINUOUS
10
2.25653
20
-0.179849
11
2.25661
21
-0.179965
0
LINE
8
BLACK
6
CONTINUOUS
10
2.25661
20
-0.179965
11
2.25848
21
-0.187464
0
LINE
8
BLACK
6
CONTINUOUS
10
2.25848
20
-0.187464
11
2.25852
21
-0.188052
0
LINE
8
BLACK
6
CONTINUOUS
10
2.25852
20
-0.188052
11
2.25857
21
-0.18818
0
LINE
8
BLACK
6
CONTINUOUS
10
2.25857
20
-0.18818
11
2.25857
21
-0.197554
0
LINE
8
BLACK
6
CONTINUOUS
10
2.25857
20
-0.197554
11
2.25847
21
-0.198134
0
LINE
8
BLACK
6
CONTINUOUS
10
2.25847
20
-0.198134
11
2.25848
21
-0.19827
0
LINE
8
BLACK
6
CONTINUOUS
10
2.25848
20
-0.19827
11
2.25661
21
-0.205769
0
LINE
8
BLACK
6
CONTINUOUS
10
2.25661
20
-0.205769
11
2.2564
21
-0.206234
0
LINE
8
BLACK
6
CONTINUOUS
10
2.2564
20
-0.206234
11
2.25638
21
-0.206373
0
LINE
8
BLACK
6
CONTINUOUS
10
2.25638
20
-0.206373
11
2.25451
21
-0.210123
0
LINE
8
BLACK
6
CONTINUOUS
10
2.25451
20
-0.210123
11
2.25398
21
-0.210832
0
LINE
8
BLACK
6
CONTINUOUS
10
2.25398
20
-0.210832
11
2.25396
21
-0.21089
0
LINE
8
BLACK
6
CONTINUOUS
10
2.25396
20
-0.21089
11
2.25208
21
-0.212765
0
LINE
8
BLACK
6
CONTINUOUS
10
2.25208
20
-0.212765
11
2.25136
21
-0.213271
0
LINE
8
BLACK
6
CONTINUOUS
10
2.25136
20
-0.213271
11
2.25131
21
-0.213318
0
LINE
8
BLACK
6
CONTINUOUS
10
2.25131
20
-0.213318
11
2.24756
21
-0.215193
0
LINE
8
BLACK
6
CONTINUOUS
10
2.24756
20
-0.215193
11
2.24658
21
-0.215485
0
LINE
8
BLACK
6
CONTINUOUS
10
2.24658
20
-0.215485
11
2.24641
21
-0.215444
0
LINE
8
BLACK
6
CONTINUOUS
10
2.24641
20
-0.215444
11
2.24624
21
-0.215505
0
LINE
8
BLACK
6
CONTINUOUS
10
2.24624
20
-0.215505
11
2.24249
21
-0.215505
0
LINE
8
BLACK
6
CONTINUOUS
10
2.24249
20
-0.215505
11
2.24148
21
-0.215327
0
LINE
8
BLACK
6
CONTINUOUS
10
2.24148
20
-0.215327
11
2.24135
21
-0.215213
0
LINE
8
BLACK
6
CONTINUOUS
10
2.24135
20
-0.215213
11
2.24117
21
-0.215193
0
LINE
8
BLACK
6
CONTINUOUS
10
2.24117
20
-0.215193
11
2.23742
21
-0.213318
0
LINE
8
BLACK
6
CONTINUOUS
10
2.23742
20
-0.213318
11
2.23671
21
-0.212792
0
LINE
8
BLACK
6
CONTINUOUS
10
2.23671
20
-0.212792
11
2.23666
21
-0.212765
0
LINE
8
BLACK
6
CONTINUOUS
10
2.23666
20
-0.212765
11
2.23478
21
-0.21089
0
LINE
8
BLACK
6
CONTINUOUS
10
2.23478
20
-0.21089
11
2.23427
21
-0.210167
0
LINE
8
BLACK
6
CONTINUOUS
10
2.23427
20
-0.210167
11
2.23423
21
-0.210123
0
LINE
8
BLACK
6
CONTINUOUS
10
2.23423
20
-0.210123
11
2.23235
21
-0.206373
0
LINE
8
BLACK
6
CONTINUOUS
10
2.23235
20
-0.206373
11
2.23221
21
-0.205885
0
LINE
8
BLACK
6
CONTINUOUS
10
2.23221
20
-0.205885
11
2.23213
21
-0.205769
0
LINE
8
BLACK
6
CONTINUOUS
10
2.23213
20
-0.205769
11
2.23026
21
-0.19827
0
LINE
8
BLACK
6
CONTINUOUS
10
2.23026
20
-0.19827
11
2.23021
21
-0.197682
0
LINE
8
BLACK
6
CONTINUOUS
10
2.23021
20
-0.197682
11
2.23017
21
-0.197554
0
LINE
8
BLACK
6
CONTINUOUS
10
2.23017
20
-0.197554
11
2.23017
21
-0.18818
0
LINE
8
BLACK
6
CONTINUOUS
10
2.23017
20
-0.18818
11
2.23027
21
-0.1876
0
LINE
8
BLACK
6
CONTINUOUS
10
2.23027
20
-0.1876
11
2.23026
21
-0.187464
0
LINE
8
BLACK
6
CONTINUOUS
10
2.23026
20
-0.187464
11
2.23213
21
-0.179965
0
LINE
8
BLACK
6
CONTINUOUS
10
2.23213
20
-0.179965
11
2.23234
21
-0.179499
0
LINE
8
BLACK
6
CONTINUOUS
10
2.23234
20
-0.179499
11
2.23235
21
-0.17936
0
LINE
8
BLACK
6
CONTINUOUS
10
2.23235
20
-0.17936
11
2.23423
21
-0.175611
0
LINE
8
BLACK
6
CONTINUOUS
10
2.23423
20
-0.175611
11
2.23475
21
-0.174902
0
LINE
8
BLACK
6
CONTINUOUS
10
2.23475
20
-0.174902
11
2.23478
21
-0.174843
0
LINE
8
BLACK
6
CONTINUOUS
10
2.23478
20
-0.174843
11
2.23666
21
-0.172969
0
LINE
8
BLACK
6
CONTINUOUS
10
2.23666
20
-0.172969
11
2.23738
21
-0.172462
0
LINE
8
BLACK
6
CONTINUOUS
10
2.23738
20
-0.172462
11
2.23742
21
-0.172416
0
LINE
8
BLACK
6
CONTINUOUS
10
2.23742
20
-0.172416
11
2.24117
21
-0.170541
0
LINE
8
BLACK
6
CONTINUOUS
10
2.24117
20
-0.170541
11
2.24216
21
-0.170248
0
LINE
8
BLACK
6
CONTINUOUS
10
2.24216
20
-0.170248
11
2.24233
21
-0.170289
0
LINE
8
BLACK
6
CONTINUOUS
10
2.24233
20
-0.170289
11
2.24249
21
-0.170229
0
LINE
8
BLACK
6
CONTINUOUS
10
2.24249
20
-0.170229
11
2.24624
21
-0.170229
0
LINE
8
BLACK
6
CONTINUOUS
10
2.24624
20
-0.170229
11
2.24725
21
-0.170407
0
LINE
8
BLACK
6
CONTINUOUS
10
2.24049
20
-0.177483
11
2.2393
21
-0.17868
0
LINE
8
BLACK
6
CONTINUOUS
10
2.2393
20
-0.17868
11
2.23778
21
-0.181711
0
LINE
8
BLACK
6
CONTINUOUS
10
2.23778
20
-0.181711
11
2.23607
21
-0.188544
0
LINE
8
BLACK
6
CONTINUOUS
10
2.23607
20
-0.188544
11
2.23607
21
-0.19719
0
LINE
8
BLACK
6
CONTINUOUS
10
2.23607
20
-0.19719
11
2.23778
21
-0.204022
0
LINE
8
BLACK
6
CONTINUOUS
10
2.23778
20
-0.204022
11
2.2393
21
-0.207053
0
LINE
8
BLACK
6
CONTINUOUS
10
2.2393
20
-0.207053
11
2.24049
21
-0.20825
0
LINE
8
BLACK
6
CONTINUOUS
10
2.24049
20
-0.20825
11
2.24319
21
-0.209599
0
LINE
8
BLACK
6
CONTINUOUS
10
2.24319
20
-0.209599
11
2.24555
21
-0.209599
0
LINE
8
BLACK
6
CONTINUOUS
10
2.24555
20
-0.209599
11
2.24824
21
-0.20825
0
LINE
8
BLACK
6
CONTINUOUS
10
2.24824
20
-0.20825
11
2.24944
21
-0.207053
0
LINE
8
BLACK
6
CONTINUOUS
10
2.24944
20
-0.207053
11
2.25096
21
-0.204022
0
LINE
8
BLACK
6
CONTINUOUS
10
2.25096
20
-0.204022
11
2.25266
21
-0.19719
0
LINE
8
BLACK
6
CONTINUOUS
10
2.25266
20
-0.19719
11
2.25266
21
-0.188544
0
LINE
8
BLACK
6
CONTINUOUS
10
2.25266
20
-0.188544
11
2.25096
21
-0.181711
0
LINE
8
BLACK
6
CONTINUOUS
10
2.25096
20
-0.181711
11
2.24944
21
-0.17868
0
LINE
8
BLACK
6
CONTINUOUS
10
2.24944
20
-0.17868
11
2.24824
21
-0.177483
0
LINE
8
BLACK
6
CONTINUOUS
10
2.24824
20
-0.177483
11
2.24555
21
-0.176135
0
LINE
8
BLACK
6
CONTINUOUS
10
2.24555
20
-0.176135
11
2.24319
21
-0.176135
0
LINE
8
BLACK
6
CONTINUOUS
10
2.24319
20
-0.176135
11
2.24049
21
-0.177483
0
LINE
8
BLACK
6
CONTINUOUS
10
2.10414
20
-0.205918
11
2.10427
21
-0.205894
0
LINE
8
BLACK
6
CONTINUOUS
10
2.10427
20
-0.205894
11
2.10439
21
-0.205962
0
LINE
8
BLACK
6
CONTINUOUS
10
2.10439
20
-0.205962
11
2.10452
21
-0.20595
0
LINE
8
BLACK
6
CONTINUOUS
10
2.10452
20
-0.20595
11
2.10515
21
-0.20639
0
LINE
8
BLACK
6
CONTINUOUS
10
2.10515
20
-0.20639
11
2.10585
21
-0.206714
0
LINE
8
BLACK
6
CONTINUOUS
10
2.10585
20
-0.206714
11
2.10772
21
-0.208589
0
LINE
8
BLACK
6
CONTINUOUS
10
2.10772
20
-0.208589
11
2.10795
21
-0.208908
0
LINE
8
BLACK
6
CONTINUOUS
10
2.10795
20
-0.208908
11
2.10805
21
-0.208984
0
LINE
8
BLACK
6
CONTINUOUS
10
2.10805
20
-0.208984
11
2.10809
21
-0.20911
0
LINE
8
BLACK
6
CONTINUOUS
10
2.10809
20
-0.20911
11
2.10831
21
-0.209429
0
LINE
8
BLACK
6
CONTINUOUS
10
2.10831
20
-0.209429
11
2.10838
21
-0.210194
0
LINE
8
BLACK
6
CONTINUOUS
10
2.10838
20
-0.210194
11
2.10858
21
-0.210935
0
LINE
8
BLACK
6
CONTINUOUS
10
2.10858
20
-0.210935
11
2.10846
21
-0.211176
0
LINE
8
BLACK
6
CONTINUOUS
10
2.10846
20
-0.211176
11
2.10849
21
-0.211441
0
LINE
8
BLACK
6
CONTINUOUS
10
2.10849
20
-0.211441
11
2.10805
21
-0.21207
0
LINE
8
BLACK
6
CONTINUOUS
10
2.10805
20
-0.21207
11
2.10772
21
-0.212765
0
LINE
8
BLACK
6
CONTINUOUS
10
2.10772
20
-0.212765
11
2.10585
21
-0.21464
0
LINE
8
BLACK
6
CONTINUOUS
10
2.10585
20
-0.21464
11
2.10553
21
-0.214863
0
LINE
8
BLACK
6
CONTINUOUS
10
2.10553
20
-0.214863
11
2.10545
21
-0.214971
0
LINE
8
BLACK
6
CONTINUOUS
10
2.10545
20
-0.214971
11
2.10533
21
-0.215005
0
LINE
8
BLACK
6
CONTINUOUS
10
2.10533
20
-0.215005
11
2.10532
21
-0.21501
0
LINE
8
BLACK
6
CONTINUOUS
10
2.10532
20
-0.21501
11
2.10524
21
-0.215109
0
LINE
8
BLACK
6
CONTINUOUS
10
2.10524
20
-0.215109
11
2.10516
21
-0.215123
0
LINE
8
BLACK
6
CONTINUOUS
10
2.10516
20
-0.215123
11
2.10501
21
-0.215228
0
LINE
8
BLACK
6
CONTINUOUS
10
2.10501
20
-0.215228
11
2.10424
21
-0.215295
0
LINE
8
BLACK
6
CONTINUOUS
10
2.10424
20
-0.215295
11
2.1035
21
-0.215493
0
LINE
8
BLACK
6
CONTINUOUS
10
2.1035
20
-0.215493
11
2.10338
21
-0.215436
0
LINE
8
BLACK
6
CONTINUOUS
10
2.10338
20
-0.215436
11
2.10325
21
-0.21546
0
LINE
8
BLACK
6
CONTINUOUS
10
2.10325
20
-0.21546
11
2.10313
21
-0.215392
0
LINE
8
BLACK
6
CONTINUOUS
10
2.10313
20
-0.215392
11
2.103
21
-0.215404
0
LINE
8
BLACK
6
CONTINUOUS
10
2.103
20
-0.215404
11
2.10237
21
-0.214964
0
LINE
8
BLACK
6
CONTINUOUS
10
2.10237
20
-0.214964
11
2.10167
21
-0.21464
0
LINE
8
BLACK
6
CONTINUOUS
10
2.10167
20
-0.21464
11
2.0998
21
-0.212765
0
LINE
8
BLACK
6
CONTINUOUS
10
2.0998
20
-0.212765
11
2.09957
21
-0.212446
0
LINE
8
BLACK
6
CONTINUOUS
10
2.09957
20
-0.212446
11
2.09947
21
-0.212371
0
LINE
8
BLACK
6
CONTINUOUS
10
2.09947
20
-0.212371
11
2.09943
21
-0.212244
0
LINE
8
BLACK
6
CONTINUOUS
10
2.09943
20
-0.212244
11
2.09921
21
-0.211925
0
LINE
8
BLACK
6
CONTINUOUS
10
2.09921
20
-0.211925
11
2.09914
21
-0.211161
0
LINE
8
BLACK
6
CONTINUOUS
10
2.09914
20
-0.211161
11
2.09894
21
-0.21042
0
LINE
8
BLACK
6
CONTINUOUS
10
2.09894
20
-0.21042
11
2.09906
21
-0.210178
0
LINE
8
BLACK
6
CONTINUOUS
10
2.09906
20
-0.210178
11
2.09903
21
-0.209913
0
LINE
8
BLACK
6
CONTINUOUS
10
2.09903
20
-0.209913
11
2.09947
21
-0.209284
0
LINE
8
BLACK
6
CONTINUOUS
10
2.09947
20
-0.209284
11
2.0998
21
-0.208589
0
LINE
8
BLACK
6
CONTINUOUS
10
2.0998
20
-0.208589
11
2.10167
21
-0.206714
0
LINE
8
BLACK
6
CONTINUOUS
10
2.10167
20
-0.206714
11
2.10199
21
-0.206491
0
LINE
8
BLACK
6
CONTINUOUS
10
2.10199
20
-0.206491
11
2.10207
21
-0.206384
0
LINE
8
BLACK
6
CONTINUOUS
10
2.10207
20
-0.206384
11
2.10219
21
-0.20635
0
LINE
8
BLACK
6
CONTINUOUS
10
2.10219
20
-0.20635
11
2.1022
21
-0.206345
0
LINE
8
BLACK
6
CONTINUOUS
10
2.1022
20
-0.206345
11
2.10228
21
-0.206245
0
LINE
8
BLACK
6
CONTINUOUS
10
2.10228
20
-0.206245
11
2.10236
21
-0.206231
0
LINE
8
BLACK
6
CONTINUOUS
10
2.10236
20
-0.206231
11
2.10251
21
-0.206126
0
LINE
8
BLACK
6
CONTINUOUS
10
2.10251
20
-0.206126
11
2.10328
21
-0.206059
0
LINE
8
BLACK
6
CONTINUOUS
10
2.10328
20
-0.206059
11
2.10402
21
-0.205861
0
LINE
8
BLACK
6
CONTINUOUS
10
2.10402
20
-0.205861
11
2.10414
21
-0.205918
0
LINE
8
BLACK
6
CONTINUOUS
10
2.31474
20
-0.183531
11
2.31488
21
-0.183644
0
LINE
8
BLACK
6
CONTINUOUS
10
2.31488
20
-0.183644
11
2.31506
21
-0.183664
0
LINE
8
BLACK
6
CONTINUOUS
10
2.31506
20
-0.183664
11
2.3188
21
-0.185539
0
LINE
8
BLACK
6
CONTINUOUS
10
2.3188
20
-0.185539
11
2.31937
21
-0.185962
0
LINE
8
BLACK
6
CONTINUOUS
10
2.31937
20
-0.185962
11
2.31961
21
-0.18586
0
LINE
8
BLACK
6
CONTINUOUS
10
2.31961
20
-0.18586
11
2.31991
21
-0.185539
0
LINE
8
BLACK
6
CONTINUOUS
10
2.31991
20
-0.185539
11
2.32366
21
-0.183664
0
LINE
8
BLACK
6
CONTINUOUS
10
2.32366
20
-0.183664
11
2.32465
21
-0.183372
0
LINE
8
BLACK
6
CONTINUOUS
10
2.32465
20
-0.183372
11
2.32482
21
-0.183413
0
LINE
8
BLACK
6
CONTINUOUS
10
2.32482
20
-0.183413
11
2.32498
21
-0.183352
0
LINE
8
BLACK
6
CONTINUOUS
10
2.32498
20
-0.183352
11
2.33061
21
-0.183352
0
LINE
8
BLACK
6
CONTINUOUS
10
2.33061
20
-0.183352
11
2.33162
21
-0.183531
0
LINE
8
BLACK
6
CONTINUOUS
10
2.33162
20
-0.183531
11
2.33175
21
-0.183644
0
LINE
8
BLACK
6
CONTINUOUS
10
2.33175
20
-0.183644
11
2.33193
21
-0.183664
0
LINE
8
BLACK
6
CONTINUOUS
10
2.33193
20
-0.183664
11
2.33568
21
-0.185539
0
LINE
8
BLACK
6
CONTINUOUS
10
2.33568
20
-0.185539
11
2.3365
21
-0.18615
0
LINE
8
BLACK
6
CONTINUOUS
10
2.3365
20
-0.18615
11
2.33668
21
-0.186556
0
LINE
8
BLACK
6
CONTINUOUS
10
2.33668
20
-0.186556
11
2.337
21
-0.186859
0
LINE
8
BLACK
6
CONTINUOUS
10
2.337
20
-0.186859
11
2.33887
21
-0.190609
0
LINE
8
BLACK
6
CONTINUOUS
10
2.33887
20
-0.190609
11
2.33917
21
-0.191592
0
LINE
8
BLACK
6
CONTINUOUS
10
2.33917
20
-0.191592
11
2.33912
21
-0.191764
0
LINE
8
BLACK
6
CONTINUOUS
10
2.33912
20
-0.191764
11
2.33918
21
-0.191929
0
LINE
8
BLACK
6
CONTINUOUS
10
2.33918
20
-0.191929
11
2.33918
21
-0.212552
0
LINE
8
BLACK
6
CONTINUOUS
10
2.33918
20
-0.212552
11
2.33901
21
-0.213562
0
LINE
8
BLACK
6
CONTINUOUS
10
2.33901
20
-0.213562
11
2.33771
21
-0.215109
0
LINE
8
BLACK
6
CONTINUOUS
10
2.33771
20
-0.215109
11
2.33572
21
-0.21546
0
LINE
8
BLACK
6
CONTINUOUS
10
2.33572
20
-0.21546
11
2.33397
21
-0.21445
0
LINE
8
BLACK
6
CONTINUOUS
10
2.33397
20
-0.21445
11
2.33328
21
-0.212552
0
LINE
8
BLACK
6
CONTINUOUS
10
2.33328
20
-0.212552
11
2.33328
21
-0.192627
0
LINE
8
BLACK
6
CONTINUOUS
10
2.33328
20
-0.192627
11
2.33216
21
-0.190381
0
LINE
8
BLACK
6
CONTINUOUS
10
2.33216
20
-0.190381
11
2.32991
21
-0.189258
0
LINE
8
BLACK
6
CONTINUOUS
10
2.32991
20
-0.189258
11
2.32568
21
-0.189258
0
LINE
8
BLACK
6
CONTINUOUS
10
2.32568
20
-0.189258
11
2.32343
21
-0.190381
0
LINE
8
BLACK
6
CONTINUOUS
10
2.32343
20
-0.190381
11
2.32231
21
-0.192627
0
LINE
8
BLACK
6
CONTINUOUS
10
2.32231
20
-0.192627
11
2.32231
21
-0.212552
0
LINE
8
BLACK
6
CONTINUOUS
10
2.32231
20
-0.212552
11
2.32213
21
-0.213562
0
LINE
8
BLACK
6
CONTINUOUS
10
2.32213
20
-0.213562
11
2.32084
21
-0.215109
0
LINE
8
BLACK
6
CONTINUOUS
10
2.32084
20
-0.215109
11
2.31885
21
-0.21546
0
LINE
8
BLACK
6
CONTINUOUS
10
2.31885
20
-0.21546
11
2.3171
21
-0.21445
0
LINE
8
BLACK
6
CONTINUOUS
10
2.3171
20
-0.21445
11
2.31641
21
-0.212552
0
LINE
8
BLACK
6
CONTINUOUS
10
2.31641
20
-0.212552
11
2.31641
21
-0.192627
0
LINE
8
BLACK
6
CONTINUOUS
10
2.31641
20
-0.192627
11
2.31528
21
-0.190381
0
LINE
8
BLACK
6
CONTINUOUS
10
2.31528
20
-0.190381
11
2.31304
21
-0.189258
0
LINE
8
BLACK
6
CONTINUOUS
10
2.31304
20
-0.189258
11
2.30881
21
-0.189258
0
LINE
8
BLACK
6
CONTINUOUS
10
2.30881
20
-0.189258
11
2.30611
21
-0.190607
0
LINE
8
BLACK
6
CONTINUOUS
10
2.30611
20
-0.190607
11
2.30544
21
-0.191278
0
LINE
8
BLACK
6
CONTINUOUS
10
2.30544
20
-0.191278
11
2.30544
21
-0.212552
0
LINE
8
BLACK
6
CONTINUOUS
10
2.30544
20
-0.212552
11
2.30526
21
-0.213562
0
LINE
8
BLACK
6
CONTINUOUS
10
2.30526
20
-0.213562
11
2.30396
21
-0.215109
0
LINE
8
BLACK
6
CONTINUOUS
10
2.30396
20
-0.215109
11
2.30197
21
-0.21546
0
LINE
8
BLACK
6
CONTINUOUS
10
2.30197
20
-0.21546
11
2.30022
21
-0.21445
0
LINE
8
BLACK
6
CONTINUOUS
10
2.30022
20
-0.21445
11
2.29953
21
-0.212552
0
LINE
8
BLACK
6
CONTINUOUS
10
2.29953
20
-0.212552
11
2.29953
21
-0.186305
0
LINE
8
BLACK
6
CONTINUOUS
10
2.29953
20
-0.186305
11
2.29971
21
-0.185295
0
LINE
8
BLACK
6
CONTINUOUS
10
2.29971
20
-0.185295
11
2.30101
21
-0.183748
0
LINE
8
BLACK
6
CONTINUOUS
10
2.30101
20
-0.183748
11
2.303
21
-0.183397
0
LINE
8
BLACK
6
CONTINUOUS
10
2.303
20
-0.183397
11
2.30475
21
-0.184407
0
LINE
8
BLACK
6
CONTINUOUS
10
2.30475
20
-0.184407
11
2.30483
21
-0.184642
0
LINE
8
BLACK
6
CONTINUOUS
10
2.30483
20
-0.184642
11
2.30679
21
-0.183664
0
LINE
8
BLACK
6
CONTINUOUS
10
2.30679
20
-0.183664
11
2.30777
21
-0.183372
0
LINE
8
BLACK
6
CONTINUOUS
10
2.30777
20
-0.183372
11
2.30794
21
-0.183413
0
LINE
8
BLACK
6
CONTINUOUS
10
2.30794
20
-0.183413
11
2.30811
21
-0.183352
0
LINE
8
BLACK
6
CONTINUOUS
10
2.30811
20
-0.183352
11
2.31373
21
-0.183352
0
LINE
8
BLACK
6
CONTINUOUS
10
2.31373
20
-0.183352
11
2.31474
21
-0.183531
0
LINE
8
BLACK
6
CONTINUOUS
10
2.36724
20
-0.183531
11
2.36737
21
-0.183644
0
LINE
8
BLACK
6
CONTINUOUS
10
2.36737
20
-0.183644
11
2.36755
21
-0.183664
0
LINE
8
BLACK
6
CONTINUOUS
10
2.36755
20
-0.183664
11
2.3713
21
-0.185539
0
LINE
8
BLACK
6
CONTINUOUS
10
2.3713
20
-0.185539
11
2.37187
21
-0.185962
0
LINE
8
BLACK
6
CONTINUOUS
10
2.37187
20
-0.185962
11
2.3721
21
-0.18586
0
LINE
8
BLACK
6
CONTINUOUS
10
2.3721
20
-0.18586
11
2.37241
21
-0.185539
0
LINE
8
BLACK
6
CONTINUOUS
10
2.37241
20
-0.185539
11
2.37616
21
-0.183664
0
LINE
8
BLACK
6
CONTINUOUS
10
2.37616
20
-0.183664
11
2.37714
21
-0.183372
0
LINE
8
BLACK
6
CONTINUOUS
10
2.37714
20
-0.183372
11
2.37731
21
-0.183413
0
LINE
8
BLACK
6
CONTINUOUS
10
2.37731
20
-0.183413
11
2.37748
21
-0.183352
0
LINE
8
BLACK
6
CONTINUOUS
10
2.37748
20
-0.183352
11
2.3831
21
-0.183352
0
LINE
8
BLACK
6
CONTINUOUS
10
2.3831
20
-0.183352
11
2.38411
21
-0.183531
0
LINE
8
BLACK
6
CONTINUOUS
10
2.38411
20
-0.183531
11
2.38425
21
-0.183644
0
LINE
8
BLACK
6
CONTINUOUS
10
2.38425
20
-0.183644
11
2.38442
21
-0.183664
0
LINE
8
BLACK
6
CONTINUOUS
10
2.38442
20
-0.183664
11
2.38817
21
-0.185539
0
LINE
8
BLACK
6
CONTINUOUS
10
2.38817
20
-0.185539
11
2.38899
21
-0.18615
0
LINE
8
BLACK
6
CONTINUOUS
10
2.38899
20
-0.18615
11
2.38917
21
-0.186556
0
LINE
8
BLACK
6
CONTINUOUS
10
2.38917
20
-0.186556
11
2.38949
21
-0.186859
0
LINE
8
BLACK
6
CONTINUOUS
10
2.38949
20
-0.186859
11
2.39137
21
-0.190609
0
LINE
8
BLACK
6
CONTINUOUS
10
2.39137
20
-0.190609
11
2.39166
21
-0.191592
0
LINE
8
BLACK
6
CONTINUOUS
10
2.39166
20
-0.191592
11
2.39162
21
-0.191764
0
LINE
8
BLACK
6
CONTINUOUS
10
2.39162
20
-0.191764
11
2.39168
21
-0.191929
0
LINE
8
BLACK
6
CONTINUOUS
10
2.39168
20
-0.191929
11
2.39168
21
-0.212552
0
LINE
8
BLACK
6
CONTINUOUS
10
2.39168
20
-0.212552
11
2.3915
21
-0.213562
0
LINE
8
BLACK
6
CONTINUOUS
10
2.3915
20
-0.213562
11
2.3902
21
-0.215109
0
LINE
8
BLACK
6
CONTINUOUS
10
2.3902
20
-0.215109
11
2.38821
21
-0.21546
0
LINE
8
BLACK
6
CONTINUOUS
10
2.38821
20
-0.21546
11
2.38646
21
-0.21445
0
LINE
8
BLACK
6
CONTINUOUS
10
2.38646
20
-0.21445
11
2.38577
21
-0.212552
0
LINE
8
BLACK
6
CONTINUOUS
10
2.38577
20
-0.212552
11
2.38577
21
-0.192627
0
LINE
8
BLACK
6
CONTINUOUS
10
2.38577
20
-0.192627
11
2.38465
21
-0.190381
0
LINE
8
BLACK
6
CONTINUOUS
10
2.38465
20
-0.190381
11
2.3824
21
-0.189258
0
LINE
8
BLACK
6
CONTINUOUS
10
2.3824
20
-0.189258
11
2.37817
21
-0.189258
0
LINE
8
BLACK
6
CONTINUOUS
10
2.37817
20
-0.189258
11
2.37593
21
-0.190381
0
LINE
8
BLACK
6
CONTINUOUS
10
2.37593
20
-0.190381
11
2.3748
21
-0.192627
0
LINE
8
BLACK
6
CONTINUOUS
10
2.3748
20
-0.192627
11
2.3748
21
-0.212552
0
LINE
8
BLACK
6
CONTINUOUS
10
2.3748
20
-0.212552
11
2.37463
21
-0.213562
0
LINE
8
BLACK
6
CONTINUOUS
10
2.37463
20
-0.213562
11
2.37333
21
-0.215109
0
LINE
8
BLACK
6
CONTINUOUS
10
2.37333
20
-0.215109
11
2.37134
21
-0.21546
0
LINE
8
BLACK
6
CONTINUOUS
10
2.37134
20
-0.21546
11
2.36959
21
-0.21445
0
LINE
8
BLACK
6
CONTINUOUS
10
2.36959
20
-0.21445
11
2.3689
21
-0.212552
0
LINE
8
BLACK
6
CONTINUOUS
10
2.3689
20
-0.212552
11
2.3689
21
-0.192627
0
LINE
8
BLACK
6
CONTINUOUS
10
2.3689
20
-0.192627
11
2.36778
21
-0.190381
0
LINE
8
BLACK
6
CONTINUOUS
10
2.36778
20
-0.190381
11
2.36553
21
-0.189258
0
LINE
8
BLACK
6
CONTINUOUS
10
2.36553
20
-0.189258
11
2.3613
21
-0.189258
0
LINE
8
BLACK
6
CONTINUOUS
10
2.3613
20
-0.189258
11
2.3586
21
-0.190607
0
LINE
8
BLACK
6
CONTINUOUS
10
2.3586
20
-0.190607
11
2.35793
21
-0.191278
0
LINE
8
BLACK
6
CONTINUOUS
10
2.35793
20
-0.191278
11
2.35793
21
-0.212552
0
LINE
8
BLACK
6
CONTINUOUS
10
2.35793
20
-0.212552
11
2.35775
21
-0.213562
0
LINE
8
BLACK
6
CONTINUOUS
10
2.35775
20
-0.213562
11
2.35646
21
-0.215109
0
LINE
8
BLACK
6
CONTINUOUS
10
2.35646
20
-0.215109
11
2.35447
21
-0.21546
0
LINE
8
BLACK
6
CONTINUOUS
10
2.35447
20
-0.21546
11
2.35272
21
-0.21445
0
LINE
8
BLACK
6
CONTINUOUS
10
2.35272
20
-0.21445
11
2.35203
21
-0.212552
0
LINE
8
BLACK
6
CONTINUOUS
10
2.35203
20
-0.212552
11
2.35203
21
-0.186305
0
LINE
8
BLACK
6
CONTINUOUS
10
2.35203
20
-0.186305
11
2.3522
21
-0.185295
0
LINE
8
BLACK
6
CONTINUOUS
10
2.3522
20
-0.185295
11
2.3535
21
-0.183748
0
LINE
8
BLACK
6
CONTINUOUS
10
2.3535
20
-0.183748
11
2.35549
21
-0.183397
0
LINE
8
BLACK
6
CONTINUOUS
10
2.35549
20
-0.183397
11
2.35724
21
-0.184407
0
LINE
8
BLACK
6
CONTINUOUS
10
2.35724
20
-0.184407
11
2.35733
21
-0.184642
0
LINE
8
BLACK
6
CONTINUOUS
10
2.35733
20
-0.184642
11
2.35928
21
-0.183664
0
LINE
8
BLACK
6
CONTINUOUS
10
2.35928
20
-0.183664
11
2.36027
21
-0.183372
0
LINE
8
BLACK
6
CONTINUOUS
10
2.36027
20
-0.183372
11
2.36044
21
-0.183413
0
LINE
8
BLACK
6
CONTINUOUS
10
2.36044
20
-0.183413
11
2.3606
21
-0.183352
0
LINE
8
BLACK
6
CONTINUOUS
10
2.3606
20
-0.183352
11
2.36623
21
-0.183352
0
LINE
8
BLACK
6
CONTINUOUS
10
2.36623
20
-0.183352
11
2.36724
21
-0.183531
0
LINE
8
BLACK
6
CONTINUOUS
10
-0.572031
20
3.42639
11
-0.57134
21
3.4245
0
LINE
8
BLACK
6
CONTINUOUS
10
-0.57134
20
3.4245
11
-0.57134
21
3.39145
0
LINE
8
BLACK
6
CONTINUOUS
10
-0.57134
20
3.39145
11
-0.570217
21
3.3892
0
LINE
8
BLACK
6
CONTINUOUS
10
-0.570217
20
3.3892
11
-0.567348
21
3.38777
0
LINE
8
BLACK
6
CONTINUOUS
10
-0.567348
20
3.38777
11
-0.566524
21
3.38716
0
LINE
8
BLACK
6
CONTINUOUS
10
-0.566524
20
3.38716
11
-0.565721
21
3.3853
0
LINE
8
BLACK
6
CONTINUOUS
10
-0.565721
20
3.3853
11
-0.566297
21
3.38337
0
LINE
8
BLACK
6
CONTINUOUS
10
-0.566297
20
3.38337
11
-0.566923
21
3.38295
0
LINE
8
BLACK
6
CONTINUOUS
10
-0.566923
20
3.38295
11
-0.552178
21
3.38295
0
LINE
8
BLACK
6
CONTINUOUS
10
-0.552178
20
3.38295
11
-0.554991
21
3.38436
0
LINE
8
BLACK
6
CONTINUOUS
10
-0.554991
20
3.38436
11
-0.555814
21
3.38497
0
LINE
8
BLACK
6
CONTINUOUS
10
-0.555814
20
3.38497
11
-0.55599
21
3.38538
0
LINE
8
BLACK
6
CONTINUOUS
10
-0.55599
20
3.38538
11
-0.556311
21
3.38568
0
LINE
8
BLACK
6
CONTINUOUS
10
-0.556311
20
3.38568
11
-0.558186
21
3.38943
0
LINE
8
BLACK
6
CONTINUOUS
10
-0.558186
20
3.38943
11
-0.558478
21
3.39041
0
LINE
8
BLACK
6
CONTINUOUS
10
-0.558478
20
3.39041
11
-0.558437
21
3.39058
0
LINE
8
BLACK
6
CONTINUOUS
10
-0.558437
20
3.39058
11
-0.558498
21
3.39075
0
LINE
8
BLACK
6
CONTINUOUS
10
-0.558498
20
3.39075
11
-0.558498
21
3.40575
0
LINE
8
BLACK
6
CONTINUOUS
10
-0.558498
20
3.40575
11
-0.558319
21
3.40676
0
LINE
8
BLACK
6
CONTINUOUS
10
-0.558319
20
3.40676
11
-0.558206
21
3.40689
0
LINE
8
BLACK
6
CONTINUOUS
10
-0.558206
20
3.40689
11
-0.558186
21
3.40707
0
LINE
8
BLACK
6
CONTINUOUS
10
-0.558186
20
3.40707
11
-0.556311
21
3.41082
0
LINE
8
BLACK
6
CONTINUOUS
10
-0.556311
20
3.41082
11
-0.5557
21
3.41164
0
LINE
8
BLACK
6
CONTINUOUS
10
-0.5557
20
3.41164
11
-0.555294
21
3.41182
0
LINE
8
BLACK
6
CONTINUOUS
10
-0.555294
20
3.41182
11
-0.554991
21
3.41214
0
LINE
8
BLACK
6
CONTINUOUS
10
-0.554991
20
3.41214
11
-0.551241
21
3.41401
0
LINE
8
BLACK
6
CONTINUOUS
10
-0.551241
20
3.41401
11
-0.550258
21
3.41431
0
LINE
8
BLACK
6
CONTINUOUS
10
-0.550258
20
3.41431
11
-0.550086
21
3.41426
0
LINE
8
BLACK
6
CONTINUOUS
10
-0.550086
20
3.41426
11
-0.549921
21
3.41432
0
LINE
8
BLACK
6
CONTINUOUS
10
-0.549921
20
3.41432
11
-0.542421
21
3.41432
0
LINE
8
BLACK
6
CONTINUOUS
10
-0.542421
20
3.41432
11
-0.541412
21
3.41415
0
LINE
8
BLACK
6
CONTINUOUS
10
-0.541412
20
3.41415
11
-0.541276
21
3.41403
0
LINE
8
BLACK
6
CONTINUOUS
10
-0.541276
20
3.41403
11
-0.541101
21
3.41401
0
LINE
8
BLACK
6
CONTINUOUS
10
-0.541101
20
3.41401
11
-0.537351
21
3.41214
0
LINE
8
BLACK
6
CONTINUOUS
10
-0.537351
20
3.41214
11
-0.536528
21
3.41153
0
LINE
8
BLACK
6
CONTINUOUS
10
-0.536528
20
3.41153
11
-0.536352
21
3.41112
0
LINE
8
BLACK
6
CONTINUOUS
10
-0.536352
20
3.41112
11
-0.536031
21
3.41082
0
LINE
8
BLACK
6
CONTINUOUS
10
-0.536031
20
3.41082
11
-0.534156
21
3.40707
0
LINE
8
BLACK
6
CONTINUOUS
10
-0.534156
20
3.40707
11
-0.533864
21
3.40609
0
LINE
8
BLACK
6
CONTINUOUS
10
-0.533864
20
3.40609
11
-0.533905
21
3.40591
0
LINE
8
BLACK
6
CONTINUOUS
10
-0.533905
20
3.40591
11
-0.533844
21
3.40575
0
LINE
8
BLACK
6
CONTINUOUS
10
-0.533844
20
3.40575
11
-0.533844
21
3.402
0
LINE
8
BLACK
6
CONTINUOUS
10
-0.533844
20
3.402
11
-0.534022
21
3.40099
0
LINE
8
BLACK
6
CONTINUOUS
10
-0.534022
20
3.40099
11
-0.534336
21
3.40061
0
LINE
8
BLACK
6
CONTINUOUS
10
-0.534336
20
3.40061
11
-0.534492
21
3.40015
0
LINE
8
BLACK
6
CONTINUOUS
10
-0.534492
20
3.40015
11
-0.534965
21
3.39986
0
LINE
8
BLACK
6
CONTINUOUS
10
-0.534965
20
3.39986
11
-0.535321
21
3.39944
0
LINE
8
BLACK
6
CONTINUOUS
10
-0.535321
20
3.39944
11
-0.535801
21
3.39936
0
LINE
8
BLACK
6
CONTINUOUS
10
-0.535801
20
3.39936
11
-0.536218
21
3.3991
0
LINE
8
BLACK
6
CONTINUOUS
10
-0.536218
20
3.3991
11
-0.552592
21
3.39583
0
LINE
8
BLACK
6
CONTINUOUS
10
-0.552592
20
3.39583
11
-0.552592
21
3.39145
0
LINE
8
BLACK
6
CONTINUOUS
10
-0.552592
20
3.39145
11
-0.551469
21
3.3892
0
LINE
8
BLACK
6
CONTINUOUS
10
-0.551469
20
3.3892
11
-0.549223
21
3.38808
0
LINE
8
BLACK
6
CONTINUOUS
10
-0.549223
20
3.38808
11
-0.543119
21
3.38808
0
LINE
8
BLACK
6
CONTINUOUS
10
-0.543119
20
3.38808
11
-0.539992
21
3.38964
0
LINE
8
BLACK
6
CONTINUOUS
10
-0.539992
20
3.38964
11
-0.53901
21
3.38993
0
LINE
8
BLACK
6
CONTINUOUS
10
-0.53901
20
3.38993
11
-0.537045
21
3.38946
0
LINE
8
BLACK
6
CONTINUOUS
10
-0.537045
20
3.38946
11
-0.535842
21
3.38784
0
LINE
8
BLACK
6
CONTINUOUS
10
-0.535842
20
3.38784
11
-0.535963
21
3.38583
0
LINE
8
BLACK
6
CONTINUOUS
10
-0.535963
20
3.38583
11
-0.537351
21
3.38436
0
LINE
8
BLACK
6
CONTINUOUS
10
-0.537351
20
3.38436
11
-0.540164
21
3.38295
0
LINE
8
BLACK
6
CONTINUOUS
10
-0.540164
20
3.38295
11
0
21
3.38295
0
LINE
8
BLACK
6
CONTINUOUS
10
0
20
3.38295
11
0.000383504
21
3.38289
0
LINE
8
BLACK
6
CONTINUOUS
10
0.000383504
20
3.38289
11
0.000512756
21
3.38291
0
LINE
8
BLACK
6
CONTINUOUS
10
0.000512756
20
3.38291
11
0.000626339
21
3.38284
0
LINE
8
BLACK
6
CONTINUOUS
10
0.000626339
20
3.38284
11
0.00100992
21
3.38277
0
LINE
8
BLACK
6
CONTINUOUS
10
0.00100992
20
3.38277
11
0.0015976
21
3.38228
0
LINE
8
BLACK
6
CONTINUOUS
10
0.0015976
20
3.38228
11
0.00226193
21
3.3819
0
LINE
8
BLACK
6
CONTINUOUS
10
0.00226193
20
3.3819
11
0.00235303
21
3.38165
0
LINE
8
BLACK
6
CONTINUOUS
10
0.00235303
20
3.38165
11
0.00255717
21
3.38148
0
LINE
8
BLACK
6
CONTINUOUS
10
0.00255717
20
3.38148
11
0.00269039
21
3.38072
0
LINE
8
BLACK
6
CONTINUOUS
10
0.00269039
20
3.38072
11
0.00295276
21
3.38
0
LINE
8
BLACK
6
CONTINUOUS
10
0.00295276
20
3.38
11
0.00295276
21
0
0
LINE
8
BLACK
6
CONTINUOUS
10
0.00295276
20
0
11
0.00288512
21
-0.000383504
0
LINE
8
BLACK
6
CONTINUOUS
10
0.00288512
20
-0.000383504
11
0.00290791
21
-0.000512756
0
LINE
8
BLACK
6
CONTINUOUS
10
0.00290791
20
-0.000512756
11
0.00284228
21
-0.000626339
0
LINE
8
BLACK
6
CONTINUOUS
10
0.00284228
20
-0.000626339
11
0.00277469
21
-0.00100992
0
LINE
8
BLACK
6
CONTINUOUS
10
0.00277469
20
-0.00100992
11
0.00228154
21
-0.0015976
0
LINE
8
BLACK
6
CONTINUOUS
10
0.00228154
20
-0.0015976
11
0.00189799
21
-0.00226193
0
LINE
8
BLACK
6
CONTINUOUS
10
0.00189799
20
-0.00226193
11
0.00164764
21
-0.00235303
0
LINE
8
BLACK
6
CONTINUOUS
10
0.00164764
20
-0.00235303
11
0.00147638
21
-0.00255717
0
LINE
8
BLACK
6
CONTINUOUS
10
0.00147638
20
-0.00255717
11
0.000720787
21
-0.00269039
0
LINE
8
BLACK
6
CONTINUOUS
10
0.000720787
20
-0.00269039
11
0
21
-0.00295276
0
LINE
8
BLACK
6
CONTINUOUS
10
0
20
-0.00295276
11
-1
21
-0.00295276
0
LINE
8
BLACK
6
CONTINUOUS
10
-1
20
-0.00295276
11
-1.00038
21
-0.00288512
0
LINE
8
BLACK
6
CONTINUOUS
10
-1.00038
20
-0.00288512
11
-1.00051
21
-0.00290791
0
LINE
8
BLACK
6
CONTINUOUS
10
-1.00051
20
-0.00290791
11
-1.00063
21
-0.00284228
0
LINE
8
BLACK
6
CONTINUOUS
10
-1.00063
20
-0.00284228
11
-1.00101
21
-0.00277469
0
LINE
8
BLACK
6
CONTINUOUS
10
-1.00101
20
-0.00277469
11
-1.0016
21
-0.00228154
0
LINE
8
BLACK
6
CONTINUOUS
10
-1.0016
20
-0.00228154
11
-1.00226
21
-0.00189799
0
LINE
8
BLACK
6
CONTINUOUS
10
-1.00226
20
-0.00189799
11
-1.00235
21
-0.00164764
0
LINE
8
BLACK
6
CONTINUOUS
10
-1.00235
20
-0.00164764
11
-1.00256
21
-0.00147638
0
LINE
8
BLACK
6
CONTINUOUS
10
-1.00256
20
-0.00147638
11
-1.00269
21
-0.000720787
0
LINE
8
BLACK
6
CONTINUOUS
10
-1.00269
20
-0.000720787
11
-1.00295
21
0
0
LINE
8
BLACK
6
CONTINUOUS
10
-1.00295
20
0
11
-1.00295
21
3.38
0
LINE
8
BLACK
6
CONTINUOUS
10
-1.00295
20
3.38
11
-1.00289
21
3.38038
0
LINE
8
BLACK
6
CONTINUOUS
10
-1.00289
20
3.38038
11
-1.00291
21
3.38051
0
LINE
8
BLACK
6
CONTINUOUS
10
-1.00291
20
3.38051
11
-1.00284
21
3.38063
0
LINE
8
BLACK
6
CONTINUOUS
10
-1.00284
20
3.38063
11
-1.00277
21
3.38101
0
LINE
8
BLACK
6
CONTINUOUS
10
-1.00277
20
3.38101
11
-1.00228
21
3.3816
0
LINE
8
BLACK
6
CONTINUOUS
10
-1.00228
20
3.3816
11
-1.0019
21
3.38226
0
LINE
8
BLACK
6
CONTINUOUS
10
-1.0019
20
3.38226
11
-1.00165
21
3.38235
0
LINE
8
BLACK
6
CONTINUOUS
10
-1.00165
20
3.38235
11
-1.00148
21
3.38256
0
LINE
8
BLACK
6
CONTINUOUS
10
-1.00148
20
3.38256
11
-1.00072
21
3.38269
0
LINE
8
BLACK
6
CONTINUOUS
10
-1.00072
20
3.38269
11
-1
21
3.38295
0
LINE
8
BLACK
6
CONTINUOUS
10
-1
20
3.38295
11
-0.985249
21
3.38295
0
LINE
8
BLACK
6
CONTINUOUS
10
-0.985249
20
3.38295
11
-0.988061
21
3.38436
0
LINE
8
BLACK
6
CONTINUOUS
10
-0.988061
20
3.38436
11
-0.988885
21
3.38497
0
LINE
8
BLACK
6
CONTINUOUS
10
-0.988885
20
3.38497
11
-0.989061
21
3.38538
0
LINE
8
BLACK
6
CONTINUOUS
10
-0.989061
20
3.38538
11
-0.989382
21
3.38568
0
LINE
8
BLACK
6
CONTINUOUS
10
-0.989382
20
3.38568
11
-0.991257
21
3.38943
0
LINE
8
BLACK
6
CONTINUOUS
10
-0.991257
20
3.38943
11
-0.991549
21
3.39041
0
LINE
8
BLACK
6
CONTINUOUS
10
-0.991549
20
3.39041
11
-0.991508
21
3.39058
0
LINE
8
BLACK
6
CONTINUOUS
10
-0.991508
20
3.39058
11
-0.991569
21
3.39075
0
LINE
8
BLACK
6
CONTINUOUS
10
-0.991569
20
3.39075
11
-0.991569
21
3.3945
0
LINE
8
BLACK
6
CONTINUOUS
10
-0.991569
20
3.3945
11
-0.99139
21
3.39551
0
LINE
8
BLACK
6
CONTINUOUS
10
-0.99139
20
3.39551
11
-0.991277
21
3.39564
0
LINE
8
BLACK
6
CONTINUOUS
10
-0.991277
20
3.39564
11
-0.991257
21
3.39582
0
LINE
8
BLACK
6
CONTINUOUS
10
-0.991257
20
3.39582
11
-0.989382
21
3.39957
0
LINE
8
BLACK
6
CONTINUOUS
10
-0.989382
20
3.39957
11
-0.988771
21
3.40039
0
LINE
8
BLACK
6
CONTINUOUS
10
-0.988771
20
3.40039
11
-0.988365
21
3.40057
0
LINE
8
BLACK
6
CONTINUOUS
10
-0.988365
20
3.40057
11
-0.988061
21
3.40089
0
LINE
8
BLACK
6
CONTINUOUS
10
-0.988061
20
3.40089
11
-0.984312
21
3.40276
0
LINE
8
BLACK
6
CONTINUOUS
10
-0.984312
20
3.40276
11
-0.983329
21
3.40306
0
LINE
8
BLACK
6
CONTINUOUS
10
-0.983329
20
3.40306
11
-0.983157
21
3.40302
0
LINE
8
BLACK
6
CONTINUOUS
10
-0.983157
20
3.40302
11
-0.982991
21
3.40308
0
LINE
8
BLACK
6
CONTINUOUS
10
-0.982991
20
3.40308
11
-0.974315
21
3.40308
0
LINE
8
BLACK
6
CONTINUOUS
10
-0.974315
20
3.40308
11
-0.972821
21
3.40382
0
LINE
8
BLACK
6
CONTINUOUS
10
-0.972821
20
3.40382
11
-0.972821
21
3.40505
0
LINE
8
BLACK
6
CONTINUOUS
10
-0.972821
20
3.40505
11
-0.973944
21
3.4073
0
LINE
8
BLACK
6
CONTINUOUS
10
-0.973944
20
3.4073
11
-0.976189
21
3.40842
0
LINE
8
BLACK
6
CONTINUOUS
10
-0.976189
20
3.40842
11
-0.982294
21
3.40842
0
LINE
8
BLACK
6
CONTINUOUS
10
-0.982294
20
3.40842
11
-0.98542
21
3.40686
0
LINE
8
BLACK
6
CONTINUOUS
10
-0.98542
20
3.40686
11
-0.986403
21
3.40656
0
LINE
8
BLACK
6
CONTINUOUS
10
-0.986403
20
3.40656
11
-0.988368
21
3.40703
0
LINE
8
BLACK
6
CONTINUOUS
10
-0.988368
20
3.40703
11
-0.989571
21
3.40866
0
LINE
8
BLACK
6
CONTINUOUS
10
-0.989571
20
3.40866
11
-0.98945
21
3.41067
0
LINE
8
BLACK
6
CONTINUOUS
10
-0.98945
20
3.41067
11
-0.988061
21
3.41214
0
LINE
8
BLACK
6
CONTINUOUS
10
-0.988061
20
3.41214
11
-0.984312
21
3.41401
0
LINE
8
BLACK
6
CONTINUOUS
10
-0.984312
20
3.41401
11
-0.983329
21
3.41431
0
LINE
8
BLACK
6
CONTINUOUS
10
-0.983329
20
3.41431
11
-0.983157
21
3.41426
0
LINE
8
BLACK
6
CONTINUOUS
10
-0.983157
20
3.41426
11
-0.982991
21
3.41432
0
LINE
8
BLACK
6
CONTINUOUS
10
-0.982991
20
3.41432
11
-0.975492
21
3.41432
0
LINE
8
BLACK
6
CONTINUOUS
10
-0.975492
20
3.41432
11
-0.974482
21
3.41415
0
LINE
8
BLACK
6
CONTINUOUS
10
-0.974482
20
3.41415
11
-0.974347
21
3.41403
0
LINE
8
BLACK
6
CONTINUOUS
10
-0.974347
20
3.41403
11
-0.974172
21
3.41401
0
LINE
8
BLACK
6
CONTINUOUS
10
-0.974172
20
3.41401
11
-0.970422
21
3.41214
0
LINE
8
BLACK
6
CONTINUOUS
10
-0.970422
20
3.41214
11
-0.969599
21
3.41153
0
LINE
8
BLACK
6
CONTINUOUS
10
-0.969599
20
3.41153
11
-0.969423
21
3.41112
0
LINE
8
BLACK
6
CONTINUOUS
10
-0.969423
20
3.41112
11
-0.969102
21
3.41082
0
LINE
8
BLACK
6
CONTINUOUS
10
-0.969102
20
3.41082
11
-0.967227
21
3.40707
0
LINE
8
BLACK
6
CONTINUOUS
10
-0.967227
20
3.40707
11
-0.966935
21
3.40609
0
LINE
8
BLACK
6
CONTINUOUS
10
-0.966935
20
3.40609
11
-0.966976
21
3.40591
0
LINE
8
BLACK
6
CONTINUOUS
10
-0.966976
20
3.40591
11
-0.966915
21
3.40575
0
LINE
8
BLACK
6
CONTINUOUS
10
-0.966915
20
3.40575
11
-0.966915
21
3.38513
0
LINE
8
BLACK
6
CONTINUOUS
10
-0.966915
20
3.38513
11
-0.967093
21
3.38412
0
LINE
8
BLACK
6
CONTINUOUS
10
-0.967093
20
3.38412
11
-0.968069
21
3.38295
0
LINE
8
BLACK
6
CONTINUOUS
10
-0.968069
20
3.38295
11
-0.947754
21
3.38295
0
LINE
8
BLACK
6
CONTINUOUS
10
-0.947754
20
3.38295
11
-0.950566
21
3.38436
0
LINE
8
BLACK
6
CONTINUOUS
10
-0.950566
20
3.38436
11
-0.951275
21
3.38488
0
LINE
8
BLACK
6
CONTINUOUS
10
-0.951275
20
3.38488
11
-0.951334
21
3.38491
0
LINE
8
BLACK
6
CONTINUOUS
10
-0.951334
20
3.38491
11
-0.953208
21
3.38679
0
LINE
8
BLACK
6
CONTINUOUS
10
-0.953208
20
3.38679
11
-0.953715
21
3.38751
0
LINE
8
BLACK
6
CONTINUOUS
10
-0.953715
20
3.38751
11
-0.953761
21
3.38755
0
LINE
8
BLACK
6
CONTINUOUS
10
-0.953761
20
3.38755
11
-0.955636
21
3.3913
0
LINE
8
BLACK
6
CONTINUOUS
10
-0.955636
20
3.3913
11
-0.955929
21
3.39229
0
LINE
8
BLACK
6
CONTINUOUS
10
-0.955929
20
3.39229
11
-0.955888
21
3.39246
0
LINE
8
BLACK
6
CONTINUOUS
10
-0.955888
20
3.39246
11
-0.955948
21
3.39262
0
LINE
8
BLACK
6
CONTINUOUS
10
-0.955948
20
3.39262
11
-0.955948
21
3.40387
0
LINE
8
BLACK
6
CONTINUOUS
10
-0.955948
20
3.40387
11
-0.95577
21
3.40488
0
LINE
8
BLACK
6
CONTINUOUS
10
-0.95577
20
3.40488
11
-0.955656
21
3.40502
0
LINE
8
BLACK
6
CONTINUOUS
10
-0.955656
20
3.40502
11
-0.955636
21
3.40519
0
LINE
8
BLACK
6
CONTINUOUS
10
-0.955636
20
3.40519
11
-0.953761
21
3.40894
0
LINE
8
BLACK
6
CONTINUOUS
10
-0.953761
20
3.40894
11
-0.953236
21
3.40965
0
LINE
8
BLACK
6
CONTINUOUS
10
-0.953236
20
3.40965
11
-0.953208
21
3.40971
0
LINE
8
BLACK
6
CONTINUOUS
10
-0.953208
20
3.40971
11
-0.951334
21
3.41159
0
LINE
8
BLACK
6
CONTINUOUS
10
-0.951334
20
3.41159
11
-0.950611
21
3.41209
0
LINE
8
BLACK
6
CONTINUOUS
10
-0.950611
20
3.41209
11
-0.950566
21
3.41214
0
LINE
8
BLACK
6
CONTINUOUS
10
-0.950566
20
3.41214
11
-0.946817
21
3.41401
0
LINE
8
BLACK
6
CONTINUOUS
10
-0.946817
20
3.41401
11
-0.945834
21
3.41431
0
LINE
8
BLACK
6
CONTINUOUS
10
-0.945834
20
3.41431
11
-0.945662
21
3.41426
0
LINE
8
BLACK
6
CONTINUOUS
10
-0.945662
20
3.41426
11
-0.945496
21
3.41432
0
LINE
8
BLACK
6
CONTINUOUS
10
-0.945496
20
3.41432
11
-0.937997
21
3.41432
0
LINE
8
BLACK
6
CONTINUOUS
10
-0.937997
20
3.41432
11
-0.9372
21
3.41418
0
LINE
8
BLACK
6
CONTINUOUS
10
-0.9372
20
3.41418
11
-0.9372
21
3.4245
0
LINE
8
BLACK
6
CONTINUOUS
10
-0.9372
20
3.4245
11
-0.937022
21
3.42551
0
LINE
8
BLACK
6
CONTINUOUS
10
-0.937022
20
3.42551
11
-0.935724
21
3.42705
0
LINE
8
BLACK
6
CONTINUOUS
10
-0.935724
20
3.42705
11
-0.933735
21
3.4274
0
LINE
8
BLACK
6
CONTINUOUS
10
-0.933735
20
3.4274
11
-0.931986
21
3.42639
0
LINE
8
BLACK
6
CONTINUOUS
10
-0.931986
20
3.42639
11
-0.931295
21
3.4245
0
LINE
8
BLACK
6
CONTINUOUS
10
-0.931295
20
3.4245
11
-0.931295
21
3.38513
0
LINE
8
BLACK
6
CONTINUOUS
10
-0.931295
20
3.38513
11
-0.931473
21
3.38412
0
LINE
8
BLACK
6
CONTINUOUS
10
-0.931473
20
3.38412
11
-0.932448
21
3.38295
0
LINE
8
BLACK
6
CONTINUOUS
10
-0.932448
20
3.38295
11
-0.914008
21
3.38295
0
LINE
8
BLACK
6
CONTINUOUS
10
-0.914008
20
3.38295
11
-0.91682
21
3.38436
0
LINE
8
BLACK
6
CONTINUOUS
10
-0.91682
20
3.38436
11
-0.917644
21
3.38497
0
LINE
8
BLACK
6
CONTINUOUS
10
-0.917644
20
3.38497
11
-0.91782
21
3.38538
0
LINE
8
BLACK
6
CONTINUOUS
10
-0.91782
20
3.38538
11
-0.918141
21
3.38568
0
LINE
8
BLACK
6
CONTINUOUS
10
-0.918141
20
3.38568
11
-0.920016
21
3.38943
0
LINE
8
BLACK
6
CONTINUOUS
10
-0.920016
20
3.38943
11
-0.920308
21
3.39041
0
LINE
8
BLACK
6
CONTINUOUS
10
-0.920308
20
3.39041
11
-0.920267
21
3.39058
0
LINE
8
BLACK
6
CONTINUOUS
10
-0.920267
20
3.39058
11
-0.920327
21
3.39075
0
LINE
8
BLACK
6
CONTINUOUS
10
-0.920327
20
3.39075
11
-0.920327
21
3.3945
0
LINE
8
BLACK
6
CONTINUOUS
10
-0.920327
20
3.3945
11
-0.920149
21
3.39551
0
LINE
8
BLACK
6
CONTINUOUS
10
-0.920149
20
3.39551
11
-0.920036
21
3.39564
0
LINE
8
BLACK
6
CONTINUOUS
10
-0.920036
20
3.39564
11
-0.920016
21
3.39582
0
LINE
8
BLACK
6
CONTINUOUS
10
-0.920016
20
3.39582
11
-0.918141
21
3.39957
0
LINE
8
BLACK
6
CONTINUOUS
10
-0.918141
20
3.39957
11
-0.91753
21
3.40039
0
LINE
8
BLACK
6
CONTINUOUS
10
-0.91753
20
3.40039
11
-0.917124
21
3.40057
0
LINE
8
BLACK
6
CONTINUOUS
10
-0.917124
20
3.40057
11
-0.91682
21
3.40089
0
LINE
8
BLACK
6
CONTINUOUS
10
-0.91682
20
3.40089
11
-0.913071
21
3.40276
0
LINE
8
BLACK
6
CONTINUOUS
10
-0.913071
20
3.40276
11
-0.912088
21
3.40306
0
LINE
8
BLACK
6
CONTINUOUS
10
-0.912088
20
3.40306
11
-0.911916
21
3.40302
0
LINE
8
BLACK
6
CONTINUOUS
10
-0.911916
20
3.40302
11
-0.91175
21
3.40308
0
LINE
8
BLACK
6
CONTINUOUS
10
-0.91175
20
3.40308
11
-0.903074
21
3.40308
0
LINE
8
BLACK
6
CONTINUOUS
10
-0.903074
20
3.40308
11
-0.90158
21
3.40382
0
LINE
8
BLACK
6
CONTINUOUS
10
-0.90158
20
3.40382
11
-0.90158
21
3.40505
0
LINE
8
BLACK
6
CONTINUOUS
10
-0.90158
20
3.40505
11
-0.902703
21
3.4073
0
LINE
8
BLACK
6
CONTINUOUS
10
-0.902703
20
3.4073
11
-0.904948
21
3.40842
0
LINE
8
BLACK
6
CONTINUOUS
10
-0.904948
20
3.40842
11
-0.911053
21
3.40842
0
LINE
8
BLACK
6
CONTINUOUS
10
-0.911053
20
3.40842
11
-0.914179
21
3.40686
0
LINE
8
BLACK
6
CONTINUOUS
10
-0.914179
20
3.40686
11
-0.915162
21
3.40656
0
LINE
8
BLACK
6
CONTINUOUS
10
-0.915162
20
3.40656
11
-0.917127
21
3.40703
0
LINE
8
BLACK
6
CONTINUOUS
10
-0.917127
20
3.40703
11
-0.91833
21
3.40866
0
LINE
8
BLACK
6
CONTINUOUS
10
-0.91833
20
3.40866
11
-0.918209
21
3.41067
0
LINE
8
BLACK
6
CONTINUOUS
10
-0.918209
20
3.41067
11
-0.91682
21
3.41214
0
LINE
8
BLACK
6
CONTINUOUS
10
-0.91682
20
3.41214
11
-0.913071
21
3.41401
0
LINE
8
BLACK
6
CONTINUOUS
10
-0.913071
20
3.41401
11
-0.912088
21
3.41431
0
LINE
8
BLACK
6
CONTINUOUS
10
-0.912088
20
3.41431
11
-0.911916
21
3.41426
0
LINE
8
BLACK
6
CONTINUOUS
10
-0.911916
20
3.41426
11
-0.91175
21
3.41432
0
LINE
8
BLACK
6
CONTINUOUS
10
-0.91175
20
3.41432
11
-0.904251
21
3.41432
0
LINE
8
BLACK
6
CONTINUOUS
10
-0.904251
20
3.41432
11
-0.903241
21
3.41415
0
LINE
8
BLACK
6
CONTINUOUS
10
-0.903241
20
3.41415
11
-0.903106
21
3.41403
0
LINE
8
BLACK
6
CONTINUOUS
10
-0.903106
20
3.41403
11
-0.902931
21
3.41401
0
LINE
8
BLACK
6
CONTINUOUS
10
-0.902931
20
3.41401
11
-0.899181
21
3.41214
0
LINE
8
BLACK
6
CONTINUOUS
10
-0.899181
20
3.41214
11
-0.898358
21
3.41153
0
LINE
8
BLACK
6
CONTINUOUS
10
-0.898358
20
3.41153
11
-0.898182
21
3.41112
0
LINE
8
BLACK
6
CONTINUOUS
10
-0.898182
20
3.41112
11
-0.897861
21
3.41082
0
LINE
8
BLACK
6
CONTINUOUS
10
-0.897861
20
3.41082
11
-0.895986
21
3.40707
0
LINE
8
BLACK
6
CONTINUOUS
10
-0.895986
20
3.40707
11
-0.895694
21
3.40609
0
LINE
8
BLACK
6
CONTINUOUS
10
-0.895694
20
3.40609
11
-0.895735
21
3.40591
0
LINE
8
BLACK
6
CONTINUOUS
10
-0.895735
20
3.40591
11
-0.895674
21
3.40575
0
LINE
8
BLACK
6
CONTINUOUS
10
-0.895674
20
3.40575
11
-0.895674
21
3.38513
0
LINE
8
BLACK
6
CONTINUOUS
10
-0.895674
20
3.38513
11
-0.895852
21
3.38412
0
LINE
8
BLACK
6
CONTINUOUS
10
-0.895852
20
3.38412
11
-0.896828
21
3.38295
0
LINE
8
BLACK
6
CONTINUOUS
10
-0.896828
20
3.38295
11
-0.882832
21
3.38295
0
LINE
8
BLACK
6
CONTINUOUS
10
-0.882832
20
3.38295
11
-0.882832
21
3.41137
0
LINE
8
BLACK
6
CONTINUOUS
10
-0.882832
20
3.41137
11
-0.882654
21
3.41238
0
LINE
8
BLACK
6
CONTINUOUS
10
-0.882654
20
3.41238
11
-0.881356
21
3.41393
0
LINE
8
BLACK
6
CONTINUOUS
10
-0.881356
20
3.41393
11
-0.879367
21
3.41428
0
LINE
8
BLACK
6
CONTINUOUS
10
-0.879367
20
3.41428
11
-0.87823
21
3.41362
0
LINE
8
BLACK
6
CONTINUOUS
10
-0.87823
20
3.41362
11
-0.87745
21
3.41401
0
LINE
8
BLACK
6
CONTINUOUS
10
-0.87745
20
3.41401
11
-0.876467
21
3.41431
0
LINE
8
BLACK
6
CONTINUOUS
10
-0.876467
20
3.41431
11
-0.876296
21
3.41426
0
LINE
8
BLACK
6
CONTINUOUS
10
-0.876296
20
3.41426
11
-0.87613
21
3.41432
0
LINE
8
BLACK
6
CONTINUOUS
10
-0.87613
20
3.41432
11
-0.868631
21
3.41432
0
LINE
8
BLACK
6
CONTINUOUS
10
-0.868631
20
3.41432
11
-0.867621
21
3.41415
0
LINE
8
BLACK
6
CONTINUOUS
10
-0.867621
20
3.41415
11
-0.867486
21
3.41403
0
LINE
8
BLACK
6
CONTINUOUS
10
-0.867486
20
3.41403
11
-0.86731
21
3.41401
0
LINE
8
BLACK
6
CONTINUOUS
10
-0.86731
20
3.41401
11
-0.863561
21
3.41214
0
LINE
8
BLACK
6
CONTINUOUS
10
-0.863561
20
3.41214
11
-0.862852
21
3.41161
0
LINE
8
BLACK
6
CONTINUOUS
10
-0.862852
20
3.41161
11
-0.862793
21
3.41159
0
LINE
8
BLACK
6
CONTINUOUS
10
-0.862793
20
3.41159
11
-0.860919
21
3.40971
0
LINE
8
BLACK
6
CONTINUOUS
10
-0.860919
20
3.40971
11
-0.860412
21
3.40899
0
LINE
8
BLACK
6
CONTINUOUS
10
-0.860412
20
3.40899
11
-0.860365
21
3.40894
0
LINE
8
BLACK
6
CONTINUOUS
10
-0.860365
20
3.40894
11
-0.858491
21
3.40519
0
LINE
8
BLACK
6
CONTINUOUS
10
-0.858491
20
3.40519
11
-0.858198
21
3.40421
0
LINE
8
BLACK
6
CONTINUOUS
10
-0.858198
20
3.40421
11
-0.858239
21
3.40404
0
LINE
8
BLACK
6
CONTINUOUS
10
-0.858239
20
3.40404
11
-0.858179
21
3.40387
0
LINE
8
BLACK
6
CONTINUOUS
10
-0.858179
20
3.40387
11
-0.858179
21
3.39262
0
LINE
8
BLACK
6
CONTINUOUS
10
-0.858179
20
3.39262
11
-0.858357
21
3.39161
0
LINE
8
BLACK
6
CONTINUOUS
10
-0.858357
20
3.39161
11
-0.858471
21
3.39148
0
LINE
8
BLACK
6
CONTINUOUS
10
-0.858471
20
3.39148
11
-0.858491
21
3.3913
0
LINE
8
BLACK
6
CONTINUOUS
10
-0.858491
20
3.3913
11
-0.860365
21
3.38755
0
LINE
8
BLACK
6
CONTINUOUS
10
-0.860365
20
3.38755
11
-0.860891
21
3.38685
0
LINE
8
BLACK
6
CONTINUOUS
10
-0.860891
20
3.38685
11
-0.860919
21
3.38679
0
LINE
8
BLACK
6
CONTINUOUS
10
-0.860919
20
3.38679
11
-0.862793
21
3.38491
0
LINE
8
BLACK
6
CONTINUOUS
10
-0.862793
20
3.38491
11
-0.863516
21
3.38441
0
LINE
8
BLACK
6
CONTINUOUS
10
-0.863516
20
3.38441
11
-0.863561
21
3.38436
0
LINE
8
BLACK
6
CONTINUOUS
10
-0.863561
20
3.38436
11
-0.866373
21
3.38295
0
LINE
8
BLACK
6
CONTINUOUS
10
-0.866373
20
3.38295
11
-0.840892
21
3.38295
0
LINE
8
BLACK
6
CONTINUOUS
10
-0.840892
20
3.38295
11
-0.843705
21
3.38436
0
LINE
8
BLACK
6
CONTINUOUS
10
-0.843705
20
3.38436
11
-0.844528
21
3.38497
0
LINE
8
BLACK
6
CONTINUOUS
10
-0.844528
20
3.38497
11
-0.844704
21
3.38538
0
LINE
8
BLACK
6
CONTINUOUS
10
-0.844704
20
3.38538
11
-0.845025
21
3.38568
0
LINE
8
BLACK
6
CONTINUOUS
10
-0.845025
20
3.38568
11
-0.8469
21
3.38943
0
LINE
8
BLACK
6
CONTINUOUS
10
-0.8469
20
3.38943
11
-0.847192
21
3.39041
0
LINE
8
BLACK
6
CONTINUOUS
10
-0.847192
20
3.39041
11
-0.847151
21
3.39058
0
LINE
8
BLACK
6
CONTINUOUS
10
-0.847151
20
3.39058
11
-0.847212
21
3.39075
0
LINE
8
BLACK
6
CONTINUOUS
10
-0.847212
20
3.39075
11
-0.847212
21
3.40842
0
LINE
8
BLACK
6
CONTINUOUS
10
-0.847212
20
3.40842
11
-0.849883
21
3.40842
0
LINE
8
BLACK
6
CONTINUOUS
10
-0.849883
20
3.40842
11
-0.850893
21
3.4086
0
LINE
8
BLACK
6
CONTINUOUS
10
-0.850893
20
3.4086
11
-0.85244
21
3.4099
0
LINE
8
BLACK
6
CONTINUOUS
10
-0.85244
20
3.4099
11
-0.852791
21
3.41188
0
LINE
8
BLACK
6
CONTINUOUS
10
-0.852791
20
3.41188
11
-0.851781
21
3.41363
0
LINE
8
BLACK
6
CONTINUOUS
10
-0.851781
20
3.41363
11
-0.849883
21
3.41432
0
LINE
8
BLACK
6
CONTINUOUS
10
-0.849883
20
3.41432
11
-0.847212
21
3.41432
0
LINE
8
BLACK
6
CONTINUOUS
10
-0.847212
20
3.41432
11
-0.847212
21
3.4245
0
LINE
8
BLACK
6
CONTINUOUS
10
-0.847212
20
3.4245
11
-0.847033
21
3.42551
0
LINE
8
BLACK
6
CONTINUOUS
10
-0.847033
20
3.42551
11
-0.845735
21
3.42705
0
LINE
8
BLACK
6
CONTINUOUS
10
-0.845735
20
3.42705
11
-0.843746
21
3.4274
0
LINE
8
BLACK
6
CONTINUOUS
10
-0.843746
20
3.4274
11
-0.841997
21
3.42639
0
LINE
8
BLACK
6
CONTINUOUS
10
-0.841997
20
3.42639
11
-0.841306
21
3.4245
0
LINE
8
BLACK
6
CONTINUOUS
10
-0.841306
20
3.4245
11
-0.841306
21
3.41432
0
LINE
8
BLACK
6
CONTINUOUS
10
-0.841306
20
3.41432
11
-0.834885
21
3.41432
0
LINE
8
BLACK
6
CONTINUOUS
10
-0.834885
20
3.41432
11
-0.833875
21
3.41415
0
LINE
8
BLACK
6
CONTINUOUS
10
-0.833875
20
3.41415
11
-0.832328
21
3.41285
0
LINE
8
BLACK
6
CONTINUOUS
10
-0.832328
20
3.41285
11
-0.831977
21
3.41086
0
LINE
8
BLACK
6
CONTINUOUS
10
-0.831977
20
3.41086
11
-0.832987
21
3.40911
0
LINE
8
BLACK
6
CONTINUOUS
10
-0.832987
20
3.40911
11
-0.834885
21
3.40842
0
LINE
8
BLACK
6
CONTINUOUS
10
-0.834885
20
3.40842
11
-0.841306
21
3.40842
0
LINE
8
BLACK
6
CONTINUOUS
10
-0.841306
20
3.40842
11
-0.841306
21
3.39145
0
LINE
8
BLACK
6
CONTINUOUS
10
-0.841306
20
3.39145
11
-0.840183
21
3.3892
0
LINE
8
BLACK
6
CONTINUOUS
10
-0.840183
20
3.3892
11
-0.837937
21
3.38808
0
LINE
8
BLACK
6
CONTINUOUS
10
-0.837937
20
3.38808
11
-0.834885
21
3.38808
0
LINE
8
BLACK
6
CONTINUOUS
10
-0.834885
20
3.38808
11
-0.833875
21
3.3879
0
LINE
8
BLACK
6
CONTINUOUS
10
-0.833875
20
3.3879
11
-0.832328
21
3.3866
0
LINE
8
BLACK
6
CONTINUOUS
10
-0.832328
20
3.3866
11
-0.831977
21
3.38461
0
LINE
8
BLACK
6
CONTINUOUS
10
-0.831977
20
3.38461
11
-0.832935
21
3.38295
0
LINE
8
BLACK
6
CONTINUOUS
10
-0.832935
20
3.38295
11
-0.82027
21
3.38295
0
LINE
8
BLACK
6
CONTINUOUS
10
-0.82027
20
3.38295
11
-0.823082
21
3.38436
0
LINE
8
BLACK
6
CONTINUOUS
10
-0.823082
20
3.38436
11
-0.823906
21
3.38497
0
LINE
8
BLACK
6
CONTINUOUS
10
-0.823906
20
3.38497
11
-0.824082
21
3.38538
0
LINE
8
BLACK
6
CONTINUOUS
10
-0.824082
20
3.38538
11
-0.824403
21
3.38568
0
LINE
8
BLACK
6
CONTINUOUS
10
-0.824403
20
3.38568
11
-0.826277
21
3.38943
0
LINE
8
BLACK
6
CONTINUOUS
10
-0.826277
20
3.38943
11
-0.82657
21
3.39041
0
LINE
8
BLACK
6
CONTINUOUS
10
-0.82657
20
3.39041
11
-0.826529
21
3.39058
0
LINE
8
BLACK
6
CONTINUOUS
10
-0.826529
20
3.39058
11
-0.826589
21
3.39075
0
LINE
8
BLACK
6
CONTINUOUS
10
-0.826589
20
3.39075
11
-0.826589
21
3.40575
0
LINE
8
BLACK
6
CONTINUOUS
10
-0.826589
20
3.40575
11
-0.826411
21
3.40676
0
LINE
8
BLACK
6
CONTINUOUS
10
-0.826411
20
3.40676
11
-0.826298
21
3.40689
0
LINE
8
BLACK
6
CONTINUOUS
10
-0.826298
20
3.40689
11
-0.826277
21
3.40707
0
LINE
8
BLACK
6
CONTINUOUS
10
-0.826277
20
3.40707
11
-0.824403
21
3.41082
0
LINE
8
BLACK
6
CONTINUOUS
10
-0.824403
20
3.41082
11
-0.823792
21
3.41164
0
LINE
8
BLACK
6
CONTINUOUS
10
-0.823792
20
3.41164
11
-0.823386
21
3.41182
0
LINE
8
BLACK
6
CONTINUOUS
10
-0.823386
20
3.41182
11
-0.823082
21
3.41214
0
LINE
8
BLACK
6
CONTINUOUS
10
-0.823082
20
3.41214
11
-0.819333
21
3.41401
0
LINE
8
BLACK
6
CONTINUOUS
10
-0.819333
20
3.41401
11
-0.81835
21
3.41431
0
LINE
8
BLACK
6
CONTINUOUS
10
-0.81835
20
3.41431
11
-0.818178
21
3.41426
0
LINE
8
BLACK
6
CONTINUOUS
10
-0.818178
20
3.41426
11
-0.818012
21
3.41432
0
LINE
8
BLACK
6
CONTINUOUS
10
-0.818012
20
3.41432
11
-0.810513
21
3.41432
0
LINE
8
BLACK
6
CONTINUOUS
10
-0.810513
20
3.41432
11
-0.809503
21
3.41415
0
LINE
8
BLACK
6
CONTINUOUS
10
-0.809503
20
3.41415
11
-0.809368
21
3.41403
0
LINE
8
BLACK
6
CONTINUOUS
10
-0.809368
20
3.41403
11
-0.809192
21
3.41401
0
LINE
8
BLACK
6
CONTINUOUS
10
-0.809192
20
3.41401
11
-0.805443
21
3.41214
0
LINE
8
BLACK
6
CONTINUOUS
10
-0.805443
20
3.41214
11
-0.804619
21
3.41153
0
LINE
8
BLACK
6
CONTINUOUS
10
-0.804619
20
3.41153
11
-0.804443
21
3.41112
0
LINE
8
BLACK
6
CONTINUOUS
10
-0.804443
20
3.41112
11
-0.804122
21
3.41082
0
LINE
8
BLACK
6
CONTINUOUS
10
-0.804122
20
3.41082
11
-0.802248
21
3.40707
0
LINE
8
BLACK
6
CONTINUOUS
10
-0.802248
20
3.40707
11
-0.801955
21
3.40609
0
LINE
8
BLACK
6
CONTINUOUS
10
-0.801955
20
3.40609
11
-0.801996
21
3.40591
0
LINE
8
BLACK
6
CONTINUOUS
10
-0.801996
20
3.40591
11
-0.801936
21
3.40575
0
LINE
8
BLACK
6
CONTINUOUS
10
-0.801936
20
3.40575
11
-0.801936
21
3.402
0
LINE
8
BLACK
6
CONTINUOUS
10
-0.801936
20
3.402
11
-0.802114
21
3.40099
0
LINE
8
BLACK
6
CONTINUOUS
10
-0.802114
20
3.40099
11
-0.802428
21
3.40061
0
LINE
8
BLACK
6
CONTINUOUS
10
-0.802428
20
3.40061
11
-0.802584
21
3.40015
0
LINE
8
BLACK
6
CONTINUOUS
10
-0.802584
20
3.40015
11
-0.803057
21
3.39986
0
LINE
8
BLACK
6
CONTINUOUS
10
-0.803057
20
3.39986
11
-0.803412
21
3.39944
0
LINE
8
BLACK
6
CONTINUOUS
10
-0.803412
20
3.39944
11
-0.803893
21
3.39936
0
LINE
8
BLACK
6
CONTINUOUS
10
-0.803893
20
3.39936
11
-0.80431
21
3.3991
0
LINE
8
BLACK
6
CONTINUOUS
10
-0.80431
20
3.3991
11
-0.820684
21
3.39583
0
LINE
8
BLACK
6
CONTINUOUS
10
-0.820684
20
3.39583
11
-0.820684
21
3.39145
0
LINE
8
BLACK
6
CONTINUOUS
10
-0.820684
20
3.39145
11
-0.819561
21
3.3892
0
LINE
8
BLACK
6
CONTINUOUS
10
-0.819561
20
3.3892
11
-0.817315
21
3.38808
0
LINE
8
BLACK
6
CONTINUOUS
10
-0.817315
20
3.38808
11
-0.81121
21
3.38808
0
LINE
8
BLACK
6
CONTINUOUS
10
-0.81121
20
3.38808
11
-0.808084
21
3.38964
0
LINE
8
BLACK
6
CONTINUOUS
10
-0.808084
20
3.38964
11
-0.807101
21
3.38993
0
LINE
8
BLACK
6
CONTINUOUS
10
-0.807101
20
3.38993
11
-0.805137
21
3.38946
0
LINE
8
BLACK
6
CONTINUOUS
10
-0.805137
20
3.38946
11
-0.803933
21
3.38784
0
LINE
8
BLACK
6
CONTINUOUS
10
-0.803933
20
3.38784
11
-0.804054
21
3.38583
0
LINE
8
BLACK
6
CONTINUOUS
10
-0.804054
20
3.38583
11
-0.805443
21
3.38436
0
LINE
8
BLACK
6
CONTINUOUS
10
-0.805443
20
3.38436
11
-0.808255
21
3.38295
0
LINE
8
BLACK
6
CONTINUOUS
10
-0.808255
20
3.38295
11
-0.789802
21
3.38295
0
LINE
8
BLACK
6
CONTINUOUS
10
-0.789802
20
3.38295
11
-0.790278
21
3.38323
0
LINE
8
BLACK
6
CONTINUOUS
10
-0.790278
20
3.38323
11
-0.790969
21
3.38513
0
LINE
8
BLACK
6
CONTINUOUS
10
-0.790969
20
3.38513
11
-0.790969
21
3.41137
0
LINE
8
BLACK
6
CONTINUOUS
10
-0.790969
20
3.41137
11
-0.79079
21
3.41238
0
LINE
8
BLACK
6
CONTINUOUS
10
-0.79079
20
3.41238
11
-0.789492
21
3.41393
0
LINE
8
BLACK
6
CONTINUOUS
10
-0.789492
20
3.41393
11
-0.787503
21
3.41428
0
LINE
8
BLACK
6
CONTINUOUS
10
-0.787503
20
3.41428
11
-0.785754
21
3.41327
0
LINE
8
BLACK
6
CONTINUOUS
10
-0.785754
20
3.41327
11
-0.78538
21
3.41224
0
LINE
8
BLACK
6
CONTINUOUS
10
-0.78538
20
3.41224
11
-0.781837
21
3.41401
0
LINE
8
BLACK
6
CONTINUOUS
10
-0.781837
20
3.41401
11
-0.780854
21
3.41431
0
LINE
8
BLACK
6
CONTINUOUS
10
-0.780854
20
3.41431
11
-0.780683
21
3.41426
0
LINE
8
BLACK
6
CONTINUOUS
10
-0.780683
20
3.41426
11
-0.780517
21
3.41432
0
LINE
8
BLACK
6
CONTINUOUS
10
-0.780517
20
3.41432
11
-0.776767
21
3.41432
0
LINE
8
BLACK
6
CONTINUOUS
10
-0.776767
20
3.41432
11
-0.775757
21
3.41415
0
LINE
8
BLACK
6
CONTINUOUS
10
-0.775757
20
3.41415
11
-0.77421
21
3.41285
0
LINE
8
BLACK
6
CONTINUOUS
10
-0.77421
20
3.41285
11
-0.773859
21
3.41086
0
LINE
8
BLACK
6
CONTINUOUS
10
-0.773859
20
3.41086
11
-0.774869
21
3.40911
0
LINE
8
BLACK
6
CONTINUOUS
10
-0.774869
20
3.40911
11
-0.776767
21
3.40842
0
LINE
8
BLACK
6
CONTINUOUS
10
-0.776767
20
3.40842
11
-0.77982
21
3.40842
0
LINE
8
BLACK
6
CONTINUOUS
10
-0.77982
20
3.40842
11
-0.782517
21
3.40707
0
LINE
8
BLACK
6
CONTINUOUS
10
-0.782517
20
3.40707
11
-0.783714
21
3.40587
0
LINE
8
BLACK
6
CONTINUOUS
10
-0.783714
20
3.40587
11
-0.785063
21
3.40318
0
LINE
8
BLACK
6
CONTINUOUS
10
-0.785063
20
3.40318
11
-0.785063
21
3.38513
0
LINE
8
BLACK
6
CONTINUOUS
10
-0.785063
20
3.38513
11
-0.785241
21
3.38412
0
LINE
8
BLACK
6
CONTINUOUS
10
-0.785241
20
3.38412
11
-0.786217
21
3.38295
0
LINE
8
BLACK
6
CONTINUOUS
10
-0.786217
20
3.38295
11
-0.775311
21
3.38295
0
LINE
8
BLACK
6
CONTINUOUS
10
-0.775311
20
3.38295
11
-0.774916
21
3.38364
0
LINE
8
BLACK
6
CONTINUOUS
10
-0.774916
20
3.38364
11
-0.773018
21
3.38433
0
LINE
8
BLACK
6
CONTINUOUS
10
-0.773018
20
3.38433
11
-0.743021
21
3.38433
0
LINE
8
BLACK
6
CONTINUOUS
10
-0.743021
20
3.38433
11
-0.742011
21
3.38415
0
LINE
8
BLACK
6
CONTINUOUS
10
-0.742011
20
3.38415
11
-0.740584
21
3.38295
0
LINE
8
BLACK
6
CONTINUOUS
10
-0.740584
20
3.38295
11
-0.735434
21
3.38295
0
LINE
8
BLACK
6
CONTINUOUS
10
-0.735434
20
3.38295
11
-0.735909
21
3.38323
0
LINE
8
BLACK
6
CONTINUOUS
10
-0.735909
20
3.38323
11
-0.7366
21
3.38513
0
LINE
8
BLACK
6
CONTINUOUS
10
-0.7366
20
3.38513
11
-0.7366
21
3.41137
0
LINE
8
BLACK
6
CONTINUOUS
10
-0.7366
20
3.41137
11
-0.736422
21
3.41238
0
LINE
8
BLACK
6
CONTINUOUS
10
-0.736422
20
3.41238
11
-0.735124
21
3.41393
0
LINE
8
BLACK
6
CONTINUOUS
10
-0.735124
20
3.41393
11
-0.733135
21
3.41428
0
LINE
8
BLACK
6
CONTINUOUS
10
-0.733135
20
3.41428
11
-0.731386
21
3.41327
0
LINE
8
BLACK
6
CONTINUOUS
10
-0.731386
20
3.41327
11
-0.7313
21
3.41303
0
LINE
8
BLACK
6
CONTINUOUS
10
-0.7313
20
3.41303
11
-0.729344
21
3.41401
0
LINE
8
BLACK
6
CONTINUOUS
10
-0.729344
20
3.41401
11
-0.728361
21
3.41431
0
LINE
8
BLACK
6
CONTINUOUS
10
-0.728361
20
3.41431
11
-0.728189
21
3.41426
0
LINE
8
BLACK
6
CONTINUOUS
10
-0.728189
20
3.41426
11
-0.728023
21
3.41432
0
LINE
8
BLACK
6
CONTINUOUS
10
-0.728023
20
3.41432
11
-0.722399
21
3.41432
0
LINE
8
BLACK
6
CONTINUOUS
10
-0.722399
20
3.41432
11
-0.721389
21
3.41415
0
LINE
8
BLACK
6
CONTINUOUS
10
-0.721389
20
3.41415
11
-0.721254
21
3.41403
0
LINE
8
BLACK
6
CONTINUOUS
10
-0.721254
20
3.41403
11
-0.721078
21
3.41401
0
LINE
8
BLACK
6
CONTINUOUS
10
-0.721078
20
3.41401
11
-0.717329
21
3.41214
0
LINE
8
BLACK
6
CONTINUOUS
10
-0.717329
20
3.41214
11
-0.716759
21
3.41172
0
LINE
8
BLACK
6
CONTINUOUS
10
-0.716759
20
3.41172
11
-0.716524
21
3.41182
0
LINE
8
BLACK
6
CONTINUOUS
10
-0.716524
20
3.41182
11
-0.71622
21
3.41214
0
LINE
8
BLACK
6
CONTINUOUS
10
-0.71622
20
3.41214
11
-0.712471
21
3.41401
0
LINE
8
BLACK
6
CONTINUOUS
10
-0.712471
20
3.41401
11
-0.711488
21
3.41431
0
LINE
8
BLACK
6
CONTINUOUS
10
-0.711488
20
3.41431
11
-0.711316
21
3.41426
0
LINE
8
BLACK
6
CONTINUOUS
10
-0.711316
20
3.41426
11
-0.71115
21
3.41432
0
LINE
8
BLACK
6
CONTINUOUS
10
-0.71115
20
3.41432
11
-0.705526
21
3.41432
0
LINE
8
BLACK
6
CONTINUOUS
10
-0.705526
20
3.41432
11
-0.704516
21
3.41415
0
LINE
8
BLACK
6
CONTINUOUS
10
-0.704516
20
3.41415
11
-0.704381
21
3.41403
0
LINE
8
BLACK
6
CONTINUOUS
10
-0.704381
20
3.41403
11
-0.704206
21
3.41401
0
LINE
8
BLACK
6
CONTINUOUS
10
-0.704206
20
3.41401
11
-0.700456
21
3.41214
0
LINE
8
BLACK
6
CONTINUOUS
10
-0.700456
20
3.41214
11
-0.699632
21
3.41153
0
LINE
8
BLACK
6
CONTINUOUS
10
-0.699632
20
3.41153
11
-0.699457
21
3.41112
0
LINE
8
BLACK
6
CONTINUOUS
10
-0.699457
20
3.41112
11
-0.699136
21
3.41082
0
LINE
8
BLACK
6
CONTINUOUS
10
-0.699136
20
3.41082
11
-0.697261
21
3.40707
0
LINE
8
BLACK
6
CONTINUOUS
10
-0.697261
20
3.40707
11
-0.696968
21
3.40609
0
LINE
8
BLACK
6
CONTINUOUS
10
-0.696968
20
3.40609
11
-0.697009
21
3.40591
0
LINE
8
BLACK
6
CONTINUOUS
10
-0.697009
20
3.40591
11
-0.696949
21
3.40575
0
LINE
8
BLACK
6
CONTINUOUS
10
-0.696949
20
3.40575
11
-0.696949
21
3.38513
0
LINE
8
BLACK
6
CONTINUOUS
10
-0.696949
20
3.38513
11
-0.697127
21
3.38412
0
LINE
8
BLACK
6
CONTINUOUS
10
-0.697127
20
3.38412
11
-0.698103
21
3.38295
0
LINE
8
BLACK
6
CONTINUOUS
10
-0.698103
20
3.38295
11
-0.677787
21
3.38295
0
LINE
8
BLACK
6
CONTINUOUS
10
-0.677787
20
3.38295
11
-0.6806
21
3.38436
0
LINE
8
BLACK
6
CONTINUOUS
10
-0.6806
20
3.38436
11
-0.681309
21
3.38488
0
LINE
8
BLACK
6
CONTINUOUS
10
-0.681309
20
3.38488
11
-0.681367
21
3.38491
0
LINE
8
BLACK
6
CONTINUOUS
10
-0.681367
20
3.38491
11
-0.683242
21
3.38679
0
LINE
8
BLACK
6
CONTINUOUS
10
-0.683242
20
3.38679
11
-0.683748
21
3.38751
0
LINE
8
BLACK
6
CONTINUOUS
10
-0.683748
20
3.38751
11
-0.683795
21
3.38755
0
LINE
8
BLACK
6
CONTINUOUS
10
-0.683795
20
3.38755
11
-0.68567
21
3.3913
0
LINE
8
BLACK
6
CONTINUOUS
10
-0.68567
20
3.3913
11
-0.685962
21
3.39229
0
LINE
8
BLACK
6
CONTINUOUS
10
-0.685962
20
3.39229
11
-0.685921
21
3.39246
0
LINE
8
BLACK
6
CONTINUOUS
10
-0.685921
20
3.39246
11
-0.685982
21
3.39262
0
LINE
8
BLACK
6
CONTINUOUS
10
-0.685982
20
3.39262
11
-0.685982
21
3.40387
0
LINE
8
BLACK
6
CONTINUOUS
10
-0.685982
20
3.40387
11
-0.685804
21
3.40488
0
LINE
8
BLACK
6
CONTINUOUS
10
-0.685804
20
3.40488
11
-0.68569
21
3.40502
0
LINE
8
BLACK
6
CONTINUOUS
10
-0.68569
20
3.40502
11
-0.68567
21
3.40519
0
LINE
8
BLACK
6
CONTINUOUS
10
-0.68567
20
3.40519
11
-0.683795
21
3.40894
0
LINE
8
BLACK
6
CONTINUOUS
10
-0.683795
20
3.40894
11
-0.683269
21
3.40965
0
LINE
8
BLACK
6
CONTINUOUS
10
-0.683269
20
3.40965
11
-0.683242
21
3.40971
0
LINE
8
BLACK
6
CONTINUOUS
10
-0.683242
20
3.40971
11
-0.681367
21
3.41159
0
LINE
8
BLACK
6
CONTINUOUS
10
-0.681367
20
3.41159
11
-0.680644
21
3.41209
0
LINE
8
BLACK
6
CONTINUOUS
10
-0.680644
20
3.41209
11
-0.6806
21
3.41214
0
LINE
8
BLACK
6
CONTINUOUS
10
-0.6806
20
3.41214
11
-0.67685
21
3.41401
0
LINE
8
BLACK
6
CONTINUOUS
10
-0.67685
20
3.41401
11
-0.675867
21
3.41431
0
LINE
8
BLACK
6
CONTINUOUS
10
-0.675867
20
3.41431
11
-0.675696
21
3.41426
0
LINE
8
BLACK
6
CONTINUOUS
10
-0.675696
20
3.41426
11
-0.67553
21
3.41432
0
LINE
8
BLACK
6
CONTINUOUS
10
-0.67553
20
3.41432
11
-0.669906
21
3.41432
0
LINE
8
BLACK
6
CONTINUOUS
10
-0.669906
20
3.41432
11
-0.668896
21
3.41415
0
LINE
8
BLACK
6
CONTINUOUS
10
-0.668896
20
3.41415
11
-0.66876
21
3.41403
0
LINE
8
BLACK
6
CONTINUOUS
10
-0.66876
20
3.41403
11
-0.668585
21
3.41401
0
LINE
8
BLACK
6
CONTINUOUS
10
-0.668585
20
3.41401
11
-0.664836
21
3.41214
0
LINE
8
BLACK
6
CONTINUOUS
10
-0.664836
20
3.41214
11
-0.664126
21
3.41161
0
LINE
8
BLACK
6
CONTINUOUS
10
-0.664126
20
3.41161
11
-0.664068
21
3.41159
0
LINE
8
BLACK
6
CONTINUOUS
10
-0.664068
20
3.41159
11
-0.662193
21
3.40971
0
LINE
8
BLACK
6
CONTINUOUS
10
-0.662193
20
3.40971
11
-0.661687
21
3.40899
0
LINE
8
BLACK
6
CONTINUOUS
10
-0.661687
20
3.40899
11
-0.66164
21
3.40894
0
LINE
8
BLACK
6
CONTINUOUS
10
-0.66164
20
3.40894
11
-0.659765
21
3.40519
0
LINE
8
BLACK
6
CONTINUOUS
10
-0.659765
20
3.40519
11
-0.659473
21
3.40421
0
LINE
8
BLACK
6
CONTINUOUS
10
-0.659473
20
3.40421
11
-0.659514
21
3.40404
0
LINE
8
BLACK
6
CONTINUOUS
10
-0.659514
20
3.40404
11
-0.659454
21
3.40387
0
LINE
8
BLACK
6
CONTINUOUS
10
-0.659454
20
3.40387
11
-0.659454
21
3.39262
0
LINE
8
BLACK
6
CONTINUOUS
10
-0.659454
20
3.39262
11
-0.659632
21
3.39161
0
LINE
8
BLACK
6
CONTINUOUS
10
-0.659632
20
3.39161
11
-0.659745
21
3.39148
0
LINE
8
BLACK
6
CONTINUOUS
10
-0.659745
20
3.39148
11
-0.659765
21
3.3913
0
LINE
8
BLACK
6
CONTINUOUS
10
-0.659765
20
3.3913
11
-0.66164
21
3.38755
0
LINE
8
BLACK
6
CONTINUOUS
10
-0.66164
20
3.38755
11
-0.662166
21
3.38685
0
LINE
8
BLACK
6
CONTINUOUS
10
-0.662166
20
3.38685
11
-0.662193
21
3.38679
0
LINE
8
BLACK
6
CONTINUOUS
10
-0.662193
20
3.38679
11
-0.664068
21
3.38491
0
LINE
8
BLACK
6
CONTINUOUS
10
-0.664068
20
3.38491
11
-0.664791
21
3.38441
0
LINE
8
BLACK
6
CONTINUOUS
10
-0.664791
20
3.38441
11
-0.664836
21
3.38436
0
LINE
8
BLACK
6
CONTINUOUS
10
-0.664836
20
3.38436
11
-0.667648
21
3.38295
0
LINE
8
BLACK
6
CONTINUOUS
10
-0.667648
20
3.38295
11
-0.642167
21
3.38295
0
LINE
8
BLACK
6
CONTINUOUS
10
-0.642167
20
3.38295
11
-0.644979
21
3.38436
0
LINE
8
BLACK
6
CONTINUOUS
10
-0.644979
20
3.38436
11
-0.645688
21
3.38488
0
LINE
8
BLACK
6
CONTINUOUS
10
-0.645688
20
3.38488
11
-0.645747
21
3.38491
0
LINE
8
BLACK
6
CONTINUOUS
10
-0.645747
20
3.38491
11
-0.647622
21
3.38679
0
LINE
8
BLACK
6
CONTINUOUS
10
-0.647622
20
3.38679
11
-0.648128
21
3.38751
0
LINE
8
BLACK
6
CONTINUOUS
10
-0.648128
20
3.38751
11
-0.648175
21
3.38755
0
LINE
8
BLACK
6
CONTINUOUS
10
-0.648175
20
3.38755
11
-0.650049
21
3.3913
0
LINE
8
BLACK
6
CONTINUOUS
10
-0.650049
20
3.3913
11
-0.650342
21
3.39229
0
LINE
8
BLACK
6
CONTINUOUS
10
-0.650342
20
3.39229
11
-0.650301
21
3.39246
0
LINE
8
BLACK
6
CONTINUOUS
10
-0.650301
20
3.39246
11
-0.650361
21
3.39262
0
LINE
8
BLACK
6
CONTINUOUS
10
-0.650361
20
3.39262
11
-0.650361
21
3.40387
0
LINE
8
BLACK
6
CONTINUOUS
10
-0.650361
20
3.40387
11
-0.650183
21
3.40488
0
LINE
8
BLACK
6
CONTINUOUS
10
-0.650183
20
3.40488
11
-0.65007
21
3.40502
0
LINE
8
BLACK
6
CONTINUOUS
10
-0.65007
20
3.40502
11
-0.650049
21
3.40519
0
LINE
8
BLACK
6
CONTINUOUS
10
-0.650049
20
3.40519
11
-0.648175
21
3.40894
0
LINE
8
BLACK
6
CONTINUOUS
10
-0.648175
20
3.40894
11
-0.647649
21
3.40965
0
LINE
8
BLACK
6
CONTINUOUS
10
-0.647649
20
3.40965
11
-0.647621
21
3.40971
0
LINE
8
BLACK
6
CONTINUOUS
10
-0.647621
20
3.40971
11
-0.645747
21
3.41159
0
LINE
8
BLACK
6
CONTINUOUS
10
-0.645747
20
3.41159
11
-0.645024
21
3.41209
0
LINE
8
BLACK
6
CONTINUOUS
10
-0.645024
20
3.41209
11
-0.644979
21
3.41214
0
LINE
8
BLACK
6
CONTINUOUS
10
-0.644979
20
3.41214
11
-0.64123
21
3.41401
0
LINE
8
BLACK
6
CONTINUOUS
10
-0.64123
20
3.41401
11
-0.640247
21
3.41431
0
LINE
8
BLACK
6
CONTINUOUS
10
-0.640247
20
3.41431
11
-0.640075
21
3.41426
0
LINE
8
BLACK
6
CONTINUOUS
10
-0.640075
20
3.41426
11
-0.639909
21
3.41432
0
LINE
8
BLACK
6
CONTINUOUS
10
-0.639909
20
3.41432
11
-0.63241
21
3.41432
0
LINE
8
BLACK
6
CONTINUOUS
10
-0.63241
20
3.41432
11
-0.631613
21
3.41418
0
LINE
8
BLACK
6
CONTINUOUS
10
-0.631613
20
3.41418
11
-0.631613
21
3.4245
0
LINE
8
BLACK
6
CONTINUOUS
10
-0.631613
20
3.4245
11
-0.631435
21
3.42551
0
LINE
8
BLACK
6
CONTINUOUS
10
-0.631435
20
3.42551
11
-0.630137
21
3.42705
0
LINE
8
BLACK
6
CONTINUOUS
10
-0.630137
20
3.42705
11
-0.628148
21
3.4274
0
LINE
8
BLACK
6
CONTINUOUS
10
-0.628148
20
3.4274
11
-0.626399
21
3.42639
0
LINE
8
BLACK
6
CONTINUOUS
10
-0.626399
20
3.42639
11
-0.625708
21
3.4245
0
LINE
8
BLACK
6
CONTINUOUS
10
-0.625708
20
3.4245
11
-0.625708
21
3.38513
0
LINE
8
BLACK
6
CONTINUOUS
10
-0.625708
20
3.38513
11
-0.625886
21
3.38412
0
LINE
8
BLACK
6
CONTINUOUS
10
-0.625886
20
3.38412
11
-0.626862
21
3.38295
0
LINE
8
BLACK
6
CONTINUOUS
10
-0.626862
20
3.38295
11
-0.606546
21
3.38295
0
LINE
8
BLACK
6
CONTINUOUS
10
-0.606546
20
3.38295
11
-0.609359
21
3.38436
0
LINE
8
BLACK
6
CONTINUOUS
10
-0.609359
20
3.38436
11
-0.610182
21
3.38497
0
LINE
8
BLACK
6
CONTINUOUS
10
-0.610182
20
3.38497
11
-0.610358
21
3.38538
0
LINE
8
BLACK
6
CONTINUOUS
10
-0.610358
20
3.38538
11
-0.610679
21
3.38568
0
LINE
8
BLACK
6
CONTINUOUS
10
-0.610679
20
3.38568
11
-0.612554
21
3.38943
0
LINE
8
BLACK
6
CONTINUOUS
10
-0.612554
20
3.38943
11
-0.612846
21
3.39041
0
LINE
8
BLACK
6
CONTINUOUS
10
-0.612846
20
3.39041
11
-0.612805
21
3.39058
0
LINE
8
BLACK
6
CONTINUOUS
10
-0.612805
20
3.39058
11
-0.612866
21
3.39075
0
LINE
8
BLACK
6
CONTINUOUS
10
-0.612866
20
3.39075
11
-0.612866
21
3.41137
0
LINE
8
BLACK
6
CONTINUOUS
10
-0.612866
20
3.41137
11
-0.612688
21
3.41238
0
LINE
8
BLACK
6
CONTINUOUS
10
-0.612688
20
3.41238
11
-0.611389
21
3.41393
0
LINE
8
BLACK
6
CONTINUOUS
10
-0.611389
20
3.41393
11
-0.6094
21
3.41428
0
LINE
8
BLACK
6
CONTINUOUS
10
-0.6094
20
3.41428
11
-0.607651
21
3.41327
0
LINE
8
BLACK
6
CONTINUOUS
10
-0.607651
20
3.41327
11
-0.60696
21
3.41137
0
LINE
8
BLACK
6
CONTINUOUS
10
-0.60696
20
3.41137
11
-0.60696
21
3.39145
0
LINE
8
BLACK
6
CONTINUOUS
10
-0.60696
20
3.39145
11
-0.605837
21
3.3892
0
LINE
8
BLACK
6
CONTINUOUS
10
-0.605837
20
3.3892
11
-0.603592
21
3.38808
0
LINE
8
BLACK
6
CONTINUOUS
10
-0.603592
20
3.38808
11
-0.599361
21
3.38808
0
LINE
8
BLACK
6
CONTINUOUS
10
-0.599361
20
3.38808
11
-0.596664
21
3.38943
0
LINE
8
BLACK
6
CONTINUOUS
10
-0.596664
20
3.38943
11
-0.595993
21
3.3901
0
LINE
8
BLACK
6
CONTINUOUS
10
-0.595993
20
3.3901
11
-0.595993
21
3.41137
0
LINE
8
BLACK
6
CONTINUOUS
10
-0.595993
20
3.41137
11
-0.595815
21
3.41238
0
LINE
8
BLACK
6
CONTINUOUS
10
-0.595815
20
3.41238
11
-0.594517
21
3.41393
0
LINE
8
BLACK
6
CONTINUOUS
10
-0.594517
20
3.41393
11
-0.592527
21
3.41428
0
LINE
8
BLACK
6
CONTINUOUS
10
-0.592527
20
3.41428
11
-0.590778
21
3.41327
0
LINE
8
BLACK
6
CONTINUOUS
10
-0.590778
20
3.41327
11
-0.590087
21
3.41137
0
LINE
8
BLACK
6
CONTINUOUS
10
-0.590087
20
3.41137
11
-0.590087
21
3.38513
0
LINE
8
BLACK
6
CONTINUOUS
10
-0.590087
20
3.38513
11
-0.590265
21
3.38412
0
LINE
8
BLACK
6
CONTINUOUS
10
-0.590265
20
3.38412
11
-0.591241
21
3.38295
0
LINE
8
BLACK
6
CONTINUOUS
10
-0.591241
20
3.38295
11
-0.570926
21
3.38295
0
LINE
8
BLACK
6
CONTINUOUS
10
-0.570926
20
3.38295
11
-0.573738
21
3.38436
0
LINE
8
BLACK
6
CONTINUOUS
10
-0.573738
20
3.38436
11
-0.574562
21
3.38497
0
LINE
8
BLACK
6
CONTINUOUS
10
-0.574562
20
3.38497
11
-0.574738
21
3.38538
0
LINE
8
BLACK
6
CONTINUOUS
10
-0.574738
20
3.38538
11
-0.575059
21
3.38568
0
LINE
8
BLACK
6
CONTINUOUS
10
-0.575059
20
3.38568
11
-0.576934
21
3.38943
0
LINE
8
BLACK
6
CONTINUOUS
10
-0.576934
20
3.38943
11
-0.577226
21
3.39041
0
LINE
8
BLACK
6
CONTINUOUS
10
-0.577226
20
3.39041
11
-0.577185
21
3.39058
0
LINE
8
BLACK
6
CONTINUOUS
10
-0.577185
20
3.39058
11
-0.577245
21
3.39075
0
LINE
8
BLACK
6
CONTINUOUS
10
-0.577245
20
3.39075
11
-0.577245
21
3.4245
0
LINE
8
BLACK
6
CONTINUOUS
10
-0.577245
20
3.4245
11
-0.577067
21
3.42551
0
LINE
8
BLACK
6
CONTINUOUS
10
-0.577067
20
3.42551
11
-0.575769
21
3.42705
0
LINE
8
BLACK
6
CONTINUOUS
10
-0.575769
20
3.42705
11
-0.57378
21
3.4274
0
LINE
8
BLACK
6
CONTINUOUS
10
-0.57378
20
3.4274
11
-0.572031
21
3.42639
0
LINE
8
BLACK
6
CONTINUOUS
10
-0.876927
20
3.37705
11
-0.876927
21
3.372
0
LINE
8
BLACK
6
CONTINUOUS
10
-0.876927
20
3.372
11
-0.877105
21
3.37099
0
LINE
8
BLACK
6
CONTINUOUS
10
-0.877105
20
3.37099
11
-0.878403
21
3.36944
0
LINE
8
BLACK
6
CONTINUOUS
10
-0.878403
20
3.36944
11
-0.880392
21
3.36909
0
LINE
8
BLACK
6
CONTINUOUS
10
-0.880392
20
3.36909
11
-0.882141
21
3.3701
0
LINE
8
BLACK
6
CONTINUOUS
10
-0.882141
20
3.3701
11
-0.882832
21
3.372
0
LINE
8
BLACK
6
CONTINUOUS
10
-0.882832
20
3.372
11
-0.882832
21
3.37705
0
LINE
8
BLACK
6
CONTINUOUS
10
-0.882832
20
3.37705
11
-0.997047
21
3.37705
0
LINE
8
BLACK
6
CONTINUOUS
10
-0.997047
20
3.37705
11
-0.997047
21
0.00295276
0
LINE
8
BLACK
6
CONTINUOUS
10
-0.997047
20
0.00295276
11
-0.00295276
21
0.00295276
0
LINE
8
BLACK
6
CONTINUOUS
10
-0.00295276
20
0.00295276
11
-0.00295276
21
3.37705
0
LINE
8
BLACK
6
CONTINUOUS
10
-0.00295276
20
3.37705
11
-0.876927
21
3.37705
0
LINE
8
BLACK
6
CONTINUOUS
10
-0.730024
20
3.40707
11
-0.730695
21
3.4064
0
LINE
8
BLACK
6
CONTINUOUS
10
-0.730695
20
3.4064
11
-0.730695
21
3.38513
0
LINE
8
BLACK
6
CONTINUOUS
10
-0.730695
20
3.38513
11
-0.730873
21
3.38412
0
LINE
8
BLACK
6
CONTINUOUS
10
-0.730873
20
3.38412
11
-0.731848
21
3.38295
0
LINE
8
BLACK
6
CONTINUOUS
10
-0.731848
20
3.38295
11
-0.718561
21
3.38295
0
LINE
8
BLACK
6
CONTINUOUS
10
-0.718561
20
3.38295
11
-0.719037
21
3.38323
0
LINE
8
BLACK
6
CONTINUOUS
10
-0.719037
20
3.38323
11
-0.719727
21
3.38513
0
LINE
8
BLACK
6
CONTINUOUS
10
-0.719727
20
3.38513
11
-0.719727
21
3.40505
0
LINE
8
BLACK
6
CONTINUOUS
10
-0.719727
20
3.40505
11
-0.72085
21
3.4073
0
LINE
8
BLACK
6
CONTINUOUS
10
-0.72085
20
3.4073
11
-0.723096
21
3.40842
0
LINE
8
BLACK
6
CONTINUOUS
10
-0.723096
20
3.40842
11
-0.727326
21
3.40842
0
LINE
8
BLACK
6
CONTINUOUS
10
-0.727326
20
3.40842
11
-0.730024
21
3.40707
0
LINE
8
BLACK
6
CONTINUOUS
10
-0.712699
20
3.4073
11
-0.713822
21
3.40505
0
LINE
8
BLACK
6
CONTINUOUS
10
-0.713822
20
3.40505
11
-0.713822
21
3.38513
0
LINE
8
BLACK
6
CONTINUOUS
10
-0.713822
20
3.38513
11
-0.714
21
3.38412
0
LINE
8
BLACK
6
CONTINUOUS
10
-0.714
20
3.38412
11
-0.714976
21
3.38295
0
LINE
8
BLACK
6
CONTINUOUS
10
-0.714976
20
3.38295
11
-0.701688
21
3.38295
0
LINE
8
BLACK
6
CONTINUOUS
10
-0.701688
20
3.38295
11
-0.702164
21
3.38323
0
LINE
8
BLACK
6
CONTINUOUS
10
-0.702164
20
3.38323
11
-0.702855
21
3.38513
0
LINE
8
BLACK
6
CONTINUOUS
10
-0.702855
20
3.38513
11
-0.702855
21
3.40505
0
LINE
8
BLACK
6
CONTINUOUS
10
-0.702855
20
3.40505
11
-0.703977
21
3.4073
0
LINE
8
BLACK
6
CONTINUOUS
10
-0.703977
20
3.4073
11
-0.706223
21
3.40842
0
LINE
8
BLACK
6
CONTINUOUS
10
-0.706223
20
3.40842
11
-0.710453
21
3.40842
0
LINE
8
BLACK
6
CONTINUOUS
10
-0.710453
20
3.40842
11
-0.712699
21
3.4073
0
LINE
8
BLACK
6
CONTINUOUS
10
-0.596407
20
3.38295
11
-0.594827
21
3.38295
0
LINE
8
BLACK
6
CONTINUOUS
10
-0.594827
20
3.38295
11
-0.595302
21
3.38323
0
LINE
8
BLACK
6
CONTINUOUS
10
-0.595302
20
3.38323
11
-0.595388
21
3.38346
0
LINE
8
BLACK
6
CONTINUOUS
10
-0.595388
20
3.38346
11
-0.596407
21
3.38295
0
LINE
8
BLACK
6
CONTINUOUS
10
-0.97328
20
3.39719
11
-0.973452
21
3.39723
0
LINE
8
BLACK
6
CONTINUOUS
10
-0.973452
20
3.39723
11
-0.973618
21
3.39717
0
LINE
8
BLACK
6
CONTINUOUS
10
-0.973618
20
3.39717
11
-0.982294
21
3.39717
0
LINE
8
BLACK
6
CONTINUOUS
10
-0.982294
20
3.39717
11
-0.98454
21
3.39605
0
LINE
8
BLACK
6
CONTINUOUS
10
-0.98454
20
3.39605
11
-0.985663
21
3.3938
0
LINE
8
BLACK
6
CONTINUOUS
10
-0.985663
20
3.3938
11
-0.985663
21
3.39145
0
LINE
8
BLACK
6
CONTINUOUS
10
-0.985663
20
3.39145
11
-0.98454
21
3.3892
0
LINE
8
BLACK
6
CONTINUOUS
10
-0.98454
20
3.3892
11
-0.982294
21
3.38808
0
LINE
8
BLACK
6
CONTINUOUS
10
-0.982294
20
3.38808
11
-0.974315
21
3.38808
0
LINE
8
BLACK
6
CONTINUOUS
10
-0.974315
20
3.38808
11
-0.972821
21
3.38882
0
LINE
8
BLACK
6
CONTINUOUS
10
-0.972821
20
3.38882
11
-0.972821
21
3.39733
0
LINE
8
BLACK
6
CONTINUOUS
10
-0.972821
20
3.39733
11
-0.97328
21
3.39719
0
LINE
8
BLACK
6
CONTINUOUS
10
-0.947497
20
3.40707
11
-0.948694
21
3.40587
0
LINE
8
BLACK
6
CONTINUOUS
10
-0.948694
20
3.40587
11
-0.950042
21
3.40318
0
LINE
8
BLACK
6
CONTINUOUS
10
-0.950042
20
3.40318
11
-0.950042
21
3.39332
0
LINE
8
BLACK
6
CONTINUOUS
10
-0.950042
20
3.39332
11
-0.948694
21
3.39062
0
LINE
8
BLACK
6
CONTINUOUS
10
-0.948694
20
3.39062
11
-0.947497
21
3.38943
0
LINE
8
BLACK
6
CONTINUOUS
10
-0.947497
20
3.38943
11
-0.944799
21
3.38808
0
LINE
8
BLACK
6
CONTINUOUS
10
-0.944799
20
3.38808
11
-0.938694
21
3.38808
0
LINE
8
BLACK
6
CONTINUOUS
10
-0.938694
20
3.38808
11
-0.9372
21
3.38882
0
LINE
8
BLACK
6
CONTINUOUS
10
-0.9372
20
3.38882
11
-0.9372
21
3.40767
0
LINE
8
BLACK
6
CONTINUOUS
10
-0.9372
20
3.40767
11
-0.938694
21
3.40842
0
LINE
8
BLACK
6
CONTINUOUS
10
-0.938694
20
3.40842
11
-0.944799
21
3.40842
0
LINE
8
BLACK
6
CONTINUOUS
10
-0.944799
20
3.40842
11
-0.947497
21
3.40707
0
LINE
8
BLACK
6
CONTINUOUS
10
-0.902039
20
3.39719
11
-0.902211
21
3.39723
0
LINE
8
BLACK
6
CONTINUOUS
10
-0.902211
20
3.39723
11
-0.902377
21
3.39717
0
LINE
8
BLACK
6
CONTINUOUS
10
-0.902377
20
3.39717
11
-0.911053
21
3.39717
0
LINE
8
BLACK
6
CONTINUOUS
10
-0.911053
20
3.39717
11
-0.913299
21
3.39605
0
LINE
8
BLACK
6
CONTINUOUS
10
-0.913299
20
3.39605
11
-0.914422
21
3.3938
0
LINE
8
BLACK
6
CONTINUOUS
10
-0.914422
20
3.3938
11
-0.914422
21
3.39145
0
LINE
8
BLACK
6
CONTINUOUS
10
-0.914422
20
3.39145
11
-0.913299
21
3.3892
0
LINE
8
BLACK
6
CONTINUOUS
10
-0.913299
20
3.3892
11
-0.911053
21
3.38808
0
LINE
8
BLACK
6
CONTINUOUS
10
-0.911053
20
3.38808
11
-0.903074
21
3.38808
0
LINE
8
BLACK
6
CONTINUOUS
10
-0.903074
20
3.38808
11
-0.90158
21
3.38882
0
LINE
8
BLACK
6
CONTINUOUS
10
-0.90158
20
3.38882
11
-0.90158
21
3.39733
0
LINE
8
BLACK
6
CONTINUOUS
10
-0.90158
20
3.39733
11
-0.902039
21
3.39719
0
LINE
8
BLACK
6
CONTINUOUS
10
-0.876927
20
3.40767
11
-0.876927
21
3.38882
0
LINE
8
BLACK
6
CONTINUOUS
10
-0.876927
20
3.38882
11
-0.875433
21
3.38808
0
LINE
8
BLACK
6
CONTINUOUS
10
-0.875433
20
3.38808
11
-0.869328
21
3.38808
0
LINE
8
BLACK
6
CONTINUOUS
10
-0.869328
20
3.38808
11
-0.86663
21
3.38943
0
LINE
8
BLACK
6
CONTINUOUS
10
-0.86663
20
3.38943
11
-0.865433
21
3.39062
0
LINE
8
BLACK
6
CONTINUOUS
10
-0.865433
20
3.39062
11
-0.864084
21
3.39332
0
LINE
8
BLACK
6
CONTINUOUS
10
-0.864084
20
3.39332
11
-0.864084
21
3.40318
0
LINE
8
BLACK
6
CONTINUOUS
10
-0.864084
20
3.40318
11
-0.865433
21
3.40587
0
LINE
8
BLACK
6
CONTINUOUS
10
-0.865433
20
3.40587
11
-0.86663
21
3.40707
0
LINE
8
BLACK
6
CONTINUOUS
10
-0.86663
20
3.40707
11
-0.869328
21
3.40842
0
LINE
8
BLACK
6
CONTINUOUS
10
-0.869328
20
3.40842
11
-0.875433
21
3.40842
0
LINE
8
BLACK
6
CONTINUOUS
10
-0.875433
20
3.40842
11
-0.876927
21
3.40767
0
LINE
8
BLACK
6
CONTINUOUS
10
-0.67753
20
3.40707
11
-0.678727
21
3.40587
0
LINE
8
BLACK
6
CONTINUOUS
10
-0.678727
20
3.40587
11
-0.680076
21
3.40318
0
LINE
8
BLACK
6
CONTINUOUS
10
-0.680076
20
3.40318
11
-0.680076
21
3.39332
0
LINE
8
BLACK
6
CONTINUOUS
10
-0.680076
20
3.39332
11
-0.678727
21
3.39062
0
LINE
8
BLACK
6
CONTINUOUS
10
-0.678727
20
3.39062
11
-0.67753
21
3.38943
0
LINE
8
BLACK
6
CONTINUOUS
10
-0.67753
20
3.38943
11
-0.674833
21
3.38808
0
LINE
8
BLACK
6
CONTINUOUS
10
-0.674833
20
3.38808
11
-0.670603
21
3.38808
0
LINE
8
BLACK
6
CONTINUOUS
10
-0.670603
20
3.38808
11
-0.667905
21
3.38943
0
LINE
8
BLACK
6
CONTINUOUS
10
-0.667905
20
3.38943
11
-0.666708
21
3.39062
0
LINE
8
BLACK
6
CONTINUOUS
10
-0.666708
20
3.39062
11
-0.665359
21
3.39332
0
LINE
8
BLACK
6
CONTINUOUS
10
-0.665359
20
3.39332
11
-0.665359
21
3.40318
0
LINE
8
BLACK
6
CONTINUOUS
10
-0.665359
20
3.40318
11
-0.666708
21
3.40587
0
LINE
8
BLACK
6
CONTINUOUS
10
-0.666708
20
3.40587
11
-0.667905
21
3.40707
0
LINE
8
BLACK
6
CONTINUOUS
10
-0.667905
20
3.40707
11
-0.670603
21
3.40842
0
LINE
8
BLACK
6
CONTINUOUS
10
-0.670603
20
3.40842
11
-0.674833
21
3.40842
0
LINE
8
BLACK
6
CONTINUOUS
10
-0.674833
20
3.40842
11
-0.67753
21
3.40707
0
LINE
8
BLACK
6
CONTINUOUS
10
-0.64191
20
3.40707
11
-0.643107
21
3.40587
0
LINE
8
BLACK
6
CONTINUOUS
10
-0.643107
20
3.40587
11
-0.644456
21
3.40318
0
LINE
8
BLACK
6
CONTINUOUS
10
-0.644456
20
3.40318
11
-0.644456
21
3.39332
0
LINE
8
BLACK
6
CONTINUOUS
10
-0.644456
20
3.39332
11
-0.643107
21
3.39062
0
LINE
8
BLACK
6
CONTINUOUS
10
-0.643107
20
3.39062
11
-0.64191
21
3.38943
0
LINE
8
BLACK
6
CONTINUOUS
10
-0.64191
20
3.38943
11
-0.639212
21
3.38808
0
LINE
8
BLACK
6
CONTINUOUS
10
-0.639212
20
3.38808
11
-0.633107
21
3.38808
0
LINE
8
BLACK
6
CONTINUOUS
10
-0.633107
20
3.38808
11
-0.631613
21
3.38882
0
LINE
8
BLACK
6
CONTINUOUS
10
-0.631613
20
3.38882
11
-0.631613
21
3.40767
0
LINE
8
BLACK
6
CONTINUOUS
10
-0.631613
20
3.40767
11
-0.633107
21
3.40842
0
LINE
8
BLACK
6
CONTINUOUS
10
-0.633107
20
3.40842
11
-0.639212
21
3.40842
0
LINE
8
BLACK
6
CONTINUOUS
10
-0.639212
20
3.40842
11
-0.64191
21
3.40707
0
LINE
8
BLACK
6
CONTINUOUS
10
-0.819561
20
3.4073
11
-0.820684
21
3.40505
0
LINE
8
BLACK
6
CONTINUOUS
10
-0.820684
20
3.40505
11
-0.820684
21
3.40185
0
LINE
8
BLACK
6
CONTINUOUS
10
-0.820684
20
3.40185
11
-0.807841
21
3.40442
0
LINE
8
BLACK
6
CONTINUOUS
10
-0.807841
20
3.40442
11
-0.807841
21
3.40505
0
LINE
8
BLACK
6
CONTINUOUS
10
-0.807841
20
3.40505
11
-0.808964
21
3.4073
0
LINE
8
BLACK
6
CONTINUOUS
10
-0.808964
20
3.4073
11
-0.81121
21
3.40842
0
LINE
8
BLACK
6
CONTINUOUS
10
-0.81121
20
3.40842
11
-0.817315
21
3.40842
0
LINE
8
BLACK
6
CONTINUOUS
10
-0.817315
20
3.40842
11
-0.819561
21
3.4073
0
LINE
8
BLACK
6
CONTINUOUS
10
-0.551469
20
3.4073
11
-0.552592
21
3.40505
0
LINE
8
BLACK
6
CONTINUOUS
10
-0.552592
20
3.40505
11
-0.552592
21
3.40185
0
LINE
8
BLACK
6
CONTINUOUS
10
-0.552592
20
3.40185
11
-0.53975
21
3.40442
0
LINE
8
BLACK
6
CONTINUOUS
10
-0.53975
20
3.40442
11
-0.53975
21
3.40505
0
LINE
8
BLACK
6
CONTINUOUS
10
-0.53975
20
3.40505
11
-0.540873
21
3.4073
0
LINE
8
BLACK
6
CONTINUOUS
10
-0.540873
20
3.4073
11
-0.543119
21
3.40842
0
LINE
8
BLACK
6
CONTINUOUS
10
-0.543119
20
3.40842
11
-0.549223
21
3.40842
0
LINE
8
BLACK
6
CONTINUOUS
10
-0.549223
20
3.40842
11
-0.551469
21
3.4073
0
LINE
8
BLACK
6
CONTINUOUS
10
0.0780109
20
3.41415
11
0.0781462
21
3.41403
0
LINE
8
BLACK
6
CONTINUOUS
10
0.0781462
20
3.41403
11
0.0783215
21
3.41401
0
LINE
8
BLACK
6
CONTINUOUS
10
0.0783215
20
3.41401
11
0.0820711
21
3.41214
0
LINE
8
BLACK
6
CONTINUOUS
10
0.0820711
20
3.41214
11
0.0827801
21
3.41161
0
LINE
8
BLACK
6
CONTINUOUS
10
0.0827801
20
3.41161
11
0.0828385
21
3.41159
0
LINE
8
BLACK
6
CONTINUOUS
10
0.0828385
20
3.41159
11
0.0847132
21
3.40971
0
LINE
8
BLACK
6
CONTINUOUS
10
0.0847132
20
3.40971
11
0.0852195
21
3.40899
0
LINE
8
BLACK
6
CONTINUOUS
10
0.0852195
20
3.40899
11
0.0852663
21
3.40894
0
LINE
8
BLACK
6
CONTINUOUS
10
0.0852663
20
3.40894
11
0.0871411
21
3.40519
0
LINE
8
BLACK
6
CONTINUOUS
10
0.0871411
20
3.40519
11
0.0874335
21
3.40421
0
LINE
8
BLACK
6
CONTINUOUS
10
0.0874335
20
3.40421
11
0.0873924
21
3.40404
0
LINE
8
BLACK
6
CONTINUOUS
10
0.0873924
20
3.40404
11
0.0874528
21
3.40387
0
LINE
8
BLACK
6
CONTINUOUS
10
0.0874528
20
3.40387
11
0.0874528
21
3.39262
0
LINE
8
BLACK
6
CONTINUOUS
10
0.0874528
20
3.39262
11
0.0872748
21
3.39161
0
LINE
8
BLACK
6
CONTINUOUS
10
0.0872748
20
3.39161
11
0.0871613
21
3.39148
0
LINE
8
BLACK
6
CONTINUOUS
10
0.0871613
20
3.39148
11
0.0871411
21
3.3913
0
LINE
8
BLACK
6
CONTINUOUS
10
0.0871411
20
3.3913
11
0.0852663
21
3.38755
0
LINE
8
BLACK
6
CONTINUOUS
10
0.0852663
20
3.38755
11
0.0847404
21
3.38685
0
LINE
8
BLACK
6
CONTINUOUS
10
0.0847404
20
3.38685
11
0.0847132
21
3.38679
0
LINE
8
BLACK
6
CONTINUOUS
10
0.0847132
20
3.38679
11
0.0828385
21
3.38491
0
LINE
8
BLACK
6
CONTINUOUS
10
0.0828385
20
3.38491
11
0.0821153
21
3.38441
0
LINE
8
BLACK
6
CONTINUOUS
10
0.0821153
20
3.38441
11
0.0820711
21
3.38436
0
LINE
8
BLACK
6
CONTINUOUS
10
0.0820711
20
3.38436
11
0.0783215
21
3.38248
0
LINE
8
BLACK
6
CONTINUOUS
10
0.0783215
20
3.38248
11
0.0773386
21
3.38219
0
LINE
8
BLACK
6
CONTINUOUS
10
0.0773386
20
3.38219
11
0.0771669
21
3.38223
0
LINE
8
BLACK
6
CONTINUOUS
10
0.0771669
20
3.38223
11
0.077001
21
3.38217
0
LINE
8
BLACK
6
CONTINUOUS
10
0.077001
20
3.38217
11
0.0713767
21
3.38217
0
LINE
8
BLACK
6
CONTINUOUS
10
0.0713767
20
3.38217
11
0.0703668
21
3.38235
0
LINE
8
BLACK
6
CONTINUOUS
10
0.0703668
20
3.38235
11
0.0702315
21
3.38246
0
LINE
8
BLACK
6
CONTINUOUS
10
0.0702315
20
3.38246
11
0.0700562
21
3.38248
0
LINE
8
BLACK
6
CONTINUOUS
10
0.0700562
20
3.38248
11
0.0663067
21
3.38436
0
LINE
8
BLACK
6
CONTINUOUS
10
0.0663067
20
3.38436
11
0.0655976
21
3.38488
0
LINE
8
BLACK
6
CONTINUOUS
10
0.0655976
20
3.38488
11
0.0655393
21
3.38491
0
LINE
8
BLACK
6
CONTINUOUS
10
0.0655393
20
3.38491
11
0.0636645
21
3.38679
0
LINE
8
BLACK
6
CONTINUOUS
10
0.0636645
20
3.38679
11
0.0631582
21
3.38751
0
LINE
8
BLACK
6
CONTINUOUS
10
0.0631582
20
3.38751
11
0.0631114
21
3.38755
0
LINE
8
BLACK
6
CONTINUOUS
10
0.0631114
20
3.38755
11
0.0612367
21
3.3913
0
LINE
8
BLACK
6
CONTINUOUS
10
0.0612367
20
3.3913
11
0.0609443
21
3.39229
0
LINE
8
BLACK
6
CONTINUOUS
10
0.0609443
20
3.39229
11
0.0609853
21
3.39246
0
LINE
8
BLACK
6
CONTINUOUS
10
0.0609853
20
3.39246
11
0.0609249
21
3.39262
0
LINE
8
BLACK
6
CONTINUOUS
10
0.0609249
20
3.39262
11
0.0609249
21
3.40387
0
LINE
8
BLACK
6
CONTINUOUS
10
0.0609249
20
3.40387
11
0.061103
21
3.40488
0
LINE
8
BLACK
6
CONTINUOUS
10
0.061103
20
3.40488
11
0.0612165
21
3.40502
0
LINE
8
BLACK
6
CONTINUOUS
10
0.0612165
20
3.40502
11
0.0612367
21
3.40519
0
LINE
8
BLACK
6
CONTINUOUS
10
0.0612367
20
3.40519
11
0.0631114
21
3.40894
0
LINE
8
BLACK
6
CONTINUOUS
10
0.0631114
20
3.40894
11
0.0636373
21
3.40965
0
LINE
8
BLACK
6
CONTINUOUS
10
0.0636373
20
3.40965
11
0.0636645
21
3.40971
0
LINE
8
BLACK
6
CONTINUOUS
10
0.0636645
20
3.40971
11
0.0655393
21
3.41159
0
LINE
8
BLACK
6
CONTINUOUS
10
0.0655393
20
3.41159
11
0.0662624
21
3.41209
0
LINE
8
BLACK
6
CONTINUOUS
10
0.0662624
20
3.41209
11
0.0663067
21
3.41214
0
LINE
8
BLACK
6
CONTINUOUS
10
0.0663067
20
3.41214
11
0.0700562
21
3.41401
0
LINE
8
BLACK
6
CONTINUOUS
10
0.0700562
20
3.41401
11
0.0710391
21
3.41431
0
LINE
8
BLACK
6
CONTINUOUS
10
0.0710391
20
3.41431
11
0.0712108
21
3.41426
0
LINE
8
BLACK
6
CONTINUOUS
10
0.0712108
20
3.41426
11
0.0713767
21
3.41432
0
LINE
8
BLACK
6
CONTINUOUS
10
0.0713767
20
3.41432
11
0.077001
21
3.41432
0
LINE
8
BLACK
6
CONTINUOUS
10
0.077001
20
3.41432
11
0.0780109
21
3.41415
0
LINE
8
BLACK
6
CONTINUOUS
10
0.0693763
20
3.40707
11
0.0681792
21
3.40587
0
LINE
8
BLACK
6
CONTINUOUS
10
0.0681792
20
3.40587
11
0.0668304
21
3.40318
0
LINE
8
BLACK
6
CONTINUOUS
10
0.0668304
20
3.40318
11
0.0668304
21
3.39332
0
LINE
8
BLACK
6
CONTINUOUS
10
0.0668304
20
3.39332
11
0.0681792
21
3.39062
0
LINE
8
BLACK
6
CONTINUOUS
10
0.0681792
20
3.39062
11
0.0693763
21
3.38943
0
LINE
8
BLACK
6
CONTINUOUS
10
0.0693763
20
3.38943
11
0.0720738
21
3.38808
0
LINE
8
BLACK
6
CONTINUOUS
10
0.0720738
20
3.38808
11
0.076304
21
3.38808
0
LINE
8
BLACK
6
CONTINUOUS
10
0.076304
20
3.38808
11
0.0790014
21
3.38943
0
LINE
8
BLACK
6
CONTINUOUS
10
0.0790014
20
3.38943
11
0.0801985
21
3.39062
0
LINE
8
BLACK
6
CONTINUOUS
10
0.0801985
20
3.39062
11
0.0815473
21
3.39332
0
LINE
8
BLACK
6
CONTINUOUS
10
0.0815473
20
3.39332
11
0.0815473
21
3.40318
0
LINE
8
BLACK
6
CONTINUOUS
10
0.0815473
20
3.40318
11
0.0801986
21
3.40587
0
LINE
8
BLACK
6
CONTINUOUS
10
0.0801986
20
3.40587
11
0.0790015
21
3.40707
0
LINE
8
BLACK
6
CONTINUOUS
10
0.0790015
20
3.40707
11
0.076304
21
3.40842
0
LINE
8
BLACK
6
CONTINUOUS
10
0.076304
20
3.40842
11
0.0720738
21
3.40842
0
LINE
8
BLACK
6
CONTINUOUS
10
0.0720738
20
3.40842
11
0.0693763
21
3.40707
0
LINE
8
BLACK
6
CONTINUOUS
10
0.120508
20
3.42639
11
0.121199
21
3.4245
0
LINE
8
BLACK
6
CONTINUOUS
10
0.121199
20
3.4245
11
0.121199
21
3.38513
0
LINE
8
BLACK
6
CONTINUOUS
10
0.121199
20
3.38513
11
0.121021
21
3.38412
0
LINE
8
BLACK
6
CONTINUOUS
10
0.121021
20
3.38412
11
0.119722
21
3.38257
0
LINE
8
BLACK
6
CONTINUOUS
10
0.119722
20
3.38257
11
0.117733
21
3.38222
0
LINE
8
BLACK
6
CONTINUOUS
10
0.117733
20
3.38222
11
0.116596
21
3.38287
0
LINE
8
BLACK
6
CONTINUOUS
10
0.116596
20
3.38287
11
0.115817
21
3.38248
0
LINE
8
BLACK
6
CONTINUOUS
10
0.115817
20
3.38248
11
0.114834
21
3.38219
0
LINE
8
BLACK
6
CONTINUOUS
10
0.114834
20
3.38219
11
0.114662
21
3.38223
0
LINE
8
BLACK
6
CONTINUOUS
10
0.114662
20
3.38223
11
0.114496
21
3.38217
0
LINE
8
BLACK
6
CONTINUOUS
10
0.114496
20
3.38217
11
0.106997
21
3.38217
0
LINE
8
BLACK
6
CONTINUOUS
10
0.106997
20
3.38217
11
0.105987
21
3.38235
0
LINE
8
BLACK
6
CONTINUOUS
10
0.105987
20
3.38235
11
0.105852
21
3.38246
0
LINE
8
BLACK
6
CONTINUOUS
10
0.105852
20
3.38246
11
0.105677
21
3.38248
0
LINE
8
BLACK
6
CONTINUOUS
10
0.105677
20
3.38248
11
0.101927
21
3.38436
0
LINE
8
BLACK
6
CONTINUOUS
10
0.101927
20
3.38436
11
0.101218
21
3.38488
0
LINE
8
BLACK
6
CONTINUOUS
10
0.101218
20
3.38488
11
0.10116
21
3.38491
0
LINE
8
BLACK
6
CONTINUOUS
10
0.10116
20
3.38491
11
0.099285
21
3.38679
0
LINE
8
BLACK
6
CONTINUOUS
10
0.099285
20
3.38679
11
0.0987787
21
3.38751
0
LINE
8
BLACK
6
CONTINUOUS
10
0.0987787
20
3.38751
11
0.098732
21
3.38755
0
LINE
8
BLACK
6
CONTINUOUS
10
0.098732
20
3.38755
11
0.0968572
21
3.3913
0
LINE
8
BLACK
6
CONTINUOUS
10
0.0968572
20
3.3913
11
0.0965648
21
3.39229
0
LINE
8
BLACK
6
CONTINUOUS
10
0.0965648
20
3.39229
11
0.0966058
21
3.39246
0
LINE
8
BLACK
6
CONTINUOUS
10
0.0966058
20
3.39246
11
0.0965455
21
3.39262
0
LINE
8
BLACK
6
CONTINUOUS
10
0.0965455
20
3.39262
11
0.0965455
21
3.40387
0
LINE
8
BLACK
6
CONTINUOUS
10
0.0965455
20
3.40387
11
0.0967235
21
3.40488
0
LINE
8
BLACK
6
CONTINUOUS
10
0.0967235
20
3.40488
11
0.096837
21
3.40502
0
LINE
8
BLACK
6
CONTINUOUS
10
0.096837
20
3.40502
11
0.0968572
21
3.40519
0
LINE
8
BLACK
6
CONTINUOUS
10
0.0968572
20
3.40519
11
0.098732
21
3.40894
0
LINE
8
BLACK
6
CONTINUOUS
10
0.098732
20
3.40894
11
0.0992579
21
3.40965
0
LINE
8
BLACK
6
CONTINUOUS
10
0.0992579
20
3.40965
11
0.0992851
21
3.40971
0
LINE
8
BLACK
6
CONTINUOUS
10
0.0992851
20
3.40971
11
0.10116
21
3.41159
0
LINE
8
BLACK
6
CONTINUOUS
10
0.10116
20
3.41159
11
0.101883
21
3.41209
0
LINE
8
BLACK
6
CONTINUOUS
10
0.101883
20
3.41209
11
0.101927
21
3.41214
0
LINE
8
BLACK
6
CONTINUOUS
10
0.101927
20
3.41214
11
0.105677
21
3.41401
0
LINE
8
BLACK
6
CONTINUOUS
10
0.105677
20
3.41401
11
0.10666
21
3.41431
0
LINE
8
BLACK
6
CONTINUOUS
10
0.10666
20
3.41431
11
0.106831
21
3.41426
0
LINE
8
BLACK
6
CONTINUOUS
10
0.106831
20
3.41426
11
0.106997
21
3.41432
0
LINE
8
BLACK
6
CONTINUOUS
10
0.106997
20
3.41432
11
0.114496
21
3.41432
0
LINE
8
BLACK
6
CONTINUOUS
10
0.114496
20
3.41432
11
0.115293
21
3.41418
0
LINE
8
BLACK
6
CONTINUOUS
10
0.115293
20
3.41418
11
0.115293
21
3.4245
0
LINE
8
BLACK
6
CONTINUOUS
10
0.115293
20
3.4245
11
0.115471
21
3.42551
0
LINE
8
BLACK
6
CONTINUOUS
10
0.115471
20
3.42551
11
0.116769
21
3.42705
0
LINE
8
BLACK
6
CONTINUOUS
10
0.116769
20
3.42705
11
0.118759
21
3.4274
0
LINE
8
BLACK
6
CONTINUOUS
10
0.118759
20
3.4274
11
0.120508
21
3.42639
0
LINE
8
BLACK
6
CONTINUOUS
10
0.104997
20
3.40707
11
0.1038
21
3.40587
0
LINE
8
BLACK
6
CONTINUOUS
10
0.1038
20
3.40587
11
0.102451
21
3.40318
0
LINE
8
BLACK
6
CONTINUOUS
10
0.102451
20
3.40318
11
0.102451
21
3.39332
0
LINE
8
BLACK
6
CONTINUOUS
10
0.102451
20
3.39332
11
0.1038
21
3.39062
0
LINE
8
BLACK
6
CONTINUOUS
10
0.1038
20
3.39062
11
0.104997
21
3.38943
0
LINE
8
BLACK
6
CONTINUOUS
10
0.104997
20
3.38943
11
0.107694
21
3.38808
0
LINE
8
BLACK
6
CONTINUOUS
10
0.107694
20
3.38808
11
0.113799
21
3.38808
0
LINE
8
BLACK
6
CONTINUOUS
10
0.113799
20
3.38808
11
0.115293
21
3.38882
0
LINE
8
BLACK
6
CONTINUOUS
10
0.115293
20
3.38882
11
0.115293
21
3.40767
0
LINE
8
BLACK
6
CONTINUOUS
10
0.115293
20
3.40767
11
0.113799
21
3.40842
0
LINE
8
BLACK
6
CONTINUOUS
10
0.113799
20
3.40842
11
0.107694
21
3.40842
0
LINE
8
BLACK
6
CONTINUOUS
10
0.107694
20
3.40842
11
0.104997
21
3.40707
0
LINE
8
BLACK
6
CONTINUOUS
10
0.156128
20
3.41327
11
0.156819
21
3.41137
0
LINE
8
BLACK
6
CONTINUOUS
10
0.156819
20
3.41137
11
0.156819
21
3.38513
0
LINE
8
BLACK
6
CONTINUOUS
10
0.156819
20
3.38513
11
0.156641
21
3.38412
0
LINE
8
BLACK
6
CONTINUOUS
10
0.156641
20
3.38412
11
0.155343
21
3.38257
0
LINE
8
BLACK
6
CONTINUOUS
10
0.155343
20
3.38257
11
0.153354
21
3.38222
0
LINE
8
BLACK
6
CONTINUOUS
10
0.153354
20
3.38222
11
0.151604
21
3.38323
0
LINE
8
BLACK
6
CONTINUOUS
10
0.151604
20
3.38323
11
0.151519
21
3.38346
0
LINE
8
BLACK
6
CONTINUOUS
10
0.151519
20
3.38346
11
0.149563
21
3.38248
0
LINE
8
BLACK
6
CONTINUOUS
10
0.149563
20
3.38248
11
0.14858
21
3.38219
0
LINE
8
BLACK
6
CONTINUOUS
10
0.14858
20
3.38219
11
0.148408
21
3.38223
0
LINE
8
BLACK
6
CONTINUOUS
10
0.148408
20
3.38223
11
0.148242
21
3.38217
0
LINE
8
BLACK
6
CONTINUOUS
10
0.148242
20
3.38217
11
0.142618
21
3.38217
0
LINE
8
BLACK
6
CONTINUOUS
10
0.142618
20
3.38217
11
0.141608
21
3.38235
0
LINE
8
BLACK
6
CONTINUOUS
10
0.141608
20
3.38235
11
0.141473
21
3.38246
0
LINE
8
BLACK
6
CONTINUOUS
10
0.141473
20
3.38246
11
0.141297
21
3.38248
0
LINE
8
BLACK
6
CONTINUOUS
10
0.141297
20
3.38248
11
0.137548
21
3.38436
0
LINE
8
BLACK
6
CONTINUOUS
10
0.137548
20
3.38436
11
0.136724
21
3.38497
0
LINE
8
BLACK
6
CONTINUOUS
10
0.136724
20
3.38497
11
0.136548
21
3.38538
0
LINE
8
BLACK
6
CONTINUOUS
10
0.136548
20
3.38538
11
0.136227
21
3.38568
0
LINE
8
BLACK
6
CONTINUOUS
10
0.136227
20
3.38568
11
0.134353
21
3.38943
0
LINE
8
BLACK
6
CONTINUOUS
10
0.134353
20
3.38943
11
0.13406
21
3.39041
0
LINE
8
BLACK
6
CONTINUOUS
10
0.13406
20
3.39041
11
0.134101
21
3.39058
0
LINE
8
BLACK
6
CONTINUOUS
10
0.134101
20
3.39058
11
0.134041
21
3.39075
0
LINE
8
BLACK
6
CONTINUOUS
10
0.134041
20
3.39075
11
0.134041
21
3.41137
0
LINE
8
BLACK
6
CONTINUOUS
10
0.134041
20
3.41137
11
0.134219
21
3.41238
0
LINE
8
BLACK
6
CONTINUOUS
10
0.134219
20
3.41238
11
0.135517
21
3.41393
0
LINE
8
BLACK
6
CONTINUOUS
10
0.135517
20
3.41393
11
0.137506
21
3.41428
0
LINE
8
BLACK
6
CONTINUOUS
10
0.137506
20
3.41428
11
0.139255
21
3.41327
0
LINE
8
BLACK
6
CONTINUOUS
10
0.139255
20
3.41327
11
0.139946
21
3.41137
0
LINE
8
BLACK
6
CONTINUOUS
10
0.139946
20
3.41137
11
0.139946
21
3.39145
0
LINE
8
BLACK
6
CONTINUOUS
10
0.139946
20
3.39145
11
0.141069
21
3.3892
0
LINE
8
BLACK
6
CONTINUOUS
10
0.141069
20
3.3892
11
0.143315
21
3.38808
0
LINE
8
BLACK
6
CONTINUOUS
10
0.143315
20
3.38808
11
0.147545
21
3.38808
0
LINE
8
BLACK
6
CONTINUOUS
10
0.147545
20
3.38808
11
0.150243
21
3.38943
0
LINE
8
BLACK
6
CONTINUOUS
10
0.150243
20
3.38943
11
0.150914
21
3.3901
0
LINE
8
BLACK
6
CONTINUOUS
10
0.150914
20
3.3901
11
0.150914
21
3.41137
0
LINE
8
BLACK
6
CONTINUOUS
10
0.150914
20
3.41137
11
0.151092
21
3.41238
0
LINE
8
BLACK
6
CONTINUOUS
10
0.151092
20
3.41238
11
0.15239
21
3.41393
0
LINE
8
BLACK
6
CONTINUOUS
10
0.15239
20
3.41393
11
0.154379
21
3.41428
0
LINE
8
BLACK
6
CONTINUOUS
10
0.154379
20
3.41428
11
0.156128
21
3.41327
0
LINE
8
BLACK
6
CONTINUOUS
10
0.205495
20
3.41415
11
0.20563
21
3.41403
0
LINE
8
BLACK
6
CONTINUOUS
10
0.20563
20
3.41403
11
0.205806
21
3.41401
0
LINE
8
BLACK
6
CONTINUOUS
10
0.205806
20
3.41401
11
0.209555
21
3.41214
0
LINE
8
BLACK
6
CONTINUOUS
10
0.209555
20
3.41214
11
0.210379
21
3.41153
0
LINE
8
BLACK
6
CONTINUOUS
10
0.210379
20
3.41153
11
0.210555
21
3.41112
0
LINE
8
BLACK
6
CONTINUOUS
10
0.210555
20
3.41112
11
0.210876
21
3.41082
0
LINE
8
BLACK
6
CONTINUOUS
10
0.210876
20
3.41082
11
0.21275
21
3.40707
0
LINE
8
BLACK
6
CONTINUOUS
10
0.21275
20
3.40707
11
0.213043
21
3.40609
0
LINE
8
BLACK
6
CONTINUOUS
10
0.213043
20
3.40609
11
0.213002
21
3.40591
0
LINE
8
BLACK
6
CONTINUOUS
10
0.213002
20
3.40591
11
0.213062
21
3.40575
0
LINE
8
BLACK
6
CONTINUOUS
10
0.213062
20
3.40575
11
0.213062
21
3.402
0
LINE
8
BLACK
6
CONTINUOUS
10
0.213062
20
3.402
11
0.212884
21
3.40099
0
LINE
8
BLACK
6
CONTINUOUS
10
0.212884
20
3.40099
11
0.21257
21
3.40061
0
LINE
8
BLACK
6
CONTINUOUS
10
0.21257
20
3.40061
11
0.212414
21
3.40015
0
LINE
8
BLACK
6
CONTINUOUS
10
0.212414
20
3.40015
11
0.211941
21
3.39986
0
LINE
8
BLACK
6
CONTINUOUS
10
0.211941
20
3.39986
11
0.211586
21
3.39944
0
LINE
8
BLACK
6
CONTINUOUS
10
0.211586
20
3.39944
11
0.211105
21
3.39936
0
LINE
8
BLACK
6
CONTINUOUS
10
0.211105
20
3.39936
11
0.210688
21
3.3991
0
LINE
8
BLACK
6
CONTINUOUS
10
0.210688
20
3.3991
11
0.194315
21
3.39583
0
LINE
8
BLACK
6
CONTINUOUS
10
0.194315
20
3.39583
11
0.194315
21
3.39145
0
LINE
8
BLACK
6
CONTINUOUS
10
0.194315
20
3.39145
11
0.195437
21
3.3892
0
LINE
8
BLACK
6
CONTINUOUS
10
0.195437
20
3.3892
11
0.197683
21
3.38808
0
LINE
8
BLACK
6
CONTINUOUS
10
0.197683
20
3.38808
11
0.203788
21
3.38808
0
LINE
8
BLACK
6
CONTINUOUS
10
0.203788
20
3.38808
11
0.206914
21
3.38964
0
LINE
8
BLACK
6
CONTINUOUS
10
0.206914
20
3.38964
11
0.207897
21
3.38993
0
LINE
8
BLACK
6
CONTINUOUS
10
0.207897
20
3.38993
11
0.209862
21
3.38946
0
LINE
8
BLACK
6
CONTINUOUS
10
0.209862
20
3.38946
11
0.211065
21
3.38784
0
LINE
8
BLACK
6
CONTINUOUS
10
0.211065
20
3.38784
11
0.210944
21
3.38583
0
LINE
8
BLACK
6
CONTINUOUS
10
0.210944
20
3.38583
11
0.209555
21
3.38436
0
LINE
8
BLACK
6
CONTINUOUS
10
0.209555
20
3.38436
11
0.205806
21
3.38248
0
LINE
8
BLACK
6
CONTINUOUS
10
0.205806
20
3.38248
11
0.204823
21
3.38219
0
LINE
8
BLACK
6
CONTINUOUS
10
0.204823
20
3.38219
11
0.204651
21
3.38223
0
LINE
8
BLACK
6
CONTINUOUS
10
0.204651
20
3.38223
11
0.204485
21
3.38217
0
LINE
8
BLACK
6
CONTINUOUS
10
0.204485
20
3.38217
11
0.196986
21
3.38217
0
LINE
8
BLACK
6
CONTINUOUS
10
0.196986
20
3.38217
11
0.195976
21
3.38235
0
LINE
8
BLACK
6
CONTINUOUS
10
0.195976
20
3.38235
11
0.195841
21
3.38246
0
LINE
8
BLACK
6
CONTINUOUS
10
0.195841
20
3.38246
11
0.195666
21
3.38248
0
LINE
8
BLACK
6
CONTINUOUS
10
0.195666
20
3.38248
11
0.191916
21
3.38436
0
LINE
8
BLACK
6
CONTINUOUS
10
0.191916
20
3.38436
11
0.191092
21
3.38497
0
LINE
8
BLACK
6
CONTINUOUS
10
0.191092
20
3.38497
11
0.190916
21
3.38538
0
LINE
8
BLACK
6
CONTINUOUS
10
0.190916
20
3.38538
11
0.190596
21
3.38568
0
LINE
8
BLACK
6
CONTINUOUS
10
0.190596
20
3.38568
11
0.188721
21
3.38943
0
LINE
8
BLACK
6
CONTINUOUS
10
0.188721
20
3.38943
11
0.188428
21
3.39041
0
LINE
8
BLACK
6
CONTINUOUS
10
0.188428
20
3.39041
11
0.188469
21
3.39058
0
LINE
8
BLACK
6
CONTINUOUS
10
0.188469
20
3.39058
11
0.188409
21
3.39075
0
LINE
8
BLACK
6
CONTINUOUS
10
0.188409
20
3.39075
11
0.188409
21
3.40575
0
LINE
8
BLACK
6
CONTINUOUS
10
0.188409
20
3.40575
11
0.188587
21
3.40676
0
LINE
8
BLACK
6
CONTINUOUS
10
0.188587
20
3.40676
11
0.188701
21
3.40689
0
LINE
8
BLACK
6
CONTINUOUS
10
0.188701
20
3.40689
11
0.188721
21
3.40707
0
LINE
8
BLACK
6
CONTINUOUS
10
0.188721
20
3.40707
11
0.190596
21
3.41082
0
LINE
8
BLACK
6
CONTINUOUS
10
0.190596
20
3.41082
11
0.191206
21
3.41164
0
LINE
8
BLACK
6
CONTINUOUS
10
0.191206
20
3.41164
11
0.191612
21
3.41182
0
LINE
8
BLACK
6
CONTINUOUS
10
0.191612
20
3.41182
11
0.191916
21
3.41214
0
LINE
8
BLACK
6
CONTINUOUS
10
0.191916
20
3.41214
11
0.195666
21
3.41401
0
LINE
8
BLACK
6
CONTINUOUS
10
0.195666
20
3.41401
11
0.196648
21
3.41431
0
LINE
8
BLACK
6
CONTINUOUS
10
0.196648
20
3.41431
11
0.19682
21
3.41426
0
LINE
8
BLACK
6
CONTINUOUS
10
0.19682
20
3.41426
11
0.196986
21
3.41432
0
LINE
8
BLACK
6
CONTINUOUS
10
0.196986
20
3.41432
11
0.204485
21
3.41432
0
LINE
8
BLACK
6
CONTINUOUS
10
0.204485
20
3.41432
11
0.205495
21
3.41415
0
LINE
8
BLACK
6
CONTINUOUS
10
0.195437
20
3.4073
11
0.194315
21
3.40505
0
LINE
8
BLACK
6
CONTINUOUS
10
0.194315
20
3.40505
11
0.194315
21
3.40185
0
LINE
8
BLACK
6
CONTINUOUS
10
0.194315
20
3.40185
11
0.207157
21
3.40442
0
LINE
8
BLACK
6
CONTINUOUS
10
0.207157
20
3.40442
11
0.207157
21
3.40505
0
LINE
8
BLACK
6
CONTINUOUS
10
0.207157
20
3.40505
11
0.206034
21
3.4073
0
LINE
8
BLACK
6
CONTINUOUS
10
0.206034
20
3.4073
11
0.203788
21
3.40842
0
LINE
8
BLACK
6
CONTINUOUS
10
0.203788
20
3.40842
11
0.197683
21
3.40842
0
LINE
8
BLACK
6
CONTINUOUS
10
0.197683
20
3.40842
11
0.195437
21
3.4073
0
LINE
8
BLACK
6
CONTINUOUS
10
0.276113
20
3.42639
11
0.276804
21
3.4245
0
LINE
8
BLACK
6
CONTINUOUS
10
0.276804
20
3.4245
11
0.276804
21
3.38513
0
LINE
8
BLACK
6
CONTINUOUS
10
0.276804
20
3.38513
11
0.276626
21
3.38412
0
LINE
8
BLACK
6
CONTINUOUS
10
0.276626
20
3.38412
11
0.275328
21
3.38257
0
LINE
8
BLACK
6
CONTINUOUS
10
0.275328
20
3.38257
11
0.273339
21
3.38222
0
LINE
8
BLACK
6
CONTINUOUS
10
0.273339
20
3.38222
11
0.272202
21
3.38287
0
LINE
8
BLACK
6
CONTINUOUS
10
0.272202
20
3.38287
11
0.271422
21
3.38248
0
LINE
8
BLACK
6
CONTINUOUS
10
0.271422
20
3.38248
11
0.270439
21
3.38219
0
LINE
8
BLACK
6
CONTINUOUS
10
0.270439
20
3.38219
11
0.270268
21
3.38223
0
LINE
8
BLACK
6
CONTINUOUS
10
0.270268
20
3.38223
11
0.270102
21
3.38217
0
LINE
8
BLACK
6
CONTINUOUS
10
0.270102
20
3.38217
11
0.262603
21
3.38217
0
LINE
8
BLACK
6
CONTINUOUS
10
0.262603
20
3.38217
11
0.261593
21
3.38235
0
LINE
8
BLACK
6
CONTINUOUS
10
0.261593
20
3.38235
11
0.261458
21
3.38246
0
LINE
8
BLACK
6
CONTINUOUS
10
0.261458
20
3.38246
11
0.261282
21
3.38248
0
LINE
8
BLACK
6
CONTINUOUS
10
0.261282
20
3.38248
11
0.257533
21
3.38436
0
LINE
8
BLACK
6
CONTINUOUS
10
0.257533
20
3.38436
11
0.256824
21
3.38488
0
LINE
8
BLACK
6
CONTINUOUS
10
0.256824
20
3.38488
11
0.256765
21
3.38491
0
LINE
8
BLACK
6
CONTINUOUS
10
0.256765
20
3.38491
11
0.254891
21
3.38679
0
LINE
8
BLACK
6
CONTINUOUS
10
0.254891
20
3.38679
11
0.254384
21
3.38751
0
LINE
8
BLACK
6
CONTINUOUS
10
0.254384
20
3.38751
11
0.254338
21
3.38755
0
LINE
8
BLACK
6
CONTINUOUS
10
0.254338
20
3.38755
11
0.252463
21
3.3913
0
LINE
8
BLACK
6
CONTINUOUS
10
0.252463
20
3.3913
11
0.25217
21
3.39229
0
LINE
8
BLACK
6
CONTINUOUS
10
0.25217
20
3.39229
11
0.252211
21
3.39246
0
LINE
8
BLACK
6
CONTINUOUS
10
0.252211
20
3.39246
11
0.252151
21
3.39262
0
LINE
8
BLACK
6
CONTINUOUS
10
0.252151
20
3.39262
11
0.252151
21
3.40387
0
LINE
8
BLACK
6
CONTINUOUS
10
0.252151
20
3.40387
11
0.252329
21
3.40488
0
LINE
8
BLACK
6
CONTINUOUS
10
0.252329
20
3.40488
11
0.252443
21
3.40502
0
LINE
8
BLACK
6
CONTINUOUS
10
0.252443
20
3.40502
11
0.252463
21
3.40519
0
LINE
8
BLACK
6
CONTINUOUS
10
0.252463
20
3.40519
11
0.254338
21
3.40894
0
LINE
8
BLACK
6
CONTINUOUS
10
0.254338
20
3.40894
11
0.254863
21
3.40965
0
LINE
8
BLACK
6
CONTINUOUS
10
0.254863
20
3.40965
11
0.254891
21
3.40971
0
LINE
8
BLACK
6
CONTINUOUS
10
0.254891
20
3.40971
11
0.256765
21
3.41159
0
LINE
8
BLACK
6
CONTINUOUS
10
0.256765
20
3.41159
11
0.257489
21
3.41209
0
LINE
8
BLACK
6
CONTINUOUS
10
0.257489
20
3.41209
11
0.257533
21
3.41214
0
LINE
8
BLACK
6
CONTINUOUS
10
0.257533
20
3.41214
11
0.261282
21
3.41401
0
LINE
8
BLACK
6
CONTINUOUS
10
0.261282
20
3.41401
11
0.262265
21
3.41431
0
LINE
8
BLACK
6
CONTINUOUS
10
0.262265
20
3.41431
11
0.262437
21
3.41426
0
LINE
8
BLACK
6
CONTINUOUS
10
0.262437
20
3.41426
11
0.262603
21
3.41432
0
LINE
8
BLACK
6
CONTINUOUS
10
0.262603
20
3.41432
11
0.270102
21
3.41432
0
LINE
8
BLACK
6
CONTINUOUS
10
0.270102
20
3.41432
11
0.270899
21
3.41418
0
LINE
8
BLACK
6
CONTINUOUS
10
0.270899
20
3.41418
11
0.270899
21
3.4245
0
LINE
8
BLACK
6
CONTINUOUS
10
0.270899
20
3.4245
11
0.271077
21
3.42551
0
LINE
8
BLACK
6
CONTINUOUS
10
0.271077
20
3.42551
11
0.272375
21
3.42705
0
LINE
8
BLACK
6
CONTINUOUS
10
0.272375
20
3.42705
11
0.274364
21
3.4274
0
LINE
8
BLACK
6
CONTINUOUS
10
0.274364
20
3.4274
11
0.276113
21
3.42639
0
LINE
8
BLACK
6
CONTINUOUS
10
0.260602
20
3.40707
11
0.259405
21
3.40587
0
LINE
8
BLACK
6
CONTINUOUS
10
0.259405
20
3.40587
11
0.258057
21
3.40318
0
LINE
8
BLACK
6
CONTINUOUS
10
0.258057
20
3.40318
11
0.258057
21
3.39332
0
LINE
8
BLACK
6
CONTINUOUS
10
0.258057
20
3.39332
11
0.259405
21
3.39062
0
LINE
8
BLACK
6
CONTINUOUS
10
0.259405
20
3.39062
11
0.260602
21
3.38943
0
LINE
8
BLACK
6
CONTINUOUS
10
0.260602
20
3.38943
11
0.2633
21
3.38808
0
LINE
8
BLACK
6
CONTINUOUS
10
0.2633
20
3.38808
11
0.269405
21
3.38808
0
LINE
8
BLACK
6
CONTINUOUS
10
0.269405
20
3.38808
11
0.270899
21
3.38882
0
LINE
8
BLACK
6
CONTINUOUS
10
0.270899
20
3.38882
11
0.270899
21
3.40767
0
LINE
8
BLACK
6
CONTINUOUS
10
0.270899
20
3.40767
11
0.269405
21
3.40842
0
LINE
8
BLACK
6
CONTINUOUS
10
0.269405
20
3.40842
11
0.2633
21
3.40842
0
LINE
8
BLACK
6
CONTINUOUS
10
0.2633
20
3.40842
11
0.260602
21
3.40707
0
LINE
8
BLACK
6
CONTINUOUS
10
0.376099
20
3.41415
11
0.376234
21
3.41403
0
LINE
8
BLACK
6
CONTINUOUS
10
0.376234
20
3.41403
11
0.376409
21
3.41401
0
LINE
8
BLACK
6
CONTINUOUS
10
0.376409
20
3.41401
11
0.380159
21
3.41214
0
LINE
8
BLACK
6
CONTINUOUS
10
0.380159
20
3.41214
11
0.380982
21
3.41153
0
LINE
8
BLACK
6
CONTINUOUS
10
0.380982
20
3.41153
11
0.381158
21
3.41112
0
LINE
8
BLACK
6
CONTINUOUS
10
0.381158
20
3.41112
11
0.381479
21
3.41082
0
LINE
8
BLACK
6
CONTINUOUS
10
0.381479
20
3.41082
11
0.383354
21
3.40707
0
LINE
8
BLACK
6
CONTINUOUS
10
0.383354
20
3.40707
11
0.383646
21
3.40609
0
LINE
8
BLACK
6
CONTINUOUS
10
0.383646
20
3.40609
11
0.383605
21
3.40591
0
LINE
8
BLACK
6
CONTINUOUS
10
0.383605
20
3.40591
11
0.383666
21
3.40575
0
LINE
8
BLACK
6
CONTINUOUS
10
0.383666
20
3.40575
11
0.383666
21
3.402
0
LINE
8
BLACK
6
CONTINUOUS
10
0.383666
20
3.402
11
0.383488
21
3.40099
0
LINE
8
BLACK
6
CONTINUOUS
10
0.383488
20
3.40099
11
0.383174
21
3.40061
0
LINE
8
BLACK
6
CONTINUOUS
10
0.383174
20
3.40061
11
0.383018
21
3.40015
0
LINE
8
BLACK
6
CONTINUOUS
10
0.383018
20
3.40015
11
0.382545
21
3.39986
0
LINE
8
BLACK
6
CONTINUOUS
10
0.382545
20
3.39986
11
0.382189
21
3.39944
0
LINE
8
BLACK
6
CONTINUOUS
10
0.382189
20
3.39944
11
0.381709
21
3.39936
0
LINE
8
BLACK
6
CONTINUOUS
10
0.381709
20
3.39936
11
0.381292
21
3.3991
0
LINE
8
BLACK
6
CONTINUOUS
10
0.381292
20
3.3991
11
0.364918
21
3.39583
0
LINE
8
BLACK
6
CONTINUOUS
10
0.364918
20
3.39583
11
0.364918
21
3.39145
0
LINE
8
BLACK
6
CONTINUOUS
10
0.364918
20
3.39145
11
0.366041
21
3.3892
0
LINE
8
BLACK
6
CONTINUOUS
10
0.366041
20
3.3892
11
0.368287
21
3.38808
0
LINE
8
BLACK
6
CONTINUOUS
10
0.368287
20
3.38808
11
0.374392
21
3.38808
0
LINE
8
BLACK
6
CONTINUOUS
10
0.374392
20
3.38808
11
0.377518
21
3.38964
0
LINE
8
BLACK
6
CONTINUOUS
10
0.377518
20
3.38964
11
0.378501
21
3.38993
0
LINE
8
BLACK
6
CONTINUOUS
10
0.378501
20
3.38993
11
0.380465
21
3.38946
0
LINE
8
BLACK
6
CONTINUOUS
10
0.380465
20
3.38946
11
0.381669
21
3.38784
0
LINE
8
BLACK
6
CONTINUOUS
10
0.381669
20
3.38784
11
0.381547
21
3.38583
0
LINE
8
BLACK
6
CONTINUOUS
10
0.381547
20
3.38583
11
0.380159
21
3.38436
0
LINE
8
BLACK
6
CONTINUOUS
10
0.380159
20
3.38436
11
0.376409
21
3.38248
0
LINE
8
BLACK
6
CONTINUOUS
10
0.376409
20
3.38248
11
0.375426
21
3.38219
0
LINE
8
BLACK
6
CONTINUOUS
10
0.375426
20
3.38219
11
0.375255
21
3.38223
0
LINE
8
BLACK
6
CONTINUOUS
10
0.375255
20
3.38223
11
0.375089
21
3.38217
0
LINE
8
BLACK
6
CONTINUOUS
10
0.375089
20
3.38217
11
0.36759
21
3.38217
0
LINE
8
BLACK
6
CONTINUOUS
10
0.36759
20
3.38217
11
0.36658
21
3.38235
0
LINE
8
BLACK
6
CONTINUOUS
10
0.36658
20
3.38235
11
0.366445
21
3.38246
0
LINE
8
BLACK
6
CONTINUOUS
10
0.366445
20
3.38246
11
0.366269
21
3.38248
0
LINE
8
BLACK
6
CONTINUOUS
10
0.366269
20
3.38248
11
0.36252
21
3.38436
0
LINE
8
BLACK
6
CONTINUOUS
10
0.36252
20
3.38436
11
0.361696
21
3.38497
0
LINE
8
BLACK
6
CONTINUOUS
10
0.361696
20
3.38497
11
0.36152
21
3.38538
0
LINE
8
BLACK
6
CONTINUOUS
10
0.36152
20
3.38538
11
0.361199
21
3.38568
0
LINE
8
BLACK
6
CONTINUOUS
10
0.361199
20
3.38568
11
0.359324
21
3.38943
0
LINE
8
BLACK
6
CONTINUOUS
10
0.359324
20
3.38943
11
0.359032
21
3.39041
0
LINE
8
BLACK
6
CONTINUOUS
10
0.359032
20
3.39041
11
0.359073
21
3.39058
0
LINE
8
BLACK
6
CONTINUOUS
10
0.359073
20
3.39058
11
0.359013
21
3.39075
0
LINE
8
BLACK
6
CONTINUOUS
10
0.359013
20
3.39075
11
0.359013
21
3.40575
0
LINE
8
BLACK
6
CONTINUOUS
10
0.359013
20
3.40575
11
0.359191
21
3.40676
0
LINE
8
BLACK
6
CONTINUOUS
10
0.359191
20
3.40676
11
0.359304
21
3.40689
0
LINE
8
BLACK
6
CONTINUOUS
10
0.359304
20
3.40689
11
0.359324
21
3.40707
0
LINE
8
BLACK
6
CONTINUOUS
10
0.359324
20
3.40707
11
0.361199
21
3.41082
0
LINE
8
BLACK
6
CONTINUOUS
10
0.361199
20
3.41082
11
0.36181
21
3.41164
0
LINE
8
BLACK
6
CONTINUOUS
10
0.36181
20
3.41164
11
0.362216
21
3.41182
0
LINE
8
BLACK
6
CONTINUOUS
10
0.362216
20
3.41182
11
0.36252
21
3.41214
0
LINE
8
BLACK
6
CONTINUOUS
10
0.36252
20
3.41214
11
0.366269
21
3.41401
0
LINE
8
BLACK
6
CONTINUOUS
10
0.366269
20
3.41401
11
0.367252
21
3.41431
0
LINE
8
BLACK
6
CONTINUOUS
10
0.367252
20
3.41431
11
0.367424
21
3.41426
0
LINE
8
BLACK
6
CONTINUOUS
10
0.367424
20
3.41426
11
0.36759
21
3.41432
0
LINE
8
BLACK
6
CONTINUOUS
10
0.36759
20
3.41432
11
0.375089
21
3.41432
0
LINE
8
BLACK
6
CONTINUOUS
10
0.375089
20
3.41432
11
0.376099
21
3.41415
0
LINE
8
BLACK
6
CONTINUOUS
10
0.366041
20
3.4073
11
0.364918
21
3.40505
0
LINE
8
BLACK
6
CONTINUOUS
10
0.364918
20
3.40505
11
0.364918
21
3.40185
0
LINE
8
BLACK
6
CONTINUOUS
10
0.364918
20
3.40185
11
0.37776
21
3.40442
0
LINE
8
BLACK
6
CONTINUOUS
10
0.37776
20
3.40442
11
0.37776
21
3.40505
0
LINE
8
BLACK
6
CONTINUOUS
10
0.37776
20
3.40505
11
0.376637
21
3.4073
0
LINE
8
BLACK
6
CONTINUOUS
10
0.376637
20
3.4073
11
0.374392
21
3.40842
0
LINE
8
BLACK
6
CONTINUOUS
10
0.374392
20
3.40842
11
0.368287
21
3.40842
0
LINE
8
BLACK
6
CONTINUOUS
10
0.368287
20
3.40842
11
0.366041
21
3.4073
0
LINE
8
BLACK
6
CONTINUOUS
10
0.44359
20
3.41415
11
0.443726
21
3.41403
0
LINE
8
BLACK
6
CONTINUOUS
10
0.443726
20
3.41403
11
0.443901
21
3.41401
0
LINE
8
BLACK
6
CONTINUOUS
10
0.443901
20
3.41401
11
0.44765
21
3.41214
0
LINE
8
BLACK
6
CONTINUOUS
10
0.44765
20
3.41214
11
0.448474
21
3.41153
0
LINE
8
BLACK
6
CONTINUOUS
10
0.448474
20
3.41153
11
0.449277
21
3.40967
0
LINE
8
BLACK
6
CONTINUOUS
10
0.449277
20
3.40967
11
0.448701
21
3.40774
0
LINE
8
BLACK
6
CONTINUOUS
10
0.448701
20
3.40774
11
0.447016
21
3.40663
0
LINE
8
BLACK
6
CONTINUOUS
10
0.447016
20
3.40663
11
0.445009
21
3.40686
0
LINE
8
BLACK
6
CONTINUOUS
10
0.445009
20
3.40686
11
0.441883
21
3.40842
0
LINE
8
BLACK
6
CONTINUOUS
10
0.441883
20
3.40842
11
0.437653
21
3.40842
0
LINE
8
BLACK
6
CONTINUOUS
10
0.437653
20
3.40842
11
0.435407
21
3.4073
0
LINE
8
BLACK
6
CONTINUOUS
10
0.435407
20
3.4073
11
0.434285
21
3.40505
0
LINE
8
BLACK
6
CONTINUOUS
10
0.434285
20
3.40505
11
0.434285
21
3.40457
0
LINE
8
BLACK
6
CONTINUOUS
10
0.434285
20
3.40457
11
0.435407
21
3.40232
0
LINE
8
BLACK
6
CONTINUOUS
10
0.435407
20
3.40232
11
0.437653
21
3.4012
0
LINE
8
BLACK
6
CONTINUOUS
10
0.437653
20
3.4012
11
0.44258
21
3.4012
0
LINE
8
BLACK
6
CONTINUOUS
10
0.44258
20
3.4012
11
0.44359
21
3.40102
0
LINE
8
BLACK
6
CONTINUOUS
10
0.44359
20
3.40102
11
0.443726
21
3.40091
0
LINE
8
BLACK
6
CONTINUOUS
10
0.443726
20
3.40091
11
0.443901
21
3.40089
0
LINE
8
BLACK
6
CONTINUOUS
10
0.443901
20
3.40089
11
0.44765
21
3.39901
0
LINE
8
BLACK
6
CONTINUOUS
10
0.44765
20
3.39901
11
0.448474
21
3.3984
0
LINE
8
BLACK
6
CONTINUOUS
10
0.448474
20
3.3984
11
0.44865
21
3.398
0
LINE
8
BLACK
6
CONTINUOUS
10
0.44865
20
3.398
11
0.448971
21
3.39769
0
LINE
8
BLACK
6
CONTINUOUS
10
0.448971
20
3.39769
11
0.450846
21
3.39394
0
LINE
8
BLACK
6
CONTINUOUS
10
0.450846
20
3.39394
11
0.451138
21
3.39296
0
LINE
8
BLACK
6
CONTINUOUS
10
0.451138
20
3.39296
11
0.451097
21
3.39279
0
LINE
8
BLACK
6
CONTINUOUS
10
0.451097
20
3.39279
11
0.451157
21
3.39262
0
LINE
8
BLACK
6
CONTINUOUS
10
0.451157
20
3.39262
11
0.451157
21
3.39075
0
LINE
8
BLACK
6
CONTINUOUS
10
0.451157
20
3.39075
11
0.450979
21
3.38974
0
LINE
8
BLACK
6
CONTINUOUS
10
0.450979
20
3.38974
11
0.450866
21
3.3896
0
LINE
8
BLACK
6
CONTINUOUS
10
0.450866
20
3.3896
11
0.450846
21
3.38943
0
LINE
8
BLACK
6
CONTINUOUS
10
0.450846
20
3.38943
11
0.448971
21
3.38568
0
LINE
8
BLACK
6
CONTINUOUS
10
0.448971
20
3.38568
11
0.44836
21
3.38486
0
LINE
8
BLACK
6
CONTINUOUS
10
0.44836
20
3.38486
11
0.447954
21
3.38468
0
LINE
8
BLACK
6
CONTINUOUS
10
0.447954
20
3.38468
11
0.44765
21
3.38436
0
LINE
8
BLACK
6
CONTINUOUS
10
0.44765
20
3.38436
11
0.443901
21
3.38248
0
LINE
8
BLACK
6
CONTINUOUS
10
0.443901
20
3.38248
11
0.442918
21
3.38219
0
LINE
8
BLACK
6
CONTINUOUS
10
0.442918
20
3.38219
11
0.442746
21
3.38223
0
LINE
8
BLACK
6
CONTINUOUS
10
0.442746
20
3.38223
11
0.44258
21
3.38217
0
LINE
8
BLACK
6
CONTINUOUS
10
0.44258
20
3.38217
11
0.435081
21
3.38217
0
LINE
8
BLACK
6
CONTINUOUS
10
0.435081
20
3.38217
11
0.434071
21
3.38235
0
LINE
8
BLACK
6
CONTINUOUS
10
0.434071
20
3.38235
11
0.433936
21
3.38246
0
LINE
8
BLACK
6
CONTINUOUS
10
0.433936
20
3.38246
11
0.433761
21
3.38248
0
LINE
8
BLACK
6
CONTINUOUS
10
0.433761
20
3.38248
11
0.430011
21
3.38436
0
LINE
8
BLACK
6
CONTINUOUS
10
0.430011
20
3.38436
11
0.429188
21
3.38497
0
LINE
8
BLACK
6
CONTINUOUS
10
0.429188
20
3.38497
11
0.428384
21
3.38682
0
LINE
8
BLACK
6
CONTINUOUS
10
0.428384
20
3.38682
11
0.42896
21
3.38876
0
LINE
8
BLACK
6
CONTINUOUS
10
0.42896
20
3.38876
11
0.430646
21
3.38987
0
LINE
8
BLACK
6
CONTINUOUS
10
0.430646
20
3.38987
11
0.432652
21
3.38964
0
LINE
8
BLACK
6
CONTINUOUS
10
0.432652
20
3.38964
11
0.435778
21
3.38808
0
LINE
8
BLACK
6
CONTINUOUS
10
0.435778
20
3.38808
11
0.441883
21
3.38808
0
LINE
8
BLACK
6
CONTINUOUS
10
0.441883
20
3.38808
11
0.444129
21
3.3892
0
LINE
8
BLACK
6
CONTINUOUS
10
0.444129
20
3.3892
11
0.445252
21
3.39145
0
LINE
8
BLACK
6
CONTINUOUS
10
0.445252
20
3.39145
11
0.445252
21
3.39193
0
LINE
8
BLACK
6
CONTINUOUS
10
0.445252
20
3.39193
11
0.444129
21
3.39417
0
LINE
8
BLACK
6
CONTINUOUS
10
0.444129
20
3.39417
11
0.441883
21
3.3953
0
LINE
8
BLACK
6
CONTINUOUS
10
0.441883
20
3.3953
11
0.436956
21
3.3953
0
LINE
8
BLACK
6
CONTINUOUS
10
0.436956
20
3.3953
11
0.435946
21
3.39547
0
LINE
8
BLACK
6
CONTINUOUS
10
0.435946
20
3.39547
11
0.435811
21
3.39559
0
LINE
8
BLACK
6
CONTINUOUS
10
0.435811
20
3.39559
11
0.435636
21
3.39561
0
LINE
8
BLACK
6
CONTINUOUS
10
0.435636
20
3.39561
11
0.431886
21
3.39748
0
LINE
8
BLACK
6
CONTINUOUS
10
0.431886
20
3.39748
11
0.431062
21
3.39809
0
LINE
8
BLACK
6
CONTINUOUS
10
0.431062
20
3.39809
11
0.430886
21
3.3985
0
LINE
8
BLACK
6
CONTINUOUS
10
0.430886
20
3.3985
11
0.430566
21
3.3988
0
LINE
8
BLACK
6
CONTINUOUS
10
0.430566
20
3.3988
11
0.428691
21
3.40255
0
LINE
8
BLACK
6
CONTINUOUS
10
0.428691
20
3.40255
11
0.428398
21
3.40354
0
LINE
8
BLACK
6
CONTINUOUS
10
0.428398
20
3.40354
11
0.428439
21
3.40371
0
LINE
8
BLACK
6
CONTINUOUS
10
0.428439
20
3.40371
11
0.428379
21
3.40387
0
LINE
8
BLACK
6
CONTINUOUS
10
0.428379
20
3.40387
11
0.428379
21
3.40575
0
LINE
8
BLACK
6
CONTINUOUS
10
0.428379
20
3.40575
11
0.428557
21
3.40676
0
LINE
8
BLACK
6
CONTINUOUS
10
0.428557
20
3.40676
11
0.428671
21
3.40689
0
LINE
8
BLACK
6
CONTINUOUS
10
0.428671
20
3.40689
11
0.428691
21
3.40707
0
LINE
8
BLACK
6
CONTINUOUS
10
0.428691
20
3.40707
11
0.430566
21
3.41082
0
LINE
8
BLACK
6
CONTINUOUS
10
0.430566
20
3.41082
11
0.431176
21
3.41164
0
LINE
8
BLACK
6
CONTINUOUS
10
0.431176
20
3.41164
11
0.431582
21
3.41182
0
LINE
8
BLACK
6
CONTINUOUS
10
0.431582
20
3.41182
11
0.431886
21
3.41214
0
LINE
8
BLACK
6
CONTINUOUS
10
0.431886
20
3.41214
11
0.435636
21
3.41401
0
LINE
8
BLACK
6
CONTINUOUS
10
0.435636
20
3.41401
11
0.436618
21
3.41431
0
LINE
8
BLACK
6
CONTINUOUS
10
0.436618
20
3.41431
11
0.43679
21
3.41426
0
LINE
8
BLACK
6
CONTINUOUS
10
0.43679
20
3.41426
11
0.436956
21
3.41432
0
LINE
8
BLACK
6
CONTINUOUS
10
0.436956
20
3.41432
11
0.44258
21
3.41432
0
LINE
8
BLACK
6
CONTINUOUS
10
0.44258
20
3.41432
11
0.44359
21
3.41415
0
LINE
8
BLACK
6
CONTINUOUS
10
0.496084
20
3.41415
11
0.496219
21
3.41403
0
LINE
8
BLACK
6
CONTINUOUS
10
0.496219
20
3.41403
11
0.496394
21
3.41401
0
LINE
8
BLACK
6
CONTINUOUS
10
0.496394
20
3.41401
11
0.500144
21
3.41214
0
LINE
8
BLACK
6
CONTINUOUS
10
0.500144
20
3.41214
11
0.500853
21
3.41161
0
LINE
8
BLACK
6
CONTINUOUS
10
0.500853
20
3.41161
11
0.500911
21
3.41159
0
LINE
8
BLACK
6
CONTINUOUS
10
0.500911
20
3.41159
11
0.502786
21
3.40971
0
LINE
8
BLACK
6
CONTINUOUS
10
0.502786
20
3.40971
11
0.503292
21
3.40899
0
LINE
8
BLACK
6
CONTINUOUS
10
0.503292
20
3.40899
11
0.503339
21
3.40894
0
LINE
8
BLACK
6
CONTINUOUS
10
0.503339
20
3.40894
11
0.505214
21
3.40519
0
LINE
8
BLACK
6
CONTINUOUS
10
0.505214
20
3.40519
11
0.505506
21
3.40421
0
LINE
8
BLACK
6
CONTINUOUS
10
0.505506
20
3.40421
11
0.505465
21
3.40404
0
LINE
8
BLACK
6
CONTINUOUS
10
0.505465
20
3.40404
11
0.505526
21
3.40387
0
LINE
8
BLACK
6
CONTINUOUS
10
0.505526
20
3.40387
11
0.505526
21
3.39262
0
LINE
8
BLACK
6
CONTINUOUS
10
0.505526
20
3.39262
11
0.505348
21
3.39161
0
LINE
8
BLACK
6
CONTINUOUS
10
0.505348
20
3.39161
11
0.505234
21
3.39148
0
LINE
8
BLACK
6
CONTINUOUS
10
0.505234
20
3.39148
11
0.505214
21
3.3913
0
LINE
8
BLACK
6
CONTINUOUS
10
0.505214
20
3.3913
11
0.503339
21
3.38755
0
LINE
8
BLACK
6
CONTINUOUS
10
0.503339
20
3.38755
11
0.502813
21
3.38685
0
LINE
8
BLACK
6
CONTINUOUS
10
0.502813
20
3.38685
11
0.502786
21
3.38679
0
LINE
8
BLACK
6
CONTINUOUS
10
0.502786
20
3.38679
11
0.500911
21
3.38491
0
LINE
8
BLACK
6
CONTINUOUS
10
0.500911
20
3.38491
11
0.500188
21
3.38441
0
LINE
8
BLACK
6
CONTINUOUS
10
0.500188
20
3.38441
11
0.500144
21
3.38436
0
LINE
8
BLACK
6
CONTINUOUS
10
0.500144
20
3.38436
11
0.496394
21
3.38248
0
LINE
8
BLACK
6
CONTINUOUS
10
0.496394
20
3.38248
11
0.495411
21
3.38219
0
LINE
8
BLACK
6
CONTINUOUS
10
0.495411
20
3.38219
11
0.49524
21
3.38223
0
LINE
8
BLACK
6
CONTINUOUS
10
0.49524
20
3.38223
11
0.495074
21
3.38217
0
LINE
8
BLACK
6
CONTINUOUS
10
0.495074
20
3.38217
11
0.489449
21
3.38217
0
LINE
8
BLACK
6
CONTINUOUS
10
0.489449
20
3.38217
11
0.48844
21
3.38235
0
LINE
8
BLACK
6
CONTINUOUS
10
0.48844
20
3.38235
11
0.488304
21
3.38246
0
LINE
8
BLACK
6
CONTINUOUS
10
0.488304
20
3.38246
11
0.488129
21
3.38248
0
LINE
8
BLACK
6
CONTINUOUS
10
0.488129
20
3.38248
11
0.484379
21
3.38436
0
LINE
8
BLACK
6
CONTINUOUS
10
0.484379
20
3.38436
11
0.48367
21
3.38488
0
LINE
8
BLACK
6
CONTINUOUS
10
0.48367
20
3.38488
11
0.483612
21
3.38491
0
LINE
8
BLACK
6
CONTINUOUS
10
0.483612
20
3.38491
11
0.481737
21
3.38679
0
LINE
8
BLACK
6
CONTINUOUS
10
0.481737
20
3.38679
11
0.481231
21
3.38751
0
LINE
8
BLACK
6
CONTINUOUS
10
0.481231
20
3.38751
11
0.481184
21
3.38755
0
LINE
8
BLACK
6
CONTINUOUS
10
0.481184
20
3.38755
11
0.479309
21
3.3913
0
LINE
8
BLACK
6
CONTINUOUS
10
0.479309
20
3.3913
11
0.479017
21
3.39229
0
LINE
8
BLACK
6
CONTINUOUS
10
0.479017
20
3.39229
11
0.479058
21
3.39246
0
LINE
8
BLACK
6
CONTINUOUS
10
0.479058
20
3.39246
11
0.478998
21
3.39262
0
LINE
8
BLACK
6
CONTINUOUS
10
0.478998
20
3.39262
11
0.478998
21
3.40387
0
LINE
8
BLACK
6
CONTINUOUS
10
0.478998
20
3.40387
11
0.479176
21
3.40488
0
LINE
8
BLACK
6
CONTINUOUS
10
0.479176
20
3.40488
11
0.479289
21
3.40502
0
LINE
8
BLACK
6
CONTINUOUS
10
0.479289
20
3.40502
11
0.479309
21
3.40519
0
LINE
8
BLACK
6
CONTINUOUS
10
0.479309
20
3.40519
11
0.481184
21
3.40894
0
LINE
8
BLACK
6
CONTINUOUS
10
0.481184
20
3.40894
11
0.48171
21
3.40965
0
LINE
8
BLACK
6
CONTINUOUS
10
0.48171
20
3.40965
11
0.481737
21
3.40971
0
LINE
8
BLACK
6
CONTINUOUS
10
0.481737
20
3.40971
11
0.483612
21
3.41159
0
LINE
8
BLACK
6
CONTINUOUS
10
0.483612
20
3.41159
11
0.484335
21
3.41209
0
LINE
8
BLACK
6
CONTINUOUS
10
0.484335
20
3.41209
11
0.484379
21
3.41214
0
LINE
8
BLACK
6
CONTINUOUS
10
0.484379
20
3.41214
11
0.488129
21
3.41401
0
LINE
8
BLACK
6
CONTINUOUS
10
0.488129
20
3.41401
11
0.489112
21
3.41431
0
LINE
8
BLACK
6
CONTINUOUS
10
0.489112
20
3.41431
11
0.489284
21
3.41426
0
LINE
8
BLACK
6
CONTINUOUS
10
0.489284
20
3.41426
11
0.489449
21
3.41432
0
LINE
8
BLACK
6
CONTINUOUS
10
0.489449
20
3.41432
11
0.495074
21
3.41432
0
LINE
8
BLACK
6
CONTINUOUS
10
0.495074
20
3.41432
11
0.496084
21
3.41415
0
LINE
8
BLACK
6
CONTINUOUS
10
0.487449
20
3.40707
11
0.486252
21
3.40587
0
LINE
8
BLACK
6
CONTINUOUS
10
0.486252
20
3.40587
11
0.484903
21
3.40318
0
LINE
8
BLACK
6
CONTINUOUS
10
0.484903
20
3.40318
11
0.484903
21
3.39332
0
LINE
8
BLACK
6
CONTINUOUS
10
0.484903
20
3.39332
11
0.486252
21
3.39062
0
LINE
8
BLACK
6
CONTINUOUS
10
0.486252
20
3.39062
11
0.487449
21
3.38943
0
LINE
8
BLACK
6
CONTINUOUS
10
0.487449
20
3.38943
11
0.490147
21
3.38808
0
LINE
8
BLACK
6
CONTINUOUS
10
0.490147
20
3.38808
11
0.494377
21
3.38808
0
LINE
8
BLACK
6
CONTINUOUS
10
0.494377
20
3.38808
11
0.497074
21
3.38943
0
LINE
8
BLACK
6
CONTINUOUS
10
0.497074
20
3.38943
11
0.498271
21
3.39062
0
LINE
8
BLACK
6
CONTINUOUS
10
0.498271
20
3.39062
11
0.49962
21
3.39332
0
LINE
8
BLACK
6
CONTINUOUS
10
0.49962
20
3.39332
11
0.49962
21
3.40318
0
LINE
8
BLACK
6
CONTINUOUS
10
0.49962
20
3.40318
11
0.498271
21
3.40587
0
LINE
8
BLACK
6
CONTINUOUS
10
0.498271
20
3.40587
11
0.497074
21
3.40707
0
LINE
8
BLACK
6
CONTINUOUS
10
0.497074
20
3.40707
11
0.494377
21
3.40842
0
LINE
8
BLACK
6
CONTINUOUS
10
0.494377
20
3.40842
11
0.490147
21
3.40842
0
LINE
8
BLACK
6
CONTINUOUS
10
0.490147
20
3.40842
11
0.487449
21
3.40707
0
LINE
8
BLACK
6
CONTINUOUS
10
0.56545
20
3.41415
11
0.565585
21
3.41403
0
LINE
8
BLACK
6
CONTINUOUS
10
0.565585
20
3.41403
11
0.565761
21
3.41401
0
LINE
8
BLACK
6
CONTINUOUS
10
0.565761
20
3.41401
11
0.56951
21
3.41214
0
LINE
8
BLACK
6
CONTINUOUS
10
0.56951
20
3.41214
11
0.570334
21
3.41153
0
LINE
8
BLACK
6
CONTINUOUS
10
0.570334
20
3.41153
11
0.571137
21
3.40967
0
LINE
8
BLACK
6
CONTINUOUS
10
0.571137
20
3.40967
11
0.570561
21
3.40774
0
LINE
8
BLACK
6
CONTINUOUS
10
0.570561
20
3.40774
11
0.568876
21
3.40663
0
LINE
8
BLACK
6
CONTINUOUS
10
0.568876
20
3.40663
11
0.566869
21
3.40686
0
LINE
8
BLACK
6
CONTINUOUS
10
0.566869
20
3.40686
11
0.563743
21
3.40842
0
LINE
8
BLACK
6
CONTINUOUS
10
0.563743
20
3.40842
11
0.559513
21
3.40842
0
LINE
8
BLACK
6
CONTINUOUS
10
0.559513
20
3.40842
11
0.557267
21
3.4073
0
LINE
8
BLACK
6
CONTINUOUS
10
0.557267
20
3.4073
11
0.556144
21
3.40505
0
LINE
8
BLACK
6
CONTINUOUS
10
0.556144
20
3.40505
11
0.556144
21
3.40457
0
LINE
8
BLACK
6
CONTINUOUS
10
0.556144
20
3.40457
11
0.557267
21
3.40232
0
LINE
8
BLACK
6
CONTINUOUS
10
0.557267
20
3.40232
11
0.559513
21
3.4012
0
LINE
8
BLACK
6
CONTINUOUS
10
0.559513
20
3.4012
11
0.56444
21
3.4012
0
LINE
8
BLACK
6
CONTINUOUS
10
0.56444
20
3.4012
11
0.56545
21
3.40102
0
LINE
8
BLACK
6
CONTINUOUS
10
0.56545
20
3.40102
11
0.565585
21
3.40091
0
LINE
8
BLACK
6
CONTINUOUS
10
0.565585
20
3.40091
11
0.565761
21
3.40089
0
LINE
8
BLACK
6
CONTINUOUS
10
0.565761
20
3.40089
11
0.56951
21
3.39901
0
LINE
8
BLACK
6
CONTINUOUS
10
0.56951
20
3.39901
11
0.570334
21
3.3984
0
LINE
8
BLACK
6
CONTINUOUS
10
0.570334
20
3.3984
11
0.57051
21
3.398
0
LINE
8
BLACK
6
CONTINUOUS
10
0.57051
20
3.398
11
0.570831
21
3.39769
0
LINE
8
BLACK
6
CONTINUOUS
10
0.570831
20
3.39769
11
0.572705
21
3.39394
0
LINE
8
BLACK
6
CONTINUOUS
10
0.572705
20
3.39394
11
0.572998
21
3.39296
0
LINE
8
BLACK
6
CONTINUOUS
10
0.572998
20
3.39296
11
0.572957
21
3.39279
0
LINE
8
BLACK
6
CONTINUOUS
10
0.572957
20
3.39279
11
0.573017
21
3.39262
0
LINE
8
BLACK
6
CONTINUOUS
10
0.573017
20
3.39262
11
0.573017
21
3.39075
0
LINE
8
BLACK
6
CONTINUOUS
10
0.573017
20
3.39075
11
0.572839
21
3.38974
0
LINE
8
BLACK
6
CONTINUOUS
10
0.572839
20
3.38974
11
0.572726
21
3.3896
0
LINE
8
BLACK
6
CONTINUOUS
10
0.572726
20
3.3896
11
0.572705
21
3.38943
0
LINE
8
BLACK
6
CONTINUOUS
10
0.572705
20
3.38943
11
0.570831
21
3.38568
0
LINE
8
BLACK
6
CONTINUOUS
10
0.570831
20
3.38568
11
0.57022
21
3.38486
0
LINE
8
BLACK
6
CONTINUOUS
10
0.57022
20
3.38486
11
0.569814
21
3.38468
0
LINE
8
BLACK
6
CONTINUOUS
10
0.569814
20
3.38468
11
0.56951
21
3.38436
0
LINE
8
BLACK
6
CONTINUOUS
10
0.56951
20
3.38436
11
0.565761
21
3.38248
0
LINE
8
BLACK
6
CONTINUOUS
10
0.565761
20
3.38248
11
0.564778
21
3.38219
0
LINE
8
BLACK
6
CONTINUOUS
10
0.564778
20
3.38219
11
0.564606
21
3.38223
0
LINE
8
BLACK
6
CONTINUOUS
10
0.564606
20
3.38223
11
0.56444
21
3.38217
0
LINE
8
BLACK
6
CONTINUOUS
10
0.56444
20
3.38217
11
0.556941
21
3.38217
0
LINE
8
BLACK
6
CONTINUOUS
10
0.556941
20
3.38217
11
0.555931
21
3.38235
0
LINE
8
BLACK
6
CONTINUOUS
10
0.555931
20
3.38235
11
0.555796
21
3.38246
0
LINE
8
BLACK
6
CONTINUOUS
10
0.555796
20
3.38246
11
0.555621
21
3.38248
0
LINE
8
BLACK
6
CONTINUOUS
10
0.555621
20
3.38248
11
0.551871
21
3.38436
0
LINE
8
BLACK
6
CONTINUOUS
10
0.551871
20
3.38436
11
0.551047
21
3.38497
0
LINE
8
BLACK
6
CONTINUOUS
10
0.551047
20
3.38497
11
0.550244
21
3.38682
0
LINE
8
BLACK
6
CONTINUOUS
10
0.550244
20
3.38682
11
0.55082
21
3.38876
0
LINE
8
BLACK
6
CONTINUOUS
10
0.55082
20
3.38876
11
0.552505
21
3.38987
0
LINE
8
BLACK
6
CONTINUOUS
10
0.552505
20
3.38987
11
0.554512
21
3.38964
0
LINE
8
BLACK
6
CONTINUOUS
10
0.554512
20
3.38964
11
0.557638
21
3.38808
0
LINE
8
BLACK
6
CONTINUOUS
10
0.557638
20
3.38808
11
0.563743
21
3.38808
0
LINE
8
BLACK
6
CONTINUOUS
10
0.563743
20
3.38808
11
0.565989
21
3.3892
0
LINE
8
BLACK
6
CONTINUOUS
10
0.565989
20
3.3892
11
0.567112
21
3.39145
0
LINE
8
BLACK
6
CONTINUOUS
10
0.567112
20
3.39145
11
0.567112
21
3.39193
0
LINE
8
BLACK
6
CONTINUOUS
10
0.567112
20
3.39193
11
0.565989
21
3.39417
0
LINE
8
BLACK
6
CONTINUOUS
10
0.565989
20
3.39417
11
0.563743
21
3.3953
0
LINE
8
BLACK
6
CONTINUOUS
10
0.563743
20
3.3953
11
0.558816
21
3.3953
0
LINE
8
BLACK
6
CONTINUOUS
10
0.558816
20
3.3953
11
0.557806
21
3.39547
0
LINE
8
BLACK
6
CONTINUOUS
10
0.557806
20
3.39547
11
0.557671
21
3.39559
0
LINE
8
BLACK
6
CONTINUOUS
10
0.557671
20
3.39559
11
0.557495
21
3.39561
0
LINE
8
BLACK
6
CONTINUOUS
10
0.557495
20
3.39561
11
0.553746
21
3.39748
0
LINE
8
BLACK
6
CONTINUOUS
10
0.553746
20
3.39748
11
0.552922
21
3.39809
0
LINE
8
BLACK
6
CONTINUOUS
10
0.552922
20
3.39809
11
0.552746
21
3.3985
0
LINE
8
BLACK
6
CONTINUOUS
10
0.552746
20
3.3985
11
0.552425
21
3.3988
0
LINE
8
BLACK
6
CONTINUOUS
10
0.552425
20
3.3988
11
0.550551
21
3.40255
0
LINE
8
BLACK
6
CONTINUOUS
10
0.550551
20
3.40255
11
0.550258
21
3.40354
0
LINE
8
BLACK
6
CONTINUOUS
10
0.550258
20
3.40354
11
0.550299
21
3.40371
0
LINE
8
BLACK
6
CONTINUOUS
10
0.550299
20
3.40371
11
0.550239
21
3.40387
0
LINE
8
BLACK
6
CONTINUOUS
10
0.550239
20
3.40387
11
0.550239
21
3.40575
0
LINE
8
BLACK
6
CONTINUOUS
10
0.550239
20
3.40575
11
0.550417
21
3.40676
0
LINE
8
BLACK
6
CONTINUOUS
10
0.550417
20
3.40676
11
0.55053
21
3.40689
0
LINE
8
BLACK
6
CONTINUOUS
10
0.55053
20
3.40689
11
0.550551
21
3.40707
0
LINE
8
BLACK
6
CONTINUOUS
10
0.550551
20
3.40707
11
0.552425
21
3.41082
0
LINE
8
BLACK
6
CONTINUOUS
10
0.552425
20
3.41082
11
0.553036
21
3.41164
0
LINE
8
BLACK
6
CONTINUOUS
10
0.553036
20
3.41164
11
0.553442
21
3.41182
0
LINE
8
BLACK
6
CONTINUOUS
10
0.553442
20
3.41182
11
0.553746
21
3.41214
0
LINE
8
BLACK
6
CONTINUOUS
10
0.553746
20
3.41214
11
0.557495
21
3.41401
0
LINE
8
BLACK
6
CONTINUOUS
10
0.557495
20
3.41401
11
0.558478
21
3.41431
0
LINE
8
BLACK
6
CONTINUOUS
10
0.558478
20
3.41431
11
0.55865
21
3.41426
0
LINE
8
BLACK
6
CONTINUOUS
10
0.55865
20
3.41426
11
0.558816
21
3.41432
0
LINE
8
BLACK
6
CONTINUOUS
10
0.558816
20
3.41432
11
0.56444
21
3.41432
0
LINE
8
BLACK
6
CONTINUOUS
10
0.56444
20
3.41432
11
0.56545
21
3.41415
0
LINE
8
BLACK
6
CONTINUOUS
10
0.0255175
20
3.41415
11
0.0256528
21
3.41403
0
LINE
8
BLACK
6
CONTINUOUS
10
0.0256528
20
3.41403
11
0.0258281
21
3.41401
0
LINE
8
BLACK
6
CONTINUOUS
10
0.0258281
20
3.41401
11
0.0295776
21
3.41214
0
LINE
8
BLACK
6
CONTINUOUS
10
0.0295776
20
3.41214
11
0.0301476
21
3.41172
0
LINE
8
BLACK
6
CONTINUOUS
10
0.0301476
20
3.41172
11
0.0303822
21
3.41182
0
LINE
8
BLACK
6
CONTINUOUS
10
0.0303822
20
3.41182
11
0.0306861
21
3.41214
0
LINE
8
BLACK
6
CONTINUOUS
10
0.0306861
20
3.41214
11
0.0344357
21
3.41401
0
LINE
8
BLACK
6
CONTINUOUS
10
0.0344357
20
3.41401
11
0.0354186
21
3.41431
0
LINE
8
BLACK
6
CONTINUOUS
10
0.0354186
20
3.41431
11
0.0355903
21
3.41426
0
LINE
8
BLACK
6
CONTINUOUS
10
0.0355903
20
3.41426
11
0.0357562
21
3.41432
0
LINE
8
BLACK
6
CONTINUOUS
10
0.0357562
20
3.41432
11
0.0413805
21
3.41432
0
LINE
8
BLACK
6
CONTINUOUS
10
0.0413805
20
3.41432
11
0.0423904
21
3.41415
0
LINE
8
BLACK
6
CONTINUOUS
10
0.0423904
20
3.41415
11
0.0425256
21
3.41403
0
LINE
8
BLACK
6
CONTINUOUS
10
0.0425256
20
3.41403
11
0.042701
21
3.41401
0
LINE
8
BLACK
6
CONTINUOUS
10
0.042701
20
3.41401
11
0.0464506
21
3.41214
0
LINE
8
BLACK
6
CONTINUOUS
10
0.0464506
20
3.41214
11
0.0472742
21
3.41153
0
LINE
8
BLACK
6
CONTINUOUS
10
0.0472742
20
3.41153
11
0.04745
21
3.41112
0
LINE
8
BLACK
6
CONTINUOUS
10
0.04745
20
3.41112
11
0.0477711
21
3.41082
0
LINE
8
BLACK
6
CONTINUOUS
10
0.0477711
20
3.41082
11
0.0496458
21
3.40707
0
LINE
8
BLACK
6
CONTINUOUS
10
0.0496458
20
3.40707
11
0.0499382
21
3.40609
0
LINE
8
BLACK
6
CONTINUOUS
10
0.0499382
20
3.40609
11
0.0498972
21
3.40591
0
LINE
8
BLACK
6
CONTINUOUS
10
0.0498972
20
3.40591
11
0.0499576
21
3.40575
0
LINE
8
BLACK
6
CONTINUOUS
10
0.0499576
20
3.40575
11
0.0499576
21
3.38513
0
LINE
8
BLACK
6
CONTINUOUS
10
0.0499576
20
3.38513
11
0.0497795
21
3.38412
0
LINE
8
BLACK
6
CONTINUOUS
10
0.0497795
20
3.38412
11
0.0484812
21
3.38257
0
LINE
8
BLACK
6
CONTINUOUS
10
0.0484812
20
3.38257
11
0.046492
21
3.38222
0
LINE
8
BLACK
6
CONTINUOUS
10
0.046492
20
3.38222
11
0.0447429
21
3.38323
0
LINE
8
BLACK
6
CONTINUOUS
10
0.0447429
20
3.38323
11
0.044052
21
3.38513
0
LINE
8
BLACK
6
CONTINUOUS
10
0.044052
20
3.38513
11
0.044052
21
3.40505
0
LINE
8
BLACK
6
CONTINUOUS
10
0.044052
20
3.40505
11
0.0429292
21
3.4073
0
LINE
8
BLACK
6
CONTINUOUS
10
0.0429292
20
3.4073
11
0.0406834
21
3.40842
0
LINE
8
BLACK
6
CONTINUOUS
10
0.0406834
20
3.40842
11
0.0364532
21
3.40842
0
LINE
8
BLACK
6
CONTINUOUS
10
0.0364532
20
3.40842
11
0.0342075
21
3.4073
0
LINE
8
BLACK
6
CONTINUOUS
10
0.0342075
20
3.4073
11
0.0330846
21
3.40505
0
LINE
8
BLACK
6
CONTINUOUS
10
0.0330846
20
3.40505
11
0.0330846
21
3.38513
0
LINE
8
BLACK
6
CONTINUOUS
10
0.0330846
20
3.38513
11
0.0329066
21
3.38412
0
LINE
8
BLACK
6
CONTINUOUS
10
0.0329066
20
3.38412
11
0.0316083
21
3.38257
0
LINE
8
BLACK
6
CONTINUOUS
10
0.0316083
20
3.38257
11
0.0296191
21
3.38222
0
LINE
8
BLACK
6
CONTINUOUS
10
0.0296191
20
3.38222
11
0.02787
21
3.38323
0
LINE
8
BLACK
6
CONTINUOUS
10
0.02787
20
3.38323
11
0.0271791
21
3.38513
0
LINE
8
BLACK
6
CONTINUOUS
10
0.0271791
20
3.38513
11
0.0271791
21
3.40505
0
LINE
8
BLACK
6
CONTINUOUS
10
0.0271791
20
3.40505
11
0.0260563
21
3.4073
0
LINE
8
BLACK
6
CONTINUOUS
10
0.0260563
20
3.4073
11
0.0238106
21
3.40842
0
LINE
8
BLACK
6
CONTINUOUS
10
0.0238106
20
3.40842
11
0.0195804
21
3.40842
0
LINE
8
BLACK
6
CONTINUOUS
10
0.0195804
20
3.40842
11
0.0168829
21
3.40707
0
LINE
8
BLACK
6
CONTINUOUS
10
0.0168829
20
3.40707
11
0.0162118
21
3.4064
0
LINE
8
BLACK
6
CONTINUOUS
10
0.0162118
20
3.4064
11
0.0162118
21
3.38513
0
LINE
8
BLACK
6
CONTINUOUS
10
0.0162118
20
3.38513
11
0.0160337
21
3.38412
0
LINE
8
BLACK
6
CONTINUOUS
10
0.0160337
20
3.38412
11
0.0147354
21
3.38257
0
LINE
8
BLACK
6
CONTINUOUS
10
0.0147354
20
3.38257
11
0.0127463
21
3.38222
0
LINE
8
BLACK
6
CONTINUOUS
10
0.0127463
20
3.38222
11
0.0109971
21
3.38323
0
LINE
8
BLACK
6
CONTINUOUS
10
0.0109971
20
3.38323
11
0.0103063
21
3.38513
0
LINE
8
BLACK
6
CONTINUOUS
10
0.0103063
20
3.38513
11
0.0103063
21
3.41137
0
LINE
8
BLACK
6
CONTINUOUS
10
0.0103063
20
3.41137
11
0.0104843
21
3.41238
0
LINE
8
BLACK
6
CONTINUOUS
10
0.0104843
20
3.41238
11
0.0117826
21
3.41393
0
LINE
8
BLACK
6
CONTINUOUS
10
0.0117826
20
3.41393
11
0.0137718
21
3.41428
0
LINE
8
BLACK
6
CONTINUOUS
10
0.0137718
20
3.41428
11
0.0155209
21
3.41327
0
LINE
8
BLACK
6
CONTINUOUS
10
0.0155209
20
3.41327
11
0.0156065
21
3.41303
0
LINE
8
BLACK
6
CONTINUOUS
10
0.0156065
20
3.41303
11
0.0175628
21
3.41401
0
LINE
8
BLACK
6
CONTINUOUS
10
0.0175628
20
3.41401
11
0.0185457
21
3.41431
0
LINE
8
BLACK
6
CONTINUOUS
10
0.0185457
20
3.41431
11
0.0187174
21
3.41426
0
LINE
8
BLACK
6
CONTINUOUS
10
0.0187174
20
3.41426
11
0.0188833
21
3.41432
0
LINE
8
BLACK
6
CONTINUOUS
10
0.0188833
20
3.41432
11
0.0245076
21
3.41432
0
LINE
8
BLACK
6
CONTINUOUS
10
0.0245076
20
3.41432
11
0.0255175
21
3.41415
0
LINE
8
BLACK
6
CONTINUOUS
10
0.294861
20
3.41327
11
0.295552
21
3.41137
0
LINE
8
BLACK
6
CONTINUOUS
10
0.295552
20
3.41137
11
0.295552
21
3.38513
0
LINE
8
BLACK
6
CONTINUOUS
10
0.295552
20
3.38513
11
0.295374
21
3.38412
0
LINE
8
BLACK
6
CONTINUOUS
10
0.295374
20
3.38412
11
0.294076
21
3.38257
0
LINE
8
BLACK
6
CONTINUOUS
10
0.294076
20
3.38257
11
0.292086
21
3.38222
0
LINE
8
BLACK
6
CONTINUOUS
10
0.292086
20
3.38222
11
0.290337
21
3.38323
0
LINE
8
BLACK
6
CONTINUOUS
10
0.290337
20
3.38323
11
0.289646
21
3.38513
0
LINE
8
BLACK
6
CONTINUOUS
10
0.289646
20
3.38513
11
0.289646
21
3.41137
0
LINE
8
BLACK
6
CONTINUOUS
10
0.289646
20
3.41137
11
0.289824
21
3.41238
0
LINE
8
BLACK
6
CONTINUOUS
10
0.289824
20
3.41238
11
0.291123
21
3.41393
0
LINE
8
BLACK
6
CONTINUOUS
10
0.291123
20
3.41393
11
0.293112
21
3.41428
0
LINE
8
BLACK
6
CONTINUOUS
10
0.293112
20
3.41428
11
0.294861
21
3.41327
0
LINE
8
BLACK
6
CONTINUOUS
10
0.323605
20
3.41415
11
0.323741
21
3.41403
0
LINE
8
BLACK
6
CONTINUOUS
10
0.323741
20
3.41403
11
0.323916
21
3.41401
0
LINE
8
BLACK
6
CONTINUOUS
10
0.323916
20
3.41401
11
0.327665
21
3.41214
0
LINE
8
BLACK
6
CONTINUOUS
10
0.327665
20
3.41214
11
0.328235
21
3.41172
0
LINE
8
BLACK
6
CONTINUOUS
10
0.328235
20
3.41172
11
0.32847
21
3.41182
0
LINE
8
BLACK
6
CONTINUOUS
10
0.32847
20
3.41182
11
0.328774
21
3.41214
0
LINE
8
BLACK
6
CONTINUOUS
10
0.328774
20
3.41214
11
0.332523
21
3.41401
0
LINE
8
BLACK
6
CONTINUOUS
10
0.332523
20
3.41401
11
0.333506
21
3.41431
0
LINE
8
BLACK
6
CONTINUOUS
10
0.333506
20
3.41431
11
0.333678
21
3.41426
0
LINE
8
BLACK
6
CONTINUOUS
10
0.333678
20
3.41426
11
0.333844
21
3.41432
0
LINE
8
BLACK
6
CONTINUOUS
10
0.333844
20
3.41432
11
0.339468
21
3.41432
0
LINE
8
BLACK
6
CONTINUOUS
10
0.339468
20
3.41432
11
0.340478
21
3.41415
0
LINE
8
BLACK
6
CONTINUOUS
10
0.340478
20
3.41415
11
0.340613
21
3.41403
0
LINE
8
BLACK
6
CONTINUOUS
10
0.340613
20
3.41403
11
0.340789
21
3.41401
0
LINE
8
BLACK
6
CONTINUOUS
10
0.340789
20
3.41401
11
0.344538
21
3.41214
0
LINE
8
BLACK
6
CONTINUOUS
10
0.344538
20
3.41214
11
0.345362
21
3.41153
0
LINE
8
BLACK
6
CONTINUOUS
10
0.345362
20
3.41153
11
0.345538
21
3.41112
0
LINE
8
BLACK
6
CONTINUOUS
10
0.345538
20
3.41112
11
0.345859
21
3.41082
0
LINE
8
BLACK
6
CONTINUOUS
10
0.345859
20
3.41082
11
0.347734
21
3.40707
0
LINE
8
BLACK
6
CONTINUOUS
10
0.347734
20
3.40707
11
0.348026
21
3.40609
0
LINE
8
BLACK
6
CONTINUOUS
10
0.348026
20
3.40609
11
0.347985
21
3.40591
0
LINE
8
BLACK
6
CONTINUOUS
10
0.347985
20
3.40591
11
0.348045
21
3.40575
0
LINE
8
BLACK
6
CONTINUOUS
10
0.348045
20
3.40575
11
0.348045
21
3.38513
0
LINE
8
BLACK
6
CONTINUOUS
10
0.348045
20
3.38513
11
0.347867
21
3.38412
0
LINE
8
BLACK
6
CONTINUOUS
10
0.347867
20
3.38412
11
0.346569
21
3.38257
0
LINE
8
BLACK
6
CONTINUOUS
10
0.346569
20
3.38257
11
0.34458
21
3.38222
0
LINE
8
BLACK
6
CONTINUOUS
10
0.34458
20
3.38222
11
0.342831
21
3.38323
0
LINE
8
BLACK
6
CONTINUOUS
10
0.342831
20
3.38323
11
0.34214
21
3.38513
0
LINE
8
BLACK
6
CONTINUOUS
10
0.34214
20
3.38513
11
0.34214
21
3.40505
0
LINE
8
BLACK
6
CONTINUOUS
10
0.34214
20
3.40505
11
0.341017
21
3.4073
0
LINE
8
BLACK
6
CONTINUOUS
10
0.341017
20
3.4073
11
0.338771
21
3.40842
0
LINE
8
BLACK
6
CONTINUOUS
10
0.338771
20
3.40842
11
0.334541
21
3.40842
0
LINE
8
BLACK
6
CONTINUOUS
10
0.334541
20
3.40842
11
0.332295
21
3.4073
0
LINE
8
BLACK
6
CONTINUOUS
10
0.332295
20
3.4073
11
0.331172
21
3.40505
0
LINE
8
BLACK
6
CONTINUOUS
10
0.331172
20
3.40505
11
0.331172
21
3.38513
0
LINE
8
BLACK
6
CONTINUOUS
10
0.331172
20
3.38513
11
0.330994
21
3.38412
0
LINE
8
BLACK
6
CONTINUOUS
10
0.330994
20
3.38412
11
0.329696
21
3.38257
0
LINE
8
BLACK
6
CONTINUOUS
10
0.329696
20
3.38257
11
0.327707
21
3.38222
0
LINE
8
BLACK
6
CONTINUOUS
10
0.327707
20
3.38222
11
0.325958
21
3.38323
0
LINE
8
BLACK
6
CONTINUOUS
10
0.325958
20
3.38323
11
0.325267
21
3.38513
0
LINE
8
BLACK
6
CONTINUOUS
10
0.325267
20
3.38513
11
0.325267
21
3.40505
0
LINE
8
BLACK
6
CONTINUOUS
10
0.325267
20
3.40505
11
0.324144
21
3.4073
0
LINE
8
BLACK
6
CONTINUOUS
10
0.324144
20
3.4073
11
0.321898
21
3.40842
0
LINE
8
BLACK
6
CONTINUOUS
10
0.321898
20
3.40842
11
0.317668
21
3.40842
0
LINE
8
BLACK
6
CONTINUOUS
10
0.317668
20
3.40842
11
0.314971
21
3.40707
0
LINE
8
BLACK
6
CONTINUOUS
10
0.314971
20
3.40707
11
0.3143
21
3.4064
0
LINE
8
BLACK
6
CONTINUOUS
10
0.3143
20
3.4064
11
0.3143
21
3.38513
0
LINE
8
BLACK
6
CONTINUOUS
10
0.3143
20
3.38513
11
0.314121
21
3.38412
0
LINE
8
BLACK
6
CONTINUOUS
10
0.314121
20
3.38412
11
0.312823
21
3.38257
0
LINE
8
BLACK
6
CONTINUOUS
10
0.312823
20
3.38257
11
0.310834
21
3.38222
0
LINE
8
BLACK
6
CONTINUOUS
10
0.310834
20
3.38222
11
0.309085
21
3.38323
0
LINE
8
BLACK
6
CONTINUOUS
10
0.309085
20
3.38323
11
0.308394
21
3.38513
0
LINE
8
BLACK
6
CONTINUOUS
10
0.308394
20
3.38513
11
0.308394
21
3.41137
0
LINE
8
BLACK
6
CONTINUOUS
10
0.308394
20
3.41137
11
0.308572
21
3.41238
0
LINE
8
BLACK
6
CONTINUOUS
10
0.308572
20
3.41238
11
0.30987
21
3.41393
0
LINE
8
BLACK
6
CONTINUOUS
10
0.30987
20
3.41393
11
0.31186
21
3.41428
0
LINE
8
BLACK
6
CONTINUOUS
10
0.31186
20
3.41428
11
0.313609
21
3.41327
0
LINE
8
BLACK
6
CONTINUOUS
10
0.313609
20
3.41327
11
0.313694
21
3.41303
0
LINE
8
BLACK
6
CONTINUOUS
10
0.313694
20
3.41303
11
0.315651
21
3.41401
0
LINE
8
BLACK
6
CONTINUOUS
10
0.315651
20
3.41401
11
0.316633
21
3.41431
0
LINE
8
BLACK
6
CONTINUOUS
10
0.316633
20
3.41431
11
0.316805
21
3.41426
0
LINE
8
BLACK
6
CONTINUOUS
10
0.316805
20
3.41426
11
0.316971
21
3.41432
0
LINE
8
BLACK
6
CONTINUOUS
10
0.316971
20
3.41432
11
0.322595
21
3.41432
0
LINE
8
BLACK
6
CONTINUOUS
10
0.322595
20
3.41432
11
0.323605
21
3.41415
0
LINE
8
BLACK
6
CONTINUOUS
10
0.409844
20
3.41415
11
0.40998
21
3.41403
0
LINE
8
BLACK
6
CONTINUOUS
10
0.40998
20
3.41403
11
0.410155
21
3.41401
0
LINE
8
BLACK
6
CONTINUOUS
10
0.410155
20
3.41401
11
0.413905
21
3.41214
0
LINE
8
BLACK
6
CONTINUOUS
10
0.413905
20
3.41214
11
0.414728
21
3.41153
0
LINE
8
BLACK
6
CONTINUOUS
10
0.414728
20
3.41153
11
0.414904
21
3.41112
0
LINE
8
BLACK
6
CONTINUOUS
10
0.414904
20
3.41112
11
0.415225
21
3.41082
0
LINE
8
BLACK
6
CONTINUOUS
10
0.415225
20
3.41082
11
0.4171
21
3.40707
0
LINE
8
BLACK
6
CONTINUOUS
10
0.4171
20
3.40707
11
0.417392
21
3.40609
0
LINE
8
BLACK
6
CONTINUOUS
10
0.417392
20
3.40609
11
0.417351
21
3.40591
0
LINE
8
BLACK
6
CONTINUOUS
10
0.417351
20
3.40591
11
0.417412
21
3.40575
0
LINE
8
BLACK
6
CONTINUOUS
10
0.417412
20
3.40575
11
0.417412
21
3.38513
0
LINE
8
BLACK
6
CONTINUOUS
10
0.417412
20
3.38513
11
0.417234
21
3.38412
0
LINE
8
BLACK
6
CONTINUOUS
10
0.417234
20
3.38412
11
0.415935
21
3.38257
0
LINE
8
BLACK
6
CONTINUOUS
10
0.415935
20
3.38257
11
0.413946
21
3.38222
0
LINE
8
BLACK
6
CONTINUOUS
10
0.413946
20
3.38222
11
0.412197
21
3.38323
0
LINE
8
BLACK
6
CONTINUOUS
10
0.412197
20
3.38323
11
0.411506
21
3.38513
0
LINE
8
BLACK
6
CONTINUOUS
10
0.411506
20
3.38513
11
0.411506
21
3.40505
0
LINE
8
BLACK
6
CONTINUOUS
10
0.411506
20
3.40505
11
0.410383
21
3.4073
0
LINE
8
BLACK
6
CONTINUOUS
10
0.410383
20
3.4073
11
0.408138
21
3.40842
0
LINE
8
BLACK
6
CONTINUOUS
10
0.408138
20
3.40842
11
0.403907
21
3.40842
0
LINE
8
BLACK
6
CONTINUOUS
10
0.403907
20
3.40842
11
0.40121
21
3.40707
0
LINE
8
BLACK
6
CONTINUOUS
10
0.40121
20
3.40707
11
0.400539
21
3.4064
0
LINE
8
BLACK
6
CONTINUOUS
10
0.400539
20
3.4064
11
0.400539
21
3.38513
0
LINE
8
BLACK
6
CONTINUOUS
10
0.400539
20
3.38513
11
0.400361
21
3.38412
0
LINE
8
BLACK
6
CONTINUOUS
10
0.400361
20
3.38412
11
0.399062
21
3.38257
0
LINE
8
BLACK
6
CONTINUOUS
10
0.399062
20
3.38257
11
0.397073
21
3.38222
0
LINE
8
BLACK
6
CONTINUOUS
10
0.397073
20
3.38222
11
0.395324
21
3.38323
0
LINE
8
BLACK
6
CONTINUOUS
10
0.395324
20
3.38323
11
0.394633
21
3.38513
0
LINE
8
BLACK
6
CONTINUOUS
10
0.394633
20
3.38513
11
0.394633
21
3.41137
0
LINE
8
BLACK
6
CONTINUOUS
10
0.394633
20
3.41137
11
0.394811
21
3.41238
0
LINE
8
BLACK
6
CONTINUOUS
10
0.394811
20
3.41238
11
0.39611
21
3.41393
0
LINE
8
BLACK
6
CONTINUOUS
10
0.39611
20
3.41393
11
0.398099
21
3.41428
0
LINE
8
BLACK
6
CONTINUOUS
10
0.398099
20
3.41428
11
0.399848
21
3.41327
0
LINE
8
BLACK
6
CONTINUOUS
10
0.399848
20
3.41327
11
0.399933
21
3.41303
0
LINE
8
BLACK
6
CONTINUOUS
10
0.399933
20
3.41303
11
0.40189
21
3.41401
0
LINE
8
BLACK
6
CONTINUOUS
10
0.40189
20
3.41401
11
0.402873
21
3.41431
0
LINE
8
BLACK
6
CONTINUOUS
10
0.402873
20
3.41431
11
0.403044
21
3.41426
0
LINE
8
BLACK
6
CONTINUOUS
10
0.403044
20
3.41426
11
0.40321
21
3.41432
0
LINE
8
BLACK
6
CONTINUOUS
10
0.40321
20
3.41432
11
0.408835
21
3.41432
0
LINE
8
BLACK
6
CONTINUOUS
10
0.408835
20
3.41432
11
0.409844
21
3.41415
0
LINE
8
BLACK
6
CONTINUOUS
10
0.467339
20
3.41327
11
0.46803
21
3.41137
0
LINE
8
BLACK
6
CONTINUOUS
10
0.46803
20
3.41137
11
0.46803
21
3.38513
0
LINE
8
BLACK
6
CONTINUOUS
10
0.46803
20
3.38513
11
0.467852
21
3.38412
0
LINE
8
BLACK
6
CONTINUOUS
10
0.467852
20
3.38412
11
0.466554
21
3.38257
0
LINE
8
BLACK
6
CONTINUOUS
10
0.466554
20
3.38257
11
0.464565
21
3.38222
0
LINE
8
BLACK
6
CONTINUOUS
10
0.464565
20
3.38222
11
0.462816
21
3.38323
0
LINE
8
BLACK
6
CONTINUOUS
10
0.462816
20
3.38323
11
0.462125
21
3.38513
0
LINE
8
BLACK
6
CONTINUOUS
10
0.462125
20
3.38513
11
0.462125
21
3.41137
0
LINE
8
BLACK
6
CONTINUOUS
10
0.462125
20
3.41137
11
0.462303
21
3.41238
0
LINE
8
BLACK
6
CONTINUOUS
10
0.462303
20
3.41238
11
0.463601
21
3.41393
0
LINE
8
BLACK
6
CONTINUOUS
10
0.463601
20
3.41393
11
0.46559
21
3.41428
0
LINE
8
BLACK
6
CONTINUOUS
10
0.46559
20
3.41428
11
0.467339
21
3.41327
0
LINE
8
BLACK
6
CONTINUOUS
10
0.531704
20
3.41415
11
0.531839
21
3.41403
0
LINE
8
BLACK
6
CONTINUOUS
10
0.531839
20
3.41403
11
0.532015
21
3.41401
0
LINE
8
BLACK
6
CONTINUOUS
10
0.532015
20
3.41401
11
0.535764
21
3.41214
0
LINE
8
BLACK
6
CONTINUOUS
10
0.535764
20
3.41214
11
0.536588
21
3.41153
0
LINE
8
BLACK
6
CONTINUOUS
10
0.536588
20
3.41153
11
0.536764
21
3.41112
0
LINE
8
BLACK
6
CONTINUOUS
10
0.536764
20
3.41112
11
0.537085
21
3.41082
0
LINE
8
BLACK
6
CONTINUOUS
10
0.537085
20
3.41082
11
0.53896
21
3.40707
0
LINE
8
BLACK
6
CONTINUOUS
10
0.53896
20
3.40707
11
0.539252
21
3.40609
0
LINE
8
BLACK
6
CONTINUOUS
10
0.539252
20
3.40609
11
0.539211
21
3.40591
0
LINE
8
BLACK
6
CONTINUOUS
10
0.539211
20
3.40591
11
0.539271
21
3.40575
0
LINE
8
BLACK
6
CONTINUOUS
10
0.539271
20
3.40575
11
0.539271
21
3.38513
0
LINE
8
BLACK
6
CONTINUOUS
10
0.539271
20
3.38513
11
0.539093
21
3.38412
0
LINE
8
BLACK
6
CONTINUOUS
10
0.539093
20
3.38412
11
0.537795
21
3.38257
0
LINE
8
BLACK
6
CONTINUOUS
10
0.537795
20
3.38257
11
0.535806
21
3.38222
0
LINE
8
BLACK
6
CONTINUOUS
10
0.535806
20
3.38222
11
0.534057
21
3.38323
0
LINE
8
BLACK
6
CONTINUOUS
10
0.534057
20
3.38323
11
0.533366
21
3.38513
0
LINE
8
BLACK
6
CONTINUOUS
10
0.533366
20
3.38513
11
0.533366
21
3.40505
0
LINE
8
BLACK
6
CONTINUOUS
10
0.533366
20
3.40505
11
0.532243
21
3.4073
0
LINE
8
BLACK
6
CONTINUOUS
10
0.532243
20
3.4073
11
0.529997
21
3.40842
0
LINE
8
BLACK
6
CONTINUOUS
10
0.529997
20
3.40842
11
0.525767
21
3.40842
0
LINE
8
BLACK
6
CONTINUOUS
10
0.525767
20
3.40842
11
0.52307
21
3.40707
0
LINE
8
BLACK
6
CONTINUOUS
10
0.52307
20
3.40707
11
0.522399
21
3.4064
0
LINE
8
BLACK
6
CONTINUOUS
10
0.522399
20
3.4064
11
0.522399
21
3.38513
0
LINE
8
BLACK
6
CONTINUOUS
10
0.522399
20
3.38513
11
0.52222
21
3.38412
0
LINE
8
BLACK
6
CONTINUOUS
10
0.52222
20
3.38412
11
0.520922
21
3.38257
0
LINE
8
BLACK
6
CONTINUOUS
10
0.520922
20
3.38257
11
0.518933
21
3.38222
0
LINE
8
BLACK
6
CONTINUOUS
10
0.518933
20
3.38222
11
0.517184
21
3.38323
0
LINE
8
BLACK
6
CONTINUOUS
10
0.517184
20
3.38323
11
0.516493
21
3.38513
0
LINE
8
BLACK
6
CONTINUOUS
10
0.516493
20
3.38513
11
0.516493
21
3.41137
0
LINE
8
BLACK
6
CONTINUOUS
10
0.516493
20
3.41137
11
0.516671
21
3.41238
0
LINE
8
BLACK
6
CONTINUOUS
10
0.516671
20
3.41238
11
0.517969
21
3.41393
0
LINE
8
BLACK
6
CONTINUOUS
10
0.517969
20
3.41393
11
0.519959
21
3.41428
0
LINE
8
BLACK
6
CONTINUOUS
10
0.519959
20
3.41428
11
0.521708
21
3.41327
0
LINE
8
BLACK
6
CONTINUOUS
10
0.521708
20
3.41327
11
0.521793
21
3.41303
0
LINE
8
BLACK
6
CONTINUOUS
10
0.521793
20
3.41303
11
0.52375
21
3.41401
0
LINE
8
BLACK
6
CONTINUOUS
10
0.52375
20
3.41401
11
0.524732
21
3.41431
0
LINE
8
BLACK
6
CONTINUOUS
10
0.524732
20
3.41431
11
0.524904
21
3.41426
0
LINE
8
BLACK
6
CONTINUOUS
10
0.524904
20
3.41426
11
0.52507
21
3.41432
0
LINE
8
BLACK
6
CONTINUOUS
10
0.52507
20
3.41432
11
0.530694
21
3.41432
0
LINE
8
BLACK
6
CONTINUOUS
10
0.530694
20
3.41432
11
0.531704
21
3.41415
0
LINE
8
BLACK
6
CONTINUOUS
10
0.174876
20
3.42639
11
0.175567
21
3.4245
0
LINE
8
BLACK
6
CONTINUOUS
10
0.175567
20
3.4245
11
0.175567
21
3.39145
0
LINE
8
BLACK
6
CONTINUOUS
10
0.175567
20
3.39145
11
0.17669
21
3.3892
0
LINE
8
BLACK
6
CONTINUOUS
10
0.17669
20
3.3892
11
0.179559
21
3.38777
0
LINE
8
BLACK
6
CONTINUOUS
10
0.179559
20
3.38777
11
0.180383
21
3.38716
0
LINE
8
BLACK
6
CONTINUOUS
10
0.180383
20
3.38716
11
0.181186
21
3.3853
0
LINE
8
BLACK
6
CONTINUOUS
10
0.181186
20
3.3853
11
0.18061
21
3.38337
0
LINE
8
BLACK
6
CONTINUOUS
10
0.18061
20
3.38337
11
0.178924
21
3.38225
0
LINE
8
BLACK
6
CONTINUOUS
10
0.178924
20
3.38225
11
0.176918
21
3.38248
0
LINE
8
BLACK
6
CONTINUOUS
10
0.176918
20
3.38248
11
0.173168
21
3.38436
0
LINE
8
BLACK
6
CONTINUOUS
10
0.173168
20
3.38436
11
0.172345
21
3.38497
0
LINE
8
BLACK
6
CONTINUOUS
10
0.172345
20
3.38497
11
0.172169
21
3.38538
0
LINE
8
BLACK
6
CONTINUOUS
10
0.172169
20
3.38538
11
0.171848
21
3.38568
0
LINE
8
BLACK
6
CONTINUOUS
10
0.171848
20
3.38568
11
0.169973
21
3.38943
0
LINE
8
BLACK
6
CONTINUOUS
10
0.169973
20
3.38943
11
0.169681
21
3.39041
0
LINE
8
BLACK
6
CONTINUOUS
10
0.169681
20
3.39041
11
0.169722
21
3.39058
0
LINE
8
BLACK
6
CONTINUOUS
10
0.169722
20
3.39058
11
0.169661
21
3.39075
0
LINE
8
BLACK
6
CONTINUOUS
10
0.169661
20
3.39075
11
0.169661
21
3.4245
0
LINE
8
BLACK
6
CONTINUOUS
10
0.169661
20
3.4245
11
0.169839
21
3.42551
0
LINE
8
BLACK
6
CONTINUOUS
10
0.169839
20
3.42551
11
0.171138
21
3.42705
0
LINE
8
BLACK
6
CONTINUOUS
10
0.171138
20
3.42705
11
0.173127
21
3.4274
0
LINE
8
BLACK
6
CONTINUOUS
10
0.173127
20
3.4274
11
0.174876
21
3.42639
0
LINE
8
BLACK
6
CONTINUOUS
10
0.292979
20
3.42738
11
0.293112
21
3.4274
0
LINE
8
BLACK
6
CONTINUOUS
10
0.293112
20
3.4274
11
0.293229
21
3.42734
0
LINE
8
BLACK
6
CONTINUOUS
10
0.293229
20
3.42734
11
0.293363
21
3.42735
0
LINE
8
BLACK
6
CONTINUOUS
10
0.293363
20
3.42735
11
0.293992
21
3.42691
0
LINE
8
BLACK
6
CONTINUOUS
10
0.293992
20
3.42691
11
0.294687
21
3.42658
0
LINE
8
BLACK
6
CONTINUOUS
10
0.294687
20
3.42658
11
0.296562
21
3.42471
0
LINE
8
BLACK
6
CONTINUOUS
10
0.296562
20
3.42471
11
0.296785
21
3.42439
0
LINE
8
BLACK
6
CONTINUOUS
10
0.296785
20
3.42439
11
0.296893
21
3.42431
0
LINE
8
BLACK
6
CONTINUOUS
10
0.296893
20
3.42431
11
0.296927
21
3.42419
0
LINE
8
BLACK
6
CONTINUOUS
10
0.296927
20
3.42419
11
0.29715
21
3.42387
0
LINE
8
BLACK
6
CONTINUOUS
10
0.29715
20
3.42387
11
0.297217
21
3.4231
0
LINE
8
BLACK
6
CONTINUOUS
10
0.297217
20
3.4231
11
0.297415
21
3.42236
0
LINE
8
BLACK
6
CONTINUOUS
10
0.297415
20
3.42236
11
0.297303
21
3.42212
0
LINE
8
BLACK
6
CONTINUOUS
10
0.297303
20
3.42212
11
0.297326
21
3.42186
0
LINE
8
BLACK
6
CONTINUOUS
10
0.297326
20
3.42186
11
0.296886
21
3.42123
0
LINE
8
BLACK
6
CONTINUOUS
10
0.296886
20
3.42123
11
0.296562
21
3.42053
0
LINE
8
BLACK
6
CONTINUOUS
10
0.296562
20
3.42053
11
0.294687
21
3.41866
0
LINE
8
BLACK
6
CONTINUOUS
10
0.294687
20
3.41866
11
0.294368
21
3.41843
0
LINE
8
BLACK
6
CONTINUOUS
10
0.294368
20
3.41843
11
0.294293
21
3.41833
0
LINE
8
BLACK
6
CONTINUOUS
10
0.294293
20
3.41833
11
0.294166
21
3.41829
0
LINE
8
BLACK
6
CONTINUOUS
10
0.294166
20
3.41829
11
0.294159
21
3.41829
0
LINE
8
BLACK
6
CONTINUOUS
10
0.294159
20
3.41829
11
0.294076
21
3.41819
0
LINE
8
BLACK
6
CONTINUOUS
10
0.294076
20
3.41819
11
0.293997
21
3.41817
0
LINE
8
BLACK
6
CONTINUOUS
10
0.293997
20
3.41817
11
0.293847
21
3.41807
0
LINE
8
BLACK
6
CONTINUOUS
10
0.293847
20
3.41807
11
0.293083
21
3.418
0
LINE
8
BLACK
6
CONTINUOUS
10
0.293083
20
3.418
11
0.292342
21
3.4178
0
LINE
8
BLACK
6
CONTINUOUS
10
0.292342
20
3.4178
11
0.292219
21
3.41786
0
LINE
8
BLACK
6
CONTINUOUS
10
0.292219
20
3.41786
11
0.292086
21
3.41784
0
LINE
8
BLACK
6
CONTINUOUS
10
0.292086
20
3.41784
11
0.291969
21
3.41791
0
LINE
8
BLACK
6
CONTINUOUS
10
0.291969
20
3.41791
11
0.291835
21
3.41789
0
LINE
8
BLACK
6
CONTINUOUS
10
0.291835
20
3.41789
11
0.291206
21
3.41833
0
LINE
8
BLACK
6
CONTINUOUS
10
0.291206
20
3.41833
11
0.290511
21
3.41866
0
LINE
8
BLACK
6
CONTINUOUS
10
0.290511
20
3.41866
11
0.288636
21
3.42053
0
LINE
8
BLACK
6
CONTINUOUS
10
0.288636
20
3.42053
11
0.288413
21
3.42085
0
LINE
8
BLACK
6
CONTINUOUS
10
0.288413
20
3.42085
11
0.288306
21
3.42093
0
LINE
8
BLACK
6
CONTINUOUS
10
0.288306
20
3.42093
11
0.288272
21
3.42105
0
LINE
8
BLACK
6
CONTINUOUS
10
0.288272
20
3.42105
11
0.288048
21
3.42137
0
LINE
8
BLACK
6
CONTINUOUS
10
0.288048
20
3.42137
11
0.287981
21
3.42214
0
LINE
8
BLACK
6
CONTINUOUS
10
0.287981
20
3.42214
11
0.287783
21
3.42288
0
LINE
8
BLACK
6
CONTINUOUS
10
0.287783
20
3.42288
11
0.287895
21
3.42312
0
LINE
8
BLACK
6
CONTINUOUS
10
0.287895
20
3.42312
11
0.287872
21
3.42338
0
LINE
8
BLACK
6
CONTINUOUS
10
0.287872
20
3.42338
11
0.288312
21
3.42401
0
LINE
8
BLACK
6
CONTINUOUS
10
0.288312
20
3.42401
11
0.288636
21
3.42471
0
LINE
8
BLACK
6
CONTINUOUS
10
0.288636
20
3.42471
11
0.290511
21
3.42658
0
LINE
8
BLACK
6
CONTINUOUS
10
0.290511
20
3.42658
11
0.29083
21
3.42681
0
LINE
8
BLACK
6
CONTINUOUS
10
0.29083
20
3.42681
11
0.290906
21
3.42691
0
LINE
8
BLACK
6
CONTINUOUS
10
0.290906
20
3.42691
11
0.291032
21
3.42695
0
LINE
8
BLACK
6
CONTINUOUS
10
0.291032
20
3.42695
11
0.291039
21
3.42695
0
LINE
8
BLACK
6
CONTINUOUS
10
0.291039
20
3.42695
11
0.291123
21
3.42705
0
LINE
8
BLACK
6
CONTINUOUS
10
0.291123
20
3.42705
11
0.291201
21
3.42707
0
LINE
8
BLACK
6
CONTINUOUS
10
0.291201
20
3.42707
11
0.291351
21
3.42717
0
LINE
8
BLACK
6
CONTINUOUS
10
0.291351
20
3.42717
11
0.292115
21
3.42724
0
LINE
8
BLACK
6
CONTINUOUS
10
0.292115
20
3.42724
11
0.292856
21
3.42744
0
LINE
8
BLACK
6
CONTINUOUS
10
0.292856
20
3.42744
11
0.292979
21
3.42738
0
LINE
8
BLACK
6
CONTINUOUS
10
0.465457
20
3.42738
11
0.46559
21
3.4274
0
LINE
8
BLACK
6
CONTINUOUS
10
0.46559
20
3.4274
11
0.465707
21
3.42734
0
LINE
8
BLACK
6
CONTINUOUS
10
0.465707
20
3.42734
11
0.465842
21
3.42735
0
LINE
8
BLACK
6
CONTINUOUS
10
0.465842
20
3.42735
11
0.46647
21
3.42691
0
LINE
8
BLACK
6
CONTINUOUS
10
0.46647
20
3.42691
11
0.467165
21
3.42658
0
LINE
8
BLACK
6
CONTINUOUS
10
0.467165
20
3.42658
11
0.46904
21
3.42471
0
LINE
8
BLACK
6
CONTINUOUS
10
0.46904
20
3.42471
11
0.469264
21
3.42439
0
LINE
8
BLACK
6
CONTINUOUS
10
0.469264
20
3.42439
11
0.469371
21
3.42431
0
LINE
8
BLACK
6
CONTINUOUS
10
0.469371
20
3.42431
11
0.469405
21
3.42419
0
LINE
8
BLACK
6
CONTINUOUS
10
0.469405
20
3.42419
11
0.469628
21
3.42387
0
LINE
8
BLACK
6
CONTINUOUS
10
0.469628
20
3.42387
11
0.469695
21
3.4231
0
LINE
8
BLACK
6
CONTINUOUS
10
0.469695
20
3.4231
11
0.469894
21
3.42236
0
LINE
8
BLACK
6
CONTINUOUS
10
0.469894
20
3.42236
11
0.469781
21
3.42212
0
LINE
8
BLACK
6
CONTINUOUS
10
0.469781
20
3.42212
11
0.469804
21
3.42186
0
LINE
8
BLACK
6
CONTINUOUS
10
0.469804
20
3.42186
11
0.469364
21
3.42123
0
LINE
8
BLACK
6
CONTINUOUS
10
0.469364
20
3.42123
11
0.46904
21
3.42053
0
LINE
8
BLACK
6
CONTINUOUS
10
0.46904
20
3.42053
11
0.467165
21
3.41866
0
LINE
8
BLACK
6
CONTINUOUS
10
0.467165
20
3.41866
11
0.466846
21
3.41843
0
LINE
8
BLACK
6
CONTINUOUS
10
0.466846
20
3.41843
11
0.466771
21
3.41833
0
LINE
8
BLACK
6
CONTINUOUS
10
0.466771
20
3.41833
11
0.466644
21
3.41829
0
LINE
8
BLACK
6
CONTINUOUS
10
0.466644
20
3.41829
11
0.466637
21
3.41829
0
LINE
8
BLACK
6
CONTINUOUS
10
0.466637
20
3.41829
11
0.466554
21
3.41819
0
LINE
8
BLACK
6
CONTINUOUS
10
0.466554
20
3.41819
11
0.466476
21
3.41817
0
LINE
8
BLACK
6
CONTINUOUS
10
0.466476
20
3.41817
11
0.466325
21
3.41807
0
LINE
8
BLACK
6
CONTINUOUS
10
0.466325
20
3.41807
11
0.465561
21
3.418
0
LINE
8
BLACK
6
CONTINUOUS
10
0.465561
20
3.418
11
0.46482
21
3.4178
0
LINE
8
BLACK
6
CONTINUOUS
10
0.46482
20
3.4178
11
0.464698
21
3.41786
0
LINE
8
BLACK
6
CONTINUOUS
10
0.464698
20
3.41786
11
0.464565
21
3.41784
0
LINE
8
BLACK
6
CONTINUOUS
10
0.464565
20
3.41784
11
0.464448
21
3.41791
0
LINE
8
BLACK
6
CONTINUOUS
10
0.464448
20
3.41791
11
0.464313
21
3.41789
0
LINE
8
BLACK
6
CONTINUOUS
10
0.464313
20
3.41789
11
0.463685
21
3.41833
0
LINE
8
BLACK
6
CONTINUOUS
10
0.463685
20
3.41833
11
0.46299
21
3.41866
0
LINE
8
BLACK
6
CONTINUOUS
10
0.46299
20
3.41866
11
0.461115
21
3.42053
0
LINE
8
BLACK
6
CONTINUOUS
10
0.461115
20
3.42053
11
0.460891
21
3.42085
0
LINE
8
BLACK
6
CONTINUOUS
10
0.460891
20
3.42085
11
0.460784
21
3.42093
0
LINE
8
BLACK
6
CONTINUOUS
10
0.460784
20
3.42093
11
0.46075
21
3.42105
0
LINE
8
BLACK
6
CONTINUOUS
10
0.46075
20
3.42105
11
0.460527
21
3.42137
0
LINE
8
BLACK
6
CONTINUOUS
10
0.460527
20
3.42137
11
0.46046
21
3.42214
0
LINE
8
BLACK
6
CONTINUOUS
10
0.46046
20
3.42214
11
0.460261
21
3.42288
0
LINE
8
BLACK
6
CONTINUOUS
10
0.460261
20
3.42288
11
0.460374
21
3.42312
0
LINE
8
BLACK
6
CONTINUOUS
10
0.460374
20
3.42312
11
0.460351
21
3.42338
0
LINE
8
BLACK
6
CONTINUOUS
10
0.460351
20
3.42338
11
0.460791
21
3.42401
0
LINE
8
BLACK
6
CONTINUOUS
10
0.460791
20
3.42401
11
0.461115
21
3.42471
0
LINE
8
BLACK
6
CONTINUOUS
10
0.461115
20
3.42471
11
0.46299
21
3.42658
0
LINE
8
BLACK
6
CONTINUOUS
10
0.46299
20
3.42658
11
0.463309
21
3.42681
0
LINE
8
BLACK
6
CONTINUOUS
10
0.463309
20
3.42681
11
0.463384
21
3.42691
0
LINE
8
BLACK
6
CONTINUOUS
10
0.463384
20
3.42691
11
0.463511
21
3.42695
0
LINE
8
BLACK
6
CONTINUOUS
10
0.463511
20
3.42695
11
0.463518
21
3.42695
0
LINE
8
BLACK
6
CONTINUOUS
10
0.463518
20
3.42695
11
0.463601
21
3.42705
0
LINE
8
BLACK
6
CONTINUOUS
10
0.463601
20
3.42705
11
0.46368
21
3.42707
0
LINE
8
BLACK
6
CONTINUOUS
10
0.46368
20
3.42707
11
0.46383
21
3.42717
0
LINE
8
BLACK
6
CONTINUOUS
10
0.46383
20
3.42717
11
0.464594
21
3.42724
0
LINE
8
BLACK
6
CONTINUOUS
10
0.464594
20
3.42724
11
0.465335
21
3.42744
0
LINE
8
BLACK
6
CONTINUOUS
10
0.465335
20
3.42744
11
0.465457
21
3.42738
  0
ENDSEC
  0
EOF
