  0
SECTION
  2
HEADER
  9
$ANGBASE
  50
0.0
  9
$ANGDIR
  70
1
  9
$MEASUREMENT
  70
0
  0
ENDSEC
  0
SECTION
  2
TABLES
  0
TABLE
  2
LTYPE
  70
4
  0
LTYPE
  5
40F
  2
CONTINUOUS
  70
0
  3
Solid line
  72
65
  73
0
  40
0.0
  0
LTYPE
  5
410
  2
DASHDOT
 70
0
  3
Dash Dot ____ _ ____ _
 72
65
 73
4
 40
2.0
 49
1.25
 49
-0.25
 49
0.25
 49
-0.25
  0
LTYPE
  5
411
  2
DASHED
 70
0
  3
Dashed __ __ __ __ __
 72
65
 73
2
 40
0.75
 49
0.5
 49
-0.25
  0
LTYPE
  5
43B
  2
DOTTED
 70
0
  3
Dotted .  .  .  .
 72
65
 73
2
 40
0.2
 49
0.0
 49
-0.2
  0
ENDTAB
  0
TABLE
  2
STYLE
  70
4
  0
STYLE
  2
KICAD
  70
0
  40
0
  41
1
  42
1
  50
0
  71
0
  3
isocp.shx
  0
STYLE
  2
KICADB
  70
0
  40
0
  41
1
  42
1
  50
0
  71
0
  3
isocp.shx
  0
STYLE
  2
KICADI
  70
0
  40
0
  41
1
  42
1
  50
15
  71
0
  3
isocp.shx
  0
STYLE
  2
KICADBI
  70
0
  40
0
  41
1
  42
1
  50
15
  71
0
  3
isocp.shx
  0
ENDTAB
  0
TABLE
  2
LAYER
  70
1
  0
LAYER
  2
BLACK
  70
0
  62
7
  6
CONTINUOUS
  0
ENDTAB
  0
ENDSEC
  0
SECTION
  2
ENTITIES
0
LINE
8
BLACK
6
CONTINUOUS
10
2.2663779527559056
20
2.4498425196850393
11
2.2677698818897638
21
2.4492659448818896
0
LINE
8
BLACK
6
CONTINUOUS
10
2.2677698818897638
20
2.4492659448818896
11
2.2683464566929135
21
2.4478740157480314
0
LINE
8
BLACK
6
CONTINUOUS
10
2.2683464566929135
20
2.4478740157480314
11
2.2683464566929135
21
2.3730708661417323
0
LINE
8
BLACK
6
CONTINUOUS
10
2.2683464566929135
20
2.3730708661417323
11
2.2677698818897638
21
2.3716789370078741
0
LINE
8
BLACK
6
CONTINUOUS
10
2.2677698818897638
20
2.3716789370078741
11
2.2663779527559056
21
2.3711023622047245
0
LINE
8
BLACK
6
CONTINUOUS
10
2.2663779527559056
20
2.3711023622047245
11
2.1340944881889765
21
2.3711023622047245
0
LINE
8
BLACK
6
CONTINUOUS
10
2.1340944881889765
20
2.3711023622047245
11
2.1327025590551179
21
2.3716789370078741
0
LINE
8
BLACK
6
CONTINUOUS
10
2.1327025590551179
20
2.3716789370078741
11
2.1321259842519686
21
2.3730708661417323
0
LINE
8
BLACK
6
CONTINUOUS
10
2.1321259842519686
20
2.3730708661417323
11
2.1321259842519686
21
2.4478740157480314
0
LINE
8
BLACK
6
CONTINUOUS
10
2.1321259842519686
20
2.4478740157480314
11
2.1327025590551179
21
2.4492659448818896
0
LINE
8
BLACK
6
CONTINUOUS
10
2.1327025590551179
20
2.4492659448818896
11
2.1340944881889765
21
2.4498425196850393
0
LINE
8
BLACK
6
CONTINUOUS
10
2.1340944881889765
20
2.4498425196850393
11
2.2663779527559056
21
2.4498425196850393
0
LINE
8
BLACK
6
CONTINUOUS
10
2.1360629921259844
20
2.4459055118110236
11
2.1360629921259844
21
2.3750393700787402
0
LINE
8
BLACK
6
CONTINUOUS
10
2.1360629921259844
20
2.3750393700787402
11
2.2644094488188977
21
2.3750393700787402
0
LINE
8
BLACK
6
CONTINUOUS
10
2.2644094488188977
20
2.3750393700787402
11
2.2644094488188977
21
2.4459055118110236
0
LINE
8
BLACK
6
CONTINUOUS
10
2.2644094488188977
20
2.4459055118110236
11
2.1360629921259844
21
2.4459055118110236
0
LINE
8
BLACK
6
CONTINUOUS
10
2.6177559055118111
20
3.2313385826771652
11
2.6191478346456694
21
3.2307620078740156
0
LINE
8
BLACK
6
CONTINUOUS
10
2.6191478346456694
20
3.2307620078740156
11
2.619724409448819
21
3.2293700787401574
0
LINE
8
BLACK
6
CONTINUOUS
10
2.619724409448819
20
3.2293700787401574
11
2.619724409448819
21
0.1506299212598425
0
LINE
8
BLACK
6
CONTINUOUS
10
2.619724409448819
20
0.1506299212598425
11
2.6191478346456694
21
0.1492379921259842
0
LINE
8
BLACK
6
CONTINUOUS
10
2.6191478346456694
20
0.1492379921259842
11
2.6177559055118111
21
0.1486614173228346
0
LINE
8
BLACK
6
CONTINUOUS
10
2.6177559055118111
20
0.1486614173228346
11
1.0149999999999999
21
0.1486614173228346
0
LINE
8
BLACK
6
CONTINUOUS
10
1.0149999999999999
20
0.1486614173228346
11
1.0136080708661417
21
0.1492379921259842
0
LINE
8
BLACK
6
CONTINUOUS
10
1.0136080708661417
20
0.1492379921259842
11
1.013031496062992
21
0.1506299212598425
0
LINE
8
BLACK
6
CONTINUOUS
10
1.013031496062992
20
0.1506299212598425
11
1.013031496062992
21
3.2293700787401574
0
LINE
8
BLACK
6
CONTINUOUS
10
1.013031496062992
20
3.2293700787401574
11
1.0136080708661417
21
3.2307620078740156
0
LINE
8
BLACK
6
CONTINUOUS
10
1.0136080708661417
20
3.2307620078740156
11
1.0149999999999999
21
3.2313385826771652
0
LINE
8
BLACK
6
CONTINUOUS
10
1.0149999999999999
20
3.2313385826771652
11
2.6177559055118111
21
3.2313385826771652
0
LINE
8
BLACK
6
CONTINUOUS
10
1.0169685039370078
20
3.2274015748031495
11
1.0169685039370078
21
0.1525984251968504
0
LINE
8
BLACK
6
CONTINUOUS
10
1.0169685039370078
20
0.1525984251968504
11
2.6157874015748033
21
0.1525984251968504
0
LINE
8
BLACK
6
CONTINUOUS
10
2.6157874015748033
20
0.1525984251968504
11
2.6157874015748033
21
3.2274015748031495
0
LINE
8
BLACK
6
CONTINUOUS
10
2.6157874015748033
20
3.2274015748031495
11
1.0169685039370078
21
3.2274015748031495
0
LINE
8
BLACK
6
CONTINUOUS
10
3.116771653543307
20
2.4498425196850393
11
3.1181635826771652
21
2.4492659448818896
0
LINE
8
BLACK
6
CONTINUOUS
10
3.1181635826771652
20
2.4492659448818896
11
3.1187401574803149
21
2.4478740157480314
0
LINE
8
BLACK
6
CONTINUOUS
10
3.1187401574803149
20
2.4478740157480314
11
3.1187401574803149
21
2.3730708661417323
0
LINE
8
BLACK
6
CONTINUOUS
10
3.1187401574803149
20
2.3730708661417323
11
3.1181635826771652
21
2.3716789370078741
0
LINE
8
BLACK
6
CONTINUOUS
10
3.1181635826771652
20
2.3716789370078741
11
3.116771653543307
21
2.3711023622047245
0
LINE
8
BLACK
6
CONTINUOUS
10
3.116771653543307
20
2.3711023622047245
11
2.9844881889763779
21
2.3711023622047245
0
LINE
8
BLACK
6
CONTINUOUS
10
2.9844881889763779
20
2.3711023622047245
11
2.9830962598425197
21
2.3716789370078741
0
LINE
8
BLACK
6
CONTINUOUS
10
2.9830962598425197
20
2.3716789370078741
11
2.98251968503937
21
2.3730708661417323
0
LINE
8
BLACK
6
CONTINUOUS
10
2.98251968503937
20
2.3730708661417323
11
2.98251968503937
21
2.4478740157480314
0
LINE
8
BLACK
6
CONTINUOUS
10
2.98251968503937
20
2.4478740157480314
11
2.9830962598425197
21
2.4492659448818896
0
LINE
8
BLACK
6
CONTINUOUS
10
2.9830962598425197
20
2.4492659448818896
11
2.9844881889763779
21
2.4498425196850393
0
LINE
8
BLACK
6
CONTINUOUS
10
2.9844881889763779
20
2.4498425196850393
11
3.116771653543307
21
2.4498425196850393
0
LINE
8
BLACK
6
CONTINUOUS
10
2.9864566929133858
20
2.4459055118110236
11
2.9864566929133858
21
2.3750393700787402
0
LINE
8
BLACK
6
CONTINUOUS
10
2.9864566929133858
20
2.3750393700787402
11
3.1148031496062991
21
2.3750393700787402
0
LINE
8
BLACK
6
CONTINUOUS
10
3.1148031496062991
20
2.3750393700787402
11
3.1148031496062991
21
2.4459055118110236
0
LINE
8
BLACK
6
CONTINUOUS
10
3.1148031496062991
20
2.4459055118110236
11
2.9864566929133858
21
2.4459055118110236
0
LINE
8
BLACK
6
CONTINUOUS
10
4.995314960629921
20
3.2313385826771652
11
4.9967068897637796
21
3.2307620078740156
0
LINE
8
BLACK
6
CONTINUOUS
10
4.9967068897637796
20
3.2307620078740156
11
4.9972834645669293
21
3.2293700787401574
0
LINE
8
BLACK
6
CONTINUOUS
10
4.9972834645669293
20
3.2293700787401574
11
4.9972834645669293
21
0.1506299212598425
0
LINE
8
BLACK
6
CONTINUOUS
10
4.9972834645669293
20
0.1506299212598425
11
4.9967068897637796
21
0.1492379921259842
0
LINE
8
BLACK
6
CONTINUOUS
10
4.9967068897637796
20
0.1492379921259842
11
4.995314960629921
21
0.1486614173228346
0
LINE
8
BLACK
6
CONTINUOUS
10
4.995314960629921
20
0.1486614173228346
11
2.6256299212598426
21
0.1486614173228346
0
LINE
8
BLACK
6
CONTINUOUS
10
2.6256299212598426
20
0.1486614173228346
11
2.6242379921259844
21
0.1492379921259842
0
LINE
8
BLACK
6
CONTINUOUS
10
2.6242379921259844
20
0.1492379921259842
11
2.6236614173228348
21
0.1506299212598425
0
LINE
8
BLACK
6
CONTINUOUS
10
2.6236614173228348
20
0.1506299212598425
11
2.6236614173228348
21
3.2293700787401574
0
LINE
8
BLACK
6
CONTINUOUS
10
2.6236614173228348
20
3.2293700787401574
11
2.6242379921259844
21
3.2307620078740156
0
LINE
8
BLACK
6
CONTINUOUS
10
2.6242379921259844
20
3.2307620078740156
11
2.6256299212598426
21
3.2313385826771652
0
LINE
8
BLACK
6
CONTINUOUS
10
2.6256299212598426
20
3.2313385826771652
11
4.995314960629921
21
3.2313385826771652
0
LINE
8
BLACK
6
CONTINUOUS
10
2.6275984251968505
20
3.2274015748031495
11
2.6275984251968505
21
0.1525984251968504
0
LINE
8
BLACK
6
CONTINUOUS
10
2.6275984251968505
20
0.1525984251968504
11
4.9933464566929135
21
0.1525984251968504
0
LINE
8
BLACK
6
CONTINUOUS
10
4.9933464566929135
20
0.1525984251968504
11
4.9933464566929135
21
3.2274015748031495
0
LINE
8
BLACK
6
CONTINUOUS
10
4.9933464566929135
20
3.2274015748031495
11
2.6275984251968505
21
3.2274015748031495
0
LINE
8
BLACK
6
CONTINUOUS
10
5.2703149606299213
20
1.974227874015748
11
5.2717068897637791
21
1.9736512992125983
0
LINE
8
BLACK
6
CONTINUOUS
10
5.2717068897637791
20
1.9736512992125983
11
5.2722834645669288
21
1.9722593700787401
0
LINE
8
BLACK
6
CONTINUOUS
10
5.2722834645669288
20
1.9722593700787401
11
5.2722834645669288
21
1.897456220472441
0
LINE
8
BLACK
6
CONTINUOUS
10
5.2722834645669288
20
1.897456220472441
11
5.2721392913385827
21
1.8971082283464566
0
LINE
8
BLACK
6
CONTINUOUS
10
5.2721392913385827
20
1.8971082283464566
11
5.2726911417322837
21
1.8968796456692913
0
LINE
8
BLACK
6
CONTINUOUS
10
5.2726911417322837
20
1.8968796456692913
11
5.2732677165354334
21
1.8954877165354331
0
LINE
8
BLACK
6
CONTINUOUS
10
5.2732677165354334
20
1.8954877165354331
11
5.2732677165354334
21
1.8206845669291338
0
LINE
8
BLACK
6
CONTINUOUS
10
5.2732677165354334
20
1.8206845669291338
11
5.2731235433070864
21
1.8203365748031495
0
LINE
8
BLACK
6
CONTINUOUS
10
5.2731235433070864
20
1.8203365748031495
11
5.2736753937007874
21
1.8201079921259842
0
LINE
8
BLACK
6
CONTINUOUS
10
5.2736753937007874
20
1.8201079921259842
11
5.2742519685039371
21
1.818716062992126
0
LINE
8
BLACK
6
CONTINUOUS
10
5.2742519685039371
20
1.818716062992126
11
5.2742519685039371
21
1.7439129133858267
0
LINE
8
BLACK
6
CONTINUOUS
10
5.2742519685039371
20
1.7439129133858267
11
5.2741077952755901
21
1.7435649212598425
0
LINE
8
BLACK
6
CONTINUOUS
10
5.2741077952755901
20
1.7435649212598425
11
5.2746596456692911
21
1.7433363385826772
0
LINE
8
BLACK
6
CONTINUOUS
10
5.2746596456692911
20
1.7433363385826772
11
5.2752362204724408
21
1.7419444094488188
0
LINE
8
BLACK
6
CONTINUOUS
10
5.2752362204724408
20
1.7419444094488188
11
5.2752362204724408
21
1.6671412598425197
0
LINE
8
BLACK
6
CONTINUOUS
10
5.2752362204724408
20
1.6671412598425197
11
5.2746596456692911
21
1.6657493307086613
0
LINE
8
BLACK
6
CONTINUOUS
10
5.2746596456692911
20
1.6657493307086613
11
5.2732677165354334
21
1.6651727559055118
0
LINE
8
BLACK
6
CONTINUOUS
10
5.2732677165354334
20
1.6651727559055118
11
5.1409842519685034
21
1.6651727559055118
0
LINE
8
BLACK
6
CONTINUOUS
10
5.1409842519685034
20
1.6651727559055118
11
5.1395923228346456
21
1.6657493307086613
0
LINE
8
BLACK
6
CONTINUOUS
10
5.1395923228346456
20
1.6657493307086613
11
5.139015748031496
21
1.6671412598425197
0
LINE
8
BLACK
6
CONTINUOUS
10
5.139015748031496
20
1.6671412598425197
11
5.139015748031496
21
1.7419444094488188
0
LINE
8
BLACK
6
CONTINUOUS
10
5.139015748031496
20
1.7419444094488188
11
5.1391598818897632
21
1.7422924409448819
0
LINE
8
BLACK
6
CONTINUOUS
10
5.1391598818897632
20
1.7422924409448819
11
5.1386080708661419
21
1.7425209842519684
0
LINE
8
BLACK
6
CONTINUOUS
10
5.1386080708661419
20
1.7425209842519684
11
5.1380314960629923
21
1.7439129133858267
0
LINE
8
BLACK
6
CONTINUOUS
10
5.1380314960629923
20
1.7439129133858267
11
5.1380314960629923
21
1.818716062992126
0
LINE
8
BLACK
6
CONTINUOUS
10
5.1380314960629923
20
1.818716062992126
11
5.1381756299212595
21
1.8190640944881888
0
LINE
8
BLACK
6
CONTINUOUS
10
5.1381756299212595
20
1.8190640944881888
11
5.1376238188976373
21
1.8192926377952756
0
LINE
8
BLACK
6
CONTINUOUS
10
5.1376238188976373
20
1.8192926377952756
11
5.1370472440944877
21
1.8206845669291338
0
LINE
8
BLACK
6
CONTINUOUS
10
5.1370472440944877
20
1.8206845669291338
11
5.1370472440944877
21
1.8954877165354331
0
LINE
8
BLACK
6
CONTINUOUS
10
5.1370472440944877
20
1.8954877165354331
11
5.1371913779527558
21
1.895835748031496
0
LINE
8
BLACK
6
CONTINUOUS
10
5.1371913779527558
20
1.895835748031496
11
5.1366395669291336
21
1.8960642913385826
0
LINE
8
BLACK
6
CONTINUOUS
10
5.1366395669291336
20
1.8960642913385826
11
5.1360629921259839
21
1.897456220472441
0
LINE
8
BLACK
6
CONTINUOUS
10
5.1360629921259839
20
1.897456220472441
11
5.1360629921259839
21
1.9722593700787401
0
LINE
8
BLACK
6
CONTINUOUS
10
5.1360629921259839
20
1.9722593700787401
11
5.1366395669291336
21
1.9736512992125983
0
LINE
8
BLACK
6
CONTINUOUS
10
5.1366395669291336
20
1.9736512992125983
11
5.1380314960629923
21
1.974227874015748
0
LINE
8
BLACK
6
CONTINUOUS
10
5.1380314960629923
20
1.974227874015748
11
5.2703149606299213
21
1.974227874015748
0
LINE
8
BLACK
6
CONTINUOUS
10
5.1429527559055117
20
1.7399759055118109
11
5.1429527559055117
21
1.6691097637795276
0
LINE
8
BLACK
6
CONTINUOUS
10
5.1429527559055117
20
1.6691097637795276
11
5.271299212598425
21
1.6691097637795276
0
LINE
8
BLACK
6
CONTINUOUS
10
5.271299212598425
20
1.6691097637795276
11
5.271299212598425
21
1.7399759055118109
0
LINE
8
BLACK
6
CONTINUOUS
10
5.271299212598425
20
1.7399759055118109
11
5.1429527559055117
21
1.7399759055118109
0
LINE
8
BLACK
6
CONTINUOUS
10
5.141968503937008
20
1.8167475590551181
11
5.141968503937008
21
1.7458814173228345
0
LINE
8
BLACK
6
CONTINUOUS
10
5.141968503937008
20
1.7458814173228345
11
5.2703149606299213
21
1.7458814173228345
0
LINE
8
BLACK
6
CONTINUOUS
10
5.2703149606299213
20
1.7458814173228345
11
5.2703149606299213
21
1.8167475590551181
0
LINE
8
BLACK
6
CONTINUOUS
10
5.2703149606299213
20
1.8167475590551181
11
5.141968503937008
21
1.8167475590551181
0
LINE
8
BLACK
6
CONTINUOUS
10
5.1409842519685034
20
1.8935192125984253
11
5.1409842519685034
21
1.8226530708661417
0
LINE
8
BLACK
6
CONTINUOUS
10
5.1409842519685034
20
1.8226530708661417
11
5.2693307086614176
21
1.8226530708661417
0
LINE
8
BLACK
6
CONTINUOUS
10
5.2693307086614176
20
1.8226530708661417
11
5.2693307086614176
21
1.8935192125984253
0
LINE
8
BLACK
6
CONTINUOUS
10
5.2693307086614176
20
1.8935192125984253
11
5.1409842519685034
21
1.8935192125984253
0
LINE
8
BLACK
6
CONTINUOUS
10
5.1399999999999997
20
1.9702908661417322
11
5.1399999999999997
21
1.8994247244094489
0
LINE
8
BLACK
6
CONTINUOUS
10
5.1399999999999997
20
1.8994247244094489
11
5.268346456692913
21
1.8994247244094489
0
LINE
8
BLACK
6
CONTINUOUS
10
5.268346456692913
20
1.8994247244094489
11
5.268346456692913
21
1.9702908661417322
0
LINE
8
BLACK
6
CONTINUOUS
10
5.268346456692913
20
1.9702908661417322
11
5.1399999999999997
21
1.9702908661417322
0
LINE
8
BLACK
6
CONTINUOUS
10
5.2708070866141732
20
2.4506058267716533
11
5.272199015748031
21
2.4500292519685041
0
LINE
8
BLACK
6
CONTINUOUS
10
5.272199015748031
20
2.4500292519685041
11
5.2727755905511806
21
2.4486373228346454
0
LINE
8
BLACK
6
CONTINUOUS
10
5.2727755905511806
20
2.4486373228346454
11
5.2727755905511806
21
2.3738341732283463
0
LINE
8
BLACK
6
CONTINUOUS
10
5.2727755905511806
20
2.3738341732283463
11
5.2723678740157478
21
2.3728499212598426
0
LINE
8
BLACK
6
CONTINUOUS
10
5.2723678740157478
20
2.3728499212598426
11
5.2727755905511806
21
2.3718656692913385
0
LINE
8
BLACK
6
CONTINUOUS
10
5.2727755905511806
20
2.3718656692913385
11
5.2727755905511806
21
2.2970625196850394
0
LINE
8
BLACK
6
CONTINUOUS
10
5.2727755905511806
20
2.2970625196850394
11
5.272199015748031
21
2.2956705905511812
0
LINE
8
BLACK
6
CONTINUOUS
10
5.272199015748031
20
2.2956705905511812
11
5.2719951181102358
21
2.2955861417322834
0
LINE
8
BLACK
6
CONTINUOUS
10
5.2719951181102358
20
2.2955861417322834
11
5.272199015748031
21
2.2955016929133856
0
LINE
8
BLACK
6
CONTINUOUS
10
5.272199015748031
20
2.2955016929133856
11
5.2727755905511806
21
2.2941097637795274
0
LINE
8
BLACK
6
CONTINUOUS
10
5.2727755905511806
20
2.2941097637795274
11
5.2727755905511806
21
2.2193066141732283
0
LINE
8
BLACK
6
CONTINUOUS
10
5.2727755905511806
20
2.2193066141732283
11
5.2722834645669288
21
2.2181185826771652
0
LINE
8
BLACK
6
CONTINUOUS
10
5.2722834645669288
20
2.2181185826771652
11
5.2722834645669288
21
2.143519212598425
0
LINE
8
BLACK
6
CONTINUOUS
10
5.2722834645669288
20
2.143519212598425
11
5.2717068897637791
21
2.1421272834645668
0
LINE
8
BLACK
6
CONTINUOUS
10
5.2717068897637791
20
2.1421272834645668
11
5.2703149606299213
21
2.1415507086614172
0
LINE
8
BLACK
6
CONTINUOUS
10
5.2703149606299213
20
2.1415507086614172
11
5.1380314960629923
21
2.1415507086614172
0
LINE
8
BLACK
6
CONTINUOUS
10
5.1380314960629923
20
2.1415507086614172
11
5.1366395669291336
21
2.1421272834645668
0
LINE
8
BLACK
6
CONTINUOUS
10
5.1366395669291336
20
2.1421272834645668
11
5.1360629921259839
21
2.143519212598425
0
LINE
8
BLACK
6
CONTINUOUS
10
5.1360629921259839
20
2.143519212598425
11
5.1360629921259839
21
2.2183223622047246
0
LINE
8
BLACK
6
CONTINUOUS
10
5.1360629921259839
20
2.2183223622047246
11
5.1365551181102358
21
2.2195104330708659
0
LINE
8
BLACK
6
CONTINUOUS
10
5.1365551181102358
20
2.2195104330708659
11
5.1365551181102358
21
2.2941097637795274
0
LINE
8
BLACK
6
CONTINUOUS
10
5.1365551181102358
20
2.2941097637795274
11
5.1371316929133855
21
2.2955016929133856
0
LINE
8
BLACK
6
CONTINUOUS
10
5.1371316929133855
20
2.2955016929133856
11
5.1373355511811019
21
2.2955861417322834
0
LINE
8
BLACK
6
CONTINUOUS
10
5.1373355511811019
20
2.2955861417322834
11
5.1371316929133855
21
2.2956705905511812
0
LINE
8
BLACK
6
CONTINUOUS
10
5.1371316929133855
20
2.2956705905511812
11
5.1365551181102358
21
2.2970625196850394
0
LINE
8
BLACK
6
CONTINUOUS
10
5.1365551181102358
20
2.2970625196850394
11
5.1365551181102358
21
2.3718656692913385
0
LINE
8
BLACK
6
CONTINUOUS
10
5.1365551181102358
20
2.3718656692913385
11
5.1369627952755907
21
2.3728499212598426
0
LINE
8
BLACK
6
CONTINUOUS
10
5.1369627952755907
20
2.3728499212598426
11
5.1365551181102358
21
2.3738341732283463
0
LINE
8
BLACK
6
CONTINUOUS
10
5.1365551181102358
20
2.3738341732283463
11
5.1365551181102358
21
2.4486373228346454
0
LINE
8
BLACK
6
CONTINUOUS
10
5.1365551181102358
20
2.4486373228346454
11
5.1371316929133855
21
2.4500292519685041
0
LINE
8
BLACK
6
CONTINUOUS
10
5.1371316929133855
20
2.4500292519685041
11
5.1385236220472441
21
2.4506058267716533
0
LINE
8
BLACK
6
CONTINUOUS
10
5.1385236220472441
20
2.4506058267716533
11
5.2708070866141732
21
2.4506058267716533
0
LINE
8
BLACK
6
CONTINUOUS
10
5.1399999999999997
20
2.2163538582677167
11
5.1399999999999997
21
2.1454877165354329
0
LINE
8
BLACK
6
CONTINUOUS
10
5.1399999999999997
20
2.1454877165354329
11
5.268346456692913
21
2.1454877165354329
0
LINE
8
BLACK
6
CONTINUOUS
10
5.268346456692913
20
2.1454877165354329
11
5.268346456692913
21
2.2163538582677167
0
LINE
8
BLACK
6
CONTINUOUS
10
5.268346456692913
20
2.2163538582677167
11
5.1399999999999997
21
2.2163538582677167
0
LINE
8
BLACK
6
CONTINUOUS
10
5.1404921259842515
20
2.2921412598425195
11
5.1404921259842515
21
2.2212751181102361
0
LINE
8
BLACK
6
CONTINUOUS
10
5.1404921259842515
20
2.2212751181102361
11
5.2688385826771649
21
2.2212751181102361
0
LINE
8
BLACK
6
CONTINUOUS
10
5.2688385826771649
20
2.2212751181102361
11
5.2688385826771649
21
2.2921412598425195
0
LINE
8
BLACK
6
CONTINUOUS
10
5.2688385826771649
20
2.2921412598425195
11
5.1404921259842515
21
2.2921412598425195
0
LINE
8
BLACK
6
CONTINUOUS
10
5.1404921259842515
20
2.3698971653543306
11
5.1404921259842515
21
2.2990310236220473
0
LINE
8
BLACK
6
CONTINUOUS
10
5.1404921259842515
20
2.2990310236220473
11
5.2688385826771649
21
2.2990310236220473
0
LINE
8
BLACK
6
CONTINUOUS
10
5.2688385826771649
20
2.2990310236220473
11
5.2688385826771649
21
2.3698971653543306
0
LINE
8
BLACK
6
CONTINUOUS
10
5.2688385826771649
20
2.3698971653543306
11
5.1404921259842515
21
2.3698971653543306
0
LINE
8
BLACK
6
CONTINUOUS
10
5.1404921259842515
20
2.4466688188976375
11
5.1404921259842515
21
2.3758026771653542
0
LINE
8
BLACK
6
CONTINUOUS
10
5.1404921259842515
20
2.3758026771653542
11
5.2688385826771649
21
2.3758026771653542
0
LINE
8
BLACK
6
CONTINUOUS
10
5.2688385826771649
20
2.3758026771653542
11
5.2688385826771649
21
2.4466688188976375
0
LINE
8
BLACK
6
CONTINUOUS
10
5.2688385826771649
20
2.4466688188976375
11
5.1404921259842515
21
2.4466688188976375
0
LINE
8
BLACK
6
CONTINUOUS
10
5.2691338582677165
20
2.8201181102362205
11
5.2705257874015743
21
2.8195415354330708
0
LINE
8
BLACK
6
CONTINUOUS
10
5.2705257874015743
20
2.8195415354330708
11
5.2711023622047239
21
2.8181496062992126
0
LINE
8
BLACK
6
CONTINUOUS
10
5.2711023622047239
20
2.8181496062992126
11
5.2711023622047239
21
2.6858661417322836
0
LINE
8
BLACK
6
CONTINUOUS
10
5.2711023622047239
20
2.6858661417322836
11
5.2705257874015743
21
2.6844742125984253
0
LINE
8
BLACK
6
CONTINUOUS
10
5.2705257874015743
20
2.6844742125984253
11
5.2702031102362206
21
2.6843405511811023
0
LINE
8
BLACK
6
CONTINUOUS
10
5.2702031102362206
20
2.6843405511811023
11
5.2705257874015743
21
2.6842068897637796
0
LINE
8
BLACK
6
CONTINUOUS
10
5.2705257874015743
20
2.6842068897637796
11
5.2711023622047239
21
2.6828149606299214
0
LINE
8
BLACK
6
CONTINUOUS
10
5.2711023622047239
20
2.6828149606299214
11
5.2711023622047239
21
2.5505314960629919
0
LINE
8
BLACK
6
CONTINUOUS
10
5.2711023622047239
20
2.5505314960629919
11
5.2705257874015743
21
2.5491395669291337
0
LINE
8
BLACK
6
CONTINUOUS
10
5.2705257874015743
20
2.5491395669291337
11
5.2691338582677165
21
2.548562992125984
0
LINE
8
BLACK
6
CONTINUOUS
10
5.2691338582677165
20
2.548562992125984
11
5.1943307086614174
21
2.548562992125984
0
LINE
8
BLACK
6
CONTINUOUS
10
5.1943307086614174
20
2.548562992125984
11
5.1929387795275588
21
2.5491395669291337
0
LINE
8
BLACK
6
CONTINUOUS
10
5.1929387795275588
20
2.5491395669291337
11
5.1923622047244091
21
2.5505314960629919
0
LINE
8
BLACK
6
CONTINUOUS
10
5.1923622047244091
20
2.5505314960629919
11
5.1923622047244091
21
2.6828149606299214
0
LINE
8
BLACK
6
CONTINUOUS
10
5.1923622047244091
20
2.6828149606299214
11
5.1929387795275588
21
2.6842068897637796
0
LINE
8
BLACK
6
CONTINUOUS
10
5.1929387795275588
20
2.6842068897637796
11
5.1932614173228346
21
2.6843405511811023
0
LINE
8
BLACK
6
CONTINUOUS
10
5.1932614173228346
20
2.6843405511811023
11
5.1929387795275588
21
2.6844742125984253
0
LINE
8
BLACK
6
CONTINUOUS
10
5.1929387795275588
20
2.6844742125984253
11
5.1923622047244091
21
2.6858661417322836
0
LINE
8
BLACK
6
CONTINUOUS
10
5.1923622047244091
20
2.6858661417322836
11
5.1923622047244091
21
2.8181496062992126
0
LINE
8
BLACK
6
CONTINUOUS
10
5.1923622047244091
20
2.8181496062992126
11
5.1929387795275588
21
2.8195415354330708
0
LINE
8
BLACK
6
CONTINUOUS
10
5.1929387795275588
20
2.8195415354330708
11
5.1943307086614174
21
2.8201181102362205
0
LINE
8
BLACK
6
CONTINUOUS
10
5.1943307086614174
20
2.8201181102362205
11
5.2691338582677165
21
2.8201181102362205
0
LINE
8
BLACK
6
CONTINUOUS
10
5.1962992125984249
20
2.6808464566929131
11
5.1962992125984249
21
2.5524999999999998
0
LINE
8
BLACK
6
CONTINUOUS
10
5.1962992125984249
20
2.5524999999999998
11
5.2671653543307082
21
2.5524999999999998
0
LINE
8
BLACK
6
CONTINUOUS
10
5.2671653543307082
20
2.5524999999999998
11
5.2671653543307082
21
2.6808464566929131
0
LINE
8
BLACK
6
CONTINUOUS
10
5.2671653543307082
20
2.6808464566929131
11
5.1962992125984249
21
2.6808464566929131
0
LINE
8
BLACK
6
CONTINUOUS
10
5.1962992125984249
20
2.8161811023622048
11
5.1962992125984249
21
2.6878346456692914
0
LINE
8
BLACK
6
CONTINUOUS
10
5.1962992125984249
20
2.6878346456692914
11
5.2671653543307082
21
2.6878346456692914
0
LINE
8
BLACK
6
CONTINUOUS
10
5.2671653543307082
20
2.6878346456692914
11
5.2671653543307082
21
2.8161811023622048
0
LINE
8
BLACK
6
CONTINUOUS
10
5.2671653543307082
20
2.8161811023622048
11
5.1962992125984249
21
2.8161811023622048
  0
ENDSEC
  0
EOF
