<?xml version='1.0' encoding='ASCII' standalone='yes'?>
<svg xmlns:svg="http://www.w3.org/2000/svg" xmlns="http://www.w3.org/2000/svg" xmlns:xlink="http://www.w3.org/1999/xlink" version="1.1" width="297.0022mm" height="210.0072mm" viewBox="0.0000 0.0000 297.0022 210.0072">
<title>SVG Image created as BATDATUNIT01-F_Fab.svg date 2023/11/06 00:33:43 </title>
  <desc>Image generated by PCBNEW </desc>
<g style="fill:#848484; fill-opacity:1.0000;stroke:#848484; stroke-opacity:1.0000; stroke-linecap:round; stroke-linejoin:round;" transform="translate(0 0) scale(1 1)">
</g>
<g style="fill:#848484; fill-opacity:0.0;  stroke:#848484; stroke-width:0.0000; stroke-opacity:1;  stroke-linecap:round; stroke-linejoin:round;">
</g>
<g style="fill:#848484; fill-opacity:0.01;  stroke:#848484; stroke-width:0.2178; stroke-opacity:1;  stroke-linecap:round; stroke-linejoin:round;">
<g transform="rotate(-90.000000 293.7534 53.7345)">
<text x="293.7534" y="54.6058" textLength="7.0262" font-size="2.3234" lengthAdjust="spacingAndGlyphs" text-anchor="middle" opacity="0.01" style="font-family:monospace">270R</text>
</g>
<g class="stroked-text"><desc>270R</desc>
<path d="M292.9716 56.7633 L292.8887 56.6803 "/>
<path d="M292.8887 56.6803 L292.8057 56.5143 "/>
<path d="M292.8057 56.5143 L292.8057 56.0994 "/>
<path d="M292.8057 56.0994 L292.8887 55.9335 "/>
<path d="M292.8887 55.9335 L292.9716 55.8505 "/>
<path d="M292.9716 55.8505 L293.1376 55.7675 "/>
<path d="M293.1376 55.7675 L293.3036 55.7675 "/>
<path d="M293.3036 55.7675 L293.5525 55.8505 "/>
<path d="M293.5525 55.8505 L294.5482 56.8462 "/>
<path d="M294.5482 56.8462 L294.5482 55.7675 "/>
<path d="M292.8057 55.1867 L292.8057 54.0250 "/>
<path d="M292.8057 54.0250 L294.5482 54.7718 "/>
<path d="M292.8057 53.0292 L292.8057 52.8633 "/>
<path d="M292.8057 52.8633 L292.8887 52.6973 "/>
<path d="M292.8887 52.6973 L292.9716 52.6143 "/>
<path d="M292.9716 52.6143 L293.1376 52.5314 "/>
<path d="M293.1376 52.5314 L293.4695 52.4484 "/>
<path d="M293.4695 52.4484 L293.8844 52.4484 "/>
<path d="M293.8844 52.4484 L294.2163 52.5314 "/>
<path d="M294.2163 52.5314 L294.3823 52.6143 "/>
<path d="M294.3823 52.6143 L294.4653 52.6973 "/>
<path d="M294.4653 52.6973 L294.5482 52.8633 "/>
<path d="M294.5482 52.8633 L294.5482 53.0292 "/>
<path d="M294.5482 53.0292 L294.4653 53.1952 "/>
<path d="M294.4653 53.1952 L294.3823 53.2782 "/>
<path d="M294.3823 53.2782 L294.2163 53.3611 "/>
<path d="M294.2163 53.3611 L293.8844 53.4441 "/>
<path d="M293.8844 53.4441 L293.4695 53.4441 "/>
<path d="M293.4695 53.4441 L293.1376 53.3611 "/>
<path d="M293.1376 53.3611 L292.9716 53.2782 "/>
<path d="M292.9716 53.2782 L292.8887 53.1952 "/>
<path d="M292.8887 53.1952 L292.8057 53.0292 "/>
<path d="M294.5482 50.7058 L293.7184 51.2867 "/>
<path d="M294.5482 51.7016 L292.8057 51.7016 "/>
<path d="M292.8057 51.7016 L292.8057 51.0377 "/>
<path d="M292.8057 51.0377 L292.8887 50.8718 "/>
<path d="M292.8887 50.8718 L292.9716 50.7888 "/>
<path d="M292.9716 50.7888 L293.1376 50.7058 "/>
<path d="M293.1376 50.7058 L293.3865 50.7058 "/>
<path d="M293.3865 50.7058 L293.5525 50.7888 "/>
<path d="M293.5525 50.7888 L293.6355 50.8718 "/>
<path d="M293.6355 50.8718 L293.7184 51.0377 "/>
<path d="M293.7184 51.0377 L293.7184 51.7016 "/>
</g><g transform="rotate(-90.000000 290.1594 53.7345)">
<text x="290.1594" y="54.6058" textLength="5.3666" font-size="2.3234" lengthAdjust="spacingAndGlyphs" text-anchor="middle" opacity="0.01" style="font-family:monospace">R14</text>
</g>
<g class="stroked-text"><desc>R14</desc>
<path d="M290.9542 54.8548 L290.1244 55.4356 "/>
<path d="M290.9542 55.8505 L289.2117 55.8505 "/>
<path d="M289.2117 55.8505 L289.2117 55.1867 "/>
<path d="M289.2117 55.1867 L289.2947 55.0207 "/>
<path d="M289.2947 55.0207 L289.3776 54.9377 "/>
<path d="M289.3776 54.9377 L289.5436 54.8548 "/>
<path d="M289.5436 54.8548 L289.7925 54.8548 "/>
<path d="M289.7925 54.8548 L289.9585 54.9377 "/>
<path d="M289.9585 54.9377 L290.0415 55.0207 "/>
<path d="M290.0415 55.0207 L290.1244 55.1867 "/>
<path d="M290.1244 55.1867 L290.1244 55.8505 "/>
<path d="M290.9542 53.1952 L290.9542 54.1909 "/>
<path d="M290.9542 53.6931 L289.2117 53.6931 "/>
<path d="M289.2117 53.6931 L289.4606 53.8590 "/>
<path d="M289.4606 53.8590 L289.6266 54.0250 "/>
<path d="M289.6266 54.0250 L289.7095 54.1909 "/>
<path d="M289.7925 51.7016 L290.9542 51.7016 "/>
<path d="M289.1287 52.1165 L290.3734 52.5314 "/>
<path d="M290.3734 52.5314 L290.3734 51.4526 "/>
</g><g transform="rotate(-90.000000 152.4763 98.4146)">
<text x="152.4763" y="99.2859" textLength="6.1964" font-size="2.3234" lengthAdjust="spacingAndGlyphs" text-anchor="middle" opacity="0.01" style="font-family:monospace">BATT</text>
</g>
<g class="stroked-text"><desc>BATT</desc>
<path d="M152.3583 100.3646 L152.4413 100.1156 "/>
<path d="M152.4413 100.1156 L152.5243 100.0327 "/>
<path d="M152.5243 100.0327 L152.6902 99.9497 "/>
<path d="M152.6902 99.9497 L152.9392 99.9497 "/>
<path d="M152.9392 99.9497 L153.1051 100.0327 "/>
<path d="M153.1051 100.0327 L153.1881 100.1156 "/>
<path d="M153.1881 100.1156 L153.2711 100.2816 "/>
<path d="M153.2711 100.2816 L153.2711 100.9454 "/>
<path d="M153.2711 100.9454 L151.5285 100.9454 "/>
<path d="M151.5285 100.9454 L151.5285 100.3646 "/>
<path d="M151.5285 100.3646 L151.6115 100.1986 "/>
<path d="M151.6115 100.1986 L151.6945 100.1156 "/>
<path d="M151.6945 100.1156 L151.8605 100.0327 "/>
<path d="M151.8605 100.0327 L152.0264 100.0327 "/>
<path d="M152.0264 100.0327 L152.1924 100.1156 "/>
<path d="M152.1924 100.1156 L152.2754 100.1986 "/>
<path d="M152.2754 100.1986 L152.3583 100.3646 "/>
<path d="M152.3583 100.3646 L152.3583 100.9454 "/>
<path d="M152.7732 99.2859 L152.7732 98.4561 "/>
<path d="M153.2711 99.4518 L151.5285 98.8710 "/>
<path d="M151.5285 98.8710 L153.2711 98.2901 "/>
<path d="M151.5285 97.9582 L151.5285 96.9625 "/>
<path d="M153.2711 97.4603 L151.5285 97.4603 "/>
<path d="M151.5285 96.6305 L151.5285 95.6348 "/>
<path d="M153.2711 96.1327 L151.5285 96.1327 "/>
</g><text x="288.6075" y="70.9694" textLength="7.0262" font-size="2.3234" lengthAdjust="spacingAndGlyphs" text-anchor="middle" opacity="0.01" style="font-family:monospace">270R</text>
<g class="stroked-text"><desc>270R</desc>
<path d="M285.5787 69.3164 L285.6617 69.2334 "/>
<path d="M285.6617 69.2334 L285.8277 69.1504 "/>
<path d="M285.8277 69.1504 L286.2426 69.1504 "/>
<path d="M286.2426 69.1504 L286.4085 69.2334 "/>
<path d="M286.4085 69.2334 L286.4915 69.3164 "/>
<path d="M286.4915 69.3164 L286.5745 69.4823 "/>
<path d="M286.5745 69.4823 L286.5745 69.6483 "/>
<path d="M286.5745 69.6483 L286.4915 69.8972 "/>
<path d="M286.4915 69.8972 L285.4958 70.8930 "/>
<path d="M285.4958 70.8930 L286.5745 70.8930 "/>
<path d="M287.1553 69.1504 L288.3170 69.1504 "/>
<path d="M288.3170 69.1504 L287.5702 70.8930 "/>
<path d="M289.3128 69.1504 L289.4787 69.1504 "/>
<path d="M289.4787 69.1504 L289.6447 69.2334 "/>
<path d="M289.6447 69.2334 L289.7277 69.3164 "/>
<path d="M289.7277 69.3164 L289.8106 69.4823 "/>
<path d="M289.8106 69.4823 L289.8936 69.8143 "/>
<path d="M289.8936 69.8143 L289.8936 70.2292 "/>
<path d="M289.8936 70.2292 L289.8106 70.5611 "/>
<path d="M289.8106 70.5611 L289.7277 70.7270 "/>
<path d="M289.7277 70.7270 L289.6447 70.8100 "/>
<path d="M289.6447 70.8100 L289.4787 70.8930 "/>
<path d="M289.4787 70.8930 L289.3128 70.8930 "/>
<path d="M289.3128 70.8930 L289.1468 70.8100 "/>
<path d="M289.1468 70.8100 L289.0638 70.7270 "/>
<path d="M289.0638 70.7270 L288.9809 70.5611 "/>
<path d="M288.9809 70.5611 L288.8979 70.2292 "/>
<path d="M288.8979 70.2292 L288.8979 69.8143 "/>
<path d="M288.8979 69.8143 L288.9809 69.4823 "/>
<path d="M288.9809 69.4823 L289.0638 69.3164 "/>
<path d="M289.0638 69.3164 L289.1468 69.2334 "/>
<path d="M289.1468 69.2334 L289.3128 69.1504 "/>
<path d="M291.6362 70.8930 L291.0553 70.0632 "/>
<path d="M290.6404 70.8930 L290.6404 69.1504 "/>
<path d="M290.6404 69.1504 L291.3043 69.1504 "/>
<path d="M291.3043 69.1504 L291.4702 69.2334 "/>
<path d="M291.4702 69.2334 L291.5532 69.3164 "/>
<path d="M291.5532 69.3164 L291.6362 69.4823 "/>
<path d="M291.6362 69.4823 L291.6362 69.7313 "/>
<path d="M291.6362 69.7313 L291.5532 69.8972 "/>
<path d="M291.5532 69.8972 L291.4702 69.9802 "/>
<path d="M291.4702 69.9802 L291.3043 70.0632 "/>
<path d="M291.3043 70.0632 L290.6404 70.0632 "/>
</g><text x="288.6075" y="74.5635" textLength="5.3666" font-size="2.3234" lengthAdjust="spacingAndGlyphs" text-anchor="middle" opacity="0.01" style="font-family:monospace">R58</text>
<g class="stroked-text"><desc>R58</desc>
<path d="M287.4873 74.4870 L286.9064 73.6572 "/>
<path d="M286.4915 74.4870 L286.4915 72.7444 "/>
<path d="M286.4915 72.7444 L287.1553 72.7444 "/>
<path d="M287.1553 72.7444 L287.3213 72.8274 "/>
<path d="M287.3213 72.8274 L287.4043 72.9104 "/>
<path d="M287.4043 72.9104 L287.4873 73.0764 "/>
<path d="M287.4873 73.0764 L287.4873 73.3253 "/>
<path d="M287.4873 73.3253 L287.4043 73.4912 "/>
<path d="M287.4043 73.4912 L287.3213 73.5742 "/>
<path d="M287.3213 73.5742 L287.1553 73.6572 "/>
<path d="M287.1553 73.6572 L286.4915 73.6572 "/>
<path d="M289.0638 72.7444 L288.2341 72.7444 "/>
<path d="M288.2341 72.7444 L288.1511 73.5742 "/>
<path d="M288.1511 73.5742 L288.2341 73.4912 "/>
<path d="M288.2341 73.4912 L288.4000 73.4083 "/>
<path d="M288.4000 73.4083 L288.8149 73.4083 "/>
<path d="M288.8149 73.4083 L288.9809 73.4912 "/>
<path d="M288.9809 73.4912 L289.0638 73.5742 "/>
<path d="M289.0638 73.5742 L289.1468 73.7402 "/>
<path d="M289.1468 73.7402 L289.1468 74.1551 "/>
<path d="M289.1468 74.1551 L289.0638 74.3210 "/>
<path d="M289.0638 74.3210 L288.9809 74.4040 "/>
<path d="M288.9809 74.4040 L288.8149 74.4870 "/>
<path d="M288.8149 74.4870 L288.4000 74.4870 "/>
<path d="M288.4000 74.4870 L288.2341 74.4040 "/>
<path d="M288.2341 74.4040 L288.1511 74.3210 "/>
<path d="M290.1426 73.4912 L289.9766 73.4083 "/>
<path d="M289.9766 73.4083 L289.8936 73.3253 "/>
<path d="M289.8936 73.3253 L289.8106 73.1593 "/>
<path d="M289.8106 73.1593 L289.8106 73.0764 "/>
<path d="M289.8106 73.0764 L289.8936 72.9104 "/>
<path d="M289.8936 72.9104 L289.9766 72.8274 "/>
<path d="M289.9766 72.8274 L290.1426 72.7444 "/>
<path d="M290.1426 72.7444 L290.4745 72.7444 "/>
<path d="M290.4745 72.7444 L290.6404 72.8274 "/>
<path d="M290.6404 72.8274 L290.7234 72.9104 "/>
<path d="M290.7234 72.9104 L290.8064 73.0764 "/>
<path d="M290.8064 73.0764 L290.8064 73.1593 "/>
<path d="M290.8064 73.1593 L290.7234 73.3253 "/>
<path d="M290.7234 73.3253 L290.6404 73.4083 "/>
<path d="M290.6404 73.4083 L290.4745 73.4912 "/>
<path d="M290.4745 73.4912 L290.1426 73.4912 "/>
<path d="M290.1426 73.4912 L289.9766 73.5742 "/>
<path d="M289.9766 73.5742 L289.8936 73.6572 "/>
<path d="M289.8936 73.6572 L289.8106 73.8232 "/>
<path d="M289.8106 73.8232 L289.8106 74.1551 "/>
<path d="M289.8106 74.1551 L289.8936 74.3210 "/>
<path d="M289.8936 74.3210 L289.9766 74.4040 "/>
<path d="M289.9766 74.4040 L290.1426 74.4870 "/>
<path d="M290.1426 74.4870 L290.4745 74.4870 "/>
<path d="M290.4745 74.4870 L290.6404 74.4040 "/>
<path d="M290.6404 74.4040 L290.7234 74.3210 "/>
<path d="M290.7234 74.3210 L290.8064 74.1551 "/>
<path d="M290.8064 74.1551 L290.8064 73.8232 "/>
<path d="M290.8064 73.8232 L290.7234 73.6572 "/>
<path d="M290.7234 73.6572 L290.6404 73.5742 "/>
<path d="M290.6404 73.5742 L290.4745 73.4912 "/>
</g><text x="288.6891" y="97.2710" textLength="7.0262" font-size="2.3234" lengthAdjust="spacingAndGlyphs" text-anchor="middle" opacity="0.01" style="font-family:monospace">270R</text>
<g class="stroked-text"><desc>270R</desc>
<path d="M285.6604 95.6180 L285.7434 95.5350 "/>
<path d="M285.7434 95.5350 L285.9094 95.4520 "/>
<path d="M285.9094 95.4520 L286.3243 95.4520 "/>
<path d="M286.3243 95.4520 L286.4902 95.5350 "/>
<path d="M286.4902 95.5350 L286.5732 95.6180 "/>
<path d="M286.5732 95.6180 L286.6562 95.7839 "/>
<path d="M286.6562 95.7839 L286.6562 95.9499 "/>
<path d="M286.6562 95.9499 L286.5732 96.1988 "/>
<path d="M286.5732 96.1988 L285.5774 97.1946 "/>
<path d="M285.5774 97.1946 L286.6562 97.1946 "/>
<path d="M287.2370 95.4520 L288.3987 95.4520 "/>
<path d="M288.3987 95.4520 L287.6519 97.1946 "/>
<path d="M289.3945 95.4520 L289.5604 95.4520 "/>
<path d="M289.5604 95.4520 L289.7264 95.5350 "/>
<path d="M289.7264 95.5350 L289.8094 95.6180 "/>
<path d="M289.8094 95.6180 L289.8923 95.7839 "/>
<path d="M289.8923 95.7839 L289.9753 96.1159 "/>
<path d="M289.9753 96.1159 L289.9753 96.5307 "/>
<path d="M289.9753 96.5307 L289.8923 96.8627 "/>
<path d="M289.8923 96.8627 L289.8094 97.0286 "/>
<path d="M289.8094 97.0286 L289.7264 97.1116 "/>
<path d="M289.7264 97.1116 L289.5604 97.1946 "/>
<path d="M289.5604 97.1946 L289.3945 97.1946 "/>
<path d="M289.3945 97.1946 L289.2285 97.1116 "/>
<path d="M289.2285 97.1116 L289.1455 97.0286 "/>
<path d="M289.1455 97.0286 L289.0625 96.8627 "/>
<path d="M289.0625 96.8627 L288.9796 96.5307 "/>
<path d="M288.9796 96.5307 L288.9796 96.1159 "/>
<path d="M288.9796 96.1159 L289.0625 95.7839 "/>
<path d="M289.0625 95.7839 L289.1455 95.6180 "/>
<path d="M289.1455 95.6180 L289.2285 95.5350 "/>
<path d="M289.2285 95.5350 L289.3945 95.4520 "/>
<path d="M291.7179 97.1946 L291.1370 96.3648 "/>
<path d="M290.7221 97.1946 L290.7221 95.4520 "/>
<path d="M290.7221 95.4520 L291.3859 95.4520 "/>
<path d="M291.3859 95.4520 L291.5519 95.5350 "/>
<path d="M291.5519 95.5350 L291.6349 95.6180 "/>
<path d="M291.6349 95.6180 L291.7179 95.7839 "/>
<path d="M291.7179 95.7839 L291.7179 96.0329 "/>
<path d="M291.7179 96.0329 L291.6349 96.1988 "/>
<path d="M291.6349 96.1988 L291.5519 96.2818 "/>
<path d="M291.5519 96.2818 L291.3859 96.3648 "/>
<path d="M291.3859 96.3648 L290.7221 96.3648 "/>
</g><text x="288.6891" y="100.8650" textLength="5.3666" font-size="2.3234" lengthAdjust="spacingAndGlyphs" text-anchor="middle" opacity="0.01" style="font-family:monospace">R54</text>
<g class="stroked-text"><desc>R54</desc>
<path d="M287.5689 100.7886 L286.9881 99.9588 "/>
<path d="M286.5732 100.7886 L286.5732 99.0460 "/>
<path d="M286.5732 99.0460 L287.2370 99.0460 "/>
<path d="M287.2370 99.0460 L287.4030 99.1290 "/>
<path d="M287.4030 99.1290 L287.4860 99.2120 "/>
<path d="M287.4860 99.2120 L287.5689 99.3779 "/>
<path d="M287.5689 99.3779 L287.5689 99.6269 "/>
<path d="M287.5689 99.6269 L287.4860 99.7928 "/>
<path d="M287.4860 99.7928 L287.4030 99.8758 "/>
<path d="M287.4030 99.8758 L287.2370 99.9588 "/>
<path d="M287.2370 99.9588 L286.5732 99.9588 "/>
<path d="M289.1455 99.0460 L288.3157 99.0460 "/>
<path d="M288.3157 99.0460 L288.2328 99.8758 "/>
<path d="M288.2328 99.8758 L288.3157 99.7928 "/>
<path d="M288.3157 99.7928 L288.4817 99.7099 "/>
<path d="M288.4817 99.7099 L288.8966 99.7099 "/>
<path d="M288.8966 99.7099 L289.0625 99.7928 "/>
<path d="M289.0625 99.7928 L289.1455 99.8758 "/>
<path d="M289.1455 99.8758 L289.2285 100.0418 "/>
<path d="M289.2285 100.0418 L289.2285 100.4567 "/>
<path d="M289.2285 100.4567 L289.1455 100.6226 "/>
<path d="M289.1455 100.6226 L289.0625 100.7056 "/>
<path d="M289.0625 100.7056 L288.8966 100.7886 "/>
<path d="M288.8966 100.7886 L288.4817 100.7886 "/>
<path d="M288.4817 100.7886 L288.3157 100.7056 "/>
<path d="M288.3157 100.7056 L288.2328 100.6226 "/>
<path d="M290.7221 99.6269 L290.7221 100.7886 "/>
<path d="M290.3072 98.9631 L289.8923 100.2077 "/>
<path d="M289.8923 100.2077 L290.9711 100.2077 "/>
</g><text x="288.6075" y="62.4201" textLength="7.0262" font-size="2.3234" lengthAdjust="spacingAndGlyphs" text-anchor="middle" opacity="0.01" style="font-family:monospace">270R</text>
<g class="stroked-text"><desc>270R</desc>
<path d="M285.5787 60.7670 L285.6617 60.6840 "/>
<path d="M285.6617 60.6840 L285.8277 60.6011 "/>
<path d="M285.8277 60.6011 L286.2426 60.6011 "/>
<path d="M286.2426 60.6011 L286.4085 60.6840 "/>
<path d="M286.4085 60.6840 L286.4915 60.7670 "/>
<path d="M286.4915 60.7670 L286.5745 60.9330 "/>
<path d="M286.5745 60.9330 L286.5745 61.0989 "/>
<path d="M286.5745 61.0989 L286.4915 61.3479 "/>
<path d="M286.4915 61.3479 L285.4958 62.3436 "/>
<path d="M285.4958 62.3436 L286.5745 62.3436 "/>
<path d="M287.1553 60.6011 L288.3170 60.6011 "/>
<path d="M288.3170 60.6011 L287.5702 62.3436 "/>
<path d="M289.3128 60.6011 L289.4787 60.6011 "/>
<path d="M289.4787 60.6011 L289.6447 60.6840 "/>
<path d="M289.6447 60.6840 L289.7277 60.7670 "/>
<path d="M289.7277 60.7670 L289.8106 60.9330 "/>
<path d="M289.8106 60.9330 L289.8936 61.2649 "/>
<path d="M289.8936 61.2649 L289.8936 61.6798 "/>
<path d="M289.8936 61.6798 L289.8106 62.0117 "/>
<path d="M289.8106 62.0117 L289.7277 62.1776 "/>
<path d="M289.7277 62.1776 L289.6447 62.2606 "/>
<path d="M289.6447 62.2606 L289.4787 62.3436 "/>
<path d="M289.4787 62.3436 L289.3128 62.3436 "/>
<path d="M289.3128 62.3436 L289.1468 62.2606 "/>
<path d="M289.1468 62.2606 L289.0638 62.1776 "/>
<path d="M289.0638 62.1776 L288.9809 62.0117 "/>
<path d="M288.9809 62.0117 L288.8979 61.6798 "/>
<path d="M288.8979 61.6798 L288.8979 61.2649 "/>
<path d="M288.8979 61.2649 L288.9809 60.9330 "/>
<path d="M288.9809 60.9330 L289.0638 60.7670 "/>
<path d="M289.0638 60.7670 L289.1468 60.6840 "/>
<path d="M289.1468 60.6840 L289.3128 60.6011 "/>
<path d="M291.6362 62.3436 L291.0553 61.5138 "/>
<path d="M290.6404 62.3436 L290.6404 60.6011 "/>
<path d="M290.6404 60.6011 L291.3043 60.6011 "/>
<path d="M291.3043 60.6011 L291.4702 60.6840 "/>
<path d="M291.4702 60.6840 L291.5532 60.7670 "/>
<path d="M291.5532 60.7670 L291.6362 60.9330 "/>
<path d="M291.6362 60.9330 L291.6362 61.1819 "/>
<path d="M291.6362 61.1819 L291.5532 61.3479 "/>
<path d="M291.5532 61.3479 L291.4702 61.4308 "/>
<path d="M291.4702 61.4308 L291.3043 61.5138 "/>
<path d="M291.3043 61.5138 L290.6404 61.5138 "/>
</g><text x="288.6075" y="66.0141" textLength="5.3666" font-size="2.3234" lengthAdjust="spacingAndGlyphs" text-anchor="middle" opacity="0.01" style="font-family:monospace">R60</text>
<g class="stroked-text"><desc>R60</desc>
<path d="M287.4873 65.9376 L286.9064 65.1078 "/>
<path d="M286.4915 65.9376 L286.4915 64.1951 "/>
<path d="M286.4915 64.1951 L287.1553 64.1951 "/>
<path d="M287.1553 64.1951 L287.3213 64.2780 "/>
<path d="M287.3213 64.2780 L287.4043 64.3610 "/>
<path d="M287.4043 64.3610 L287.4873 64.5270 "/>
<path d="M287.4873 64.5270 L287.4873 64.7759 "/>
<path d="M287.4873 64.7759 L287.4043 64.9419 "/>
<path d="M287.4043 64.9419 L287.3213 65.0248 "/>
<path d="M287.3213 65.0248 L287.1553 65.1078 "/>
<path d="M287.1553 65.1078 L286.4915 65.1078 "/>
<path d="M288.9809 64.1951 L288.6489 64.1951 "/>
<path d="M288.6489 64.1951 L288.4830 64.2780 "/>
<path d="M288.4830 64.2780 L288.4000 64.3610 "/>
<path d="M288.4000 64.3610 L288.2341 64.6100 "/>
<path d="M288.2341 64.6100 L288.1511 64.9419 "/>
<path d="M288.1511 64.9419 L288.1511 65.6057 "/>
<path d="M288.1511 65.6057 L288.2341 65.7716 "/>
<path d="M288.2341 65.7716 L288.3170 65.8546 "/>
<path d="M288.3170 65.8546 L288.4830 65.9376 "/>
<path d="M288.4830 65.9376 L288.8149 65.9376 "/>
<path d="M288.8149 65.9376 L288.9809 65.8546 "/>
<path d="M288.9809 65.8546 L289.0638 65.7716 "/>
<path d="M289.0638 65.7716 L289.1468 65.6057 "/>
<path d="M289.1468 65.6057 L289.1468 65.1908 "/>
<path d="M289.1468 65.1908 L289.0638 65.0248 "/>
<path d="M289.0638 65.0248 L288.9809 64.9419 "/>
<path d="M288.9809 64.9419 L288.8149 64.8589 "/>
<path d="M288.8149 64.8589 L288.4830 64.8589 "/>
<path d="M288.4830 64.8589 L288.3170 64.9419 "/>
<path d="M288.3170 64.9419 L288.2341 65.0248 "/>
<path d="M288.2341 65.0248 L288.1511 65.1908 "/>
<path d="M290.2255 64.1951 L290.3915 64.1951 "/>
<path d="M290.3915 64.1951 L290.5575 64.2780 "/>
<path d="M290.5575 64.2780 L290.6404 64.3610 "/>
<path d="M290.6404 64.3610 L290.7234 64.5270 "/>
<path d="M290.7234 64.5270 L290.8064 64.8589 "/>
<path d="M290.8064 64.8589 L290.8064 65.2738 "/>
<path d="M290.8064 65.2738 L290.7234 65.6057 "/>
<path d="M290.7234 65.6057 L290.6404 65.7716 "/>
<path d="M290.6404 65.7716 L290.5575 65.8546 "/>
<path d="M290.5575 65.8546 L290.3915 65.9376 "/>
<path d="M290.3915 65.9376 L290.2255 65.9376 "/>
<path d="M290.2255 65.9376 L290.0596 65.8546 "/>
<path d="M290.0596 65.8546 L289.9766 65.7716 "/>
<path d="M289.9766 65.7716 L289.8936 65.6057 "/>
<path d="M289.8936 65.6057 L289.8106 65.2738 "/>
<path d="M289.8106 65.2738 L289.8106 64.8589 "/>
<path d="M289.8106 64.8589 L289.8936 64.5270 "/>
<path d="M289.8936 64.5270 L289.9766 64.3610 "/>
<path d="M289.9766 64.3610 L290.0596 64.2780 "/>
<path d="M290.0596 64.2780 L290.2255 64.1951 "/>
</g><g transform="rotate(-270.000000 286.6743 43.5788)">
<text x="286.6743" y="44.4500" textLength="3.7071" font-size="2.3234" lengthAdjust="spacingAndGlyphs" text-anchor="middle" opacity="0.01" style="font-family:monospace">D2</text>
</g>
<g class="stroked-text"><desc>D2</desc>
<path d="M285.8795 42.2926 L287.6221 42.2926 "/>
<path d="M287.6221 42.2926 L287.6221 42.7075 "/>
<path d="M287.6221 42.7075 L287.5391 42.9564 "/>
<path d="M287.5391 42.9564 L287.3731 43.1224 "/>
<path d="M287.3731 43.1224 L287.2072 43.2054 "/>
<path d="M287.2072 43.2054 L286.8753 43.2883 "/>
<path d="M286.8753 43.2883 L286.6263 43.2883 "/>
<path d="M286.6263 43.2883 L286.2944 43.2054 "/>
<path d="M286.2944 43.2054 L286.1284 43.1224 "/>
<path d="M286.1284 43.1224 L285.9625 42.9564 "/>
<path d="M285.9625 42.9564 L285.8795 42.7075 "/>
<path d="M285.8795 42.7075 L285.8795 42.2926 "/>
<path d="M287.4561 43.9522 L287.5391 44.0351 "/>
<path d="M287.5391 44.0351 L287.6221 44.2011 "/>
<path d="M287.6221 44.2011 L287.6221 44.6160 "/>
<path d="M287.6221 44.6160 L287.5391 44.7819 "/>
<path d="M287.5391 44.7819 L287.4561 44.8649 "/>
<path d="M287.4561 44.8649 L287.2901 44.9479 "/>
<path d="M287.2901 44.9479 L287.1242 44.9479 "/>
<path d="M287.1242 44.9479 L286.8753 44.8649 "/>
<path d="M286.8753 44.8649 L285.8795 43.8692 "/>
<path d="M285.8795 43.8692 L285.8795 44.9479 "/>
</g><text x="168.9978" y="69.6081" textLength="11.2581" font-size="2.3234" lengthAdjust="spacingAndGlyphs" text-anchor="middle" opacity="0.01" style="font-family:monospace">10k NTC</text>
<g class="stroked-text"><desc>10k NTC</desc>
<path d="M164.8489 69.5316 L163.8532 69.5316 "/>
<path d="M164.3510 69.5316 L164.3510 67.7891 "/>
<path d="M164.3510 67.7891 L164.1851 68.0380 "/>
<path d="M164.1851 68.0380 L164.0191 68.2040 "/>
<path d="M164.0191 68.2040 L163.8532 68.2869 "/>
<path d="M165.9276 67.7891 L166.0936 67.7891 "/>
<path d="M166.0936 67.7891 L166.2595 67.8720 "/>
<path d="M166.2595 67.8720 L166.3425 67.9550 "/>
<path d="M166.3425 67.9550 L166.4255 68.1210 "/>
<path d="M166.4255 68.1210 L166.5085 68.4529 "/>
<path d="M166.5085 68.4529 L166.5085 68.8678 "/>
<path d="M166.5085 68.8678 L166.4255 69.1997 "/>
<path d="M166.4255 69.1997 L166.3425 69.3657 "/>
<path d="M166.3425 69.3657 L166.2595 69.4486 "/>
<path d="M166.2595 69.4486 L166.0936 69.5316 "/>
<path d="M166.0936 69.5316 L165.9276 69.5316 "/>
<path d="M165.9276 69.5316 L165.7617 69.4486 "/>
<path d="M165.7617 69.4486 L165.6787 69.3657 "/>
<path d="M165.6787 69.3657 L165.5957 69.1997 "/>
<path d="M165.5957 69.1997 L165.5127 68.8678 "/>
<path d="M165.5127 68.8678 L165.5127 68.4529 "/>
<path d="M165.5127 68.4529 L165.5957 68.1210 "/>
<path d="M165.5957 68.1210 L165.6787 67.9550 "/>
<path d="M165.6787 67.9550 L165.7617 67.8720 "/>
<path d="M165.7617 67.8720 L165.9276 67.7891 "/>
<path d="M167.2553 69.5316 L167.2553 67.7891 "/>
<path d="M167.4212 68.8678 L167.9191 69.5316 "/>
<path d="M167.9191 68.3699 L167.2553 69.0337 "/>
<path d="M169.9936 69.5316 L169.9936 67.7891 "/>
<path d="M169.9936 67.7891 L170.9893 69.5316 "/>
<path d="M170.9893 69.5316 L170.9893 67.7891 "/>
<path d="M171.5702 67.7891 L172.5659 67.7891 "/>
<path d="M172.0680 69.5316 L172.0680 67.7891 "/>
<path d="M174.1425 69.3657 L174.0595 69.4486 "/>
<path d="M174.0595 69.4486 L173.8106 69.5316 "/>
<path d="M173.8106 69.5316 L173.6446 69.5316 "/>
<path d="M173.6446 69.5316 L173.3957 69.4486 "/>
<path d="M173.3957 69.4486 L173.2297 69.2827 "/>
<path d="M173.2297 69.2827 L173.1468 69.1167 "/>
<path d="M173.1468 69.1167 L173.0638 68.7848 "/>
<path d="M173.0638 68.7848 L173.0638 68.5359 "/>
<path d="M173.0638 68.5359 L173.1468 68.2040 "/>
<path d="M173.1468 68.2040 L173.2297 68.0380 "/>
<path d="M173.2297 68.0380 L173.3957 67.8720 "/>
<path d="M173.3957 67.8720 L173.6446 67.7891 "/>
<path d="M173.6446 67.7891 L173.8106 67.7891 "/>
<path d="M173.8106 67.7891 L174.0595 67.8720 "/>
<path d="M174.0595 67.8720 L174.1425 67.9550 "/>
</g><text x="168.9978" y="66.0141" textLength="5.1177" font-size="2.3234" lengthAdjust="spacingAndGlyphs" text-anchor="middle" opacity="0.01" style="font-family:monospace">TH2</text>
<g class="stroked-text"><desc>TH2</desc>
<path d="M166.7574 64.1951 L167.7532 64.1951 "/>
<path d="M167.2553 65.9376 L167.2553 64.1951 "/>
<path d="M168.3340 65.9376 L168.3340 64.1951 "/>
<path d="M168.3340 65.0248 L169.3297 65.0248 "/>
<path d="M169.3297 65.9376 L169.3297 64.1951 "/>
<path d="M170.0765 64.3610 L170.1595 64.2780 "/>
<path d="M170.1595 64.2780 L170.3255 64.1951 "/>
<path d="M170.3255 64.1951 L170.7404 64.1951 "/>
<path d="M170.7404 64.1951 L170.9063 64.2780 "/>
<path d="M170.9063 64.2780 L170.9893 64.3610 "/>
<path d="M170.9893 64.3610 L171.0723 64.5270 "/>
<path d="M171.0723 64.5270 L171.0723 64.6929 "/>
<path d="M171.0723 64.6929 L170.9893 64.9419 "/>
<path d="M170.9893 64.9419 L169.9936 65.9376 "/>
<path d="M169.9936 65.9376 L171.0723 65.9376 "/>
</g><text x="121.9490" y="62.4201" textLength="11.2581" font-size="2.3234" lengthAdjust="spacingAndGlyphs" text-anchor="middle" opacity="0.01" style="font-family:monospace">10k NTC</text>
<g class="stroked-text"><desc>10k NTC</desc>
<path d="M117.8001 62.3436 L116.8043 62.3436 "/>
<path d="M117.3022 62.3436 L117.3022 60.6011 "/>
<path d="M117.3022 60.6011 L117.1363 60.8500 "/>
<path d="M117.1363 60.8500 L116.9703 61.0159 "/>
<path d="M116.9703 61.0159 L116.8043 61.0989 "/>
<path d="M118.8788 60.6011 L119.0448 60.6011 "/>
<path d="M119.0448 60.6011 L119.2107 60.6840 "/>
<path d="M119.2107 60.6840 L119.2937 60.7670 "/>
<path d="M119.2937 60.7670 L119.3767 60.9330 "/>
<path d="M119.3767 60.9330 L119.4597 61.2649 "/>
<path d="M119.4597 61.2649 L119.4597 61.6798 "/>
<path d="M119.4597 61.6798 L119.3767 62.0117 "/>
<path d="M119.3767 62.0117 L119.2937 62.1776 "/>
<path d="M119.2937 62.1776 L119.2107 62.2606 "/>
<path d="M119.2107 62.2606 L119.0448 62.3436 "/>
<path d="M119.0448 62.3436 L118.8788 62.3436 "/>
<path d="M118.8788 62.3436 L118.7129 62.2606 "/>
<path d="M118.7129 62.2606 L118.6299 62.1776 "/>
<path d="M118.6299 62.1776 L118.5469 62.0117 "/>
<path d="M118.5469 62.0117 L118.4639 61.6798 "/>
<path d="M118.4639 61.6798 L118.4639 61.2649 "/>
<path d="M118.4639 61.2649 L118.5469 60.9330 "/>
<path d="M118.5469 60.9330 L118.6299 60.7670 "/>
<path d="M118.6299 60.7670 L118.7129 60.6840 "/>
<path d="M118.7129 60.6840 L118.8788 60.6011 "/>
<path d="M120.2065 62.3436 L120.2065 60.6011 "/>
<path d="M120.3724 61.6798 L120.8703 62.3436 "/>
<path d="M120.8703 61.1819 L120.2065 61.8457 "/>
<path d="M122.9448 62.3436 L122.9448 60.6011 "/>
<path d="M122.9448 60.6011 L123.9405 62.3436 "/>
<path d="M123.9405 62.3436 L123.9405 60.6011 "/>
<path d="M124.5213 60.6011 L125.5171 60.6011 "/>
<path d="M125.0192 62.3436 L125.0192 60.6011 "/>
<path d="M127.0937 62.1776 L127.0107 62.2606 "/>
<path d="M127.0107 62.2606 L126.7618 62.3436 "/>
<path d="M126.7618 62.3436 L126.5958 62.3436 "/>
<path d="M126.5958 62.3436 L126.3469 62.2606 "/>
<path d="M126.3469 62.2606 L126.1809 62.0947 "/>
<path d="M126.1809 62.0947 L126.0979 61.9287 "/>
<path d="M126.0979 61.9287 L126.0150 61.5968 "/>
<path d="M126.0150 61.5968 L126.0150 61.3479 "/>
<path d="M126.0150 61.3479 L126.0979 61.0159 "/>
<path d="M126.0979 61.0159 L126.1809 60.8500 "/>
<path d="M126.1809 60.8500 L126.3469 60.6840 "/>
<path d="M126.3469 60.6840 L126.5958 60.6011 "/>
<path d="M126.5958 60.6011 L126.7618 60.6011 "/>
<path d="M126.7618 60.6011 L127.0107 60.6840 "/>
<path d="M127.0107 60.6840 L127.0937 60.7670 "/>
</g><text x="121.9490" y="66.0141" textLength="5.1177" font-size="2.3234" lengthAdjust="spacingAndGlyphs" text-anchor="middle" opacity="0.01" style="font-family:monospace">TH1</text>
<g class="stroked-text"><desc>TH1</desc>
<path d="M119.7086 64.1951 L120.7043 64.1951 "/>
<path d="M120.2065 65.9376 L120.2065 64.1951 "/>
<path d="M121.2852 65.9376 L121.2852 64.1951 "/>
<path d="M121.2852 65.0248 L122.2809 65.0248 "/>
<path d="M122.2809 65.9376 L122.2809 64.1951 "/>
<path d="M124.0235 65.9376 L123.0277 65.9376 "/>
<path d="M123.5256 65.9376 L123.5256 64.1951 "/>
<path d="M123.5256 64.1951 L123.3596 64.4440 "/>
<path d="M123.3596 64.4440 L123.1937 64.6100 "/>
<path d="M123.1937 64.6100 L123.0277 64.6929 "/>
</g><text x="288.5802" y="88.7761" textLength="7.0262" font-size="2.3234" lengthAdjust="spacingAndGlyphs" text-anchor="middle" opacity="0.01" style="font-family:monospace">270R</text>
<g class="stroked-text"><desc>270R</desc>
<path d="M285.5515 87.1231 L285.6345 87.0401 "/>
<path d="M285.6345 87.0401 L285.8005 86.9571 "/>
<path d="M285.8005 86.9571 L286.2153 86.9571 "/>
<path d="M286.2153 86.9571 L286.3813 87.0401 "/>
<path d="M286.3813 87.0401 L286.4643 87.1231 "/>
<path d="M286.4643 87.1231 L286.5473 87.2890 "/>
<path d="M286.5473 87.2890 L286.5473 87.4550 "/>
<path d="M286.5473 87.4550 L286.4643 87.7039 "/>
<path d="M286.4643 87.7039 L285.4685 88.6996 "/>
<path d="M285.4685 88.6996 L286.5473 88.6996 "/>
<path d="M287.1281 86.9571 L288.2898 86.9571 "/>
<path d="M288.2898 86.9571 L287.5430 88.6996 "/>
<path d="M289.2856 86.9571 L289.4515 86.9571 "/>
<path d="M289.4515 86.9571 L289.6175 87.0401 "/>
<path d="M289.6175 87.0401 L289.7004 87.1231 "/>
<path d="M289.7004 87.1231 L289.7834 87.2890 "/>
<path d="M289.7834 87.2890 L289.8664 87.6209 "/>
<path d="M289.8664 87.6209 L289.8664 88.0358 "/>
<path d="M289.8664 88.0358 L289.7834 88.3677 "/>
<path d="M289.7834 88.3677 L289.7004 88.5337 "/>
<path d="M289.7004 88.5337 L289.6175 88.6167 "/>
<path d="M289.6175 88.6167 L289.4515 88.6996 "/>
<path d="M289.4515 88.6996 L289.2856 88.6996 "/>
<path d="M289.2856 88.6996 L289.1196 88.6167 "/>
<path d="M289.1196 88.6167 L289.0366 88.5337 "/>
<path d="M289.0366 88.5337 L288.9536 88.3677 "/>
<path d="M288.9536 88.3677 L288.8707 88.0358 "/>
<path d="M288.8707 88.0358 L288.8707 87.6209 "/>
<path d="M288.8707 87.6209 L288.9536 87.2890 "/>
<path d="M288.9536 87.2890 L289.0366 87.1231 "/>
<path d="M289.0366 87.1231 L289.1196 87.0401 "/>
<path d="M289.1196 87.0401 L289.2856 86.9571 "/>
<path d="M291.6090 88.6996 L291.0281 87.8699 "/>
<path d="M290.6132 88.6996 L290.6132 86.9571 "/>
<path d="M290.6132 86.9571 L291.2770 86.9571 "/>
<path d="M291.2770 86.9571 L291.4430 87.0401 "/>
<path d="M291.4430 87.0401 L291.5260 87.1231 "/>
<path d="M291.5260 87.1231 L291.6090 87.2890 "/>
<path d="M291.6090 87.2890 L291.6090 87.5379 "/>
<path d="M291.6090 87.5379 L291.5260 87.7039 "/>
<path d="M291.5260 87.7039 L291.4430 87.7869 "/>
<path d="M291.4430 87.7869 L291.2770 87.8699 "/>
<path d="M291.2770 87.8699 L290.6132 87.8699 "/>
</g><text x="288.5802" y="92.3701" textLength="5.3666" font-size="2.3234" lengthAdjust="spacingAndGlyphs" text-anchor="middle" opacity="0.01" style="font-family:monospace">R56</text>
<g class="stroked-text"><desc>R56</desc>
<path d="M287.4600 92.2937 L286.8792 91.4639 "/>
<path d="M286.4643 92.2937 L286.4643 90.5511 "/>
<path d="M286.4643 90.5511 L287.1281 90.5511 "/>
<path d="M287.1281 90.5511 L287.2941 90.6341 "/>
<path d="M287.2941 90.6341 L287.3770 90.7171 "/>
<path d="M287.3770 90.7171 L287.4600 90.8830 "/>
<path d="M287.4600 90.8830 L287.4600 91.1320 "/>
<path d="M287.4600 91.1320 L287.3770 91.2979 "/>
<path d="M287.3770 91.2979 L287.2941 91.3809 "/>
<path d="M287.2941 91.3809 L287.1281 91.4639 "/>
<path d="M287.1281 91.4639 L286.4643 91.4639 "/>
<path d="M289.0366 90.5511 L288.2068 90.5511 "/>
<path d="M288.2068 90.5511 L288.1238 91.3809 "/>
<path d="M288.1238 91.3809 L288.2068 91.2979 "/>
<path d="M288.2068 91.2979 L288.3728 91.2149 "/>
<path d="M288.3728 91.2149 L288.7877 91.2149 "/>
<path d="M288.7877 91.2149 L288.9536 91.2979 "/>
<path d="M288.9536 91.2979 L289.0366 91.3809 "/>
<path d="M289.0366 91.3809 L289.1196 91.5468 "/>
<path d="M289.1196 91.5468 L289.1196 91.9617 "/>
<path d="M289.1196 91.9617 L289.0366 92.1277 "/>
<path d="M289.0366 92.1277 L288.9536 92.2107 "/>
<path d="M288.9536 92.2107 L288.7877 92.2937 "/>
<path d="M288.7877 92.2937 L288.3728 92.2937 "/>
<path d="M288.3728 92.2937 L288.2068 92.2107 "/>
<path d="M288.2068 92.2107 L288.1238 92.1277 "/>
<path d="M290.6132 90.5511 L290.2813 90.5511 "/>
<path d="M290.2813 90.5511 L290.1153 90.6341 "/>
<path d="M290.1153 90.6341 L290.0324 90.7171 "/>
<path d="M290.0324 90.7171 L289.8664 90.9660 "/>
<path d="M289.8664 90.9660 L289.7834 91.2979 "/>
<path d="M289.7834 91.2979 L289.7834 91.9617 "/>
<path d="M289.7834 91.9617 L289.8664 92.1277 "/>
<path d="M289.8664 92.1277 L289.9494 92.2107 "/>
<path d="M289.9494 92.2107 L290.1153 92.2937 "/>
<path d="M290.1153 92.2937 L290.4472 92.2937 "/>
<path d="M290.4472 92.2937 L290.6132 92.2107 "/>
<path d="M290.6132 92.2107 L290.6962 92.1277 "/>
<path d="M290.6962 92.1277 L290.7792 91.9617 "/>
<path d="M290.7792 91.9617 L290.7792 91.5468 "/>
<path d="M290.7792 91.5468 L290.6962 91.3809 "/>
<path d="M290.6962 91.3809 L290.6132 91.2979 "/>
<path d="M290.6132 91.2979 L290.4472 91.2149 "/>
<path d="M290.4472 91.2149 L290.1153 91.2149 "/>
<path d="M290.1153 91.2149 L289.9494 91.2979 "/>
<path d="M289.9494 91.2979 L289.8664 91.3809 "/>
<path d="M289.8664 91.3809 L289.7834 91.5468 "/>
</g><g transform="rotate(-270.000000 288.5802 159.6216)">
<text x="288.5802" y="160.4929" textLength="3.7071" font-size="2.3234" lengthAdjust="spacingAndGlyphs" text-anchor="middle" opacity="0.01" style="font-family:monospace">D4</text>
</g>
<g class="stroked-text"><desc>D4</desc>
<path d="M287.7854 158.3354 L289.5280 158.3354 "/>
<path d="M289.5280 158.3354 L289.5280 158.7503 "/>
<path d="M289.5280 158.7503 L289.4450 158.9993 "/>
<path d="M289.4450 158.9993 L289.2790 159.1652 "/>
<path d="M289.2790 159.1652 L289.1131 159.2482 "/>
<path d="M289.1131 159.2482 L288.7812 159.3312 "/>
<path d="M288.7812 159.3312 L288.5322 159.3312 "/>
<path d="M288.5322 159.3312 L288.2003 159.2482 "/>
<path d="M288.2003 159.2482 L288.0344 159.1652 "/>
<path d="M288.0344 159.1652 L287.8684 158.9993 "/>
<path d="M287.8684 158.9993 L287.7854 158.7503 "/>
<path d="M287.7854 158.7503 L287.7854 158.3354 "/>
<path d="M288.9471 160.8248 L287.7854 160.8248 "/>
<path d="M289.6110 160.4099 L288.3663 159.9950 "/>
<path d="M288.3663 159.9950 L288.3663 161.0737 "/>
</g><g transform="rotate(-270.000000 288.4169 89.7941)">
<text x="288.4169" y="90.6654" textLength="5.3666" font-size="2.3234" lengthAdjust="spacingAndGlyphs" text-anchor="middle" opacity="0.01" style="font-family:monospace">D11</text>
</g>
<g class="stroked-text"><desc>D11</desc>
<path d="M287.6221 87.6781 L289.3646 87.6781 "/>
<path d="M289.3646 87.6781 L289.3646 88.0930 "/>
<path d="M289.3646 88.0930 L289.2816 88.3420 "/>
<path d="M289.2816 88.3420 L289.1157 88.5079 "/>
<path d="M289.1157 88.5079 L288.9497 88.5909 "/>
<path d="M288.9497 88.5909 L288.6178 88.6739 "/>
<path d="M288.6178 88.6739 L288.3689 88.6739 "/>
<path d="M288.3689 88.6739 L288.0370 88.5909 "/>
<path d="M288.0370 88.5909 L287.8710 88.5079 "/>
<path d="M287.8710 88.5079 L287.7050 88.3420 "/>
<path d="M287.7050 88.3420 L287.6221 88.0930 "/>
<path d="M287.6221 88.0930 L287.6221 87.6781 "/>
<path d="M287.6221 90.3334 L287.6221 89.3377 "/>
<path d="M287.6221 89.8356 L289.3646 89.8356 "/>
<path d="M289.3646 89.8356 L289.1157 89.6696 "/>
<path d="M289.1157 89.6696 L288.9497 89.5037 "/>
<path d="M288.9497 89.5037 L288.8667 89.3377 "/>
<path d="M287.6221 91.9930 L287.6221 90.9973 "/>
<path d="M287.6221 91.4951 L289.3646 91.4951 "/>
<path d="M289.3646 91.4951 L289.1157 91.3292 "/>
<path d="M289.1157 91.3292 L288.9497 91.1632 "/>
<path d="M288.9497 91.1632 L288.8667 90.9973 "/>
</g><g transform="rotate(-270.000000 288.4169 65.6829)">
<text x="288.4169" y="66.5542" textLength="5.3666" font-size="2.3234" lengthAdjust="spacingAndGlyphs" text-anchor="middle" opacity="0.01" style="font-family:monospace">D15</text>
</g>
<g class="stroked-text"><desc>D15</desc>
<path d="M287.6221 63.5669 L289.3646 63.5669 "/>
<path d="M289.3646 63.5669 L289.3646 63.9818 "/>
<path d="M289.3646 63.9818 L289.2816 64.2308 "/>
<path d="M289.2816 64.2308 L289.1157 64.3967 "/>
<path d="M289.1157 64.3967 L288.9497 64.4797 "/>
<path d="M288.9497 64.4797 L288.6178 64.5627 "/>
<path d="M288.6178 64.5627 L288.3689 64.5627 "/>
<path d="M288.3689 64.5627 L288.0370 64.4797 "/>
<path d="M288.0370 64.4797 L287.8710 64.3967 "/>
<path d="M287.8710 64.3967 L287.7050 64.2308 "/>
<path d="M287.7050 64.2308 L287.6221 63.9818 "/>
<path d="M287.6221 63.9818 L287.6221 63.5669 "/>
<path d="M287.6221 66.2223 L287.6221 65.2265 "/>
<path d="M287.6221 65.7244 L289.3646 65.7244 "/>
<path d="M289.3646 65.7244 L289.1157 65.5584 "/>
<path d="M289.1157 65.5584 L288.9497 65.3925 "/>
<path d="M288.9497 65.3925 L288.8667 65.2265 "/>
<path d="M289.3646 67.7988 L289.3646 66.9691 "/>
<path d="M289.3646 66.9691 L288.5348 66.8861 "/>
<path d="M288.5348 66.8861 L288.6178 66.9691 "/>
<path d="M288.6178 66.9691 L288.7008 67.1350 "/>
<path d="M288.7008 67.1350 L288.7008 67.5499 "/>
<path d="M288.7008 67.5499 L288.6178 67.7159 "/>
<path d="M288.6178 67.7159 L288.5348 67.7988 "/>
<path d="M288.5348 67.7988 L288.3689 67.8818 "/>
<path d="M288.3689 67.8818 L287.9540 67.8818 "/>
<path d="M287.9540 67.8818 L287.7880 67.7988 "/>
<path d="M287.7880 67.7988 L287.7050 67.7159 "/>
<path d="M287.7050 67.7159 L287.6221 67.5499 "/>
<path d="M287.6221 67.5499 L287.6221 67.1350 "/>
<path d="M287.6221 67.1350 L287.7050 66.9691 "/>
<path d="M287.7050 66.9691 L287.7880 66.8861 "/>
</g><g transform="rotate(-90.000000 286.5654 46.2470)">
<text x="286.5654" y="47.1183" textLength="7.0262" font-size="2.3234" lengthAdjust="spacingAndGlyphs" text-anchor="middle" opacity="0.01" style="font-family:monospace">270R</text>
</g>
<g class="stroked-text"><desc>270R</desc>
<path d="M285.7836 49.2758 L285.7006 49.1928 "/>
<path d="M285.7006 49.1928 L285.6177 49.0268 "/>
<path d="M285.6177 49.0268 L285.6177 48.6119 "/>
<path d="M285.6177 48.6119 L285.7006 48.4460 "/>
<path d="M285.7006 48.4460 L285.7836 48.3630 "/>
<path d="M285.7836 48.3630 L285.9496 48.2800 "/>
<path d="M285.9496 48.2800 L286.1155 48.2800 "/>
<path d="M286.1155 48.2800 L286.3645 48.3630 "/>
<path d="M286.3645 48.3630 L287.3602 49.3587 "/>
<path d="M287.3602 49.3587 L287.3602 48.2800 "/>
<path d="M285.6177 47.6992 L285.6177 46.5375 "/>
<path d="M285.6177 46.5375 L287.3602 47.2843 "/>
<path d="M285.6177 45.5417 L285.6177 45.3758 "/>
<path d="M285.6177 45.3758 L285.7006 45.2098 "/>
<path d="M285.7006 45.2098 L285.7836 45.1268 "/>
<path d="M285.7836 45.1268 L285.9496 45.0438 "/>
<path d="M285.9496 45.0438 L286.2815 44.9609 "/>
<path d="M286.2815 44.9609 L286.6964 44.9609 "/>
<path d="M286.6964 44.9609 L287.0283 45.0438 "/>
<path d="M287.0283 45.0438 L287.1943 45.1268 "/>
<path d="M287.1943 45.1268 L287.2772 45.2098 "/>
<path d="M287.2772 45.2098 L287.3602 45.3758 "/>
<path d="M287.3602 45.3758 L287.3602 45.5417 "/>
<path d="M287.3602 45.5417 L287.2772 45.7077 "/>
<path d="M287.2772 45.7077 L287.1943 45.7907 "/>
<path d="M287.1943 45.7907 L287.0283 45.8736 "/>
<path d="M287.0283 45.8736 L286.6964 45.9566 "/>
<path d="M286.6964 45.9566 L286.2815 45.9566 "/>
<path d="M286.2815 45.9566 L285.9496 45.8736 "/>
<path d="M285.9496 45.8736 L285.7836 45.7907 "/>
<path d="M285.7836 45.7907 L285.7006 45.7077 "/>
<path d="M285.7006 45.7077 L285.6177 45.5417 "/>
<path d="M287.3602 43.2183 L286.5304 43.7992 "/>
<path d="M287.3602 44.2141 L285.6177 44.2141 "/>
<path d="M285.6177 44.2141 L285.6177 43.5502 "/>
<path d="M285.6177 43.5502 L285.7006 43.3843 "/>
<path d="M285.7006 43.3843 L285.7836 43.3013 "/>
<path d="M285.7836 43.3013 L285.9496 43.2183 "/>
<path d="M285.9496 43.2183 L286.1985 43.2183 "/>
<path d="M286.1985 43.2183 L286.3645 43.3013 "/>
<path d="M286.3645 43.3013 L286.4475 43.3843 "/>
<path d="M286.4475 43.3843 L286.5304 43.5502 "/>
<path d="M286.5304 43.5502 L286.5304 44.2141 "/>
</g><g transform="rotate(-90.000000 290.1594 46.2470)">
<text x="290.1594" y="47.1183" textLength="5.3666" font-size="2.3234" lengthAdjust="spacingAndGlyphs" text-anchor="middle" opacity="0.01" style="font-family:monospace">R18</text>
</g>
<g class="stroked-text"><desc>R18</desc>
<path d="M290.9542 47.3672 L290.1244 47.9481 "/>
<path d="M290.9542 48.3630 L289.2117 48.3630 "/>
<path d="M289.2117 48.3630 L289.2117 47.6992 "/>
<path d="M289.2117 47.6992 L289.2947 47.5332 "/>
<path d="M289.2947 47.5332 L289.3776 47.4502 "/>
<path d="M289.3776 47.4502 L289.5436 47.3672 "/>
<path d="M289.5436 47.3672 L289.7925 47.3672 "/>
<path d="M289.7925 47.3672 L289.9585 47.4502 "/>
<path d="M289.9585 47.4502 L290.0415 47.5332 "/>
<path d="M290.0415 47.5332 L290.1244 47.6992 "/>
<path d="M290.1244 47.6992 L290.1244 48.3630 "/>
<path d="M290.9542 45.7077 L290.9542 46.7034 "/>
<path d="M290.9542 46.2055 L289.2117 46.2055 "/>
<path d="M289.2117 46.2055 L289.4606 46.3715 "/>
<path d="M289.4606 46.3715 L289.6266 46.5375 "/>
<path d="M289.6266 46.5375 L289.7095 46.7034 "/>
<path d="M289.9585 44.7119 L289.8755 44.8779 "/>
<path d="M289.8755 44.8779 L289.7925 44.9609 "/>
<path d="M289.7925 44.9609 L289.6266 45.0438 "/>
<path d="M289.6266 45.0438 L289.5436 45.0438 "/>
<path d="M289.5436 45.0438 L289.3776 44.9609 "/>
<path d="M289.3776 44.9609 L289.2947 44.8779 "/>
<path d="M289.2947 44.8779 L289.2117 44.7119 "/>
<path d="M289.2117 44.7119 L289.2117 44.3800 "/>
<path d="M289.2117 44.3800 L289.2947 44.2141 "/>
<path d="M289.2947 44.2141 L289.3776 44.1311 "/>
<path d="M289.3776 44.1311 L289.5436 44.0481 "/>
<path d="M289.5436 44.0481 L289.6266 44.0481 "/>
<path d="M289.6266 44.0481 L289.7925 44.1311 "/>
<path d="M289.7925 44.1311 L289.8755 44.2141 "/>
<path d="M289.8755 44.2141 L289.9585 44.3800 "/>
<path d="M289.9585 44.3800 L289.9585 44.7119 "/>
<path d="M289.9585 44.7119 L290.0415 44.8779 "/>
<path d="M290.0415 44.8779 L290.1244 44.9609 "/>
<path d="M290.1244 44.9609 L290.2904 45.0438 "/>
<path d="M290.2904 45.0438 L290.6223 45.0438 "/>
<path d="M290.6223 45.0438 L290.7883 44.9609 "/>
<path d="M290.7883 44.9609 L290.8712 44.8779 "/>
<path d="M290.8712 44.8779 L290.9542 44.7119 "/>
<path d="M290.9542 44.7119 L290.9542 44.3800 "/>
<path d="M290.9542 44.3800 L290.8712 44.2141 "/>
<path d="M290.8712 44.2141 L290.7883 44.1311 "/>
<path d="M290.7883 44.1311 L290.6223 44.0481 "/>
<path d="M290.6223 44.0481 L290.2904 44.0481 "/>
<path d="M290.2904 44.0481 L290.1244 44.1311 "/>
<path d="M290.1244 44.1311 L290.0415 44.2141 "/>
<path d="M290.0415 44.2141 L289.9585 44.3800 "/>
</g><g transform="rotate(-270.000000 288.3624 54.4697)">
<text x="288.3624" y="55.3410" textLength="3.7071" font-size="2.3234" lengthAdjust="spacingAndGlyphs" text-anchor="middle" opacity="0.01" style="font-family:monospace">D1</text>
</g>
<g class="stroked-text"><desc>D1</desc>
<path d="M287.5676 53.1835 L289.3102 53.1835 "/>
<path d="M289.3102 53.1835 L289.3102 53.5984 "/>
<path d="M289.3102 53.5984 L289.2272 53.8473 "/>
<path d="M289.2272 53.8473 L289.0612 54.0133 "/>
<path d="M289.0612 54.0133 L288.8953 54.0963 "/>
<path d="M288.8953 54.0963 L288.5633 54.1793 "/>
<path d="M288.5633 54.1793 L288.3144 54.1793 "/>
<path d="M288.3144 54.1793 L287.9825 54.0963 "/>
<path d="M287.9825 54.0963 L287.8165 54.0133 "/>
<path d="M287.8165 54.0133 L287.6506 53.8473 "/>
<path d="M287.6506 53.8473 L287.5676 53.5984 "/>
<path d="M287.5676 53.5984 L287.5676 53.1835 "/>
<path d="M287.5676 55.8388 L287.5676 54.8431 "/>
<path d="M287.5676 55.3410 L289.3102 55.3410 "/>
<path d="M289.3102 55.3410 L289.0612 55.1750 "/>
<path d="M289.0612 55.1750 L288.8953 55.0090 "/>
<path d="M288.8953 55.0090 L288.8123 54.8431 "/>
</g><g transform="rotate(-270.000000 288.5802 147.5327)">
<text x="288.5802" y="148.4040" textLength="3.7071" font-size="2.3234" lengthAdjust="spacingAndGlyphs" text-anchor="middle" opacity="0.01" style="font-family:monospace">D3</text>
</g>
<g class="stroked-text"><desc>D3</desc>
<path d="M287.7854 146.2465 L289.5280 146.2465 "/>
<path d="M289.5280 146.2465 L289.5280 146.6614 "/>
<path d="M289.5280 146.6614 L289.4450 146.9103 "/>
<path d="M289.4450 146.9103 L289.2790 147.0763 "/>
<path d="M289.2790 147.0763 L289.1131 147.1593 "/>
<path d="M289.1131 147.1593 L288.7812 147.2423 "/>
<path d="M288.7812 147.2423 L288.5322 147.2423 "/>
<path d="M288.5322 147.2423 L288.2003 147.1593 "/>
<path d="M288.2003 147.1593 L288.0344 147.0763 "/>
<path d="M288.0344 147.0763 L287.8684 146.9103 "/>
<path d="M287.8684 146.9103 L287.7854 146.6614 "/>
<path d="M287.7854 146.6614 L287.7854 146.2465 "/>
<path d="M289.5280 147.8231 L289.5280 148.9018 "/>
<path d="M289.5280 148.9018 L288.8641 148.3210 "/>
<path d="M288.8641 148.3210 L288.8641 148.5699 "/>
<path d="M288.8641 148.5699 L288.7812 148.7359 "/>
<path d="M288.7812 148.7359 L288.6982 148.8188 "/>
<path d="M288.6982 148.8188 L288.5322 148.9018 "/>
<path d="M288.5322 148.9018 L288.1173 148.9018 "/>
<path d="M288.1173 148.9018 L287.9514 148.8188 "/>
<path d="M287.9514 148.8188 L287.8684 148.7359 "/>
<path d="M287.8684 148.7359 L287.7854 148.5699 "/>
<path d="M287.7854 148.5699 L287.7854 148.0720 "/>
<path d="M287.7854 148.0720 L287.8684 147.9061 "/>
<path d="M287.8684 147.9061 L287.9514 147.8231 "/>
</g><g transform="rotate(-270.000000 288.4169 77.7385)">
<text x="288.4169" y="78.6098" textLength="5.3666" font-size="2.3234" lengthAdjust="spacingAndGlyphs" text-anchor="middle" opacity="0.01" style="font-family:monospace">D13</text>
</g>
<g class="stroked-text"><desc>D13</desc>
<path d="M287.6221 75.6225 L289.3646 75.6225 "/>
<path d="M289.3646 75.6225 L289.3646 76.0374 "/>
<path d="M289.3646 76.0374 L289.2816 76.2864 "/>
<path d="M289.2816 76.2864 L289.1157 76.4523 "/>
<path d="M289.1157 76.4523 L288.9497 76.5353 "/>
<path d="M288.9497 76.5353 L288.6178 76.6183 "/>
<path d="M288.6178 76.6183 L288.3689 76.6183 "/>
<path d="M288.3689 76.6183 L288.0370 76.5353 "/>
<path d="M288.0370 76.5353 L287.8710 76.4523 "/>
<path d="M287.8710 76.4523 L287.7050 76.2864 "/>
<path d="M287.7050 76.2864 L287.6221 76.0374 "/>
<path d="M287.6221 76.0374 L287.6221 75.6225 "/>
<path d="M287.6221 78.2778 L287.6221 77.2821 "/>
<path d="M287.6221 77.7800 L289.3646 77.7800 "/>
<path d="M289.3646 77.7800 L289.1157 77.6140 "/>
<path d="M289.1157 77.6140 L288.9497 77.4481 "/>
<path d="M288.9497 77.4481 L288.8667 77.2821 "/>
<path d="M289.3646 78.8587 L289.3646 79.9374 "/>
<path d="M289.3646 79.9374 L288.7008 79.3566 "/>
<path d="M288.7008 79.3566 L288.7008 79.6055 "/>
<path d="M288.7008 79.6055 L288.6178 79.7715 "/>
<path d="M288.6178 79.7715 L288.5348 79.8544 "/>
<path d="M288.5348 79.8544 L288.3689 79.9374 "/>
<path d="M288.3689 79.9374 L287.9540 79.9374 "/>
<path d="M287.9540 79.9374 L287.7880 79.8544 "/>
<path d="M287.7880 79.8544 L287.7050 79.7715 "/>
<path d="M287.7050 79.7715 L287.6221 79.6055 "/>
<path d="M287.6221 79.6055 L287.6221 79.1076 "/>
<path d="M287.6221 79.1076 L287.7050 78.9417 "/>
<path d="M287.7050 78.9417 L287.7880 78.8587 "/>
</g><g transform="rotate(-90.000000 283.0585 121.1222)">
<text x="283.0585" y="121.9934" textLength="16.2368" font-size="2.3234" lengthAdjust="spacingAndGlyphs" text-anchor="middle" opacity="0.01" style="font-family:monospace">SKRTLAE010</text>
</g>
<g class="stroked-text"><desc>SKRTLAE010</desc>
<path d="M283.7704 128.7562 L283.8533 128.5073 "/>
<path d="M283.8533 128.5073 L283.8533 128.0924 "/>
<path d="M283.8533 128.0924 L283.7704 127.9264 "/>
<path d="M283.7704 127.9264 L283.6874 127.8434 "/>
<path d="M283.6874 127.8434 L283.5214 127.7605 "/>
<path d="M283.5214 127.7605 L283.3555 127.7605 "/>
<path d="M283.3555 127.7605 L283.1895 127.8434 "/>
<path d="M283.1895 127.8434 L283.1065 127.9264 "/>
<path d="M283.1065 127.9264 L283.0236 128.0924 "/>
<path d="M283.0236 128.0924 L282.9406 128.4243 "/>
<path d="M282.9406 128.4243 L282.8576 128.5902 "/>
<path d="M282.8576 128.5902 L282.7746 128.6732 "/>
<path d="M282.7746 128.6732 L282.6087 128.7562 "/>
<path d="M282.6087 128.7562 L282.4427 128.7562 "/>
<path d="M282.4427 128.7562 L282.2767 128.6732 "/>
<path d="M282.2767 128.6732 L282.1938 128.5902 "/>
<path d="M282.1938 128.5902 L282.1108 128.4243 "/>
<path d="M282.1108 128.4243 L282.1108 128.0094 "/>
<path d="M282.1108 128.0094 L282.1938 127.7605 "/>
<path d="M283.8533 127.0136 L282.1108 127.0136 "/>
<path d="M283.8533 126.0179 L282.8576 126.7647 "/>
<path d="M282.1108 126.0179 L283.1065 127.0136 "/>
<path d="M283.8533 124.2754 L283.0236 124.8562 "/>
<path d="M283.8533 125.2711 L282.1108 125.2711 "/>
<path d="M282.1108 125.2711 L282.1108 124.6073 "/>
<path d="M282.1108 124.6073 L282.1938 124.4413 "/>
<path d="M282.1938 124.4413 L282.2767 124.3583 "/>
<path d="M282.2767 124.3583 L282.4427 124.2754 "/>
<path d="M282.4427 124.2754 L282.6916 124.2754 "/>
<path d="M282.6916 124.2754 L282.8576 124.3583 "/>
<path d="M282.8576 124.3583 L282.9406 124.4413 "/>
<path d="M282.9406 124.4413 L283.0236 124.6073 "/>
<path d="M283.0236 124.6073 L283.0236 125.2711 "/>
<path d="M282.1108 123.7775 L282.1108 122.7817 "/>
<path d="M283.8533 123.2796 L282.1108 123.2796 "/>
<path d="M283.8533 121.3711 L283.8533 122.2009 "/>
<path d="M283.8533 122.2009 L282.1108 122.2009 "/>
<path d="M283.3555 120.8732 L283.3555 120.0435 "/>
<path d="M283.8533 121.0392 L282.1108 120.4583 "/>
<path d="M282.1108 120.4583 L283.8533 119.8775 "/>
<path d="M282.9406 119.2966 L282.9406 118.7158 "/>
<path d="M283.8533 118.4669 L283.8533 119.2966 "/>
<path d="M283.8533 119.2966 L282.1108 119.2966 "/>
<path d="M282.1108 119.2966 L282.1108 118.4669 "/>
<path d="M282.1108 117.3881 L282.1108 117.2222 "/>
<path d="M282.1108 117.2222 L282.1938 117.0562 "/>
<path d="M282.1938 117.0562 L282.2767 116.9732 "/>
<path d="M282.2767 116.9732 L282.4427 116.8903 "/>
<path d="M282.4427 116.8903 L282.7746 116.8073 "/>
<path d="M282.7746 116.8073 L283.1895 116.8073 "/>
<path d="M283.1895 116.8073 L283.5214 116.8903 "/>
<path d="M283.5214 116.8903 L283.6874 116.9732 "/>
<path d="M283.6874 116.9732 L283.7704 117.0562 "/>
<path d="M283.7704 117.0562 L283.8533 117.2222 "/>
<path d="M283.8533 117.2222 L283.8533 117.3881 "/>
<path d="M283.8533 117.3881 L283.7704 117.5541 "/>
<path d="M283.7704 117.5541 L283.6874 117.6371 "/>
<path d="M283.6874 117.6371 L283.5214 117.7201 "/>
<path d="M283.5214 117.7201 L283.1895 117.8030 "/>
<path d="M283.1895 117.8030 L282.7746 117.8030 "/>
<path d="M282.7746 117.8030 L282.4427 117.7201 "/>
<path d="M282.4427 117.7201 L282.2767 117.6371 "/>
<path d="M282.2767 117.6371 L282.1938 117.5541 "/>
<path d="M282.1938 117.5541 L282.1108 117.3881 "/>
<path d="M283.8533 115.1477 L283.8533 116.1435 "/>
<path d="M283.8533 115.6456 L282.1108 115.6456 "/>
<path d="M282.1108 115.6456 L282.3597 115.8115 "/>
<path d="M282.3597 115.8115 L282.5257 115.9775 "/>
<path d="M282.5257 115.9775 L282.6087 116.1435 "/>
<path d="M282.1108 114.0690 L282.1108 113.9030 "/>
<path d="M282.1108 113.9030 L282.1938 113.7371 "/>
<path d="M282.1938 113.7371 L282.2767 113.6541 "/>
<path d="M282.2767 113.6541 L282.4427 113.5711 "/>
<path d="M282.4427 113.5711 L282.7746 113.4881 "/>
<path d="M282.7746 113.4881 L283.1895 113.4881 "/>
<path d="M283.1895 113.4881 L283.5214 113.5711 "/>
<path d="M283.5214 113.5711 L283.6874 113.6541 "/>
<path d="M283.6874 113.6541 L283.7704 113.7371 "/>
<path d="M283.7704 113.7371 L283.8533 113.9030 "/>
<path d="M283.8533 113.9030 L283.8533 114.0690 "/>
<path d="M283.8533 114.0690 L283.7704 114.2350 "/>
<path d="M283.7704 114.2350 L283.6874 114.3179 "/>
<path d="M283.6874 114.3179 L283.5214 114.4009 "/>
<path d="M283.5214 114.4009 L283.1895 114.4839 "/>
<path d="M283.1895 114.4839 L282.7746 114.4839 "/>
<path d="M282.7746 114.4839 L282.4427 114.4009 "/>
<path d="M282.4427 114.4009 L282.2767 114.3179 "/>
<path d="M282.2767 114.3179 L282.1938 114.2350 "/>
<path d="M282.1938 114.2350 L282.1108 114.0690 "/>
</g><g transform="rotate(-180.000000 281.1744 113.6619)">
<text x="281.1744" y="114.5332" textLength="5.6156" font-size="2.3234" lengthAdjust="spacingAndGlyphs" text-anchor="middle" opacity="0.01" style="font-family:monospace">SW4</text>
</g>
<g class="stroked-text"><desc>SW4</desc>
<path d="M283.4978 112.9501 L283.2489 112.8671 "/>
<path d="M283.2489 112.8671 L282.8340 112.8671 "/>
<path d="M282.8340 112.8671 L282.6680 112.9501 "/>
<path d="M282.6680 112.9501 L282.5850 113.0330 "/>
<path d="M282.5850 113.0330 L282.5021 113.1990 "/>
<path d="M282.5021 113.1990 L282.5021 113.3649 "/>
<path d="M282.5021 113.3649 L282.5850 113.5309 "/>
<path d="M282.5850 113.5309 L282.6680 113.6139 "/>
<path d="M282.6680 113.6139 L282.8340 113.6969 "/>
<path d="M282.8340 113.6969 L283.1659 113.7798 "/>
<path d="M283.1659 113.7798 L283.3318 113.8628 "/>
<path d="M283.3318 113.8628 L283.4148 113.9458 "/>
<path d="M283.4148 113.9458 L283.4978 114.1118 "/>
<path d="M283.4978 114.1118 L283.4978 114.2777 "/>
<path d="M283.4978 114.2777 L283.4148 114.4437 "/>
<path d="M283.4148 114.4437 L283.3318 114.5266 "/>
<path d="M283.3318 114.5266 L283.1659 114.6096 "/>
<path d="M283.1659 114.6096 L282.7510 114.6096 "/>
<path d="M282.7510 114.6096 L282.5021 114.5266 "/>
<path d="M281.9212 114.6096 L281.5063 112.8671 "/>
<path d="M281.5063 112.8671 L281.1744 114.1118 "/>
<path d="M281.1744 114.1118 L280.8425 112.8671 "/>
<path d="M280.8425 112.8671 L280.4276 114.6096 "/>
<path d="M279.0170 114.0288 L279.0170 112.8671 "/>
<path d="M279.4319 114.6926 L279.8467 113.4479 "/>
<path d="M279.8467 113.4479 L278.7680 113.4479 "/>
</g><text x="288.7436" y="101.5185" textLength="7.0262" font-size="2.3234" lengthAdjust="spacingAndGlyphs" text-anchor="middle" opacity="0.01" style="font-family:monospace">270R</text>
<g class="stroked-text"><desc>270R</desc>
<path d="M285.7149 99.8654 L285.7979 99.7825 "/>
<path d="M285.7979 99.7825 L285.9638 99.6995 "/>
<path d="M285.9638 99.6995 L286.3787 99.6995 "/>
<path d="M286.3787 99.6995 L286.5447 99.7825 "/>
<path d="M286.5447 99.7825 L286.6276 99.8654 "/>
<path d="M286.6276 99.8654 L286.7106 100.0314 "/>
<path d="M286.7106 100.0314 L286.7106 100.1974 "/>
<path d="M286.7106 100.1974 L286.6276 100.4463 "/>
<path d="M286.6276 100.4463 L285.6319 101.4420 "/>
<path d="M285.6319 101.4420 L286.7106 101.4420 "/>
<path d="M287.2915 99.6995 L288.4532 99.6995 "/>
<path d="M288.4532 99.6995 L287.7064 101.4420 "/>
<path d="M289.4489 99.6995 L289.6149 99.6995 "/>
<path d="M289.6149 99.6995 L289.7808 99.7825 "/>
<path d="M289.7808 99.7825 L289.8638 99.8654 "/>
<path d="M289.8638 99.8654 L289.9468 100.0314 "/>
<path d="M289.9468 100.0314 L290.0298 100.3633 "/>
<path d="M290.0298 100.3633 L290.0298 100.7782 "/>
<path d="M290.0298 100.7782 L289.9468 101.1101 "/>
<path d="M289.9468 101.1101 L289.8638 101.2761 "/>
<path d="M289.8638 101.2761 L289.7808 101.3591 "/>
<path d="M289.7808 101.3591 L289.6149 101.4420 "/>
<path d="M289.6149 101.4420 L289.4489 101.4420 "/>
<path d="M289.4489 101.4420 L289.2830 101.3591 "/>
<path d="M289.2830 101.3591 L289.2000 101.2761 "/>
<path d="M289.2000 101.2761 L289.1170 101.1101 "/>
<path d="M289.1170 101.1101 L289.0340 100.7782 "/>
<path d="M289.0340 100.7782 L289.0340 100.3633 "/>
<path d="M289.0340 100.3633 L289.1170 100.0314 "/>
<path d="M289.1170 100.0314 L289.2000 99.8654 "/>
<path d="M289.2000 99.8654 L289.2830 99.7825 "/>
<path d="M289.2830 99.7825 L289.4489 99.6995 "/>
<path d="M291.7723 101.4420 L291.1915 100.6123 "/>
<path d="M290.7766 101.4420 L290.7766 99.6995 "/>
<path d="M290.7766 99.6995 L291.4404 99.6995 "/>
<path d="M291.4404 99.6995 L291.6064 99.7825 "/>
<path d="M291.6064 99.7825 L291.6893 99.8654 "/>
<path d="M291.6893 99.8654 L291.7723 100.0314 "/>
<path d="M291.7723 100.0314 L291.7723 100.2803 "/>
<path d="M291.7723 100.2803 L291.6893 100.4463 "/>
<path d="M291.6893 100.4463 L291.6064 100.5293 "/>
<path d="M291.6064 100.5293 L291.4404 100.6123 "/>
<path d="M291.4404 100.6123 L290.7766 100.6123 "/>
</g><text x="288.7436" y="105.1125" textLength="5.3666" font-size="2.3234" lengthAdjust="spacingAndGlyphs" text-anchor="middle" opacity="0.01" style="font-family:monospace">R53</text>
<g class="stroked-text"><desc>R53</desc>
<path d="M287.6234 105.0360 L287.0425 104.2063 "/>
<path d="M286.6276 105.0360 L286.6276 103.2935 "/>
<path d="M286.6276 103.2935 L287.2915 103.2935 "/>
<path d="M287.2915 103.2935 L287.4574 103.3765 "/>
<path d="M287.4574 103.3765 L287.5404 103.4595 "/>
<path d="M287.5404 103.4595 L287.6234 103.6254 "/>
<path d="M287.6234 103.6254 L287.6234 103.8743 "/>
<path d="M287.6234 103.8743 L287.5404 104.0403 "/>
<path d="M287.5404 104.0403 L287.4574 104.1233 "/>
<path d="M287.4574 104.1233 L287.2915 104.2063 "/>
<path d="M287.2915 104.2063 L286.6276 104.2063 "/>
<path d="M289.2000 103.2935 L288.3702 103.2935 "/>
<path d="M288.3702 103.2935 L288.2872 104.1233 "/>
<path d="M288.2872 104.1233 L288.3702 104.0403 "/>
<path d="M288.3702 104.0403 L288.5361 103.9573 "/>
<path d="M288.5361 103.9573 L288.9510 103.9573 "/>
<path d="M288.9510 103.9573 L289.1170 104.0403 "/>
<path d="M289.1170 104.0403 L289.2000 104.1233 "/>
<path d="M289.2000 104.1233 L289.2830 104.2892 "/>
<path d="M289.2830 104.2892 L289.2830 104.7041 "/>
<path d="M289.2830 104.7041 L289.2000 104.8701 "/>
<path d="M289.2000 104.8701 L289.1170 104.9531 "/>
<path d="M289.1170 104.9531 L288.9510 105.0360 "/>
<path d="M288.9510 105.0360 L288.5361 105.0360 "/>
<path d="M288.5361 105.0360 L288.3702 104.9531 "/>
<path d="M288.3702 104.9531 L288.2872 104.8701 "/>
<path d="M289.8638 103.2935 L290.9425 103.2935 "/>
<path d="M290.9425 103.2935 L290.3617 103.9573 "/>
<path d="M290.3617 103.9573 L290.6106 103.9573 "/>
<path d="M290.6106 103.9573 L290.7766 104.0403 "/>
<path d="M290.7766 104.0403 L290.8595 104.1233 "/>
<path d="M290.8595 104.1233 L290.9425 104.2892 "/>
<path d="M290.9425 104.2892 L290.9425 104.7041 "/>
<path d="M290.9425 104.7041 L290.8595 104.8701 "/>
<path d="M290.8595 104.8701 L290.7766 104.9531 "/>
<path d="M290.7766 104.9531 L290.6106 105.0360 "/>
<path d="M290.6106 105.0360 L290.1127 105.0360 "/>
<path d="M290.1127 105.0360 L289.9468 104.9531 "/>
<path d="M289.9468 104.9531 L289.8638 104.8701 "/>
</g><text x="288.6075" y="66.6675" textLength="7.0262" font-size="2.3234" lengthAdjust="spacingAndGlyphs" text-anchor="middle" opacity="0.01" style="font-family:monospace">270R</text>
<g class="stroked-text"><desc>270R</desc>
<path d="M285.5787 65.0145 L285.6617 64.9315 "/>
<path d="M285.6617 64.9315 L285.8277 64.8485 "/>
<path d="M285.8277 64.8485 L286.2426 64.8485 "/>
<path d="M286.2426 64.8485 L286.4085 64.9315 "/>
<path d="M286.4085 64.9315 L286.4915 65.0145 "/>
<path d="M286.4915 65.0145 L286.5745 65.1804 "/>
<path d="M286.5745 65.1804 L286.5745 65.3464 "/>
<path d="M286.5745 65.3464 L286.4915 65.5953 "/>
<path d="M286.4915 65.5953 L285.4958 66.5911 "/>
<path d="M285.4958 66.5911 L286.5745 66.5911 "/>
<path d="M287.1553 64.8485 L288.3170 64.8485 "/>
<path d="M288.3170 64.8485 L287.5702 66.5911 "/>
<path d="M289.3128 64.8485 L289.4787 64.8485 "/>
<path d="M289.4787 64.8485 L289.6447 64.9315 "/>
<path d="M289.6447 64.9315 L289.7277 65.0145 "/>
<path d="M289.7277 65.0145 L289.8106 65.1804 "/>
<path d="M289.8106 65.1804 L289.8936 65.5123 "/>
<path d="M289.8936 65.5123 L289.8936 65.9272 "/>
<path d="M289.8936 65.9272 L289.8106 66.2591 "/>
<path d="M289.8106 66.2591 L289.7277 66.4251 "/>
<path d="M289.7277 66.4251 L289.6447 66.5081 "/>
<path d="M289.6447 66.5081 L289.4787 66.5911 "/>
<path d="M289.4787 66.5911 L289.3128 66.5911 "/>
<path d="M289.3128 66.5911 L289.1468 66.5081 "/>
<path d="M289.1468 66.5081 L289.0638 66.4251 "/>
<path d="M289.0638 66.4251 L288.9809 66.2591 "/>
<path d="M288.9809 66.2591 L288.8979 65.9272 "/>
<path d="M288.8979 65.9272 L288.8979 65.5123 "/>
<path d="M288.8979 65.5123 L288.9809 65.1804 "/>
<path d="M288.9809 65.1804 L289.0638 65.0145 "/>
<path d="M289.0638 65.0145 L289.1468 64.9315 "/>
<path d="M289.1468 64.9315 L289.3128 64.8485 "/>
<path d="M291.6362 66.5911 L291.0553 65.7613 "/>
<path d="M290.6404 66.5911 L290.6404 64.8485 "/>
<path d="M290.6404 64.8485 L291.3043 64.8485 "/>
<path d="M291.3043 64.8485 L291.4702 64.9315 "/>
<path d="M291.4702 64.9315 L291.5532 65.0145 "/>
<path d="M291.5532 65.0145 L291.6362 65.1804 "/>
<path d="M291.6362 65.1804 L291.6362 65.4294 "/>
<path d="M291.6362 65.4294 L291.5532 65.5953 "/>
<path d="M291.5532 65.5953 L291.4702 65.6783 "/>
<path d="M291.4702 65.6783 L291.3043 65.7613 "/>
<path d="M291.3043 65.7613 L290.6404 65.7613 "/>
</g><text x="288.6075" y="70.2615" textLength="5.3666" font-size="2.3234" lengthAdjust="spacingAndGlyphs" text-anchor="middle" opacity="0.01" style="font-family:monospace">R59</text>
<g class="stroked-text"><desc>R59</desc>
<path d="M287.4873 70.1851 L286.9064 69.3553 "/>
<path d="M286.4915 70.1851 L286.4915 68.4425 "/>
<path d="M286.4915 68.4425 L287.1553 68.4425 "/>
<path d="M287.1553 68.4425 L287.3213 68.5255 "/>
<path d="M287.3213 68.5255 L287.4043 68.6085 "/>
<path d="M287.4043 68.6085 L287.4873 68.7744 "/>
<path d="M287.4873 68.7744 L287.4873 69.0234 "/>
<path d="M287.4873 69.0234 L287.4043 69.1893 "/>
<path d="M287.4043 69.1893 L287.3213 69.2723 "/>
<path d="M287.3213 69.2723 L287.1553 69.3553 "/>
<path d="M287.1553 69.3553 L286.4915 69.3553 "/>
<path d="M289.0638 68.4425 L288.2341 68.4425 "/>
<path d="M288.2341 68.4425 L288.1511 69.2723 "/>
<path d="M288.1511 69.2723 L288.2341 69.1893 "/>
<path d="M288.2341 69.1893 L288.4000 69.1063 "/>
<path d="M288.4000 69.1063 L288.8149 69.1063 "/>
<path d="M288.8149 69.1063 L288.9809 69.1893 "/>
<path d="M288.9809 69.1893 L289.0638 69.2723 "/>
<path d="M289.0638 69.2723 L289.1468 69.4383 "/>
<path d="M289.1468 69.4383 L289.1468 69.8532 "/>
<path d="M289.1468 69.8532 L289.0638 70.0191 "/>
<path d="M289.0638 70.0191 L288.9809 70.1021 "/>
<path d="M288.9809 70.1021 L288.8149 70.1851 "/>
<path d="M288.8149 70.1851 L288.4000 70.1851 "/>
<path d="M288.4000 70.1851 L288.2341 70.1021 "/>
<path d="M288.2341 70.1021 L288.1511 70.0191 "/>
<path d="M289.9766 70.1851 L290.3085 70.1851 "/>
<path d="M290.3085 70.1851 L290.4745 70.1021 "/>
<path d="M290.4745 70.1021 L290.5575 70.0191 "/>
<path d="M290.5575 70.0191 L290.7234 69.7702 "/>
<path d="M290.7234 69.7702 L290.8064 69.4383 "/>
<path d="M290.8064 69.4383 L290.8064 68.7744 "/>
<path d="M290.8064 68.7744 L290.7234 68.6085 "/>
<path d="M290.7234 68.6085 L290.6404 68.5255 "/>
<path d="M290.6404 68.5255 L290.4745 68.4425 "/>
<path d="M290.4745 68.4425 L290.1426 68.4425 "/>
<path d="M290.1426 68.4425 L289.9766 68.5255 "/>
<path d="M289.9766 68.5255 L289.8936 68.6085 "/>
<path d="M289.8936 68.6085 L289.8106 68.7744 "/>
<path d="M289.8106 68.7744 L289.8106 69.1893 "/>
<path d="M289.8106 69.1893 L289.8936 69.3553 "/>
<path d="M289.8936 69.3553 L289.9766 69.4383 "/>
<path d="M289.9766 69.4383 L290.1426 69.5212 "/>
<path d="M290.1426 69.5212 L290.4745 69.5212 "/>
<path d="M290.4745 69.5212 L290.6404 69.4383 "/>
<path d="M290.6404 69.4383 L290.7234 69.3553 "/>
<path d="M290.7234 69.3553 L290.8064 69.1893 "/>
</g><g transform="rotate(-270.000000 288.4169 71.7107)">
<text x="288.4169" y="72.5820" textLength="5.3666" font-size="2.3234" lengthAdjust="spacingAndGlyphs" text-anchor="middle" opacity="0.01" style="font-family:monospace">D14</text>
</g>
<g class="stroked-text"><desc>D14</desc>
<path d="M287.6221 69.5947 L289.3646 69.5947 "/>
<path d="M289.3646 69.5947 L289.3646 70.0096 "/>
<path d="M289.3646 70.0096 L289.2816 70.2586 "/>
<path d="M289.2816 70.2586 L289.1157 70.4245 "/>
<path d="M289.1157 70.4245 L288.9497 70.5075 "/>
<path d="M288.9497 70.5075 L288.6178 70.5905 "/>
<path d="M288.6178 70.5905 L288.3689 70.5905 "/>
<path d="M288.3689 70.5905 L288.0370 70.5075 "/>
<path d="M288.0370 70.5075 L287.8710 70.4245 "/>
<path d="M287.8710 70.4245 L287.7050 70.2586 "/>
<path d="M287.7050 70.2586 L287.6221 70.0096 "/>
<path d="M287.6221 70.0096 L287.6221 69.5947 "/>
<path d="M287.6221 72.2501 L287.6221 71.2543 "/>
<path d="M287.6221 71.7522 L289.3646 71.7522 "/>
<path d="M289.3646 71.7522 L289.1157 71.5862 "/>
<path d="M289.1157 71.5862 L288.9497 71.4203 "/>
<path d="M288.9497 71.4203 L288.8667 71.2543 "/>
<path d="M288.7838 73.7437 L287.6221 73.7437 "/>
<path d="M289.4476 73.3288 L288.2029 72.9139 "/>
<path d="M288.2029 72.9139 L288.2029 73.9926 "/>
</g><g transform="rotate(-270.000000 288.4169 83.7663)">
<text x="288.4169" y="84.6376" textLength="5.3666" font-size="2.3234" lengthAdjust="spacingAndGlyphs" text-anchor="middle" opacity="0.01" style="font-family:monospace">D12</text>
</g>
<g class="stroked-text"><desc>D12</desc>
<path d="M287.6221 81.6503 L289.3646 81.6503 "/>
<path d="M289.3646 81.6503 L289.3646 82.0652 "/>
<path d="M289.3646 82.0652 L289.2816 82.3142 "/>
<path d="M289.2816 82.3142 L289.1157 82.4801 "/>
<path d="M289.1157 82.4801 L288.9497 82.5631 "/>
<path d="M288.9497 82.5631 L288.6178 82.6461 "/>
<path d="M288.6178 82.6461 L288.3689 82.6461 "/>
<path d="M288.3689 82.6461 L288.0370 82.5631 "/>
<path d="M288.0370 82.5631 L287.8710 82.4801 "/>
<path d="M287.8710 82.4801 L287.7050 82.3142 "/>
<path d="M287.7050 82.3142 L287.6221 82.0652 "/>
<path d="M287.6221 82.0652 L287.6221 81.6503 "/>
<path d="M287.6221 84.3056 L287.6221 83.3099 "/>
<path d="M287.6221 83.8078 L289.3646 83.8078 "/>
<path d="M289.3646 83.8078 L289.1157 83.6418 "/>
<path d="M289.1157 83.6418 L288.9497 83.4759 "/>
<path d="M288.9497 83.4759 L288.8667 83.3099 "/>
<path d="M289.1987 84.9695 L289.2816 85.0525 "/>
<path d="M289.2816 85.0525 L289.3646 85.2184 "/>
<path d="M289.3646 85.2184 L289.3646 85.6333 "/>
<path d="M289.3646 85.6333 L289.2816 85.7993 "/>
<path d="M289.2816 85.7993 L289.1987 85.8822 "/>
<path d="M289.1987 85.8822 L289.0327 85.9652 "/>
<path d="M289.0327 85.9652 L288.8667 85.9652 "/>
<path d="M288.8667 85.9652 L288.6178 85.8822 "/>
<path d="M288.6178 85.8822 L287.6221 84.8865 "/>
<path d="M287.6221 84.8865 L287.6221 85.9652 "/>
</g><text x="288.6347" y="93.0236" textLength="7.0262" font-size="2.3234" lengthAdjust="spacingAndGlyphs" text-anchor="middle" opacity="0.01" style="font-family:monospace">270R</text>
<g class="stroked-text"><desc>270R</desc>
<path d="M285.6060 91.3705 L285.6890 91.2875 "/>
<path d="M285.6890 91.2875 L285.8549 91.2046 "/>
<path d="M285.8549 91.2046 L286.2698 91.2046 "/>
<path d="M286.2698 91.2046 L286.4358 91.2875 "/>
<path d="M286.4358 91.2875 L286.5187 91.3705 "/>
<path d="M286.5187 91.3705 L286.6017 91.5365 "/>
<path d="M286.6017 91.5365 L286.6017 91.7024 "/>
<path d="M286.6017 91.7024 L286.5187 91.9514 "/>
<path d="M286.5187 91.9514 L285.5230 92.9471 "/>
<path d="M285.5230 92.9471 L286.6017 92.9471 "/>
<path d="M287.1826 91.2046 L288.3443 91.2046 "/>
<path d="M288.3443 91.2046 L287.5975 92.9471 "/>
<path d="M289.3400 91.2046 L289.5060 91.2046 "/>
<path d="M289.5060 91.2046 L289.6719 91.2875 "/>
<path d="M289.6719 91.2875 L289.7549 91.3705 "/>
<path d="M289.7549 91.3705 L289.8379 91.5365 "/>
<path d="M289.8379 91.5365 L289.9209 91.8684 "/>
<path d="M289.9209 91.8684 L289.9209 92.2833 "/>
<path d="M289.9209 92.2833 L289.8379 92.6152 "/>
<path d="M289.8379 92.6152 L289.7549 92.7812 "/>
<path d="M289.7549 92.7812 L289.6719 92.8641 "/>
<path d="M289.6719 92.8641 L289.5060 92.9471 "/>
<path d="M289.5060 92.9471 L289.3400 92.9471 "/>
<path d="M289.3400 92.9471 L289.1740 92.8641 "/>
<path d="M289.1740 92.8641 L289.0911 92.7812 "/>
<path d="M289.0911 92.7812 L289.0081 92.6152 "/>
<path d="M289.0081 92.6152 L288.9251 92.2833 "/>
<path d="M288.9251 92.2833 L288.9251 91.8684 "/>
<path d="M288.9251 91.8684 L289.0081 91.5365 "/>
<path d="M289.0081 91.5365 L289.0911 91.3705 "/>
<path d="M289.0911 91.3705 L289.1740 91.2875 "/>
<path d="M289.1740 91.2875 L289.3400 91.2046 "/>
<path d="M291.6634 92.9471 L291.0826 92.1173 "/>
<path d="M290.6677 92.9471 L290.6677 91.2046 "/>
<path d="M290.6677 91.2046 L291.3315 91.2046 "/>
<path d="M291.3315 91.2046 L291.4974 91.2875 "/>
<path d="M291.4974 91.2875 L291.5804 91.3705 "/>
<path d="M291.5804 91.3705 L291.6634 91.5365 "/>
<path d="M291.6634 91.5365 L291.6634 91.7854 "/>
<path d="M291.6634 91.7854 L291.5804 91.9514 "/>
<path d="M291.5804 91.9514 L291.4974 92.0343 "/>
<path d="M291.4974 92.0343 L291.3315 92.1173 "/>
<path d="M291.3315 92.1173 L290.6677 92.1173 "/>
</g><text x="288.6347" y="96.6176" textLength="5.3666" font-size="2.3234" lengthAdjust="spacingAndGlyphs" text-anchor="middle" opacity="0.01" style="font-family:monospace">R55</text>
<g class="stroked-text"><desc>R55</desc>
<path d="M287.5145 96.5411 L286.9336 95.7113 "/>
<path d="M286.5187 96.5411 L286.5187 94.7986 "/>
<path d="M286.5187 94.7986 L287.1826 94.7986 "/>
<path d="M287.1826 94.7986 L287.3485 94.8815 "/>
<path d="M287.3485 94.8815 L287.4315 94.9645 "/>
<path d="M287.4315 94.9645 L287.5145 95.1305 "/>
<path d="M287.5145 95.1305 L287.5145 95.3794 "/>
<path d="M287.5145 95.3794 L287.4315 95.5454 "/>
<path d="M287.4315 95.5454 L287.3485 95.6284 "/>
<path d="M287.3485 95.6284 L287.1826 95.7113 "/>
<path d="M287.1826 95.7113 L286.5187 95.7113 "/>
<path d="M289.0911 94.7986 L288.2613 94.7986 "/>
<path d="M288.2613 94.7986 L288.1783 95.6284 "/>
<path d="M288.1783 95.6284 L288.2613 95.5454 "/>
<path d="M288.2613 95.5454 L288.4272 95.4624 "/>
<path d="M288.4272 95.4624 L288.8421 95.4624 "/>
<path d="M288.8421 95.4624 L289.0081 95.5454 "/>
<path d="M289.0081 95.5454 L289.0911 95.6284 "/>
<path d="M289.0911 95.6284 L289.1740 95.7943 "/>
<path d="M289.1740 95.7943 L289.1740 96.2092 "/>
<path d="M289.1740 96.2092 L289.0911 96.3752 "/>
<path d="M289.0911 96.3752 L289.0081 96.4581 "/>
<path d="M289.0081 96.4581 L288.8421 96.5411 "/>
<path d="M288.8421 96.5411 L288.4272 96.5411 "/>
<path d="M288.4272 96.5411 L288.2613 96.4581 "/>
<path d="M288.2613 96.4581 L288.1783 96.3752 "/>
<path d="M290.7506 94.7986 L289.9209 94.7986 "/>
<path d="M289.9209 94.7986 L289.8379 95.6284 "/>
<path d="M289.8379 95.6284 L289.9209 95.5454 "/>
<path d="M289.9209 95.5454 L290.0868 95.4624 "/>
<path d="M290.0868 95.4624 L290.5017 95.4624 "/>
<path d="M290.5017 95.4624 L290.6677 95.5454 "/>
<path d="M290.6677 95.5454 L290.7506 95.6284 "/>
<path d="M290.7506 95.6284 L290.8336 95.7943 "/>
<path d="M290.8336 95.7943 L290.8336 96.2092 "/>
<path d="M290.8336 96.2092 L290.7506 96.3752 "/>
<path d="M290.7506 96.3752 L290.6677 96.4581 "/>
<path d="M290.6677 96.4581 L290.5017 96.5411 "/>
<path d="M290.5017 96.5411 L290.0868 96.5411 "/>
<path d="M290.0868 96.5411 L289.9209 96.4581 "/>
<path d="M289.9209 96.4581 L289.8379 96.3752 "/>
</g><g transform="rotate(-270.000000 288.5802 153.5771)">
<text x="288.5802" y="154.4484" textLength="3.7071" font-size="2.3234" lengthAdjust="spacingAndGlyphs" text-anchor="middle" opacity="0.01" style="font-family:monospace">D5</text>
</g>
<g class="stroked-text"><desc>D5</desc>
<path d="M287.7854 152.2910 L289.5280 152.2910 "/>
<path d="M289.5280 152.2910 L289.5280 152.7059 "/>
<path d="M289.5280 152.7059 L289.4450 152.9548 "/>
<path d="M289.4450 152.9548 L289.2790 153.1208 "/>
<path d="M289.2790 153.1208 L289.1131 153.2037 "/>
<path d="M289.1131 153.2037 L288.7812 153.2867 "/>
<path d="M288.7812 153.2867 L288.5322 153.2867 "/>
<path d="M288.5322 153.2867 L288.2003 153.2037 "/>
<path d="M288.2003 153.2037 L288.0344 153.1208 "/>
<path d="M288.0344 153.1208 L287.8684 152.9548 "/>
<path d="M287.8684 152.9548 L287.7854 152.7059 "/>
<path d="M287.7854 152.7059 L287.7854 152.2910 "/>
<path d="M289.5280 154.8633 L289.5280 154.0335 "/>
<path d="M289.5280 154.0335 L288.6982 153.9505 "/>
<path d="M288.6982 153.9505 L288.7812 154.0335 "/>
<path d="M288.7812 154.0335 L288.8641 154.1995 "/>
<path d="M288.8641 154.1995 L288.8641 154.6144 "/>
<path d="M288.8641 154.6144 L288.7812 154.7803 "/>
<path d="M288.7812 154.7803 L288.6982 154.8633 "/>
<path d="M288.6982 154.8633 L288.5322 154.9463 "/>
<path d="M288.5322 154.9463 L288.1173 154.9463 "/>
<path d="M288.1173 154.9463 L287.9514 154.8633 "/>
<path d="M287.9514 154.8633 L287.8684 154.7803 "/>
<path d="M287.8684 154.7803 L287.7854 154.6144 "/>
<path d="M287.7854 154.6144 L287.7854 154.1995 "/>
<path d="M287.7854 154.1995 L287.8684 154.0335 "/>
<path d="M287.8684 154.0335 L287.9514 153.9505 "/>
</g><text x="288.5802" y="75.1625" textLength="7.0262" font-size="2.3234" lengthAdjust="spacingAndGlyphs" text-anchor="middle" opacity="0.01" style="font-family:monospace">270R</text>
<g class="stroked-text"><desc>270R</desc>
<path d="M285.5515 73.5094 L285.6345 73.4264 "/>
<path d="M285.6345 73.4264 L285.8005 73.3434 "/>
<path d="M285.8005 73.3434 L286.2153 73.3434 "/>
<path d="M286.2153 73.3434 L286.3813 73.4264 "/>
<path d="M286.3813 73.4264 L286.4643 73.5094 "/>
<path d="M286.4643 73.5094 L286.5473 73.6754 "/>
<path d="M286.5473 73.6754 L286.5473 73.8413 "/>
<path d="M286.5473 73.8413 L286.4643 74.0902 "/>
<path d="M286.4643 74.0902 L285.4685 75.0860 "/>
<path d="M285.4685 75.0860 L286.5473 75.0860 "/>
<path d="M287.1281 73.3434 L288.2898 73.3434 "/>
<path d="M288.2898 73.3434 L287.5430 75.0860 "/>
<path d="M289.2856 73.3434 L289.4515 73.3434 "/>
<path d="M289.4515 73.3434 L289.6175 73.4264 "/>
<path d="M289.6175 73.4264 L289.7004 73.5094 "/>
<path d="M289.7004 73.5094 L289.7834 73.6754 "/>
<path d="M289.7834 73.6754 L289.8664 74.0073 "/>
<path d="M289.8664 74.0073 L289.8664 74.4222 "/>
<path d="M289.8664 74.4222 L289.7834 74.7541 "/>
<path d="M289.7834 74.7541 L289.7004 74.9200 "/>
<path d="M289.7004 74.9200 L289.6175 75.0030 "/>
<path d="M289.6175 75.0030 L289.4515 75.0860 "/>
<path d="M289.4515 75.0860 L289.2856 75.0860 "/>
<path d="M289.2856 75.0860 L289.1196 75.0030 "/>
<path d="M289.1196 75.0030 L289.0366 74.9200 "/>
<path d="M289.0366 74.9200 L288.9536 74.7541 "/>
<path d="M288.9536 74.7541 L288.8707 74.4222 "/>
<path d="M288.8707 74.4222 L288.8707 74.0073 "/>
<path d="M288.8707 74.0073 L288.9536 73.6754 "/>
<path d="M288.9536 73.6754 L289.0366 73.5094 "/>
<path d="M289.0366 73.5094 L289.1196 73.4264 "/>
<path d="M289.1196 73.4264 L289.2856 73.3434 "/>
<path d="M291.6090 75.0860 L291.0281 74.2562 "/>
<path d="M290.6132 75.0860 L290.6132 73.3434 "/>
<path d="M290.6132 73.3434 L291.2770 73.3434 "/>
<path d="M291.2770 73.3434 L291.4430 73.4264 "/>
<path d="M291.4430 73.4264 L291.5260 73.5094 "/>
<path d="M291.5260 73.5094 L291.6090 73.6754 "/>
<path d="M291.6090 73.6754 L291.6090 73.9243 "/>
<path d="M291.6090 73.9243 L291.5260 74.0902 "/>
<path d="M291.5260 74.0902 L291.4430 74.1732 "/>
<path d="M291.4430 74.1732 L291.2770 74.2562 "/>
<path d="M291.2770 74.2562 L290.6132 74.2562 "/>
</g><text x="288.5802" y="78.7565" textLength="5.3666" font-size="2.3234" lengthAdjust="spacingAndGlyphs" text-anchor="middle" opacity="0.01" style="font-family:monospace">R57</text>
<g class="stroked-text"><desc>R57</desc>
<path d="M287.4600 78.6800 L286.8792 77.8502 "/>
<path d="M286.4643 78.6800 L286.4643 76.9374 "/>
<path d="M286.4643 76.9374 L287.1281 76.9374 "/>
<path d="M287.1281 76.9374 L287.2941 77.0204 "/>
<path d="M287.2941 77.0204 L287.3770 77.1034 "/>
<path d="M287.3770 77.1034 L287.4600 77.2694 "/>
<path d="M287.4600 77.2694 L287.4600 77.5183 "/>
<path d="M287.4600 77.5183 L287.3770 77.6843 "/>
<path d="M287.3770 77.6843 L287.2941 77.7672 "/>
<path d="M287.2941 77.7672 L287.1281 77.8502 "/>
<path d="M287.1281 77.8502 L286.4643 77.8502 "/>
<path d="M289.0366 76.9374 L288.2068 76.9374 "/>
<path d="M288.2068 76.9374 L288.1238 77.7672 "/>
<path d="M288.1238 77.7672 L288.2068 77.6843 "/>
<path d="M288.2068 77.6843 L288.3728 77.6013 "/>
<path d="M288.3728 77.6013 L288.7877 77.6013 "/>
<path d="M288.7877 77.6013 L288.9536 77.6843 "/>
<path d="M288.9536 77.6843 L289.0366 77.7672 "/>
<path d="M289.0366 77.7672 L289.1196 77.9332 "/>
<path d="M289.1196 77.9332 L289.1196 78.3481 "/>
<path d="M289.1196 78.3481 L289.0366 78.5140 "/>
<path d="M289.0366 78.5140 L288.9536 78.5970 "/>
<path d="M288.9536 78.5970 L288.7877 78.6800 "/>
<path d="M288.7877 78.6800 L288.3728 78.6800 "/>
<path d="M288.3728 78.6800 L288.2068 78.5970 "/>
<path d="M288.2068 78.5970 L288.1238 78.5140 "/>
<path d="M289.7004 76.9374 L290.8621 76.9374 "/>
<path d="M290.8621 76.9374 L290.1153 78.6800 "/>
</g><g transform="rotate(-270.000000 28.6137 145.9099)">
<text x="28.6137" y="146.7812" textLength="17.3985" font-size="2.3234" lengthAdjust="spacingAndGlyphs" text-anchor="middle" opacity="0.01" style="font-family:monospace">46436-9327</text>
</g>
<g class="stroked-text"><desc>46436-9327</desc>
<path d="M28.9806 138.5248 L27.8189 138.5248 "/>
<path d="M29.6445 138.1099 L28.3998 137.6951 "/>
<path d="M28.3998 137.6951 L28.3998 138.7738 "/>
<path d="M29.5615 140.1844 L29.5615 139.8525 "/>
<path d="M29.5615 139.8525 L29.4785 139.6865 "/>
<path d="M29.4785 139.6865 L29.3955 139.6036 "/>
<path d="M29.3955 139.6036 L29.1466 139.4376 "/>
<path d="M29.1466 139.4376 L28.8147 139.3546 "/>
<path d="M28.8147 139.3546 L28.1509 139.3546 "/>
<path d="M28.1509 139.3546 L27.9849 139.4376 "/>
<path d="M27.9849 139.4376 L27.9019 139.5206 "/>
<path d="M27.9019 139.5206 L27.8189 139.6865 "/>
<path d="M27.8189 139.6865 L27.8189 140.0185 "/>
<path d="M27.8189 140.0185 L27.9019 140.1844 "/>
<path d="M27.9019 140.1844 L27.9849 140.2674 "/>
<path d="M27.9849 140.2674 L28.1509 140.3504 "/>
<path d="M28.1509 140.3504 L28.5657 140.3504 "/>
<path d="M28.5657 140.3504 L28.7317 140.2674 "/>
<path d="M28.7317 140.2674 L28.8147 140.1844 "/>
<path d="M28.8147 140.1844 L28.8977 140.0185 "/>
<path d="M28.8977 140.0185 L28.8977 139.6865 "/>
<path d="M28.8977 139.6865 L28.8147 139.5206 "/>
<path d="M28.8147 139.5206 L28.7317 139.4376 "/>
<path d="M28.7317 139.4376 L28.5657 139.3546 "/>
<path d="M28.9806 141.8440 L27.8189 141.8440 "/>
<path d="M29.6445 141.4291 L28.3998 141.0142 "/>
<path d="M28.3998 141.0142 L28.3998 142.0929 "/>
<path d="M29.5615 142.5908 L29.5615 143.6695 "/>
<path d="M29.5615 143.6695 L28.8977 143.0887 "/>
<path d="M28.8977 143.0887 L28.8977 143.3376 "/>
<path d="M28.8977 143.3376 L28.8147 143.5036 "/>
<path d="M28.8147 143.5036 L28.7317 143.5865 "/>
<path d="M28.7317 143.5865 L28.5657 143.6695 "/>
<path d="M28.5657 143.6695 L28.1509 143.6695 "/>
<path d="M28.1509 143.6695 L27.9849 143.5865 "/>
<path d="M27.9849 143.5865 L27.9019 143.5036 "/>
<path d="M27.9019 143.5036 L27.8189 143.3376 "/>
<path d="M27.8189 143.3376 L27.8189 142.8397 "/>
<path d="M27.8189 142.8397 L27.9019 142.6738 "/>
<path d="M27.9019 142.6738 L27.9849 142.5908 "/>
<path d="M29.5615 145.1631 L29.5615 144.8312 "/>
<path d="M29.5615 144.8312 L29.4785 144.6653 "/>
<path d="M29.4785 144.6653 L29.3955 144.5823 "/>
<path d="M29.3955 144.5823 L29.1466 144.4163 "/>
<path d="M29.1466 144.4163 L28.8147 144.3333 "/>
<path d="M28.8147 144.3333 L28.1509 144.3333 "/>
<path d="M28.1509 144.3333 L27.9849 144.4163 "/>
<path d="M27.9849 144.4163 L27.9019 144.4993 "/>
<path d="M27.9019 144.4993 L27.8189 144.6653 "/>
<path d="M27.8189 144.6653 L27.8189 144.9972 "/>
<path d="M27.8189 144.9972 L27.9019 145.1631 "/>
<path d="M27.9019 145.1631 L27.9849 145.2461 "/>
<path d="M27.9849 145.2461 L28.1509 145.3291 "/>
<path d="M28.1509 145.3291 L28.5657 145.3291 "/>
<path d="M28.5657 145.3291 L28.7317 145.2461 "/>
<path d="M28.7317 145.2461 L28.8147 145.1631 "/>
<path d="M28.8147 145.1631 L28.8977 144.9972 "/>
<path d="M28.8977 144.9972 L28.8977 144.6653 "/>
<path d="M28.8977 144.6653 L28.8147 144.4993 "/>
<path d="M28.8147 144.4993 L28.7317 144.4163 "/>
<path d="M28.7317 144.4163 L28.5657 144.3333 "/>
<path d="M28.4828 146.0759 L28.4828 147.4035 "/>
<path d="M27.8189 148.3163 L27.8189 148.6482 "/>
<path d="M27.8189 148.6482 L27.9019 148.8142 "/>
<path d="M27.9019 148.8142 L27.9849 148.8972 "/>
<path d="M27.9849 148.8972 L28.2338 149.0631 "/>
<path d="M28.2338 149.0631 L28.5657 149.1461 "/>
<path d="M28.5657 149.1461 L29.2296 149.1461 "/>
<path d="M29.2296 149.1461 L29.3955 149.0631 "/>
<path d="M29.3955 149.0631 L29.4785 148.9801 "/>
<path d="M29.4785 148.9801 L29.5615 148.8142 "/>
<path d="M29.5615 148.8142 L29.5615 148.4823 "/>
<path d="M29.5615 148.4823 L29.4785 148.3163 "/>
<path d="M29.4785 148.3163 L29.3955 148.2333 "/>
<path d="M29.3955 148.2333 L29.2296 148.1503 "/>
<path d="M29.2296 148.1503 L28.8147 148.1503 "/>
<path d="M28.8147 148.1503 L28.6487 148.2333 "/>
<path d="M28.6487 148.2333 L28.5657 148.3163 "/>
<path d="M28.5657 148.3163 L28.4828 148.4823 "/>
<path d="M28.4828 148.4823 L28.4828 148.8142 "/>
<path d="M28.4828 148.8142 L28.5657 148.9801 "/>
<path d="M28.5657 148.9801 L28.6487 149.0631 "/>
<path d="M28.6487 149.0631 L28.8147 149.1461 "/>
<path d="M29.5615 149.7269 L29.5615 150.8057 "/>
<path d="M29.5615 150.8057 L28.8977 150.2248 "/>
<path d="M28.8977 150.2248 L28.8977 150.4737 "/>
<path d="M28.8977 150.4737 L28.8147 150.6397 "/>
<path d="M28.8147 150.6397 L28.7317 150.7227 "/>
<path d="M28.7317 150.7227 L28.5657 150.8057 "/>
<path d="M28.5657 150.8057 L28.1509 150.8057 "/>
<path d="M28.1509 150.8057 L27.9849 150.7227 "/>
<path d="M27.9849 150.7227 L27.9019 150.6397 "/>
<path d="M27.9019 150.6397 L27.8189 150.4737 "/>
<path d="M27.8189 150.4737 L27.8189 149.9759 "/>
<path d="M27.8189 149.9759 L27.9019 149.8099 "/>
<path d="M27.9019 149.8099 L27.9849 149.7269 "/>
<path d="M29.3955 151.4695 L29.4785 151.5525 "/>
<path d="M29.4785 151.5525 L29.5615 151.7184 "/>
<path d="M29.5615 151.7184 L29.5615 152.1333 "/>
<path d="M29.5615 152.1333 L29.4785 152.2993 "/>
<path d="M29.4785 152.2993 L29.3955 152.3823 "/>
<path d="M29.3955 152.3823 L29.2296 152.4652 "/>
<path d="M29.2296 152.4652 L29.0636 152.4652 "/>
<path d="M29.0636 152.4652 L28.8147 152.3823 "/>
<path d="M28.8147 152.3823 L27.8189 151.3865 "/>
<path d="M27.8189 151.3865 L27.8189 152.4652 "/>
<path d="M29.5615 153.0461 L29.5615 154.2078 "/>
<path d="M29.5615 154.2078 L27.8189 153.4610 "/>
</g><g transform="rotate(-270.000000 25.3465 145.9099)">
<text x="25.3465" y="146.7812" textLength="3.2922" font-size="2.3234" lengthAdjust="spacingAndGlyphs" text-anchor="middle" opacity="0.01" style="font-family:monospace">J4</text>
</g>
<g class="stroked-text"><desc>J4</desc>
<path d="M26.2942 145.3291 L25.0495 145.3291 "/>
<path d="M25.0495 145.3291 L24.8006 145.2461 "/>
<path d="M24.8006 145.2461 L24.6346 145.0801 "/>
<path d="M24.6346 145.0801 L24.5517 144.8312 "/>
<path d="M24.5517 144.8312 L24.5517 144.6653 "/>
<path d="M25.7134 146.9057 L24.5517 146.9057 "/>
<path d="M26.3772 146.4908 L25.1325 146.0759 "/>
<path d="M25.1325 146.0759 L25.1325 147.1546 "/>
</g><g transform="rotate(-90.000000 283.2437 137.1318)">
<text x="283.2437" y="138.0031" textLength="16.2368" font-size="2.3234" lengthAdjust="spacingAndGlyphs" text-anchor="middle" opacity="0.01" style="font-family:monospace">SKRTLAE010</text>
</g>
<g class="stroked-text"><desc>SKRTLAE010</desc>
<path d="M283.9555 144.7659 L284.0385 144.5169 "/>
<path d="M284.0385 144.5169 L284.0385 144.1020 "/>
<path d="M284.0385 144.1020 L283.9555 143.9361 "/>
<path d="M283.9555 143.9361 L283.8725 143.8531 "/>
<path d="M283.8725 143.8531 L283.7066 143.7701 "/>
<path d="M283.7066 143.7701 L283.5406 143.7701 "/>
<path d="M283.5406 143.7701 L283.3747 143.8531 "/>
<path d="M283.3747 143.8531 L283.2917 143.9361 "/>
<path d="M283.2917 143.9361 L283.2087 144.1020 "/>
<path d="M283.2087 144.1020 L283.1257 144.4339 "/>
<path d="M283.1257 144.4339 L283.0427 144.5999 "/>
<path d="M283.0427 144.5999 L282.9598 144.6829 "/>
<path d="M282.9598 144.6829 L282.7938 144.7659 "/>
<path d="M282.7938 144.7659 L282.6279 144.7659 "/>
<path d="M282.6279 144.7659 L282.4619 144.6829 "/>
<path d="M282.4619 144.6829 L282.3789 144.5999 "/>
<path d="M282.3789 144.5999 L282.2959 144.4339 "/>
<path d="M282.2959 144.4339 L282.2959 144.0191 "/>
<path d="M282.2959 144.0191 L282.3789 143.7701 "/>
<path d="M284.0385 143.0233 L282.2959 143.0233 "/>
<path d="M284.0385 142.0276 L283.0427 142.7744 "/>
<path d="M282.2959 142.0276 L283.2917 143.0233 "/>
<path d="M284.0385 140.2850 L283.2087 140.8659 "/>
<path d="M284.0385 141.2808 L282.2959 141.2808 "/>
<path d="M282.2959 141.2808 L282.2959 140.6169 "/>
<path d="M282.2959 140.6169 L282.3789 140.4510 "/>
<path d="M282.3789 140.4510 L282.4619 140.3680 "/>
<path d="M282.4619 140.3680 L282.6279 140.2850 "/>
<path d="M282.6279 140.2850 L282.8768 140.2850 "/>
<path d="M282.8768 140.2850 L283.0427 140.3680 "/>
<path d="M283.0427 140.3680 L283.1257 140.4510 "/>
<path d="M283.1257 140.4510 L283.2087 140.6169 "/>
<path d="M283.2087 140.6169 L283.2087 141.2808 "/>
<path d="M282.2959 139.7872 L282.2959 138.7914 "/>
<path d="M284.0385 139.2893 L282.2959 139.2893 "/>
<path d="M284.0385 137.3808 L284.0385 138.2106 "/>
<path d="M284.0385 138.2106 L282.2959 138.2106 "/>
<path d="M283.5406 136.8829 L283.5406 136.0531 "/>
<path d="M284.0385 137.0489 L282.2959 136.4680 "/>
<path d="M282.2959 136.4680 L284.0385 135.8872 "/>
<path d="M283.1257 135.3063 L283.1257 134.7255 "/>
<path d="M284.0385 134.4765 L284.0385 135.3063 "/>
<path d="M284.0385 135.3063 L282.2959 135.3063 "/>
<path d="M282.2959 135.3063 L282.2959 134.4765 "/>
<path d="M282.2959 133.3978 L282.2959 133.2318 "/>
<path d="M282.2959 133.2318 L282.3789 133.0659 "/>
<path d="M282.3789 133.0659 L282.4619 132.9829 "/>
<path d="M282.4619 132.9829 L282.6279 132.8999 "/>
<path d="M282.6279 132.8999 L282.9598 132.8170 "/>
<path d="M282.9598 132.8170 L283.3747 132.8170 "/>
<path d="M283.3747 132.8170 L283.7066 132.8999 "/>
<path d="M283.7066 132.8999 L283.8725 132.9829 "/>
<path d="M283.8725 132.9829 L283.9555 133.0659 "/>
<path d="M283.9555 133.0659 L284.0385 133.2318 "/>
<path d="M284.0385 133.2318 L284.0385 133.3978 "/>
<path d="M284.0385 133.3978 L283.9555 133.5638 "/>
<path d="M283.9555 133.5638 L283.8725 133.6467 "/>
<path d="M283.8725 133.6467 L283.7066 133.7297 "/>
<path d="M283.7066 133.7297 L283.3747 133.8127 "/>
<path d="M283.3747 133.8127 L282.9598 133.8127 "/>
<path d="M282.9598 133.8127 L282.6279 133.7297 "/>
<path d="M282.6279 133.7297 L282.4619 133.6467 "/>
<path d="M282.4619 133.6467 L282.3789 133.5638 "/>
<path d="M282.3789 133.5638 L282.2959 133.3978 "/>
<path d="M284.0385 131.1574 L284.0385 132.1531 "/>
<path d="M284.0385 131.6553 L282.2959 131.6553 "/>
<path d="M282.2959 131.6553 L282.5449 131.8212 "/>
<path d="M282.5449 131.8212 L282.7108 131.9872 "/>
<path d="M282.7108 131.9872 L282.7938 132.1531 "/>
<path d="M282.2959 130.0787 L282.2959 129.9127 "/>
<path d="M282.2959 129.9127 L282.3789 129.7467 "/>
<path d="M282.3789 129.7467 L282.4619 129.6638 "/>
<path d="M282.4619 129.6638 L282.6279 129.5808 "/>
<path d="M282.6279 129.5808 L282.9598 129.4978 "/>
<path d="M282.9598 129.4978 L283.3747 129.4978 "/>
<path d="M283.3747 129.4978 L283.7066 129.5808 "/>
<path d="M283.7066 129.5808 L283.8725 129.6638 "/>
<path d="M283.8725 129.6638 L283.9555 129.7467 "/>
<path d="M283.9555 129.7467 L284.0385 129.9127 "/>
<path d="M284.0385 129.9127 L284.0385 130.0787 "/>
<path d="M284.0385 130.0787 L283.9555 130.2446 "/>
<path d="M283.9555 130.2446 L283.8725 130.3276 "/>
<path d="M283.8725 130.3276 L283.7066 130.4106 "/>
<path d="M283.7066 130.4106 L283.3747 130.4936 "/>
<path d="M283.3747 130.4936 L282.9598 130.4936 "/>
<path d="M282.9598 130.4936 L282.6279 130.4106 "/>
<path d="M282.6279 130.4106 L282.4619 130.3276 "/>
<path d="M282.4619 130.3276 L282.3789 130.2446 "/>
<path d="M282.3789 130.2446 L282.2959 130.0787 "/>
</g><g transform="rotate(-180.000000 281.1744 130.0527)">
<text x="281.1744" y="130.9240" textLength="5.6156" font-size="2.3234" lengthAdjust="spacingAndGlyphs" text-anchor="middle" opacity="0.01" style="font-family:monospace">SW1</text>
</g>
<g class="stroked-text"><desc>SW1</desc>
<path d="M283.4978 129.3409 L283.2489 129.2579 "/>
<path d="M283.2489 129.2579 L282.8340 129.2579 "/>
<path d="M282.8340 129.2579 L282.6680 129.3409 "/>
<path d="M282.6680 129.3409 L282.5850 129.4239 "/>
<path d="M282.5850 129.4239 L282.5021 129.5898 "/>
<path d="M282.5021 129.5898 L282.5021 129.7558 "/>
<path d="M282.5021 129.7558 L282.5850 129.9218 "/>
<path d="M282.5850 129.9218 L282.6680 130.0047 "/>
<path d="M282.6680 130.0047 L282.8340 130.0877 "/>
<path d="M282.8340 130.0877 L283.1659 130.1707 "/>
<path d="M283.1659 130.1707 L283.3318 130.2537 "/>
<path d="M283.3318 130.2537 L283.4148 130.3366 "/>
<path d="M283.4148 130.3366 L283.4978 130.5026 "/>
<path d="M283.4978 130.5026 L283.4978 130.6686 "/>
<path d="M283.4978 130.6686 L283.4148 130.8345 "/>
<path d="M283.4148 130.8345 L283.3318 130.9175 "/>
<path d="M283.3318 130.9175 L283.1659 131.0005 "/>
<path d="M283.1659 131.0005 L282.7510 131.0005 "/>
<path d="M282.7510 131.0005 L282.5021 130.9175 "/>
<path d="M281.9212 131.0005 L281.5063 129.2579 "/>
<path d="M281.5063 129.2579 L281.1744 130.5026 "/>
<path d="M281.1744 130.5026 L280.8425 129.2579 "/>
<path d="M280.8425 129.2579 L280.4276 131.0005 "/>
<path d="M278.8510 129.2579 L279.8467 129.2579 "/>
<path d="M279.3489 129.2579 L279.3489 131.0005 "/>
<path d="M279.3489 131.0005 L279.5148 130.7515 "/>
<path d="M279.5148 130.7515 L279.6808 130.5856 "/>
<path d="M279.6808 130.5856 L279.8467 130.5026 "/>
</g><path d="M288.7981 55.9127 L288.7981 51.5564 "/>
<path d="M291.5208 55.9127 L288.7981 55.9127 "/>
<path d="M288.7981 51.5564 L291.5208 51.5564 "/>
<path d="M291.5208 51.5564 L291.5208 55.9127 "/>
<path d="M56.9193 189.6261 L56.9193 20.3811 "/>
<path d="M144.5041 189.6261 L56.9193 189.6261 "/>
<path d="M56.9193 20.3811 L144.5041 20.3811 "/>
<path d="M144.5041 20.3811 L144.5041 189.6261 "/>
<path d="M290.7856 75.0535 L286.4293 75.0535 "/>
<path d="M290.7856 72.3308 L290.7856 75.0535 "/>
<path d="M286.4293 75.0535 L286.4293 72.3308 "/>
<path d="M286.4293 72.3308 L290.7856 72.3308 "/>
<path d="M290.8673 101.3551 L286.5110 101.3551 "/>
<path d="M290.8673 98.6324 L290.8673 101.3551 "/>
<path d="M286.5110 101.3551 L286.5110 98.6324 "/>
<path d="M286.5110 98.6324 L290.8673 98.6324 "/>
<path d="M290.7856 66.5042 L286.4293 66.5042 "/>
<path d="M290.7856 63.7814 L290.7856 66.5042 "/>
<path d="M286.4293 66.5042 L286.4293 63.7814 "/>
<path d="M286.4293 63.7814 L290.7856 63.7814 "/>
<path d="M166.8196 63.7814 L171.1760 63.7814 "/>
<path d="M166.8196 66.5042 L166.8196 63.7814 "/>
<path d="M171.1760 63.7814 L171.1760 66.5042 "/>
<path d="M171.1760 66.5042 L166.8196 66.5042 "/>
<circle cx="287.3604" cy="27.5473" r="6.5340"/> 
<path d="M124.1272 66.5042 L119.7708 66.5042 "/>
<path d="M124.1272 63.7814 L124.1272 66.5042 "/>
<path d="M119.7708 66.5042 L119.7708 63.7814 "/>
<path d="M119.7708 63.7814 L124.1272 63.7814 "/>
<path d="M290.7584 92.8602 L286.4020 92.8602 "/>
<path d="M290.7584 90.1375 L290.7584 92.8602 "/>
<path d="M286.4020 92.8602 L286.4020 90.1375 "/>
<path d="M286.4020 90.1375 L290.7584 90.1375 "/>
<circle cx="21.7960" cy="27.5473" r="6.5340"/> 
<path d="M146.0289 189.6261 L146.0289 20.3811 "/>
<path d="M276.0448 189.6261 L146.0289 189.6261 "/>
<path d="M146.0289 20.3811 L276.0448 20.3811 "/>
<path d="M276.0448 20.3811 L276.0448 189.6261 "/>
<path d="M291.5208 44.0688 L291.5208 48.4252 "/>
<path d="M288.7981 44.0688 L291.5208 44.0688 "/>
<path d="M291.5208 48.4252 L288.7981 48.4252 "/>
<path d="M288.7981 48.4252 L288.7981 44.0688 "/>
<circle cx="287.3604" cy="182.4599" r="6.5340"/> 
<path d="M290.9218 105.6026 L286.5654 105.6026 "/>
<path d="M290.9218 102.8799 L290.9218 105.6026 "/>
<path d="M286.5654 105.6026 L286.5654 102.8799 "/>
<path d="M286.5654 102.8799 L290.9218 102.8799 "/>
<path d="M290.7856 70.7516 L286.4293 70.7516 "/>
<path d="M290.7856 68.0289 L290.7856 70.7516 "/>
<path d="M286.4293 70.7516 L286.4293 68.0289 "/>
<path d="M286.4293 68.0289 L290.7856 68.0289 "/>
<path d="M290.8129 97.1077 L286.4565 97.1077 "/>
<path d="M290.8129 94.3849 L290.8129 97.1077 "/>
<path d="M286.4565 97.1077 L286.4565 94.3849 "/>
<path d="M286.4565 94.3849 L290.8129 94.3849 "/>
<circle cx="21.7960" cy="182.4599" r="6.5340"/> 
<path d="M290.7584 79.2466 L286.4020 79.2466 "/>
<path d="M290.7584 76.5238 L290.7584 79.2466 "/>
<path d="M286.4020 79.2466 L286.4020 76.5238 "/>
<path d="M286.4020 76.5238 L290.7584 76.5238 "/>
<g>
</g>
<g>
</g>
<g>
</g>
<g>
</g>
<g>
</g>
<g>
</g>
<g>
</g>
<g>
</g>
<g>
</g>
<g>
</g>
<g>
</g>
<g>
</g>
<g>
</g>
<g>
</g>
<g>
</g>
<g>
</g>
<g>
</g>
<g>
</g>
<g>
</g>
<g>
</g>
<g>
</g>
<g>
</g>
<g>
</g>
<g>
</g>
<g>
</g>
<g>
</g>
<g>
</g>
<g>
</g>
<g>
</g>
<g>
</g>
<g>
</g>
<g>
</g>
<g>
</g>
<g>
</g>
<g>
</g>
<g>
</g>
<g>
</g>
<g>
</g>
<g>
</g>
<g>
</g>
<g>
</g>
<g>
</g>
<g>
</g>
<g>
</g>
<g>
</g>
<g>
</g>
<g>
</g>
<g>
</g>
<g>
</g>
<g>
</g>
<g>
</g>
<g>
</g>
<g>
</g>
<g>
</g>
<g>
</g>
<g>
</g>
<g>
</g>
<g>
</g>
<g>
</g>
<g>
</g>
<g>
</g>
<g>
</g>
<g>
</g>
<g>
</g>
<g>
</g>
<g>
</g>
<g>
</g>
<g>
</g>
<g>
</g>
<g>
</g>
<g>
</g>
<g>
</g>
<g>
</g>
<g>
</g>
<g>
</g>
<g>
</g>
<g>
</g>
<g>
</g>
<g>
</g>
<g>
</g>
<g>
</g>
<g>
</g>
<g>
</g>
<g>
</g>
<g>
</g>
<g>
</g>
<g>
</g>
<g>
</g>
<g>
</g>
<g>
</g>
<g>
</g>
<g>
</g>
<g>
</g>
<g>
</g>
<g>
</g>
<g>
</g>
<g>
</g>
<g>
</g>
<g>
</g>
<g>
</g>
<g>
</g>
<g>
</g>
<g>
</g>
<g>
</g>
<g>
</g>
<g>
</g>
<g>
</g>
<g>
</g>
<g>
</g>
<g>
</g>
<g>
</g>
<g>
</g>
<g>
</g>
<g>
</g>
<g>
</g>
<g>
</g>
<g>
</g>
<g>
</g>
<g>
</g>
<g>
</g>
<g>
</g>
<g>
</g>
<g>
</g>
<g>
</g>
<g>
</g>
<g>
</g>
<g>
</g>
<g>
</g>
<g>
</g>
<g>
</g>
<g>
</g>
<g>
</g>
<g>
</g>
<g>
</g>
<g>
</g>
<g>
</g>
<g>
</g>
<g>
</g>
<g>
</g>
<g>
</g>
<g>
</g>
<g>
</g>
<g>
</g>
<g>
</g>
<g>
</g>
<g>
</g>
<g>
</g>
<g>
</g>
<g>
</g>
<g>
</g>
<g>
</g>
<g>
</g>
<g>
</g>
<g>
</g>
<g>
</g>
<g>
</g>
<g>
</g>
<g>
</g>
<g>
</g>
<g>
</g>
<g>
</g>
<g>
</g>
<g>
</g>
<g>
</g>
<g>
</g>
<g>
</g>
<g>
</g>
<g>
</g>
<g>
</g>
<g>
</g>
<g>
</g>
<g>
</g>
<g>
</g>
<g>
</g>
<g>
</g>
<g>
</g>
<g>
</g>
<g>
</g>
<g>
</g>
<g>
</g>
<g>
</g>
<g>
</g>
<g>
</g>
<g>
</g>
<g>
</g>
<g>
</g>
<g>
</g>
<g>
</g>
<g>
</g>
<g>
</g>
<g>
</g>
<g>
</g>
<g>
</g>
<g>
</g>
<g>
</g>
<g>
</g>
<g>
</g>
<g>
</g>
<g>
</g>
<g>
</g>
<g>
</g>
<g>
</g>
<g>
</g>
<g>
</g>
</g> 
<svg:g><svg:g><svg:title>SVG Image created as BATDATUNIT01-Edge_Cuts.svg date 2023/11/06 00:33:43 </svg:title>
  <svg:desc>Image generated by PCBNEW </svg:desc>
<svg:g style="fill:#C2C200; fill-opacity:1.0000;stroke:#C2C200; stroke-opacity:1.0000; stroke-linecap:round; stroke-linejoin:round;" transform="translate(0 0) scale(1 1)">
</svg:g>
<svg:g style="fill:#C2C200; fill-opacity:0.0;  stroke:#C2C200; stroke-width:0.0000; stroke-opacity:1;  stroke-linecap:round; stroke-linejoin:round;">
</svg:g>
<svg:g style="fill:#C2C200; fill-opacity:0.0;  stroke:#C2C200; stroke-width:0.4356; stroke-opacity:1;  stroke-linecap:round; stroke-linejoin:round;">
<svg:path style="fill:#C2C200; fill-opacity:0.0;  stroke:#C2C200; stroke-width:0.4356; stroke-opacity:1;  stroke-linecap:round; stroke-linejoin:round;fill:none" d="M 0.2189,11.5028 296.7833,11.5028 296.7833,198.5044 0.2189,198.5044 Z"/> 
<svg:g>
</svg:g>
<svg:g>
</svg:g>
<svg:g>
</svg:g>
<svg:g>
</svg:g>
<svg:g>
</svg:g>
<svg:g>
</svg:g>
<svg:g>
</svg:g>
<svg:g>
</svg:g>
<svg:g>
</svg:g>
<svg:g>
</svg:g>
<svg:g>
</svg:g>
<svg:g>
</svg:g>
<svg:g>
</svg:g>
<svg:g>
</svg:g>
<svg:g>
</svg:g>
<svg:g>
</svg:g>
<svg:g>
</svg:g>
<svg:g>
</svg:g>
<svg:g>
</svg:g>
<svg:g>
</svg:g>
<svg:g>
</svg:g>
<svg:g>
</svg:g>
<svg:g>
</svg:g>
<svg:g>
</svg:g>
<svg:g>
</svg:g>
<svg:g>
</svg:g>
<svg:g>
</svg:g>
<svg:g>
</svg:g>
<svg:g>
</svg:g>
<svg:g>
</svg:g>
<svg:g>
</svg:g>
<svg:g>
</svg:g>
<svg:g>
</svg:g>
<svg:g>
</svg:g>
<svg:g>
</svg:g>
<svg:g>
</svg:g>
<svg:g>
</svg:g>
<svg:g>
</svg:g>
<svg:g>
</svg:g>
<svg:g>
</svg:g>
<svg:g>
</svg:g>
<svg:g>
</svg:g>
<svg:g>
</svg:g>
<svg:g>
</svg:g>
<svg:g>
</svg:g>
<svg:g>
</svg:g>
<svg:g>
</svg:g>
<svg:g>
</svg:g>
<svg:g>
</svg:g>
<svg:g>
</svg:g>
<svg:g>
</svg:g>
<svg:g>
</svg:g>
<svg:g>
</svg:g>
<svg:g>
</svg:g>
<svg:g>
</svg:g>
<svg:g>
</svg:g>
<svg:g>
</svg:g>
<svg:g>
</svg:g>
<svg:g>
</svg:g>
<svg:g>
</svg:g>
<svg:g>
</svg:g>
<svg:g>
</svg:g>
<svg:g>
</svg:g>
<svg:g>
</svg:g>
<svg:g>
</svg:g>
<svg:g>
</svg:g>
<svg:g>
</svg:g>
<svg:g>
</svg:g>
<svg:g>
</svg:g>
<svg:g>
</svg:g>
<svg:g>
</svg:g>
<svg:g>
</svg:g>
<svg:g>
</svg:g>
<svg:g>
</svg:g>
<svg:g>
</svg:g>
<svg:g>
</svg:g>
<svg:g>
</svg:g>
<svg:g>
</svg:g>
<svg:g>
</svg:g>
<svg:g>
</svg:g>
<svg:g>
</svg:g>
<svg:g>
</svg:g>
<svg:g>
</svg:g>
<svg:g>
</svg:g>
<svg:g>
</svg:g>
<svg:g>
</svg:g>
<svg:g>
</svg:g>
<svg:g>
</svg:g>
<svg:g>
</svg:g>
<svg:g>
</svg:g>
<svg:g>
</svg:g>
<svg:g>
</svg:g>
<svg:g>
</svg:g>
<svg:g>
</svg:g>
<svg:g>
</svg:g>
<svg:g>
</svg:g>
<svg:g>
</svg:g>
<svg:g>
</svg:g>
<svg:g>
</svg:g>
<svg:g>
</svg:g>
<svg:g>
</svg:g>
<svg:g>
</svg:g>
<svg:g>
</svg:g>
<svg:g>
</svg:g>
<svg:g>
</svg:g>
<svg:g>
</svg:g>
<svg:g>
</svg:g>
<svg:g>
</svg:g>
<svg:g>
</svg:g>
<svg:g>
</svg:g>
<svg:g>
</svg:g>
<svg:g>
</svg:g>
<svg:g>
</svg:g>
<svg:g>
</svg:g>
<svg:g>
</svg:g>
<svg:g>
</svg:g>
<svg:g>
</svg:g>
<svg:g>
</svg:g>
<svg:g>
</svg:g>
<svg:g>
</svg:g>
<svg:g>
</svg:g>
<svg:g>
</svg:g>
<svg:g>
</svg:g>
<svg:g>
</svg:g>
<svg:g>
</svg:g>
<svg:g>
</svg:g>
<svg:g>
</svg:g>
<svg:g>
</svg:g>
<svg:g>
</svg:g>
<svg:g>
</svg:g>
<svg:g>
</svg:g>
<svg:g>
</svg:g>
<svg:g>
</svg:g>
<svg:g>
</svg:g>
<svg:g>
</svg:g>
<svg:g>
</svg:g>
<svg:g>
</svg:g>
<svg:g>
</svg:g>
<svg:g>
</svg:g>
<svg:g>
</svg:g>
<svg:g>
</svg:g>
<svg:g>
</svg:g>
<svg:g>
</svg:g>
<svg:g>
</svg:g>
<svg:g>
</svg:g>
<svg:g>
</svg:g>
<svg:g>
</svg:g>
<svg:g>
</svg:g>
<svg:g>
</svg:g>
<svg:g>
</svg:g>
<svg:g>
</svg:g>
<svg:g>
</svg:g>
<svg:g>
</svg:g>
<svg:g>
</svg:g>
<svg:g>
</svg:g>
<svg:g>
</svg:g>
<svg:g>
</svg:g>
<svg:g>
</svg:g>
<svg:g>
</svg:g>
<svg:g>
</svg:g>
<svg:g>
</svg:g>
<svg:g>
</svg:g>
<svg:g>
</svg:g>
<svg:g>
</svg:g>
<svg:g>
</svg:g>
<svg:g>
</svg:g>
<svg:g>
</svg:g>
<svg:g>
</svg:g>
<svg:g>
</svg:g>
<svg:g>
</svg:g>
<svg:g>
</svg:g>
<svg:g>
</svg:g>
<svg:g>
</svg:g>
<svg:g>
</svg:g>
<svg:g>
</svg:g>
<svg:g>
</svg:g>
<svg:g>
</svg:g>
<svg:g>
</svg:g>
<svg:g>
</svg:g>
<svg:g>
</svg:g>
<svg:g>
</svg:g>
<svg:g>
</svg:g>
<svg:g>
</svg:g>
<svg:g>
</svg:g>
<svg:g>
</svg:g>
<svg:g>
</svg:g>
<svg:g>
</svg:g>
<svg:g>
</svg:g>
<svg:g>
</svg:g>
<svg:g>
</svg:g>
<svg:g>
</svg:g>
<svg:g>
</svg:g>
<svg:g>
</svg:g>
<svg:g>
</svg:g>
<svg:g>
</svg:g>
<svg:g>
</svg:g>
<svg:g>
</svg:g>
<svg:g>
</svg:g>
<svg:g>
</svg:g>
<svg:g>
</svg:g>
<svg:g>
</svg:g>
<svg:g>
</svg:g>
<svg:g>
</svg:g>
<svg:g>
</svg:g>
</svg:g> 
</svg:g></svg:g></svg>
