<?xml version='1.0' encoding='ASCII' standalone='yes'?>
<svg xmlns:svg="http://www.w3.org/2000/svg" xmlns="http://www.w3.org/2000/svg" xmlns:xlink="http://www.w3.org/1999/xlink" version="1.1" width="297.0022mm" height="210.0072mm" viewBox="0.0000 0.0000 297.0022 210.0072">
<title>SVG Image created as BATDATUNIT01-F_Fab.svg date 2023/11/18 22:32:07 </title>
  <desc>Image generated by PCBNEW </desc>
<g style="fill:#848484; fill-opacity:1.0000;stroke:#848484; stroke-opacity:1.0000; stroke-linecap:round; stroke-linejoin:round;" transform="translate(0 0) scale(1 1)">
</g>
<g style="fill:#848484; fill-opacity:0.0;  stroke:#848484; stroke-width:0.0000; stroke-opacity:1;  stroke-linecap:round; stroke-linejoin:round;">
</g>
<g style="fill:#848484; fill-opacity:0.01;  stroke:#848484; stroke-width:0.2178; stroke-opacity:1;  stroke-linecap:round; stroke-linejoin:round;">
<g transform="rotate(-90.000000 293.2633 53.7345)">
<text x="293.2633" y="54.6058" textLength="7.0262" font-size="2.3234" lengthAdjust="spacingAndGlyphs" text-anchor="middle" opacity="0.01" style="font-family:monospace">270R</text>
</g>
<g class="stroked-text"><desc>270R</desc>
<path d="M292.4815 56.7633 L292.3986 56.6803 "/>
<path d="M292.3986 56.6803 L292.3156 56.5143 "/>
<path d="M292.3156 56.5143 L292.3156 56.0994 "/>
<path d="M292.3156 56.0994 L292.3986 55.9335 "/>
<path d="M292.3986 55.9335 L292.4815 55.8505 "/>
<path d="M292.4815 55.8505 L292.6475 55.7675 "/>
<path d="M292.6475 55.7675 L292.8135 55.7675 "/>
<path d="M292.8135 55.7675 L293.0624 55.8505 "/>
<path d="M293.0624 55.8505 L294.0581 56.8462 "/>
<path d="M294.0581 56.8462 L294.0581 55.7675 "/>
<path d="M292.3156 55.1867 L292.3156 54.0250 "/>
<path d="M292.3156 54.0250 L294.0581 54.7718 "/>
<path d="M292.3156 53.0292 L292.3156 52.8633 "/>
<path d="M292.3156 52.8633 L292.3986 52.6973 "/>
<path d="M292.3986 52.6973 L292.4815 52.6143 "/>
<path d="M292.4815 52.6143 L292.6475 52.5314 "/>
<path d="M292.6475 52.5314 L292.9794 52.4484 "/>
<path d="M292.9794 52.4484 L293.3943 52.4484 "/>
<path d="M293.3943 52.4484 L293.7262 52.5314 "/>
<path d="M293.7262 52.5314 L293.8922 52.6143 "/>
<path d="M293.8922 52.6143 L293.9752 52.6973 "/>
<path d="M293.9752 52.6973 L294.0581 52.8633 "/>
<path d="M294.0581 52.8633 L294.0581 53.0292 "/>
<path d="M294.0581 53.0292 L293.9752 53.1952 "/>
<path d="M293.9752 53.1952 L293.8922 53.2782 "/>
<path d="M293.8922 53.2782 L293.7262 53.3611 "/>
<path d="M293.7262 53.3611 L293.3943 53.4441 "/>
<path d="M293.3943 53.4441 L292.9794 53.4441 "/>
<path d="M292.9794 53.4441 L292.6475 53.3611 "/>
<path d="M292.6475 53.3611 L292.4815 53.2782 "/>
<path d="M292.4815 53.2782 L292.3986 53.1952 "/>
<path d="M292.3986 53.1952 L292.3156 53.0292 "/>
<path d="M294.0581 50.7058 L293.2284 51.2867 "/>
<path d="M294.0581 51.7016 L292.3156 51.7016 "/>
<path d="M292.3156 51.7016 L292.3156 51.0377 "/>
<path d="M292.3156 51.0377 L292.3986 50.8718 "/>
<path d="M292.3986 50.8718 L292.4815 50.7888 "/>
<path d="M292.4815 50.7888 L292.6475 50.7058 "/>
<path d="M292.6475 50.7058 L292.8964 50.7058 "/>
<path d="M292.8964 50.7058 L293.0624 50.7888 "/>
<path d="M293.0624 50.7888 L293.1454 50.8718 "/>
<path d="M293.1454 50.8718 L293.2284 51.0377 "/>
<path d="M293.2284 51.0377 L293.2284 51.7016 "/>
</g><g transform="rotate(-90.000000 289.6693 53.7345)">
<text x="289.6693" y="54.6058" textLength="5.3666" font-size="2.3234" lengthAdjust="spacingAndGlyphs" text-anchor="middle" opacity="0.01" style="font-family:monospace">R14</text>
</g>
<g class="stroked-text"><desc>R14</desc>
<path d="M290.4641 54.8548 L289.6343 55.4356 "/>
<path d="M290.4641 55.8505 L288.7216 55.8505 "/>
<path d="M288.7216 55.8505 L288.7216 55.1867 "/>
<path d="M288.7216 55.1867 L288.8046 55.0207 "/>
<path d="M288.8046 55.0207 L288.8875 54.9377 "/>
<path d="M288.8875 54.9377 L289.0535 54.8548 "/>
<path d="M289.0535 54.8548 L289.3024 54.8548 "/>
<path d="M289.3024 54.8548 L289.4684 54.9377 "/>
<path d="M289.4684 54.9377 L289.5514 55.0207 "/>
<path d="M289.5514 55.0207 L289.6343 55.1867 "/>
<path d="M289.6343 55.1867 L289.6343 55.8505 "/>
<path d="M290.4641 53.1952 L290.4641 54.1909 "/>
<path d="M290.4641 53.6931 L288.7216 53.6931 "/>
<path d="M288.7216 53.6931 L288.9705 53.8590 "/>
<path d="M288.9705 53.8590 L289.1365 54.0250 "/>
<path d="M289.1365 54.0250 L289.2195 54.1909 "/>
<path d="M289.3024 51.7016 L290.4641 51.7016 "/>
<path d="M288.6386 52.1165 L289.8833 52.5314 "/>
<path d="M289.8833 52.5314 L289.8833 51.4526 "/>
</g><g transform="rotate(-90.000000 152.4763 98.4146)">
<text x="152.4763" y="99.2859" textLength="6.1964" font-size="2.3234" lengthAdjust="spacingAndGlyphs" text-anchor="middle" opacity="0.01" style="font-family:monospace">BATT</text>
</g>
<g class="stroked-text"><desc>BATT</desc>
<path d="M152.3583 100.3646 L152.4413 100.1156 "/>
<path d="M152.4413 100.1156 L152.5243 100.0327 "/>
<path d="M152.5243 100.0327 L152.6902 99.9497 "/>
<path d="M152.6902 99.9497 L152.9392 99.9497 "/>
<path d="M152.9392 99.9497 L153.1051 100.0327 "/>
<path d="M153.1051 100.0327 L153.1881 100.1156 "/>
<path d="M153.1881 100.1156 L153.2711 100.2816 "/>
<path d="M153.2711 100.2816 L153.2711 100.9454 "/>
<path d="M153.2711 100.9454 L151.5285 100.9454 "/>
<path d="M151.5285 100.9454 L151.5285 100.3646 "/>
<path d="M151.5285 100.3646 L151.6115 100.1986 "/>
<path d="M151.6115 100.1986 L151.6945 100.1156 "/>
<path d="M151.6945 100.1156 L151.8605 100.0327 "/>
<path d="M151.8605 100.0327 L152.0264 100.0327 "/>
<path d="M152.0264 100.0327 L152.1924 100.1156 "/>
<path d="M152.1924 100.1156 L152.2754 100.1986 "/>
<path d="M152.2754 100.1986 L152.3583 100.3646 "/>
<path d="M152.3583 100.3646 L152.3583 100.9454 "/>
<path d="M152.7732 99.2859 L152.7732 98.4561 "/>
<path d="M153.2711 99.4518 L151.5285 98.8710 "/>
<path d="M151.5285 98.8710 L153.2711 98.2901 "/>
<path d="M151.5285 97.9582 L151.5285 96.9625 "/>
<path d="M153.2711 97.4603 L151.5285 97.4603 "/>
<path d="M151.5285 96.6305 L151.5285 95.6348 "/>
<path d="M153.2711 96.1327 L151.5285 96.1327 "/>
</g><text x="288.1718" y="70.9272" textLength="7.0262" font-size="2.3234" lengthAdjust="spacingAndGlyphs" text-anchor="middle" opacity="0.01" style="font-family:monospace">270R</text>
<g class="stroked-text"><desc>270R</desc>
<path d="M285.1431 69.2742 L285.2261 69.1912 "/>
<path d="M285.2261 69.1912 L285.3920 69.1082 "/>
<path d="M285.3920 69.1082 L285.8069 69.1082 "/>
<path d="M285.8069 69.1082 L285.9729 69.1912 "/>
<path d="M285.9729 69.1912 L286.0559 69.2742 "/>
<path d="M286.0559 69.2742 L286.1388 69.4401 "/>
<path d="M286.1388 69.4401 L286.1388 69.6061 "/>
<path d="M286.1388 69.6061 L286.0559 69.8550 "/>
<path d="M286.0559 69.8550 L285.0601 70.8507 "/>
<path d="M285.0601 70.8507 L286.1388 70.8507 "/>
<path d="M286.7197 69.1082 L287.8814 69.1082 "/>
<path d="M287.8814 69.1082 L287.1346 70.8507 "/>
<path d="M288.8771 69.1082 L289.0431 69.1082 "/>
<path d="M289.0431 69.1082 L289.2091 69.1912 "/>
<path d="M289.2091 69.1912 L289.2920 69.2742 "/>
<path d="M289.2920 69.2742 L289.3750 69.4401 "/>
<path d="M289.3750 69.4401 L289.4580 69.7720 "/>
<path d="M289.4580 69.7720 L289.4580 70.1869 "/>
<path d="M289.4580 70.1869 L289.3750 70.5188 "/>
<path d="M289.3750 70.5188 L289.2920 70.6848 "/>
<path d="M289.2920 70.6848 L289.2091 70.7678 "/>
<path d="M289.2091 70.7678 L289.0431 70.8507 "/>
<path d="M289.0431 70.8507 L288.8771 70.8507 "/>
<path d="M288.8771 70.8507 L288.7112 70.7678 "/>
<path d="M288.7112 70.7678 L288.6282 70.6848 "/>
<path d="M288.6282 70.6848 L288.5452 70.5188 "/>
<path d="M288.5452 70.5188 L288.4622 70.1869 "/>
<path d="M288.4622 70.1869 L288.4622 69.7720 "/>
<path d="M288.4622 69.7720 L288.5452 69.4401 "/>
<path d="M288.5452 69.4401 L288.6282 69.2742 "/>
<path d="M288.6282 69.2742 L288.7112 69.1912 "/>
<path d="M288.7112 69.1912 L288.8771 69.1082 "/>
<path d="M291.2005 70.8507 L290.6197 70.0210 "/>
<path d="M290.2048 70.8507 L290.2048 69.1082 "/>
<path d="M290.2048 69.1082 L290.8686 69.1082 "/>
<path d="M290.8686 69.1082 L291.0346 69.1912 "/>
<path d="M291.0346 69.1912 L291.1176 69.2742 "/>
<path d="M291.1176 69.2742 L291.2005 69.4401 "/>
<path d="M291.2005 69.4401 L291.2005 69.6890 "/>
<path d="M291.2005 69.6890 L291.1176 69.8550 "/>
<path d="M291.1176 69.8550 L291.0346 69.9380 "/>
<path d="M291.0346 69.9380 L290.8686 70.0210 "/>
<path d="M290.8686 70.0210 L290.2048 70.0210 "/>
</g><text x="288.1718" y="74.5212" textLength="5.3666" font-size="2.3234" lengthAdjust="spacingAndGlyphs" text-anchor="middle" opacity="0.01" style="font-family:monospace">R58</text>
<g class="stroked-text"><desc>R58</desc>
<path d="M287.0516 74.4448 L286.4708 73.6150 "/>
<path d="M286.0559 74.4448 L286.0559 72.7022 "/>
<path d="M286.0559 72.7022 L286.7197 72.7022 "/>
<path d="M286.7197 72.7022 L286.8857 72.7852 "/>
<path d="M286.8857 72.7852 L286.9686 72.8682 "/>
<path d="M286.9686 72.8682 L287.0516 73.0341 "/>
<path d="M287.0516 73.0341 L287.0516 73.2831 "/>
<path d="M287.0516 73.2831 L286.9686 73.4490 "/>
<path d="M286.9686 73.4490 L286.8857 73.5320 "/>
<path d="M286.8857 73.5320 L286.7197 73.6150 "/>
<path d="M286.7197 73.6150 L286.0559 73.6150 "/>
<path d="M288.6282 72.7022 L287.7984 72.7022 "/>
<path d="M287.7984 72.7022 L287.7154 73.5320 "/>
<path d="M287.7154 73.5320 L287.7984 73.4490 "/>
<path d="M287.7984 73.4490 L287.9644 73.3660 "/>
<path d="M287.9644 73.3660 L288.3793 73.3660 "/>
<path d="M288.3793 73.3660 L288.5452 73.4490 "/>
<path d="M288.5452 73.4490 L288.6282 73.5320 "/>
<path d="M288.6282 73.5320 L288.7112 73.6979 "/>
<path d="M288.7112 73.6979 L288.7112 74.1128 "/>
<path d="M288.7112 74.1128 L288.6282 74.2788 "/>
<path d="M288.6282 74.2788 L288.5452 74.3618 "/>
<path d="M288.5452 74.3618 L288.3793 74.4448 "/>
<path d="M288.3793 74.4448 L287.9644 74.4448 "/>
<path d="M287.9644 74.4448 L287.7984 74.3618 "/>
<path d="M287.7984 74.3618 L287.7154 74.2788 "/>
<path d="M289.7069 73.4490 L289.5410 73.3660 "/>
<path d="M289.5410 73.3660 L289.4580 73.2831 "/>
<path d="M289.4580 73.2831 L289.3750 73.1171 "/>
<path d="M289.3750 73.1171 L289.3750 73.0341 "/>
<path d="M289.3750 73.0341 L289.4580 72.8682 "/>
<path d="M289.4580 72.8682 L289.5410 72.7852 "/>
<path d="M289.5410 72.7852 L289.7069 72.7022 "/>
<path d="M289.7069 72.7022 L290.0388 72.7022 "/>
<path d="M290.0388 72.7022 L290.2048 72.7852 "/>
<path d="M290.2048 72.7852 L290.2878 72.8682 "/>
<path d="M290.2878 72.8682 L290.3708 73.0341 "/>
<path d="M290.3708 73.0341 L290.3708 73.1171 "/>
<path d="M290.3708 73.1171 L290.2878 73.2831 "/>
<path d="M290.2878 73.2831 L290.2048 73.3660 "/>
<path d="M290.2048 73.3660 L290.0388 73.4490 "/>
<path d="M290.0388 73.4490 L289.7069 73.4490 "/>
<path d="M289.7069 73.4490 L289.5410 73.5320 "/>
<path d="M289.5410 73.5320 L289.4580 73.6150 "/>
<path d="M289.4580 73.6150 L289.3750 73.7809 "/>
<path d="M289.3750 73.7809 L289.3750 74.1128 "/>
<path d="M289.3750 74.1128 L289.4580 74.2788 "/>
<path d="M289.4580 74.2788 L289.5410 74.3618 "/>
<path d="M289.5410 74.3618 L289.7069 74.4448 "/>
<path d="M289.7069 74.4448 L290.0388 74.4448 "/>
<path d="M290.0388 74.4448 L290.2048 74.3618 "/>
<path d="M290.2048 74.3618 L290.2878 74.2788 "/>
<path d="M290.2878 74.2788 L290.3708 74.1128 "/>
<path d="M290.3708 74.1128 L290.3708 73.7809 "/>
<path d="M290.3708 73.7809 L290.2878 73.6150 "/>
<path d="M290.2878 73.6150 L290.2048 73.5320 "/>
<path d="M290.2048 73.5320 L290.0388 73.4490 "/>
</g><text x="288.2535" y="97.2288" textLength="7.0262" font-size="2.3234" lengthAdjust="spacingAndGlyphs" text-anchor="middle" opacity="0.01" style="font-family:monospace">270R</text>
<g class="stroked-text"><desc>270R</desc>
<path d="M285.2248 95.5758 L285.3078 95.4928 "/>
<path d="M285.3078 95.4928 L285.4737 95.4098 "/>
<path d="M285.4737 95.4098 L285.8886 95.4098 "/>
<path d="M285.8886 95.4098 L286.0546 95.4928 "/>
<path d="M286.0546 95.4928 L286.1376 95.5758 "/>
<path d="M286.1376 95.5758 L286.2205 95.7417 "/>
<path d="M286.2205 95.7417 L286.2205 95.9077 "/>
<path d="M286.2205 95.9077 L286.1376 96.1566 "/>
<path d="M286.1376 96.1566 L285.1418 97.1523 "/>
<path d="M285.1418 97.1523 L286.2205 97.1523 "/>
<path d="M286.8014 95.4098 L287.9631 95.4098 "/>
<path d="M287.9631 95.4098 L287.2163 97.1523 "/>
<path d="M288.9588 95.4098 L289.1248 95.4098 "/>
<path d="M289.1248 95.4098 L289.2907 95.4928 "/>
<path d="M289.2907 95.4928 L289.3737 95.5758 "/>
<path d="M289.3737 95.5758 L289.4567 95.7417 "/>
<path d="M289.4567 95.7417 L289.5397 96.0736 "/>
<path d="M289.5397 96.0736 L289.5397 96.4885 "/>
<path d="M289.5397 96.4885 L289.4567 96.8204 "/>
<path d="M289.4567 96.8204 L289.3737 96.9864 "/>
<path d="M289.3737 96.9864 L289.2907 97.0694 "/>
<path d="M289.2907 97.0694 L289.1248 97.1523 "/>
<path d="M289.1248 97.1523 L288.9588 97.1523 "/>
<path d="M288.9588 97.1523 L288.7929 97.0694 "/>
<path d="M288.7929 97.0694 L288.7099 96.9864 "/>
<path d="M288.7099 96.9864 L288.6269 96.8204 "/>
<path d="M288.6269 96.8204 L288.5439 96.4885 "/>
<path d="M288.5439 96.4885 L288.5439 96.0736 "/>
<path d="M288.5439 96.0736 L288.6269 95.7417 "/>
<path d="M288.6269 95.7417 L288.7099 95.5758 "/>
<path d="M288.7099 95.5758 L288.7929 95.4928 "/>
<path d="M288.7929 95.4928 L288.9588 95.4098 "/>
<path d="M291.2822 97.1523 L290.7014 96.3226 "/>
<path d="M290.2865 97.1523 L290.2865 95.4098 "/>
<path d="M290.2865 95.4098 L290.9503 95.4098 "/>
<path d="M290.9503 95.4098 L291.1163 95.4928 "/>
<path d="M291.1163 95.4928 L291.1992 95.5758 "/>
<path d="M291.1992 95.5758 L291.2822 95.7417 "/>
<path d="M291.2822 95.7417 L291.2822 95.9906 "/>
<path d="M291.2822 95.9906 L291.1992 96.1566 "/>
<path d="M291.1992 96.1566 L291.1163 96.2396 "/>
<path d="M291.1163 96.2396 L290.9503 96.3226 "/>
<path d="M290.9503 96.3226 L290.2865 96.3226 "/>
</g><text x="288.2535" y="100.8228" textLength="5.3666" font-size="2.3234" lengthAdjust="spacingAndGlyphs" text-anchor="middle" opacity="0.01" style="font-family:monospace">R54</text>
<g class="stroked-text"><desc>R54</desc>
<path d="M287.1333 100.7464 L286.5524 99.9166 "/>
<path d="M286.1376 100.7464 L286.1376 99.0038 "/>
<path d="M286.1376 99.0038 L286.8014 99.0038 "/>
<path d="M286.8014 99.0038 L286.9673 99.0868 "/>
<path d="M286.9673 99.0868 L287.0503 99.1698 "/>
<path d="M287.0503 99.1698 L287.1333 99.3357 "/>
<path d="M287.1333 99.3357 L287.1333 99.5846 "/>
<path d="M287.1333 99.5846 L287.0503 99.7506 "/>
<path d="M287.0503 99.7506 L286.9673 99.8336 "/>
<path d="M286.9673 99.8336 L286.8014 99.9166 "/>
<path d="M286.8014 99.9166 L286.1376 99.9166 "/>
<path d="M288.7099 99.0038 L287.8801 99.0038 "/>
<path d="M287.8801 99.0038 L287.7971 99.8336 "/>
<path d="M287.7971 99.8336 L287.8801 99.7506 "/>
<path d="M287.8801 99.7506 L288.0461 99.6676 "/>
<path d="M288.0461 99.6676 L288.4609 99.6676 "/>
<path d="M288.4609 99.6676 L288.6269 99.7506 "/>
<path d="M288.6269 99.7506 L288.7099 99.8336 "/>
<path d="M288.7099 99.8336 L288.7929 99.9995 "/>
<path d="M288.7929 99.9995 L288.7929 100.4144 "/>
<path d="M288.7929 100.4144 L288.7099 100.5804 "/>
<path d="M288.7099 100.5804 L288.6269 100.6634 "/>
<path d="M288.6269 100.6634 L288.4609 100.7464 "/>
<path d="M288.4609 100.7464 L288.0461 100.7464 "/>
<path d="M288.0461 100.7464 L287.8801 100.6634 "/>
<path d="M287.8801 100.6634 L287.7971 100.5804 "/>
<path d="M290.2865 99.5846 L290.2865 100.7464 "/>
<path d="M289.8716 98.9208 L289.4567 100.1655 "/>
<path d="M289.4567 100.1655 L290.5354 100.1655 "/>
</g><text x="288.1718" y="62.3778" textLength="7.0262" font-size="2.3234" lengthAdjust="spacingAndGlyphs" text-anchor="middle" opacity="0.01" style="font-family:monospace">270R</text>
<g class="stroked-text"><desc>270R</desc>
<path d="M285.1431 60.7248 L285.2261 60.6418 "/>
<path d="M285.2261 60.6418 L285.3920 60.5588 "/>
<path d="M285.3920 60.5588 L285.8069 60.5588 "/>
<path d="M285.8069 60.5588 L285.9729 60.6418 "/>
<path d="M285.9729 60.6418 L286.0559 60.7248 "/>
<path d="M286.0559 60.7248 L286.1388 60.8907 "/>
<path d="M286.1388 60.8907 L286.1388 61.0567 "/>
<path d="M286.1388 61.0567 L286.0559 61.3056 "/>
<path d="M286.0559 61.3056 L285.0601 62.3014 "/>
<path d="M285.0601 62.3014 L286.1388 62.3014 "/>
<path d="M286.7197 60.5588 L287.8814 60.5588 "/>
<path d="M287.8814 60.5588 L287.1346 62.3014 "/>
<path d="M288.8771 60.5588 L289.0431 60.5588 "/>
<path d="M289.0431 60.5588 L289.2091 60.6418 "/>
<path d="M289.2091 60.6418 L289.2920 60.7248 "/>
<path d="M289.2920 60.7248 L289.3750 60.8907 "/>
<path d="M289.3750 60.8907 L289.4580 61.2226 "/>
<path d="M289.4580 61.2226 L289.4580 61.6375 "/>
<path d="M289.4580 61.6375 L289.3750 61.9695 "/>
<path d="M289.3750 61.9695 L289.2920 62.1354 "/>
<path d="M289.2920 62.1354 L289.2091 62.2184 "/>
<path d="M289.2091 62.2184 L289.0431 62.3014 "/>
<path d="M289.0431 62.3014 L288.8771 62.3014 "/>
<path d="M288.8771 62.3014 L288.7112 62.2184 "/>
<path d="M288.7112 62.2184 L288.6282 62.1354 "/>
<path d="M288.6282 62.1354 L288.5452 61.9695 "/>
<path d="M288.5452 61.9695 L288.4622 61.6375 "/>
<path d="M288.4622 61.6375 L288.4622 61.2226 "/>
<path d="M288.4622 61.2226 L288.5452 60.8907 "/>
<path d="M288.5452 60.8907 L288.6282 60.7248 "/>
<path d="M288.6282 60.7248 L288.7112 60.6418 "/>
<path d="M288.7112 60.6418 L288.8771 60.5588 "/>
<path d="M291.2005 62.3014 L290.6197 61.4716 "/>
<path d="M290.2048 62.3014 L290.2048 60.5588 "/>
<path d="M290.2048 60.5588 L290.8686 60.5588 "/>
<path d="M290.8686 60.5588 L291.0346 60.6418 "/>
<path d="M291.0346 60.6418 L291.1176 60.7248 "/>
<path d="M291.1176 60.7248 L291.2005 60.8907 "/>
<path d="M291.2005 60.8907 L291.2005 61.1397 "/>
<path d="M291.2005 61.1397 L291.1176 61.3056 "/>
<path d="M291.1176 61.3056 L291.0346 61.3886 "/>
<path d="M291.0346 61.3886 L290.8686 61.4716 "/>
<path d="M290.8686 61.4716 L290.2048 61.4716 "/>
</g><text x="288.1718" y="65.9718" textLength="5.3666" font-size="2.3234" lengthAdjust="spacingAndGlyphs" text-anchor="middle" opacity="0.01" style="font-family:monospace">R60</text>
<g class="stroked-text"><desc>R60</desc>
<path d="M287.0516 65.8954 L286.4708 65.0656 "/>
<path d="M286.0559 65.8954 L286.0559 64.1528 "/>
<path d="M286.0559 64.1528 L286.7197 64.1528 "/>
<path d="M286.7197 64.1528 L286.8857 64.2358 "/>
<path d="M286.8857 64.2358 L286.9686 64.3188 "/>
<path d="M286.9686 64.3188 L287.0516 64.4847 "/>
<path d="M287.0516 64.4847 L287.0516 64.7337 "/>
<path d="M287.0516 64.7337 L286.9686 64.8996 "/>
<path d="M286.9686 64.8996 L286.8857 64.9826 "/>
<path d="M286.8857 64.9826 L286.7197 65.0656 "/>
<path d="M286.7197 65.0656 L286.0559 65.0656 "/>
<path d="M288.5452 64.1528 L288.2133 64.1528 "/>
<path d="M288.2133 64.1528 L288.0474 64.2358 "/>
<path d="M288.0474 64.2358 L287.9644 64.3188 "/>
<path d="M287.9644 64.3188 L287.7984 64.5677 "/>
<path d="M287.7984 64.5677 L287.7154 64.8996 "/>
<path d="M287.7154 64.8996 L287.7154 65.5635 "/>
<path d="M287.7154 65.5635 L287.7984 65.7294 "/>
<path d="M287.7984 65.7294 L287.8814 65.8124 "/>
<path d="M287.8814 65.8124 L288.0474 65.8954 "/>
<path d="M288.0474 65.8954 L288.3793 65.8954 "/>
<path d="M288.3793 65.8954 L288.5452 65.8124 "/>
<path d="M288.5452 65.8124 L288.6282 65.7294 "/>
<path d="M288.6282 65.7294 L288.7112 65.5635 "/>
<path d="M288.7112 65.5635 L288.7112 65.1486 "/>
<path d="M288.7112 65.1486 L288.6282 64.9826 "/>
<path d="M288.6282 64.9826 L288.5452 64.8996 "/>
<path d="M288.5452 64.8996 L288.3793 64.8167 "/>
<path d="M288.3793 64.8167 L288.0474 64.8167 "/>
<path d="M288.0474 64.8167 L287.8814 64.8996 "/>
<path d="M287.8814 64.8996 L287.7984 64.9826 "/>
<path d="M287.7984 64.9826 L287.7154 65.1486 "/>
<path d="M289.7899 64.1528 L289.9559 64.1528 "/>
<path d="M289.9559 64.1528 L290.1218 64.2358 "/>
<path d="M290.1218 64.2358 L290.2048 64.3188 "/>
<path d="M290.2048 64.3188 L290.2878 64.4847 "/>
<path d="M290.2878 64.4847 L290.3708 64.8167 "/>
<path d="M290.3708 64.8167 L290.3708 65.2315 "/>
<path d="M290.3708 65.2315 L290.2878 65.5635 "/>
<path d="M290.2878 65.5635 L290.2048 65.7294 "/>
<path d="M290.2048 65.7294 L290.1218 65.8124 "/>
<path d="M290.1218 65.8124 L289.9559 65.8954 "/>
<path d="M289.9559 65.8954 L289.7899 65.8954 "/>
<path d="M289.7899 65.8954 L289.6239 65.8124 "/>
<path d="M289.6239 65.8124 L289.5410 65.7294 "/>
<path d="M289.5410 65.7294 L289.4580 65.5635 "/>
<path d="M289.4580 65.5635 L289.3750 65.2315 "/>
<path d="M289.3750 65.2315 L289.3750 64.8167 "/>
<path d="M289.3750 64.8167 L289.4580 64.4847 "/>
<path d="M289.4580 64.4847 L289.5410 64.3188 "/>
<path d="M289.5410 64.3188 L289.6239 64.2358 "/>
<path d="M289.6239 64.2358 L289.7899 64.1528 "/>
</g><g transform="rotate(-270.000000 286.1842 43.5788)">
<text x="286.1842" y="44.4500" textLength="3.7071" font-size="2.3234" lengthAdjust="spacingAndGlyphs" text-anchor="middle" opacity="0.01" style="font-family:monospace">D2</text>
</g>
<g class="stroked-text"><desc>D2</desc>
<path d="M285.3894 42.2926 L287.1320 42.2926 "/>
<path d="M287.1320 42.2926 L287.1320 42.7075 "/>
<path d="M287.1320 42.7075 L287.0490 42.9564 "/>
<path d="M287.0490 42.9564 L286.8830 43.1224 "/>
<path d="M286.8830 43.1224 L286.7171 43.2054 "/>
<path d="M286.7171 43.2054 L286.3852 43.2883 "/>
<path d="M286.3852 43.2883 L286.1362 43.2883 "/>
<path d="M286.1362 43.2883 L285.8043 43.2054 "/>
<path d="M285.8043 43.2054 L285.6384 43.1224 "/>
<path d="M285.6384 43.1224 L285.4724 42.9564 "/>
<path d="M285.4724 42.9564 L285.3894 42.7075 "/>
<path d="M285.3894 42.7075 L285.3894 42.2926 "/>
<path d="M286.9660 43.9522 L287.0490 44.0351 "/>
<path d="M287.0490 44.0351 L287.1320 44.2011 "/>
<path d="M287.1320 44.2011 L287.1320 44.6160 "/>
<path d="M287.1320 44.6160 L287.0490 44.7819 "/>
<path d="M287.0490 44.7819 L286.9660 44.8649 "/>
<path d="M286.9660 44.8649 L286.8001 44.9479 "/>
<path d="M286.8001 44.9479 L286.6341 44.9479 "/>
<path d="M286.6341 44.9479 L286.3852 44.8649 "/>
<path d="M286.3852 44.8649 L285.3894 43.8692 "/>
<path d="M285.3894 43.8692 L285.3894 44.9479 "/>
</g><text x="168.9978" y="69.6081" textLength="11.2581" font-size="2.3234" lengthAdjust="spacingAndGlyphs" text-anchor="middle" opacity="0.01" style="font-family:monospace">10k NTC</text>
<g class="stroked-text"><desc>10k NTC</desc>
<path d="M164.8489 69.5316 L163.8532 69.5316 "/>
<path d="M164.3510 69.5316 L164.3510 67.7891 "/>
<path d="M164.3510 67.7891 L164.1851 68.0380 "/>
<path d="M164.1851 68.0380 L164.0191 68.2040 "/>
<path d="M164.0191 68.2040 L163.8532 68.2869 "/>
<path d="M165.9276 67.7891 L166.0936 67.7891 "/>
<path d="M166.0936 67.7891 L166.2595 67.8720 "/>
<path d="M166.2595 67.8720 L166.3425 67.9550 "/>
<path d="M166.3425 67.9550 L166.4255 68.1210 "/>
<path d="M166.4255 68.1210 L166.5085 68.4529 "/>
<path d="M166.5085 68.4529 L166.5085 68.8678 "/>
<path d="M166.5085 68.8678 L166.4255 69.1997 "/>
<path d="M166.4255 69.1997 L166.3425 69.3657 "/>
<path d="M166.3425 69.3657 L166.2595 69.4486 "/>
<path d="M166.2595 69.4486 L166.0936 69.5316 "/>
<path d="M166.0936 69.5316 L165.9276 69.5316 "/>
<path d="M165.9276 69.5316 L165.7617 69.4486 "/>
<path d="M165.7617 69.4486 L165.6787 69.3657 "/>
<path d="M165.6787 69.3657 L165.5957 69.1997 "/>
<path d="M165.5957 69.1997 L165.5127 68.8678 "/>
<path d="M165.5127 68.8678 L165.5127 68.4529 "/>
<path d="M165.5127 68.4529 L165.5957 68.1210 "/>
<path d="M165.5957 68.1210 L165.6787 67.9550 "/>
<path d="M165.6787 67.9550 L165.7617 67.8720 "/>
<path d="M165.7617 67.8720 L165.9276 67.7891 "/>
<path d="M167.2553 69.5316 L167.2553 67.7891 "/>
<path d="M167.4212 68.8678 L167.9191 69.5316 "/>
<path d="M167.9191 68.3699 L167.2553 69.0337 "/>
<path d="M169.9936 69.5316 L169.9936 67.7891 "/>
<path d="M169.9936 67.7891 L170.9893 69.5316 "/>
<path d="M170.9893 69.5316 L170.9893 67.7891 "/>
<path d="M171.5702 67.7891 L172.5659 67.7891 "/>
<path d="M172.0680 69.5316 L172.0680 67.7891 "/>
<path d="M174.1425 69.3657 L174.0595 69.4486 "/>
<path d="M174.0595 69.4486 L173.8106 69.5316 "/>
<path d="M173.8106 69.5316 L173.6446 69.5316 "/>
<path d="M173.6446 69.5316 L173.3957 69.4486 "/>
<path d="M173.3957 69.4486 L173.2297 69.2827 "/>
<path d="M173.2297 69.2827 L173.1468 69.1167 "/>
<path d="M173.1468 69.1167 L173.0638 68.7848 "/>
<path d="M173.0638 68.7848 L173.0638 68.5359 "/>
<path d="M173.0638 68.5359 L173.1468 68.2040 "/>
<path d="M173.1468 68.2040 L173.2297 68.0380 "/>
<path d="M173.2297 68.0380 L173.3957 67.8720 "/>
<path d="M173.3957 67.8720 L173.6446 67.7891 "/>
<path d="M173.6446 67.7891 L173.8106 67.7891 "/>
<path d="M173.8106 67.7891 L174.0595 67.8720 "/>
<path d="M174.0595 67.8720 L174.1425 67.9550 "/>
</g><text x="168.9978" y="66.0141" textLength="5.1177" font-size="2.3234" lengthAdjust="spacingAndGlyphs" text-anchor="middle" opacity="0.01" style="font-family:monospace">TH2</text>
<g class="stroked-text"><desc>TH2</desc>
<path d="M166.7574 64.1951 L167.7532 64.1951 "/>
<path d="M167.2553 65.9376 L167.2553 64.1951 "/>
<path d="M168.3340 65.9376 L168.3340 64.1951 "/>
<path d="M168.3340 65.0248 L169.3297 65.0248 "/>
<path d="M169.3297 65.9376 L169.3297 64.1951 "/>
<path d="M170.0765 64.3610 L170.1595 64.2780 "/>
<path d="M170.1595 64.2780 L170.3255 64.1951 "/>
<path d="M170.3255 64.1951 L170.7404 64.1951 "/>
<path d="M170.7404 64.1951 L170.9063 64.2780 "/>
<path d="M170.9063 64.2780 L170.9893 64.3610 "/>
<path d="M170.9893 64.3610 L171.0723 64.5270 "/>
<path d="M171.0723 64.5270 L171.0723 64.6929 "/>
<path d="M171.0723 64.6929 L170.9893 64.9419 "/>
<path d="M170.9893 64.9419 L169.9936 65.9376 "/>
<path d="M169.9936 65.9376 L171.0723 65.9376 "/>
</g><g transform="rotate(-90.000000 283.0259 121.1222)">
<text x="283.0259" y="121.9934" textLength="16.2368" font-size="2.3234" lengthAdjust="spacingAndGlyphs" text-anchor="middle" opacity="0.01" style="font-family:monospace">SKRTLAE010</text>
</g>
<g class="stroked-text"><desc>SKRTLAE010</desc>
<path d="M283.7377 128.7562 L283.8207 128.5073 "/>
<path d="M283.8207 128.5073 L283.8207 128.0924 "/>
<path d="M283.8207 128.0924 L283.7377 127.9264 "/>
<path d="M283.7377 127.9264 L283.6547 127.8434 "/>
<path d="M283.6547 127.8434 L283.4888 127.7605 "/>
<path d="M283.4888 127.7605 L283.3228 127.7605 "/>
<path d="M283.3228 127.7605 L283.1568 127.8434 "/>
<path d="M283.1568 127.8434 L283.0739 127.9264 "/>
<path d="M283.0739 127.9264 L282.9909 128.0924 "/>
<path d="M282.9909 128.0924 L282.9079 128.4243 "/>
<path d="M282.9079 128.4243 L282.8249 128.5902 "/>
<path d="M282.8249 128.5902 L282.7419 128.6732 "/>
<path d="M282.7419 128.6732 L282.5760 128.7562 "/>
<path d="M282.5760 128.7562 L282.4100 128.7562 "/>
<path d="M282.4100 128.7562 L282.2441 128.6732 "/>
<path d="M282.2441 128.6732 L282.1611 128.5902 "/>
<path d="M282.1611 128.5902 L282.0781 128.4243 "/>
<path d="M282.0781 128.4243 L282.0781 128.0094 "/>
<path d="M282.0781 128.0094 L282.1611 127.7605 "/>
<path d="M283.8207 127.0136 L282.0781 127.0136 "/>
<path d="M283.8207 126.0179 L282.8249 126.7647 "/>
<path d="M282.0781 126.0179 L283.0739 127.0136 "/>
<path d="M283.8207 124.2754 L282.9909 124.8562 "/>
<path d="M283.8207 125.2711 L282.0781 125.2711 "/>
<path d="M282.0781 125.2711 L282.0781 124.6073 "/>
<path d="M282.0781 124.6073 L282.1611 124.4413 "/>
<path d="M282.1611 124.4413 L282.2441 124.3583 "/>
<path d="M282.2441 124.3583 L282.4100 124.2754 "/>
<path d="M282.4100 124.2754 L282.6590 124.2754 "/>
<path d="M282.6590 124.2754 L282.8249 124.3583 "/>
<path d="M282.8249 124.3583 L282.9079 124.4413 "/>
<path d="M282.9079 124.4413 L282.9909 124.6073 "/>
<path d="M282.9909 124.6073 L282.9909 125.2711 "/>
<path d="M282.0781 123.7775 L282.0781 122.7817 "/>
<path d="M283.8207 123.2796 L282.0781 123.2796 "/>
<path d="M283.8207 121.3711 L283.8207 122.2009 "/>
<path d="M283.8207 122.2009 L282.0781 122.2009 "/>
<path d="M283.3228 120.8732 L283.3228 120.0435 "/>
<path d="M283.8207 121.0392 L282.0781 120.4583 "/>
<path d="M282.0781 120.4583 L283.8207 119.8775 "/>
<path d="M282.9079 119.2966 L282.9079 118.7158 "/>
<path d="M283.8207 118.4669 L283.8207 119.2966 "/>
<path d="M283.8207 119.2966 L282.0781 119.2966 "/>
<path d="M282.0781 119.2966 L282.0781 118.4669 "/>
<path d="M282.0781 117.3881 L282.0781 117.2222 "/>
<path d="M282.0781 117.2222 L282.1611 117.0562 "/>
<path d="M282.1611 117.0562 L282.2441 116.9732 "/>
<path d="M282.2441 116.9732 L282.4100 116.8903 "/>
<path d="M282.4100 116.8903 L282.7419 116.8073 "/>
<path d="M282.7419 116.8073 L283.1568 116.8073 "/>
<path d="M283.1568 116.8073 L283.4888 116.8903 "/>
<path d="M283.4888 116.8903 L283.6547 116.9732 "/>
<path d="M283.6547 116.9732 L283.7377 117.0562 "/>
<path d="M283.7377 117.0562 L283.8207 117.2222 "/>
<path d="M283.8207 117.2222 L283.8207 117.3881 "/>
<path d="M283.8207 117.3881 L283.7377 117.5541 "/>
<path d="M283.7377 117.5541 L283.6547 117.6371 "/>
<path d="M283.6547 117.6371 L283.4888 117.7201 "/>
<path d="M283.4888 117.7201 L283.1568 117.8030 "/>
<path d="M283.1568 117.8030 L282.7419 117.8030 "/>
<path d="M282.7419 117.8030 L282.4100 117.7201 "/>
<path d="M282.4100 117.7201 L282.2441 117.6371 "/>
<path d="M282.2441 117.6371 L282.1611 117.5541 "/>
<path d="M282.1611 117.5541 L282.0781 117.3881 "/>
<path d="M283.8207 115.1477 L283.8207 116.1435 "/>
<path d="M283.8207 115.6456 L282.0781 115.6456 "/>
<path d="M282.0781 115.6456 L282.3271 115.8115 "/>
<path d="M282.3271 115.8115 L282.4930 115.9775 "/>
<path d="M282.4930 115.9775 L282.5760 116.1435 "/>
<path d="M282.0781 114.0690 L282.0781 113.9030 "/>
<path d="M282.0781 113.9030 L282.1611 113.7371 "/>
<path d="M282.1611 113.7371 L282.2441 113.6541 "/>
<path d="M282.2441 113.6541 L282.4100 113.5711 "/>
<path d="M282.4100 113.5711 L282.7419 113.4881 "/>
<path d="M282.7419 113.4881 L283.1568 113.4881 "/>
<path d="M283.1568 113.4881 L283.4888 113.5711 "/>
<path d="M283.4888 113.5711 L283.6547 113.6541 "/>
<path d="M283.6547 113.6541 L283.7377 113.7371 "/>
<path d="M283.7377 113.7371 L283.8207 113.9030 "/>
<path d="M283.8207 113.9030 L283.8207 114.0690 "/>
<path d="M283.8207 114.0690 L283.7377 114.2350 "/>
<path d="M283.7377 114.2350 L283.6547 114.3179 "/>
<path d="M283.6547 114.3179 L283.4888 114.4009 "/>
<path d="M283.4888 114.4009 L283.1568 114.4839 "/>
<path d="M283.1568 114.4839 L282.7419 114.4839 "/>
<path d="M282.7419 114.4839 L282.4100 114.4009 "/>
<path d="M282.4100 114.4009 L282.2441 114.3179 "/>
<path d="M282.2441 114.3179 L282.1611 114.2350 "/>
<path d="M282.1611 114.2350 L282.0781 114.0690 "/>
</g></g>
<g style="fill:#848484; fill-opacity:0.0;  stroke:#848484; stroke-width:0.3267; stroke-opacity:1;  stroke-linecap:round; stroke-linejoin:round;">
<g transform="rotate(-90.000000 286.2931 121.1222)">
<text x="286.2931" y="122.2113" textLength="7.1828" font-size="2.9042" lengthAdjust="spacingAndGlyphs" text-anchor="middle" opacity="0.01" style="font-family:monospace">SW4</text>
</g>
<g class="stroked-text"><desc>SW4</desc>
<path d="M287.1801 124.0264 L287.2838 123.7153 "/>
<path d="M287.2838 123.7153 L287.2838 123.1966 "/>
<path d="M287.2838 123.1966 L287.1801 122.9892 "/>
<path d="M287.1801 122.9892 L287.0764 122.8855 "/>
<path d="M287.0764 122.8855 L286.8689 122.7817 "/>
<path d="M286.8689 122.7817 L286.6615 122.7817 "/>
<path d="M286.6615 122.7817 L286.4540 122.8855 "/>
<path d="M286.4540 122.8855 L286.3503 122.9892 "/>
<path d="M286.3503 122.9892 L286.2466 123.1966 "/>
<path d="M286.2466 123.1966 L286.1429 123.6115 "/>
<path d="M286.1429 123.6115 L286.0391 123.8190 "/>
<path d="M286.0391 123.8190 L285.9354 123.9227 "/>
<path d="M285.9354 123.9227 L285.7280 124.0264 "/>
<path d="M285.7280 124.0264 L285.5205 124.0264 "/>
<path d="M285.5205 124.0264 L285.3131 123.9227 "/>
<path d="M285.3131 123.9227 L285.2094 123.8190 "/>
<path d="M285.2094 123.8190 L285.1056 123.6115 "/>
<path d="M285.1056 123.6115 L285.1056 123.0929 "/>
<path d="M285.1056 123.0929 L285.2094 122.7817 "/>
<path d="M285.1056 122.0557 L287.2838 121.5371 "/>
<path d="M287.2838 121.5371 L285.7280 121.1222 "/>
<path d="M285.7280 121.1222 L287.2838 120.7073 "/>
<path d="M287.2838 120.7073 L285.1056 120.1887 "/>
<path d="M285.8317 118.4254 L287.2838 118.4254 "/>
<path d="M285.0019 118.9440 L286.5578 119.4626 "/>
<path d="M286.5578 119.4626 L286.5578 118.1142 "/>
</g></g>
<g style="fill:#848484; fill-opacity:0.01;  stroke:#848484; stroke-width:0.2178; stroke-opacity:1;  stroke-linecap:round; stroke-linejoin:round;">
<text x="121.9490" y="62.4201" textLength="11.2581" font-size="2.3234" lengthAdjust="spacingAndGlyphs" text-anchor="middle" opacity="0.01" style="font-family:monospace">10k NTC</text>
<g class="stroked-text"><desc>10k NTC</desc>
<path d="M117.8001 62.3436 L116.8043 62.3436 "/>
<path d="M117.3022 62.3436 L117.3022 60.6011 "/>
<path d="M117.3022 60.6011 L117.1363 60.8500 "/>
<path d="M117.1363 60.8500 L116.9703 61.0159 "/>
<path d="M116.9703 61.0159 L116.8043 61.0989 "/>
<path d="M118.8788 60.6011 L119.0448 60.6011 "/>
<path d="M119.0448 60.6011 L119.2107 60.6840 "/>
<path d="M119.2107 60.6840 L119.2937 60.7670 "/>
<path d="M119.2937 60.7670 L119.3767 60.9330 "/>
<path d="M119.3767 60.9330 L119.4597 61.2649 "/>
<path d="M119.4597 61.2649 L119.4597 61.6798 "/>
<path d="M119.4597 61.6798 L119.3767 62.0117 "/>
<path d="M119.3767 62.0117 L119.2937 62.1776 "/>
<path d="M119.2937 62.1776 L119.2107 62.2606 "/>
<path d="M119.2107 62.2606 L119.0448 62.3436 "/>
<path d="M119.0448 62.3436 L118.8788 62.3436 "/>
<path d="M118.8788 62.3436 L118.7129 62.2606 "/>
<path d="M118.7129 62.2606 L118.6299 62.1776 "/>
<path d="M118.6299 62.1776 L118.5469 62.0117 "/>
<path d="M118.5469 62.0117 L118.4639 61.6798 "/>
<path d="M118.4639 61.6798 L118.4639 61.2649 "/>
<path d="M118.4639 61.2649 L118.5469 60.9330 "/>
<path d="M118.5469 60.9330 L118.6299 60.7670 "/>
<path d="M118.6299 60.7670 L118.7129 60.6840 "/>
<path d="M118.7129 60.6840 L118.8788 60.6011 "/>
<path d="M120.2065 62.3436 L120.2065 60.6011 "/>
<path d="M120.3724 61.6798 L120.8703 62.3436 "/>
<path d="M120.8703 61.1819 L120.2065 61.8457 "/>
<path d="M122.9448 62.3436 L122.9448 60.6011 "/>
<path d="M122.9448 60.6011 L123.9405 62.3436 "/>
<path d="M123.9405 62.3436 L123.9405 60.6011 "/>
<path d="M124.5213 60.6011 L125.5171 60.6011 "/>
<path d="M125.0192 62.3436 L125.0192 60.6011 "/>
<path d="M127.0937 62.1776 L127.0107 62.2606 "/>
<path d="M127.0107 62.2606 L126.7618 62.3436 "/>
<path d="M126.7618 62.3436 L126.5958 62.3436 "/>
<path d="M126.5958 62.3436 L126.3469 62.2606 "/>
<path d="M126.3469 62.2606 L126.1809 62.0947 "/>
<path d="M126.1809 62.0947 L126.0979 61.9287 "/>
<path d="M126.0979 61.9287 L126.0150 61.5968 "/>
<path d="M126.0150 61.5968 L126.0150 61.3479 "/>
<path d="M126.0150 61.3479 L126.0979 61.0159 "/>
<path d="M126.0979 61.0159 L126.1809 60.8500 "/>
<path d="M126.1809 60.8500 L126.3469 60.6840 "/>
<path d="M126.3469 60.6840 L126.5958 60.6011 "/>
<path d="M126.5958 60.6011 L126.7618 60.6011 "/>
<path d="M126.7618 60.6011 L127.0107 60.6840 "/>
<path d="M127.0107 60.6840 L127.0937 60.7670 "/>
</g><text x="121.9490" y="66.0141" textLength="5.1177" font-size="2.3234" lengthAdjust="spacingAndGlyphs" text-anchor="middle" opacity="0.01" style="font-family:monospace">TH1</text>
<g class="stroked-text"><desc>TH1</desc>
<path d="M119.7086 64.1951 L120.7043 64.1951 "/>
<path d="M120.2065 65.9376 L120.2065 64.1951 "/>
<path d="M121.2852 65.9376 L121.2852 64.1951 "/>
<path d="M121.2852 65.0248 L122.2809 65.0248 "/>
<path d="M122.2809 65.9376 L122.2809 64.1951 "/>
<path d="M124.0235 65.9376 L123.0277 65.9376 "/>
<path d="M123.5256 65.9376 L123.5256 64.1951 "/>
<path d="M123.5256 64.1951 L123.3596 64.4440 "/>
<path d="M123.3596 64.4440 L123.1937 64.6100 "/>
<path d="M123.1937 64.6100 L123.0277 64.6929 "/>
</g><text x="288.1446" y="88.7339" textLength="7.0262" font-size="2.3234" lengthAdjust="spacingAndGlyphs" text-anchor="middle" opacity="0.01" style="font-family:monospace">270R</text>
<g class="stroked-text"><desc>270R</desc>
<path d="M285.1159 87.0808 L285.1989 86.9978 "/>
<path d="M285.1989 86.9978 L285.3648 86.9149 "/>
<path d="M285.3648 86.9149 L285.7797 86.9149 "/>
<path d="M285.7797 86.9149 L285.9457 86.9978 "/>
<path d="M285.9457 86.9978 L286.0286 87.0808 "/>
<path d="M286.0286 87.0808 L286.1116 87.2468 "/>
<path d="M286.1116 87.2468 L286.1116 87.4127 "/>
<path d="M286.1116 87.4127 L286.0286 87.6617 "/>
<path d="M286.0286 87.6617 L285.0329 88.6574 "/>
<path d="M285.0329 88.6574 L286.1116 88.6574 "/>
<path d="M286.6925 86.9149 L287.8542 86.9149 "/>
<path d="M287.8542 86.9149 L287.1074 88.6574 "/>
<path d="M288.8499 86.9149 L289.0159 86.9149 "/>
<path d="M289.0159 86.9149 L289.1818 86.9978 "/>
<path d="M289.1818 86.9978 L289.2648 87.0808 "/>
<path d="M289.2648 87.0808 L289.3478 87.2468 "/>
<path d="M289.3478 87.2468 L289.4308 87.5787 "/>
<path d="M289.4308 87.5787 L289.4308 87.9936 "/>
<path d="M289.4308 87.9936 L289.3478 88.3255 "/>
<path d="M289.3478 88.3255 L289.2648 88.4915 "/>
<path d="M289.2648 88.4915 L289.1818 88.5744 "/>
<path d="M289.1818 88.5744 L289.0159 88.6574 "/>
<path d="M289.0159 88.6574 L288.8499 88.6574 "/>
<path d="M288.8499 88.6574 L288.6840 88.5744 "/>
<path d="M288.6840 88.5744 L288.6010 88.4915 "/>
<path d="M288.6010 88.4915 L288.5180 88.3255 "/>
<path d="M288.5180 88.3255 L288.4350 87.9936 "/>
<path d="M288.4350 87.9936 L288.4350 87.5787 "/>
<path d="M288.4350 87.5787 L288.5180 87.2468 "/>
<path d="M288.5180 87.2468 L288.6010 87.0808 "/>
<path d="M288.6010 87.0808 L288.6840 86.9978 "/>
<path d="M288.6840 86.9978 L288.8499 86.9149 "/>
<path d="M291.1733 88.6574 L290.5925 87.8276 "/>
<path d="M290.1776 88.6574 L290.1776 86.9149 "/>
<path d="M290.1776 86.9149 L290.8414 86.9149 "/>
<path d="M290.8414 86.9149 L291.0074 86.9978 "/>
<path d="M291.0074 86.9978 L291.0903 87.0808 "/>
<path d="M291.0903 87.0808 L291.1733 87.2468 "/>
<path d="M291.1733 87.2468 L291.1733 87.4957 "/>
<path d="M291.1733 87.4957 L291.0903 87.6617 "/>
<path d="M291.0903 87.6617 L291.0074 87.7447 "/>
<path d="M291.0074 87.7447 L290.8414 87.8276 "/>
<path d="M290.8414 87.8276 L290.1776 87.8276 "/>
</g><text x="288.1446" y="92.3279" textLength="5.3666" font-size="2.3234" lengthAdjust="spacingAndGlyphs" text-anchor="middle" opacity="0.01" style="font-family:monospace">R56</text>
<g class="stroked-text"><desc>R56</desc>
<path d="M287.0244 92.2514 L286.4435 91.4216 "/>
<path d="M286.0286 92.2514 L286.0286 90.5089 "/>
<path d="M286.0286 90.5089 L286.6925 90.5089 "/>
<path d="M286.6925 90.5089 L286.8584 90.5919 "/>
<path d="M286.8584 90.5919 L286.9414 90.6748 "/>
<path d="M286.9414 90.6748 L287.0244 90.8408 "/>
<path d="M287.0244 90.8408 L287.0244 91.0897 "/>
<path d="M287.0244 91.0897 L286.9414 91.2557 "/>
<path d="M286.9414 91.2557 L286.8584 91.3387 "/>
<path d="M286.8584 91.3387 L286.6925 91.4216 "/>
<path d="M286.6925 91.4216 L286.0286 91.4216 "/>
<path d="M288.6010 90.5089 L287.7712 90.5089 "/>
<path d="M287.7712 90.5089 L287.6882 91.3387 "/>
<path d="M287.6882 91.3387 L287.7712 91.2557 "/>
<path d="M287.7712 91.2557 L287.9371 91.1727 "/>
<path d="M287.9371 91.1727 L288.3520 91.1727 "/>
<path d="M288.3520 91.1727 L288.5180 91.2557 "/>
<path d="M288.5180 91.2557 L288.6010 91.3387 "/>
<path d="M288.6010 91.3387 L288.6840 91.5046 "/>
<path d="M288.6840 91.5046 L288.6840 91.9195 "/>
<path d="M288.6840 91.9195 L288.6010 92.0855 "/>
<path d="M288.6010 92.0855 L288.5180 92.1684 "/>
<path d="M288.5180 92.1684 L288.3520 92.2514 "/>
<path d="M288.3520 92.2514 L287.9371 92.2514 "/>
<path d="M287.9371 92.2514 L287.7712 92.1684 "/>
<path d="M287.7712 92.1684 L287.6882 92.0855 "/>
<path d="M290.1776 90.5089 L289.8457 90.5089 "/>
<path d="M289.8457 90.5089 L289.6797 90.5919 "/>
<path d="M289.6797 90.5919 L289.5967 90.6748 "/>
<path d="M289.5967 90.6748 L289.4308 90.9238 "/>
<path d="M289.4308 90.9238 L289.3478 91.2557 "/>
<path d="M289.3478 91.2557 L289.3478 91.9195 "/>
<path d="M289.3478 91.9195 L289.4308 92.0855 "/>
<path d="M289.4308 92.0855 L289.5137 92.1684 "/>
<path d="M289.5137 92.1684 L289.6797 92.2514 "/>
<path d="M289.6797 92.2514 L290.0116 92.2514 "/>
<path d="M290.0116 92.2514 L290.1776 92.1684 "/>
<path d="M290.1776 92.1684 L290.2605 92.0855 "/>
<path d="M290.2605 92.0855 L290.3435 91.9195 "/>
<path d="M290.3435 91.9195 L290.3435 91.5046 "/>
<path d="M290.3435 91.5046 L290.2605 91.3387 "/>
<path d="M290.2605 91.3387 L290.1776 91.2557 "/>
<path d="M290.1776 91.2557 L290.0116 91.1727 "/>
<path d="M290.0116 91.1727 L289.6797 91.1727 "/>
<path d="M289.6797 91.1727 L289.5137 91.2557 "/>
<path d="M289.5137 91.2557 L289.4308 91.3387 "/>
<path d="M289.4308 91.3387 L289.3478 91.5046 "/>
</g><g transform="rotate(-270.000000 288.1991 159.6216)">
<text x="288.1991" y="160.4929" textLength="3.7071" font-size="2.3234" lengthAdjust="spacingAndGlyphs" text-anchor="middle" opacity="0.01" style="font-family:monospace">D4</text>
</g>
<g class="stroked-text"><desc>D4</desc>
<path d="M287.4042 158.3354 L289.1468 158.3354 "/>
<path d="M289.1468 158.3354 L289.1468 158.7503 "/>
<path d="M289.1468 158.7503 L289.0638 158.9993 "/>
<path d="M289.0638 158.9993 L288.8979 159.1652 "/>
<path d="M288.8979 159.1652 L288.7319 159.2482 "/>
<path d="M288.7319 159.2482 L288.4000 159.3312 "/>
<path d="M288.4000 159.3312 L288.1510 159.3312 "/>
<path d="M288.1510 159.3312 L287.8191 159.2482 "/>
<path d="M287.8191 159.2482 L287.6532 159.1652 "/>
<path d="M287.6532 159.1652 L287.4872 158.9993 "/>
<path d="M287.4872 158.9993 L287.4042 158.7503 "/>
<path d="M287.4042 158.7503 L287.4042 158.3354 "/>
<path d="M288.5659 160.8248 L287.4042 160.8248 "/>
<path d="M289.2298 160.4099 L287.9851 159.9950 "/>
<path d="M287.9851 159.9950 L287.9851 161.0737 "/>
</g><g transform="rotate(-270.000000 287.9812 89.7519)">
<text x="287.9812" y="90.6231" textLength="5.3666" font-size="2.3234" lengthAdjust="spacingAndGlyphs" text-anchor="middle" opacity="0.01" style="font-family:monospace">D11</text>
</g>
<g class="stroked-text"><desc>D11</desc>
<path d="M287.1864 87.6359 L288.9290 87.6359 "/>
<path d="M288.9290 87.6359 L288.9290 88.0508 "/>
<path d="M288.9290 88.0508 L288.8460 88.2997 "/>
<path d="M288.8460 88.2997 L288.6800 88.4657 "/>
<path d="M288.6800 88.4657 L288.5141 88.5487 "/>
<path d="M288.5141 88.5487 L288.1822 88.6316 "/>
<path d="M288.1822 88.6316 L287.9332 88.6316 "/>
<path d="M287.9332 88.6316 L287.6013 88.5487 "/>
<path d="M287.6013 88.5487 L287.4354 88.4657 "/>
<path d="M287.4354 88.4657 L287.2694 88.2997 "/>
<path d="M287.2694 88.2997 L287.1864 88.0508 "/>
<path d="M287.1864 88.0508 L287.1864 87.6359 "/>
<path d="M287.1864 90.2912 L287.1864 89.2955 "/>
<path d="M287.1864 89.7933 L288.9290 89.7933 "/>
<path d="M288.9290 89.7933 L288.6800 89.6274 "/>
<path d="M288.6800 89.6274 L288.5141 89.4614 "/>
<path d="M288.5141 89.4614 L288.4311 89.2955 "/>
<path d="M287.1864 91.9508 L287.1864 90.9550 "/>
<path d="M287.1864 91.4529 L288.9290 91.4529 "/>
<path d="M288.9290 91.4529 L288.6800 91.2870 "/>
<path d="M288.6800 91.2870 L288.5141 91.1210 "/>
<path d="M288.5141 91.1210 L288.4311 90.9550 "/>
</g><g transform="rotate(-270.000000 287.9812 65.6407)">
<text x="287.9812" y="66.5119" textLength="5.3666" font-size="2.3234" lengthAdjust="spacingAndGlyphs" text-anchor="middle" opacity="0.01" style="font-family:monospace">D15</text>
</g>
<g class="stroked-text"><desc>D15</desc>
<path d="M287.1864 63.5247 L288.9290 63.5247 "/>
<path d="M288.9290 63.5247 L288.9290 63.9396 "/>
<path d="M288.9290 63.9396 L288.8460 64.1885 "/>
<path d="M288.8460 64.1885 L288.6800 64.3545 "/>
<path d="M288.6800 64.3545 L288.5141 64.4375 "/>
<path d="M288.5141 64.4375 L288.1822 64.5205 "/>
<path d="M288.1822 64.5205 L287.9332 64.5205 "/>
<path d="M287.9332 64.5205 L287.6013 64.4375 "/>
<path d="M287.6013 64.4375 L287.4354 64.3545 "/>
<path d="M287.4354 64.3545 L287.2694 64.1885 "/>
<path d="M287.2694 64.1885 L287.1864 63.9396 "/>
<path d="M287.1864 63.9396 L287.1864 63.5247 "/>
<path d="M287.1864 66.1800 L287.1864 65.1843 "/>
<path d="M287.1864 65.6822 L288.9290 65.6822 "/>
<path d="M288.9290 65.6822 L288.6800 65.5162 "/>
<path d="M288.6800 65.5162 L288.5141 65.3502 "/>
<path d="M288.5141 65.3502 L288.4311 65.1843 "/>
<path d="M288.9290 67.7566 L288.9290 66.9268 "/>
<path d="M288.9290 66.9268 L288.0992 66.8439 "/>
<path d="M288.0992 66.8439 L288.1822 66.9268 "/>
<path d="M288.1822 66.9268 L288.2651 67.0928 "/>
<path d="M288.2651 67.0928 L288.2651 67.5077 "/>
<path d="M288.2651 67.5077 L288.1822 67.6736 "/>
<path d="M288.1822 67.6736 L288.0992 67.7566 "/>
<path d="M288.0992 67.7566 L287.9332 67.8396 "/>
<path d="M287.9332 67.8396 L287.5183 67.8396 "/>
<path d="M287.5183 67.8396 L287.3524 67.7566 "/>
<path d="M287.3524 67.7566 L287.2694 67.6736 "/>
<path d="M287.2694 67.6736 L287.1864 67.5077 "/>
<path d="M287.1864 67.5077 L287.1864 67.0928 "/>
<path d="M287.1864 67.0928 L287.2694 66.9268 "/>
<path d="M287.2694 66.9268 L287.3524 66.8439 "/>
</g><g transform="rotate(-90.000000 286.0753 46.2470)">
<text x="286.0753" y="47.1183" textLength="7.0262" font-size="2.3234" lengthAdjust="spacingAndGlyphs" text-anchor="middle" opacity="0.01" style="font-family:monospace">270R</text>
</g>
<g class="stroked-text"><desc>270R</desc>
<path d="M285.2935 49.2758 L285.2106 49.1928 "/>
<path d="M285.2106 49.1928 L285.1276 49.0268 "/>
<path d="M285.1276 49.0268 L285.1276 48.6119 "/>
<path d="M285.1276 48.6119 L285.2106 48.4460 "/>
<path d="M285.2106 48.4460 L285.2935 48.3630 "/>
<path d="M285.2935 48.3630 L285.4595 48.2800 "/>
<path d="M285.4595 48.2800 L285.6255 48.2800 "/>
<path d="M285.6255 48.2800 L285.8744 48.3630 "/>
<path d="M285.8744 48.3630 L286.8701 49.3587 "/>
<path d="M286.8701 49.3587 L286.8701 48.2800 "/>
<path d="M285.1276 47.6992 L285.1276 46.5375 "/>
<path d="M285.1276 46.5375 L286.8701 47.2843 "/>
<path d="M285.1276 45.5417 L285.1276 45.3758 "/>
<path d="M285.1276 45.3758 L285.2106 45.2098 "/>
<path d="M285.2106 45.2098 L285.2935 45.1268 "/>
<path d="M285.2935 45.1268 L285.4595 45.0438 "/>
<path d="M285.4595 45.0438 L285.7914 44.9609 "/>
<path d="M285.7914 44.9609 L286.2063 44.9609 "/>
<path d="M286.2063 44.9609 L286.5382 45.0438 "/>
<path d="M286.5382 45.0438 L286.7042 45.1268 "/>
<path d="M286.7042 45.1268 L286.7872 45.2098 "/>
<path d="M286.7872 45.2098 L286.8701 45.3758 "/>
<path d="M286.8701 45.3758 L286.8701 45.5417 "/>
<path d="M286.8701 45.5417 L286.7872 45.7077 "/>
<path d="M286.7872 45.7077 L286.7042 45.7907 "/>
<path d="M286.7042 45.7907 L286.5382 45.8736 "/>
<path d="M286.5382 45.8736 L286.2063 45.9566 "/>
<path d="M286.2063 45.9566 L285.7914 45.9566 "/>
<path d="M285.7914 45.9566 L285.4595 45.8736 "/>
<path d="M285.4595 45.8736 L285.2935 45.7907 "/>
<path d="M285.2935 45.7907 L285.2106 45.7077 "/>
<path d="M285.2106 45.7077 L285.1276 45.5417 "/>
<path d="M286.8701 43.2183 L286.0403 43.7992 "/>
<path d="M286.8701 44.2141 L285.1276 44.2141 "/>
<path d="M285.1276 44.2141 L285.1276 43.5502 "/>
<path d="M285.1276 43.5502 L285.2106 43.3843 "/>
<path d="M285.2106 43.3843 L285.2935 43.3013 "/>
<path d="M285.2935 43.3013 L285.4595 43.2183 "/>
<path d="M285.4595 43.2183 L285.7084 43.2183 "/>
<path d="M285.7084 43.2183 L285.8744 43.3013 "/>
<path d="M285.8744 43.3013 L285.9574 43.3843 "/>
<path d="M285.9574 43.3843 L286.0403 43.5502 "/>
<path d="M286.0403 43.5502 L286.0403 44.2141 "/>
</g><g transform="rotate(-90.000000 289.6693 46.2470)">
<text x="289.6693" y="47.1183" textLength="5.3666" font-size="2.3234" lengthAdjust="spacingAndGlyphs" text-anchor="middle" opacity="0.01" style="font-family:monospace">R18</text>
</g>
<g class="stroked-text"><desc>R18</desc>
<path d="M290.4641 47.3672 L289.6343 47.9481 "/>
<path d="M290.4641 48.3630 L288.7216 48.3630 "/>
<path d="M288.7216 48.3630 L288.7216 47.6992 "/>
<path d="M288.7216 47.6992 L288.8046 47.5332 "/>
<path d="M288.8046 47.5332 L288.8875 47.4502 "/>
<path d="M288.8875 47.4502 L289.0535 47.3672 "/>
<path d="M289.0535 47.3672 L289.3024 47.3672 "/>
<path d="M289.3024 47.3672 L289.4684 47.4502 "/>
<path d="M289.4684 47.4502 L289.5514 47.5332 "/>
<path d="M289.5514 47.5332 L289.6343 47.6992 "/>
<path d="M289.6343 47.6992 L289.6343 48.3630 "/>
<path d="M290.4641 45.7077 L290.4641 46.7034 "/>
<path d="M290.4641 46.2055 L288.7216 46.2055 "/>
<path d="M288.7216 46.2055 L288.9705 46.3715 "/>
<path d="M288.9705 46.3715 L289.1365 46.5375 "/>
<path d="M289.1365 46.5375 L289.2195 46.7034 "/>
<path d="M289.4684 44.7119 L289.3854 44.8779 "/>
<path d="M289.3854 44.8779 L289.3024 44.9609 "/>
<path d="M289.3024 44.9609 L289.1365 45.0438 "/>
<path d="M289.1365 45.0438 L289.0535 45.0438 "/>
<path d="M289.0535 45.0438 L288.8875 44.9609 "/>
<path d="M288.8875 44.9609 L288.8046 44.8779 "/>
<path d="M288.8046 44.8779 L288.7216 44.7119 "/>
<path d="M288.7216 44.7119 L288.7216 44.3800 "/>
<path d="M288.7216 44.3800 L288.8046 44.2141 "/>
<path d="M288.8046 44.2141 L288.8875 44.1311 "/>
<path d="M288.8875 44.1311 L289.0535 44.0481 "/>
<path d="M289.0535 44.0481 L289.1365 44.0481 "/>
<path d="M289.1365 44.0481 L289.3024 44.1311 "/>
<path d="M289.3024 44.1311 L289.3854 44.2141 "/>
<path d="M289.3854 44.2141 L289.4684 44.3800 "/>
<path d="M289.4684 44.3800 L289.4684 44.7119 "/>
<path d="M289.4684 44.7119 L289.5514 44.8779 "/>
<path d="M289.5514 44.8779 L289.6343 44.9609 "/>
<path d="M289.6343 44.9609 L289.8003 45.0438 "/>
<path d="M289.8003 45.0438 L290.1322 45.0438 "/>
<path d="M290.1322 45.0438 L290.2982 44.9609 "/>
<path d="M290.2982 44.9609 L290.3812 44.8779 "/>
<path d="M290.3812 44.8779 L290.4641 44.7119 "/>
<path d="M290.4641 44.7119 L290.4641 44.3800 "/>
<path d="M290.4641 44.3800 L290.3812 44.2141 "/>
<path d="M290.3812 44.2141 L290.2982 44.1311 "/>
<path d="M290.2982 44.1311 L290.1322 44.0481 "/>
<path d="M290.1322 44.0481 L289.8003 44.0481 "/>
<path d="M289.8003 44.0481 L289.6343 44.1311 "/>
<path d="M289.6343 44.1311 L289.5514 44.2141 "/>
<path d="M289.5514 44.2141 L289.4684 44.3800 "/>
</g><g transform="rotate(-270.000000 287.8723 54.4697)">
<text x="287.8723" y="55.3410" textLength="3.7071" font-size="2.3234" lengthAdjust="spacingAndGlyphs" text-anchor="middle" opacity="0.01" style="font-family:monospace">D1</text>
</g>
<g class="stroked-text"><desc>D1</desc>
<path d="M287.0775 53.1835 L288.8201 53.1835 "/>
<path d="M288.8201 53.1835 L288.8201 53.5984 "/>
<path d="M288.8201 53.5984 L288.7371 53.8473 "/>
<path d="M288.7371 53.8473 L288.5711 54.0133 "/>
<path d="M288.5711 54.0133 L288.4052 54.0963 "/>
<path d="M288.4052 54.0963 L288.0733 54.1793 "/>
<path d="M288.0733 54.1793 L287.8243 54.1793 "/>
<path d="M287.8243 54.1793 L287.4924 54.0963 "/>
<path d="M287.4924 54.0963 L287.3264 54.0133 "/>
<path d="M287.3264 54.0133 L287.1605 53.8473 "/>
<path d="M287.1605 53.8473 L287.0775 53.5984 "/>
<path d="M287.0775 53.5984 L287.0775 53.1835 "/>
<path d="M287.0775 55.8388 L287.0775 54.8431 "/>
<path d="M287.0775 55.3410 L288.8201 55.3410 "/>
<path d="M288.8201 55.3410 L288.5711 55.1750 "/>
<path d="M288.5711 55.1750 L288.4052 55.0090 "/>
<path d="M288.4052 55.0090 L288.3222 54.8431 "/>
</g><g transform="rotate(-270.000000 288.1991 147.5327)">
<text x="288.1991" y="148.4040" textLength="3.7071" font-size="2.3234" lengthAdjust="spacingAndGlyphs" text-anchor="middle" opacity="0.01" style="font-family:monospace">D3</text>
</g>
<g class="stroked-text"><desc>D3</desc>
<path d="M287.4042 146.2465 L289.1468 146.2465 "/>
<path d="M289.1468 146.2465 L289.1468 146.6614 "/>
<path d="M289.1468 146.6614 L289.0638 146.9103 "/>
<path d="M289.0638 146.9103 L288.8979 147.0763 "/>
<path d="M288.8979 147.0763 L288.7319 147.1593 "/>
<path d="M288.7319 147.1593 L288.4000 147.2423 "/>
<path d="M288.4000 147.2423 L288.1510 147.2423 "/>
<path d="M288.1510 147.2423 L287.8191 147.1593 "/>
<path d="M287.8191 147.1593 L287.6532 147.0763 "/>
<path d="M287.6532 147.0763 L287.4872 146.9103 "/>
<path d="M287.4872 146.9103 L287.4042 146.6614 "/>
<path d="M287.4042 146.6614 L287.4042 146.2465 "/>
<path d="M289.1468 147.8231 L289.1468 148.9018 "/>
<path d="M289.1468 148.9018 L288.4830 148.3210 "/>
<path d="M288.4830 148.3210 L288.4830 148.5699 "/>
<path d="M288.4830 148.5699 L288.4000 148.7359 "/>
<path d="M288.4000 148.7359 L288.3170 148.8188 "/>
<path d="M288.3170 148.8188 L288.1510 148.9018 "/>
<path d="M288.1510 148.9018 L287.7362 148.9018 "/>
<path d="M287.7362 148.9018 L287.5702 148.8188 "/>
<path d="M287.5702 148.8188 L287.4872 148.7359 "/>
<path d="M287.4872 148.7359 L287.4042 148.5699 "/>
<path d="M287.4042 148.5699 L287.4042 148.0720 "/>
<path d="M287.4042 148.0720 L287.4872 147.9061 "/>
<path d="M287.4872 147.9061 L287.5702 147.8231 "/>
</g><g transform="rotate(-270.000000 287.9812 77.6963)">
<text x="287.9812" y="78.5675" textLength="5.3666" font-size="2.3234" lengthAdjust="spacingAndGlyphs" text-anchor="middle" opacity="0.01" style="font-family:monospace">D13</text>
</g>
<g class="stroked-text"><desc>D13</desc>
<path d="M287.1864 75.5803 L288.9290 75.5803 "/>
<path d="M288.9290 75.5803 L288.9290 75.9952 "/>
<path d="M288.9290 75.9952 L288.8460 76.2441 "/>
<path d="M288.8460 76.2441 L288.6800 76.4101 "/>
<path d="M288.6800 76.4101 L288.5141 76.4931 "/>
<path d="M288.5141 76.4931 L288.1822 76.5760 "/>
<path d="M288.1822 76.5760 L287.9332 76.5760 "/>
<path d="M287.9332 76.5760 L287.6013 76.4931 "/>
<path d="M287.6013 76.4931 L287.4354 76.4101 "/>
<path d="M287.4354 76.4101 L287.2694 76.2441 "/>
<path d="M287.2694 76.2441 L287.1864 75.9952 "/>
<path d="M287.1864 75.9952 L287.1864 75.5803 "/>
<path d="M287.1864 78.2356 L287.1864 77.2399 "/>
<path d="M287.1864 77.7377 L288.9290 77.7377 "/>
<path d="M288.9290 77.7377 L288.6800 77.5718 "/>
<path d="M288.6800 77.5718 L288.5141 77.4058 "/>
<path d="M288.5141 77.4058 L288.4311 77.2399 "/>
<path d="M288.9290 78.8165 L288.9290 79.8952 "/>
<path d="M288.9290 79.8952 L288.2651 79.3143 "/>
<path d="M288.2651 79.3143 L288.2651 79.5633 "/>
<path d="M288.2651 79.5633 L288.1822 79.7292 "/>
<path d="M288.1822 79.7292 L288.0992 79.8122 "/>
<path d="M288.0992 79.8122 L287.9332 79.8952 "/>
<path d="M287.9332 79.8952 L287.5183 79.8952 "/>
<path d="M287.5183 79.8952 L287.3524 79.8122 "/>
<path d="M287.3524 79.8122 L287.2694 79.7292 "/>
<path d="M287.2694 79.7292 L287.1864 79.5633 "/>
<path d="M287.1864 79.5633 L287.1864 79.0654 "/>
<path d="M287.1864 79.0654 L287.2694 78.8994 "/>
<path d="M287.2694 78.8994 L287.3524 78.8165 "/>
</g><text x="288.3080" y="101.4763" textLength="7.0262" font-size="2.3234" lengthAdjust="spacingAndGlyphs" text-anchor="middle" opacity="0.01" style="font-family:monospace">270R</text>
<g class="stroked-text"><desc>270R</desc>
<path d="M285.2792 99.8232 L285.3622 99.7402 "/>
<path d="M285.3622 99.7402 L285.5282 99.6573 "/>
<path d="M285.5282 99.6573 L285.9431 99.6573 "/>
<path d="M285.9431 99.6573 L286.1090 99.7402 "/>
<path d="M286.1090 99.7402 L286.1920 99.8232 "/>
<path d="M286.1920 99.8232 L286.2750 99.9892 "/>
<path d="M286.2750 99.9892 L286.2750 100.1551 "/>
<path d="M286.2750 100.1551 L286.1920 100.4041 "/>
<path d="M286.1920 100.4041 L285.1963 101.3998 "/>
<path d="M285.1963 101.3998 L286.2750 101.3998 "/>
<path d="M286.8558 99.6573 L288.0175 99.6573 "/>
<path d="M288.0175 99.6573 L287.2707 101.3998 "/>
<path d="M289.0133 99.6573 L289.1792 99.6573 "/>
<path d="M289.1792 99.6573 L289.3452 99.7402 "/>
<path d="M289.3452 99.7402 L289.4282 99.8232 "/>
<path d="M289.4282 99.8232 L289.5111 99.9892 "/>
<path d="M289.5111 99.9892 L289.5941 100.3211 "/>
<path d="M289.5941 100.3211 L289.5941 100.7360 "/>
<path d="M289.5941 100.7360 L289.5111 101.0679 "/>
<path d="M289.5111 101.0679 L289.4282 101.2338 "/>
<path d="M289.4282 101.2338 L289.3452 101.3168 "/>
<path d="M289.3452 101.3168 L289.1792 101.3998 "/>
<path d="M289.1792 101.3998 L289.0133 101.3998 "/>
<path d="M289.0133 101.3998 L288.8473 101.3168 "/>
<path d="M288.8473 101.3168 L288.7643 101.2338 "/>
<path d="M288.7643 101.2338 L288.6814 101.0679 "/>
<path d="M288.6814 101.0679 L288.5984 100.7360 "/>
<path d="M288.5984 100.7360 L288.5984 100.3211 "/>
<path d="M288.5984 100.3211 L288.6814 99.9892 "/>
<path d="M288.6814 99.9892 L288.7643 99.8232 "/>
<path d="M288.7643 99.8232 L288.8473 99.7402 "/>
<path d="M288.8473 99.7402 L289.0133 99.6573 "/>
<path d="M291.3367 101.3998 L290.7558 100.5700 "/>
<path d="M290.3409 101.3998 L290.3409 99.6573 "/>
<path d="M290.3409 99.6573 L291.0048 99.6573 "/>
<path d="M291.0048 99.6573 L291.1707 99.7402 "/>
<path d="M291.1707 99.7402 L291.2537 99.8232 "/>
<path d="M291.2537 99.8232 L291.3367 99.9892 "/>
<path d="M291.3367 99.9892 L291.3367 100.2381 "/>
<path d="M291.3367 100.2381 L291.2537 100.4041 "/>
<path d="M291.2537 100.4041 L291.1707 100.4870 "/>
<path d="M291.1707 100.4870 L291.0048 100.5700 "/>
<path d="M291.0048 100.5700 L290.3409 100.5700 "/>
</g><text x="288.3080" y="105.0703" textLength="5.3666" font-size="2.3234" lengthAdjust="spacingAndGlyphs" text-anchor="middle" opacity="0.01" style="font-family:monospace">R53</text>
<g class="stroked-text"><desc>R53</desc>
<path d="M287.1877 104.9938 L286.6069 104.1640 "/>
<path d="M286.1920 104.9938 L286.1920 103.2513 "/>
<path d="M286.1920 103.2513 L286.8558 103.2513 "/>
<path d="M286.8558 103.2513 L287.0218 103.3342 "/>
<path d="M287.0218 103.3342 L287.1048 103.4172 "/>
<path d="M287.1048 103.4172 L287.1877 103.5832 "/>
<path d="M287.1877 103.5832 L287.1877 103.8321 "/>
<path d="M287.1877 103.8321 L287.1048 103.9981 "/>
<path d="M287.1048 103.9981 L287.0218 104.0810 "/>
<path d="M287.0218 104.0810 L286.8558 104.1640 "/>
<path d="M286.8558 104.1640 L286.1920 104.1640 "/>
<path d="M288.7643 103.2513 L287.9346 103.2513 "/>
<path d="M287.9346 103.2513 L287.8516 104.0810 "/>
<path d="M287.8516 104.0810 L287.9346 103.9981 "/>
<path d="M287.9346 103.9981 L288.1005 103.9151 "/>
<path d="M288.1005 103.9151 L288.5154 103.9151 "/>
<path d="M288.5154 103.9151 L288.6814 103.9981 "/>
<path d="M288.6814 103.9981 L288.7643 104.0810 "/>
<path d="M288.7643 104.0810 L288.8473 104.2470 "/>
<path d="M288.8473 104.2470 L288.8473 104.6619 "/>
<path d="M288.8473 104.6619 L288.7643 104.8279 "/>
<path d="M288.7643 104.8279 L288.6814 104.9108 "/>
<path d="M288.6814 104.9108 L288.5154 104.9938 "/>
<path d="M288.5154 104.9938 L288.1005 104.9938 "/>
<path d="M288.1005 104.9938 L287.9346 104.9108 "/>
<path d="M287.9346 104.9108 L287.8516 104.8279 "/>
<path d="M289.4282 103.2513 L290.5069 103.2513 "/>
<path d="M290.5069 103.2513 L289.9260 103.9151 "/>
<path d="M289.9260 103.9151 L290.1750 103.9151 "/>
<path d="M290.1750 103.9151 L290.3409 103.9981 "/>
<path d="M290.3409 103.9981 L290.4239 104.0810 "/>
<path d="M290.4239 104.0810 L290.5069 104.2470 "/>
<path d="M290.5069 104.2470 L290.5069 104.6619 "/>
<path d="M290.5069 104.6619 L290.4239 104.8279 "/>
<path d="M290.4239 104.8279 L290.3409 104.9108 "/>
<path d="M290.3409 104.9108 L290.1750 104.9938 "/>
<path d="M290.1750 104.9938 L289.6771 104.9938 "/>
<path d="M289.6771 104.9938 L289.5111 104.9108 "/>
<path d="M289.5111 104.9108 L289.4282 104.8279 "/>
</g><text x="288.1718" y="66.6253" textLength="7.0262" font-size="2.3234" lengthAdjust="spacingAndGlyphs" text-anchor="middle" opacity="0.01" style="font-family:monospace">270R</text>
<g class="stroked-text"><desc>270R</desc>
<path d="M285.1431 64.9722 L285.2261 64.8893 "/>
<path d="M285.2261 64.8893 L285.3920 64.8063 "/>
<path d="M285.3920 64.8063 L285.8069 64.8063 "/>
<path d="M285.8069 64.8063 L285.9729 64.8893 "/>
<path d="M285.9729 64.8893 L286.0559 64.9722 "/>
<path d="M286.0559 64.9722 L286.1388 65.1382 "/>
<path d="M286.1388 65.1382 L286.1388 65.3042 "/>
<path d="M286.1388 65.3042 L286.0559 65.5531 "/>
<path d="M286.0559 65.5531 L285.0601 66.5488 "/>
<path d="M285.0601 66.5488 L286.1388 66.5488 "/>
<path d="M286.7197 64.8063 L287.8814 64.8063 "/>
<path d="M287.8814 64.8063 L287.1346 66.5488 "/>
<path d="M288.8771 64.8063 L289.0431 64.8063 "/>
<path d="M289.0431 64.8063 L289.2091 64.8893 "/>
<path d="M289.2091 64.8893 L289.2920 64.9722 "/>
<path d="M289.2920 64.9722 L289.3750 65.1382 "/>
<path d="M289.3750 65.1382 L289.4580 65.4701 "/>
<path d="M289.4580 65.4701 L289.4580 65.8850 "/>
<path d="M289.4580 65.8850 L289.3750 66.2169 "/>
<path d="M289.3750 66.2169 L289.2920 66.3829 "/>
<path d="M289.2920 66.3829 L289.2091 66.4659 "/>
<path d="M289.2091 66.4659 L289.0431 66.5488 "/>
<path d="M289.0431 66.5488 L288.8771 66.5488 "/>
<path d="M288.8771 66.5488 L288.7112 66.4659 "/>
<path d="M288.7112 66.4659 L288.6282 66.3829 "/>
<path d="M288.6282 66.3829 L288.5452 66.2169 "/>
<path d="M288.5452 66.2169 L288.4622 65.8850 "/>
<path d="M288.4622 65.8850 L288.4622 65.4701 "/>
<path d="M288.4622 65.4701 L288.5452 65.1382 "/>
<path d="M288.5452 65.1382 L288.6282 64.9722 "/>
<path d="M288.6282 64.9722 L288.7112 64.8893 "/>
<path d="M288.7112 64.8893 L288.8771 64.8063 "/>
<path d="M291.2005 66.5488 L290.6197 65.7190 "/>
<path d="M290.2048 66.5488 L290.2048 64.8063 "/>
<path d="M290.2048 64.8063 L290.8686 64.8063 "/>
<path d="M290.8686 64.8063 L291.0346 64.8893 "/>
<path d="M291.0346 64.8893 L291.1176 64.9722 "/>
<path d="M291.1176 64.9722 L291.2005 65.1382 "/>
<path d="M291.2005 65.1382 L291.2005 65.3871 "/>
<path d="M291.2005 65.3871 L291.1176 65.5531 "/>
<path d="M291.1176 65.5531 L291.0346 65.6361 "/>
<path d="M291.0346 65.6361 L290.8686 65.7190 "/>
<path d="M290.8686 65.7190 L290.2048 65.7190 "/>
</g><text x="288.1718" y="70.2193" textLength="5.3666" font-size="2.3234" lengthAdjust="spacingAndGlyphs" text-anchor="middle" opacity="0.01" style="font-family:monospace">R59</text>
<g class="stroked-text"><desc>R59</desc>
<path d="M287.0516 70.1428 L286.4708 69.3131 "/>
<path d="M286.0559 70.1428 L286.0559 68.4003 "/>
<path d="M286.0559 68.4003 L286.7197 68.4003 "/>
<path d="M286.7197 68.4003 L286.8857 68.4833 "/>
<path d="M286.8857 68.4833 L286.9686 68.5662 "/>
<path d="M286.9686 68.5662 L287.0516 68.7322 "/>
<path d="M287.0516 68.7322 L287.0516 68.9811 "/>
<path d="M287.0516 68.9811 L286.9686 69.1471 "/>
<path d="M286.9686 69.1471 L286.8857 69.2301 "/>
<path d="M286.8857 69.2301 L286.7197 69.3131 "/>
<path d="M286.7197 69.3131 L286.0559 69.3131 "/>
<path d="M288.6282 68.4003 L287.7984 68.4003 "/>
<path d="M287.7984 68.4003 L287.7154 69.2301 "/>
<path d="M287.7154 69.2301 L287.7984 69.1471 "/>
<path d="M287.7984 69.1471 L287.9644 69.0641 "/>
<path d="M287.9644 69.0641 L288.3793 69.0641 "/>
<path d="M288.3793 69.0641 L288.5452 69.1471 "/>
<path d="M288.5452 69.1471 L288.6282 69.2301 "/>
<path d="M288.6282 69.2301 L288.7112 69.3960 "/>
<path d="M288.7112 69.3960 L288.7112 69.8109 "/>
<path d="M288.7112 69.8109 L288.6282 69.9769 "/>
<path d="M288.6282 69.9769 L288.5452 70.0599 "/>
<path d="M288.5452 70.0599 L288.3793 70.1428 "/>
<path d="M288.3793 70.1428 L287.9644 70.1428 "/>
<path d="M287.9644 70.1428 L287.7984 70.0599 "/>
<path d="M287.7984 70.0599 L287.7154 69.9769 "/>
<path d="M289.5410 70.1428 L289.8729 70.1428 "/>
<path d="M289.8729 70.1428 L290.0388 70.0599 "/>
<path d="M290.0388 70.0599 L290.1218 69.9769 "/>
<path d="M290.1218 69.9769 L290.2878 69.7279 "/>
<path d="M290.2878 69.7279 L290.3708 69.3960 "/>
<path d="M290.3708 69.3960 L290.3708 68.7322 "/>
<path d="M290.3708 68.7322 L290.2878 68.5662 "/>
<path d="M290.2878 68.5662 L290.2048 68.4833 "/>
<path d="M290.2048 68.4833 L290.0388 68.4003 "/>
<path d="M290.0388 68.4003 L289.7069 68.4003 "/>
<path d="M289.7069 68.4003 L289.5410 68.4833 "/>
<path d="M289.5410 68.4833 L289.4580 68.5662 "/>
<path d="M289.4580 68.5662 L289.3750 68.7322 "/>
<path d="M289.3750 68.7322 L289.3750 69.1471 "/>
<path d="M289.3750 69.1471 L289.4580 69.3131 "/>
<path d="M289.4580 69.3131 L289.5410 69.3960 "/>
<path d="M289.5410 69.3960 L289.7069 69.4790 "/>
<path d="M289.7069 69.4790 L290.0388 69.4790 "/>
<path d="M290.0388 69.4790 L290.2048 69.3960 "/>
<path d="M290.2048 69.3960 L290.2878 69.3131 "/>
<path d="M290.2878 69.3131 L290.3708 69.1471 "/>
</g><g transform="rotate(-270.000000 287.9812 71.6685)">
<text x="287.9812" y="72.5397" textLength="5.3666" font-size="2.3234" lengthAdjust="spacingAndGlyphs" text-anchor="middle" opacity="0.01" style="font-family:monospace">D14</text>
</g>
<g class="stroked-text"><desc>D14</desc>
<path d="M287.1864 69.5525 L288.9290 69.5525 "/>
<path d="M288.9290 69.5525 L288.9290 69.9674 "/>
<path d="M288.9290 69.9674 L288.8460 70.2163 "/>
<path d="M288.8460 70.2163 L288.6800 70.3823 "/>
<path d="M288.6800 70.3823 L288.5141 70.4653 "/>
<path d="M288.5141 70.4653 L288.1822 70.5483 "/>
<path d="M288.1822 70.5483 L287.9332 70.5483 "/>
<path d="M287.9332 70.5483 L287.6013 70.4653 "/>
<path d="M287.6013 70.4653 L287.4354 70.3823 "/>
<path d="M287.4354 70.3823 L287.2694 70.2163 "/>
<path d="M287.2694 70.2163 L287.1864 69.9674 "/>
<path d="M287.1864 69.9674 L287.1864 69.5525 "/>
<path d="M287.1864 72.2078 L287.1864 71.2121 "/>
<path d="M287.1864 71.7100 L288.9290 71.7100 "/>
<path d="M288.9290 71.7100 L288.6800 71.5440 "/>
<path d="M288.6800 71.5440 L288.5141 71.3780 "/>
<path d="M288.5141 71.3780 L288.4311 71.2121 "/>
<path d="M288.3481 73.7014 L287.1864 73.7014 "/>
<path d="M289.0119 73.2865 L287.7673 72.8717 "/>
<path d="M287.7673 72.8717 L287.7673 73.9504 "/>
</g><g transform="rotate(-270.000000 287.9812 83.7241)">
<text x="287.9812" y="84.5953" textLength="5.3666" font-size="2.3234" lengthAdjust="spacingAndGlyphs" text-anchor="middle" opacity="0.01" style="font-family:monospace">D12</text>
</g>
<g class="stroked-text"><desc>D12</desc>
<path d="M287.1864 81.6081 L288.9290 81.6081 "/>
<path d="M288.9290 81.6081 L288.9290 82.0230 "/>
<path d="M288.9290 82.0230 L288.8460 82.2719 "/>
<path d="M288.8460 82.2719 L288.6800 82.4379 "/>
<path d="M288.6800 82.4379 L288.5141 82.5209 "/>
<path d="M288.5141 82.5209 L288.1822 82.6038 "/>
<path d="M288.1822 82.6038 L287.9332 82.6038 "/>
<path d="M287.9332 82.6038 L287.6013 82.5209 "/>
<path d="M287.6013 82.5209 L287.4354 82.4379 "/>
<path d="M287.4354 82.4379 L287.2694 82.2719 "/>
<path d="M287.2694 82.2719 L287.1864 82.0230 "/>
<path d="M287.1864 82.0230 L287.1864 81.6081 "/>
<path d="M287.1864 84.2634 L287.1864 83.2677 "/>
<path d="M287.1864 83.7655 L288.9290 83.7655 "/>
<path d="M288.9290 83.7655 L288.6800 83.5996 "/>
<path d="M288.6800 83.5996 L288.5141 83.4336 "/>
<path d="M288.5141 83.4336 L288.4311 83.2677 "/>
<path d="M288.7630 84.9272 L288.8460 85.0102 "/>
<path d="M288.8460 85.0102 L288.9290 85.1762 "/>
<path d="M288.9290 85.1762 L288.9290 85.5911 "/>
<path d="M288.9290 85.5911 L288.8460 85.7570 "/>
<path d="M288.8460 85.7570 L288.7630 85.8400 "/>
<path d="M288.7630 85.8400 L288.5971 85.9230 "/>
<path d="M288.5971 85.9230 L288.4311 85.9230 "/>
<path d="M288.4311 85.9230 L288.1822 85.8400 "/>
<path d="M288.1822 85.8400 L287.1864 84.8443 "/>
<path d="M287.1864 84.8443 L287.1864 85.9230 "/>
</g><text x="288.1991" y="92.9813" textLength="7.0262" font-size="2.3234" lengthAdjust="spacingAndGlyphs" text-anchor="middle" opacity="0.01" style="font-family:monospace">270R</text>
<g class="stroked-text"><desc>270R</desc>
<path d="M285.1703 91.3283 L285.2533 91.2453 "/>
<path d="M285.2533 91.2453 L285.4193 91.1623 "/>
<path d="M285.4193 91.1623 L285.8342 91.1623 "/>
<path d="M285.8342 91.1623 L286.0001 91.2453 "/>
<path d="M286.0001 91.2453 L286.0831 91.3283 "/>
<path d="M286.0831 91.3283 L286.1661 91.4942 "/>
<path d="M286.1661 91.4942 L286.1661 91.6602 "/>
<path d="M286.1661 91.6602 L286.0831 91.9091 "/>
<path d="M286.0831 91.9091 L285.0874 92.9049 "/>
<path d="M285.0874 92.9049 L286.1661 92.9049 "/>
<path d="M286.7469 91.1623 L287.9086 91.1623 "/>
<path d="M287.9086 91.1623 L287.1618 92.9049 "/>
<path d="M288.9044 91.1623 L289.0703 91.1623 "/>
<path d="M289.0703 91.1623 L289.2363 91.2453 "/>
<path d="M289.2363 91.2453 L289.3193 91.3283 "/>
<path d="M289.3193 91.3283 L289.4022 91.4942 "/>
<path d="M289.4022 91.4942 L289.4852 91.8262 "/>
<path d="M289.4852 91.8262 L289.4852 92.2411 "/>
<path d="M289.4852 92.2411 L289.4022 92.5730 "/>
<path d="M289.4022 92.5730 L289.3193 92.7389 "/>
<path d="M289.3193 92.7389 L289.2363 92.8219 "/>
<path d="M289.2363 92.8219 L289.0703 92.9049 "/>
<path d="M289.0703 92.9049 L288.9044 92.9049 "/>
<path d="M288.9044 92.9049 L288.7384 92.8219 "/>
<path d="M288.7384 92.8219 L288.6554 92.7389 "/>
<path d="M288.6554 92.7389 L288.5725 92.5730 "/>
<path d="M288.5725 92.5730 L288.4895 92.2411 "/>
<path d="M288.4895 92.2411 L288.4895 91.8262 "/>
<path d="M288.4895 91.8262 L288.5725 91.4942 "/>
<path d="M288.5725 91.4942 L288.6554 91.3283 "/>
<path d="M288.6554 91.3283 L288.7384 91.2453 "/>
<path d="M288.7384 91.2453 L288.9044 91.1623 "/>
<path d="M291.2278 92.9049 L290.6469 92.0751 "/>
<path d="M290.2320 92.9049 L290.2320 91.1623 "/>
<path d="M290.2320 91.1623 L290.8959 91.1623 "/>
<path d="M290.8959 91.1623 L291.0618 91.2453 "/>
<path d="M291.0618 91.2453 L291.1448 91.3283 "/>
<path d="M291.1448 91.3283 L291.2278 91.4942 "/>
<path d="M291.2278 91.4942 L291.2278 91.7432 "/>
<path d="M291.2278 91.7432 L291.1448 91.9091 "/>
<path d="M291.1448 91.9091 L291.0618 91.9921 "/>
<path d="M291.0618 91.9921 L290.8959 92.0751 "/>
<path d="M290.8959 92.0751 L290.2320 92.0751 "/>
</g><text x="288.1991" y="96.5754" textLength="5.3666" font-size="2.3234" lengthAdjust="spacingAndGlyphs" text-anchor="middle" opacity="0.01" style="font-family:monospace">R55</text>
<g class="stroked-text"><desc>R55</desc>
<path d="M287.0788 96.4989 L286.4980 95.6691 "/>
<path d="M286.0831 96.4989 L286.0831 94.7563 "/>
<path d="M286.0831 94.7563 L286.7469 94.7563 "/>
<path d="M286.7469 94.7563 L286.9129 94.8393 "/>
<path d="M286.9129 94.8393 L286.9959 94.9223 "/>
<path d="M286.9959 94.9223 L287.0788 95.0883 "/>
<path d="M287.0788 95.0883 L287.0788 95.3372 "/>
<path d="M287.0788 95.3372 L286.9959 95.5031 "/>
<path d="M286.9959 95.5031 L286.9129 95.5861 "/>
<path d="M286.9129 95.5861 L286.7469 95.6691 "/>
<path d="M286.7469 95.6691 L286.0831 95.6691 "/>
<path d="M288.6554 94.7563 L287.8256 94.7563 "/>
<path d="M287.8256 94.7563 L287.7427 95.5861 "/>
<path d="M287.7427 95.5861 L287.8256 95.5031 "/>
<path d="M287.8256 95.5031 L287.9916 95.4202 "/>
<path d="M287.9916 95.4202 L288.4065 95.4202 "/>
<path d="M288.4065 95.4202 L288.5725 95.5031 "/>
<path d="M288.5725 95.5031 L288.6554 95.5861 "/>
<path d="M288.6554 95.5861 L288.7384 95.7521 "/>
<path d="M288.7384 95.7521 L288.7384 96.1670 "/>
<path d="M288.7384 96.1670 L288.6554 96.3329 "/>
<path d="M288.6554 96.3329 L288.5725 96.4159 "/>
<path d="M288.5725 96.4159 L288.4065 96.4989 "/>
<path d="M288.4065 96.4989 L287.9916 96.4989 "/>
<path d="M287.9916 96.4989 L287.8256 96.4159 "/>
<path d="M287.8256 96.4159 L287.7427 96.3329 "/>
<path d="M290.3150 94.7563 L289.4852 94.7563 "/>
<path d="M289.4852 94.7563 L289.4022 95.5861 "/>
<path d="M289.4022 95.5861 L289.4852 95.5031 "/>
<path d="M289.4852 95.5031 L289.6512 95.4202 "/>
<path d="M289.6512 95.4202 L290.0661 95.4202 "/>
<path d="M290.0661 95.4202 L290.2320 95.5031 "/>
<path d="M290.2320 95.5031 L290.3150 95.5861 "/>
<path d="M290.3150 95.5861 L290.3980 95.7521 "/>
<path d="M290.3980 95.7521 L290.3980 96.1670 "/>
<path d="M290.3980 96.1670 L290.3150 96.3329 "/>
<path d="M290.3150 96.3329 L290.2320 96.4159 "/>
<path d="M290.2320 96.4159 L290.0661 96.4989 "/>
<path d="M290.0661 96.4989 L289.6512 96.4989 "/>
<path d="M289.6512 96.4989 L289.4852 96.4159 "/>
<path d="M289.4852 96.4159 L289.4022 96.3329 "/>
</g><g transform="rotate(-270.000000 288.1991 153.5771)">
<text x="288.1991" y="154.4484" textLength="3.7071" font-size="2.3234" lengthAdjust="spacingAndGlyphs" text-anchor="middle" opacity="0.01" style="font-family:monospace">D5</text>
</g>
<g class="stroked-text"><desc>D5</desc>
<path d="M287.4042 152.2910 L289.1468 152.2910 "/>
<path d="M289.1468 152.2910 L289.1468 152.7059 "/>
<path d="M289.1468 152.7059 L289.0638 152.9548 "/>
<path d="M289.0638 152.9548 L288.8979 153.1208 "/>
<path d="M288.8979 153.1208 L288.7319 153.2037 "/>
<path d="M288.7319 153.2037 L288.4000 153.2867 "/>
<path d="M288.4000 153.2867 L288.1510 153.2867 "/>
<path d="M288.1510 153.2867 L287.8191 153.2037 "/>
<path d="M287.8191 153.2037 L287.6532 153.1208 "/>
<path d="M287.6532 153.1208 L287.4872 152.9548 "/>
<path d="M287.4872 152.9548 L287.4042 152.7059 "/>
<path d="M287.4042 152.7059 L287.4042 152.2910 "/>
<path d="M289.1468 154.8633 L289.1468 154.0335 "/>
<path d="M289.1468 154.0335 L288.3170 153.9505 "/>
<path d="M288.3170 153.9505 L288.4000 154.0335 "/>
<path d="M288.4000 154.0335 L288.4830 154.1995 "/>
<path d="M288.4830 154.1995 L288.4830 154.6144 "/>
<path d="M288.4830 154.6144 L288.4000 154.7803 "/>
<path d="M288.4000 154.7803 L288.3170 154.8633 "/>
<path d="M288.3170 154.8633 L288.1510 154.9463 "/>
<path d="M288.1510 154.9463 L287.7362 154.9463 "/>
<path d="M287.7362 154.9463 L287.5702 154.8633 "/>
<path d="M287.5702 154.8633 L287.4872 154.7803 "/>
<path d="M287.4872 154.7803 L287.4042 154.6144 "/>
<path d="M287.4042 154.6144 L287.4042 154.1995 "/>
<path d="M287.4042 154.1995 L287.4872 154.0335 "/>
<path d="M287.4872 154.0335 L287.5702 153.9505 "/>
</g><text x="288.1446" y="75.1202" textLength="7.0262" font-size="2.3234" lengthAdjust="spacingAndGlyphs" text-anchor="middle" opacity="0.01" style="font-family:monospace">270R</text>
<g class="stroked-text"><desc>270R</desc>
<path d="M285.1159 73.4672 L285.1989 73.3842 "/>
<path d="M285.1989 73.3842 L285.3648 73.3012 "/>
<path d="M285.3648 73.3012 L285.7797 73.3012 "/>
<path d="M285.7797 73.3012 L285.9457 73.3842 "/>
<path d="M285.9457 73.3842 L286.0286 73.4672 "/>
<path d="M286.0286 73.4672 L286.1116 73.6331 "/>
<path d="M286.1116 73.6331 L286.1116 73.7991 "/>
<path d="M286.1116 73.7991 L286.0286 74.0480 "/>
<path d="M286.0286 74.0480 L285.0329 75.0438 "/>
<path d="M285.0329 75.0438 L286.1116 75.0438 "/>
<path d="M286.6925 73.3012 L287.8542 73.3012 "/>
<path d="M287.8542 73.3012 L287.1074 75.0438 "/>
<path d="M288.8499 73.3012 L289.0159 73.3012 "/>
<path d="M289.0159 73.3012 L289.1818 73.3842 "/>
<path d="M289.1818 73.3842 L289.2648 73.4672 "/>
<path d="M289.2648 73.4672 L289.3478 73.6331 "/>
<path d="M289.3478 73.6331 L289.4308 73.9650 "/>
<path d="M289.4308 73.9650 L289.4308 74.3799 "/>
<path d="M289.4308 74.3799 L289.3478 74.7118 "/>
<path d="M289.3478 74.7118 L289.2648 74.8778 "/>
<path d="M289.2648 74.8778 L289.1818 74.9608 "/>
<path d="M289.1818 74.9608 L289.0159 75.0438 "/>
<path d="M289.0159 75.0438 L288.8499 75.0438 "/>
<path d="M288.8499 75.0438 L288.6840 74.9608 "/>
<path d="M288.6840 74.9608 L288.6010 74.8778 "/>
<path d="M288.6010 74.8778 L288.5180 74.7118 "/>
<path d="M288.5180 74.7118 L288.4350 74.3799 "/>
<path d="M288.4350 74.3799 L288.4350 73.9650 "/>
<path d="M288.4350 73.9650 L288.5180 73.6331 "/>
<path d="M288.5180 73.6331 L288.6010 73.4672 "/>
<path d="M288.6010 73.4672 L288.6840 73.3842 "/>
<path d="M288.6840 73.3842 L288.8499 73.3012 "/>
<path d="M291.1733 75.0438 L290.5925 74.2140 "/>
<path d="M290.1776 75.0438 L290.1776 73.3012 "/>
<path d="M290.1776 73.3012 L290.8414 73.3012 "/>
<path d="M290.8414 73.3012 L291.0074 73.3842 "/>
<path d="M291.0074 73.3842 L291.0903 73.4672 "/>
<path d="M291.0903 73.4672 L291.1733 73.6331 "/>
<path d="M291.1733 73.6331 L291.1733 73.8821 "/>
<path d="M291.1733 73.8821 L291.0903 74.0480 "/>
<path d="M291.0903 74.0480 L291.0074 74.1310 "/>
<path d="M291.0074 74.1310 L290.8414 74.2140 "/>
<path d="M290.8414 74.2140 L290.1776 74.2140 "/>
</g><text x="288.1446" y="78.7142" textLength="5.3666" font-size="2.3234" lengthAdjust="spacingAndGlyphs" text-anchor="middle" opacity="0.01" style="font-family:monospace">R57</text>
<g class="stroked-text"><desc>R57</desc>
<path d="M287.0244 78.6378 L286.4435 77.8080 "/>
<path d="M286.0286 78.6378 L286.0286 76.8952 "/>
<path d="M286.0286 76.8952 L286.6925 76.8952 "/>
<path d="M286.6925 76.8952 L286.8584 76.9782 "/>
<path d="M286.8584 76.9782 L286.9414 77.0612 "/>
<path d="M286.9414 77.0612 L287.0244 77.2271 "/>
<path d="M287.0244 77.2271 L287.0244 77.4761 "/>
<path d="M287.0244 77.4761 L286.9414 77.6420 "/>
<path d="M286.9414 77.6420 L286.8584 77.7250 "/>
<path d="M286.8584 77.7250 L286.6925 77.8080 "/>
<path d="M286.6925 77.8080 L286.0286 77.8080 "/>
<path d="M288.6010 76.8952 L287.7712 76.8952 "/>
<path d="M287.7712 76.8952 L287.6882 77.7250 "/>
<path d="M287.6882 77.7250 L287.7712 77.6420 "/>
<path d="M287.7712 77.6420 L287.9371 77.5590 "/>
<path d="M287.9371 77.5590 L288.3520 77.5590 "/>
<path d="M288.3520 77.5590 L288.5180 77.6420 "/>
<path d="M288.5180 77.6420 L288.6010 77.7250 "/>
<path d="M288.6010 77.7250 L288.6840 77.8910 "/>
<path d="M288.6840 77.8910 L288.6840 78.3058 "/>
<path d="M288.6840 78.3058 L288.6010 78.4718 "/>
<path d="M288.6010 78.4718 L288.5180 78.5548 "/>
<path d="M288.5180 78.5548 L288.3520 78.6378 "/>
<path d="M288.3520 78.6378 L287.9371 78.6378 "/>
<path d="M287.9371 78.6378 L287.7712 78.5548 "/>
<path d="M287.7712 78.5548 L287.6882 78.4718 "/>
<path d="M289.2648 76.8952 L290.4265 76.8952 "/>
<path d="M290.4265 76.8952 L289.6797 78.6378 "/>
</g><g transform="rotate(-270.000000 28.6137 145.9099)">
<text x="28.6137" y="146.7812" textLength="17.3985" font-size="2.3234" lengthAdjust="spacingAndGlyphs" text-anchor="middle" opacity="0.01" style="font-family:monospace">46436-9327</text>
</g>
<g class="stroked-text"><desc>46436-9327</desc>
<path d="M28.9806 138.5248 L27.8189 138.5248 "/>
<path d="M29.6445 138.1099 L28.3998 137.6951 "/>
<path d="M28.3998 137.6951 L28.3998 138.7738 "/>
<path d="M29.5615 140.1844 L29.5615 139.8525 "/>
<path d="M29.5615 139.8525 L29.4785 139.6865 "/>
<path d="M29.4785 139.6865 L29.3955 139.6036 "/>
<path d="M29.3955 139.6036 L29.1466 139.4376 "/>
<path d="M29.1466 139.4376 L28.8147 139.3546 "/>
<path d="M28.8147 139.3546 L28.1509 139.3546 "/>
<path d="M28.1509 139.3546 L27.9849 139.4376 "/>
<path d="M27.9849 139.4376 L27.9019 139.5206 "/>
<path d="M27.9019 139.5206 L27.8189 139.6865 "/>
<path d="M27.8189 139.6865 L27.8189 140.0185 "/>
<path d="M27.8189 140.0185 L27.9019 140.1844 "/>
<path d="M27.9019 140.1844 L27.9849 140.2674 "/>
<path d="M27.9849 140.2674 L28.1509 140.3504 "/>
<path d="M28.1509 140.3504 L28.5657 140.3504 "/>
<path d="M28.5657 140.3504 L28.7317 140.2674 "/>
<path d="M28.7317 140.2674 L28.8147 140.1844 "/>
<path d="M28.8147 140.1844 L28.8977 140.0185 "/>
<path d="M28.8977 140.0185 L28.8977 139.6865 "/>
<path d="M28.8977 139.6865 L28.8147 139.5206 "/>
<path d="M28.8147 139.5206 L28.7317 139.4376 "/>
<path d="M28.7317 139.4376 L28.5657 139.3546 "/>
<path d="M28.9806 141.8440 L27.8189 141.8440 "/>
<path d="M29.6445 141.4291 L28.3998 141.0142 "/>
<path d="M28.3998 141.0142 L28.3998 142.0929 "/>
<path d="M29.5615 142.5908 L29.5615 143.6695 "/>
<path d="M29.5615 143.6695 L28.8977 143.0887 "/>
<path d="M28.8977 143.0887 L28.8977 143.3376 "/>
<path d="M28.8977 143.3376 L28.8147 143.5036 "/>
<path d="M28.8147 143.5036 L28.7317 143.5865 "/>
<path d="M28.7317 143.5865 L28.5657 143.6695 "/>
<path d="M28.5657 143.6695 L28.1509 143.6695 "/>
<path d="M28.1509 143.6695 L27.9849 143.5865 "/>
<path d="M27.9849 143.5865 L27.9019 143.5036 "/>
<path d="M27.9019 143.5036 L27.8189 143.3376 "/>
<path d="M27.8189 143.3376 L27.8189 142.8397 "/>
<path d="M27.8189 142.8397 L27.9019 142.6738 "/>
<path d="M27.9019 142.6738 L27.9849 142.5908 "/>
<path d="M29.5615 145.1631 L29.5615 144.8312 "/>
<path d="M29.5615 144.8312 L29.4785 144.6653 "/>
<path d="M29.4785 144.6653 L29.3955 144.5823 "/>
<path d="M29.3955 144.5823 L29.1466 144.4163 "/>
<path d="M29.1466 144.4163 L28.8147 144.3333 "/>
<path d="M28.8147 144.3333 L28.1509 144.3333 "/>
<path d="M28.1509 144.3333 L27.9849 144.4163 "/>
<path d="M27.9849 144.4163 L27.9019 144.4993 "/>
<path d="M27.9019 144.4993 L27.8189 144.6653 "/>
<path d="M27.8189 144.6653 L27.8189 144.9972 "/>
<path d="M27.8189 144.9972 L27.9019 145.1631 "/>
<path d="M27.9019 145.1631 L27.9849 145.2461 "/>
<path d="M27.9849 145.2461 L28.1509 145.3291 "/>
<path d="M28.1509 145.3291 L28.5657 145.3291 "/>
<path d="M28.5657 145.3291 L28.7317 145.2461 "/>
<path d="M28.7317 145.2461 L28.8147 145.1631 "/>
<path d="M28.8147 145.1631 L28.8977 144.9972 "/>
<path d="M28.8977 144.9972 L28.8977 144.6653 "/>
<path d="M28.8977 144.6653 L28.8147 144.4993 "/>
<path d="M28.8147 144.4993 L28.7317 144.4163 "/>
<path d="M28.7317 144.4163 L28.5657 144.3333 "/>
<path d="M28.4828 146.0759 L28.4828 147.4035 "/>
<path d="M27.8189 148.3163 L27.8189 148.6482 "/>
<path d="M27.8189 148.6482 L27.9019 148.8142 "/>
<path d="M27.9019 148.8142 L27.9849 148.8972 "/>
<path d="M27.9849 148.8972 L28.2338 149.0631 "/>
<path d="M28.2338 149.0631 L28.5657 149.1461 "/>
<path d="M28.5657 149.1461 L29.2296 149.1461 "/>
<path d="M29.2296 149.1461 L29.3955 149.0631 "/>
<path d="M29.3955 149.0631 L29.4785 148.9801 "/>
<path d="M29.4785 148.9801 L29.5615 148.8142 "/>
<path d="M29.5615 148.8142 L29.5615 148.4823 "/>
<path d="M29.5615 148.4823 L29.4785 148.3163 "/>
<path d="M29.4785 148.3163 L29.3955 148.2333 "/>
<path d="M29.3955 148.2333 L29.2296 148.1503 "/>
<path d="M29.2296 148.1503 L28.8147 148.1503 "/>
<path d="M28.8147 148.1503 L28.6487 148.2333 "/>
<path d="M28.6487 148.2333 L28.5657 148.3163 "/>
<path d="M28.5657 148.3163 L28.4828 148.4823 "/>
<path d="M28.4828 148.4823 L28.4828 148.8142 "/>
<path d="M28.4828 148.8142 L28.5657 148.9801 "/>
<path d="M28.5657 148.9801 L28.6487 149.0631 "/>
<path d="M28.6487 149.0631 L28.8147 149.1461 "/>
<path d="M29.5615 149.7269 L29.5615 150.8057 "/>
<path d="M29.5615 150.8057 L28.8977 150.2248 "/>
<path d="M28.8977 150.2248 L28.8977 150.4737 "/>
<path d="M28.8977 150.4737 L28.8147 150.6397 "/>
<path d="M28.8147 150.6397 L28.7317 150.7227 "/>
<path d="M28.7317 150.7227 L28.5657 150.8057 "/>
<path d="M28.5657 150.8057 L28.1509 150.8057 "/>
<path d="M28.1509 150.8057 L27.9849 150.7227 "/>
<path d="M27.9849 150.7227 L27.9019 150.6397 "/>
<path d="M27.9019 150.6397 L27.8189 150.4737 "/>
<path d="M27.8189 150.4737 L27.8189 149.9759 "/>
<path d="M27.8189 149.9759 L27.9019 149.8099 "/>
<path d="M27.9019 149.8099 L27.9849 149.7269 "/>
<path d="M29.3955 151.4695 L29.4785 151.5525 "/>
<path d="M29.4785 151.5525 L29.5615 151.7184 "/>
<path d="M29.5615 151.7184 L29.5615 152.1333 "/>
<path d="M29.5615 152.1333 L29.4785 152.2993 "/>
<path d="M29.4785 152.2993 L29.3955 152.3823 "/>
<path d="M29.3955 152.3823 L29.2296 152.4652 "/>
<path d="M29.2296 152.4652 L29.0636 152.4652 "/>
<path d="M29.0636 152.4652 L28.8147 152.3823 "/>
<path d="M28.8147 152.3823 L27.8189 151.3865 "/>
<path d="M27.8189 151.3865 L27.8189 152.4652 "/>
<path d="M29.5615 153.0461 L29.5615 154.2078 "/>
<path d="M29.5615 154.2078 L27.8189 153.4610 "/>
</g><g transform="rotate(-270.000000 25.3465 145.9099)">
<text x="25.3465" y="146.7812" textLength="3.2922" font-size="2.3234" lengthAdjust="spacingAndGlyphs" text-anchor="middle" opacity="0.01" style="font-family:monospace">J4</text>
</g>
<g class="stroked-text"><desc>J4</desc>
<path d="M26.2942 145.3291 L25.0495 145.3291 "/>
<path d="M25.0495 145.3291 L24.8006 145.2461 "/>
<path d="M24.8006 145.2461 L24.6346 145.0801 "/>
<path d="M24.6346 145.0801 L24.5517 144.8312 "/>
<path d="M24.5517 144.8312 L24.5517 144.6653 "/>
<path d="M25.7134 146.9057 L24.5517 146.9057 "/>
<path d="M26.3772 146.4908 L25.1325 146.0759 "/>
<path d="M25.1325 146.0759 L25.1325 147.1546 "/>
</g><g transform="rotate(-90.000000 283.2437 137.1318)">
<text x="283.2437" y="138.0031" textLength="16.2368" font-size="2.3234" lengthAdjust="spacingAndGlyphs" text-anchor="middle" opacity="0.01" style="font-family:monospace">SKRTLAE010</text>
</g>
<g class="stroked-text"><desc>SKRTLAE010</desc>
<path d="M283.9555 144.7659 L284.0385 144.5169 "/>
<path d="M284.0385 144.5169 L284.0385 144.1020 "/>
<path d="M284.0385 144.1020 L283.9555 143.9361 "/>
<path d="M283.9555 143.9361 L283.8725 143.8531 "/>
<path d="M283.8725 143.8531 L283.7066 143.7701 "/>
<path d="M283.7066 143.7701 L283.5406 143.7701 "/>
<path d="M283.5406 143.7701 L283.3747 143.8531 "/>
<path d="M283.3747 143.8531 L283.2917 143.9361 "/>
<path d="M283.2917 143.9361 L283.2087 144.1020 "/>
<path d="M283.2087 144.1020 L283.1257 144.4339 "/>
<path d="M283.1257 144.4339 L283.0427 144.5999 "/>
<path d="M283.0427 144.5999 L282.9598 144.6829 "/>
<path d="M282.9598 144.6829 L282.7938 144.7659 "/>
<path d="M282.7938 144.7659 L282.6279 144.7659 "/>
<path d="M282.6279 144.7659 L282.4619 144.6829 "/>
<path d="M282.4619 144.6829 L282.3789 144.5999 "/>
<path d="M282.3789 144.5999 L282.2959 144.4339 "/>
<path d="M282.2959 144.4339 L282.2959 144.0191 "/>
<path d="M282.2959 144.0191 L282.3789 143.7701 "/>
<path d="M284.0385 143.0233 L282.2959 143.0233 "/>
<path d="M284.0385 142.0276 L283.0427 142.7744 "/>
<path d="M282.2959 142.0276 L283.2917 143.0233 "/>
<path d="M284.0385 140.2850 L283.2087 140.8659 "/>
<path d="M284.0385 141.2808 L282.2959 141.2808 "/>
<path d="M282.2959 141.2808 L282.2959 140.6169 "/>
<path d="M282.2959 140.6169 L282.3789 140.4510 "/>
<path d="M282.3789 140.4510 L282.4619 140.3680 "/>
<path d="M282.4619 140.3680 L282.6279 140.2850 "/>
<path d="M282.6279 140.2850 L282.8768 140.2850 "/>
<path d="M282.8768 140.2850 L283.0427 140.3680 "/>
<path d="M283.0427 140.3680 L283.1257 140.4510 "/>
<path d="M283.1257 140.4510 L283.2087 140.6169 "/>
<path d="M283.2087 140.6169 L283.2087 141.2808 "/>
<path d="M282.2959 139.7872 L282.2959 138.7914 "/>
<path d="M284.0385 139.2893 L282.2959 139.2893 "/>
<path d="M284.0385 137.3808 L284.0385 138.2106 "/>
<path d="M284.0385 138.2106 L282.2959 138.2106 "/>
<path d="M283.5406 136.8829 L283.5406 136.0531 "/>
<path d="M284.0385 137.0489 L282.2959 136.4680 "/>
<path d="M282.2959 136.4680 L284.0385 135.8872 "/>
<path d="M283.1257 135.3063 L283.1257 134.7255 "/>
<path d="M284.0385 134.4765 L284.0385 135.3063 "/>
<path d="M284.0385 135.3063 L282.2959 135.3063 "/>
<path d="M282.2959 135.3063 L282.2959 134.4765 "/>
<path d="M282.2959 133.3978 L282.2959 133.2318 "/>
<path d="M282.2959 133.2318 L282.3789 133.0659 "/>
<path d="M282.3789 133.0659 L282.4619 132.9829 "/>
<path d="M282.4619 132.9829 L282.6279 132.8999 "/>
<path d="M282.6279 132.8999 L282.9598 132.8170 "/>
<path d="M282.9598 132.8170 L283.3747 132.8170 "/>
<path d="M283.3747 132.8170 L283.7066 132.8999 "/>
<path d="M283.7066 132.8999 L283.8725 132.9829 "/>
<path d="M283.8725 132.9829 L283.9555 133.0659 "/>
<path d="M283.9555 133.0659 L284.0385 133.2318 "/>
<path d="M284.0385 133.2318 L284.0385 133.3978 "/>
<path d="M284.0385 133.3978 L283.9555 133.5638 "/>
<path d="M283.9555 133.5638 L283.8725 133.6467 "/>
<path d="M283.8725 133.6467 L283.7066 133.7297 "/>
<path d="M283.7066 133.7297 L283.3747 133.8127 "/>
<path d="M283.3747 133.8127 L282.9598 133.8127 "/>
<path d="M282.9598 133.8127 L282.6279 133.7297 "/>
<path d="M282.6279 133.7297 L282.4619 133.6467 "/>
<path d="M282.4619 133.6467 L282.3789 133.5638 "/>
<path d="M282.3789 133.5638 L282.2959 133.3978 "/>
<path d="M284.0385 131.1574 L284.0385 132.1531 "/>
<path d="M284.0385 131.6553 L282.2959 131.6553 "/>
<path d="M282.2959 131.6553 L282.5449 131.8212 "/>
<path d="M282.5449 131.8212 L282.7108 131.9872 "/>
<path d="M282.7108 131.9872 L282.7938 132.1531 "/>
<path d="M282.2959 130.0787 L282.2959 129.9127 "/>
<path d="M282.2959 129.9127 L282.3789 129.7467 "/>
<path d="M282.3789 129.7467 L282.4619 129.6638 "/>
<path d="M282.4619 129.6638 L282.6279 129.5808 "/>
<path d="M282.6279 129.5808 L282.9598 129.4978 "/>
<path d="M282.9598 129.4978 L283.3747 129.4978 "/>
<path d="M283.3747 129.4978 L283.7066 129.5808 "/>
<path d="M283.7066 129.5808 L283.8725 129.6638 "/>
<path d="M283.8725 129.6638 L283.9555 129.7467 "/>
<path d="M283.9555 129.7467 L284.0385 129.9127 "/>
<path d="M284.0385 129.9127 L284.0385 130.0787 "/>
<path d="M284.0385 130.0787 L283.9555 130.2446 "/>
<path d="M283.9555 130.2446 L283.8725 130.3276 "/>
<path d="M283.8725 130.3276 L283.7066 130.4106 "/>
<path d="M283.7066 130.4106 L283.3747 130.4936 "/>
<path d="M283.3747 130.4936 L282.9598 130.4936 "/>
<path d="M282.9598 130.4936 L282.6279 130.4106 "/>
<path d="M282.6279 130.4106 L282.4619 130.3276 "/>
<path d="M282.4619 130.3276 L282.3789 130.2446 "/>
<path d="M282.3789 130.2446 L282.2959 130.0787 "/>
</g><g transform="rotate(-180.000000 281.1744 130.0527)">
<text x="281.1744" y="130.9240" textLength="5.6156" font-size="2.3234" lengthAdjust="spacingAndGlyphs" text-anchor="middle" opacity="0.01" style="font-family:monospace">SW1</text>
</g>
<g class="stroked-text"><desc>SW1</desc>
<path d="M283.4978 129.3409 L283.2489 129.2579 "/>
<path d="M283.2489 129.2579 L282.8340 129.2579 "/>
<path d="M282.8340 129.2579 L282.6680 129.3409 "/>
<path d="M282.6680 129.3409 L282.5850 129.4239 "/>
<path d="M282.5850 129.4239 L282.5021 129.5898 "/>
<path d="M282.5021 129.5898 L282.5021 129.7558 "/>
<path d="M282.5021 129.7558 L282.5850 129.9218 "/>
<path d="M282.5850 129.9218 L282.6680 130.0047 "/>
<path d="M282.6680 130.0047 L282.8340 130.0877 "/>
<path d="M282.8340 130.0877 L283.1659 130.1707 "/>
<path d="M283.1659 130.1707 L283.3318 130.2537 "/>
<path d="M283.3318 130.2537 L283.4148 130.3366 "/>
<path d="M283.4148 130.3366 L283.4978 130.5026 "/>
<path d="M283.4978 130.5026 L283.4978 130.6686 "/>
<path d="M283.4978 130.6686 L283.4148 130.8345 "/>
<path d="M283.4148 130.8345 L283.3318 130.9175 "/>
<path d="M283.3318 130.9175 L283.1659 131.0005 "/>
<path d="M283.1659 131.0005 L282.7510 131.0005 "/>
<path d="M282.7510 131.0005 L282.5021 130.9175 "/>
<path d="M281.9212 131.0005 L281.5063 129.2579 "/>
<path d="M281.5063 129.2579 L281.1744 130.5026 "/>
<path d="M281.1744 130.5026 L280.8425 129.2579 "/>
<path d="M280.8425 129.2579 L280.4276 131.0005 "/>
<path d="M278.8510 129.2579 L279.8467 129.2579 "/>
<path d="M279.3489 129.2579 L279.3489 131.0005 "/>
<path d="M279.3489 131.0005 L279.5148 130.7515 "/>
<path d="M279.5148 130.7515 L279.6808 130.5856 "/>
<path d="M279.6808 130.5856 L279.8467 130.5026 "/>
</g><path d="M288.3080 55.9127 L288.3080 51.5564 "/>
<path d="M291.0307 55.9127 L288.3080 55.9127 "/>
<path d="M288.3080 51.5564 L291.0307 51.5564 "/>
<path d="M291.0307 51.5564 L291.0307 55.9127 "/>
<path d="M56.9193 189.6261 L56.9193 20.3811 "/>
<path d="M144.5041 189.6261 L56.9193 189.6261 "/>
<path d="M56.9193 20.3811 L144.5041 20.3811 "/>
<path d="M144.5041 20.3811 L144.5041 189.6261 "/>
<path d="M290.3500 75.0113 L285.9936 75.0113 "/>
<path d="M290.3500 72.2886 L290.3500 75.0113 "/>
<path d="M285.9936 75.0113 L285.9936 72.2886 "/>
<path d="M285.9936 72.2886 L290.3500 72.2886 "/>
<path d="M290.4317 101.3129 L286.0753 101.3129 "/>
<path d="M290.4317 98.5902 L290.4317 101.3129 "/>
<path d="M286.0753 101.3129 L286.0753 98.5902 "/>
<path d="M286.0753 98.5902 L290.4317 98.5902 "/>
<path d="M290.3500 66.4619 L285.9936 66.4619 "/>
<path d="M290.3500 63.7392 L290.3500 66.4619 "/>
<path d="M285.9936 66.4619 L285.9936 63.7392 "/>
<path d="M285.9936 63.7392 L290.3500 63.7392 "/>
<path d="M166.8196 63.7814 L171.1760 63.7814 "/>
<path d="M166.8196 66.5042 L166.8196 63.7814 "/>
<path d="M171.1760 63.7814 L171.1760 66.5042 "/>
<path d="M171.1760 66.5042 L166.8196 66.5042 "/>
<circle cx="287.3604" cy="27.5473" r="6.5340"/> 
<path d="M124.1272 66.5042 L119.7708 66.5042 "/>
<path d="M124.1272 63.7814 L124.1272 66.5042 "/>
<path d="M119.7708 66.5042 L119.7708 63.7814 "/>
<path d="M119.7708 63.7814 L124.1272 63.7814 "/>
<path d="M290.3228 92.8180 L285.9664 92.8180 "/>
<path d="M290.3228 90.0953 L290.3228 92.8180 "/>
<path d="M285.9664 92.8180 L285.9664 90.0953 "/>
<path d="M285.9664 90.0953 L290.3228 90.0953 "/>
<circle cx="21.7960" cy="27.5473" r="6.5340"/> 
<path d="M146.0289 189.6261 L146.0289 20.3811 "/>
<path d="M276.0448 189.6261 L146.0289 189.6261 "/>
<path d="M146.0289 20.3811 L276.0448 20.3811 "/>
<path d="M276.0448 20.3811 L276.0448 189.6261 "/>
<path d="M291.0307 44.0688 L291.0307 48.4252 "/>
<path d="M288.3080 44.0688 L291.0307 44.0688 "/>
<path d="M291.0307 48.4252 L288.3080 48.4252 "/>
<path d="M288.3080 48.4252 L288.3080 44.0688 "/>
<circle cx="287.3604" cy="182.4599" r="6.5340"/> 
<path d="M290.4861 105.5604 L286.1298 105.5604 "/>
<path d="M290.4861 102.8376 L290.4861 105.5604 "/>
<path d="M286.1298 105.5604 L286.1298 102.8376 "/>
<path d="M286.1298 102.8376 L290.4861 102.8376 "/>
<path d="M290.3500 70.7094 L285.9936 70.7094 "/>
<path d="M290.3500 67.9867 L290.3500 70.7094 "/>
<path d="M285.9936 70.7094 L285.9936 67.9867 "/>
<path d="M285.9936 67.9867 L290.3500 67.9867 "/>
<path d="M290.3772 97.0654 L286.0209 97.0654 "/>
<path d="M290.3772 94.3427 L290.3772 97.0654 "/>
<path d="M286.0209 97.0654 L286.0209 94.3427 "/>
<path d="M286.0209 94.3427 L290.3772 94.3427 "/>
<circle cx="21.7960" cy="182.4599" r="6.5340"/> 
<path d="M290.3228 79.2043 L285.9664 79.2043 "/>
<path d="M290.3228 76.4816 L290.3228 79.2043 "/>
<path d="M285.9664 79.2043 L285.9664 76.4816 "/>
<path d="M285.9664 76.4816 L290.3228 76.4816 "/>
<g>
</g>
<g>
</g>
<g>
</g>
<g>
</g>
<g>
</g>
<g>
</g>
<g>
</g>
<g>
</g>
<g>
</g>
<g>
</g>
<g>
</g>
<g>
</g>
<g>
</g>
<g>
</g>
<g>
</g>
<g>
</g>
<g>
</g>
<g>
</g>
<g>
</g>
<g>
</g>
<g>
</g>
<g>
</g>
<g>
</g>
<g>
</g>
<g>
</g>
<g>
</g>
<g>
</g>
<g>
</g>
<g>
</g>
<g>
</g>
<g>
</g>
<g>
</g>
<g>
</g>
<g>
</g>
<g>
</g>
<g>
</g>
<g>
</g>
<g>
</g>
<g>
</g>
<g>
</g>
<g>
</g>
<g>
</g>
<g>
</g>
<g>
</g>
<g>
</g>
<g>
</g>
<g>
</g>
<g>
</g>
<g>
</g>
<g>
</g>
<g>
</g>
<g>
</g>
<g>
</g>
<g>
</g>
<g>
</g>
<g>
</g>
<g>
</g>
<g>
</g>
<g>
</g>
<g>
</g>
<g>
</g>
<g>
</g>
<g>
</g>
<g>
</g>
<g>
</g>
<g>
</g>
<g>
</g>
<g>
</g>
<g>
</g>
<g>
</g>
<g>
</g>
<g>
</g>
<g>
</g>
<g>
</g>
<g>
</g>
<g>
</g>
<g>
</g>
<g>
</g>
<g>
</g>
<g>
</g>
<g>
</g>
<g>
</g>
<g>
</g>
<g>
</g>
<g>
</g>
<g>
</g>
<g>
</g>
<g>
</g>
<g>
</g>
<g>
</g>
<g>
</g>
<g>
</g>
<g>
</g>
<g>
</g>
<g>
</g>
<g>
</g>
<g>
</g>
<g>
</g>
<g>
</g>
<g>
</g>
<g>
</g>
<g>
</g>
<g>
</g>
<g>
</g>
<g>
</g>
<g>
</g>
<g>
</g>
<g>
</g>
<g>
</g>
<g>
</g>
<g>
</g>
<g>
</g>
<g>
</g>
<g>
</g>
<g>
</g>
<g>
</g>
<g>
</g>
<g>
</g>
<g>
</g>
<g>
</g>
<g>
</g>
<g>
</g>
<g>
</g>
<g>
</g>
<g>
</g>
<g>
</g>
<g>
</g>
<g>
</g>
<g>
</g>
<g>
</g>
<g>
</g>
<g>
</g>
<g>
</g>
<g>
</g>
<g>
</g>
<g>
</g>
<g>
</g>
<g>
</g>
<g>
</g>
<g>
</g>
<g>
</g>
<g>
</g>
<g>
</g>
<g>
</g>
<g>
</g>
<g>
</g>
<g>
</g>
<g>
</g>
<g>
</g>
<g>
</g>
<g>
</g>
<g>
</g>
<g>
</g>
<g>
</g>
<g>
</g>
<g>
</g>
<g>
</g>
<g>
</g>
<g>
</g>
<g>
</g>
<g>
</g>
<g>
</g>
<g>
</g>
<g>
</g>
<g>
</g>
<g>
</g>
<g>
</g>
<g>
</g>
<g>
</g>
<g>
</g>
<g>
</g>
<g>
</g>
<g>
</g>
<g>
</g>
<g>
</g>
<g>
</g>
<g>
</g>
<g>
</g>
<g>
</g>
<g>
</g>
<g>
</g>
<g>
</g>
<g>
</g>
<g>
</g>
<g>
</g>
<g>
</g>
<g>
</g>
<g>
</g>
<g>
</g>
<g>
</g>
<g>
</g>
<g>
</g>
<g>
</g>
<g>
</g>
<g>
</g>
<g>
</g>
<g>
</g>
<g>
</g>
<g>
</g>
<g>
</g>
<g>
</g>
<g>
</g>
<g>
</g>
<g>
</g>
<g>
</g>
<g>
</g>
<g>
</g>
<g>
</g>
<g>
</g>
<g>
</g>
<g>
</g>
<g>
</g>
<g>
</g>
<g>
</g>
<g>
</g>
</g> 
<svg:g><svg:g><svg:title>SVG Image created as BATDATUNIT01-Edge_Cuts.svg date 2023/11/18 22:32:07 </svg:title>
  <svg:desc>Image generated by PCBNEW </svg:desc>
<svg:g style="fill:#C2C200; fill-opacity:1.0000;stroke:#C2C200; stroke-opacity:1.0000; stroke-linecap:round; stroke-linejoin:round;" transform="translate(0 0) scale(1 1)">
</svg:g>
<svg:g style="fill:#C2C200; fill-opacity:0.0;  stroke:#C2C200; stroke-width:0.0000; stroke-opacity:1;  stroke-linecap:round; stroke-linejoin:round;">
</svg:g>
<svg:g style="fill:#C2C200; fill-opacity:0.0;  stroke:#C2C200; stroke-width:0.4356; stroke-opacity:1;  stroke-linecap:round; stroke-linejoin:round;">
<svg:path style="fill:#C2C200; fill-opacity:0.0;  stroke:#C2C200; stroke-width:0.4356; stroke-opacity:1;  stroke-linecap:round; stroke-linejoin:round;fill:none" d="M 0.2189,11.5028 296.7833,11.5028 296.7833,198.5044 0.2189,198.5044 Z"/> 
<svg:g>
</svg:g>
<svg:g>
</svg:g>
<svg:g>
</svg:g>
<svg:g>
</svg:g>
<svg:g>
</svg:g>
<svg:g>
</svg:g>
<svg:g>
</svg:g>
<svg:g>
</svg:g>
<svg:g>
</svg:g>
<svg:g>
</svg:g>
<svg:g>
</svg:g>
<svg:g>
</svg:g>
<svg:g>
</svg:g>
<svg:g>
</svg:g>
<svg:g>
</svg:g>
<svg:g>
</svg:g>
<svg:g>
</svg:g>
<svg:g>
</svg:g>
<svg:g>
</svg:g>
<svg:g>
</svg:g>
<svg:g>
</svg:g>
<svg:g>
</svg:g>
<svg:g>
</svg:g>
<svg:g>
</svg:g>
<svg:g>
</svg:g>
<svg:g>
</svg:g>
<svg:g>
</svg:g>
<svg:g>
</svg:g>
<svg:g>
</svg:g>
<svg:g>
</svg:g>
<svg:g>
</svg:g>
<svg:g>
</svg:g>
<svg:g>
</svg:g>
<svg:g>
</svg:g>
<svg:g>
</svg:g>
<svg:g>
</svg:g>
<svg:g>
</svg:g>
<svg:g>
</svg:g>
<svg:g>
</svg:g>
<svg:g>
</svg:g>
<svg:g>
</svg:g>
<svg:g>
</svg:g>
<svg:g>
</svg:g>
<svg:g>
</svg:g>
<svg:g>
</svg:g>
<svg:g>
</svg:g>
<svg:g>
</svg:g>
<svg:g>
</svg:g>
<svg:g>
</svg:g>
<svg:g>
</svg:g>
<svg:g>
</svg:g>
<svg:g>
</svg:g>
<svg:g>
</svg:g>
<svg:g>
</svg:g>
<svg:g>
</svg:g>
<svg:g>
</svg:g>
<svg:g>
</svg:g>
<svg:g>
</svg:g>
<svg:g>
</svg:g>
<svg:g>
</svg:g>
<svg:g>
</svg:g>
<svg:g>
</svg:g>
<svg:g>
</svg:g>
<svg:g>
</svg:g>
<svg:g>
</svg:g>
<svg:g>
</svg:g>
<svg:g>
</svg:g>
<svg:g>
</svg:g>
<svg:g>
</svg:g>
<svg:g>
</svg:g>
<svg:g>
</svg:g>
<svg:g>
</svg:g>
<svg:g>
</svg:g>
<svg:g>
</svg:g>
<svg:g>
</svg:g>
<svg:g>
</svg:g>
<svg:g>
</svg:g>
<svg:g>
</svg:g>
<svg:g>
</svg:g>
<svg:g>
</svg:g>
<svg:g>
</svg:g>
<svg:g>
</svg:g>
<svg:g>
</svg:g>
<svg:g>
</svg:g>
<svg:g>
</svg:g>
<svg:g>
</svg:g>
<svg:g>
</svg:g>
<svg:g>
</svg:g>
<svg:g>
</svg:g>
<svg:g>
</svg:g>
<svg:g>
</svg:g>
<svg:g>
</svg:g>
<svg:g>
</svg:g>
<svg:g>
</svg:g>
<svg:g>
</svg:g>
<svg:g>
</svg:g>
<svg:g>
</svg:g>
<svg:g>
</svg:g>
<svg:g>
</svg:g>
<svg:g>
</svg:g>
<svg:g>
</svg:g>
<svg:g>
</svg:g>
<svg:g>
</svg:g>
<svg:g>
</svg:g>
<svg:g>
</svg:g>
<svg:g>
</svg:g>
<svg:g>
</svg:g>
<svg:g>
</svg:g>
<svg:g>
</svg:g>
<svg:g>
</svg:g>
<svg:g>
</svg:g>
<svg:g>
</svg:g>
<svg:g>
</svg:g>
<svg:g>
</svg:g>
<svg:g>
</svg:g>
<svg:g>
</svg:g>
<svg:g>
</svg:g>
<svg:g>
</svg:g>
<svg:g>
</svg:g>
<svg:g>
</svg:g>
<svg:g>
</svg:g>
<svg:g>
</svg:g>
<svg:g>
</svg:g>
<svg:g>
</svg:g>
<svg:g>
</svg:g>
<svg:g>
</svg:g>
<svg:g>
</svg:g>
<svg:g>
</svg:g>
<svg:g>
</svg:g>
<svg:g>
</svg:g>
<svg:g>
</svg:g>
<svg:g>
</svg:g>
<svg:g>
</svg:g>
<svg:g>
</svg:g>
<svg:g>
</svg:g>
<svg:g>
</svg:g>
<svg:g>
</svg:g>
<svg:g>
</svg:g>
<svg:g>
</svg:g>
<svg:g>
</svg:g>
<svg:g>
</svg:g>
<svg:g>
</svg:g>
<svg:g>
</svg:g>
<svg:g>
</svg:g>
<svg:g>
</svg:g>
<svg:g>
</svg:g>
<svg:g>
</svg:g>
<svg:g>
</svg:g>
<svg:g>
</svg:g>
<svg:g>
</svg:g>
<svg:g>
</svg:g>
<svg:g>
</svg:g>
<svg:g>
</svg:g>
<svg:g>
</svg:g>
<svg:g>
</svg:g>
<svg:g>
</svg:g>
<svg:g>
</svg:g>
<svg:g>
</svg:g>
<svg:g>
</svg:g>
<svg:g>
</svg:g>
<svg:g>
</svg:g>
<svg:g>
</svg:g>
<svg:g>
</svg:g>
<svg:g>
</svg:g>
<svg:g>
</svg:g>
<svg:g>
</svg:g>
<svg:g>
</svg:g>
<svg:g>
</svg:g>
<svg:g>
</svg:g>
<svg:g>
</svg:g>
<svg:g>
</svg:g>
<svg:g>
</svg:g>
<svg:g>
</svg:g>
<svg:g>
</svg:g>
<svg:g>
</svg:g>
<svg:g>
</svg:g>
<svg:g>
</svg:g>
<svg:g>
</svg:g>
<svg:g>
</svg:g>
<svg:g>
</svg:g>
<svg:g>
</svg:g>
<svg:g>
</svg:g>
<svg:g>
</svg:g>
<svg:g>
</svg:g>
<svg:g>
</svg:g>
<svg:g>
</svg:g>
<svg:g>
</svg:g>
<svg:g>
</svg:g>
<svg:g>
</svg:g>
<svg:g>
</svg:g>
<svg:g>
</svg:g>
<svg:g>
</svg:g>
<svg:g>
</svg:g>
<svg:g>
</svg:g>
<svg:g>
</svg:g>
<svg:g>
</svg:g>
<svg:g>
</svg:g>
<svg:g>
</svg:g>
<svg:g>
</svg:g>
<svg:g>
</svg:g>
<svg:g>
</svg:g>
<svg:g>
</svg:g>
<svg:g>
</svg:g>
<svg:g>
</svg:g>
<svg:g>
</svg:g>
<svg:g>
</svg:g>
<svg:g>
</svg:g>
<svg:g>
</svg:g>
<svg:g>
</svg:g>
<svg:g>
</svg:g>
<svg:g>
</svg:g>
<svg:g>
</svg:g>
<svg:g>
</svg:g>
<svg:g>
</svg:g>
<svg:g>
</svg:g>
</svg:g> 
</svg:g></svg:g></svg>
