%TF.GenerationSoftware,KiCad,Pcbnew,7.0.9-7.0.9~ubuntu23.04.1*%
%TF.CreationDate,2023-11-28T13:32:47+00:00*%
%TF.ProjectId,BATDATUNIT01,42415444-4154-4554-9e49-5430312e6b69,01A*%
%TF.SameCoordinates,Original*%
%TF.FileFunction,Soldermask,Bot*%
%TF.FilePolarity,Negative*%
%FSLAX46Y46*%
G04 Gerber Fmt 4.6, Leading zero omitted, Abs format (unit mm)*
G04 Created by KiCad (PCBNEW 7.0.9-7.0.9~ubuntu23.04.1) date 2023-11-28 13:32:47*
%MOMM*%
%LPD*%
G01*
G04 APERTURE LIST*
G04 Aperture macros list*
%AMRoundRect*
0 Rectangle with rounded corners*
0 $1 Rounding radius*
0 $2 $3 $4 $5 $6 $7 $8 $9 X,Y pos of 4 corners*
0 Add a 4 corners polygon primitive as box body*
4,1,4,$2,$3,$4,$5,$6,$7,$8,$9,$2,$3,0*
0 Add four circle primitives for the rounded corners*
1,1,$1+$1,$2,$3*
1,1,$1+$1,$4,$5*
1,1,$1+$1,$6,$7*
1,1,$1+$1,$8,$9*
0 Add four rect primitives between the rounded corners*
20,1,$1+$1,$2,$3,$4,$5,0*
20,1,$1+$1,$4,$5,$6,$7,0*
20,1,$1+$1,$6,$7,$8,$9,0*
20,1,$1+$1,$8,$9,$2,$3,0*%
%AMFreePoly0*
4,1,35,0.585355,0.785355,0.600000,0.750000,0.600000,-0.750000,0.585355,-0.785355,0.550000,-0.800000,0.000000,-0.800000,-0.012286,-0.794911,-0.071157,-0.794911,-0.085244,-0.792886,-0.221795,-0.752791,-0.234740,-0.746879,-0.354462,-0.669938,-0.365217,-0.660618,-0.458414,-0.553063,-0.466109,-0.541091,-0.525228,-0.411637,-0.529237,-0.397982,-0.549491,-0.257116,-0.550000,-0.250000,-0.550000,0.250000,
-0.549491,0.257116,-0.529237,0.397982,-0.525228,0.411637,-0.466109,0.541091,-0.458414,0.553063,-0.365217,0.660618,-0.354462,0.669938,-0.234740,0.746879,-0.221795,0.752791,-0.085244,0.792886,-0.071157,0.794911,-0.012286,0.794911,0.000000,0.800000,0.550000,0.800000,0.585355,0.785355,0.585355,0.785355,$1*%
%AMFreePoly1*
4,1,35,0.012286,0.794911,0.071157,0.794911,0.085244,0.792886,0.221795,0.752791,0.234740,0.746879,0.354462,0.669938,0.365217,0.660618,0.458414,0.553063,0.466109,0.541091,0.525228,0.411637,0.529237,0.397982,0.549491,0.257116,0.550000,0.250000,0.550000,-0.250000,0.549491,-0.257116,0.529237,-0.397982,0.525228,-0.411637,0.466109,-0.541091,0.458414,-0.553063,0.365217,-0.660618,
0.354462,-0.669938,0.234740,-0.746879,0.221795,-0.752791,0.085244,-0.792886,0.071157,-0.794911,0.012286,-0.794911,0.000000,-0.800000,-0.550000,-0.800000,-0.585355,-0.785355,-0.600000,-0.750000,-0.600000,0.750000,-0.585355,0.785355,-0.550000,0.800000,0.000000,0.800000,0.012286,0.794911,0.012286,0.794911,$1*%
%AMFreePoly2*
4,1,35,0.535355,0.785355,0.550000,0.750000,0.550000,-0.750000,0.535355,-0.785355,0.500000,-0.800000,0.000000,-0.800000,-0.012286,-0.794911,-0.071157,-0.794911,-0.085244,-0.792886,-0.221795,-0.752791,-0.234740,-0.746879,-0.354462,-0.669938,-0.365217,-0.660618,-0.458414,-0.553063,-0.466109,-0.541091,-0.525228,-0.411637,-0.529237,-0.397982,-0.549491,-0.257116,-0.550000,-0.250000,-0.550000,0.250000,
-0.549491,0.257116,-0.529237,0.397982,-0.525228,0.411637,-0.466109,0.541091,-0.458414,0.553063,-0.365217,0.660618,-0.354462,0.669938,-0.234740,0.746879,-0.221795,0.752791,-0.085244,0.792886,-0.071157,0.794911,-0.012286,0.794911,0.000000,0.800000,0.500000,0.800000,0.535355,0.785355,0.535355,0.785355,$1*%
%AMFreePoly3*
4,1,35,0.012286,0.794911,0.071157,0.794911,0.085244,0.792886,0.221795,0.752791,0.234740,0.746879,0.354462,0.669938,0.365217,0.660618,0.458414,0.553063,0.466109,0.541091,0.525228,0.411637,0.529237,0.397982,0.549491,0.257116,0.550000,0.250000,0.550000,-0.250000,0.549491,-0.257116,0.529237,-0.397982,0.525228,-0.411637,0.466109,-0.541091,0.458414,-0.553063,0.365217,-0.660618,
0.354462,-0.669938,0.234740,-0.746879,0.221795,-0.752791,0.085244,-0.792886,0.071157,-0.794911,0.012286,-0.794911,0.000000,-0.800000,-0.500000,-0.800000,-0.535355,-0.785355,-0.550000,-0.750000,-0.550000,0.750000,-0.535355,0.785355,-0.500000,0.800000,0.000000,0.800000,0.012286,0.794911,0.012286,0.794911,$1*%
%AMFreePoly4*
4,1,14,0.535355,0.885355,0.550000,0.850000,0.550000,-0.850000,0.535355,-0.885355,0.500000,-0.900000,-0.200000,-0.900000,-0.235355,-0.885355,-0.535355,-0.585355,-0.550000,-0.550000,-0.550000,0.850000,-0.535355,0.885355,-0.500000,0.900000,0.500000,0.900000,0.535355,0.885355,0.535355,0.885355,$1*%
G04 Aperture macros list end*
%ADD10C,3.300000*%
%ADD11RoundRect,0.050000X2.000000X-2.000000X2.000000X2.000000X-2.000000X2.000000X-2.000000X-2.000000X0*%
%ADD12C,6.100000*%
%ADD13O,1.400000X1.000000*%
%ADD14C,1.400000*%
%ADD15C,1.720000*%
%ADD16RoundRect,0.300000X0.450000X-0.262500X0.450000X0.262500X-0.450000X0.262500X-0.450000X-0.262500X0*%
%ADD17RoundRect,0.300000X-0.262500X-0.450000X0.262500X-0.450000X0.262500X0.450000X-0.262500X0.450000X0*%
%ADD18RoundRect,0.050000X0.475000X0.275000X-0.475000X0.275000X-0.475000X-0.275000X0.475000X-0.275000X0*%
%ADD19RoundRect,0.300000X0.475000X-0.250000X0.475000X0.250000X-0.475000X0.250000X-0.475000X-0.250000X0*%
%ADD20RoundRect,0.200000X0.150000X-0.512500X0.150000X0.512500X-0.150000X0.512500X-0.150000X-0.512500X0*%
%ADD21RoundRect,0.300000X0.375000X0.850000X-0.375000X0.850000X-0.375000X-0.850000X0.375000X-0.850000X0*%
%ADD22RoundRect,0.300000X-0.503814X-0.132583X-0.132583X-0.503814X0.503814X0.132583X0.132583X0.503814X0*%
%ADD23FreePoly0,0.000000*%
%ADD24RoundRect,0.050000X-0.500000X-0.750000X0.500000X-0.750000X0.500000X0.750000X-0.500000X0.750000X0*%
%ADD25FreePoly1,0.000000*%
%ADD26RoundRect,0.050000X-0.300000X-0.350000X0.300000X-0.350000X0.300000X0.350000X-0.300000X0.350000X0*%
%ADD27RoundRect,0.100000X-0.100000X0.285000X-0.100000X-0.285000X0.100000X-0.285000X0.100000X0.285000X0*%
%ADD28RoundRect,0.200000X-0.512500X-0.150000X0.512500X-0.150000X0.512500X0.150000X-0.512500X0.150000X0*%
%ADD29RoundRect,0.050000X-1.905000X1.665000X-1.905000X-1.665000X1.905000X-1.665000X1.905000X1.665000X0*%
%ADD30RoundRect,0.300000X-0.362500X-1.425000X0.362500X-1.425000X0.362500X1.425000X-0.362500X1.425000X0*%
%ADD31FreePoly2,270.000000*%
%ADD32FreePoly3,270.000000*%
%ADD33RoundRect,0.125000X0.462500X0.075000X-0.462500X0.075000X-0.462500X-0.075000X0.462500X-0.075000X0*%
%ADD34RoundRect,0.125000X0.075000X0.462500X-0.075000X0.462500X-0.075000X-0.462500X0.075000X-0.462500X0*%
%ADD35RoundRect,0.050000X1.075000X1.075000X-1.075000X1.075000X-1.075000X-1.075000X1.075000X-1.075000X0*%
%ADD36RoundRect,0.300000X0.250000X0.475000X-0.250000X0.475000X-0.250000X-0.475000X0.250000X-0.475000X0*%
%ADD37C,0.750000*%
%ADD38RoundRect,0.050000X-0.575000X0.300000X-0.575000X-0.300000X0.575000X-0.300000X0.575000X0.300000X0*%
%ADD39RoundRect,0.050000X-0.575000X0.150000X-0.575000X-0.150000X0.575000X-0.150000X0.575000X0.150000X0*%
%ADD40O,2.100000X1.100000*%
%ADD41O,2.200000X1.150000*%
%ADD42RoundRect,0.300000X-0.325000X-0.450000X0.325000X-0.450000X0.325000X0.450000X-0.325000X0.450000X0*%
%ADD43RoundRect,0.050000X-0.525000X0.150000X-0.525000X-0.150000X0.525000X-0.150000X0.525000X0.150000X0*%
%ADD44C,1.600000*%
%ADD45RoundRect,0.300000X-0.450000X0.262500X-0.450000X-0.262500X0.450000X-0.262500X0.450000X0.262500X0*%
%ADD46C,2.000000*%
%ADD47RoundRect,0.300000X0.850000X-0.375000X0.850000X0.375000X-0.850000X0.375000X-0.850000X-0.375000X0*%
%ADD48RoundRect,0.300000X-0.475000X0.250000X-0.475000X-0.250000X0.475000X-0.250000X0.475000X0.250000X0*%
%ADD49RoundRect,0.300000X-0.250000X-0.475000X0.250000X-0.475000X0.250000X0.475000X-0.250000X0.475000X0*%
%ADD50RoundRect,0.300000X0.262500X0.450000X-0.262500X0.450000X-0.262500X-0.450000X0.262500X-0.450000X0*%
%ADD51FreePoly2,90.000000*%
%ADD52FreePoly3,90.000000*%
%ADD53RoundRect,0.050000X-0.919239X0.070711X0.070711X-0.919239X0.919239X-0.070711X-0.070711X0.919239X0*%
%ADD54RoundRect,0.050000X0.125000X-0.250000X0.125000X0.250000X-0.125000X0.250000X-0.125000X-0.250000X0*%
%ADD55RoundRect,0.050000X0.800000X-0.450000X0.800000X0.450000X-0.800000X0.450000X-0.800000X-0.450000X0*%
%ADD56FreePoly0,180.000000*%
%ADD57RoundRect,0.050000X0.500000X0.750000X-0.500000X0.750000X-0.500000X-0.750000X0.500000X-0.750000X0*%
%ADD58FreePoly1,180.000000*%
%ADD59RoundRect,0.200000X0.150000X-0.825000X0.150000X0.825000X-0.150000X0.825000X-0.150000X-0.825000X0*%
%ADD60RoundRect,0.050000X0.225000X0.725000X-0.225000X0.725000X-0.225000X-0.725000X0.225000X-0.725000X0*%
%ADD61C,1.100000*%
%ADD62RoundRect,0.050000X0.300000X0.350000X-0.300000X0.350000X-0.300000X-0.350000X0.300000X-0.350000X0*%
%ADD63RoundRect,0.050000X0.800000X0.600000X-0.800000X0.600000X-0.800000X-0.600000X0.800000X-0.600000X0*%
%ADD64RoundRect,0.050000X-0.800000X0.600000X-0.800000X-0.600000X0.800000X-0.600000X0.800000X0.600000X0*%
%ADD65RoundRect,0.050000X2.500000X1.250000X-2.500000X1.250000X-2.500000X-1.250000X2.500000X-1.250000X0*%
%ADD66FreePoly0,90.000000*%
%ADD67RoundRect,0.050000X0.750000X-0.500000X0.750000X0.500000X-0.750000X0.500000X-0.750000X-0.500000X0*%
%ADD68FreePoly1,90.000000*%
%ADD69RoundRect,0.112500X0.062500X-0.337500X0.062500X0.337500X-0.062500X0.337500X-0.062500X-0.337500X0*%
%ADD70RoundRect,0.112500X0.337500X-0.062500X0.337500X0.062500X-0.337500X0.062500X-0.337500X-0.062500X0*%
%ADD71RoundRect,0.050000X1.675000X-1.675000X1.675000X1.675000X-1.675000X1.675000X-1.675000X-1.675000X0*%
%ADD72RoundRect,0.200000X0.150000X-0.587500X0.150000X0.587500X-0.150000X0.587500X-0.150000X-0.587500X0*%
%ADD73RoundRect,0.050000X0.225000X-0.725000X0.225000X0.725000X-0.225000X0.725000X-0.225000X-0.725000X0*%
%ADD74RoundRect,0.100000X-0.337500X0.050000X-0.337500X-0.050000X0.337500X-0.050000X0.337500X0.050000X0*%
%ADD75RoundRect,0.100000X0.050000X0.337500X-0.050000X0.337500X-0.050000X-0.337500X0.050000X-0.337500X0*%
%ADD76RoundRect,0.100000X-0.262500X0.050000X-0.262500X-0.050000X0.262500X-0.050000X0.262500X0.050000X0*%
%ADD77RoundRect,0.100000X0.337500X-0.050000X0.337500X0.050000X-0.337500X0.050000X-0.337500X-0.050000X0*%
%ADD78RoundRect,0.100000X-0.050000X-0.262500X0.050000X-0.262500X0.050000X0.262500X-0.050000X0.262500X0*%
%ADD79RoundRect,0.100000X-0.050000X-0.450000X0.050000X-0.450000X0.050000X0.450000X-0.050000X0.450000X0*%
%ADD80RoundRect,0.100000X-0.050000X-0.337500X0.050000X-0.337500X0.050000X0.337500X-0.050000X0.337500X0*%
%ADD81RoundRect,0.100000X0.362500X-0.050000X0.362500X0.050000X-0.362500X0.050000X-0.362500X-0.050000X0*%
%ADD82RoundRect,0.100000X-0.362500X0.050000X-0.362500X-0.050000X0.362500X-0.050000X0.362500X0.050000X0*%
%ADD83RoundRect,0.050000X1.250000X-1.525000X1.250000X1.525000X-1.250000X1.525000X-1.250000X-1.525000X0*%
%ADD84RoundRect,0.050000X-0.125000X0.275000X-0.125000X-0.275000X0.125000X-0.275000X0.125000X0.275000X0*%
%ADD85RoundRect,0.050000X0.125000X-0.275000X0.125000X0.275000X-0.125000X0.275000X-0.125000X-0.275000X0*%
%ADD86FreePoly4,270.000000*%
%ADD87FreePoly2,180.000000*%
%ADD88FreePoly3,180.000000*%
%ADD89RoundRect,0.300000X-0.512652X-0.159099X-0.159099X-0.512652X0.512652X0.159099X0.159099X0.512652X0*%
%ADD90RoundRect,0.300000X0.250000X-0.200000X0.250000X0.200000X-0.250000X0.200000X-0.250000X-0.200000X0*%
%ADD91RoundRect,0.050000X0.989949X0.282843X0.282843X0.989949X-0.989949X-0.282843X-0.282843X-0.989949X0*%
%ADD92RoundRect,0.200000X0.587500X0.150000X-0.587500X0.150000X-0.587500X-0.150000X0.587500X-0.150000X0*%
%ADD93RoundRect,0.050000X-0.550000X-0.125000X0.550000X-0.125000X0.550000X0.125000X-0.550000X0.125000X0*%
%ADD94RoundRect,0.050000X-0.575000X-0.500000X0.575000X-0.500000X0.575000X0.500000X-0.575000X0.500000X0*%
%ADD95RoundRect,0.050000X-0.762000X-0.762000X0.762000X-0.762000X0.762000X0.762000X-0.762000X0.762000X0*%
%ADD96RoundRect,0.300000X0.159099X-0.512652X0.512652X-0.159099X-0.159099X0.512652X-0.512652X0.159099X0*%
%ADD97RoundRect,0.050000X-0.425000X0.100000X-0.425000X-0.100000X0.425000X-0.100000X0.425000X0.100000X0*%
%ADD98RoundRect,0.050000X-0.100000X-0.425000X0.100000X-0.425000X0.100000X0.425000X-0.100000X0.425000X0*%
%ADD99RoundRect,0.050000X-1.800000X-1.800000X1.800000X-1.800000X1.800000X1.800000X-1.800000X1.800000X0*%
%ADD100RoundRect,0.150000X0.100000X-0.637500X0.100000X0.637500X-0.100000X0.637500X-0.100000X-0.637500X0*%
%ADD101RoundRect,0.050000X0.750000X0.275000X-0.750000X0.275000X-0.750000X-0.275000X0.750000X-0.275000X0*%
%ADD102RoundRect,0.050000X0.275000X-0.750000X0.275000X0.750000X-0.275000X0.750000X-0.275000X-0.750000X0*%
G04 APERTURE END LIST*
D10*
%TO.C,BT1*%
X36486000Y15116000D03*
X55786000Y15116000D03*
X36486000Y70736000D03*
X55786000Y70736000D03*
D11*
X36486000Y6626000D03*
X36486000Y79226000D03*
X55786000Y6626000D03*
X55786000Y79226000D03*
%TD*%
D12*
%TO.C,H2*%
X131826000Y78486000D03*
%TD*%
D13*
%TO.C,SW3*%
X129736000Y33401000D03*
X129736000Y37651000D03*
%TD*%
D12*
%TO.C,H1*%
X9906000Y78486000D03*
%TD*%
D10*
%TO.C,BT2*%
X77486000Y15121000D03*
X96786000Y15121000D03*
X116086000Y15121000D03*
X77486000Y70731000D03*
X96786000Y70731000D03*
X116086000Y70731000D03*
D11*
X77486000Y6676000D03*
X77486000Y79176000D03*
X96786000Y6676000D03*
X96786000Y79176000D03*
X116086000Y6676000D03*
X116086000Y79176000D03*
%TD*%
D12*
%TO.C,H4*%
X131826000Y7366000D03*
%TD*%
%TO.C,H3*%
X9906000Y7366000D03*
%TD*%
D10*
%TO.C,J4*%
X19036000Y66856000D03*
X19036000Y18646000D03*
D14*
X13436000Y37926000D03*
X13436000Y39926000D03*
X13436000Y41926000D03*
X13436000Y43926000D03*
X13436000Y45926000D03*
X13436000Y47926000D03*
X15436000Y37926000D03*
X15436000Y39926000D03*
X15436000Y41926000D03*
X15436000Y43926000D03*
X15436000Y45926000D03*
X15436000Y47926000D03*
X17436000Y37926000D03*
X17436000Y39926000D03*
X17436000Y41926000D03*
X17436000Y43926000D03*
X17436000Y45926000D03*
X17436000Y47926000D03*
X19436000Y37926000D03*
X19436000Y39926000D03*
X19436000Y41926000D03*
X19436000Y43926000D03*
X19436000Y45926000D03*
X19436000Y47926000D03*
X21436000Y37926000D03*
X21436000Y39926000D03*
X21436000Y41926000D03*
X21436000Y43926000D03*
X21436000Y45926000D03*
X21436000Y47926000D03*
D15*
X24036000Y27146000D03*
X21536000Y27146000D03*
X19036000Y27146000D03*
X16536000Y27146000D03*
X14036000Y27146000D03*
X24036000Y24146000D03*
X21536000Y24146000D03*
X19036000Y24146000D03*
X16536000Y24146000D03*
X14036000Y24146000D03*
X24036000Y32646000D03*
X21536000Y32646000D03*
X19036000Y32646000D03*
X16536000Y32646000D03*
X14036000Y32646000D03*
X24036000Y29646000D03*
X21536000Y29646000D03*
X19036000Y29646000D03*
X16536000Y29646000D03*
X14036000Y29646000D03*
X24036000Y55856000D03*
X21536000Y55856000D03*
X19036000Y55856000D03*
X16536000Y55856000D03*
X14036000Y55856000D03*
X24036000Y52856000D03*
X21536000Y52856000D03*
X19036000Y52856000D03*
X16536000Y52856000D03*
X14036000Y52856000D03*
X24036000Y61356000D03*
X21536000Y61356000D03*
X19036000Y61356000D03*
X16536000Y61356000D03*
X14036000Y61356000D03*
X24036000Y58356000D03*
X21536000Y58356000D03*
X19036000Y58356000D03*
X16536000Y58356000D03*
X14036000Y58356000D03*
%TD*%
D13*
%TO.C,SW1*%
X129836000Y26051000D03*
X129836000Y30301000D03*
%TD*%
D16*
%TO.C,R35*%
X84786000Y17213500D03*
X84786000Y19038500D03*
%TD*%
D17*
%TO.C,R10*%
X93273500Y28726000D03*
X95098500Y28726000D03*
%TD*%
D18*
%TO.C,U9*%
X25659750Y7704750D03*
X25659750Y6454750D03*
X25659750Y5204750D03*
X25659750Y3954750D03*
X23509750Y3954750D03*
X23509750Y5204750D03*
X23509750Y6454750D03*
X23509750Y7704750D03*
%TD*%
D19*
%TO.C,C39*%
X61736000Y73266000D03*
X61736000Y75166000D03*
%TD*%
D20*
%TO.C,Q2*%
X89469330Y20888500D03*
X87569330Y20888500D03*
X88519330Y23163500D03*
%TD*%
D21*
%TO.C,L3*%
X46261000Y73711000D03*
X44111000Y73711000D03*
%TD*%
D22*
%TO.C,R37*%
X50940765Y29271235D03*
X52231235Y27980765D03*
%TD*%
D23*
%TO.C,JP2*%
X75686000Y50126000D03*
D24*
X76986000Y50126000D03*
D25*
X78286000Y50126000D03*
%TD*%
D26*
%TO.C,SW2*%
X33386000Y53901000D03*
X36386000Y53901000D03*
X33386000Y55801000D03*
X36386000Y55801000D03*
%TD*%
D27*
%TO.C,U17*%
X24086000Y71658500D03*
X24586000Y71658500D03*
X25086000Y71658500D03*
X25586000Y71658500D03*
X25586000Y70178500D03*
X25086000Y70178500D03*
X24586000Y70178500D03*
X24086000Y70178500D03*
%TD*%
D28*
%TO.C,U2*%
X123711000Y67276000D03*
X123711000Y68226000D03*
X123711000Y69176000D03*
X125986000Y69176000D03*
X125986000Y68226000D03*
X125986000Y67276000D03*
%TD*%
D16*
%TO.C,R14*%
X103586000Y58101000D03*
X103586000Y59926000D03*
%TD*%
D29*
%TO.C,F3*%
X81886000Y11926000D03*
X81886000Y6106000D03*
%TD*%
D30*
%TO.C,R61*%
X80923500Y80126000D03*
X86848500Y80126000D03*
%TD*%
D31*
%TO.C,JP12*%
X87736000Y71876000D03*
D32*
X87736000Y70576000D03*
%TD*%
D33*
%TO.C,U4*%
X66548500Y40956000D03*
X66548500Y40306000D03*
X66548500Y39656000D03*
X66548500Y39006000D03*
D34*
X65686000Y38143500D03*
X65036000Y38143500D03*
X64386000Y38143500D03*
X63736000Y38143500D03*
D33*
X62873500Y39006000D03*
X62873500Y39656000D03*
X62873500Y40306000D03*
X62873500Y40956000D03*
D34*
X63736000Y41818500D03*
X64386000Y41818500D03*
X65036000Y41818500D03*
X65686000Y41818500D03*
D35*
X64711000Y39981000D03*
%TD*%
D36*
%TO.C,C15*%
X28786000Y42826000D03*
X26886000Y42826000D03*
%TD*%
%TO.C,C35*%
X122686000Y56951000D03*
X120786000Y56951000D03*
%TD*%
D37*
%TO.C,J1*%
X130456000Y71146000D03*
X130456000Y65366000D03*
D38*
X129381000Y71456000D03*
X129381000Y70656000D03*
D39*
X129381000Y69506000D03*
X129381000Y68506000D03*
X129381000Y68006000D03*
X129381000Y67006000D03*
D38*
X129381000Y65056000D03*
X129381000Y65856000D03*
D39*
X129381000Y66506000D03*
X129381000Y67506000D03*
X129381000Y69006000D03*
X129381000Y70006000D03*
D40*
X134136000Y72576000D03*
X134136000Y63936000D03*
D41*
X129956000Y72576000D03*
X129956000Y63936000D03*
%TD*%
D42*
%TO.C,L5*%
X87111000Y35026000D03*
X89161000Y35026000D03*
%TD*%
D36*
%TO.C,C45*%
X84436000Y29576000D03*
X82536000Y29576000D03*
%TD*%
D19*
%TO.C,C24*%
X91086000Y65276000D03*
X91086000Y67176000D03*
%TD*%
D43*
%TO.C,U7*%
X56186000Y48976000D03*
X56186000Y48476000D03*
X56186000Y47976000D03*
X56186000Y47476000D03*
X56186000Y46976000D03*
X56186000Y46476000D03*
X56186000Y45976000D03*
X56186000Y45476000D03*
X53186000Y45476000D03*
X53186000Y45976000D03*
X53186000Y46476000D03*
X53186000Y46976000D03*
X53186000Y47476000D03*
X53186000Y47976000D03*
X53186000Y48476000D03*
X53186000Y48976000D03*
%TD*%
D44*
%TO.C,TP2*%
X69136000Y42326000D03*
%TD*%
D45*
%TO.C,R50*%
X105586000Y73163500D03*
X105586000Y71338500D03*
%TD*%
D16*
%TO.C,R73*%
X50436000Y68536000D03*
X50436000Y70361000D03*
%TD*%
D46*
%TO.C,FID2*%
X49286000Y15926000D03*
%TD*%
D47*
%TO.C,L1*%
X100686000Y62651000D03*
X100686000Y64801000D03*
%TD*%
D48*
%TO.C,C18*%
X27486000Y7529750D03*
X27486000Y5629750D03*
%TD*%
D45*
%TO.C,R52*%
X94236000Y57638500D03*
X94236000Y55813500D03*
%TD*%
D16*
%TO.C,R27*%
X88719332Y17213500D03*
X88719332Y19038500D03*
%TD*%
D48*
%TO.C,C3*%
X96786000Y48626000D03*
X96786000Y46726000D03*
%TD*%
D49*
%TO.C,C6*%
X79336000Y32926000D03*
X81236000Y32926000D03*
%TD*%
D50*
%TO.C,R29*%
X85186000Y38726000D03*
X83361000Y38726000D03*
%TD*%
D51*
%TO.C,JP9*%
X64986000Y67366000D03*
D52*
X64986000Y68666000D03*
%TD*%
D48*
%TO.C,C10*%
X47326000Y61826000D03*
X47326000Y59926000D03*
%TD*%
D49*
%TO.C,C21*%
X31986000Y60516000D03*
X33886000Y60516000D03*
%TD*%
D17*
%TO.C,R44*%
X28836000Y52326000D03*
X30661000Y52326000D03*
%TD*%
D45*
%TO.C,R39*%
X58986000Y53938500D03*
X58986000Y52113500D03*
%TD*%
D46*
%TO.C,FID1*%
X29286000Y61926000D03*
%TD*%
D19*
%TO.C,C20*%
X35486000Y24956000D03*
X35486000Y26856000D03*
%TD*%
D45*
%TO.C,R12*%
X67186000Y59988500D03*
X67186000Y58163500D03*
%TD*%
%TO.C,R38*%
X54386000Y53988500D03*
X54386000Y52163500D03*
%TD*%
D20*
%TO.C,Q6*%
X107711000Y74951000D03*
X105811000Y74951000D03*
X106761000Y77226000D03*
%TD*%
D53*
%TO.C,Y2*%
X50013081Y42633081D03*
X51568716Y41077446D03*
X50366635Y39875365D03*
X48811000Y41431000D03*
%TD*%
D45*
%TO.C,R13*%
X101536000Y59893500D03*
X101536000Y58068500D03*
%TD*%
D19*
%TO.C,C29*%
X82286000Y71876000D03*
X82286000Y73776000D03*
%TD*%
D54*
%TO.C,U18*%
X86336000Y31276000D03*
X85836000Y31276000D03*
X85336000Y31276000D03*
X84836000Y31276000D03*
X84836000Y33176000D03*
X85336000Y33176000D03*
X85836000Y33176000D03*
X86336000Y33176000D03*
D55*
X85586000Y32226000D03*
%TD*%
D17*
%TO.C,R9*%
X93273500Y30676000D03*
X95098500Y30676000D03*
%TD*%
D16*
%TO.C,R72*%
X48236000Y68548500D03*
X48236000Y70373500D03*
%TD*%
D45*
%TO.C,R51*%
X109511000Y73138500D03*
X109511000Y71313500D03*
%TD*%
D50*
%TO.C,R6*%
X95048500Y42626000D03*
X93223500Y42626000D03*
%TD*%
D21*
%TO.C,L2*%
X65811000Y73866000D03*
X63661000Y73866000D03*
%TD*%
D56*
%TO.C,JP1*%
X80236000Y53300000D03*
D57*
X78936000Y53300000D03*
D58*
X77636000Y53300000D03*
%TD*%
D20*
%TO.C,Q5*%
X111211000Y74926000D03*
X109311000Y74926000D03*
X110261000Y77201000D03*
%TD*%
D48*
%TO.C,C34*%
X84786000Y59556000D03*
X84786000Y57656000D03*
%TD*%
D17*
%TO.C,R8*%
X93323500Y37726000D03*
X95148500Y37726000D03*
%TD*%
D50*
%TO.C,R18*%
X30686000Y50326000D03*
X28861000Y50326000D03*
%TD*%
D16*
%TO.C,R46*%
X23986000Y35413500D03*
X23986000Y37238500D03*
%TD*%
%TO.C,R48*%
X107511000Y71338500D03*
X107511000Y73163500D03*
%TD*%
%TO.C,R31*%
X86752666Y17213500D03*
X86752666Y19038500D03*
%TD*%
D45*
%TO.C,R56*%
X91022000Y63596100D03*
X91022000Y61771100D03*
%TD*%
D59*
%TO.C,U5*%
X47791000Y21701000D03*
X46521000Y21701000D03*
X45251000Y21701000D03*
X43981000Y21701000D03*
X43981000Y26651000D03*
X45251000Y26651000D03*
X46521000Y26651000D03*
X47791000Y26651000D03*
%TD*%
D60*
%TO.C,U11*%
X29661000Y30726000D03*
X29011000Y30726000D03*
X28361000Y30726000D03*
X27711000Y30726000D03*
X27711000Y35126000D03*
X28361000Y35126000D03*
X29011000Y35126000D03*
X29661000Y35126000D03*
%TD*%
D61*
%TO.C,TP1*%
X85086000Y40826000D03*
%TD*%
D50*
%TO.C,R7*%
X95048500Y40626000D03*
X93223500Y40626000D03*
%TD*%
D16*
%TO.C,R19*%
X82819334Y17213500D03*
X82819334Y19038500D03*
%TD*%
D20*
%TO.C,Q1*%
X82535998Y20888500D03*
X80635998Y20888500D03*
X81585998Y23163500D03*
%TD*%
D45*
%TO.C,R80*%
X22286000Y68106000D03*
X22286000Y66281000D03*
%TD*%
D17*
%TO.C,R43*%
X32003500Y62546000D03*
X33828500Y62546000D03*
%TD*%
D62*
%TO.C,SW4*%
X43586000Y55801000D03*
X40586000Y55801000D03*
X43586000Y53901000D03*
X40586000Y53901000D03*
%TD*%
D45*
%TO.C,R79*%
X22286000Y71531000D03*
X22286000Y69706000D03*
%TD*%
D63*
%TO.C,J2*%
X96861000Y27441000D03*
X96861000Y29941000D03*
X96861000Y32441000D03*
X96861000Y34941000D03*
X96861000Y37441000D03*
X96861000Y39941000D03*
X96861000Y42371000D03*
X96861000Y44171000D03*
D64*
X96861000Y24941000D03*
D65*
X100361000Y48056000D03*
X100361000Y17606000D03*
X124561000Y17606000D03*
X130561000Y48056000D03*
%TD*%
D48*
%TO.C,C42*%
X60536000Y71716000D03*
X60536000Y69816000D03*
%TD*%
D49*
%TO.C,C7*%
X79336000Y35026000D03*
X81236000Y35026000D03*
%TD*%
D36*
%TO.C,C27*%
X97036000Y59801000D03*
X95136000Y59801000D03*
%TD*%
D16*
%TO.C,R24*%
X71586000Y41251000D03*
X71586000Y43076000D03*
%TD*%
%TO.C,R25*%
X73536000Y41251000D03*
X73536000Y43076000D03*
%TD*%
D49*
%TO.C,C12*%
X51886000Y55826000D03*
X53786000Y55826000D03*
%TD*%
D17*
%TO.C,R2*%
X126536000Y62076000D03*
X128361000Y62076000D03*
%TD*%
D19*
%TO.C,C38*%
X27836000Y71918500D03*
X27836000Y73818500D03*
%TD*%
D36*
%TO.C,C46*%
X85436000Y35026000D03*
X83536000Y35026000D03*
%TD*%
%TO.C,C5*%
X125436000Y71076000D03*
X123536000Y71076000D03*
%TD*%
D19*
%TO.C,C40*%
X42186000Y73061000D03*
X42186000Y74961000D03*
%TD*%
D16*
%TO.C,R55*%
X89167800Y57713500D03*
X89167800Y59538500D03*
%TD*%
%TO.C,R26*%
X80852668Y17213500D03*
X80852668Y19038500D03*
%TD*%
D36*
%TO.C,C47*%
X95161000Y35626000D03*
X93261000Y35626000D03*
%TD*%
D48*
%TO.C,C2*%
X88686000Y44251000D03*
X88686000Y42351000D03*
%TD*%
D66*
%TO.C,JP5*%
X91936000Y55826000D03*
D67*
X91936000Y57126000D03*
D68*
X91936000Y58426000D03*
%TD*%
D16*
%TO.C,R15*%
X75586000Y32687500D03*
X75586000Y34512500D03*
%TD*%
D29*
%TO.C,F2*%
X60186000Y11936000D03*
X60186000Y6116000D03*
%TD*%
D69*
%TO.C,U3*%
X79386000Y37356000D03*
X78886000Y37356000D03*
X78386000Y37356000D03*
X77886000Y37356000D03*
X77386000Y37356000D03*
X76886000Y37356000D03*
X76386000Y37356000D03*
D70*
X75436000Y38306000D03*
X75436000Y38806000D03*
X75436000Y39306000D03*
X75436000Y39806000D03*
X75436000Y40306000D03*
X75436000Y40806000D03*
X75436000Y41306000D03*
D69*
X76386000Y42256000D03*
X76886000Y42256000D03*
X77386000Y42256000D03*
X77886000Y42256000D03*
X78386000Y42256000D03*
X78886000Y42256000D03*
X79386000Y42256000D03*
D70*
X80336000Y41306000D03*
X80336000Y40806000D03*
X80336000Y40306000D03*
X80336000Y39806000D03*
X80336000Y39306000D03*
X80336000Y38806000D03*
X80336000Y38306000D03*
D71*
X77886000Y39806000D03*
%TD*%
D19*
%TO.C,C4*%
X100186000Y54626000D03*
X100186000Y56526000D03*
%TD*%
D72*
%TO.C,D6*%
X30636000Y54338500D03*
X28736000Y54338500D03*
X29686000Y56213500D03*
%TD*%
D16*
%TO.C,R57*%
X93155600Y64666700D03*
X93155600Y66491700D03*
%TD*%
D17*
%TO.C,R5*%
X123573500Y73026000D03*
X125398500Y73026000D03*
%TD*%
D16*
%TO.C,R42*%
X31536000Y32263500D03*
X31536000Y34088500D03*
%TD*%
D36*
%TO.C,C48*%
X95186000Y33601000D03*
X93286000Y33601000D03*
%TD*%
D21*
%TO.C,L4*%
X25886000Y73668500D03*
X23736000Y73668500D03*
%TD*%
D50*
%TO.C,R28*%
X30686000Y48326000D03*
X28861000Y48326000D03*
%TD*%
D73*
%TO.C,U12*%
X86736000Y62076000D03*
X86086000Y62076000D03*
X85436000Y62076000D03*
X84786000Y62076000D03*
X84136000Y62076000D03*
X83486000Y62076000D03*
X82836000Y62076000D03*
X82836000Y67976000D03*
X83486000Y67976000D03*
X84136000Y67976000D03*
X84786000Y67976000D03*
X85436000Y67976000D03*
X86086000Y67976000D03*
X86736000Y67976000D03*
%TD*%
D16*
%TO.C,R17*%
X77586000Y32687500D03*
X77586000Y34512500D03*
%TD*%
D46*
%TO.C,FID3*%
X101486000Y72726000D03*
%TD*%
D74*
%TO.C,U13*%
X94838500Y62376000D03*
D75*
X95126000Y62088500D03*
D76*
X94823500Y62919000D03*
X94813500Y63319000D03*
X94813500Y63719000D03*
D75*
X95126000Y64563500D03*
D77*
X94838500Y64276000D03*
D78*
X95576000Y64538500D03*
X95976000Y64538500D03*
D79*
X96376000Y64356000D03*
X96776000Y64356000D03*
D80*
X97276000Y64563500D03*
D81*
X97588500Y64276000D03*
D76*
X97583500Y63719000D03*
X97583500Y63319000D03*
X97583500Y62919000D03*
D80*
X97276000Y62088500D03*
D82*
X97588500Y62376000D03*
D79*
X96776000Y62196000D03*
X96376000Y62196000D03*
X95976000Y62196000D03*
D78*
X95576000Y62016000D03*
%TD*%
D19*
%TO.C,C16*%
X19486000Y4179750D03*
X19486000Y6079750D03*
%TD*%
D45*
%TO.C,R78*%
X42986000Y68023500D03*
X42986000Y66198500D03*
%TD*%
%TO.C,R75*%
X62536000Y71678500D03*
X62536000Y69853500D03*
%TD*%
D50*
%TO.C,R45*%
X57698500Y22226000D03*
X55873500Y22226000D03*
%TD*%
D16*
%TO.C,R21*%
X67636000Y44676000D03*
X67636000Y46501000D03*
%TD*%
D83*
%TO.C,BZ1*%
X69036000Y18001000D03*
X69036000Y26451000D03*
%TD*%
D16*
%TO.C,R32*%
X92652668Y17213500D03*
X92652668Y19038500D03*
%TD*%
%TO.C,R4*%
X106312800Y52525500D03*
X106312800Y54350500D03*
%TD*%
D84*
%TO.C,U6*%
X16134750Y6329750D03*
X16634750Y6329750D03*
X17134750Y6329750D03*
D85*
X17634750Y6329750D03*
D84*
X17634750Y3979750D03*
X17134750Y3979750D03*
X16634750Y3979750D03*
X16134750Y3979750D03*
D86*
X16884750Y5154750D03*
%TD*%
D19*
%TO.C,C41*%
X21736000Y73106000D03*
X21736000Y75006000D03*
%TD*%
%TO.C,C36*%
X67736000Y71966000D03*
X67736000Y73866000D03*
%TD*%
D51*
%TO.C,JP10*%
X45486000Y67211000D03*
D52*
X45486000Y68511000D03*
%TD*%
D48*
%TO.C,C1*%
X82986000Y47626000D03*
X82986000Y45726000D03*
%TD*%
D87*
%TO.C,JP4*%
X45186000Y18876000D03*
D88*
X43886000Y18876000D03*
%TD*%
D27*
%TO.C,U16*%
X44536000Y71701000D03*
X45036000Y71701000D03*
X45536000Y71701000D03*
X46036000Y71701000D03*
X46036000Y70221000D03*
X45536000Y70221000D03*
X45036000Y70221000D03*
X44536000Y70221000D03*
%TD*%
D46*
%TO.C,FID4*%
X122286000Y11926000D03*
%TD*%
D45*
%TO.C,R54*%
X87086000Y59538500D03*
X87086000Y57713500D03*
%TD*%
%TO.C,R59*%
X82786000Y77238500D03*
X82786000Y75413500D03*
%TD*%
%TO.C,R1*%
X94786000Y46651000D03*
X94786000Y44826000D03*
%TD*%
D89*
%TO.C,C14*%
X47864249Y39697751D03*
X49207751Y38354249D03*
%TD*%
D90*
%TO.C,D8*%
X134586000Y57426000D03*
X134586000Y59026000D03*
%TD*%
D50*
%TO.C,R3*%
X104304300Y53209400D03*
X102479300Y53209400D03*
%TD*%
D16*
%TO.C,R33*%
X80936000Y43963500D03*
X80936000Y45788500D03*
%TD*%
D87*
%TO.C,JP7*%
X31786000Y72368500D03*
D88*
X30486000Y72368500D03*
%TD*%
D27*
%TO.C,U15*%
X64086000Y71856000D03*
X64586000Y71856000D03*
X65086000Y71856000D03*
X65586000Y71856000D03*
X65586000Y70376000D03*
X65086000Y70376000D03*
X64586000Y70376000D03*
X64086000Y70376000D03*
%TD*%
D91*
%TO.C,Y3*%
X34952117Y22859883D03*
X36719883Y21092117D03*
%TD*%
D19*
%TO.C,C31*%
X80986000Y63426000D03*
X80986000Y65326000D03*
%TD*%
D92*
%TO.C,Q7*%
X80473500Y61276000D03*
X80473500Y59376000D03*
X78598500Y60326000D03*
%TD*%
D93*
%TO.C,U10*%
X37336000Y23406000D03*
X37336000Y23906000D03*
X37336000Y24406000D03*
X37336000Y24906000D03*
X37336000Y25406000D03*
X41636000Y25406000D03*
X41636000Y24906000D03*
X41636000Y24406000D03*
X41636000Y23906000D03*
X41636000Y23406000D03*
%TD*%
D20*
%TO.C,Q4*%
X92935998Y20888500D03*
X91035998Y20888500D03*
X91985998Y23163500D03*
%TD*%
D94*
%TO.C,Y1*%
X102511000Y56426000D03*
X104261000Y56426000D03*
X104261000Y55026000D03*
X102511000Y55026000D03*
%TD*%
D90*
%TO.C,D7*%
X134586000Y51901000D03*
X134586000Y53501000D03*
%TD*%
D95*
%TO.C,J3*%
X47166000Y50436000D03*
X49706000Y50436000D03*
X47166000Y52976000D03*
X49706000Y52976000D03*
X47166000Y55516000D03*
X49706000Y55516000D03*
%TD*%
D16*
%TO.C,R70*%
X27836000Y68481000D03*
X27836000Y70306000D03*
%TD*%
D45*
%TO.C,R40*%
X52086000Y53988500D03*
X52086000Y52163500D03*
%TD*%
D49*
%TO.C,C32*%
X98586000Y67026000D03*
X100486000Y67026000D03*
%TD*%
D48*
%TO.C,C25*%
X82640000Y59569600D03*
X82640000Y57669600D03*
%TD*%
D31*
%TO.C,JP11*%
X90286000Y71876000D03*
D32*
X90286000Y70576000D03*
%TD*%
D36*
%TO.C,C17*%
X42336000Y21506000D03*
X40436000Y21506000D03*
%TD*%
D49*
%TO.C,C26*%
X82886000Y70026000D03*
X84786000Y70026000D03*
%TD*%
D96*
%TO.C,C9*%
X47414249Y42954249D03*
X48757751Y44297751D03*
%TD*%
D22*
%TO.C,R36*%
X51640765Y31371235D03*
X52931235Y30080765D03*
%TD*%
D49*
%TO.C,C23*%
X96066400Y55626000D03*
X97966400Y55626000D03*
%TD*%
D20*
%TO.C,Q3*%
X86002664Y20888500D03*
X84102664Y20888500D03*
X85052664Y23163500D03*
%TD*%
D19*
%TO.C,C37*%
X48236000Y72011000D03*
X48236000Y73911000D03*
%TD*%
D16*
%TO.C,R81*%
X71586000Y44708500D03*
X71586000Y46533500D03*
%TD*%
D48*
%TO.C,C44*%
X20236000Y71568500D03*
X20236000Y69668500D03*
%TD*%
D45*
%TO.C,R77*%
X42986000Y71473500D03*
X42986000Y69648500D03*
%TD*%
D29*
%TO.C,F5*%
X111586000Y11926000D03*
X111586000Y6106000D03*
%TD*%
D48*
%TO.C,C43*%
X40986000Y71511000D03*
X40986000Y69611000D03*
%TD*%
D17*
%TO.C,R41*%
X47023500Y18826000D03*
X48848500Y18826000D03*
%TD*%
D87*
%TO.C,JP6*%
X52236000Y72423500D03*
D88*
X50936000Y72423500D03*
%TD*%
D16*
%TO.C,R71*%
X67736000Y68491000D03*
X67736000Y70316000D03*
%TD*%
%TO.C,R74*%
X29836000Y68481000D03*
X29836000Y70306000D03*
%TD*%
D97*
%TO.C,U1*%
X87736000Y46676000D03*
X87736000Y47076000D03*
X87736000Y47476000D03*
X87736000Y47876000D03*
X87736000Y48276000D03*
X87736000Y48676000D03*
X87736000Y49076000D03*
X87736000Y49476000D03*
X87736000Y49876000D03*
X87736000Y50276000D03*
D98*
X88386000Y50926000D03*
X88786000Y50926000D03*
X89186000Y50926000D03*
X89586000Y50926000D03*
X89986000Y50926000D03*
X90386000Y50926000D03*
X90786000Y50926000D03*
X91186000Y50926000D03*
X91586000Y50926000D03*
X91986000Y50926000D03*
D97*
X92636000Y50276000D03*
X92636000Y49876000D03*
X92636000Y49476000D03*
X92636000Y49076000D03*
X92636000Y48676000D03*
X92636000Y48276000D03*
X92636000Y47876000D03*
X92636000Y47476000D03*
X92636000Y47076000D03*
X92636000Y46676000D03*
D98*
X91986000Y46026000D03*
X91586000Y46026000D03*
X91186000Y46026000D03*
X90786000Y46026000D03*
X90386000Y46026000D03*
X89986000Y46026000D03*
X89586000Y46026000D03*
X89186000Y46026000D03*
X88786000Y46026000D03*
X88386000Y46026000D03*
D99*
X90186000Y48476000D03*
%TD*%
D45*
%TO.C,R60*%
X84786000Y77238500D03*
X84786000Y75413500D03*
%TD*%
D51*
%TO.C,JP8*%
X24936000Y67156000D03*
D52*
X24936000Y68456000D03*
%TD*%
D48*
%TO.C,C19*%
X86686000Y44601000D03*
X86686000Y42701000D03*
%TD*%
D100*
%TO.C,U14*%
X124736000Y49238500D03*
X124086000Y49238500D03*
X123436000Y49238500D03*
X122786000Y49238500D03*
X122136000Y49238500D03*
X121486000Y49238500D03*
X120836000Y49238500D03*
X120836000Y54963500D03*
X121486000Y54963500D03*
X122136000Y54963500D03*
X122786000Y54963500D03*
X123436000Y54963500D03*
X124086000Y54963500D03*
X124736000Y54963500D03*
%TD*%
D36*
%TO.C,C49*%
X100236000Y52826000D03*
X98336000Y52826000D03*
%TD*%
%TO.C,C11*%
X28786000Y44876000D03*
X26886000Y44876000D03*
%TD*%
D45*
%TO.C,R76*%
X62536000Y68278500D03*
X62536000Y66453500D03*
%TD*%
D48*
%TO.C,C13*%
X49361000Y61826000D03*
X49361000Y59926000D03*
%TD*%
D16*
%TO.C,R30*%
X69586000Y44676000D03*
X69586000Y46501000D03*
%TD*%
%TO.C,R47*%
X25936000Y36313500D03*
X25936000Y38138500D03*
%TD*%
D45*
%TO.C,R58*%
X76486000Y61263500D03*
X76486000Y59438500D03*
%TD*%
D16*
%TO.C,R49*%
X111486000Y71313500D03*
X111486000Y73138500D03*
%TD*%
D19*
%TO.C,C30*%
X85386000Y71876000D03*
X85386000Y73776000D03*
%TD*%
D101*
%TO.C,U8*%
X43611000Y46631000D03*
X43611000Y45831000D03*
X43611000Y45031000D03*
X43611000Y44231000D03*
X43611000Y43431000D03*
X43611000Y42631000D03*
X43611000Y41831000D03*
X43611000Y41031000D03*
X43611000Y40231000D03*
X43611000Y39431000D03*
X43611000Y38631000D03*
D102*
X41911000Y36931000D03*
X41111000Y36931000D03*
X40311000Y36931000D03*
X39511000Y36931000D03*
X38711000Y36931000D03*
X37911000Y36931000D03*
X37111000Y36931000D03*
X36311000Y36931000D03*
X35511000Y36931000D03*
X34711000Y36931000D03*
X33911000Y36931000D03*
D101*
X32211000Y38631000D03*
X32211000Y39431000D03*
X32211000Y40231000D03*
X32211000Y41031000D03*
X32211000Y41831000D03*
X32211000Y42631000D03*
X32211000Y43431000D03*
X32211000Y44231000D03*
X32211000Y45031000D03*
X32211000Y45831000D03*
X32211000Y46631000D03*
D102*
X33911000Y48331000D03*
X34711000Y48331000D03*
X35511000Y48331000D03*
X36311000Y48331000D03*
X37111000Y48331000D03*
X37911000Y48331000D03*
X38711000Y48331000D03*
X39511000Y48331000D03*
X40311000Y48331000D03*
X41111000Y48331000D03*
X41911000Y48331000D03*
%TD*%
D51*
%TO.C,JP3*%
X56686000Y52376000D03*
D52*
X56686000Y53676000D03*
%TD*%
D17*
%TO.C,R53*%
X77223500Y63376000D03*
X79048500Y63376000D03*
%TD*%
D16*
%TO.C,R20*%
X90685998Y17213500D03*
X90685998Y19038500D03*
%TD*%
D36*
%TO.C,C28*%
X96900000Y67000000D03*
X95000000Y67000000D03*
%TD*%
D29*
%TO.C,F4*%
X101286000Y12026000D03*
X101286000Y6206000D03*
%TD*%
D17*
%TO.C,R11*%
X93273500Y26756000D03*
X95098500Y26756000D03*
%TD*%
D49*
%TO.C,C22*%
X96066400Y57629000D03*
X97966400Y57629000D03*
%TD*%
D16*
%TO.C,R23*%
X65686000Y44676000D03*
X65686000Y46501000D03*
%TD*%
%TO.C,R34*%
X78986000Y43963500D03*
X78986000Y45788500D03*
%TD*%
D19*
%TO.C,C8*%
X82986000Y42226000D03*
X82986000Y44126000D03*
%TD*%
D29*
%TO.C,F1*%
X40886000Y12026000D03*
X40886000Y6206000D03*
%TD*%
D48*
%TO.C,C33*%
X93104800Y62109600D03*
X93104800Y60209600D03*
%TD*%
M02*
