M48
; DRILL file {KiCad 7.0.8-7.0.8~ubuntu23.04.1} date Mon Nov  6 00:32:52 2023
; FORMAT={3:3/ absolute / metric / suppress leading zeros}
; #@! TF.CreationDate,2023-11-06T00:32:52+00:00
; #@! TF.GenerationSoftware,Kicad,Pcbnew,7.0.8-7.0.8~ubuntu23.04.1
; #@! TF.FileFunction,Plated,1,2,PTH
FMAT,2
METRIC,TZ
; #@! TA.AperFunction,Plated,PTH,ViaDrill
T1C0.300
; #@! TA.AperFunction,Plated,PTH,ViaDrill
T2C0.400
; #@! TA.AperFunction,Plated,PTH,ComponentDrill
T3C0.500
; #@! TA.AperFunction,Plated,PTH,ComponentDrill
T4C0.600
; #@! TA.AperFunction,Plated,PTH,ComponentDrill
T5C0.750
; #@! TA.AperFunction,Plated,PTH,ComponentDrill
T6C1.020
; #@! TA.AperFunction,Plated,PTH,ComponentDrill
T7C1.600
; #@! TA.AperFunction,Plated,PTH,ComponentDrill
T8C3.000
%
G90
G05
T1
X19232Y10230
X20785Y4155
X22510Y6852
X24036Y12301
X25716Y38926
X27460Y6980
X27586Y41576
X27736Y12526
X28361Y21726
X28586Y40555
X29536Y16526
X29661Y31826
X29886Y50726
X32136Y38176
X32186Y53526
X32336Y35176
X32586Y48096
X32769Y48771
X33436Y44076
X34747Y49427
X35850Y45200
X36136Y64076
X37536Y40676
X37911Y35651
X38236Y45076
X38887Y35616
X39586Y35626
X40186Y57126
X40186Y51126
X40286Y35626
X40386Y20276
X40486Y23100
X40736Y54426
X40986Y35626
X41086Y38326
X41286Y29626
X41936Y40376
X43436Y37776
X43986Y57126
X44681Y28200
X44981Y39431
X44986Y40231
X45486Y32826
X45825Y64576
X46186Y54426
X47186Y54026
X48086Y48126
X48086Y49045
X48494Y50826
X50356Y48377
X51486Y48226
X52235Y46127
X53386Y25326
X54486Y46726
X54973Y62274
X55098Y48162
X56486Y24226
X56820Y49076
X56986Y23726
X57286Y45926
X57386Y62226
X57586Y53726
X58686Y34226
X58686Y26426
X59186Y26026
X59411Y39801
X60436Y35626
X60811Y39601
X64711Y39976
X67986Y53726
X68636Y82476
X70186Y39506
X71561Y62576
X71786Y59426
X72661Y29626
X72686Y41055
X72961Y65276
X73261Y82426
X73436Y26951
X73786Y53726
X73886Y51000
X74561Y62176
X74636Y43926
X74686Y58626
X75236Y42426
X76087Y36300
X76586Y62226
X76786Y36300
X77100Y60000
X77286Y57825
X77611Y65126
X78038Y56626
X78561Y59176
X78886Y35826
X79293Y51233
X79336Y56786
X80086Y55426
X80311Y37526
X80444Y56027
X80774Y61651
X81086Y42726
X81186Y53326
X81386Y41326
X82661Y37026
X82736Y16651
X83786Y58376
X83984Y47127
X84186Y9726
X84786Y47126
X84886Y47926
X84886Y9726
X84986Y42326
X85237Y30551
X85286Y48726
X85486Y9726
X85487Y60794
X85736Y48051
X86086Y66850
X86186Y50226
X86186Y9726
X86511Y64301
X86712Y51552
X86753Y16659
X86786Y68926
X86786Y9726
X86826Y49284
X86836Y26951
X86860Y61076
X88350Y52701
X88536Y38326
X88586Y65676
X88700Y53900
X88787Y37673
X88886Y82451
X89028Y52527
X89086Y47426
X89587Y39626
X89686Y61851
X90086Y16626
X90137Y52326
X90186Y41650
X90888Y52378
X90936Y16226
X91665Y53155
X92136Y45476
X92786Y46026
X92886Y13926
X92906Y28756
X93061Y82451
X93536Y44547
X93612Y63177
X93710Y13902
X94186Y42376
X94409Y13927
X95086Y48326
X95539Y62925
X95606Y60964
X95650Y63615
X96361Y63126
X97911Y61251
X98808Y62462
X98900Y63319
X99886Y46326
X103786Y64626
X105918Y47874
X106099Y47198
X106961Y61051
X107211Y56726
X107511Y71801
X111486Y71826
X111586Y59026
X115961Y58801
X115986Y51501
X118034Y61428
X118361Y48451
X118699Y61645
X120986Y51251
X124561Y59876
X125086Y60451
X125261Y56076
X125986Y65901
X125986Y63901
X127311Y28201
X127648Y71576
X128336Y50426
X129122Y57115
X129161Y58001
X129536Y56515
X130361Y45051
X130386Y45776
X130411Y43301
X130911Y55876
X131136Y69226
X131611Y66726
X134586Y69626
X134786Y60601
X134811Y55101
X134836Y49551
X134836Y46801
X134861Y44026
X134861Y41251
X134861Y23051
X134861Y20326
X134861Y16651
T2
X18650Y69800
X22866Y75826
X26290Y70909
X30661Y74381
X31486Y75256
X32186Y64626
X33786Y73126
X33986Y39076
X36600Y68000
X37336Y42926
X42886Y12326
X43886Y12326
X43986Y23426
X44986Y59726
X44986Y12326
X45886Y24526
X46836Y70761
X47786Y41426
X48886Y55476
X50486Y74106
X50586Y60826
X50586Y51576
X51186Y74806
X52686Y41876
X53286Y67726
X54011Y64401
X54186Y43726
X55186Y55326
X56186Y44826
X59186Y68326
X62586Y43126
X64286Y43376
X64936Y46176
X66486Y71066
X69636Y73786
X69636Y72836
X70486Y70326
X77886Y39826
X78861Y49076
X87436Y45921
X89437Y35976
X92336Y32476
X98186Y34976
X99887Y67026
X100711Y56401
X100886Y65626
X101486Y60326
X104386Y48276
X109386Y56926
X109386Y55726
X109386Y43046
X109386Y41826
X116586Y55026
X118036Y68876
X119836Y67151
X124536Y70126
X127600Y34350
X127648Y70626
X127750Y36750
X128048Y68756
X128048Y67257
X128079Y66245
T5
X13436Y47926
X13436Y45926
X13436Y43926
X13436Y41926
X13436Y39926
X13436Y37926
X15436Y47926
X15436Y45926
X15436Y43926
X15436Y41926
X15436Y39926
X15436Y37926
X17436Y47926
X17436Y45926
X17436Y43926
X17436Y41926
X17436Y39926
X17436Y37926
X19436Y47926
X19436Y45926
X19436Y43926
X19436Y41926
X19436Y39926
X19436Y37926
X21436Y47926
X21436Y45926
X21436Y43926
X21436Y41926
X21436Y39926
X21436Y37926
T6
X14036Y61356
X14036Y58356
X14036Y55856
X14036Y52856
X14036Y32646
X14036Y29646
X14036Y27146
X14036Y24146
X16536Y61356
X16536Y58356
X16536Y55856
X16536Y52856
X16536Y32646
X16536Y29646
X16536Y27146
X16536Y24146
X19036Y61356
X19036Y58356
X19036Y55856
X19036Y52856
X19036Y32646
X19036Y29646
X19036Y27146
X19036Y24146
X21536Y61356
X21536Y58356
X21536Y55856
X21536Y52856
X21536Y32646
X21536Y29646
X21536Y27146
X21536Y24146
X24036Y61356
X24036Y58356
X24036Y55856
X24036Y52856
X24036Y32646
X24036Y29646
X24036Y27146
X24036Y24146
T7
X36486Y79226
X36486Y6626
X55786Y79226
X55786Y6626
X77486Y79176
X77486Y6676
X96786Y79176
X96786Y6676
X116086Y79176
X116086Y6676
T8
X9906Y78486
X9906Y7366
X131826Y78486
X131826Y7366
T3
G00X129551Y37651
M15
G01X129951Y37651
M16
G05
G00X129551Y33401
M15
G01X129951Y33401
M16
G05
G00X129636Y30301
M15
G01X130036Y30301
M16
G05
G00X129636Y26051
M15
G01X130036Y26051
M16
G05
T4
G00X130368Y72576
M15
G01X129268Y72576
M16
G05
G00X130368Y63936
M15
G01X129268Y63936
M16
G05
G00X134399Y72576
M15
G01X133599Y72576
M16
G05
G00X134399Y63936
M15
G01X133599Y63936
M16
G05
T0
M30
