%TF.GenerationSoftware,KiCad,Pcbnew,7.0.9-7.0.9~ubuntu23.04.1*%
%TF.CreationDate,2023-12-10T16:20:11+00:00*%
%TF.ProjectId,BATDATUNIT01,42415444-4154-4554-9e49-5430312e6b69,rev?*%
%TF.SameCoordinates,Original*%
%TF.FileFunction,Paste,Top*%
%TF.FilePolarity,Positive*%
%FSLAX46Y46*%
G04 Gerber Fmt 4.6, Leading zero omitted, Abs format (unit mm)*
G04 Created by KiCad (PCBNEW 7.0.9-7.0.9~ubuntu23.04.1) date 2023-12-10 16:20:11*
%MOMM*%
%LPD*%
G01*
G04 APERTURE LIST*
G04 Aperture macros list*
%AMRoundRect*
0 Rectangle with rounded corners*
0 $1 Rounding radius*
0 $2 $3 $4 $5 $6 $7 $8 $9 X,Y pos of 4 corners*
0 Add a 4 corners polygon primitive as box body*
4,1,4,$2,$3,$4,$5,$6,$7,$8,$9,$2,$3,0*
0 Add four circle primitives for the rounded corners*
1,1,$1+$1,$2,$3*
1,1,$1+$1,$4,$5*
1,1,$1+$1,$6,$7*
1,1,$1+$1,$8,$9*
0 Add four rect primitives between the rounded corners*
20,1,$1+$1,$2,$3,$4,$5,0*
20,1,$1+$1,$4,$5,$6,$7,0*
20,1,$1+$1,$6,$7,$8,$9,0*
20,1,$1+$1,$8,$9,$2,$3,0*%
G04 Aperture macros list end*
%ADD10RoundRect,0.250000X0.450000X-0.262500X0.450000X0.262500X-0.450000X0.262500X-0.450000X-0.262500X0*%
%ADD11RoundRect,0.250000X0.262500X0.450000X-0.262500X0.450000X-0.262500X-0.450000X0.262500X-0.450000X0*%
%ADD12RoundRect,0.250000X-0.250000X0.200000X-0.250000X-0.200000X0.250000X-0.200000X0.250000X0.200000X0*%
%ADD13RoundRect,0.250000X-0.262500X-0.450000X0.262500X-0.450000X0.262500X0.450000X-0.262500X0.450000X0*%
%ADD14RoundRect,0.150000X0.750000X-0.150000X0.750000X0.150000X-0.750000X0.150000X-0.750000X-0.150000X0*%
%ADD15RoundRect,0.187500X0.712500X-0.187500X0.712500X0.187500X-0.712500X0.187500X-0.712500X-0.187500X0*%
%ADD16RoundRect,0.225000X0.225000X-0.425000X0.225000X0.425000X-0.225000X0.425000X-0.225000X-0.425000X0*%
%ADD17RoundRect,0.250000X-0.450000X0.262500X-0.450000X-0.262500X0.450000X-0.262500X0.450000X0.262500X0*%
G04 APERTURE END LIST*
D10*
%TO.C,R16*%
X132886000Y65551000D03*
X132886000Y67376000D03*
%TD*%
D11*
%TO.C,R67*%
X133111000Y57320388D03*
X131286000Y57320388D03*
%TD*%
%TO.C,R63*%
X133148500Y45245388D03*
X131323500Y45245388D03*
%TD*%
%TO.C,R69*%
X133111000Y61245388D03*
X131286000Y61245388D03*
%TD*%
D12*
%TO.C,D2*%
X134661000Y70826000D03*
X134661000Y69226000D03*
%TD*%
D13*
%TO.C,TH2*%
X76561000Y61526000D03*
X78386000Y61526000D03*
%TD*%
D14*
%TO.C,SW3*%
X128836000Y35526000D03*
D15*
X128836000Y34301000D03*
X128836000Y36751000D03*
D16*
X130786000Y33676000D03*
X130786000Y37376000D03*
%TD*%
D11*
%TO.C,TH1*%
X78386000Y59476000D03*
X76561000Y59476000D03*
%TD*%
%TO.C,R65*%
X133098500Y49145388D03*
X131273500Y49145388D03*
%TD*%
D12*
%TO.C,D4*%
X134711000Y18651000D03*
X134711000Y17051000D03*
%TD*%
%TO.C,D12*%
X134611000Y50728041D03*
X134611000Y49128041D03*
%TD*%
%TO.C,D16*%
X134611000Y61797430D03*
X134611000Y60197430D03*
%TD*%
D17*
%TO.C,R22*%
X132886000Y70813500D03*
X132886000Y68988500D03*
%TD*%
D12*
%TO.C,D1*%
X134561000Y66926000D03*
X134561000Y65326000D03*
%TD*%
%TO.C,D3*%
X134711000Y24201000D03*
X134711000Y22601000D03*
%TD*%
%TO.C,D14*%
X134611000Y56262735D03*
X134611000Y54662735D03*
%TD*%
D11*
%TO.C,R62*%
X133173500Y43295388D03*
X131348500Y43295388D03*
%TD*%
%TO.C,R68*%
X133111000Y59295388D03*
X131286000Y59295388D03*
%TD*%
D12*
%TO.C,D15*%
X134611000Y59030082D03*
X134611000Y57430082D03*
%TD*%
%TO.C,D9*%
X134611000Y42426000D03*
X134611000Y40826000D03*
%TD*%
%TO.C,D13*%
X134611000Y53495388D03*
X134611000Y51895388D03*
%TD*%
%TO.C,D11*%
X134611000Y47960694D03*
X134611000Y46360694D03*
%TD*%
D11*
%TO.C,R64*%
X133123500Y47195388D03*
X131298500Y47195388D03*
%TD*%
D12*
%TO.C,D5*%
X134711000Y21426000D03*
X134711000Y19826000D03*
%TD*%
D11*
%TO.C,R66*%
X133098500Y55395388D03*
X131273500Y55395388D03*
%TD*%
D14*
%TO.C,SW1*%
X128936000Y28176000D03*
D15*
X128936000Y26951000D03*
X128936000Y29401000D03*
D16*
X130886000Y26326000D03*
X130886000Y30026000D03*
%TD*%
D12*
%TO.C,D10*%
X134611000Y45193347D03*
X134611000Y43593347D03*
%TD*%
M02*
