%TF.GenerationSoftware,KiCad,Pcbnew,7.0.8-7.0.8~ubuntu23.04.1*%
%TF.CreationDate,2023-11-06T00:32:52+00:00*%
%TF.ProjectId,BATDATUNIT01,42415444-4154-4554-9e49-5430312e6b69,01A*%
%TF.SameCoordinates,Original*%
%TF.FileFunction,Soldermask,Top*%
%TF.FilePolarity,Negative*%
%FSLAX46Y46*%
G04 Gerber Fmt 4.6, Leading zero omitted, Abs format (unit mm)*
G04 Created by KiCad (PCBNEW 7.0.8-7.0.8~ubuntu23.04.1) date 2023-11-06 00:32:52*
%MOMM*%
%LPD*%
G01*
G04 APERTURE LIST*
G04 Aperture macros list*
%AMRoundRect*
0 Rectangle with rounded corners*
0 $1 Rounding radius*
0 $2 $3 $4 $5 $6 $7 $8 $9 X,Y pos of 4 corners*
0 Add a 4 corners polygon primitive as box body*
4,1,4,$2,$3,$4,$5,$6,$7,$8,$9,$2,$3,0*
0 Add four circle primitives for the rounded corners*
1,1,$1+$1,$2,$3*
1,1,$1+$1,$4,$5*
1,1,$1+$1,$6,$7*
1,1,$1+$1,$8,$9*
0 Add four rect primitives between the rounded corners*
20,1,$1+$1,$2,$3,$4,$5,0*
20,1,$1+$1,$4,$5,$6,$7,0*
20,1,$1+$1,$6,$7,$8,$9,0*
20,1,$1+$1,$8,$9,$2,$3,0*%
G04 Aperture macros list end*
%ADD10RoundRect,0.250000X0.450000X-0.262500X0.450000X0.262500X-0.450000X0.262500X-0.450000X-0.262500X0*%
%ADD11C,3.200000*%
%ADD12R,4.000000X4.000000*%
%ADD13RoundRect,0.250000X0.262500X0.450000X-0.262500X0.450000X-0.262500X-0.450000X0.262500X-0.450000X0*%
%ADD14RoundRect,0.250000X-0.250000X0.200000X-0.250000X-0.200000X0.250000X-0.200000X0.250000X0.200000X0*%
%ADD15RoundRect,0.250000X-0.262500X-0.450000X0.262500X-0.450000X0.262500X0.450000X-0.262500X0.450000X0*%
%ADD16C,6.000000*%
%ADD17RoundRect,0.250000X-0.450000X0.262500X-0.450000X-0.262500X0.450000X-0.262500X0.450000X0.262500X0*%
%ADD18RoundRect,0.187500X0.712500X-0.187500X0.712500X0.187500X-0.712500X0.187500X-0.712500X-0.187500X0*%
%ADD19RoundRect,0.150000X0.750000X-0.150000X0.750000X0.150000X-0.750000X0.150000X-0.750000X-0.150000X0*%
%ADD20O,1.300000X0.900000*%
%ADD21RoundRect,0.225000X0.225000X-0.425000X0.225000X0.425000X-0.225000X0.425000X-0.225000X-0.425000X0*%
%ADD22C,1.300000*%
%ADD23C,1.620000*%
%ADD24C,0.650000*%
%ADD25O,2.000000X1.000000*%
%ADD26O,2.100000X1.050000*%
G04 APERTURE END LIST*
D10*
%TO.C,R14*%
X133111000Y65551000D03*
X133111000Y67376000D03*
%TD*%
D11*
%TO.C,BT1*%
X36486000Y15116000D03*
X55786000Y15116000D03*
X36486000Y70736000D03*
X55786000Y70736000D03*
D12*
X36486000Y6626000D03*
X36486000Y79226000D03*
X55786000Y6626000D03*
X55786000Y79226000D03*
%TD*%
D13*
%TO.C,R58*%
X133311000Y57301000D03*
X131486000Y57301000D03*
%TD*%
%TO.C,R54*%
X133348500Y45226000D03*
X131523500Y45226000D03*
%TD*%
%TO.C,R60*%
X133311000Y61226000D03*
X131486000Y61226000D03*
%TD*%
D14*
%TO.C,D2*%
X134886000Y70826000D03*
X134886000Y69226000D03*
%TD*%
D15*
%TO.C,TH2*%
X76573500Y61226000D03*
X78398500Y61226000D03*
%TD*%
D16*
%TO.C,H2*%
X131826000Y78486000D03*
%TD*%
D13*
%TO.C,TH1*%
X56798500Y61226000D03*
X54973500Y61226000D03*
%TD*%
%TO.C,R56*%
X133298500Y49126000D03*
X131473500Y49126000D03*
%TD*%
D14*
%TO.C,D4*%
X134886000Y18651000D03*
X134886000Y17051000D03*
%TD*%
%TO.C,D11*%
X134811000Y50708653D03*
X134811000Y49108653D03*
%TD*%
D16*
%TO.C,H1*%
X9906000Y78486000D03*
%TD*%
D11*
%TO.C,BT2*%
X77486000Y15121000D03*
X96786000Y15121000D03*
X116086000Y15121000D03*
X77486000Y70731000D03*
X96786000Y70731000D03*
X116086000Y70731000D03*
D12*
X77486000Y6676000D03*
X77486000Y79176000D03*
X96786000Y6676000D03*
X96786000Y79176000D03*
X116086000Y6676000D03*
X116086000Y79176000D03*
%TD*%
D14*
%TO.C,D15*%
X134811000Y61778042D03*
X134811000Y60178042D03*
%TD*%
D17*
%TO.C,R18*%
X133111000Y70813500D03*
X133111000Y68988500D03*
%TD*%
D14*
%TO.C,D1*%
X134786000Y66926000D03*
X134786000Y65326000D03*
%TD*%
%TO.C,D3*%
X134886000Y24201000D03*
X134886000Y22601000D03*
%TD*%
D16*
%TO.C,H4*%
X131826000Y7366000D03*
%TD*%
D14*
%TO.C,D13*%
X134811000Y56243347D03*
X134811000Y54643347D03*
%TD*%
D18*
%TO.C,SW4*%
X128851000Y34301000D03*
X128851000Y36751000D03*
D19*
X128851000Y35526000D03*
D20*
X129751000Y33401000D03*
D21*
X130801000Y33676000D03*
X130801000Y37376000D03*
D20*
X129751000Y37651000D03*
%TD*%
D13*
%TO.C,R53*%
X133373500Y43276000D03*
X131548500Y43276000D03*
%TD*%
%TO.C,R59*%
X133311000Y59276000D03*
X131486000Y59276000D03*
%TD*%
D14*
%TO.C,D14*%
X134811000Y59010694D03*
X134811000Y57410694D03*
%TD*%
%TO.C,D8*%
X134811000Y42406612D03*
X134811000Y40806612D03*
%TD*%
%TO.C,D12*%
X134811000Y53476000D03*
X134811000Y51876000D03*
%TD*%
%TO.C,D10*%
X134811000Y47941306D03*
X134811000Y46341306D03*
%TD*%
D13*
%TO.C,R55*%
X133323500Y47176000D03*
X131498500Y47176000D03*
%TD*%
D16*
%TO.C,H3*%
X9906000Y7366000D03*
%TD*%
D14*
%TO.C,D5*%
X134886000Y21426000D03*
X134886000Y19826000D03*
%TD*%
D13*
%TO.C,R57*%
X133298500Y55376000D03*
X131473500Y55376000D03*
%TD*%
D11*
%TO.C,J4*%
X19036000Y66856000D03*
X19036000Y18646000D03*
D22*
X13436000Y37926000D03*
X13436000Y39926000D03*
X13436000Y41926000D03*
X13436000Y43926000D03*
X13436000Y45926000D03*
X13436000Y47926000D03*
X15436000Y37926000D03*
X15436000Y39926000D03*
X15436000Y41926000D03*
X15436000Y43926000D03*
X15436000Y45926000D03*
X15436000Y47926000D03*
X17436000Y37926000D03*
X17436000Y39926000D03*
X17436000Y41926000D03*
X17436000Y43926000D03*
X17436000Y45926000D03*
X17436000Y47926000D03*
X19436000Y37926000D03*
X19436000Y39926000D03*
X19436000Y41926000D03*
X19436000Y43926000D03*
X19436000Y45926000D03*
X19436000Y47926000D03*
X21436000Y37926000D03*
X21436000Y39926000D03*
X21436000Y41926000D03*
X21436000Y43926000D03*
X21436000Y45926000D03*
X21436000Y47926000D03*
D23*
X24036000Y27146000D03*
X21536000Y27146000D03*
X19036000Y27146000D03*
X16536000Y27146000D03*
X14036000Y27146000D03*
X24036000Y24146000D03*
X21536000Y24146000D03*
X19036000Y24146000D03*
X16536000Y24146000D03*
X14036000Y24146000D03*
X24036000Y32646000D03*
X21536000Y32646000D03*
X19036000Y32646000D03*
X16536000Y32646000D03*
X14036000Y32646000D03*
X24036000Y29646000D03*
X21536000Y29646000D03*
X19036000Y29646000D03*
X16536000Y29646000D03*
X14036000Y29646000D03*
X24036000Y55856000D03*
X21536000Y55856000D03*
X19036000Y55856000D03*
X16536000Y55856000D03*
X14036000Y55856000D03*
X24036000Y52856000D03*
X21536000Y52856000D03*
X19036000Y52856000D03*
X16536000Y52856000D03*
X14036000Y52856000D03*
X24036000Y61356000D03*
X21536000Y61356000D03*
X19036000Y61356000D03*
X16536000Y61356000D03*
X14036000Y61356000D03*
X24036000Y58356000D03*
X21536000Y58356000D03*
X19036000Y58356000D03*
X16536000Y58356000D03*
X14036000Y58356000D03*
%TD*%
D18*
%TO.C,SW1*%
X128936000Y26951000D03*
X128936000Y29401000D03*
D19*
X128936000Y28176000D03*
D20*
X129836000Y26051000D03*
D21*
X130886000Y26326000D03*
X130886000Y30026000D03*
D20*
X129836000Y30301000D03*
%TD*%
D14*
%TO.C,D9*%
X134811000Y45173959D03*
X134811000Y43573959D03*
%TD*%
D24*
%TO.C,J1*%
X130318500Y71146000D03*
X130318500Y65366000D03*
D25*
X133998500Y72576000D03*
X133998500Y63936000D03*
D26*
X129818500Y72576000D03*
X129818500Y63936000D03*
%TD*%
M02*
