M48
; DRILL file {KiCad 7.0.9-7.0.9~ubuntu23.04.1} date Tue Nov 28 15:59:05 2023
; FORMAT={3:3/ absolute / metric / suppress leading zeros}
; #@! TF.CreationDate,2023-11-28T15:59:05+00:00
; #@! TF.GenerationSoftware,Kicad,Pcbnew,7.0.9-7.0.9~ubuntu23.04.1
; #@! TF.FileFunction,Plated,1,2,PTH
FMAT,2
METRIC,TZ
; #@! TA.AperFunction,Plated,PTH,ViaDrill
T1C0.300
; #@! TA.AperFunction,Plated,PTH,ViaDrill
T2C0.400
; #@! TA.AperFunction,Plated,PTH,ComponentDrill
T3C0.500
; #@! TA.AperFunction,Plated,PTH,ComponentDrill
T4C0.600
; #@! TA.AperFunction,Plated,PTH,ComponentDrill
T5C0.750
; #@! TA.AperFunction,Plated,PTH,ComponentDrill
T6C1.020
; #@! TA.AperFunction,Plated,PTH,ComponentDrill
T7C1.600
; #@! TA.AperFunction,Plated,PTH,ComponentDrill
T8C3.000
%
G90
G05
T1
X19232Y10230
X20785Y4155
X22510Y6852
X24036Y12301
X26336Y50326
X27420Y8226
X27736Y12526
X27899Y50326
X28361Y21726
X28936Y56026
X29661Y31826
X29812Y40600
X29936Y16126
X30386Y41226
X31986Y61576
X32186Y37126
X32236Y50726
X32336Y35176
X32386Y48126
X32536Y51926
X32769Y48771
X33386Y53526
X33436Y48326
X33886Y43026
X33994Y44746
X34486Y39326
X34536Y24926
X34686Y44626
X34836Y56176
X34850Y49415
X35850Y45200
X36136Y64076
X36236Y42326
X37036Y51926
X37286Y54876
X37911Y35651
X38136Y41576
X38236Y45076
X38887Y35616
X39586Y35626
X40186Y57126
X40186Y51126
X40286Y35626
X40386Y20276
X40486Y23100
X40986Y35626
X40986Y53226
X41086Y38326
X41286Y29626
X41936Y40376
X42786Y24126
X42986Y19026
X43436Y37776
X43636Y53226
X43986Y57126
X44486Y32726
X44681Y28200
X44981Y39431
X44986Y40231
X45825Y64576
X45962Y15973
X46064Y13585
X46936Y52326
X47740Y16456
X47817Y13408
X48086Y49161
X48436Y50826
X48758Y48446
X50486Y49126
X51486Y48226
X52135Y26133
X52235Y46127
X53386Y25326
X54486Y46726
X55098Y48162
X55186Y22226
X56486Y24226
X56865Y49076
X57086Y42876
X57286Y45926
X57586Y53726
X58686Y34226
X59729Y26463
X59786Y35576
X61186Y31526
X61586Y41926
X62066Y28521
X62120Y40292
X63586Y28026
X64711Y39976
X67986Y53726
X68636Y82476
X68736Y39006
X70586Y63376
X71561Y62576
X71566Y58950
X72186Y66676
X72661Y29626
X73261Y82426
X73586Y42751
X73877Y53817
X73886Y51000
X74086Y37926
X74236Y41226
X74561Y62176
X74686Y58626
X74986Y53426
X75086Y37326
X75386Y57825
X75849Y53680
X76036Y43625
X76087Y36300
X76236Y63976
X76236Y61826
X76286Y54226
X76786Y36300
X77686Y54826
X78036Y63226
X78136Y66276
X78136Y61226
X78589Y56625
X78886Y35826
X79086Y52227
X79336Y56726
X79536Y56026
X80086Y55426
X80311Y37526
X80586Y60226
X81086Y42726
X81110Y52631
X81186Y58976
X81186Y53326
X81386Y41326
X81622Y47862
X82661Y37026
X82736Y16651
X82886Y54026
X84081Y60843
X84512Y47100
X84749Y60638
X84886Y47926
X84986Y42326
X85237Y30551
X85310Y47076
X85487Y60794
X85719Y50359
X85786Y49526
X86186Y58076
X86457Y51122
X86527Y50426
X86753Y16659
X86836Y26951
X86860Y61076
X87496Y67229
X87790Y45979
X88023Y53164
X88167Y51907
X88536Y38326
X88586Y65676
X88787Y37673
X88886Y82451
X88986Y39576
X89025Y51965
X89086Y57026
X89574Y47799
X90086Y16626
X90136Y51826
X90186Y41026
X90386Y72426
X90886Y52926
X90936Y16226
X91086Y58326
X91486Y57427
X92136Y51826
X92136Y45476
X92736Y45976
X92886Y13926
X92906Y28756
X93061Y82451
X93086Y54326
X93087Y57453
X93486Y41926
X93612Y63177
X93710Y13902
X93736Y40626
X93786Y58526
X94409Y13927
X94883Y48891
X95086Y54026
X95110Y54850
X95539Y62925
X95587Y49327
X95593Y48473
X95606Y60964
X95650Y63615
X95786Y47596
X96186Y52828
X96361Y63126
X97911Y61251
X98808Y62462
X98900Y63319
X99886Y46326
X101428Y56489
X101486Y60326
X103360Y46452
X103386Y47326
X103786Y64626
X105486Y60326
X105686Y56276
X107511Y71801
X111486Y71826
X111586Y59026
X115986Y51501
X116386Y60126
X117986Y61526
X118361Y48451
X118483Y62018
X120986Y51251
X124561Y59876
X125086Y60451
X125261Y56076
X125486Y70026
X125986Y65901
X125986Y63901
X126519Y68233
X127311Y28201
X127648Y71576
X129122Y57115
X129161Y58001
X129186Y50426
X129536Y56515
X130161Y45070
X130186Y45795
X130211Y43320
X130711Y55895
X131136Y69226
X131611Y66726
X134361Y69626
X134661Y44045
X134661Y41270
X134686Y46776
X134686Y23051
X134686Y20326
X134686Y16651
T2
X18650Y69800
X20232Y70405
X20283Y75028
X21756Y74266
X22866Y75826
X26290Y70909
X30113Y18183
X30486Y42426
X30661Y74381
X30773Y26946
X31307Y21459
X31486Y75256
X31535Y16405
X32186Y64626
X33786Y73126
X36600Y68000
X37336Y42926
X37504Y62176
X38419Y59585
X38774Y18716
X38786Y65826
X39485Y69592
X40578Y44472
X40603Y63700
X40628Y74698
X40628Y27632
X40882Y51990
X41009Y68475
X41086Y65826
X41924Y15846
X42178Y74215
X42965Y12006
X43566Y23406
X44032Y12006
X44134Y49857
X44786Y35726
X44986Y59726
X45124Y12006
X45986Y24526
X46486Y30926
X46836Y70761
X47080Y63471
X47786Y41426
X48248Y7591
X48886Y55476
X49849Y23491
X50486Y74106
X50586Y61871
X51186Y74806
X51311Y51651
X52414Y18183
X52686Y41876
X53176Y39163
X53686Y67426
X53887Y23720
X54000Y54826
X54186Y43726
X55186Y55326
X55386Y65926
X56186Y44826
X56961Y38020
X57494Y73377
X58256Y28775
X58891Y19656
X59145Y69770
X59186Y68326
X60415Y74723
X60491Y68627
X61736Y74444
X62066Y32940
X62586Y43126
X62752Y62836
X64386Y43694
X64657Y56791
X65486Y30526
X66486Y71066
X66663Y46478
X68186Y38026
X68391Y7413
X68949Y49069
X69636Y73786
X69636Y72836
X69915Y66646
X70286Y34326
X70448Y30578
X70486Y70326
X71007Y53590
X73136Y46376
X74086Y49126
X74893Y20799
X76686Y47626
X77886Y39826
X78449Y28317
X83021Y32356
X83686Y49526
X83910Y15109
X85383Y13433
X86780Y9801
X88203Y29410
X89346Y64208
X89437Y35976
X94186Y32226
X98186Y34976
X98786Y48626
X99887Y67026
X100186Y56826
X100886Y65626
X100953Y42516
X102706Y76247
X103747Y22628
X104027Y31873
X104332Y39824
X104386Y48926
X104890Y56791
X104986Y61826
X106567Y14678
X107186Y57026
X107186Y56029
X109386Y43046
X109386Y41826
X110586Y58026
X111520Y64944
X112129Y43913
X112886Y49226
X116219Y29968
X117692Y11096
X117786Y53726
X118036Y68876
X118810Y22653
X119699Y75079
X119836Y67151
X120130Y62988
X120257Y37512
X123991Y6550
X125566Y28063
X126049Y57959
X127600Y34350
X127715Y66314
X127750Y36750
X127986Y70626
X128048Y68756
X128048Y67257
T5
X13436Y47926
X13436Y45926
X13436Y43926
X13436Y41926
X13436Y39926
X13436Y37926
X15436Y47926
X15436Y45926
X15436Y43926
X15436Y41926
X15436Y39926
X15436Y37926
X17436Y47926
X17436Y45926
X17436Y43926
X17436Y41926
X17436Y39926
X17436Y37926
X19436Y47926
X19436Y45926
X19436Y43926
X19436Y41926
X19436Y39926
X19436Y37926
X21436Y47926
X21436Y45926
X21436Y43926
X21436Y41926
X21436Y39926
X21436Y37926
T6
X14036Y61356
X14036Y58356
X14036Y55856
X14036Y52856
X14036Y32646
X14036Y29646
X14036Y27146
X14036Y24146
X16536Y61356
X16536Y58356
X16536Y55856
X16536Y52856
X16536Y32646
X16536Y29646
X16536Y27146
X16536Y24146
X19036Y61356
X19036Y58356
X19036Y55856
X19036Y52856
X19036Y32646
X19036Y29646
X19036Y27146
X19036Y24146
X21536Y61356
X21536Y58356
X21536Y55856
X21536Y52856
X21536Y32646
X21536Y29646
X21536Y27146
X21536Y24146
X24036Y61356
X24036Y58356
X24036Y55856
X24036Y52856
X24036Y32646
X24036Y29646
X24036Y27146
X24036Y24146
T7
X36486Y79226
X36486Y6626
X55786Y79226
X55786Y6626
X77486Y79176
X77486Y6676
X96786Y79176
X96786Y6676
X116086Y79176
X116086Y6676
T8
X9906Y78486
X9906Y7366
X131826Y78486
X131826Y7366
T3
G00X129536Y37651
M15
G01X129936Y37651
M16
G05
G00X129536Y33401
M15
G01X129936Y33401
M16
G05
G00X129636Y30301
M15
G01X130036Y30301
M16
G05
G00X129636Y26051
M15
G01X130036Y26051
M16
G05
T4
G00X130506Y72576
M15
G01X129406Y72576
M16
G05
G00X130506Y63936
M15
G01X129406Y63936
M16
G05
G00X134536Y72576
M15
G01X133736Y72576
M16
G05
G00X134536Y63936
M15
G01X133736Y63936
M16
G05
T0
M30
