%TF.GenerationSoftware,KiCad,Pcbnew,7.0.8-7.0.8~ubuntu23.04.1*%
%TF.CreationDate,2023-11-19T12:40:42+00:00*%
%TF.ProjectId,BATDATUNIT01,42415444-4154-4554-9e49-5430312e6b69,01A*%
%TF.SameCoordinates,Original*%
%TF.FileFunction,Soldermask,Bot*%
%TF.FilePolarity,Negative*%
%FSLAX46Y46*%
G04 Gerber Fmt 4.6, Leading zero omitted, Abs format (unit mm)*
G04 Created by KiCad (PCBNEW 7.0.8-7.0.8~ubuntu23.04.1) date 2023-11-19 12:40:42*
%MOMM*%
%LPD*%
G01*
G04 APERTURE LIST*
G04 Aperture macros list*
%AMRoundRect*
0 Rectangle with rounded corners*
0 $1 Rounding radius*
0 $2 $3 $4 $5 $6 $7 $8 $9 X,Y pos of 4 corners*
0 Add a 4 corners polygon primitive as box body*
4,1,4,$2,$3,$4,$5,$6,$7,$8,$9,$2,$3,0*
0 Add four circle primitives for the rounded corners*
1,1,$1+$1,$2,$3*
1,1,$1+$1,$4,$5*
1,1,$1+$1,$6,$7*
1,1,$1+$1,$8,$9*
0 Add four rect primitives between the rounded corners*
20,1,$1+$1,$2,$3,$4,$5,0*
20,1,$1+$1,$4,$5,$6,$7,0*
20,1,$1+$1,$6,$7,$8,$9,0*
20,1,$1+$1,$8,$9,$2,$3,0*%
%AMRotRect*
0 Rectangle, with rotation*
0 The origin of the aperture is its center*
0 $1 length*
0 $2 width*
0 $3 Rotation angle, in degrees counterclockwise*
0 Add horizontal line*
21,1,$1,$2,0,0,$3*%
%AMFreePoly0*
4,1,19,0.500000,-0.750000,0.000000,-0.750000,0.000000,-0.744911,-0.071157,-0.744911,-0.207708,-0.704816,-0.327430,-0.627875,-0.420627,-0.520320,-0.479746,-0.390866,-0.500000,-0.250000,-0.500000,0.250000,-0.479746,0.390866,-0.420627,0.520320,-0.327430,0.627875,-0.207708,0.704816,-0.071157,0.744911,0.000000,0.744911,0.000000,0.750000,0.500000,0.750000,0.500000,-0.750000,0.500000,-0.750000,
$1*%
%AMFreePoly1*
4,1,19,0.000000,0.744911,0.071157,0.744911,0.207708,0.704816,0.327430,0.627875,0.420627,0.520320,0.479746,0.390866,0.500000,0.250000,0.500000,-0.250000,0.479746,-0.390866,0.420627,-0.520320,0.327430,-0.627875,0.207708,-0.704816,0.071157,-0.744911,0.000000,-0.744911,0.000000,-0.750000,-0.500000,-0.750000,-0.500000,0.750000,0.000000,0.750000,0.000000,0.744911,0.000000,0.744911,
$1*%
%AMFreePoly2*
4,1,19,0.550000,-0.750000,0.000000,-0.750000,0.000000,-0.744911,-0.071157,-0.744911,-0.207708,-0.704816,-0.327430,-0.627875,-0.420627,-0.520320,-0.479746,-0.390866,-0.500000,-0.250000,-0.500000,0.250000,-0.479746,0.390866,-0.420627,0.520320,-0.327430,0.627875,-0.207708,0.704816,-0.071157,0.744911,0.000000,0.744911,0.000000,0.750000,0.550000,0.750000,0.550000,-0.750000,0.550000,-0.750000,
$1*%
%AMFreePoly3*
4,1,19,0.000000,0.744911,0.071157,0.744911,0.207708,0.704816,0.327430,0.627875,0.420627,0.520320,0.479746,0.390866,0.500000,0.250000,0.500000,-0.250000,0.479746,-0.390866,0.420627,-0.520320,0.327430,-0.627875,0.207708,-0.704816,0.071157,-0.744911,0.000000,-0.744911,0.000000,-0.750000,-0.550000,-0.750000,-0.550000,0.750000,0.000000,0.750000,0.000000,0.744911,0.000000,0.744911,
$1*%
%AMFreePoly4*
4,1,6,0.500000,-0.850000,-0.200000,-0.850000,-0.500000,-0.550000,-0.500000,0.850000,0.500000,0.850000,0.500000,-0.850000,0.500000,-0.850000,$1*%
G04 Aperture macros list end*
%ADD10C,3.200000*%
%ADD11R,4.000000X4.000000*%
%ADD12C,6.000000*%
%ADD13O,1.300000X0.900000*%
%ADD14C,1.300000*%
%ADD15C,1.620000*%
%ADD16RoundRect,0.250000X0.450000X-0.262500X0.450000X0.262500X-0.450000X0.262500X-0.450000X-0.262500X0*%
%ADD17RoundRect,0.250000X-0.262500X-0.450000X0.262500X-0.450000X0.262500X0.450000X-0.262500X0.450000X0*%
%ADD18R,0.950000X0.550000*%
%ADD19RoundRect,0.250000X0.475000X-0.250000X0.475000X0.250000X-0.475000X0.250000X-0.475000X-0.250000X0*%
%ADD20RoundRect,0.150000X0.150000X-0.512500X0.150000X0.512500X-0.150000X0.512500X-0.150000X-0.512500X0*%
%ADD21RoundRect,0.250000X0.375000X0.850000X-0.375000X0.850000X-0.375000X-0.850000X0.375000X-0.850000X0*%
%ADD22RoundRect,0.250000X-0.503814X-0.132583X-0.132583X-0.503814X0.503814X0.132583X0.132583X0.503814X0*%
%ADD23R,1.550000X1.150000*%
%ADD24R,1.550000X1.050000*%
%ADD25RoundRect,0.050000X-0.100000X0.285000X-0.100000X-0.285000X0.100000X-0.285000X0.100000X0.285000X0*%
%ADD26RoundRect,0.150000X-0.512500X-0.150000X0.512500X-0.150000X0.512500X0.150000X-0.512500X0.150000X0*%
%ADD27RoundRect,0.250000X-0.450000X0.262500X-0.450000X-0.262500X0.450000X-0.262500X0.450000X0.262500X0*%
%ADD28R,3.810000X3.330000*%
%ADD29RoundRect,0.250000X-0.362500X-1.425000X0.362500X-1.425000X0.362500X1.425000X-0.362500X1.425000X0*%
%ADD30RoundRect,0.087500X0.437500X0.087500X-0.437500X0.087500X-0.437500X-0.087500X0.437500X-0.087500X0*%
%ADD31RoundRect,0.087500X0.087500X0.437500X-0.087500X0.437500X-0.087500X-0.437500X0.087500X-0.437500X0*%
%ADD32R,2.700000X2.700000*%
%ADD33RoundRect,0.250000X0.250000X0.475000X-0.250000X0.475000X-0.250000X-0.475000X0.250000X-0.475000X0*%
%ADD34C,0.650000*%
%ADD35R,1.150000X0.600000*%
%ADD36R,1.150000X0.300000*%
%ADD37O,2.000000X1.000000*%
%ADD38O,2.100000X1.050000*%
%ADD39RoundRect,0.250000X-0.325000X-0.450000X0.325000X-0.450000X0.325000X0.450000X-0.325000X0.450000X0*%
%ADD40R,1.050000X0.300000*%
%ADD41C,1.500000*%
%ADD42C,2.000000*%
%ADD43RoundRect,0.250000X0.850000X-0.375000X0.850000X0.375000X-0.850000X0.375000X-0.850000X-0.375000X0*%
%ADD44RoundRect,0.250000X-0.475000X0.250000X-0.475000X-0.250000X0.475000X-0.250000X0.475000X0.250000X0*%
%ADD45RoundRect,0.250000X-0.250000X-0.475000X0.250000X-0.475000X0.250000X0.475000X-0.250000X0.475000X0*%
%ADD46RoundRect,0.250000X0.262500X0.450000X-0.262500X0.450000X-0.262500X-0.450000X0.262500X-0.450000X0*%
%ADD47FreePoly0,90.000000*%
%ADD48FreePoly1,90.000000*%
%ADD49RotRect,1.400000X1.200000X315.000000*%
%ADD50R,0.250000X0.500000*%
%ADD51R,1.600000X0.900000*%
%ADD52FreePoly2,180.000000*%
%ADD53R,1.000000X1.500000*%
%ADD54FreePoly3,180.000000*%
%ADD55RoundRect,0.150000X0.150000X-0.825000X0.150000X0.825000X-0.150000X0.825000X-0.150000X-0.825000X0*%
%ADD56R,0.450000X1.450000*%
%ADD57C,1.000000*%
%ADD58R,1.600000X1.200000*%
%ADD59R,5.000000X2.500000*%
%ADD60FreePoly2,90.000000*%
%ADD61R,1.500000X1.000000*%
%ADD62FreePoly3,90.000000*%
%ADD63RoundRect,0.062500X0.062500X-0.337500X0.062500X0.337500X-0.062500X0.337500X-0.062500X-0.337500X0*%
%ADD64RoundRect,0.062500X0.337500X-0.062500X0.337500X0.062500X-0.337500X0.062500X-0.337500X-0.062500X0*%
%ADD65R,3.350000X3.350000*%
%ADD66RoundRect,0.150000X0.150000X-0.587500X0.150000X0.587500X-0.150000X0.587500X-0.150000X-0.587500X0*%
%ADD67RoundRect,0.050000X-0.337500X0.050000X-0.337500X-0.050000X0.337500X-0.050000X0.337500X0.050000X0*%
%ADD68RoundRect,0.050000X0.050000X0.337500X-0.050000X0.337500X-0.050000X-0.337500X0.050000X-0.337500X0*%
%ADD69RoundRect,0.050000X-0.262500X0.050000X-0.262500X-0.050000X0.262500X-0.050000X0.262500X0.050000X0*%
%ADD70RoundRect,0.050000X0.337500X-0.050000X0.337500X0.050000X-0.337500X0.050000X-0.337500X-0.050000X0*%
%ADD71RoundRect,0.050000X-0.050000X-0.262500X0.050000X-0.262500X0.050000X0.262500X-0.050000X0.262500X0*%
%ADD72RoundRect,0.050000X-0.050000X-0.450000X0.050000X-0.450000X0.050000X0.450000X-0.050000X0.450000X0*%
%ADD73RoundRect,0.050000X-0.050000X-0.337500X0.050000X-0.337500X0.050000X0.337500X-0.050000X0.337500X0*%
%ADD74RoundRect,0.050000X0.362500X-0.050000X0.362500X0.050000X-0.362500X0.050000X-0.362500X-0.050000X0*%
%ADD75RoundRect,0.050000X-0.362500X0.050000X-0.362500X-0.050000X0.362500X-0.050000X0.362500X0.050000X0*%
%ADD76R,2.500000X3.050000*%
%ADD77R,0.250000X0.550000*%
%ADD78FreePoly4,270.000000*%
%ADD79FreePoly0,180.000000*%
%ADD80FreePoly1,180.000000*%
%ADD81RoundRect,0.250000X-0.512652X-0.159099X-0.159099X-0.512652X0.512652X0.159099X0.159099X0.512652X0*%
%ADD82RoundRect,0.250000X0.250000X-0.200000X0.250000X0.200000X-0.250000X0.200000X-0.250000X-0.200000X0*%
%ADD83RotRect,1.000000X1.800000X135.000000*%
%ADD84RoundRect,0.150000X0.587500X0.150000X-0.587500X0.150000X-0.587500X-0.150000X0.587500X-0.150000X0*%
%ADD85R,1.100000X0.250000*%
%ADD86R,1.524000X1.524000*%
%ADD87RoundRect,0.250000X0.159099X-0.512652X0.512652X-0.159099X-0.159099X0.512652X-0.512652X0.159099X0*%
%ADD88R,0.850000X0.200000*%
%ADD89R,0.200000X0.850000*%
%ADD90R,3.600000X3.600000*%
%ADD91RoundRect,0.100000X0.100000X-0.637500X0.100000X0.637500X-0.100000X0.637500X-0.100000X-0.637500X0*%
%ADD92R,1.500000X0.550000*%
%ADD93R,0.550000X1.500000*%
G04 APERTURE END LIST*
D10*
%TO.C,BT1*%
X36486000Y15116000D03*
X55786000Y15116000D03*
X36486000Y70736000D03*
X55786000Y70736000D03*
D11*
X36486000Y6626000D03*
X36486000Y79226000D03*
X55786000Y6626000D03*
X55786000Y79226000D03*
%TD*%
D12*
%TO.C,H2*%
X131826000Y78486000D03*
%TD*%
D13*
%TO.C,SW4*%
X129736000Y33401000D03*
X129736000Y37651000D03*
%TD*%
D12*
%TO.C,H1*%
X9906000Y78486000D03*
%TD*%
D10*
%TO.C,BT2*%
X77486000Y15121000D03*
X96786000Y15121000D03*
X116086000Y15121000D03*
X77486000Y70731000D03*
X96786000Y70731000D03*
X116086000Y70731000D03*
D11*
X77486000Y6676000D03*
X77486000Y79176000D03*
X96786000Y6676000D03*
X96786000Y79176000D03*
X116086000Y6676000D03*
X116086000Y79176000D03*
%TD*%
D12*
%TO.C,H4*%
X131826000Y7366000D03*
%TD*%
%TO.C,H3*%
X9906000Y7366000D03*
%TD*%
D10*
%TO.C,J4*%
X19036000Y66856000D03*
X19036000Y18646000D03*
D14*
X13436000Y37926000D03*
X13436000Y39926000D03*
X13436000Y41926000D03*
X13436000Y43926000D03*
X13436000Y45926000D03*
X13436000Y47926000D03*
X15436000Y37926000D03*
X15436000Y39926000D03*
X15436000Y41926000D03*
X15436000Y43926000D03*
X15436000Y45926000D03*
X15436000Y47926000D03*
X17436000Y37926000D03*
X17436000Y39926000D03*
X17436000Y41926000D03*
X17436000Y43926000D03*
X17436000Y45926000D03*
X17436000Y47926000D03*
X19436000Y37926000D03*
X19436000Y39926000D03*
X19436000Y41926000D03*
X19436000Y43926000D03*
X19436000Y45926000D03*
X19436000Y47926000D03*
X21436000Y37926000D03*
X21436000Y39926000D03*
X21436000Y41926000D03*
X21436000Y43926000D03*
X21436000Y45926000D03*
X21436000Y47926000D03*
D15*
X24036000Y27146000D03*
X21536000Y27146000D03*
X19036000Y27146000D03*
X16536000Y27146000D03*
X14036000Y27146000D03*
X24036000Y24146000D03*
X21536000Y24146000D03*
X19036000Y24146000D03*
X16536000Y24146000D03*
X14036000Y24146000D03*
X24036000Y32646000D03*
X21536000Y32646000D03*
X19036000Y32646000D03*
X16536000Y32646000D03*
X14036000Y32646000D03*
X24036000Y29646000D03*
X21536000Y29646000D03*
X19036000Y29646000D03*
X16536000Y29646000D03*
X14036000Y29646000D03*
X24036000Y55856000D03*
X21536000Y55856000D03*
X19036000Y55856000D03*
X16536000Y55856000D03*
X14036000Y55856000D03*
X24036000Y52856000D03*
X21536000Y52856000D03*
X19036000Y52856000D03*
X16536000Y52856000D03*
X14036000Y52856000D03*
X24036000Y61356000D03*
X21536000Y61356000D03*
X19036000Y61356000D03*
X16536000Y61356000D03*
X14036000Y61356000D03*
X24036000Y58356000D03*
X21536000Y58356000D03*
X19036000Y58356000D03*
X16536000Y58356000D03*
X14036000Y58356000D03*
%TD*%
D13*
%TO.C,SW1*%
X129836000Y26051000D03*
X129836000Y30301000D03*
%TD*%
D16*
%TO.C,R33*%
X84786000Y17213500D03*
X84786000Y19038500D03*
%TD*%
D17*
%TO.C,R9*%
X93573500Y28726000D03*
X95398500Y28726000D03*
%TD*%
D18*
%TO.C,U9*%
X25659750Y7704750D03*
X25659750Y6454750D03*
X25659750Y5204750D03*
X25659750Y3954750D03*
X23509750Y3954750D03*
X23509750Y5204750D03*
X23509750Y6454750D03*
X23509750Y7704750D03*
%TD*%
D19*
%TO.C,C37*%
X61736000Y73266000D03*
X61736000Y75166000D03*
%TD*%
D20*
%TO.C,Q2*%
X89469330Y20888500D03*
X87569330Y20888500D03*
X88519330Y23163500D03*
%TD*%
D21*
%TO.C,L3*%
X46261000Y73711000D03*
X44111000Y73711000D03*
%TD*%
D22*
%TO.C,R35*%
X50940765Y29271235D03*
X52231235Y27980765D03*
%TD*%
D23*
%TO.C,SW2*%
X32986000Y53651000D03*
X36786000Y53651000D03*
X32986000Y56051000D03*
D24*
X36786000Y56051000D03*
%TD*%
D25*
%TO.C,U17*%
X24086000Y71658500D03*
X24586000Y71658500D03*
X25086000Y71658500D03*
X25586000Y71658500D03*
X25586000Y70178500D03*
X25086000Y70178500D03*
X24586000Y70178500D03*
X24086000Y70178500D03*
%TD*%
D26*
%TO.C,U2*%
X123711000Y67276000D03*
X123711000Y68226000D03*
X123711000Y69176000D03*
X125986000Y69176000D03*
X125986000Y68226000D03*
X125986000Y67276000D03*
%TD*%
D27*
%TO.C,R12*%
X101537600Y56357100D03*
X101537600Y54532100D03*
%TD*%
D28*
%TO.C,F3*%
X81886000Y11926000D03*
X81886000Y6106000D03*
%TD*%
D29*
%TO.C,R52*%
X80923500Y80126000D03*
X86848500Y80126000D03*
%TD*%
D30*
%TO.C,U4*%
X67036000Y41181000D03*
X67036000Y40381000D03*
X67036000Y39581000D03*
X67036000Y38781000D03*
D31*
X65911000Y37656000D03*
X65111000Y37656000D03*
X64311000Y37656000D03*
X63511000Y37656000D03*
D30*
X62386000Y38781000D03*
X62386000Y39581000D03*
X62386000Y40381000D03*
X62386000Y41181000D03*
D31*
X63511000Y42306000D03*
X64311000Y42306000D03*
X65111000Y42306000D03*
X65911000Y42306000D03*
D32*
X64711000Y39981000D03*
%TD*%
D33*
%TO.C,C14*%
X29100000Y42826000D03*
X27200000Y42826000D03*
%TD*%
%TO.C,C33*%
X122686000Y56951000D03*
X120786000Y56951000D03*
%TD*%
D34*
%TO.C,J1*%
X130318500Y71146000D03*
X130318500Y65366000D03*
D35*
X129243500Y71456000D03*
X129243500Y70656000D03*
D36*
X129243500Y69506000D03*
X129243500Y68506000D03*
X129243500Y68006000D03*
X129243500Y67006000D03*
D35*
X129243500Y65056000D03*
X129243500Y65856000D03*
D36*
X129243500Y66506000D03*
X129243500Y67506000D03*
X129243500Y69006000D03*
X129243500Y70006000D03*
D37*
X133998500Y72576000D03*
X133998500Y63936000D03*
D38*
X129818500Y72576000D03*
X129818500Y63936000D03*
%TD*%
D39*
%TO.C,L5*%
X87111000Y35026000D03*
X89161000Y35026000D03*
%TD*%
D33*
%TO.C,C43*%
X84436000Y29576000D03*
X82536000Y29576000D03*
%TD*%
D19*
%TO.C,C24*%
X91086000Y65276000D03*
X91086000Y67176000D03*
%TD*%
D40*
%TO.C,U7*%
X56186000Y48976000D03*
X56186000Y48476000D03*
X56186000Y47976000D03*
X56186000Y47476000D03*
X56186000Y46976000D03*
X56186000Y46476000D03*
X56186000Y45976000D03*
X56186000Y45476000D03*
X53186000Y45476000D03*
X53186000Y45976000D03*
X53186000Y46476000D03*
X53186000Y46976000D03*
X53186000Y47476000D03*
X53186000Y47976000D03*
X53186000Y48476000D03*
X53186000Y48976000D03*
%TD*%
D41*
%TO.C,TP2*%
X69136000Y42326000D03*
%TD*%
D16*
%TO.C,R45*%
X105586000Y71338500D03*
X105586000Y73163500D03*
%TD*%
%TO.C,R61*%
X50436000Y68536000D03*
X50436000Y70361000D03*
%TD*%
D42*
%TO.C,FID2*%
X49286000Y15926000D03*
%TD*%
D43*
%TO.C,L1*%
X100686000Y62651000D03*
X100686000Y64801000D03*
%TD*%
D44*
%TO.C,C18*%
X27486000Y7529750D03*
X27486000Y5629750D03*
%TD*%
D27*
%TO.C,R75*%
X94236000Y57638500D03*
X94236000Y55813500D03*
%TD*%
D16*
%TO.C,R25*%
X88719332Y17213500D03*
X88719332Y19038500D03*
%TD*%
D44*
%TO.C,C3*%
X96786000Y48626000D03*
X96786000Y46726000D03*
%TD*%
D45*
%TO.C,C5*%
X79336000Y32926000D03*
X81236000Y32926000D03*
%TD*%
D46*
%TO.C,R26*%
X85186000Y38726000D03*
X83361000Y38726000D03*
%TD*%
D47*
%TO.C,JP5*%
X64986000Y67366000D03*
D48*
X64986000Y68666000D03*
%TD*%
D44*
%TO.C,C9*%
X47326000Y61826000D03*
X47326000Y59926000D03*
%TD*%
D45*
%TO.C,C47*%
X31986000Y60516000D03*
X33886000Y60516000D03*
%TD*%
D17*
%TO.C,R72*%
X28836000Y52326000D03*
X30661000Y52326000D03*
%TD*%
D27*
%TO.C,R37*%
X58986000Y53938500D03*
X58986000Y52113500D03*
%TD*%
D42*
%TO.C,FID1*%
X29286000Y61926000D03*
%TD*%
D19*
%TO.C,C19*%
X35486000Y24956000D03*
X35486000Y26856000D03*
%TD*%
D27*
%TO.C,R2*%
X67186000Y59988500D03*
X67186000Y58163500D03*
%TD*%
%TO.C,R36*%
X54386000Y53988500D03*
X54386000Y52163500D03*
%TD*%
D20*
%TO.C,Q7*%
X111211000Y74926000D03*
X109311000Y74926000D03*
X110261000Y77201000D03*
%TD*%
D49*
%TO.C,Y1*%
X50013081Y42633081D03*
X51568716Y41077446D03*
X50366635Y39875365D03*
X48811000Y41431000D03*
%TD*%
D27*
%TO.C,R11*%
X101536000Y59893500D03*
X101536000Y58068500D03*
%TD*%
D19*
%TO.C,C26*%
X82286000Y71876000D03*
X82286000Y73776000D03*
%TD*%
D50*
%TO.C,U18*%
X86336000Y31276000D03*
X85836000Y31276000D03*
X85336000Y31276000D03*
X84836000Y31276000D03*
X84836000Y33176000D03*
X85336000Y33176000D03*
X85836000Y33176000D03*
X86336000Y33176000D03*
D51*
X85586000Y32226000D03*
%TD*%
D17*
%TO.C,R8*%
X93573500Y30676000D03*
X95398500Y30676000D03*
%TD*%
D16*
%TO.C,R64*%
X48236000Y68548500D03*
X48236000Y70373500D03*
%TD*%
%TO.C,R46*%
X109511000Y71313500D03*
X109511000Y73138500D03*
%TD*%
D46*
%TO.C,R5*%
X95398500Y43726000D03*
X93573500Y43726000D03*
%TD*%
D21*
%TO.C,L2*%
X65811000Y73866000D03*
X63661000Y73866000D03*
%TD*%
D52*
%TO.C,JP1*%
X80600000Y53300000D03*
D53*
X79300000Y53300000D03*
D54*
X78000000Y53300000D03*
%TD*%
D20*
%TO.C,Q6*%
X107711000Y74951000D03*
X105811000Y74951000D03*
X106761000Y77226000D03*
%TD*%
D44*
%TO.C,C25*%
X84786000Y59556000D03*
X84786000Y57656000D03*
%TD*%
D17*
%TO.C,R7*%
X93573500Y37626000D03*
X95398500Y37626000D03*
%TD*%
D46*
%TO.C,R22*%
X30686000Y50326000D03*
X28861000Y50326000D03*
%TD*%
D16*
%TO.C,R76*%
X23986000Y35413500D03*
X23986000Y37238500D03*
%TD*%
%TO.C,R41*%
X107511000Y71338500D03*
X107511000Y73163500D03*
%TD*%
%TO.C,R28*%
X86752666Y17213500D03*
X86752666Y19038500D03*
%TD*%
D27*
%TO.C,R47*%
X91022000Y63596100D03*
X91022000Y61771100D03*
%TD*%
D55*
%TO.C,U5*%
X47791000Y21701000D03*
X46521000Y21701000D03*
X45251000Y21701000D03*
X43981000Y21701000D03*
X43981000Y26651000D03*
X45251000Y26651000D03*
X46521000Y26651000D03*
X47791000Y26651000D03*
%TD*%
D56*
%TO.C,U10*%
X29661000Y30726000D03*
X29011000Y30726000D03*
X28361000Y30726000D03*
X27711000Y30726000D03*
X27711000Y35126000D03*
X28361000Y35126000D03*
X29011000Y35126000D03*
X29661000Y35126000D03*
%TD*%
D57*
%TO.C,TP1*%
X85086000Y40826000D03*
%TD*%
D46*
%TO.C,R6*%
X95398500Y41726000D03*
X93573500Y41726000D03*
%TD*%
D16*
%TO.C,R16*%
X82819334Y17213500D03*
X82819334Y19038500D03*
%TD*%
D20*
%TO.C,Q1*%
X82535998Y20888500D03*
X80635998Y20888500D03*
X81585998Y23163500D03*
%TD*%
D27*
%TO.C,R71*%
X22286000Y68106000D03*
X22286000Y66281000D03*
%TD*%
D17*
%TO.C,R74*%
X32003500Y62546000D03*
X33828500Y62546000D03*
%TD*%
D23*
%TO.C,SW3*%
X43986000Y56051000D03*
X40186000Y56051000D03*
X43986000Y53651000D03*
D24*
X40186000Y53651000D03*
%TD*%
D27*
%TO.C,R70*%
X22286000Y71531000D03*
X22286000Y69706000D03*
%TD*%
D58*
%TO.C,J2*%
X97186000Y27441000D03*
X97186000Y29941000D03*
X97186000Y32441000D03*
X97186000Y34941000D03*
X97186000Y37441000D03*
X97186000Y39941000D03*
X97186000Y42371000D03*
X97186000Y44171000D03*
X97186000Y24941000D03*
D59*
X100686000Y48056000D03*
X100686000Y17606000D03*
X124886000Y17606000D03*
X130886000Y48056000D03*
%TD*%
D44*
%TO.C,C40*%
X60536000Y71716000D03*
X60536000Y69816000D03*
%TD*%
D45*
%TO.C,C6*%
X79336000Y35026000D03*
X81236000Y35026000D03*
%TD*%
D33*
%TO.C,C29*%
X97036000Y59801000D03*
X95136000Y59801000D03*
%TD*%
D16*
%TO.C,R21*%
X71786000Y42093500D03*
X71786000Y43918500D03*
%TD*%
%TO.C,R23*%
X73736000Y42093500D03*
X73736000Y43918500D03*
%TD*%
D45*
%TO.C,C11*%
X51886000Y55826000D03*
X53786000Y55826000D03*
%TD*%
D17*
%TO.C,R3*%
X126536000Y62076000D03*
X128361000Y62076000D03*
%TD*%
D19*
%TO.C,C36*%
X27836000Y71918500D03*
X27836000Y73818500D03*
%TD*%
D33*
%TO.C,C44*%
X85436000Y35026000D03*
X83536000Y35026000D03*
%TD*%
%TO.C,C4*%
X125436000Y71076000D03*
X123536000Y71076000D03*
%TD*%
D19*
%TO.C,C38*%
X42186000Y73061000D03*
X42186000Y74961000D03*
%TD*%
D16*
%TO.C,R44*%
X89167800Y57713500D03*
X89167800Y59538500D03*
%TD*%
%TO.C,R24*%
X80852668Y17213500D03*
X80852668Y19038500D03*
%TD*%
D33*
%TO.C,C45*%
X95461000Y35626000D03*
X93561000Y35626000D03*
%TD*%
D44*
%TO.C,C2*%
X88686000Y44251000D03*
X88686000Y42351000D03*
%TD*%
D60*
%TO.C,JP9*%
X91936000Y55426000D03*
D61*
X91936000Y56726000D03*
D62*
X91936000Y58026000D03*
%TD*%
D16*
%TO.C,R13*%
X75586000Y32687500D03*
X75586000Y34512500D03*
%TD*%
D28*
%TO.C,F2*%
X60186000Y11936000D03*
X60186000Y6116000D03*
%TD*%
D63*
%TO.C,U3*%
X79386000Y37356000D03*
X78886000Y37356000D03*
X78386000Y37356000D03*
X77886000Y37356000D03*
X77386000Y37356000D03*
X76886000Y37356000D03*
X76386000Y37356000D03*
D64*
X75436000Y38306000D03*
X75436000Y38806000D03*
X75436000Y39306000D03*
X75436000Y39806000D03*
X75436000Y40306000D03*
X75436000Y40806000D03*
X75436000Y41306000D03*
D63*
X76386000Y42256000D03*
X76886000Y42256000D03*
X77386000Y42256000D03*
X77886000Y42256000D03*
X78386000Y42256000D03*
X78886000Y42256000D03*
X79386000Y42256000D03*
D64*
X80336000Y41306000D03*
X80336000Y40806000D03*
X80336000Y40306000D03*
X80336000Y39806000D03*
X80336000Y39306000D03*
X80336000Y38806000D03*
X80336000Y38306000D03*
D65*
X77886000Y39806000D03*
%TD*%
D66*
%TO.C,D16*%
X30636000Y54338500D03*
X28736000Y54338500D03*
X29686000Y56213500D03*
%TD*%
D16*
%TO.C,R50*%
X93155600Y64666700D03*
X93155600Y66491700D03*
%TD*%
D17*
%TO.C,R4*%
X123573500Y73026000D03*
X125398500Y73026000D03*
%TD*%
D16*
%TO.C,R39*%
X31536000Y32263500D03*
X31536000Y34088500D03*
%TD*%
D33*
%TO.C,C46*%
X95486000Y33601000D03*
X93586000Y33601000D03*
%TD*%
D21*
%TO.C,L4*%
X25886000Y73668500D03*
X23736000Y73668500D03*
%TD*%
D46*
%TO.C,R30*%
X30686000Y48326000D03*
X28861000Y48326000D03*
%TD*%
D56*
%TO.C,U12*%
X86736000Y62076000D03*
X86086000Y62076000D03*
X85436000Y62076000D03*
X84786000Y62076000D03*
X84136000Y62076000D03*
X83486000Y62076000D03*
X82836000Y62076000D03*
X82836000Y67976000D03*
X83486000Y67976000D03*
X84136000Y67976000D03*
X84786000Y67976000D03*
X85436000Y67976000D03*
X86086000Y67976000D03*
X86736000Y67976000D03*
%TD*%
D16*
%TO.C,R15*%
X77586000Y32687500D03*
X77586000Y34512500D03*
%TD*%
D42*
%TO.C,FID3*%
X113286000Y61926000D03*
%TD*%
D67*
%TO.C,U13*%
X94838500Y62376000D03*
D68*
X95126000Y62088500D03*
D69*
X94823500Y62919000D03*
X94813500Y63319000D03*
X94813500Y63719000D03*
D68*
X95126000Y64563500D03*
D70*
X94838500Y64276000D03*
D71*
X95576000Y64538500D03*
X95976000Y64538500D03*
D72*
X96376000Y64356000D03*
X96776000Y64356000D03*
D73*
X97276000Y64563500D03*
D74*
X97588500Y64276000D03*
D69*
X97583500Y63719000D03*
X97583500Y63319000D03*
X97583500Y62919000D03*
D73*
X97276000Y62088500D03*
D75*
X97588500Y62376000D03*
D72*
X96776000Y62196000D03*
X96376000Y62196000D03*
X95976000Y62196000D03*
D71*
X95576000Y62016000D03*
%TD*%
D19*
%TO.C,C15*%
X19486000Y4179750D03*
X19486000Y6079750D03*
%TD*%
D27*
%TO.C,R69*%
X42986000Y68023500D03*
X42986000Y66198500D03*
%TD*%
%TO.C,R66*%
X62536000Y71678500D03*
X62536000Y69853500D03*
%TD*%
D46*
%TO.C,R78*%
X57698500Y22226000D03*
X55873500Y22226000D03*
%TD*%
D16*
%TO.C,R19*%
X67886000Y44443500D03*
X67886000Y46268500D03*
%TD*%
D76*
%TO.C,BZ1*%
X69036000Y18001000D03*
X69036000Y26451000D03*
%TD*%
D16*
%TO.C,R29*%
X92652668Y17213500D03*
X92652668Y19038500D03*
%TD*%
D77*
%TO.C,U6*%
X16134750Y6329750D03*
X16634750Y6329750D03*
X17134750Y6329750D03*
X17634750Y6329750D03*
X17634750Y3979750D03*
X17134750Y3979750D03*
X16634750Y3979750D03*
X16134750Y3979750D03*
D78*
X16884750Y5154750D03*
%TD*%
D19*
%TO.C,C39*%
X21736000Y73106000D03*
X21736000Y75006000D03*
%TD*%
%TO.C,C34*%
X67736000Y71966000D03*
X67736000Y73866000D03*
%TD*%
D47*
%TO.C,JP7*%
X45486000Y67211000D03*
D48*
X45486000Y68511000D03*
%TD*%
D19*
%TO.C,C1*%
X83586000Y48176000D03*
X83586000Y50076000D03*
%TD*%
D79*
%TO.C,JP8*%
X45186000Y18876000D03*
D80*
X43886000Y18876000D03*
%TD*%
D25*
%TO.C,U16*%
X44536000Y71701000D03*
X45036000Y71701000D03*
X45536000Y71701000D03*
X46036000Y71701000D03*
X46036000Y70221000D03*
X45536000Y70221000D03*
X45036000Y70221000D03*
X44536000Y70221000D03*
%TD*%
D42*
%TO.C,FID4*%
X122286000Y11926000D03*
%TD*%
D27*
%TO.C,R43*%
X87086000Y59538500D03*
X87086000Y57713500D03*
%TD*%
%TO.C,R48*%
X82786000Y77238500D03*
X82786000Y75413500D03*
%TD*%
D16*
%TO.C,R1*%
X94786000Y46676000D03*
X94786000Y48501000D03*
%TD*%
D81*
%TO.C,C13*%
X47864249Y39697751D03*
X49207751Y38354249D03*
%TD*%
D82*
%TO.C,D7*%
X134586000Y57426000D03*
X134586000Y59026000D03*
%TD*%
D16*
%TO.C,R31*%
X80936000Y43963500D03*
X80936000Y45788500D03*
%TD*%
D79*
%TO.C,JP4*%
X31786000Y72368500D03*
D80*
X30486000Y72368500D03*
%TD*%
D25*
%TO.C,U15*%
X64086000Y71856000D03*
X64586000Y71856000D03*
X65086000Y71856000D03*
X65586000Y71856000D03*
X65586000Y70376000D03*
X65086000Y70376000D03*
X64586000Y70376000D03*
X64086000Y70376000D03*
%TD*%
D83*
%TO.C,Y2*%
X34952117Y22859883D03*
X36719883Y21092117D03*
%TD*%
D19*
%TO.C,C28*%
X80986000Y63426000D03*
X80986000Y65326000D03*
%TD*%
D84*
%TO.C,Q5*%
X80473500Y61276000D03*
X80473500Y59376000D03*
X78598500Y60326000D03*
%TD*%
D85*
%TO.C,U11*%
X37336000Y23406000D03*
X37336000Y23906000D03*
X37336000Y24406000D03*
X37336000Y24906000D03*
X37336000Y25406000D03*
X41636000Y25406000D03*
X41636000Y24906000D03*
X41636000Y24406000D03*
X41636000Y23906000D03*
X41636000Y23406000D03*
%TD*%
D20*
%TO.C,Q4*%
X92935998Y20888500D03*
X91035998Y20888500D03*
X91985998Y23163500D03*
%TD*%
D82*
%TO.C,D6*%
X134586000Y51901000D03*
X134586000Y53501000D03*
%TD*%
D86*
%TO.C,J3*%
X47166000Y50436000D03*
X49706000Y50436000D03*
X47166000Y52976000D03*
X49706000Y52976000D03*
X47166000Y55516000D03*
X49706000Y55516000D03*
%TD*%
D16*
%TO.C,R63*%
X27836000Y68481000D03*
X27836000Y70306000D03*
%TD*%
D27*
%TO.C,R38*%
X52086000Y53988500D03*
X52086000Y52163500D03*
%TD*%
D45*
%TO.C,C31*%
X98586000Y67026000D03*
X100486000Y67026000D03*
%TD*%
D44*
%TO.C,C22*%
X82640000Y59569600D03*
X82640000Y57669600D03*
%TD*%
D33*
%TO.C,C16*%
X42336000Y21506000D03*
X40436000Y21506000D03*
%TD*%
D45*
%TO.C,C23*%
X82886000Y70026000D03*
X84786000Y70026000D03*
%TD*%
D87*
%TO.C,C8*%
X47414249Y42954249D03*
X48757751Y44297751D03*
%TD*%
D22*
%TO.C,R34*%
X51440765Y31571235D03*
X52731235Y30280765D03*
%TD*%
D45*
%TO.C,C21*%
X96066400Y55419200D03*
X97966400Y55419200D03*
%TD*%
D20*
%TO.C,Q3*%
X86002664Y20888500D03*
X84102664Y20888500D03*
X85052664Y23163500D03*
%TD*%
D19*
%TO.C,C35*%
X48236000Y72011000D03*
X48236000Y73911000D03*
%TD*%
D44*
%TO.C,C42*%
X20236000Y71568500D03*
X20236000Y69668500D03*
%TD*%
D27*
%TO.C,R68*%
X42986000Y71473500D03*
X42986000Y69648500D03*
%TD*%
D28*
%TO.C,F5*%
X111586000Y11926000D03*
X111586000Y6106000D03*
%TD*%
D44*
%TO.C,C41*%
X40986000Y71511000D03*
X40986000Y69611000D03*
%TD*%
D17*
%TO.C,R73*%
X47023500Y18826000D03*
X48848500Y18826000D03*
%TD*%
D79*
%TO.C,JP3*%
X52236000Y72423500D03*
D80*
X50936000Y72423500D03*
%TD*%
D16*
%TO.C,R65*%
X67736000Y68491000D03*
X67736000Y70316000D03*
%TD*%
%TO.C,R62*%
X29836000Y68481000D03*
X29836000Y70306000D03*
%TD*%
D88*
%TO.C,U1*%
X87736000Y46676000D03*
X87736000Y47076000D03*
X87736000Y47476000D03*
X87736000Y47876000D03*
X87736000Y48276000D03*
X87736000Y48676000D03*
X87736000Y49076000D03*
X87736000Y49476000D03*
X87736000Y49876000D03*
X87736000Y50276000D03*
D89*
X88386000Y50926000D03*
X88786000Y50926000D03*
X89186000Y50926000D03*
X89586000Y50926000D03*
X89986000Y50926000D03*
X90386000Y50926000D03*
X90786000Y50926000D03*
X91186000Y50926000D03*
X91586000Y50926000D03*
X91986000Y50926000D03*
D88*
X92636000Y50276000D03*
X92636000Y49876000D03*
X92636000Y49476000D03*
X92636000Y49076000D03*
X92636000Y48676000D03*
X92636000Y48276000D03*
X92636000Y47876000D03*
X92636000Y47476000D03*
X92636000Y47076000D03*
X92636000Y46676000D03*
D89*
X91986000Y46026000D03*
X91586000Y46026000D03*
X91186000Y46026000D03*
X90786000Y46026000D03*
X90386000Y46026000D03*
X89986000Y46026000D03*
X89586000Y46026000D03*
X89186000Y46026000D03*
X88786000Y46026000D03*
X88386000Y46026000D03*
D90*
X90186000Y48476000D03*
%TD*%
D27*
%TO.C,R49*%
X84786000Y77238500D03*
X84786000Y75413500D03*
%TD*%
D47*
%TO.C,JP6*%
X24936000Y67156000D03*
D48*
X24936000Y68456000D03*
%TD*%
D44*
%TO.C,C17*%
X86686000Y44601000D03*
X86686000Y42701000D03*
%TD*%
D91*
%TO.C,U14*%
X124736000Y49238500D03*
X124086000Y49238500D03*
X123436000Y49238500D03*
X122786000Y49238500D03*
X122136000Y49238500D03*
X121486000Y49238500D03*
X120836000Y49238500D03*
X120836000Y54963500D03*
X121486000Y54963500D03*
X122136000Y54963500D03*
X122786000Y54963500D03*
X123436000Y54963500D03*
X124086000Y54963500D03*
X124736000Y54963500D03*
%TD*%
D33*
%TO.C,C10*%
X29100000Y44876000D03*
X27200000Y44876000D03*
%TD*%
D27*
%TO.C,R67*%
X62536000Y68278500D03*
X62536000Y66453500D03*
%TD*%
D44*
%TO.C,C12*%
X49361000Y61826000D03*
X49361000Y59926000D03*
%TD*%
D16*
%TO.C,R27*%
X69836000Y44443500D03*
X69836000Y46268500D03*
%TD*%
%TO.C,R77*%
X25936000Y36313500D03*
X25936000Y38138500D03*
%TD*%
D27*
%TO.C,R51*%
X76486000Y61263500D03*
X76486000Y59438500D03*
%TD*%
D16*
%TO.C,R42*%
X111486000Y71313500D03*
X111486000Y73138500D03*
%TD*%
D19*
%TO.C,C27*%
X85386000Y71876000D03*
X85386000Y73776000D03*
%TD*%
D92*
%TO.C,U8*%
X43611000Y46631000D03*
X43611000Y45831000D03*
X43611000Y45031000D03*
X43611000Y44231000D03*
X43611000Y43431000D03*
X43611000Y42631000D03*
X43611000Y41831000D03*
X43611000Y41031000D03*
X43611000Y40231000D03*
X43611000Y39431000D03*
X43611000Y38631000D03*
D93*
X41911000Y36931000D03*
X41111000Y36931000D03*
X40311000Y36931000D03*
X39511000Y36931000D03*
X38711000Y36931000D03*
X37911000Y36931000D03*
X37111000Y36931000D03*
X36311000Y36931000D03*
X35511000Y36931000D03*
X34711000Y36931000D03*
X33911000Y36931000D03*
D92*
X32211000Y38631000D03*
X32211000Y39431000D03*
X32211000Y40231000D03*
X32211000Y41031000D03*
X32211000Y41831000D03*
X32211000Y42631000D03*
X32211000Y43431000D03*
X32211000Y44231000D03*
X32211000Y45031000D03*
X32211000Y45831000D03*
X32211000Y46631000D03*
D93*
X33911000Y48331000D03*
X34711000Y48331000D03*
X35511000Y48331000D03*
X36311000Y48331000D03*
X37111000Y48331000D03*
X37911000Y48331000D03*
X38711000Y48331000D03*
X39511000Y48331000D03*
X40311000Y48331000D03*
X41111000Y48331000D03*
X41911000Y48331000D03*
%TD*%
D47*
%TO.C,JP2*%
X56686000Y52376000D03*
D48*
X56686000Y53676000D03*
%TD*%
D17*
%TO.C,R40*%
X77223500Y63376000D03*
X79048500Y63376000D03*
%TD*%
D16*
%TO.C,R17*%
X90685998Y17213500D03*
X90685998Y19038500D03*
%TD*%
D33*
%TO.C,C30*%
X96900000Y67000000D03*
X95000000Y67000000D03*
%TD*%
D28*
%TO.C,F4*%
X101286000Y12026000D03*
X101286000Y6206000D03*
%TD*%
D17*
%TO.C,R10*%
X93573500Y26756000D03*
X95398500Y26756000D03*
%TD*%
D45*
%TO.C,C20*%
X96066400Y57629000D03*
X97966400Y57629000D03*
%TD*%
D16*
%TO.C,R20*%
X65936000Y44443500D03*
X65936000Y46268500D03*
%TD*%
%TO.C,R32*%
X78986000Y43963500D03*
X78986000Y45788500D03*
%TD*%
D19*
%TO.C,C7*%
X82936000Y41901000D03*
X82936000Y43801000D03*
%TD*%
D28*
%TO.C,F1*%
X40886000Y12026000D03*
X40886000Y6206000D03*
%TD*%
D44*
%TO.C,C32*%
X93104800Y62109600D03*
X93104800Y60209600D03*
%TD*%
M02*
