%TF.GenerationSoftware,KiCad,Pcbnew,9.0.1+1*%
%TF.CreationDate,2025-05-14T12:36:32+00:00*%
%TF.ProjectId,BATDATUNIT01,42415444-4154-4554-9e49-5430312e6b69,rev?*%
%TF.SameCoordinates,Original*%
%TF.FileFunction,Legend,Top*%
%TF.FilePolarity,Positive*%
%FSLAX46Y46*%
G04 Gerber Fmt 4.6, Leading zero omitted, Abs format (unit mm)*
G04 Created by KiCad (PCBNEW 9.0.1+1) date 2025-05-14 12:36:32*
%MOMM*%
%LPD*%
G01*
G04 APERTURE LIST*
%ADD10C,0.150000*%
%ADD11C,0.300000*%
%ADD12C,0.200000*%
%ADD13C,0.100000*%
%ADD14C,0.127000*%
G04 APERTURE END LIST*
D10*
X134755819Y25054572D02*
X135565342Y25054572D01*
X135565342Y25054572D02*
X135660580Y25097429D01*
X135660580Y25097429D02*
X135708200Y25140286D01*
X135708200Y25140286D02*
X135755819Y25226001D01*
X135755819Y25226001D02*
X135755819Y25397429D01*
X135755819Y25397429D02*
X135708200Y25483144D01*
X135708200Y25483144D02*
X135660580Y25526001D01*
X135660580Y25526001D02*
X135565342Y25568858D01*
X135565342Y25568858D02*
X134755819Y25568858D01*
X135708200Y25954572D02*
X135755819Y26083143D01*
X135755819Y26083143D02*
X135755819Y26297429D01*
X135755819Y26297429D02*
X135708200Y26383143D01*
X135708200Y26383143D02*
X135660580Y26426001D01*
X135660580Y26426001D02*
X135565342Y26468858D01*
X135565342Y26468858D02*
X135470104Y26468858D01*
X135470104Y26468858D02*
X135374866Y26426001D01*
X135374866Y26426001D02*
X135327247Y26383143D01*
X135327247Y26383143D02*
X135279628Y26297429D01*
X135279628Y26297429D02*
X135232009Y26126001D01*
X135232009Y26126001D02*
X135184390Y26040286D01*
X135184390Y26040286D02*
X135136771Y25997429D01*
X135136771Y25997429D02*
X135041533Y25954572D01*
X135041533Y25954572D02*
X134946295Y25954572D01*
X134946295Y25954572D02*
X134851057Y25997429D01*
X134851057Y25997429D02*
X134803438Y26040286D01*
X134803438Y26040286D02*
X134755819Y26126001D01*
X134755819Y26126001D02*
X134755819Y26340286D01*
X134755819Y26340286D02*
X134803438Y26468858D01*
X135232009Y26854572D02*
X135232009Y27154572D01*
X135755819Y27283144D02*
X135755819Y26854572D01*
X135755819Y26854572D02*
X134755819Y26854572D01*
X134755819Y26854572D02*
X134755819Y27283144D01*
X135755819Y28183144D02*
X135279628Y27883144D01*
X135755819Y27668858D02*
X134755819Y27668858D01*
X134755819Y27668858D02*
X134755819Y28011715D01*
X134755819Y28011715D02*
X134803438Y28097430D01*
X134803438Y28097430D02*
X134851057Y28140287D01*
X134851057Y28140287D02*
X134946295Y28183144D01*
X134946295Y28183144D02*
X135089152Y28183144D01*
X135089152Y28183144D02*
X135184390Y28140287D01*
X135184390Y28140287D02*
X135232009Y28097430D01*
X135232009Y28097430D02*
X135279628Y28011715D01*
X135279628Y28011715D02*
X135279628Y27668858D01*
X135755819Y29683144D02*
X135755819Y29254572D01*
X135755819Y29254572D02*
X134755819Y29254572D01*
X135232009Y29983143D02*
X135232009Y30283143D01*
X135755819Y30411715D02*
X135755819Y29983143D01*
X135755819Y29983143D02*
X134755819Y29983143D01*
X134755819Y29983143D02*
X134755819Y30411715D01*
X135755819Y30797429D02*
X134755819Y30797429D01*
X134755819Y30797429D02*
X134755819Y31011715D01*
X134755819Y31011715D02*
X134803438Y31140286D01*
X134803438Y31140286D02*
X134898676Y31226001D01*
X134898676Y31226001D02*
X134993914Y31268858D01*
X134993914Y31268858D02*
X135184390Y31311715D01*
X135184390Y31311715D02*
X135327247Y31311715D01*
X135327247Y31311715D02*
X135517723Y31268858D01*
X135517723Y31268858D02*
X135612961Y31226001D01*
X135612961Y31226001D02*
X135708200Y31140286D01*
X135708200Y31140286D02*
X135755819Y31011715D01*
X135755819Y31011715D02*
X135755819Y30797429D01*
X135708200Y31654572D02*
X135755819Y31740286D01*
X135755819Y31740286D02*
X135755819Y31911715D01*
X135755819Y31911715D02*
X135708200Y31997429D01*
X135708200Y31997429D02*
X135612961Y32040286D01*
X135612961Y32040286D02*
X135565342Y32040286D01*
X135565342Y32040286D02*
X135470104Y31997429D01*
X135470104Y31997429D02*
X135422485Y31911715D01*
X135422485Y31911715D02*
X135422485Y31783143D01*
X135422485Y31783143D02*
X135374866Y31697429D01*
X135374866Y31697429D02*
X135279628Y31654572D01*
X135279628Y31654572D02*
X135232009Y31654572D01*
X135232009Y31654572D02*
X135136771Y31697429D01*
X135136771Y31697429D02*
X135089152Y31783143D01*
X135089152Y31783143D02*
X135089152Y31911715D01*
X135089152Y31911715D02*
X135136771Y31997429D01*
X132732009Y33026000D02*
X132779628Y33168857D01*
X132779628Y33168857D02*
X132827247Y33216476D01*
X132827247Y33216476D02*
X132922485Y33264095D01*
X132922485Y33264095D02*
X133065342Y33264095D01*
X133065342Y33264095D02*
X133160580Y33216476D01*
X133160580Y33216476D02*
X133208200Y33168857D01*
X133208200Y33168857D02*
X133255819Y33073619D01*
X133255819Y33073619D02*
X133255819Y32692667D01*
X133255819Y32692667D02*
X132255819Y32692667D01*
X132255819Y32692667D02*
X132255819Y33026000D01*
X132255819Y33026000D02*
X132303438Y33121238D01*
X132303438Y33121238D02*
X132351057Y33168857D01*
X132351057Y33168857D02*
X132446295Y33216476D01*
X132446295Y33216476D02*
X132541533Y33216476D01*
X132541533Y33216476D02*
X132636771Y33168857D01*
X132636771Y33168857D02*
X132684390Y33121238D01*
X132684390Y33121238D02*
X132732009Y33026000D01*
X132732009Y33026000D02*
X132732009Y32692667D01*
X132970104Y33645048D02*
X132970104Y34121238D01*
X133255819Y33549810D02*
X132255819Y33883143D01*
X132255819Y33883143D02*
X133255819Y34216476D01*
X132255819Y34406953D02*
X132255819Y34978381D01*
X133255819Y34692667D02*
X132255819Y34692667D01*
X132255819Y35168858D02*
X132255819Y35740286D01*
X133255819Y35454572D02*
X132255819Y35454572D01*
X132732009Y36073620D02*
X132732009Y36406953D01*
X133255819Y36549810D02*
X133255819Y36073620D01*
X133255819Y36073620D02*
X132255819Y36073620D01*
X132255819Y36073620D02*
X132255819Y36549810D01*
X133255819Y37549810D02*
X132779628Y37216477D01*
X133255819Y36978382D02*
X132255819Y36978382D01*
X132255819Y36978382D02*
X132255819Y37359334D01*
X132255819Y37359334D02*
X132303438Y37454572D01*
X132303438Y37454572D02*
X132351057Y37502191D01*
X132351057Y37502191D02*
X132446295Y37549810D01*
X132446295Y37549810D02*
X132589152Y37549810D01*
X132589152Y37549810D02*
X132684390Y37502191D01*
X132684390Y37502191D02*
X132732009Y37454572D01*
X132732009Y37454572D02*
X132779628Y37359334D01*
X132779628Y37359334D02*
X132779628Y36978382D01*
X132779628Y38168858D02*
X133255819Y38168858D01*
X132255819Y37835525D02*
X132779628Y38168858D01*
X132779628Y38168858D02*
X132255819Y38502191D01*
D11*
X23733333Y73162020D02*
X23447619Y73257258D01*
X23447619Y73257258D02*
X23352381Y73352496D01*
X23352381Y73352496D02*
X23257143Y73542972D01*
X23257143Y73542972D02*
X23257143Y73828686D01*
X23257143Y73828686D02*
X23352381Y74019162D01*
X23352381Y74019162D02*
X23447619Y74114400D01*
X23447619Y74114400D02*
X23638095Y74209639D01*
X23638095Y74209639D02*
X24400000Y74209639D01*
X24400000Y74209639D02*
X24400000Y72209639D01*
X24400000Y72209639D02*
X23733333Y72209639D01*
X23733333Y72209639D02*
X23542857Y72304877D01*
X23542857Y72304877D02*
X23447619Y72400115D01*
X23447619Y72400115D02*
X23352381Y72590591D01*
X23352381Y72590591D02*
X23352381Y72781067D01*
X23352381Y72781067D02*
X23447619Y72971543D01*
X23447619Y72971543D02*
X23542857Y73066781D01*
X23542857Y73066781D02*
X23733333Y73162020D01*
X23733333Y73162020D02*
X24400000Y73162020D01*
X22495238Y73638210D02*
X21542857Y73638210D01*
X22685714Y74209639D02*
X22019048Y72209639D01*
X22019048Y72209639D02*
X21352381Y74209639D01*
X20971428Y72209639D02*
X19828571Y72209639D01*
X20400000Y74209639D02*
X20400000Y72209639D01*
X19161904Y74209639D02*
X19161904Y72209639D01*
X19161904Y72209639D02*
X18685714Y72209639D01*
X18685714Y72209639D02*
X18399999Y72304877D01*
X18399999Y72304877D02*
X18209523Y72495353D01*
X18209523Y72495353D02*
X18114285Y72685829D01*
X18114285Y72685829D02*
X18019047Y73066781D01*
X18019047Y73066781D02*
X18019047Y73352496D01*
X18019047Y73352496D02*
X18114285Y73733448D01*
X18114285Y73733448D02*
X18209523Y73923924D01*
X18209523Y73923924D02*
X18399999Y74114400D01*
X18399999Y74114400D02*
X18685714Y74209639D01*
X18685714Y74209639D02*
X19161904Y74209639D01*
X17257142Y73638210D02*
X16304761Y73638210D01*
X17447618Y74209639D02*
X16780952Y72209639D01*
X16780952Y72209639D02*
X16114285Y74209639D01*
X15733332Y72209639D02*
X14590475Y72209639D01*
X15161904Y74209639D02*
X15161904Y72209639D01*
X13923808Y72209639D02*
X13923808Y73828686D01*
X13923808Y73828686D02*
X13828570Y74019162D01*
X13828570Y74019162D02*
X13733332Y74114400D01*
X13733332Y74114400D02*
X13542856Y74209639D01*
X13542856Y74209639D02*
X13161903Y74209639D01*
X13161903Y74209639D02*
X12971427Y74114400D01*
X12971427Y74114400D02*
X12876189Y74019162D01*
X12876189Y74019162D02*
X12780951Y73828686D01*
X12780951Y73828686D02*
X12780951Y72209639D01*
X11828570Y74209639D02*
X11828570Y72209639D01*
X11828570Y72209639D02*
X10685713Y74209639D01*
X10685713Y74209639D02*
X10685713Y72209639D01*
X9733332Y74209639D02*
X9733332Y72209639D01*
X9066665Y72209639D02*
X7923808Y72209639D01*
X8495237Y74209639D02*
X8495237Y72209639D01*
X6876189Y72209639D02*
X6685712Y72209639D01*
X6685712Y72209639D02*
X6495236Y72304877D01*
X6495236Y72304877D02*
X6399998Y72400115D01*
X6399998Y72400115D02*
X6304760Y72590591D01*
X6304760Y72590591D02*
X6209522Y72971543D01*
X6209522Y72971543D02*
X6209522Y73447734D01*
X6209522Y73447734D02*
X6304760Y73828686D01*
X6304760Y73828686D02*
X6399998Y74019162D01*
X6399998Y74019162D02*
X6495236Y74114400D01*
X6495236Y74114400D02*
X6685712Y74209639D01*
X6685712Y74209639D02*
X6876189Y74209639D01*
X6876189Y74209639D02*
X7066665Y74114400D01*
X7066665Y74114400D02*
X7161903Y74019162D01*
X7161903Y74019162D02*
X7257141Y73828686D01*
X7257141Y73828686D02*
X7352379Y73447734D01*
X7352379Y73447734D02*
X7352379Y72971543D01*
X7352379Y72971543D02*
X7257141Y72590591D01*
X7257141Y72590591D02*
X7161903Y72400115D01*
X7161903Y72400115D02*
X7066665Y72304877D01*
X7066665Y72304877D02*
X6876189Y72209639D01*
X4304760Y74209639D02*
X5447617Y74209639D01*
X4876189Y74209639D02*
X4876189Y72209639D01*
X4876189Y72209639D02*
X5066665Y72495353D01*
X5066665Y72495353D02*
X5257141Y72685829D01*
X5257141Y72685829D02*
X5447617Y72781067D01*
X2304760Y74019162D02*
X2399998Y74114400D01*
X2399998Y74114400D02*
X2685712Y74209639D01*
X2685712Y74209639D02*
X2876188Y74209639D01*
X2876188Y74209639D02*
X3161903Y74114400D01*
X3161903Y74114400D02*
X3352379Y73923924D01*
X3352379Y73923924D02*
X3447617Y73733448D01*
X3447617Y73733448D02*
X3542855Y73352496D01*
X3542855Y73352496D02*
X3542855Y73066781D01*
X3542855Y73066781D02*
X3447617Y72685829D01*
X3447617Y72685829D02*
X3352379Y72495353D01*
X3352379Y72495353D02*
X3161903Y72304877D01*
X3161903Y72304877D02*
X2876188Y72209639D01*
X2876188Y72209639D02*
X2685712Y72209639D01*
X2685712Y72209639D02*
X2399998Y72304877D01*
X2399998Y72304877D02*
X2304760Y72400115D01*
D10*
X132255819Y26511715D02*
X133065342Y26511715D01*
X133065342Y26511715D02*
X133160580Y26559334D01*
X133160580Y26559334D02*
X133208200Y26606953D01*
X133208200Y26606953D02*
X133255819Y26702191D01*
X133255819Y26702191D02*
X133255819Y26892667D01*
X133255819Y26892667D02*
X133208200Y26987905D01*
X133208200Y26987905D02*
X133160580Y27035524D01*
X133160580Y27035524D02*
X133065342Y27083143D01*
X133065342Y27083143D02*
X132255819Y27083143D01*
X133208200Y27511715D02*
X133255819Y27654572D01*
X133255819Y27654572D02*
X133255819Y27892667D01*
X133255819Y27892667D02*
X133208200Y27987905D01*
X133208200Y27987905D02*
X133160580Y28035524D01*
X133160580Y28035524D02*
X133065342Y28083143D01*
X133065342Y28083143D02*
X132970104Y28083143D01*
X132970104Y28083143D02*
X132874866Y28035524D01*
X132874866Y28035524D02*
X132827247Y27987905D01*
X132827247Y27987905D02*
X132779628Y27892667D01*
X132779628Y27892667D02*
X132732009Y27702191D01*
X132732009Y27702191D02*
X132684390Y27606953D01*
X132684390Y27606953D02*
X132636771Y27559334D01*
X132636771Y27559334D02*
X132541533Y27511715D01*
X132541533Y27511715D02*
X132446295Y27511715D01*
X132446295Y27511715D02*
X132351057Y27559334D01*
X132351057Y27559334D02*
X132303438Y27606953D01*
X132303438Y27606953D02*
X132255819Y27702191D01*
X132255819Y27702191D02*
X132255819Y27940286D01*
X132255819Y27940286D02*
X132303438Y28083143D01*
X132732009Y28511715D02*
X132732009Y28845048D01*
X133255819Y28987905D02*
X133255819Y28511715D01*
X133255819Y28511715D02*
X132255819Y28511715D01*
X132255819Y28511715D02*
X132255819Y28987905D01*
X133255819Y29987905D02*
X132779628Y29654572D01*
X133255819Y29416477D02*
X132255819Y29416477D01*
X132255819Y29416477D02*
X132255819Y29797429D01*
X132255819Y29797429D02*
X132303438Y29892667D01*
X132303438Y29892667D02*
X132351057Y29940286D01*
X132351057Y29940286D02*
X132446295Y29987905D01*
X132446295Y29987905D02*
X132589152Y29987905D01*
X132589152Y29987905D02*
X132684390Y29940286D01*
X132684390Y29940286D02*
X132732009Y29892667D01*
X132732009Y29892667D02*
X132779628Y29797429D01*
X132779628Y29797429D02*
X132779628Y29416477D01*
D12*
X14282707Y11260871D02*
X14282707Y12527538D01*
X14282707Y12346586D02*
X14373184Y12437062D01*
X14373184Y12437062D02*
X14554136Y12527538D01*
X14554136Y12527538D02*
X14825565Y12527538D01*
X14825565Y12527538D02*
X15006517Y12437062D01*
X15006517Y12437062D02*
X15096993Y12256109D01*
X15096993Y12256109D02*
X15096993Y11260871D01*
X15096993Y12256109D02*
X15187469Y12437062D01*
X15187469Y12437062D02*
X15368422Y12527538D01*
X15368422Y12527538D02*
X15639850Y12527538D01*
X15639850Y12527538D02*
X15820803Y12437062D01*
X15820803Y12437062D02*
X15911279Y12256109D01*
X15911279Y12256109D02*
X15911279Y11260871D01*
X17087469Y11260871D02*
X16906517Y11351347D01*
X16906517Y11351347D02*
X16816040Y11532300D01*
X16816040Y11532300D02*
X16816040Y13160871D01*
X18625564Y11260871D02*
X18625564Y12256109D01*
X18625564Y12256109D02*
X18535088Y12437062D01*
X18535088Y12437062D02*
X18354136Y12527538D01*
X18354136Y12527538D02*
X17992231Y12527538D01*
X17992231Y12527538D02*
X17811278Y12437062D01*
X18625564Y11351347D02*
X18444612Y11260871D01*
X18444612Y11260871D02*
X17992231Y11260871D01*
X17992231Y11260871D02*
X17811278Y11351347D01*
X17811278Y11351347D02*
X17720802Y11532300D01*
X17720802Y11532300D02*
X17720802Y11713252D01*
X17720802Y11713252D02*
X17811278Y11894205D01*
X17811278Y11894205D02*
X17992231Y11984681D01*
X17992231Y11984681D02*
X18444612Y11984681D01*
X18444612Y11984681D02*
X18625564Y12075157D01*
X19530326Y11260871D02*
X19530326Y13160871D01*
X19530326Y12437062D02*
X19711279Y12527538D01*
X19711279Y12527538D02*
X20073184Y12527538D01*
X20073184Y12527538D02*
X20254136Y12437062D01*
X20254136Y12437062D02*
X20344612Y12346586D01*
X20344612Y12346586D02*
X20435088Y12165633D01*
X20435088Y12165633D02*
X20435088Y11622776D01*
X20435088Y11622776D02*
X20344612Y11441824D01*
X20344612Y11441824D02*
X20254136Y11351347D01*
X20254136Y11351347D02*
X20073184Y11260871D01*
X20073184Y11260871D02*
X19711279Y11260871D01*
X19711279Y11260871D02*
X19530326Y11351347D01*
X21249374Y11441824D02*
X21339851Y11351347D01*
X21339851Y11351347D02*
X21249374Y11260871D01*
X21249374Y11260871D02*
X21158898Y11351347D01*
X21158898Y11351347D02*
X21249374Y11441824D01*
X21249374Y11441824D02*
X21249374Y11260871D01*
X22968422Y11351347D02*
X22787470Y11260871D01*
X22787470Y11260871D02*
X22425565Y11260871D01*
X22425565Y11260871D02*
X22244613Y11351347D01*
X22244613Y11351347D02*
X22154136Y11441824D01*
X22154136Y11441824D02*
X22063660Y11622776D01*
X22063660Y11622776D02*
X22063660Y12165633D01*
X22063660Y12165633D02*
X22154136Y12346586D01*
X22154136Y12346586D02*
X22244613Y12437062D01*
X22244613Y12437062D02*
X22425565Y12527538D01*
X22425565Y12527538D02*
X22787470Y12527538D01*
X22787470Y12527538D02*
X22968422Y12437062D01*
X23601755Y12527538D02*
X24596993Y12527538D01*
X24596993Y12527538D02*
X23601755Y11260871D01*
X23601755Y11260871D02*
X24596993Y11260871D01*
X17992230Y9921025D02*
X18082706Y10011501D01*
X18082706Y10011501D02*
X18263659Y10101977D01*
X18263659Y10101977D02*
X18716040Y10101977D01*
X18716040Y10101977D02*
X18896992Y10011501D01*
X18896992Y10011501D02*
X18987468Y9921025D01*
X18987468Y9921025D02*
X19077945Y9740073D01*
X19077945Y9740073D02*
X19077945Y9559120D01*
X19077945Y9559120D02*
X18987468Y9287692D01*
X18987468Y9287692D02*
X17901754Y8201977D01*
X17901754Y8201977D02*
X19077945Y8201977D01*
X20254135Y10101977D02*
X20435088Y10101977D01*
X20435088Y10101977D02*
X20616040Y10011501D01*
X20616040Y10011501D02*
X20706516Y9921025D01*
X20706516Y9921025D02*
X20796992Y9740073D01*
X20796992Y9740073D02*
X20887469Y9378168D01*
X20887469Y9378168D02*
X20887469Y8925787D01*
X20887469Y8925787D02*
X20796992Y8563882D01*
X20796992Y8563882D02*
X20706516Y8382930D01*
X20706516Y8382930D02*
X20616040Y8292453D01*
X20616040Y8292453D02*
X20435088Y8201977D01*
X20435088Y8201977D02*
X20254135Y8201977D01*
X20254135Y8201977D02*
X20073183Y8292453D01*
X20073183Y8292453D02*
X19982707Y8382930D01*
X19982707Y8382930D02*
X19892230Y8563882D01*
X19892230Y8563882D02*
X19801754Y8925787D01*
X19801754Y8925787D02*
X19801754Y9378168D01*
X19801754Y9378168D02*
X19892230Y9740073D01*
X19892230Y9740073D02*
X19982707Y9921025D01*
X19982707Y9921025D02*
X20073183Y10011501D01*
X20073183Y10011501D02*
X20254135Y10101977D01*
X21611278Y9921025D02*
X21701754Y10011501D01*
X21701754Y10011501D02*
X21882707Y10101977D01*
X21882707Y10101977D02*
X22335088Y10101977D01*
X22335088Y10101977D02*
X22516040Y10011501D01*
X22516040Y10011501D02*
X22606516Y9921025D01*
X22606516Y9921025D02*
X22696993Y9740073D01*
X22696993Y9740073D02*
X22696993Y9559120D01*
X22696993Y9559120D02*
X22606516Y9287692D01*
X22606516Y9287692D02*
X21520802Y8201977D01*
X21520802Y8201977D02*
X22696993Y8201977D01*
X24416040Y10101977D02*
X23511278Y10101977D01*
X23511278Y10101977D02*
X23420802Y9197215D01*
X23420802Y9197215D02*
X23511278Y9287692D01*
X23511278Y9287692D02*
X23692231Y9378168D01*
X23692231Y9378168D02*
X24144612Y9378168D01*
X24144612Y9378168D02*
X24325564Y9287692D01*
X24325564Y9287692D02*
X24416040Y9197215D01*
X24416040Y9197215D02*
X24506517Y9016263D01*
X24506517Y9016263D02*
X24506517Y8563882D01*
X24506517Y8563882D02*
X24416040Y8382930D01*
X24416040Y8382930D02*
X24325564Y8292453D01*
X24325564Y8292453D02*
X24144612Y8201977D01*
X24144612Y8201977D02*
X23692231Y8201977D01*
X23692231Y8201977D02*
X23511278Y8292453D01*
X23511278Y8292453D02*
X23420802Y8382930D01*
D10*
X135232009Y35461715D02*
X135279628Y35590287D01*
X135279628Y35590287D02*
X135327247Y35633144D01*
X135327247Y35633144D02*
X135422485Y35676001D01*
X135422485Y35676001D02*
X135565342Y35676001D01*
X135565342Y35676001D02*
X135660580Y35633144D01*
X135660580Y35633144D02*
X135708200Y35590287D01*
X135708200Y35590287D02*
X135755819Y35504572D01*
X135755819Y35504572D02*
X135755819Y35161715D01*
X135755819Y35161715D02*
X134755819Y35161715D01*
X134755819Y35161715D02*
X134755819Y35461715D01*
X134755819Y35461715D02*
X134803438Y35547429D01*
X134803438Y35547429D02*
X134851057Y35590287D01*
X134851057Y35590287D02*
X134946295Y35633144D01*
X134946295Y35633144D02*
X135041533Y35633144D01*
X135041533Y35633144D02*
X135136771Y35590287D01*
X135136771Y35590287D02*
X135184390Y35547429D01*
X135184390Y35547429D02*
X135232009Y35461715D01*
X135232009Y35461715D02*
X135232009Y35161715D01*
X135470104Y36018858D02*
X135470104Y36447429D01*
X135755819Y35933144D02*
X134755819Y36233144D01*
X134755819Y36233144D02*
X135755819Y36533144D01*
X134755819Y36704573D02*
X134755819Y37218858D01*
X135755819Y36961716D02*
X134755819Y36961716D01*
X135660580Y37518858D02*
X135708200Y37561715D01*
X135708200Y37561715D02*
X135755819Y37518858D01*
X135755819Y37518858D02*
X135708200Y37476001D01*
X135708200Y37476001D02*
X135660580Y37518858D01*
X135660580Y37518858D02*
X135755819Y37518858D01*
X135136771Y37518858D02*
X135184390Y37561715D01*
X135184390Y37561715D02*
X135232009Y37518858D01*
X135232009Y37518858D02*
X135184390Y37476001D01*
X135184390Y37476001D02*
X135136771Y37518858D01*
X135136771Y37518858D02*
X135232009Y37518858D01*
X134755819Y38804572D02*
X134755819Y38890286D01*
X134755819Y38890286D02*
X134803438Y38976000D01*
X134803438Y38976000D02*
X134851057Y39018857D01*
X134851057Y39018857D02*
X134946295Y39061715D01*
X134946295Y39061715D02*
X135136771Y39104572D01*
X135136771Y39104572D02*
X135374866Y39104572D01*
X135374866Y39104572D02*
X135565342Y39061715D01*
X135565342Y39061715D02*
X135660580Y39018857D01*
X135660580Y39018857D02*
X135708200Y38976000D01*
X135708200Y38976000D02*
X135755819Y38890286D01*
X135755819Y38890286D02*
X135755819Y38804572D01*
X135755819Y38804572D02*
X135708200Y38718857D01*
X135708200Y38718857D02*
X135660580Y38676000D01*
X135660580Y38676000D02*
X135565342Y38633143D01*
X135565342Y38633143D02*
X135374866Y38590286D01*
X135374866Y38590286D02*
X135136771Y38590286D01*
X135136771Y38590286D02*
X134946295Y38633143D01*
X134946295Y38633143D02*
X134851057Y38676000D01*
X134851057Y38676000D02*
X134803438Y38718857D01*
X134803438Y38718857D02*
X134755819Y38804572D01*
X135755819Y39447429D02*
X134755819Y40133143D01*
X134755819Y39576000D02*
X134803438Y39661715D01*
X134803438Y39661715D02*
X134898676Y39704572D01*
X134898676Y39704572D02*
X134993914Y39661715D01*
X134993914Y39661715D02*
X135041533Y39576000D01*
X135041533Y39576000D02*
X134993914Y39490286D01*
X134993914Y39490286D02*
X134898676Y39447429D01*
X134898676Y39447429D02*
X134803438Y39490286D01*
X134803438Y39490286D02*
X134755819Y39576000D01*
X135708200Y40090286D02*
X135612961Y40133143D01*
X135612961Y40133143D02*
X135517723Y40090286D01*
X135517723Y40090286D02*
X135470104Y40004572D01*
X135470104Y40004572D02*
X135517723Y39918858D01*
X135517723Y39918858D02*
X135612961Y39876000D01*
X135612961Y39876000D02*
X135708200Y39918858D01*
X135708200Y39918858D02*
X135755819Y40004572D01*
X135755819Y40004572D02*
X135708200Y40090286D01*
D12*
X129036205Y12026001D02*
X129093348Y12197429D01*
X129093348Y12197429D02*
X129150491Y12254572D01*
X129150491Y12254572D02*
X129264776Y12311715D01*
X129264776Y12311715D02*
X129436205Y12311715D01*
X129436205Y12311715D02*
X129550491Y12254572D01*
X129550491Y12254572D02*
X129607634Y12197429D01*
X129607634Y12197429D02*
X129664776Y12083144D01*
X129664776Y12083144D02*
X129664776Y11626001D01*
X129664776Y11626001D02*
X128464776Y11626001D01*
X128464776Y11626001D02*
X128464776Y12026001D01*
X128464776Y12026001D02*
X128521919Y12140286D01*
X128521919Y12140286D02*
X128579062Y12197429D01*
X128579062Y12197429D02*
X128693348Y12254572D01*
X128693348Y12254572D02*
X128807634Y12254572D01*
X128807634Y12254572D02*
X128921919Y12197429D01*
X128921919Y12197429D02*
X128979062Y12140286D01*
X128979062Y12140286D02*
X129036205Y12026001D01*
X129036205Y12026001D02*
X129036205Y11626001D01*
X129321919Y12768858D02*
X129321919Y13340286D01*
X129664776Y12654572D02*
X128464776Y13054572D01*
X128464776Y13054572D02*
X129664776Y13454572D01*
X128464776Y13683143D02*
X128464776Y14368857D01*
X129664776Y14026000D02*
X128464776Y14026000D01*
X129664776Y14768858D02*
X128464776Y14768858D01*
X128464776Y14768858D02*
X128464776Y15054572D01*
X128464776Y15054572D02*
X128521919Y15226001D01*
X128521919Y15226001D02*
X128636205Y15340286D01*
X128636205Y15340286D02*
X128750491Y15397429D01*
X128750491Y15397429D02*
X128979062Y15454572D01*
X128979062Y15454572D02*
X129150491Y15454572D01*
X129150491Y15454572D02*
X129379062Y15397429D01*
X129379062Y15397429D02*
X129493348Y15340286D01*
X129493348Y15340286D02*
X129607634Y15226001D01*
X129607634Y15226001D02*
X129664776Y15054572D01*
X129664776Y15054572D02*
X129664776Y14768858D01*
X129321919Y15911715D02*
X129321919Y16483143D01*
X129664776Y15797429D02*
X128464776Y16197429D01*
X128464776Y16197429D02*
X129664776Y16597429D01*
X128464776Y16826000D02*
X128464776Y17511714D01*
X129664776Y17168857D02*
X128464776Y17168857D01*
X128464776Y17911715D02*
X129436205Y17911715D01*
X129436205Y17911715D02*
X129550491Y17968858D01*
X129550491Y17968858D02*
X129607634Y18026000D01*
X129607634Y18026000D02*
X129664776Y18140286D01*
X129664776Y18140286D02*
X129664776Y18368858D01*
X129664776Y18368858D02*
X129607634Y18483143D01*
X129607634Y18483143D02*
X129550491Y18540286D01*
X129550491Y18540286D02*
X129436205Y18597429D01*
X129436205Y18597429D02*
X128464776Y18597429D01*
X129664776Y19168858D02*
X128464776Y19168858D01*
X128464776Y19168858D02*
X129664776Y19854572D01*
X129664776Y19854572D02*
X128464776Y19854572D01*
X129664776Y20426001D02*
X128464776Y20426001D01*
X128464776Y20826001D02*
X128464776Y21511715D01*
X129664776Y21168858D02*
X128464776Y21168858D01*
X128464776Y22140287D02*
X128464776Y22254573D01*
X128464776Y22254573D02*
X128521919Y22368859D01*
X128521919Y22368859D02*
X128579062Y22426001D01*
X128579062Y22426001D02*
X128693348Y22483144D01*
X128693348Y22483144D02*
X128921919Y22540287D01*
X128921919Y22540287D02*
X129207634Y22540287D01*
X129207634Y22540287D02*
X129436205Y22483144D01*
X129436205Y22483144D02*
X129550491Y22426001D01*
X129550491Y22426001D02*
X129607634Y22368859D01*
X129607634Y22368859D02*
X129664776Y22254573D01*
X129664776Y22254573D02*
X129664776Y22140287D01*
X129664776Y22140287D02*
X129607634Y22026001D01*
X129607634Y22026001D02*
X129550491Y21968859D01*
X129550491Y21968859D02*
X129436205Y21911716D01*
X129436205Y21911716D02*
X129207634Y21854573D01*
X129207634Y21854573D02*
X128921919Y21854573D01*
X128921919Y21854573D02*
X128693348Y21911716D01*
X128693348Y21911716D02*
X128579062Y21968859D01*
X128579062Y21968859D02*
X128521919Y22026001D01*
X128521919Y22026001D02*
X128464776Y22140287D01*
X129664776Y23683144D02*
X129664776Y22997430D01*
X129664776Y23340287D02*
X128464776Y23340287D01*
X128464776Y23340287D02*
X128636205Y23226001D01*
X128636205Y23226001D02*
X128750491Y23111716D01*
X128750491Y23111716D02*
X128807634Y22997430D01*
X129550491Y24883144D02*
X129607634Y24826001D01*
X129607634Y24826001D02*
X129664776Y24654573D01*
X129664776Y24654573D02*
X129664776Y24540287D01*
X129664776Y24540287D02*
X129607634Y24368858D01*
X129607634Y24368858D02*
X129493348Y24254573D01*
X129493348Y24254573D02*
X129379062Y24197430D01*
X129379062Y24197430D02*
X129150491Y24140287D01*
X129150491Y24140287D02*
X128979062Y24140287D01*
X128979062Y24140287D02*
X128750491Y24197430D01*
X128750491Y24197430D02*
X128636205Y24254573D01*
X128636205Y24254573D02*
X128521919Y24368858D01*
X128521919Y24368858D02*
X128464776Y24540287D01*
X128464776Y24540287D02*
X128464776Y24654573D01*
X128464776Y24654573D02*
X128521919Y24826001D01*
X128521919Y24826001D02*
X128579062Y24883144D01*
X131596709Y11997430D02*
X130796709Y11997430D01*
X130910995Y11997430D02*
X130853852Y12054573D01*
X130853852Y12054573D02*
X130796709Y12168858D01*
X130796709Y12168858D02*
X130796709Y12340287D01*
X130796709Y12340287D02*
X130853852Y12454573D01*
X130853852Y12454573D02*
X130968138Y12511715D01*
X130968138Y12511715D02*
X131596709Y12511715D01*
X130968138Y12511715D02*
X130853852Y12568858D01*
X130853852Y12568858D02*
X130796709Y12683144D01*
X130796709Y12683144D02*
X130796709Y12854573D01*
X130796709Y12854573D02*
X130853852Y12968858D01*
X130853852Y12968858D02*
X130968138Y13026001D01*
X130968138Y13026001D02*
X131596709Y13026001D01*
X131596709Y13768858D02*
X131539567Y13654573D01*
X131539567Y13654573D02*
X131425281Y13597430D01*
X131425281Y13597430D02*
X130396709Y13597430D01*
X131596709Y14740286D02*
X130968138Y14740286D01*
X130968138Y14740286D02*
X130853852Y14683144D01*
X130853852Y14683144D02*
X130796709Y14568858D01*
X130796709Y14568858D02*
X130796709Y14340286D01*
X130796709Y14340286D02*
X130853852Y14226001D01*
X131539567Y14740286D02*
X131596709Y14626001D01*
X131596709Y14626001D02*
X131596709Y14340286D01*
X131596709Y14340286D02*
X131539567Y14226001D01*
X131539567Y14226001D02*
X131425281Y14168858D01*
X131425281Y14168858D02*
X131310995Y14168858D01*
X131310995Y14168858D02*
X131196709Y14226001D01*
X131196709Y14226001D02*
X131139567Y14340286D01*
X131139567Y14340286D02*
X131139567Y14626001D01*
X131139567Y14626001D02*
X131082424Y14740286D01*
X131596709Y15311715D02*
X130396709Y15311715D01*
X130853852Y15311715D02*
X130796709Y15426000D01*
X130796709Y15426000D02*
X130796709Y15654572D01*
X130796709Y15654572D02*
X130853852Y15768858D01*
X130853852Y15768858D02*
X130910995Y15826000D01*
X130910995Y15826000D02*
X131025281Y15883143D01*
X131025281Y15883143D02*
X131368138Y15883143D01*
X131368138Y15883143D02*
X131482424Y15826000D01*
X131482424Y15826000D02*
X131539567Y15768858D01*
X131539567Y15768858D02*
X131596709Y15654572D01*
X131596709Y15654572D02*
X131596709Y15426000D01*
X131596709Y15426000D02*
X131539567Y15311715D01*
X131482424Y16397429D02*
X131539567Y16454572D01*
X131539567Y16454572D02*
X131596709Y16397429D01*
X131596709Y16397429D02*
X131539567Y16340286D01*
X131539567Y16340286D02*
X131482424Y16397429D01*
X131482424Y16397429D02*
X131596709Y16397429D01*
X131539567Y17483143D02*
X131596709Y17368858D01*
X131596709Y17368858D02*
X131596709Y17140286D01*
X131596709Y17140286D02*
X131539567Y17026001D01*
X131539567Y17026001D02*
X131482424Y16968858D01*
X131482424Y16968858D02*
X131368138Y16911715D01*
X131368138Y16911715D02*
X131025281Y16911715D01*
X131025281Y16911715D02*
X130910995Y16968858D01*
X130910995Y16968858D02*
X130853852Y17026001D01*
X130853852Y17026001D02*
X130796709Y17140286D01*
X130796709Y17140286D02*
X130796709Y17368858D01*
X130796709Y17368858D02*
X130853852Y17483143D01*
X130796709Y17883143D02*
X130796709Y18511714D01*
X130796709Y18511714D02*
X131596709Y17883143D01*
X131596709Y17883143D02*
X131596709Y18511714D01*
X131539567Y19026001D02*
X131596709Y19026001D01*
X131596709Y19026001D02*
X131710995Y18968858D01*
X131710995Y18968858D02*
X131768138Y18911715D01*
X130510995Y20397430D02*
X130453852Y20454573D01*
X130453852Y20454573D02*
X130396709Y20568858D01*
X130396709Y20568858D02*
X130396709Y20854573D01*
X130396709Y20854573D02*
X130453852Y20968858D01*
X130453852Y20968858D02*
X130510995Y21026001D01*
X130510995Y21026001D02*
X130625281Y21083144D01*
X130625281Y21083144D02*
X130739567Y21083144D01*
X130739567Y21083144D02*
X130910995Y21026001D01*
X130910995Y21026001D02*
X131596709Y20340287D01*
X131596709Y20340287D02*
X131596709Y21083144D01*
X130396709Y21826001D02*
X130396709Y21940287D01*
X130396709Y21940287D02*
X130453852Y22054573D01*
X130453852Y22054573D02*
X130510995Y22111715D01*
X130510995Y22111715D02*
X130625281Y22168858D01*
X130625281Y22168858D02*
X130853852Y22226001D01*
X130853852Y22226001D02*
X131139567Y22226001D01*
X131139567Y22226001D02*
X131368138Y22168858D01*
X131368138Y22168858D02*
X131482424Y22111715D01*
X131482424Y22111715D02*
X131539567Y22054573D01*
X131539567Y22054573D02*
X131596709Y21940287D01*
X131596709Y21940287D02*
X131596709Y21826001D01*
X131596709Y21826001D02*
X131539567Y21711715D01*
X131539567Y21711715D02*
X131482424Y21654573D01*
X131482424Y21654573D02*
X131368138Y21597430D01*
X131368138Y21597430D02*
X131139567Y21540287D01*
X131139567Y21540287D02*
X130853852Y21540287D01*
X130853852Y21540287D02*
X130625281Y21597430D01*
X130625281Y21597430D02*
X130510995Y21654573D01*
X130510995Y21654573D02*
X130453852Y21711715D01*
X130453852Y21711715D02*
X130396709Y21826001D01*
X130510995Y22683144D02*
X130453852Y22740287D01*
X130453852Y22740287D02*
X130396709Y22854572D01*
X130396709Y22854572D02*
X130396709Y23140287D01*
X130396709Y23140287D02*
X130453852Y23254572D01*
X130453852Y23254572D02*
X130510995Y23311715D01*
X130510995Y23311715D02*
X130625281Y23368858D01*
X130625281Y23368858D02*
X130739567Y23368858D01*
X130739567Y23368858D02*
X130910995Y23311715D01*
X130910995Y23311715D02*
X131596709Y22626001D01*
X131596709Y22626001D02*
X131596709Y23368858D01*
X130396709Y24454572D02*
X130396709Y23883144D01*
X130396709Y23883144D02*
X130968138Y23826001D01*
X130968138Y23826001D02*
X130910995Y23883144D01*
X130910995Y23883144D02*
X130853852Y23997429D01*
X130853852Y23997429D02*
X130853852Y24283144D01*
X130853852Y24283144D02*
X130910995Y24397429D01*
X130910995Y24397429D02*
X130968138Y24454572D01*
X130968138Y24454572D02*
X131082424Y24511715D01*
X131082424Y24511715D02*
X131368138Y24511715D01*
X131368138Y24511715D02*
X131482424Y24454572D01*
X131482424Y24454572D02*
X131539567Y24397429D01*
X131539567Y24397429D02*
X131596709Y24283144D01*
X131596709Y24283144D02*
X131596709Y23997429D01*
X131596709Y23997429D02*
X131539567Y23883144D01*
X131539567Y23883144D02*
X131482424Y23826001D01*
D10*
X133700285Y63195820D02*
X134214571Y63195820D01*
X133957428Y63195820D02*
X133957428Y62195820D01*
X133957428Y62195820D02*
X134043142Y62338677D01*
X134043142Y62338677D02*
X134128857Y62433915D01*
X134128857Y62433915D02*
X134214571Y62481534D01*
X133143142Y62195820D02*
X133057428Y62195820D01*
X133057428Y62195820D02*
X132971714Y62243439D01*
X132971714Y62243439D02*
X132928857Y62291058D01*
X132928857Y62291058D02*
X132885999Y62386296D01*
X132885999Y62386296D02*
X132843142Y62576772D01*
X132843142Y62576772D02*
X132843142Y62814867D01*
X132843142Y62814867D02*
X132885999Y63005343D01*
X132885999Y63005343D02*
X132928857Y63100581D01*
X132928857Y63100581D02*
X132971714Y63148200D01*
X132971714Y63148200D02*
X133057428Y63195820D01*
X133057428Y63195820D02*
X133143142Y63195820D01*
X133143142Y63195820D02*
X133228857Y63148200D01*
X133228857Y63148200D02*
X133271714Y63100581D01*
X133271714Y63100581D02*
X133314571Y63005343D01*
X133314571Y63005343D02*
X133357428Y62814867D01*
X133357428Y62814867D02*
X133357428Y62576772D01*
X133357428Y62576772D02*
X133314571Y62386296D01*
X133314571Y62386296D02*
X133271714Y62291058D01*
X133271714Y62291058D02*
X133228857Y62243439D01*
X133228857Y62243439D02*
X133143142Y62195820D01*
X132285999Y62195820D02*
X132200285Y62195820D01*
X132200285Y62195820D02*
X132114571Y62243439D01*
X132114571Y62243439D02*
X132071714Y62291058D01*
X132071714Y62291058D02*
X132028856Y62386296D01*
X132028856Y62386296D02*
X131985999Y62576772D01*
X131985999Y62576772D02*
X131985999Y62814867D01*
X131985999Y62814867D02*
X132028856Y63005343D01*
X132028856Y63005343D02*
X132071714Y63100581D01*
X132071714Y63100581D02*
X132114571Y63148200D01*
X132114571Y63148200D02*
X132200285Y63195820D01*
X132200285Y63195820D02*
X132285999Y63195820D01*
X132285999Y63195820D02*
X132371714Y63148200D01*
X132371714Y63148200D02*
X132414571Y63100581D01*
X132414571Y63100581D02*
X132457428Y63005343D01*
X132457428Y63005343D02*
X132500285Y62814867D01*
X132500285Y62814867D02*
X132500285Y62576772D01*
X132500285Y62576772D02*
X132457428Y62386296D01*
X132457428Y62386296D02*
X132414571Y62291058D01*
X132414571Y62291058D02*
X132371714Y62243439D01*
X132371714Y62243439D02*
X132285999Y62195820D01*
X131643142Y63195820D02*
X130957428Y62195820D01*
X131514571Y62195820D02*
X131428856Y62243439D01*
X131428856Y62243439D02*
X131385999Y62338677D01*
X131385999Y62338677D02*
X131428856Y62433915D01*
X131428856Y62433915D02*
X131514571Y62481534D01*
X131514571Y62481534D02*
X131600285Y62433915D01*
X131600285Y62433915D02*
X131643142Y62338677D01*
X131643142Y62338677D02*
X131600285Y62243439D01*
X131600285Y62243439D02*
X131514571Y62195820D01*
X131000285Y63148200D02*
X130957428Y63052962D01*
X130957428Y63052962D02*
X131000285Y62957724D01*
X131000285Y62957724D02*
X131085999Y62910105D01*
X131085999Y62910105D02*
X131171713Y62957724D01*
X131171713Y62957724D02*
X131214571Y63052962D01*
X131214571Y63052962D02*
X131171713Y63148200D01*
X131171713Y63148200D02*
X131085999Y63195820D01*
X131085999Y63195820D02*
X131000285Y63148200D01*
D13*
X130274295Y66411115D02*
X129893342Y66144448D01*
X130274295Y65953972D02*
X129474295Y65953972D01*
X129474295Y65953972D02*
X129474295Y66258734D01*
X129474295Y66258734D02*
X129512390Y66334924D01*
X129512390Y66334924D02*
X129550485Y66373019D01*
X129550485Y66373019D02*
X129626676Y66411115D01*
X129626676Y66411115D02*
X129740961Y66411115D01*
X129740961Y66411115D02*
X129817152Y66373019D01*
X129817152Y66373019D02*
X129855247Y66334924D01*
X129855247Y66334924D02*
X129893342Y66258734D01*
X129893342Y66258734D02*
X129893342Y65953972D01*
X130274295Y67173019D02*
X130274295Y66715876D01*
X130274295Y66944448D02*
X129474295Y66944448D01*
X129474295Y66944448D02*
X129588580Y66868257D01*
X129588580Y66868257D02*
X129664771Y66792067D01*
X129664771Y66792067D02*
X129702866Y66715876D01*
X129474295Y67858734D02*
X129474295Y67706353D01*
X129474295Y67706353D02*
X129512390Y67630162D01*
X129512390Y67630162D02*
X129550485Y67592067D01*
X129550485Y67592067D02*
X129664771Y67515877D01*
X129664771Y67515877D02*
X129817152Y67477781D01*
X129817152Y67477781D02*
X130121914Y67477781D01*
X130121914Y67477781D02*
X130198104Y67515877D01*
X130198104Y67515877D02*
X130236200Y67553972D01*
X130236200Y67553972D02*
X130274295Y67630162D01*
X130274295Y67630162D02*
X130274295Y67782543D01*
X130274295Y67782543D02*
X130236200Y67858734D01*
X130236200Y67858734D02*
X130198104Y67896829D01*
X130198104Y67896829D02*
X130121914Y67934924D01*
X130121914Y67934924D02*
X129931438Y67934924D01*
X129931438Y67934924D02*
X129855247Y67896829D01*
X129855247Y67896829D02*
X129817152Y67858734D01*
X129817152Y67858734D02*
X129779057Y67782543D01*
X129779057Y67782543D02*
X129779057Y67630162D01*
X129779057Y67630162D02*
X129817152Y67553972D01*
X129817152Y67553972D02*
X129855247Y67515877D01*
X129855247Y67515877D02*
X129931438Y67477781D01*
X45507428Y82448153D02*
X45621714Y82410058D01*
X45621714Y82410058D02*
X45659809Y82371962D01*
X45659809Y82371962D02*
X45697905Y82295772D01*
X45697905Y82295772D02*
X45697905Y82181486D01*
X45697905Y82181486D02*
X45659809Y82105296D01*
X45659809Y82105296D02*
X45621714Y82067200D01*
X45621714Y82067200D02*
X45545524Y82029105D01*
X45545524Y82029105D02*
X45240762Y82029105D01*
X45240762Y82029105D02*
X45240762Y82829105D01*
X45240762Y82829105D02*
X45507428Y82829105D01*
X45507428Y82829105D02*
X45583619Y82791010D01*
X45583619Y82791010D02*
X45621714Y82752915D01*
X45621714Y82752915D02*
X45659809Y82676724D01*
X45659809Y82676724D02*
X45659809Y82600534D01*
X45659809Y82600534D02*
X45621714Y82524343D01*
X45621714Y82524343D02*
X45583619Y82486248D01*
X45583619Y82486248D02*
X45507428Y82448153D01*
X45507428Y82448153D02*
X45240762Y82448153D01*
X45926476Y82829105D02*
X46383619Y82829105D01*
X46155047Y82029105D02*
X46155047Y82829105D01*
X47069333Y82029105D02*
X46612190Y82029105D01*
X46840762Y82029105D02*
X46840762Y82829105D01*
X46840762Y82829105D02*
X46764571Y82714820D01*
X46764571Y82714820D02*
X46688381Y82638629D01*
X46688381Y82638629D02*
X46612190Y82600534D01*
D12*
X36604489Y19243997D02*
X36604489Y20767806D01*
X37366394Y20005902D02*
X35842584Y20005902D01*
X36638933Y65024096D02*
X36638933Y66547905D01*
X55938933Y65024096D02*
X55938933Y66547905D01*
X55904489Y19243997D02*
X55904489Y20767806D01*
X56666394Y20005902D02*
X55142584Y20005902D01*
D13*
X128800895Y56239437D02*
X128419942Y55972770D01*
X128800895Y55782294D02*
X128000895Y55782294D01*
X128000895Y55782294D02*
X128000895Y56087056D01*
X128000895Y56087056D02*
X128038990Y56163246D01*
X128038990Y56163246D02*
X128077085Y56201341D01*
X128077085Y56201341D02*
X128153276Y56239437D01*
X128153276Y56239437D02*
X128267561Y56239437D01*
X128267561Y56239437D02*
X128343752Y56201341D01*
X128343752Y56201341D02*
X128381847Y56163246D01*
X128381847Y56163246D02*
X128419942Y56087056D01*
X128419942Y56087056D02*
X128419942Y55782294D01*
X128000895Y56925151D02*
X128000895Y56772770D01*
X128000895Y56772770D02*
X128038990Y56696579D01*
X128038990Y56696579D02*
X128077085Y56658484D01*
X128077085Y56658484D02*
X128191371Y56582294D01*
X128191371Y56582294D02*
X128343752Y56544198D01*
X128343752Y56544198D02*
X128648514Y56544198D01*
X128648514Y56544198D02*
X128724704Y56582294D01*
X128724704Y56582294D02*
X128762800Y56620389D01*
X128762800Y56620389D02*
X128800895Y56696579D01*
X128800895Y56696579D02*
X128800895Y56848960D01*
X128800895Y56848960D02*
X128762800Y56925151D01*
X128762800Y56925151D02*
X128724704Y56963246D01*
X128724704Y56963246D02*
X128648514Y57001341D01*
X128648514Y57001341D02*
X128458038Y57001341D01*
X128458038Y57001341D02*
X128381847Y56963246D01*
X128381847Y56963246D02*
X128343752Y56925151D01*
X128343752Y56925151D02*
X128305657Y56848960D01*
X128305657Y56848960D02*
X128305657Y56696579D01*
X128305657Y56696579D02*
X128343752Y56620389D01*
X128343752Y56620389D02*
X128381847Y56582294D01*
X128381847Y56582294D02*
X128458038Y56544198D01*
X128000895Y57268008D02*
X128000895Y57801342D01*
X128000895Y57801342D02*
X128800895Y57458484D01*
X128775895Y44056103D02*
X128394942Y43789436D01*
X128775895Y43598960D02*
X127975895Y43598960D01*
X127975895Y43598960D02*
X127975895Y43903722D01*
X127975895Y43903722D02*
X128013990Y43979912D01*
X128013990Y43979912D02*
X128052085Y44018007D01*
X128052085Y44018007D02*
X128128276Y44056103D01*
X128128276Y44056103D02*
X128242561Y44056103D01*
X128242561Y44056103D02*
X128318752Y44018007D01*
X128318752Y44018007D02*
X128356847Y43979912D01*
X128356847Y43979912D02*
X128394942Y43903722D01*
X128394942Y43903722D02*
X128394942Y43598960D01*
X127975895Y44741817D02*
X127975895Y44589436D01*
X127975895Y44589436D02*
X128013990Y44513245D01*
X128013990Y44513245D02*
X128052085Y44475150D01*
X128052085Y44475150D02*
X128166371Y44398960D01*
X128166371Y44398960D02*
X128318752Y44360864D01*
X128318752Y44360864D02*
X128623514Y44360864D01*
X128623514Y44360864D02*
X128699704Y44398960D01*
X128699704Y44398960D02*
X128737800Y44437055D01*
X128737800Y44437055D02*
X128775895Y44513245D01*
X128775895Y44513245D02*
X128775895Y44665626D01*
X128775895Y44665626D02*
X128737800Y44741817D01*
X128737800Y44741817D02*
X128699704Y44779912D01*
X128699704Y44779912D02*
X128623514Y44818007D01*
X128623514Y44818007D02*
X128433038Y44818007D01*
X128433038Y44818007D02*
X128356847Y44779912D01*
X128356847Y44779912D02*
X128318752Y44741817D01*
X128318752Y44741817D02*
X128280657Y44665626D01*
X128280657Y44665626D02*
X128280657Y44513245D01*
X128280657Y44513245D02*
X128318752Y44437055D01*
X128318752Y44437055D02*
X128356847Y44398960D01*
X128356847Y44398960D02*
X128433038Y44360864D01*
X127975895Y45084674D02*
X127975895Y45579912D01*
X127975895Y45579912D02*
X128280657Y45313246D01*
X128280657Y45313246D02*
X128280657Y45427531D01*
X128280657Y45427531D02*
X128318752Y45503722D01*
X128318752Y45503722D02*
X128356847Y45541817D01*
X128356847Y45541817D02*
X128433038Y45579912D01*
X128433038Y45579912D02*
X128623514Y45579912D01*
X128623514Y45579912D02*
X128699704Y45541817D01*
X128699704Y45541817D02*
X128737800Y45503722D01*
X128737800Y45503722D02*
X128775895Y45427531D01*
X128775895Y45427531D02*
X128775895Y45198960D01*
X128775895Y45198960D02*
X128737800Y45122769D01*
X128737800Y45122769D02*
X128699704Y45084674D01*
X128800895Y61056103D02*
X128419942Y60789436D01*
X128800895Y60598960D02*
X128000895Y60598960D01*
X128000895Y60598960D02*
X128000895Y60903722D01*
X128000895Y60903722D02*
X128038990Y60979912D01*
X128038990Y60979912D02*
X128077085Y61018007D01*
X128077085Y61018007D02*
X128153276Y61056103D01*
X128153276Y61056103D02*
X128267561Y61056103D01*
X128267561Y61056103D02*
X128343752Y61018007D01*
X128343752Y61018007D02*
X128381847Y60979912D01*
X128381847Y60979912D02*
X128419942Y60903722D01*
X128419942Y60903722D02*
X128419942Y60598960D01*
X128000895Y61741817D02*
X128000895Y61589436D01*
X128000895Y61589436D02*
X128038990Y61513245D01*
X128038990Y61513245D02*
X128077085Y61475150D01*
X128077085Y61475150D02*
X128191371Y61398960D01*
X128191371Y61398960D02*
X128343752Y61360864D01*
X128343752Y61360864D02*
X128648514Y61360864D01*
X128648514Y61360864D02*
X128724704Y61398960D01*
X128724704Y61398960D02*
X128762800Y61437055D01*
X128762800Y61437055D02*
X128800895Y61513245D01*
X128800895Y61513245D02*
X128800895Y61665626D01*
X128800895Y61665626D02*
X128762800Y61741817D01*
X128762800Y61741817D02*
X128724704Y61779912D01*
X128724704Y61779912D02*
X128648514Y61818007D01*
X128648514Y61818007D02*
X128458038Y61818007D01*
X128458038Y61818007D02*
X128381847Y61779912D01*
X128381847Y61779912D02*
X128343752Y61741817D01*
X128343752Y61741817D02*
X128305657Y61665626D01*
X128305657Y61665626D02*
X128305657Y61513245D01*
X128305657Y61513245D02*
X128343752Y61437055D01*
X128343752Y61437055D02*
X128381847Y61398960D01*
X128381847Y61398960D02*
X128458038Y61360864D01*
X128800895Y62198960D02*
X128800895Y62351341D01*
X128800895Y62351341D02*
X128762800Y62427531D01*
X128762800Y62427531D02*
X128724704Y62465627D01*
X128724704Y62465627D02*
X128610419Y62541817D01*
X128610419Y62541817D02*
X128458038Y62579912D01*
X128458038Y62579912D02*
X128153276Y62579912D01*
X128153276Y62579912D02*
X128077085Y62541817D01*
X128077085Y62541817D02*
X128038990Y62503722D01*
X128038990Y62503722D02*
X128000895Y62427531D01*
X128000895Y62427531D02*
X128000895Y62275150D01*
X128000895Y62275150D02*
X128038990Y62198960D01*
X128038990Y62198960D02*
X128077085Y62160865D01*
X128077085Y62160865D02*
X128153276Y62122769D01*
X128153276Y62122769D02*
X128343752Y62122769D01*
X128343752Y62122769D02*
X128419942Y62160865D01*
X128419942Y62160865D02*
X128458038Y62198960D01*
X128458038Y62198960D02*
X128496133Y62275150D01*
X128496133Y62275150D02*
X128496133Y62427531D01*
X128496133Y62427531D02*
X128458038Y62503722D01*
X128458038Y62503722D02*
X128419942Y62541817D01*
X128419942Y62541817D02*
X128343752Y62579912D01*
X131393495Y69001925D02*
X130593495Y69001925D01*
X130593495Y69001925D02*
X130593495Y69192401D01*
X130593495Y69192401D02*
X130631590Y69306687D01*
X130631590Y69306687D02*
X130707780Y69382877D01*
X130707780Y69382877D02*
X130783971Y69420972D01*
X130783971Y69420972D02*
X130936352Y69459068D01*
X130936352Y69459068D02*
X131050638Y69459068D01*
X131050638Y69459068D02*
X131203019Y69420972D01*
X131203019Y69420972D02*
X131279209Y69382877D01*
X131279209Y69382877D02*
X131355400Y69306687D01*
X131355400Y69306687D02*
X131393495Y69192401D01*
X131393495Y69192401D02*
X131393495Y69001925D01*
X130669685Y69763829D02*
X130631590Y69801925D01*
X130631590Y69801925D02*
X130593495Y69878115D01*
X130593495Y69878115D02*
X130593495Y70068591D01*
X130593495Y70068591D02*
X130631590Y70144782D01*
X130631590Y70144782D02*
X130669685Y70182877D01*
X130669685Y70182877D02*
X130745876Y70220972D01*
X130745876Y70220972D02*
X130822066Y70220972D01*
X130822066Y70220972D02*
X130936352Y70182877D01*
X130936352Y70182877D02*
X131393495Y69725734D01*
X131393495Y69725734D02*
X131393495Y70220972D01*
X76444928Y63611105D02*
X76902071Y63611105D01*
X76673499Y62811105D02*
X76673499Y63611105D01*
X77168738Y62811105D02*
X77168738Y63611105D01*
X77168738Y63230153D02*
X77625881Y63230153D01*
X77625881Y62811105D02*
X77625881Y63611105D01*
X77968737Y63534915D02*
X78006833Y63573010D01*
X78006833Y63573010D02*
X78083023Y63611105D01*
X78083023Y63611105D02*
X78273499Y63611105D01*
X78273499Y63611105D02*
X78349690Y63573010D01*
X78349690Y63573010D02*
X78387785Y63534915D01*
X78387785Y63534915D02*
X78425880Y63458724D01*
X78425880Y63458724D02*
X78425880Y63382534D01*
X78425880Y63382534D02*
X78387785Y63268248D01*
X78387785Y63268248D02*
X77930642Y62811105D01*
X77930642Y62811105D02*
X78425880Y62811105D01*
X127902932Y38684000D02*
X128017218Y38645905D01*
X128017218Y38645905D02*
X128207694Y38645905D01*
X128207694Y38645905D02*
X128283885Y38684000D01*
X128283885Y38684000D02*
X128321980Y38722096D01*
X128321980Y38722096D02*
X128360075Y38798286D01*
X128360075Y38798286D02*
X128360075Y38874477D01*
X128360075Y38874477D02*
X128321980Y38950667D01*
X128321980Y38950667D02*
X128283885Y38988762D01*
X128283885Y38988762D02*
X128207694Y39026858D01*
X128207694Y39026858D02*
X128055313Y39064953D01*
X128055313Y39064953D02*
X127979123Y39103048D01*
X127979123Y39103048D02*
X127941028Y39141143D01*
X127941028Y39141143D02*
X127902932Y39217334D01*
X127902932Y39217334D02*
X127902932Y39293524D01*
X127902932Y39293524D02*
X127941028Y39369715D01*
X127941028Y39369715D02*
X127979123Y39407810D01*
X127979123Y39407810D02*
X128055313Y39445905D01*
X128055313Y39445905D02*
X128245790Y39445905D01*
X128245790Y39445905D02*
X128360075Y39407810D01*
X128626742Y39445905D02*
X128817218Y38645905D01*
X128817218Y38645905D02*
X128969599Y39217334D01*
X128969599Y39217334D02*
X129121980Y38645905D01*
X129121980Y38645905D02*
X129312457Y39445905D01*
X129541028Y39445905D02*
X130036266Y39445905D01*
X130036266Y39445905D02*
X129769600Y39141143D01*
X129769600Y39141143D02*
X129883885Y39141143D01*
X129883885Y39141143D02*
X129960076Y39103048D01*
X129960076Y39103048D02*
X129998171Y39064953D01*
X129998171Y39064953D02*
X130036266Y38988762D01*
X130036266Y38988762D02*
X130036266Y38798286D01*
X130036266Y38798286D02*
X129998171Y38722096D01*
X129998171Y38722096D02*
X129960076Y38684000D01*
X129960076Y38684000D02*
X129883885Y38645905D01*
X129883885Y38645905D02*
X129655314Y38645905D01*
X129655314Y38645905D02*
X129579123Y38684000D01*
X129579123Y38684000D02*
X129541028Y38722096D01*
X76531428Y58191105D02*
X76988571Y58191105D01*
X76759999Y57391105D02*
X76759999Y58191105D01*
X77255238Y57391105D02*
X77255238Y58191105D01*
X77255238Y57810153D02*
X77712381Y57810153D01*
X77712381Y57391105D02*
X77712381Y58191105D01*
X78512380Y57391105D02*
X78055237Y57391105D01*
X78283809Y57391105D02*
X78283809Y58191105D01*
X78283809Y58191105D02*
X78207618Y58076820D01*
X78207618Y58076820D02*
X78131428Y58000629D01*
X78131428Y58000629D02*
X78055237Y57962534D01*
X128775895Y49156103D02*
X128394942Y48889436D01*
X128775895Y48698960D02*
X127975895Y48698960D01*
X127975895Y48698960D02*
X127975895Y49003722D01*
X127975895Y49003722D02*
X128013990Y49079912D01*
X128013990Y49079912D02*
X128052085Y49118007D01*
X128052085Y49118007D02*
X128128276Y49156103D01*
X128128276Y49156103D02*
X128242561Y49156103D01*
X128242561Y49156103D02*
X128318752Y49118007D01*
X128318752Y49118007D02*
X128356847Y49079912D01*
X128356847Y49079912D02*
X128394942Y49003722D01*
X128394942Y49003722D02*
X128394942Y48698960D01*
X127975895Y49841817D02*
X127975895Y49689436D01*
X127975895Y49689436D02*
X128013990Y49613245D01*
X128013990Y49613245D02*
X128052085Y49575150D01*
X128052085Y49575150D02*
X128166371Y49498960D01*
X128166371Y49498960D02*
X128318752Y49460864D01*
X128318752Y49460864D02*
X128623514Y49460864D01*
X128623514Y49460864D02*
X128699704Y49498960D01*
X128699704Y49498960D02*
X128737800Y49537055D01*
X128737800Y49537055D02*
X128775895Y49613245D01*
X128775895Y49613245D02*
X128775895Y49765626D01*
X128775895Y49765626D02*
X128737800Y49841817D01*
X128737800Y49841817D02*
X128699704Y49879912D01*
X128699704Y49879912D02*
X128623514Y49918007D01*
X128623514Y49918007D02*
X128433038Y49918007D01*
X128433038Y49918007D02*
X128356847Y49879912D01*
X128356847Y49879912D02*
X128318752Y49841817D01*
X128318752Y49841817D02*
X128280657Y49765626D01*
X128280657Y49765626D02*
X128280657Y49613245D01*
X128280657Y49613245D02*
X128318752Y49537055D01*
X128318752Y49537055D02*
X128356847Y49498960D01*
X128356847Y49498960D02*
X128433038Y49460864D01*
X127975895Y50641817D02*
X127975895Y50260865D01*
X127975895Y50260865D02*
X128356847Y50222769D01*
X128356847Y50222769D02*
X128318752Y50260865D01*
X128318752Y50260865D02*
X128280657Y50337055D01*
X128280657Y50337055D02*
X128280657Y50527531D01*
X128280657Y50527531D02*
X128318752Y50603722D01*
X128318752Y50603722D02*
X128356847Y50641817D01*
X128356847Y50641817D02*
X128433038Y50679912D01*
X128433038Y50679912D02*
X128623514Y50679912D01*
X128623514Y50679912D02*
X128699704Y50641817D01*
X128699704Y50641817D02*
X128737800Y50603722D01*
X128737800Y50603722D02*
X128775895Y50527531D01*
X128775895Y50527531D02*
X128775895Y50337055D01*
X128775895Y50337055D02*
X128737800Y50260865D01*
X128737800Y50260865D02*
X128699704Y50222769D01*
X133625895Y17260525D02*
X132825895Y17260525D01*
X132825895Y17260525D02*
X132825895Y17451001D01*
X132825895Y17451001D02*
X132863990Y17565287D01*
X132863990Y17565287D02*
X132940180Y17641477D01*
X132940180Y17641477D02*
X133016371Y17679572D01*
X133016371Y17679572D02*
X133168752Y17717668D01*
X133168752Y17717668D02*
X133283038Y17717668D01*
X133283038Y17717668D02*
X133435419Y17679572D01*
X133435419Y17679572D02*
X133511609Y17641477D01*
X133511609Y17641477D02*
X133587800Y17565287D01*
X133587800Y17565287D02*
X133625895Y17451001D01*
X133625895Y17451001D02*
X133625895Y17260525D01*
X133092561Y18403382D02*
X133625895Y18403382D01*
X132787800Y18212906D02*
X133359228Y18022429D01*
X133359228Y18022429D02*
X133359228Y18517668D01*
X130450895Y48873960D02*
X129650895Y48873960D01*
X129650895Y48873960D02*
X129650895Y49064436D01*
X129650895Y49064436D02*
X129688990Y49178722D01*
X129688990Y49178722D02*
X129765180Y49254912D01*
X129765180Y49254912D02*
X129841371Y49293007D01*
X129841371Y49293007D02*
X129993752Y49331103D01*
X129993752Y49331103D02*
X130108038Y49331103D01*
X130108038Y49331103D02*
X130260419Y49293007D01*
X130260419Y49293007D02*
X130336609Y49254912D01*
X130336609Y49254912D02*
X130412800Y49178722D01*
X130412800Y49178722D02*
X130450895Y49064436D01*
X130450895Y49064436D02*
X130450895Y48873960D01*
X130450895Y50093007D02*
X130450895Y49635864D01*
X130450895Y49864436D02*
X129650895Y49864436D01*
X129650895Y49864436D02*
X129765180Y49788245D01*
X129765180Y49788245D02*
X129841371Y49712055D01*
X129841371Y49712055D02*
X129879466Y49635864D01*
X129727085Y50397769D02*
X129688990Y50435865D01*
X129688990Y50435865D02*
X129650895Y50512055D01*
X129650895Y50512055D02*
X129650895Y50702531D01*
X129650895Y50702531D02*
X129688990Y50778722D01*
X129688990Y50778722D02*
X129727085Y50816817D01*
X129727085Y50816817D02*
X129803276Y50854912D01*
X129803276Y50854912D02*
X129879466Y50854912D01*
X129879466Y50854912D02*
X129993752Y50816817D01*
X129993752Y50816817D02*
X130450895Y50359674D01*
X130450895Y50359674D02*
X130450895Y50854912D01*
D12*
X96938933Y19304096D02*
X96938933Y20827905D01*
X97700838Y20066001D02*
X96177028Y20066001D01*
X116238933Y19304096D02*
X116238933Y20827905D01*
X117000838Y20066001D02*
X115477028Y20066001D01*
X77638933Y65024096D02*
X77638933Y66547905D01*
X96938933Y65024096D02*
X96938933Y66547905D01*
D13*
X95524228Y82448153D02*
X95638514Y82410058D01*
X95638514Y82410058D02*
X95676609Y82371962D01*
X95676609Y82371962D02*
X95714705Y82295772D01*
X95714705Y82295772D02*
X95714705Y82181486D01*
X95714705Y82181486D02*
X95676609Y82105296D01*
X95676609Y82105296D02*
X95638514Y82067200D01*
X95638514Y82067200D02*
X95562324Y82029105D01*
X95562324Y82029105D02*
X95257562Y82029105D01*
X95257562Y82029105D02*
X95257562Y82829105D01*
X95257562Y82829105D02*
X95524228Y82829105D01*
X95524228Y82829105D02*
X95600419Y82791010D01*
X95600419Y82791010D02*
X95638514Y82752915D01*
X95638514Y82752915D02*
X95676609Y82676724D01*
X95676609Y82676724D02*
X95676609Y82600534D01*
X95676609Y82600534D02*
X95638514Y82524343D01*
X95638514Y82524343D02*
X95600419Y82486248D01*
X95600419Y82486248D02*
X95524228Y82448153D01*
X95524228Y82448153D02*
X95257562Y82448153D01*
X95943276Y82829105D02*
X96400419Y82829105D01*
X96171847Y82029105D02*
X96171847Y82829105D01*
X96628990Y82752915D02*
X96667086Y82791010D01*
X96667086Y82791010D02*
X96743276Y82829105D01*
X96743276Y82829105D02*
X96933752Y82829105D01*
X96933752Y82829105D02*
X97009943Y82791010D01*
X97009943Y82791010D02*
X97048038Y82752915D01*
X97048038Y82752915D02*
X97086133Y82676724D01*
X97086133Y82676724D02*
X97086133Y82600534D01*
X97086133Y82600534D02*
X97048038Y82486248D01*
X97048038Y82486248D02*
X96590895Y82029105D01*
X96590895Y82029105D02*
X97086133Y82029105D01*
D12*
X116238933Y65024096D02*
X116238933Y66547905D01*
X77638933Y19304096D02*
X77638933Y20827905D01*
X78400838Y20066001D02*
X76877028Y20066001D01*
D13*
X130425895Y60099980D02*
X129625895Y60099980D01*
X129625895Y60099980D02*
X129625895Y60290456D01*
X129625895Y60290456D02*
X129663990Y60404742D01*
X129663990Y60404742D02*
X129740180Y60480932D01*
X129740180Y60480932D02*
X129816371Y60519027D01*
X129816371Y60519027D02*
X129968752Y60557123D01*
X129968752Y60557123D02*
X130083038Y60557123D01*
X130083038Y60557123D02*
X130235419Y60519027D01*
X130235419Y60519027D02*
X130311609Y60480932D01*
X130311609Y60480932D02*
X130387800Y60404742D01*
X130387800Y60404742D02*
X130425895Y60290456D01*
X130425895Y60290456D02*
X130425895Y60099980D01*
X130425895Y61319027D02*
X130425895Y60861884D01*
X130425895Y61090456D02*
X129625895Y61090456D01*
X129625895Y61090456D02*
X129740180Y61014265D01*
X129740180Y61014265D02*
X129816371Y60938075D01*
X129816371Y60938075D02*
X129854466Y60861884D01*
X129625895Y62004742D02*
X129625895Y61852361D01*
X129625895Y61852361D02*
X129663990Y61776170D01*
X129663990Y61776170D02*
X129702085Y61738075D01*
X129702085Y61738075D02*
X129816371Y61661885D01*
X129816371Y61661885D02*
X129968752Y61623789D01*
X129968752Y61623789D02*
X130273514Y61623789D01*
X130273514Y61623789D02*
X130349704Y61661885D01*
X130349704Y61661885D02*
X130387800Y61699980D01*
X130387800Y61699980D02*
X130425895Y61776170D01*
X130425895Y61776170D02*
X130425895Y61928551D01*
X130425895Y61928551D02*
X130387800Y62004742D01*
X130387800Y62004742D02*
X130349704Y62042837D01*
X130349704Y62042837D02*
X130273514Y62080932D01*
X130273514Y62080932D02*
X130083038Y62080932D01*
X130083038Y62080932D02*
X130006847Y62042837D01*
X130006847Y62042837D02*
X129968752Y62004742D01*
X129968752Y62004742D02*
X129930657Y61928551D01*
X129930657Y61928551D02*
X129930657Y61776170D01*
X129930657Y61776170D02*
X129968752Y61699980D01*
X129968752Y61699980D02*
X130006847Y61661885D01*
X130006847Y61661885D02*
X130083038Y61623789D01*
X130121895Y69027315D02*
X129740942Y68760648D01*
X130121895Y68570172D02*
X129321895Y68570172D01*
X129321895Y68570172D02*
X129321895Y68874934D01*
X129321895Y68874934D02*
X129359990Y68951124D01*
X129359990Y68951124D02*
X129398085Y68989219D01*
X129398085Y68989219D02*
X129474276Y69027315D01*
X129474276Y69027315D02*
X129588561Y69027315D01*
X129588561Y69027315D02*
X129664752Y68989219D01*
X129664752Y68989219D02*
X129702847Y68951124D01*
X129702847Y68951124D02*
X129740942Y68874934D01*
X129740942Y68874934D02*
X129740942Y68570172D01*
X129398085Y69332076D02*
X129359990Y69370172D01*
X129359990Y69370172D02*
X129321895Y69446362D01*
X129321895Y69446362D02*
X129321895Y69636838D01*
X129321895Y69636838D02*
X129359990Y69713029D01*
X129359990Y69713029D02*
X129398085Y69751124D01*
X129398085Y69751124D02*
X129474276Y69789219D01*
X129474276Y69789219D02*
X129550466Y69789219D01*
X129550466Y69789219D02*
X129664752Y69751124D01*
X129664752Y69751124D02*
X130121895Y69293981D01*
X130121895Y69293981D02*
X130121895Y69789219D01*
X129398085Y70093981D02*
X129359990Y70132077D01*
X129359990Y70132077D02*
X129321895Y70208267D01*
X129321895Y70208267D02*
X129321895Y70398743D01*
X129321895Y70398743D02*
X129359990Y70474934D01*
X129359990Y70474934D02*
X129398085Y70513029D01*
X129398085Y70513029D02*
X129474276Y70551124D01*
X129474276Y70551124D02*
X129550466Y70551124D01*
X129550466Y70551124D02*
X129664752Y70513029D01*
X129664752Y70513029D02*
X130121895Y70055886D01*
X130121895Y70055886D02*
X130121895Y70551124D01*
X131544295Y66080925D02*
X130744295Y66080925D01*
X130744295Y66080925D02*
X130744295Y66271401D01*
X130744295Y66271401D02*
X130782390Y66385687D01*
X130782390Y66385687D02*
X130858580Y66461877D01*
X130858580Y66461877D02*
X130934771Y66499972D01*
X130934771Y66499972D02*
X131087152Y66538068D01*
X131087152Y66538068D02*
X131201438Y66538068D01*
X131201438Y66538068D02*
X131353819Y66499972D01*
X131353819Y66499972D02*
X131430009Y66461877D01*
X131430009Y66461877D02*
X131506200Y66385687D01*
X131506200Y66385687D02*
X131544295Y66271401D01*
X131544295Y66271401D02*
X131544295Y66080925D01*
X131544295Y67299972D02*
X131544295Y66842829D01*
X131544295Y67071401D02*
X130744295Y67071401D01*
X130744295Y67071401D02*
X130858580Y66995210D01*
X130858580Y66995210D02*
X130934771Y66919020D01*
X130934771Y66919020D02*
X130972866Y66842829D01*
X133625895Y22810525D02*
X132825895Y22810525D01*
X132825895Y22810525D02*
X132825895Y23001001D01*
X132825895Y23001001D02*
X132863990Y23115287D01*
X132863990Y23115287D02*
X132940180Y23191477D01*
X132940180Y23191477D02*
X133016371Y23229572D01*
X133016371Y23229572D02*
X133168752Y23267668D01*
X133168752Y23267668D02*
X133283038Y23267668D01*
X133283038Y23267668D02*
X133435419Y23229572D01*
X133435419Y23229572D02*
X133511609Y23191477D01*
X133511609Y23191477D02*
X133587800Y23115287D01*
X133587800Y23115287D02*
X133625895Y23001001D01*
X133625895Y23001001D02*
X133625895Y22810525D01*
X132825895Y23534334D02*
X132825895Y24029572D01*
X132825895Y24029572D02*
X133130657Y23762906D01*
X133130657Y23762906D02*
X133130657Y23877191D01*
X133130657Y23877191D02*
X133168752Y23953382D01*
X133168752Y23953382D02*
X133206847Y23991477D01*
X133206847Y23991477D02*
X133283038Y24029572D01*
X133283038Y24029572D02*
X133473514Y24029572D01*
X133473514Y24029572D02*
X133549704Y23991477D01*
X133549704Y23991477D02*
X133587800Y23953382D01*
X133587800Y23953382D02*
X133625895Y23877191D01*
X133625895Y23877191D02*
X133625895Y23648620D01*
X133625895Y23648620D02*
X133587800Y23572429D01*
X133587800Y23572429D02*
X133549704Y23534334D01*
X130450895Y54448960D02*
X129650895Y54448960D01*
X129650895Y54448960D02*
X129650895Y54639436D01*
X129650895Y54639436D02*
X129688990Y54753722D01*
X129688990Y54753722D02*
X129765180Y54829912D01*
X129765180Y54829912D02*
X129841371Y54868007D01*
X129841371Y54868007D02*
X129993752Y54906103D01*
X129993752Y54906103D02*
X130108038Y54906103D01*
X130108038Y54906103D02*
X130260419Y54868007D01*
X130260419Y54868007D02*
X130336609Y54829912D01*
X130336609Y54829912D02*
X130412800Y54753722D01*
X130412800Y54753722D02*
X130450895Y54639436D01*
X130450895Y54639436D02*
X130450895Y54448960D01*
X130450895Y55668007D02*
X130450895Y55210864D01*
X130450895Y55439436D02*
X129650895Y55439436D01*
X129650895Y55439436D02*
X129765180Y55363245D01*
X129765180Y55363245D02*
X129841371Y55287055D01*
X129841371Y55287055D02*
X129879466Y55210864D01*
X129917561Y56353722D02*
X130450895Y56353722D01*
X129612800Y56163246D02*
X130184228Y55972769D01*
X130184228Y55972769D02*
X130184228Y56468008D01*
X128775895Y41506103D02*
X128394942Y41239436D01*
X128775895Y41048960D02*
X127975895Y41048960D01*
X127975895Y41048960D02*
X127975895Y41353722D01*
X127975895Y41353722D02*
X128013990Y41429912D01*
X128013990Y41429912D02*
X128052085Y41468007D01*
X128052085Y41468007D02*
X128128276Y41506103D01*
X128128276Y41506103D02*
X128242561Y41506103D01*
X128242561Y41506103D02*
X128318752Y41468007D01*
X128318752Y41468007D02*
X128356847Y41429912D01*
X128356847Y41429912D02*
X128394942Y41353722D01*
X128394942Y41353722D02*
X128394942Y41048960D01*
X127975895Y42191817D02*
X127975895Y42039436D01*
X127975895Y42039436D02*
X128013990Y41963245D01*
X128013990Y41963245D02*
X128052085Y41925150D01*
X128052085Y41925150D02*
X128166371Y41848960D01*
X128166371Y41848960D02*
X128318752Y41810864D01*
X128318752Y41810864D02*
X128623514Y41810864D01*
X128623514Y41810864D02*
X128699704Y41848960D01*
X128699704Y41848960D02*
X128737800Y41887055D01*
X128737800Y41887055D02*
X128775895Y41963245D01*
X128775895Y41963245D02*
X128775895Y42115626D01*
X128775895Y42115626D02*
X128737800Y42191817D01*
X128737800Y42191817D02*
X128699704Y42229912D01*
X128699704Y42229912D02*
X128623514Y42268007D01*
X128623514Y42268007D02*
X128433038Y42268007D01*
X128433038Y42268007D02*
X128356847Y42229912D01*
X128356847Y42229912D02*
X128318752Y42191817D01*
X128318752Y42191817D02*
X128280657Y42115626D01*
X128280657Y42115626D02*
X128280657Y41963245D01*
X128280657Y41963245D02*
X128318752Y41887055D01*
X128318752Y41887055D02*
X128356847Y41848960D01*
X128356847Y41848960D02*
X128433038Y41810864D01*
X128052085Y42572769D02*
X128013990Y42610865D01*
X128013990Y42610865D02*
X127975895Y42687055D01*
X127975895Y42687055D02*
X127975895Y42877531D01*
X127975895Y42877531D02*
X128013990Y42953722D01*
X128013990Y42953722D02*
X128052085Y42991817D01*
X128052085Y42991817D02*
X128128276Y43029912D01*
X128128276Y43029912D02*
X128204466Y43029912D01*
X128204466Y43029912D02*
X128318752Y42991817D01*
X128318752Y42991817D02*
X128775895Y42534674D01*
X128775895Y42534674D02*
X128775895Y43029912D01*
X128800895Y58647770D02*
X128419942Y58381103D01*
X128800895Y58190627D02*
X128000895Y58190627D01*
X128000895Y58190627D02*
X128000895Y58495389D01*
X128000895Y58495389D02*
X128038990Y58571579D01*
X128038990Y58571579D02*
X128077085Y58609674D01*
X128077085Y58609674D02*
X128153276Y58647770D01*
X128153276Y58647770D02*
X128267561Y58647770D01*
X128267561Y58647770D02*
X128343752Y58609674D01*
X128343752Y58609674D02*
X128381847Y58571579D01*
X128381847Y58571579D02*
X128419942Y58495389D01*
X128419942Y58495389D02*
X128419942Y58190627D01*
X128000895Y59333484D02*
X128000895Y59181103D01*
X128000895Y59181103D02*
X128038990Y59104912D01*
X128038990Y59104912D02*
X128077085Y59066817D01*
X128077085Y59066817D02*
X128191371Y58990627D01*
X128191371Y58990627D02*
X128343752Y58952531D01*
X128343752Y58952531D02*
X128648514Y58952531D01*
X128648514Y58952531D02*
X128724704Y58990627D01*
X128724704Y58990627D02*
X128762800Y59028722D01*
X128762800Y59028722D02*
X128800895Y59104912D01*
X128800895Y59104912D02*
X128800895Y59257293D01*
X128800895Y59257293D02*
X128762800Y59333484D01*
X128762800Y59333484D02*
X128724704Y59371579D01*
X128724704Y59371579D02*
X128648514Y59409674D01*
X128648514Y59409674D02*
X128458038Y59409674D01*
X128458038Y59409674D02*
X128381847Y59371579D01*
X128381847Y59371579D02*
X128343752Y59333484D01*
X128343752Y59333484D02*
X128305657Y59257293D01*
X128305657Y59257293D02*
X128305657Y59104912D01*
X128305657Y59104912D02*
X128343752Y59028722D01*
X128343752Y59028722D02*
X128381847Y58990627D01*
X128381847Y58990627D02*
X128458038Y58952531D01*
X128343752Y59866817D02*
X128305657Y59790627D01*
X128305657Y59790627D02*
X128267561Y59752532D01*
X128267561Y59752532D02*
X128191371Y59714436D01*
X128191371Y59714436D02*
X128153276Y59714436D01*
X128153276Y59714436D02*
X128077085Y59752532D01*
X128077085Y59752532D02*
X128038990Y59790627D01*
X128038990Y59790627D02*
X128000895Y59866817D01*
X128000895Y59866817D02*
X128000895Y60019198D01*
X128000895Y60019198D02*
X128038990Y60095389D01*
X128038990Y60095389D02*
X128077085Y60133484D01*
X128077085Y60133484D02*
X128153276Y60171579D01*
X128153276Y60171579D02*
X128191371Y60171579D01*
X128191371Y60171579D02*
X128267561Y60133484D01*
X128267561Y60133484D02*
X128305657Y60095389D01*
X128305657Y60095389D02*
X128343752Y60019198D01*
X128343752Y60019198D02*
X128343752Y59866817D01*
X128343752Y59866817D02*
X128381847Y59790627D01*
X128381847Y59790627D02*
X128419942Y59752532D01*
X128419942Y59752532D02*
X128496133Y59714436D01*
X128496133Y59714436D02*
X128648514Y59714436D01*
X128648514Y59714436D02*
X128724704Y59752532D01*
X128724704Y59752532D02*
X128762800Y59790627D01*
X128762800Y59790627D02*
X128800895Y59866817D01*
X128800895Y59866817D02*
X128800895Y60019198D01*
X128800895Y60019198D02*
X128762800Y60095389D01*
X128762800Y60095389D02*
X128724704Y60133484D01*
X128724704Y60133484D02*
X128648514Y60171579D01*
X128648514Y60171579D02*
X128496133Y60171579D01*
X128496133Y60171579D02*
X128419942Y60133484D01*
X128419942Y60133484D02*
X128381847Y60095389D01*
X128381847Y60095389D02*
X128343752Y60019198D01*
X130450895Y57248960D02*
X129650895Y57248960D01*
X129650895Y57248960D02*
X129650895Y57439436D01*
X129650895Y57439436D02*
X129688990Y57553722D01*
X129688990Y57553722D02*
X129765180Y57629912D01*
X129765180Y57629912D02*
X129841371Y57668007D01*
X129841371Y57668007D02*
X129993752Y57706103D01*
X129993752Y57706103D02*
X130108038Y57706103D01*
X130108038Y57706103D02*
X130260419Y57668007D01*
X130260419Y57668007D02*
X130336609Y57629912D01*
X130336609Y57629912D02*
X130412800Y57553722D01*
X130412800Y57553722D02*
X130450895Y57439436D01*
X130450895Y57439436D02*
X130450895Y57248960D01*
X130450895Y58468007D02*
X130450895Y58010864D01*
X130450895Y58239436D02*
X129650895Y58239436D01*
X129650895Y58239436D02*
X129765180Y58163245D01*
X129765180Y58163245D02*
X129841371Y58087055D01*
X129841371Y58087055D02*
X129879466Y58010864D01*
X129650895Y59191817D02*
X129650895Y58810865D01*
X129650895Y58810865D02*
X130031847Y58772769D01*
X130031847Y58772769D02*
X129993752Y58810865D01*
X129993752Y58810865D02*
X129955657Y58887055D01*
X129955657Y58887055D02*
X129955657Y59077531D01*
X129955657Y59077531D02*
X129993752Y59153722D01*
X129993752Y59153722D02*
X130031847Y59191817D01*
X130031847Y59191817D02*
X130108038Y59229912D01*
X130108038Y59229912D02*
X130298514Y59229912D01*
X130298514Y59229912D02*
X130374704Y59191817D01*
X130374704Y59191817D02*
X130412800Y59153722D01*
X130412800Y59153722D02*
X130450895Y59077531D01*
X130450895Y59077531D02*
X130450895Y58887055D01*
X130450895Y58887055D02*
X130412800Y58810865D01*
X130412800Y58810865D02*
X130374704Y58772769D01*
X130450895Y41079913D02*
X129650895Y41079913D01*
X129650895Y41079913D02*
X129650895Y41270389D01*
X129650895Y41270389D02*
X129688990Y41384675D01*
X129688990Y41384675D02*
X129765180Y41460865D01*
X129765180Y41460865D02*
X129841371Y41498960D01*
X129841371Y41498960D02*
X129993752Y41537056D01*
X129993752Y41537056D02*
X130108038Y41537056D01*
X130108038Y41537056D02*
X130260419Y41498960D01*
X130260419Y41498960D02*
X130336609Y41460865D01*
X130336609Y41460865D02*
X130412800Y41384675D01*
X130412800Y41384675D02*
X130450895Y41270389D01*
X130450895Y41270389D02*
X130450895Y41079913D01*
X130450895Y41918008D02*
X130450895Y42070389D01*
X130450895Y42070389D02*
X130412800Y42146579D01*
X130412800Y42146579D02*
X130374704Y42184675D01*
X130374704Y42184675D02*
X130260419Y42260865D01*
X130260419Y42260865D02*
X130108038Y42298960D01*
X130108038Y42298960D02*
X129803276Y42298960D01*
X129803276Y42298960D02*
X129727085Y42260865D01*
X129727085Y42260865D02*
X129688990Y42222770D01*
X129688990Y42222770D02*
X129650895Y42146579D01*
X129650895Y42146579D02*
X129650895Y41994198D01*
X129650895Y41994198D02*
X129688990Y41918008D01*
X129688990Y41918008D02*
X129727085Y41879913D01*
X129727085Y41879913D02*
X129803276Y41841817D01*
X129803276Y41841817D02*
X129993752Y41841817D01*
X129993752Y41841817D02*
X130069942Y41879913D01*
X130069942Y41879913D02*
X130108038Y41918008D01*
X130108038Y41918008D02*
X130146133Y41994198D01*
X130146133Y41994198D02*
X130146133Y42146579D01*
X130146133Y42146579D02*
X130108038Y42222770D01*
X130108038Y42222770D02*
X130069942Y42260865D01*
X130069942Y42260865D02*
X129993752Y42298960D01*
X130450895Y51723960D02*
X129650895Y51723960D01*
X129650895Y51723960D02*
X129650895Y51914436D01*
X129650895Y51914436D02*
X129688990Y52028722D01*
X129688990Y52028722D02*
X129765180Y52104912D01*
X129765180Y52104912D02*
X129841371Y52143007D01*
X129841371Y52143007D02*
X129993752Y52181103D01*
X129993752Y52181103D02*
X130108038Y52181103D01*
X130108038Y52181103D02*
X130260419Y52143007D01*
X130260419Y52143007D02*
X130336609Y52104912D01*
X130336609Y52104912D02*
X130412800Y52028722D01*
X130412800Y52028722D02*
X130450895Y51914436D01*
X130450895Y51914436D02*
X130450895Y51723960D01*
X130450895Y52943007D02*
X130450895Y52485864D01*
X130450895Y52714436D02*
X129650895Y52714436D01*
X129650895Y52714436D02*
X129765180Y52638245D01*
X129765180Y52638245D02*
X129841371Y52562055D01*
X129841371Y52562055D02*
X129879466Y52485864D01*
X129650895Y53209674D02*
X129650895Y53704912D01*
X129650895Y53704912D02*
X129955657Y53438246D01*
X129955657Y53438246D02*
X129955657Y53552531D01*
X129955657Y53552531D02*
X129993752Y53628722D01*
X129993752Y53628722D02*
X130031847Y53666817D01*
X130031847Y53666817D02*
X130108038Y53704912D01*
X130108038Y53704912D02*
X130298514Y53704912D01*
X130298514Y53704912D02*
X130374704Y53666817D01*
X130374704Y53666817D02*
X130412800Y53628722D01*
X130412800Y53628722D02*
X130450895Y53552531D01*
X130450895Y53552531D02*
X130450895Y53323960D01*
X130450895Y53323960D02*
X130412800Y53247769D01*
X130412800Y53247769D02*
X130374704Y53209674D01*
X130450895Y46148960D02*
X129650895Y46148960D01*
X129650895Y46148960D02*
X129650895Y46339436D01*
X129650895Y46339436D02*
X129688990Y46453722D01*
X129688990Y46453722D02*
X129765180Y46529912D01*
X129765180Y46529912D02*
X129841371Y46568007D01*
X129841371Y46568007D02*
X129993752Y46606103D01*
X129993752Y46606103D02*
X130108038Y46606103D01*
X130108038Y46606103D02*
X130260419Y46568007D01*
X130260419Y46568007D02*
X130336609Y46529912D01*
X130336609Y46529912D02*
X130412800Y46453722D01*
X130412800Y46453722D02*
X130450895Y46339436D01*
X130450895Y46339436D02*
X130450895Y46148960D01*
X130450895Y47368007D02*
X130450895Y46910864D01*
X130450895Y47139436D02*
X129650895Y47139436D01*
X129650895Y47139436D02*
X129765180Y47063245D01*
X129765180Y47063245D02*
X129841371Y46987055D01*
X129841371Y46987055D02*
X129879466Y46910864D01*
X130450895Y48129912D02*
X130450895Y47672769D01*
X130450895Y47901341D02*
X129650895Y47901341D01*
X129650895Y47901341D02*
X129765180Y47825150D01*
X129765180Y47825150D02*
X129841371Y47748960D01*
X129841371Y47748960D02*
X129879466Y47672769D01*
X128775895Y46606103D02*
X128394942Y46339436D01*
X128775895Y46148960D02*
X127975895Y46148960D01*
X127975895Y46148960D02*
X127975895Y46453722D01*
X127975895Y46453722D02*
X128013990Y46529912D01*
X128013990Y46529912D02*
X128052085Y46568007D01*
X128052085Y46568007D02*
X128128276Y46606103D01*
X128128276Y46606103D02*
X128242561Y46606103D01*
X128242561Y46606103D02*
X128318752Y46568007D01*
X128318752Y46568007D02*
X128356847Y46529912D01*
X128356847Y46529912D02*
X128394942Y46453722D01*
X128394942Y46453722D02*
X128394942Y46148960D01*
X127975895Y47291817D02*
X127975895Y47139436D01*
X127975895Y47139436D02*
X128013990Y47063245D01*
X128013990Y47063245D02*
X128052085Y47025150D01*
X128052085Y47025150D02*
X128166371Y46948960D01*
X128166371Y46948960D02*
X128318752Y46910864D01*
X128318752Y46910864D02*
X128623514Y46910864D01*
X128623514Y46910864D02*
X128699704Y46948960D01*
X128699704Y46948960D02*
X128737800Y46987055D01*
X128737800Y46987055D02*
X128775895Y47063245D01*
X128775895Y47063245D02*
X128775895Y47215626D01*
X128775895Y47215626D02*
X128737800Y47291817D01*
X128737800Y47291817D02*
X128699704Y47329912D01*
X128699704Y47329912D02*
X128623514Y47368007D01*
X128623514Y47368007D02*
X128433038Y47368007D01*
X128433038Y47368007D02*
X128356847Y47329912D01*
X128356847Y47329912D02*
X128318752Y47291817D01*
X128318752Y47291817D02*
X128280657Y47215626D01*
X128280657Y47215626D02*
X128280657Y47063245D01*
X128280657Y47063245D02*
X128318752Y46987055D01*
X128318752Y46987055D02*
X128356847Y46948960D01*
X128356847Y46948960D02*
X128433038Y46910864D01*
X128242561Y48053722D02*
X128775895Y48053722D01*
X127937800Y47863246D02*
X128509228Y47672769D01*
X128509228Y47672769D02*
X128509228Y48168008D01*
X133625895Y20035525D02*
X132825895Y20035525D01*
X132825895Y20035525D02*
X132825895Y20226001D01*
X132825895Y20226001D02*
X132863990Y20340287D01*
X132863990Y20340287D02*
X132940180Y20416477D01*
X132940180Y20416477D02*
X133016371Y20454572D01*
X133016371Y20454572D02*
X133168752Y20492668D01*
X133168752Y20492668D02*
X133283038Y20492668D01*
X133283038Y20492668D02*
X133435419Y20454572D01*
X133435419Y20454572D02*
X133511609Y20416477D01*
X133511609Y20416477D02*
X133587800Y20340287D01*
X133587800Y20340287D02*
X133625895Y20226001D01*
X133625895Y20226001D02*
X133625895Y20035525D01*
X132825895Y21216477D02*
X132825895Y20835525D01*
X132825895Y20835525D02*
X133206847Y20797429D01*
X133206847Y20797429D02*
X133168752Y20835525D01*
X133168752Y20835525D02*
X133130657Y20911715D01*
X133130657Y20911715D02*
X133130657Y21102191D01*
X133130657Y21102191D02*
X133168752Y21178382D01*
X133168752Y21178382D02*
X133206847Y21216477D01*
X133206847Y21216477D02*
X133283038Y21254572D01*
X133283038Y21254572D02*
X133473514Y21254572D01*
X133473514Y21254572D02*
X133549704Y21216477D01*
X133549704Y21216477D02*
X133587800Y21178382D01*
X133587800Y21178382D02*
X133625895Y21102191D01*
X133625895Y21102191D02*
X133625895Y20911715D01*
X133625895Y20911715D02*
X133587800Y20835525D01*
X133587800Y20835525D02*
X133549704Y20797429D01*
X128800895Y53831104D02*
X128419942Y53564437D01*
X128800895Y53373961D02*
X128000895Y53373961D01*
X128000895Y53373961D02*
X128000895Y53678723D01*
X128000895Y53678723D02*
X128038990Y53754913D01*
X128038990Y53754913D02*
X128077085Y53793008D01*
X128077085Y53793008D02*
X128153276Y53831104D01*
X128153276Y53831104D02*
X128267561Y53831104D01*
X128267561Y53831104D02*
X128343752Y53793008D01*
X128343752Y53793008D02*
X128381847Y53754913D01*
X128381847Y53754913D02*
X128419942Y53678723D01*
X128419942Y53678723D02*
X128419942Y53373961D01*
X128000895Y54516818D02*
X128000895Y54364437D01*
X128000895Y54364437D02*
X128038990Y54288246D01*
X128038990Y54288246D02*
X128077085Y54250151D01*
X128077085Y54250151D02*
X128191371Y54173961D01*
X128191371Y54173961D02*
X128343752Y54135865D01*
X128343752Y54135865D02*
X128648514Y54135865D01*
X128648514Y54135865D02*
X128724704Y54173961D01*
X128724704Y54173961D02*
X128762800Y54212056D01*
X128762800Y54212056D02*
X128800895Y54288246D01*
X128800895Y54288246D02*
X128800895Y54440627D01*
X128800895Y54440627D02*
X128762800Y54516818D01*
X128762800Y54516818D02*
X128724704Y54554913D01*
X128724704Y54554913D02*
X128648514Y54593008D01*
X128648514Y54593008D02*
X128458038Y54593008D01*
X128458038Y54593008D02*
X128381847Y54554913D01*
X128381847Y54554913D02*
X128343752Y54516818D01*
X128343752Y54516818D02*
X128305657Y54440627D01*
X128305657Y54440627D02*
X128305657Y54288246D01*
X128305657Y54288246D02*
X128343752Y54212056D01*
X128343752Y54212056D02*
X128381847Y54173961D01*
X128381847Y54173961D02*
X128458038Y54135865D01*
X128000895Y55278723D02*
X128000895Y55126342D01*
X128000895Y55126342D02*
X128038990Y55050151D01*
X128038990Y55050151D02*
X128077085Y55012056D01*
X128077085Y55012056D02*
X128191371Y54935866D01*
X128191371Y54935866D02*
X128343752Y54897770D01*
X128343752Y54897770D02*
X128648514Y54897770D01*
X128648514Y54897770D02*
X128724704Y54935866D01*
X128724704Y54935866D02*
X128762800Y54973961D01*
X128762800Y54973961D02*
X128800895Y55050151D01*
X128800895Y55050151D02*
X128800895Y55202532D01*
X128800895Y55202532D02*
X128762800Y55278723D01*
X128762800Y55278723D02*
X128724704Y55316818D01*
X128724704Y55316818D02*
X128648514Y55354913D01*
X128648514Y55354913D02*
X128458038Y55354913D01*
X128458038Y55354913D02*
X128381847Y55316818D01*
X128381847Y55316818D02*
X128343752Y55278723D01*
X128343752Y55278723D02*
X128305657Y55202532D01*
X128305657Y55202532D02*
X128305657Y55050151D01*
X128305657Y55050151D02*
X128343752Y54973961D01*
X128343752Y54973961D02*
X128381847Y54935866D01*
X128381847Y54935866D02*
X128458038Y54897770D01*
X11354933Y14934905D02*
X11354933Y14363477D01*
X11354933Y14363477D02*
X11316838Y14249191D01*
X11316838Y14249191D02*
X11240647Y14173000D01*
X11240647Y14173000D02*
X11126362Y14134905D01*
X11126362Y14134905D02*
X11050171Y14134905D01*
X12078743Y14668239D02*
X12078743Y14134905D01*
X11888267Y14973000D02*
X11697790Y14401572D01*
X11697790Y14401572D02*
X12193029Y14401572D01*
X127902932Y31089400D02*
X128017218Y31051305D01*
X128017218Y31051305D02*
X128207694Y31051305D01*
X128207694Y31051305D02*
X128283885Y31089400D01*
X128283885Y31089400D02*
X128321980Y31127496D01*
X128321980Y31127496D02*
X128360075Y31203686D01*
X128360075Y31203686D02*
X128360075Y31279877D01*
X128360075Y31279877D02*
X128321980Y31356067D01*
X128321980Y31356067D02*
X128283885Y31394162D01*
X128283885Y31394162D02*
X128207694Y31432258D01*
X128207694Y31432258D02*
X128055313Y31470353D01*
X128055313Y31470353D02*
X127979123Y31508448D01*
X127979123Y31508448D02*
X127941028Y31546543D01*
X127941028Y31546543D02*
X127902932Y31622734D01*
X127902932Y31622734D02*
X127902932Y31698924D01*
X127902932Y31698924D02*
X127941028Y31775115D01*
X127941028Y31775115D02*
X127979123Y31813210D01*
X127979123Y31813210D02*
X128055313Y31851305D01*
X128055313Y31851305D02*
X128245790Y31851305D01*
X128245790Y31851305D02*
X128360075Y31813210D01*
X128626742Y31851305D02*
X128817218Y31051305D01*
X128817218Y31051305D02*
X128969599Y31622734D01*
X128969599Y31622734D02*
X129121980Y31051305D01*
X129121980Y31051305D02*
X129312457Y31851305D01*
X130036266Y31051305D02*
X129579123Y31051305D01*
X129807695Y31051305D02*
X129807695Y31851305D01*
X129807695Y31851305D02*
X129731504Y31737020D01*
X129731504Y31737020D02*
X129655314Y31660829D01*
X129655314Y31660829D02*
X129579123Y31622734D01*
X130450895Y43448960D02*
X129650895Y43448960D01*
X129650895Y43448960D02*
X129650895Y43639436D01*
X129650895Y43639436D02*
X129688990Y43753722D01*
X129688990Y43753722D02*
X129765180Y43829912D01*
X129765180Y43829912D02*
X129841371Y43868007D01*
X129841371Y43868007D02*
X129993752Y43906103D01*
X129993752Y43906103D02*
X130108038Y43906103D01*
X130108038Y43906103D02*
X130260419Y43868007D01*
X130260419Y43868007D02*
X130336609Y43829912D01*
X130336609Y43829912D02*
X130412800Y43753722D01*
X130412800Y43753722D02*
X130450895Y43639436D01*
X130450895Y43639436D02*
X130450895Y43448960D01*
X130450895Y44668007D02*
X130450895Y44210864D01*
X130450895Y44439436D02*
X129650895Y44439436D01*
X129650895Y44439436D02*
X129765180Y44363245D01*
X129765180Y44363245D02*
X129841371Y44287055D01*
X129841371Y44287055D02*
X129879466Y44210864D01*
X129650895Y45163246D02*
X129650895Y45239436D01*
X129650895Y45239436D02*
X129688990Y45315627D01*
X129688990Y45315627D02*
X129727085Y45353722D01*
X129727085Y45353722D02*
X129803276Y45391817D01*
X129803276Y45391817D02*
X129955657Y45429912D01*
X129955657Y45429912D02*
X130146133Y45429912D01*
X130146133Y45429912D02*
X130298514Y45391817D01*
X130298514Y45391817D02*
X130374704Y45353722D01*
X130374704Y45353722D02*
X130412800Y45315627D01*
X130412800Y45315627D02*
X130450895Y45239436D01*
X130450895Y45239436D02*
X130450895Y45163246D01*
X130450895Y45163246D02*
X130412800Y45087055D01*
X130412800Y45087055D02*
X130374704Y45048960D01*
X130374704Y45048960D02*
X130298514Y45010865D01*
X130298514Y45010865D02*
X130146133Y44972769D01*
X130146133Y44972769D02*
X129955657Y44972769D01*
X129955657Y44972769D02*
X129803276Y45010865D01*
X129803276Y45010865D02*
X129727085Y45048960D01*
X129727085Y45048960D02*
X129688990Y45087055D01*
X129688990Y45087055D02*
X129650895Y45163246D01*
%TO.C,R16*%
X132151000Y66236436D02*
X132151000Y66690564D01*
X133621000Y66236436D02*
X133621000Y66690564D01*
D14*
%TO.C,BT1*%
X26031000Y81776000D02*
X66241000Y81776000D01*
X26031000Y4076000D02*
X26031000Y81776000D01*
X66241000Y81776000D02*
X66241000Y4076000D01*
X66241000Y4076000D02*
X26031000Y4076000D01*
D13*
%TO.C,R67*%
X132425564Y58055388D02*
X131971436Y58055388D01*
X132425564Y56585388D02*
X131971436Y56585388D01*
%TO.C,R63*%
X132463064Y45980388D02*
X132008936Y45980388D01*
X132463064Y44510388D02*
X132008936Y44510388D01*
%TO.C,R69*%
X132425564Y61980388D02*
X131971436Y61980388D01*
X132425564Y60510388D02*
X131971436Y60510388D01*
D12*
%TO.C,D2*%
X134161000Y70226000D02*
X134961000Y70226000D01*
D13*
X135161000Y71226000D02*
X135161000Y68826000D01*
X135161000Y69326000D02*
X135761000Y69526000D01*
X135761000Y70526000D02*
X135161000Y70726000D01*
X135761000Y69526000D02*
X135761000Y70526000D01*
%TO.C,TH2*%
X77246436Y62261000D02*
X77700564Y62261000D01*
X77246436Y60791000D02*
X77700564Y60791000D01*
%TO.C,SW3*%
X127556000Y37776000D02*
X129036000Y37776000D01*
X127556000Y33276000D02*
X127556000Y37776000D01*
X127556000Y33276000D02*
X129036000Y33276000D01*
X130936000Y34426000D02*
X130936000Y36626000D01*
X131761000Y36526000D02*
X130136000Y36526000D01*
X131761000Y34526000D02*
X130136000Y34526000D01*
X131786000Y34526000D02*
X131786000Y36526000D01*
%TO.C,TH1*%
X77700564Y60211000D02*
X77246436Y60211000D01*
X77700564Y58741000D02*
X77246436Y58741000D01*
%TO.C,R65*%
X132413064Y49880388D02*
X131958936Y49880388D01*
X132413064Y48410388D02*
X131958936Y48410388D01*
D12*
%TO.C,D4*%
X134161000Y18051000D02*
X134961000Y18051000D01*
D13*
X135161000Y19051000D02*
X135161000Y16651000D01*
X135161000Y17151000D02*
X135761000Y17351000D01*
X135761000Y18351000D02*
X135161000Y18551000D01*
X135761000Y17351000D02*
X135761000Y18351000D01*
D12*
%TO.C,D12*%
X134161000Y50128041D02*
X134961000Y50128041D01*
D13*
X135161000Y51128041D02*
X135161000Y48728041D01*
X135161000Y49228041D02*
X135761000Y49428041D01*
X135761000Y50428041D02*
X135161000Y50628041D01*
X135761000Y49428041D02*
X135761000Y50428041D01*
D14*
%TO.C,BT2*%
X66941000Y81776000D02*
X126631000Y81776000D01*
X66941000Y4076000D02*
X66941000Y81776000D01*
X126631000Y81776000D02*
X126631000Y4076000D01*
X126631000Y4076000D02*
X66941000Y4076000D01*
D12*
%TO.C,D16*%
X134161000Y61197430D02*
X134961000Y61197430D01*
D13*
X135161000Y62197430D02*
X135161000Y59797430D01*
X135161000Y60297430D02*
X135761000Y60497430D01*
X135761000Y61497430D02*
X135161000Y61697430D01*
X135761000Y60497430D02*
X135761000Y61497430D01*
%TO.C,R22*%
X132151000Y70128064D02*
X132151000Y69673936D01*
X133621000Y70128064D02*
X133621000Y69673936D01*
D12*
%TO.C,D1*%
X134161000Y66326000D02*
X134961000Y66326000D01*
D13*
X135161000Y67326000D02*
X135161000Y64926000D01*
X135161000Y65426000D02*
X135761000Y65626000D01*
X135761000Y66626000D02*
X135161000Y66826000D01*
X135761000Y65626000D02*
X135761000Y66626000D01*
D12*
%TO.C,D3*%
X134161000Y23601000D02*
X134961000Y23601000D01*
D13*
X135161000Y24601000D02*
X135161000Y22201000D01*
X135161000Y22701000D02*
X135761000Y22901000D01*
X135761000Y23901000D02*
X135161000Y24101000D01*
X135761000Y22901000D02*
X135761000Y23901000D01*
D12*
%TO.C,D14*%
X134161000Y55662735D02*
X134961000Y55662735D01*
D13*
X135161000Y56662735D02*
X135161000Y54262735D01*
X135161000Y54762735D02*
X135761000Y54962735D01*
X135761000Y55962735D02*
X135161000Y56162735D01*
X135761000Y54962735D02*
X135761000Y55962735D01*
%TO.C,R62*%
X132488064Y44030388D02*
X132033936Y44030388D01*
X132488064Y42560388D02*
X132033936Y42560388D01*
%TO.C,R68*%
X132425564Y60030388D02*
X131971436Y60030388D01*
X132425564Y58560388D02*
X131971436Y58560388D01*
D12*
%TO.C,D15*%
X134161000Y58430082D02*
X134961000Y58430082D01*
D13*
X135161000Y59430082D02*
X135161000Y57030082D01*
X135161000Y57530082D02*
X135761000Y57730082D01*
X135761000Y58730082D02*
X135161000Y58930082D01*
X135761000Y57730082D02*
X135761000Y58730082D01*
D12*
%TO.C,D9*%
X134161000Y41826000D02*
X134961000Y41826000D01*
D13*
X135161000Y42826000D02*
X135161000Y40426000D01*
X135161000Y40926000D02*
X135761000Y41126000D01*
X135761000Y42126000D02*
X135161000Y42326000D01*
X135761000Y41126000D02*
X135761000Y42126000D01*
D12*
%TO.C,D13*%
X134161000Y52895388D02*
X134961000Y52895388D01*
D13*
X135161000Y53895388D02*
X135161000Y51495388D01*
X135161000Y51995388D02*
X135761000Y52195388D01*
X135761000Y53195388D02*
X135161000Y53395388D01*
X135761000Y52195388D02*
X135761000Y53195388D01*
D12*
%TO.C,D11*%
X134161000Y47360694D02*
X134961000Y47360694D01*
D13*
X135161000Y48360694D02*
X135161000Y45960694D01*
X135161000Y46460694D02*
X135761000Y46660694D01*
X135761000Y47660694D02*
X135161000Y47860694D01*
X135761000Y46660694D02*
X135761000Y47660694D01*
%TO.C,R64*%
X132438064Y47930388D02*
X131983936Y47930388D01*
X132438064Y46460388D02*
X131983936Y46460388D01*
D12*
%TO.C,D5*%
X134161000Y20826000D02*
X134961000Y20826000D01*
D13*
X135161000Y21826000D02*
X135161000Y19426000D01*
X135161000Y19926000D02*
X135761000Y20126000D01*
X135761000Y21126000D02*
X135161000Y21326000D01*
X135761000Y20126000D02*
X135761000Y21126000D01*
%TO.C,R66*%
X132413064Y56130388D02*
X131958936Y56130388D01*
X132413064Y54660388D02*
X131958936Y54660388D01*
%TO.C,J4*%
X24936000Y70547000D02*
X9736000Y70547000D01*
X9736000Y15337000D01*
X24936000Y15337000D01*
X24936000Y70547000D01*
X24936000Y70531000D02*
X-64000Y70531000D01*
X-64000Y15321000D01*
X24936000Y15321000D01*
X24936000Y70531000D01*
%TO.C,SW1*%
X127656000Y30426000D02*
X129136000Y30426000D01*
X127656000Y25926000D02*
X127656000Y30426000D01*
X127656000Y25926000D02*
X129136000Y25926000D01*
X131036000Y27076000D02*
X131036000Y29276000D01*
X131861000Y29176000D02*
X130236000Y29176000D01*
X131861000Y27176000D02*
X130236000Y27176000D01*
X131886000Y27176000D02*
X131886000Y29176000D01*
D12*
%TO.C,D10*%
X134161000Y44593347D02*
X134961000Y44593347D01*
D13*
X135161000Y45593347D02*
X135161000Y43193347D01*
X135161000Y43693347D02*
X135761000Y43893347D01*
X135761000Y44893347D02*
X135161000Y45093347D01*
X135761000Y43893347D02*
X135761000Y44893347D01*
%TD*%
M02*
