%TF.GenerationSoftware,KiCad,Pcbnew,7.0.8-7.0.8~ubuntu23.04.1*%
%TF.CreationDate,2023-11-06T00:21:03+00:00*%
%TF.ProjectId,BATDATUNIT01,42415444-4154-4554-9e49-5430312e6b69,01A*%
%TF.SameCoordinates,Original*%
%TF.FileFunction,Legend,Top*%
%TF.FilePolarity,Positive*%
%FSLAX46Y46*%
G04 Gerber Fmt 4.6, Leading zero omitted, Abs format (unit mm)*
G04 Created by KiCad (PCBNEW 7.0.8-7.0.8~ubuntu23.04.1) date 2023-11-06 00:21:03*
%MOMM*%
%LPD*%
G01*
G04 APERTURE LIST*
%ADD10C,0.150000*%
%ADD11C,0.300000*%
%ADD12C,0.200000*%
%ADD13C,0.100000*%
G04 APERTURE END LIST*
D10*
X134755819Y24954572D02*
X135565342Y24954572D01*
X135565342Y24954572D02*
X135660580Y24997429D01*
X135660580Y24997429D02*
X135708200Y25040286D01*
X135708200Y25040286D02*
X135755819Y25126001D01*
X135755819Y25126001D02*
X135755819Y25297429D01*
X135755819Y25297429D02*
X135708200Y25383144D01*
X135708200Y25383144D02*
X135660580Y25426001D01*
X135660580Y25426001D02*
X135565342Y25468858D01*
X135565342Y25468858D02*
X134755819Y25468858D01*
X135708200Y25854572D02*
X135755819Y25983143D01*
X135755819Y25983143D02*
X135755819Y26197429D01*
X135755819Y26197429D02*
X135708200Y26283143D01*
X135708200Y26283143D02*
X135660580Y26326001D01*
X135660580Y26326001D02*
X135565342Y26368858D01*
X135565342Y26368858D02*
X135470104Y26368858D01*
X135470104Y26368858D02*
X135374866Y26326001D01*
X135374866Y26326001D02*
X135327247Y26283143D01*
X135327247Y26283143D02*
X135279628Y26197429D01*
X135279628Y26197429D02*
X135232009Y26026001D01*
X135232009Y26026001D02*
X135184390Y25940286D01*
X135184390Y25940286D02*
X135136771Y25897429D01*
X135136771Y25897429D02*
X135041533Y25854572D01*
X135041533Y25854572D02*
X134946295Y25854572D01*
X134946295Y25854572D02*
X134851057Y25897429D01*
X134851057Y25897429D02*
X134803438Y25940286D01*
X134803438Y25940286D02*
X134755819Y26026001D01*
X134755819Y26026001D02*
X134755819Y26240286D01*
X134755819Y26240286D02*
X134803438Y26368858D01*
X135232009Y26754572D02*
X135232009Y27054572D01*
X135755819Y27183144D02*
X135755819Y26754572D01*
X135755819Y26754572D02*
X134755819Y26754572D01*
X134755819Y26754572D02*
X134755819Y27183144D01*
X135755819Y28083144D02*
X135279628Y27783144D01*
X135755819Y27568858D02*
X134755819Y27568858D01*
X134755819Y27568858D02*
X134755819Y27911715D01*
X134755819Y27911715D02*
X134803438Y27997430D01*
X134803438Y27997430D02*
X134851057Y28040287D01*
X134851057Y28040287D02*
X134946295Y28083144D01*
X134946295Y28083144D02*
X135089152Y28083144D01*
X135089152Y28083144D02*
X135184390Y28040287D01*
X135184390Y28040287D02*
X135232009Y27997430D01*
X135232009Y27997430D02*
X135279628Y27911715D01*
X135279628Y27911715D02*
X135279628Y27568858D01*
X135755819Y29583144D02*
X135755819Y29154572D01*
X135755819Y29154572D02*
X134755819Y29154572D01*
X135232009Y29883143D02*
X135232009Y30183143D01*
X135755819Y30311715D02*
X135755819Y29883143D01*
X135755819Y29883143D02*
X134755819Y29883143D01*
X134755819Y29883143D02*
X134755819Y30311715D01*
X135755819Y30697429D02*
X134755819Y30697429D01*
X134755819Y30697429D02*
X134755819Y30911715D01*
X134755819Y30911715D02*
X134803438Y31040286D01*
X134803438Y31040286D02*
X134898676Y31126001D01*
X134898676Y31126001D02*
X134993914Y31168858D01*
X134993914Y31168858D02*
X135184390Y31211715D01*
X135184390Y31211715D02*
X135327247Y31211715D01*
X135327247Y31211715D02*
X135517723Y31168858D01*
X135517723Y31168858D02*
X135612961Y31126001D01*
X135612961Y31126001D02*
X135708200Y31040286D01*
X135708200Y31040286D02*
X135755819Y30911715D01*
X135755819Y30911715D02*
X135755819Y30697429D01*
X135708200Y31554572D02*
X135755819Y31640286D01*
X135755819Y31640286D02*
X135755819Y31811715D01*
X135755819Y31811715D02*
X135708200Y31897429D01*
X135708200Y31897429D02*
X135612961Y31940286D01*
X135612961Y31940286D02*
X135565342Y31940286D01*
X135565342Y31940286D02*
X135470104Y31897429D01*
X135470104Y31897429D02*
X135422485Y31811715D01*
X135422485Y31811715D02*
X135422485Y31683143D01*
X135422485Y31683143D02*
X135374866Y31597429D01*
X135374866Y31597429D02*
X135279628Y31554572D01*
X135279628Y31554572D02*
X135232009Y31554572D01*
X135232009Y31554572D02*
X135136771Y31597429D01*
X135136771Y31597429D02*
X135089152Y31683143D01*
X135089152Y31683143D02*
X135089152Y31811715D01*
X135089152Y31811715D02*
X135136771Y31897429D01*
X132732009Y33026000D02*
X132779628Y33168857D01*
X132779628Y33168857D02*
X132827247Y33216476D01*
X132827247Y33216476D02*
X132922485Y33264095D01*
X132922485Y33264095D02*
X133065342Y33264095D01*
X133065342Y33264095D02*
X133160580Y33216476D01*
X133160580Y33216476D02*
X133208200Y33168857D01*
X133208200Y33168857D02*
X133255819Y33073619D01*
X133255819Y33073619D02*
X133255819Y32692667D01*
X133255819Y32692667D02*
X132255819Y32692667D01*
X132255819Y32692667D02*
X132255819Y33026000D01*
X132255819Y33026000D02*
X132303438Y33121238D01*
X132303438Y33121238D02*
X132351057Y33168857D01*
X132351057Y33168857D02*
X132446295Y33216476D01*
X132446295Y33216476D02*
X132541533Y33216476D01*
X132541533Y33216476D02*
X132636771Y33168857D01*
X132636771Y33168857D02*
X132684390Y33121238D01*
X132684390Y33121238D02*
X132732009Y33026000D01*
X132732009Y33026000D02*
X132732009Y32692667D01*
X132970104Y33645048D02*
X132970104Y34121238D01*
X133255819Y33549810D02*
X132255819Y33883143D01*
X132255819Y33883143D02*
X133255819Y34216476D01*
X132255819Y34406953D02*
X132255819Y34978381D01*
X133255819Y34692667D02*
X132255819Y34692667D01*
X132255819Y35168858D02*
X132255819Y35740286D01*
X133255819Y35454572D02*
X132255819Y35454572D01*
X132732009Y36073620D02*
X132732009Y36406953D01*
X133255819Y36549810D02*
X133255819Y36073620D01*
X133255819Y36073620D02*
X132255819Y36073620D01*
X132255819Y36073620D02*
X132255819Y36549810D01*
X133255819Y37549810D02*
X132779628Y37216477D01*
X133255819Y36978382D02*
X132255819Y36978382D01*
X132255819Y36978382D02*
X132255819Y37359334D01*
X132255819Y37359334D02*
X132303438Y37454572D01*
X132303438Y37454572D02*
X132351057Y37502191D01*
X132351057Y37502191D02*
X132446295Y37549810D01*
X132446295Y37549810D02*
X132589152Y37549810D01*
X132589152Y37549810D02*
X132684390Y37502191D01*
X132684390Y37502191D02*
X132732009Y37454572D01*
X132732009Y37454572D02*
X132779628Y37359334D01*
X132779628Y37359334D02*
X132779628Y36978382D01*
X132779628Y38168858D02*
X133255819Y38168858D01*
X132255819Y37835525D02*
X132779628Y38168858D01*
X132779628Y38168858D02*
X132255819Y38502191D01*
D11*
X23590476Y73162020D02*
X23304762Y73257258D01*
X23304762Y73257258D02*
X23209524Y73352496D01*
X23209524Y73352496D02*
X23114286Y73542972D01*
X23114286Y73542972D02*
X23114286Y73828686D01*
X23114286Y73828686D02*
X23209524Y74019162D01*
X23209524Y74019162D02*
X23304762Y74114400D01*
X23304762Y74114400D02*
X23495238Y74209639D01*
X23495238Y74209639D02*
X24257143Y74209639D01*
X24257143Y74209639D02*
X24257143Y72209639D01*
X24257143Y72209639D02*
X23590476Y72209639D01*
X23590476Y72209639D02*
X23400000Y72304877D01*
X23400000Y72304877D02*
X23304762Y72400115D01*
X23304762Y72400115D02*
X23209524Y72590591D01*
X23209524Y72590591D02*
X23209524Y72781067D01*
X23209524Y72781067D02*
X23304762Y72971543D01*
X23304762Y72971543D02*
X23400000Y73066781D01*
X23400000Y73066781D02*
X23590476Y73162020D01*
X23590476Y73162020D02*
X24257143Y73162020D01*
X22352381Y73638210D02*
X21400000Y73638210D01*
X22542857Y74209639D02*
X21876191Y72209639D01*
X21876191Y72209639D02*
X21209524Y74209639D01*
X20828571Y72209639D02*
X19685714Y72209639D01*
X20257143Y74209639D02*
X20257143Y72209639D01*
X19019047Y74209639D02*
X19019047Y72209639D01*
X19019047Y72209639D02*
X18542857Y72209639D01*
X18542857Y72209639D02*
X18257142Y72304877D01*
X18257142Y72304877D02*
X18066666Y72495353D01*
X18066666Y72495353D02*
X17971428Y72685829D01*
X17971428Y72685829D02*
X17876190Y73066781D01*
X17876190Y73066781D02*
X17876190Y73352496D01*
X17876190Y73352496D02*
X17971428Y73733448D01*
X17971428Y73733448D02*
X18066666Y73923924D01*
X18066666Y73923924D02*
X18257142Y74114400D01*
X18257142Y74114400D02*
X18542857Y74209639D01*
X18542857Y74209639D02*
X19019047Y74209639D01*
X17114285Y73638210D02*
X16161904Y73638210D01*
X17304761Y74209639D02*
X16638095Y72209639D01*
X16638095Y72209639D02*
X15971428Y74209639D01*
X15590475Y72209639D02*
X14447618Y72209639D01*
X15019047Y74209639D02*
X15019047Y72209639D01*
X13780951Y72209639D02*
X13780951Y73828686D01*
X13780951Y73828686D02*
X13685713Y74019162D01*
X13685713Y74019162D02*
X13590475Y74114400D01*
X13590475Y74114400D02*
X13399999Y74209639D01*
X13399999Y74209639D02*
X13019046Y74209639D01*
X13019046Y74209639D02*
X12828570Y74114400D01*
X12828570Y74114400D02*
X12733332Y74019162D01*
X12733332Y74019162D02*
X12638094Y73828686D01*
X12638094Y73828686D02*
X12638094Y72209639D01*
X11685713Y74209639D02*
X11685713Y72209639D01*
X11685713Y72209639D02*
X10542856Y74209639D01*
X10542856Y74209639D02*
X10542856Y72209639D01*
X9590475Y74209639D02*
X9590475Y72209639D01*
X8923808Y72209639D02*
X7780951Y72209639D01*
X8352380Y74209639D02*
X8352380Y72209639D01*
X6733332Y72209639D02*
X6542855Y72209639D01*
X6542855Y72209639D02*
X6352379Y72304877D01*
X6352379Y72304877D02*
X6257141Y72400115D01*
X6257141Y72400115D02*
X6161903Y72590591D01*
X6161903Y72590591D02*
X6066665Y72971543D01*
X6066665Y72971543D02*
X6066665Y73447734D01*
X6066665Y73447734D02*
X6161903Y73828686D01*
X6161903Y73828686D02*
X6257141Y74019162D01*
X6257141Y74019162D02*
X6352379Y74114400D01*
X6352379Y74114400D02*
X6542855Y74209639D01*
X6542855Y74209639D02*
X6733332Y74209639D01*
X6733332Y74209639D02*
X6923808Y74114400D01*
X6923808Y74114400D02*
X7019046Y74019162D01*
X7019046Y74019162D02*
X7114284Y73828686D01*
X7114284Y73828686D02*
X7209522Y73447734D01*
X7209522Y73447734D02*
X7209522Y72971543D01*
X7209522Y72971543D02*
X7114284Y72590591D01*
X7114284Y72590591D02*
X7019046Y72400115D01*
X7019046Y72400115D02*
X6923808Y72304877D01*
X6923808Y72304877D02*
X6733332Y72209639D01*
X4161903Y74209639D02*
X5304760Y74209639D01*
X4733332Y74209639D02*
X4733332Y72209639D01*
X4733332Y72209639D02*
X4923808Y72495353D01*
X4923808Y72495353D02*
X5114284Y72685829D01*
X5114284Y72685829D02*
X5304760Y72781067D01*
X3399998Y73638210D02*
X2447617Y73638210D01*
X3590474Y74209639D02*
X2923808Y72209639D01*
X2923808Y72209639D02*
X2257141Y74209639D01*
D10*
X132255819Y26511715D02*
X133065342Y26511715D01*
X133065342Y26511715D02*
X133160580Y26559334D01*
X133160580Y26559334D02*
X133208200Y26606953D01*
X133208200Y26606953D02*
X133255819Y26702191D01*
X133255819Y26702191D02*
X133255819Y26892667D01*
X133255819Y26892667D02*
X133208200Y26987905D01*
X133208200Y26987905D02*
X133160580Y27035524D01*
X133160580Y27035524D02*
X133065342Y27083143D01*
X133065342Y27083143D02*
X132255819Y27083143D01*
X133208200Y27511715D02*
X133255819Y27654572D01*
X133255819Y27654572D02*
X133255819Y27892667D01*
X133255819Y27892667D02*
X133208200Y27987905D01*
X133208200Y27987905D02*
X133160580Y28035524D01*
X133160580Y28035524D02*
X133065342Y28083143D01*
X133065342Y28083143D02*
X132970104Y28083143D01*
X132970104Y28083143D02*
X132874866Y28035524D01*
X132874866Y28035524D02*
X132827247Y27987905D01*
X132827247Y27987905D02*
X132779628Y27892667D01*
X132779628Y27892667D02*
X132732009Y27702191D01*
X132732009Y27702191D02*
X132684390Y27606953D01*
X132684390Y27606953D02*
X132636771Y27559334D01*
X132636771Y27559334D02*
X132541533Y27511715D01*
X132541533Y27511715D02*
X132446295Y27511715D01*
X132446295Y27511715D02*
X132351057Y27559334D01*
X132351057Y27559334D02*
X132303438Y27606953D01*
X132303438Y27606953D02*
X132255819Y27702191D01*
X132255819Y27702191D02*
X132255819Y27940286D01*
X132255819Y27940286D02*
X132303438Y28083143D01*
X132732009Y28511715D02*
X132732009Y28845048D01*
X133255819Y28987905D02*
X133255819Y28511715D01*
X133255819Y28511715D02*
X132255819Y28511715D01*
X132255819Y28511715D02*
X132255819Y28987905D01*
X133255819Y29987905D02*
X132779628Y29654572D01*
X133255819Y29416477D02*
X132255819Y29416477D01*
X132255819Y29416477D02*
X132255819Y29797429D01*
X132255819Y29797429D02*
X132303438Y29892667D01*
X132303438Y29892667D02*
X132351057Y29940286D01*
X132351057Y29940286D02*
X132446295Y29987905D01*
X132446295Y29987905D02*
X132589152Y29987905D01*
X132589152Y29987905D02*
X132684390Y29940286D01*
X132684390Y29940286D02*
X132732009Y29892667D01*
X132732009Y29892667D02*
X132779628Y29797429D01*
X132779628Y29797429D02*
X132779628Y29416477D01*
D12*
X14282707Y11260924D02*
X14282707Y12527591D01*
X14282707Y12346639D02*
X14373184Y12437115D01*
X14373184Y12437115D02*
X14554136Y12527591D01*
X14554136Y12527591D02*
X14825565Y12527591D01*
X14825565Y12527591D02*
X15006517Y12437115D01*
X15006517Y12437115D02*
X15096993Y12256162D01*
X15096993Y12256162D02*
X15096993Y11260924D01*
X15096993Y12256162D02*
X15187469Y12437115D01*
X15187469Y12437115D02*
X15368422Y12527591D01*
X15368422Y12527591D02*
X15639850Y12527591D01*
X15639850Y12527591D02*
X15820803Y12437115D01*
X15820803Y12437115D02*
X15911279Y12256162D01*
X15911279Y12256162D02*
X15911279Y11260924D01*
X17087469Y11260924D02*
X16906517Y11351400D01*
X16906517Y11351400D02*
X16816040Y11532353D01*
X16816040Y11532353D02*
X16816040Y13160924D01*
X18625564Y11260924D02*
X18625564Y12256162D01*
X18625564Y12256162D02*
X18535088Y12437115D01*
X18535088Y12437115D02*
X18354136Y12527591D01*
X18354136Y12527591D02*
X17992231Y12527591D01*
X17992231Y12527591D02*
X17811278Y12437115D01*
X18625564Y11351400D02*
X18444612Y11260924D01*
X18444612Y11260924D02*
X17992231Y11260924D01*
X17992231Y11260924D02*
X17811278Y11351400D01*
X17811278Y11351400D02*
X17720802Y11532353D01*
X17720802Y11532353D02*
X17720802Y11713305D01*
X17720802Y11713305D02*
X17811278Y11894258D01*
X17811278Y11894258D02*
X17992231Y11984734D01*
X17992231Y11984734D02*
X18444612Y11984734D01*
X18444612Y11984734D02*
X18625564Y12075210D01*
X19530326Y11260924D02*
X19530326Y13160924D01*
X19530326Y12437115D02*
X19711279Y12527591D01*
X19711279Y12527591D02*
X20073184Y12527591D01*
X20073184Y12527591D02*
X20254136Y12437115D01*
X20254136Y12437115D02*
X20344612Y12346639D01*
X20344612Y12346639D02*
X20435088Y12165686D01*
X20435088Y12165686D02*
X20435088Y11622829D01*
X20435088Y11622829D02*
X20344612Y11441877D01*
X20344612Y11441877D02*
X20254136Y11351400D01*
X20254136Y11351400D02*
X20073184Y11260924D01*
X20073184Y11260924D02*
X19711279Y11260924D01*
X19711279Y11260924D02*
X19530326Y11351400D01*
X21249374Y11441877D02*
X21339851Y11351400D01*
X21339851Y11351400D02*
X21249374Y11260924D01*
X21249374Y11260924D02*
X21158898Y11351400D01*
X21158898Y11351400D02*
X21249374Y11441877D01*
X21249374Y11441877D02*
X21249374Y11260924D01*
X22968422Y11351400D02*
X22787470Y11260924D01*
X22787470Y11260924D02*
X22425565Y11260924D01*
X22425565Y11260924D02*
X22244613Y11351400D01*
X22244613Y11351400D02*
X22154136Y11441877D01*
X22154136Y11441877D02*
X22063660Y11622829D01*
X22063660Y11622829D02*
X22063660Y12165686D01*
X22063660Y12165686D02*
X22154136Y12346639D01*
X22154136Y12346639D02*
X22244613Y12437115D01*
X22244613Y12437115D02*
X22425565Y12527591D01*
X22425565Y12527591D02*
X22787470Y12527591D01*
X22787470Y12527591D02*
X22968422Y12437115D01*
X23601755Y12527591D02*
X24596993Y12527591D01*
X24596993Y12527591D02*
X23601755Y11260924D01*
X23601755Y11260924D02*
X24596993Y11260924D01*
X17992230Y9920972D02*
X18082706Y10011448D01*
X18082706Y10011448D02*
X18263659Y10101924D01*
X18263659Y10101924D02*
X18716040Y10101924D01*
X18716040Y10101924D02*
X18896992Y10011448D01*
X18896992Y10011448D02*
X18987468Y9920972D01*
X18987468Y9920972D02*
X19077945Y9740020D01*
X19077945Y9740020D02*
X19077945Y9559067D01*
X19077945Y9559067D02*
X18987468Y9287639D01*
X18987468Y9287639D02*
X17901754Y8201924D01*
X17901754Y8201924D02*
X19077945Y8201924D01*
X20254135Y10101924D02*
X20435088Y10101924D01*
X20435088Y10101924D02*
X20616040Y10011448D01*
X20616040Y10011448D02*
X20706516Y9920972D01*
X20706516Y9920972D02*
X20796992Y9740020D01*
X20796992Y9740020D02*
X20887469Y9378115D01*
X20887469Y9378115D02*
X20887469Y8925734D01*
X20887469Y8925734D02*
X20796992Y8563829D01*
X20796992Y8563829D02*
X20706516Y8382877D01*
X20706516Y8382877D02*
X20616040Y8292400D01*
X20616040Y8292400D02*
X20435088Y8201924D01*
X20435088Y8201924D02*
X20254135Y8201924D01*
X20254135Y8201924D02*
X20073183Y8292400D01*
X20073183Y8292400D02*
X19982707Y8382877D01*
X19982707Y8382877D02*
X19892230Y8563829D01*
X19892230Y8563829D02*
X19801754Y8925734D01*
X19801754Y8925734D02*
X19801754Y9378115D01*
X19801754Y9378115D02*
X19892230Y9740020D01*
X19892230Y9740020D02*
X19982707Y9920972D01*
X19982707Y9920972D02*
X20073183Y10011448D01*
X20073183Y10011448D02*
X20254135Y10101924D01*
X21611278Y9920972D02*
X21701754Y10011448D01*
X21701754Y10011448D02*
X21882707Y10101924D01*
X21882707Y10101924D02*
X22335088Y10101924D01*
X22335088Y10101924D02*
X22516040Y10011448D01*
X22516040Y10011448D02*
X22606516Y9920972D01*
X22606516Y9920972D02*
X22696993Y9740020D01*
X22696993Y9740020D02*
X22696993Y9559067D01*
X22696993Y9559067D02*
X22606516Y9287639D01*
X22606516Y9287639D02*
X21520802Y8201924D01*
X21520802Y8201924D02*
X22696993Y8201924D01*
X23330326Y10101924D02*
X24506517Y10101924D01*
X24506517Y10101924D02*
X23873183Y9378115D01*
X23873183Y9378115D02*
X24144612Y9378115D01*
X24144612Y9378115D02*
X24325564Y9287639D01*
X24325564Y9287639D02*
X24416040Y9197162D01*
X24416040Y9197162D02*
X24506517Y9016210D01*
X24506517Y9016210D02*
X24506517Y8563829D01*
X24506517Y8563829D02*
X24416040Y8382877D01*
X24416040Y8382877D02*
X24325564Y8292400D01*
X24325564Y8292400D02*
X24144612Y8201924D01*
X24144612Y8201924D02*
X23601755Y8201924D01*
X23601755Y8201924D02*
X23420802Y8292400D01*
X23420802Y8292400D02*
X23330326Y8382877D01*
D10*
X135232009Y35461715D02*
X135279628Y35590287D01*
X135279628Y35590287D02*
X135327247Y35633144D01*
X135327247Y35633144D02*
X135422485Y35676001D01*
X135422485Y35676001D02*
X135565342Y35676001D01*
X135565342Y35676001D02*
X135660580Y35633144D01*
X135660580Y35633144D02*
X135708200Y35590287D01*
X135708200Y35590287D02*
X135755819Y35504572D01*
X135755819Y35504572D02*
X135755819Y35161715D01*
X135755819Y35161715D02*
X134755819Y35161715D01*
X134755819Y35161715D02*
X134755819Y35461715D01*
X134755819Y35461715D02*
X134803438Y35547429D01*
X134803438Y35547429D02*
X134851057Y35590287D01*
X134851057Y35590287D02*
X134946295Y35633144D01*
X134946295Y35633144D02*
X135041533Y35633144D01*
X135041533Y35633144D02*
X135136771Y35590287D01*
X135136771Y35590287D02*
X135184390Y35547429D01*
X135184390Y35547429D02*
X135232009Y35461715D01*
X135232009Y35461715D02*
X135232009Y35161715D01*
X135470104Y36018858D02*
X135470104Y36447429D01*
X135755819Y35933144D02*
X134755819Y36233144D01*
X134755819Y36233144D02*
X135755819Y36533144D01*
X134755819Y36704573D02*
X134755819Y37218858D01*
X135755819Y36961716D02*
X134755819Y36961716D01*
X135660580Y37518858D02*
X135708200Y37561715D01*
X135708200Y37561715D02*
X135755819Y37518858D01*
X135755819Y37518858D02*
X135708200Y37476001D01*
X135708200Y37476001D02*
X135660580Y37518858D01*
X135660580Y37518858D02*
X135755819Y37518858D01*
X135136771Y37518858D02*
X135184390Y37561715D01*
X135184390Y37561715D02*
X135232009Y37518858D01*
X135232009Y37518858D02*
X135184390Y37476001D01*
X135184390Y37476001D02*
X135136771Y37518858D01*
X135136771Y37518858D02*
X135232009Y37518858D01*
X134755819Y38804572D02*
X134755819Y38890286D01*
X134755819Y38890286D02*
X134803438Y38976000D01*
X134803438Y38976000D02*
X134851057Y39018857D01*
X134851057Y39018857D02*
X134946295Y39061715D01*
X134946295Y39061715D02*
X135136771Y39104572D01*
X135136771Y39104572D02*
X135374866Y39104572D01*
X135374866Y39104572D02*
X135565342Y39061715D01*
X135565342Y39061715D02*
X135660580Y39018857D01*
X135660580Y39018857D02*
X135708200Y38976000D01*
X135708200Y38976000D02*
X135755819Y38890286D01*
X135755819Y38890286D02*
X135755819Y38804572D01*
X135755819Y38804572D02*
X135708200Y38718857D01*
X135708200Y38718857D02*
X135660580Y38676000D01*
X135660580Y38676000D02*
X135565342Y38633143D01*
X135565342Y38633143D02*
X135374866Y38590286D01*
X135374866Y38590286D02*
X135136771Y38590286D01*
X135136771Y38590286D02*
X134946295Y38633143D01*
X134946295Y38633143D02*
X134851057Y38676000D01*
X134851057Y38676000D02*
X134803438Y38718857D01*
X134803438Y38718857D02*
X134755819Y38804572D01*
X135755819Y39447429D02*
X134755819Y40133143D01*
X134755819Y39576000D02*
X134803438Y39661715D01*
X134803438Y39661715D02*
X134898676Y39704572D01*
X134898676Y39704572D02*
X134993914Y39661715D01*
X134993914Y39661715D02*
X135041533Y39576000D01*
X135041533Y39576000D02*
X134993914Y39490286D01*
X134993914Y39490286D02*
X134898676Y39447429D01*
X134898676Y39447429D02*
X134803438Y39490286D01*
X134803438Y39490286D02*
X134755819Y39576000D01*
X135708200Y40090286D02*
X135612961Y40133143D01*
X135612961Y40133143D02*
X135517723Y40090286D01*
X135517723Y40090286D02*
X135470104Y40004572D01*
X135470104Y40004572D02*
X135517723Y39918858D01*
X135517723Y39918858D02*
X135612961Y39876000D01*
X135612961Y39876000D02*
X135708200Y39918858D01*
X135708200Y39918858D02*
X135755819Y40004572D01*
X135755819Y40004572D02*
X135708200Y40090286D01*
D12*
X128070171Y12111715D02*
X128127314Y12283143D01*
X128127314Y12283143D02*
X128184457Y12340286D01*
X128184457Y12340286D02*
X128298742Y12397429D01*
X128298742Y12397429D02*
X128470171Y12397429D01*
X128470171Y12397429D02*
X128584457Y12340286D01*
X128584457Y12340286D02*
X128641600Y12283143D01*
X128641600Y12283143D02*
X128698742Y12168858D01*
X128698742Y12168858D02*
X128698742Y11711715D01*
X128698742Y11711715D02*
X127498742Y11711715D01*
X127498742Y11711715D02*
X127498742Y12111715D01*
X127498742Y12111715D02*
X127555885Y12226000D01*
X127555885Y12226000D02*
X127613028Y12283143D01*
X127613028Y12283143D02*
X127727314Y12340286D01*
X127727314Y12340286D02*
X127841600Y12340286D01*
X127841600Y12340286D02*
X127955885Y12283143D01*
X127955885Y12283143D02*
X128013028Y12226000D01*
X128013028Y12226000D02*
X128070171Y12111715D01*
X128070171Y12111715D02*
X128070171Y11711715D01*
X128355885Y12854572D02*
X128355885Y13426000D01*
X128698742Y12740286D02*
X127498742Y13140286D01*
X127498742Y13140286D02*
X128698742Y13540286D01*
X127498742Y13768857D02*
X127498742Y14454571D01*
X128698742Y14111714D02*
X127498742Y14111714D01*
X128698742Y14854572D02*
X127498742Y14854572D01*
X127498742Y14854572D02*
X127498742Y15140286D01*
X127498742Y15140286D02*
X127555885Y15311715D01*
X127555885Y15311715D02*
X127670171Y15426000D01*
X127670171Y15426000D02*
X127784457Y15483143D01*
X127784457Y15483143D02*
X128013028Y15540286D01*
X128013028Y15540286D02*
X128184457Y15540286D01*
X128184457Y15540286D02*
X128413028Y15483143D01*
X128413028Y15483143D02*
X128527314Y15426000D01*
X128527314Y15426000D02*
X128641600Y15311715D01*
X128641600Y15311715D02*
X128698742Y15140286D01*
X128698742Y15140286D02*
X128698742Y14854572D01*
X128355885Y15997429D02*
X128355885Y16568857D01*
X128698742Y15883143D02*
X127498742Y16283143D01*
X127498742Y16283143D02*
X128698742Y16683143D01*
X127498742Y16911714D02*
X127498742Y17597428D01*
X128698742Y17254571D02*
X127498742Y17254571D01*
X127498742Y17997429D02*
X128470171Y17997429D01*
X128470171Y17997429D02*
X128584457Y18054572D01*
X128584457Y18054572D02*
X128641600Y18111714D01*
X128641600Y18111714D02*
X128698742Y18226000D01*
X128698742Y18226000D02*
X128698742Y18454572D01*
X128698742Y18454572D02*
X128641600Y18568857D01*
X128641600Y18568857D02*
X128584457Y18626000D01*
X128584457Y18626000D02*
X128470171Y18683143D01*
X128470171Y18683143D02*
X127498742Y18683143D01*
X128698742Y19254572D02*
X127498742Y19254572D01*
X127498742Y19254572D02*
X128698742Y19940286D01*
X128698742Y19940286D02*
X127498742Y19940286D01*
X128698742Y20511715D02*
X127498742Y20511715D01*
X127498742Y20911715D02*
X127498742Y21597429D01*
X128698742Y21254572D02*
X127498742Y21254572D01*
X127498742Y22226001D02*
X127498742Y22340287D01*
X127498742Y22340287D02*
X127555885Y22454573D01*
X127555885Y22454573D02*
X127613028Y22511715D01*
X127613028Y22511715D02*
X127727314Y22568858D01*
X127727314Y22568858D02*
X127955885Y22626001D01*
X127955885Y22626001D02*
X128241600Y22626001D01*
X128241600Y22626001D02*
X128470171Y22568858D01*
X128470171Y22568858D02*
X128584457Y22511715D01*
X128584457Y22511715D02*
X128641600Y22454573D01*
X128641600Y22454573D02*
X128698742Y22340287D01*
X128698742Y22340287D02*
X128698742Y22226001D01*
X128698742Y22226001D02*
X128641600Y22111715D01*
X128641600Y22111715D02*
X128584457Y22054573D01*
X128584457Y22054573D02*
X128470171Y21997430D01*
X128470171Y21997430D02*
X128241600Y21940287D01*
X128241600Y21940287D02*
X127955885Y21940287D01*
X127955885Y21940287D02*
X127727314Y21997430D01*
X127727314Y21997430D02*
X127613028Y22054573D01*
X127613028Y22054573D02*
X127555885Y22111715D01*
X127555885Y22111715D02*
X127498742Y22226001D01*
X128698742Y23768858D02*
X128698742Y23083144D01*
X128698742Y23426001D02*
X127498742Y23426001D01*
X127498742Y23426001D02*
X127670171Y23311715D01*
X127670171Y23311715D02*
X127784457Y23197430D01*
X127784457Y23197430D02*
X127841600Y23083144D01*
X128355885Y24226001D02*
X128355885Y24797429D01*
X128698742Y24111715D02*
X127498742Y24511715D01*
X127498742Y24511715D02*
X128698742Y24911715D01*
X130630742Y11997430D02*
X129830742Y11997430D01*
X129945028Y11997430D02*
X129887885Y12054573D01*
X129887885Y12054573D02*
X129830742Y12168858D01*
X129830742Y12168858D02*
X129830742Y12340287D01*
X129830742Y12340287D02*
X129887885Y12454573D01*
X129887885Y12454573D02*
X130002171Y12511715D01*
X130002171Y12511715D02*
X130630742Y12511715D01*
X130002171Y12511715D02*
X129887885Y12568858D01*
X129887885Y12568858D02*
X129830742Y12683144D01*
X129830742Y12683144D02*
X129830742Y12854573D01*
X129830742Y12854573D02*
X129887885Y12968858D01*
X129887885Y12968858D02*
X130002171Y13026001D01*
X130002171Y13026001D02*
X130630742Y13026001D01*
X130630742Y13768858D02*
X130573600Y13654573D01*
X130573600Y13654573D02*
X130459314Y13597430D01*
X130459314Y13597430D02*
X129430742Y13597430D01*
X130630742Y14740286D02*
X130002171Y14740286D01*
X130002171Y14740286D02*
X129887885Y14683144D01*
X129887885Y14683144D02*
X129830742Y14568858D01*
X129830742Y14568858D02*
X129830742Y14340286D01*
X129830742Y14340286D02*
X129887885Y14226001D01*
X130573600Y14740286D02*
X130630742Y14626001D01*
X130630742Y14626001D02*
X130630742Y14340286D01*
X130630742Y14340286D02*
X130573600Y14226001D01*
X130573600Y14226001D02*
X130459314Y14168858D01*
X130459314Y14168858D02*
X130345028Y14168858D01*
X130345028Y14168858D02*
X130230742Y14226001D01*
X130230742Y14226001D02*
X130173600Y14340286D01*
X130173600Y14340286D02*
X130173600Y14626001D01*
X130173600Y14626001D02*
X130116457Y14740286D01*
X130630742Y15311715D02*
X129430742Y15311715D01*
X129887885Y15311715D02*
X129830742Y15426000D01*
X129830742Y15426000D02*
X129830742Y15654572D01*
X129830742Y15654572D02*
X129887885Y15768858D01*
X129887885Y15768858D02*
X129945028Y15826000D01*
X129945028Y15826000D02*
X130059314Y15883143D01*
X130059314Y15883143D02*
X130402171Y15883143D01*
X130402171Y15883143D02*
X130516457Y15826000D01*
X130516457Y15826000D02*
X130573600Y15768858D01*
X130573600Y15768858D02*
X130630742Y15654572D01*
X130630742Y15654572D02*
X130630742Y15426000D01*
X130630742Y15426000D02*
X130573600Y15311715D01*
X130516457Y16397429D02*
X130573600Y16454572D01*
X130573600Y16454572D02*
X130630742Y16397429D01*
X130630742Y16397429D02*
X130573600Y16340286D01*
X130573600Y16340286D02*
X130516457Y16397429D01*
X130516457Y16397429D02*
X130630742Y16397429D01*
X130573600Y17483143D02*
X130630742Y17368858D01*
X130630742Y17368858D02*
X130630742Y17140286D01*
X130630742Y17140286D02*
X130573600Y17026001D01*
X130573600Y17026001D02*
X130516457Y16968858D01*
X130516457Y16968858D02*
X130402171Y16911715D01*
X130402171Y16911715D02*
X130059314Y16911715D01*
X130059314Y16911715D02*
X129945028Y16968858D01*
X129945028Y16968858D02*
X129887885Y17026001D01*
X129887885Y17026001D02*
X129830742Y17140286D01*
X129830742Y17140286D02*
X129830742Y17368858D01*
X129830742Y17368858D02*
X129887885Y17483143D01*
X129830742Y17883143D02*
X129830742Y18511714D01*
X129830742Y18511714D02*
X130630742Y17883143D01*
X130630742Y17883143D02*
X130630742Y18511714D01*
X130573600Y19026001D02*
X130630742Y19026001D01*
X130630742Y19026001D02*
X130745028Y18968858D01*
X130745028Y18968858D02*
X130802171Y18911715D01*
X129545028Y20397430D02*
X129487885Y20454573D01*
X129487885Y20454573D02*
X129430742Y20568858D01*
X129430742Y20568858D02*
X129430742Y20854573D01*
X129430742Y20854573D02*
X129487885Y20968858D01*
X129487885Y20968858D02*
X129545028Y21026001D01*
X129545028Y21026001D02*
X129659314Y21083144D01*
X129659314Y21083144D02*
X129773600Y21083144D01*
X129773600Y21083144D02*
X129945028Y21026001D01*
X129945028Y21026001D02*
X130630742Y20340287D01*
X130630742Y20340287D02*
X130630742Y21083144D01*
X129430742Y21826001D02*
X129430742Y21940287D01*
X129430742Y21940287D02*
X129487885Y22054573D01*
X129487885Y22054573D02*
X129545028Y22111715D01*
X129545028Y22111715D02*
X129659314Y22168858D01*
X129659314Y22168858D02*
X129887885Y22226001D01*
X129887885Y22226001D02*
X130173600Y22226001D01*
X130173600Y22226001D02*
X130402171Y22168858D01*
X130402171Y22168858D02*
X130516457Y22111715D01*
X130516457Y22111715D02*
X130573600Y22054573D01*
X130573600Y22054573D02*
X130630742Y21940287D01*
X130630742Y21940287D02*
X130630742Y21826001D01*
X130630742Y21826001D02*
X130573600Y21711715D01*
X130573600Y21711715D02*
X130516457Y21654573D01*
X130516457Y21654573D02*
X130402171Y21597430D01*
X130402171Y21597430D02*
X130173600Y21540287D01*
X130173600Y21540287D02*
X129887885Y21540287D01*
X129887885Y21540287D02*
X129659314Y21597430D01*
X129659314Y21597430D02*
X129545028Y21654573D01*
X129545028Y21654573D02*
X129487885Y21711715D01*
X129487885Y21711715D02*
X129430742Y21826001D01*
X129545028Y22683144D02*
X129487885Y22740287D01*
X129487885Y22740287D02*
X129430742Y22854572D01*
X129430742Y22854572D02*
X129430742Y23140287D01*
X129430742Y23140287D02*
X129487885Y23254572D01*
X129487885Y23254572D02*
X129545028Y23311715D01*
X129545028Y23311715D02*
X129659314Y23368858D01*
X129659314Y23368858D02*
X129773600Y23368858D01*
X129773600Y23368858D02*
X129945028Y23311715D01*
X129945028Y23311715D02*
X130630742Y22626001D01*
X130630742Y22626001D02*
X130630742Y23368858D01*
X129430742Y23768858D02*
X129430742Y24511715D01*
X129430742Y24511715D02*
X129887885Y24111715D01*
X129887885Y24111715D02*
X129887885Y24283144D01*
X129887885Y24283144D02*
X129945028Y24397429D01*
X129945028Y24397429D02*
X130002171Y24454572D01*
X130002171Y24454572D02*
X130116457Y24511715D01*
X130116457Y24511715D02*
X130402171Y24511715D01*
X130402171Y24511715D02*
X130516457Y24454572D01*
X130516457Y24454572D02*
X130573600Y24397429D01*
X130573600Y24397429D02*
X130630742Y24283144D01*
X130630742Y24283144D02*
X130630742Y23940287D01*
X130630742Y23940287D02*
X130573600Y23826001D01*
X130573600Y23826001D02*
X130516457Y23768858D01*
X132562742Y12026002D02*
X131762742Y12026002D01*
X131991314Y12026002D02*
X131877028Y12083145D01*
X131877028Y12083145D02*
X131819885Y12140287D01*
X131819885Y12140287D02*
X131762742Y12254573D01*
X131762742Y12254573D02*
X131762742Y12368859D01*
X132562742Y12940287D02*
X132505600Y12826002D01*
X132505600Y12826002D02*
X132448457Y12768859D01*
X132448457Y12768859D02*
X132334171Y12711716D01*
X132334171Y12711716D02*
X131991314Y12711716D01*
X131991314Y12711716D02*
X131877028Y12768859D01*
X131877028Y12768859D02*
X131819885Y12826002D01*
X131819885Y12826002D02*
X131762742Y12940287D01*
X131762742Y12940287D02*
X131762742Y13111716D01*
X131762742Y13111716D02*
X131819885Y13226002D01*
X131819885Y13226002D02*
X131877028Y13283144D01*
X131877028Y13283144D02*
X131991314Y13340287D01*
X131991314Y13340287D02*
X132334171Y13340287D01*
X132334171Y13340287D02*
X132448457Y13283144D01*
X132448457Y13283144D02*
X132505600Y13226002D01*
X132505600Y13226002D02*
X132562742Y13111716D01*
X132562742Y13111716D02*
X132562742Y12940287D01*
X132562742Y13854573D02*
X131762742Y13854573D01*
X131877028Y13854573D02*
X131819885Y13911716D01*
X131819885Y13911716D02*
X131762742Y14026001D01*
X131762742Y14026001D02*
X131762742Y14197430D01*
X131762742Y14197430D02*
X131819885Y14311716D01*
X131819885Y14311716D02*
X131934171Y14368858D01*
X131934171Y14368858D02*
X132562742Y14368858D01*
X131934171Y14368858D02*
X131819885Y14426001D01*
X131819885Y14426001D02*
X131762742Y14540287D01*
X131762742Y14540287D02*
X131762742Y14711716D01*
X131762742Y14711716D02*
X131819885Y14826001D01*
X131819885Y14826001D02*
X131934171Y14883144D01*
X131934171Y14883144D02*
X132562742Y14883144D01*
X132562742Y15968858D02*
X131934171Y15968858D01*
X131934171Y15968858D02*
X131819885Y15911716D01*
X131819885Y15911716D02*
X131762742Y15797430D01*
X131762742Y15797430D02*
X131762742Y15568858D01*
X131762742Y15568858D02*
X131819885Y15454573D01*
X132505600Y15968858D02*
X132562742Y15854573D01*
X132562742Y15854573D02*
X132562742Y15568858D01*
X132562742Y15568858D02*
X132505600Y15454573D01*
X132505600Y15454573D02*
X132391314Y15397430D01*
X132391314Y15397430D02*
X132277028Y15397430D01*
X132277028Y15397430D02*
X132162742Y15454573D01*
X132162742Y15454573D02*
X132105600Y15568858D01*
X132105600Y15568858D02*
X132105600Y15854573D01*
X132105600Y15854573D02*
X132048457Y15968858D01*
X131762742Y16540287D02*
X132562742Y16540287D01*
X131877028Y16540287D02*
X131819885Y16597430D01*
X131819885Y16597430D02*
X131762742Y16711715D01*
X131762742Y16711715D02*
X131762742Y16883144D01*
X131762742Y16883144D02*
X131819885Y16997430D01*
X131819885Y16997430D02*
X131934171Y17054572D01*
X131934171Y17054572D02*
X132562742Y17054572D01*
X132105600Y17626001D02*
X132105600Y18540286D01*
X132562742Y19626000D02*
X131362742Y19626000D01*
X132505600Y19626000D02*
X132562742Y19511715D01*
X132562742Y19511715D02*
X132562742Y19283143D01*
X132562742Y19283143D02*
X132505600Y19168858D01*
X132505600Y19168858D02*
X132448457Y19111715D01*
X132448457Y19111715D02*
X132334171Y19054572D01*
X132334171Y19054572D02*
X131991314Y19054572D01*
X131991314Y19054572D02*
X131877028Y19111715D01*
X131877028Y19111715D02*
X131819885Y19168858D01*
X131819885Y19168858D02*
X131762742Y19283143D01*
X131762742Y19283143D02*
X131762742Y19511715D01*
X131762742Y19511715D02*
X131819885Y19626000D01*
X131762742Y20083143D02*
X132562742Y20368857D01*
X132562742Y20368857D02*
X131762742Y20654572D01*
X132562742Y21283143D02*
X132505600Y21168858D01*
X132505600Y21168858D02*
X132448457Y21111715D01*
X132448457Y21111715D02*
X132334171Y21054572D01*
X132334171Y21054572D02*
X131991314Y21054572D01*
X131991314Y21054572D02*
X131877028Y21111715D01*
X131877028Y21111715D02*
X131819885Y21168858D01*
X131819885Y21168858D02*
X131762742Y21283143D01*
X131762742Y21283143D02*
X131762742Y21454572D01*
X131762742Y21454572D02*
X131819885Y21568858D01*
X131819885Y21568858D02*
X131877028Y21626000D01*
X131877028Y21626000D02*
X131991314Y21683143D01*
X131991314Y21683143D02*
X132334171Y21683143D01*
X132334171Y21683143D02*
X132448457Y21626000D01*
X132448457Y21626000D02*
X132505600Y21568858D01*
X132505600Y21568858D02*
X132562742Y21454572D01*
X132562742Y21454572D02*
X132562742Y21283143D01*
X132562742Y22197429D02*
X131762742Y22197429D01*
X131991314Y22197429D02*
X131877028Y22254572D01*
X131877028Y22254572D02*
X131819885Y22311714D01*
X131819885Y22311714D02*
X131762742Y22426000D01*
X131762742Y22426000D02*
X131762742Y22540286D01*
X132562742Y23454571D02*
X131934171Y23454571D01*
X131934171Y23454571D02*
X131819885Y23397429D01*
X131819885Y23397429D02*
X131762742Y23283143D01*
X131762742Y23283143D02*
X131762742Y23054571D01*
X131762742Y23054571D02*
X131819885Y22940286D01*
X132505600Y23454571D02*
X132562742Y23340286D01*
X132562742Y23340286D02*
X132562742Y23054571D01*
X132562742Y23054571D02*
X132505600Y22940286D01*
X132505600Y22940286D02*
X132391314Y22883143D01*
X132391314Y22883143D02*
X132277028Y22883143D01*
X132277028Y22883143D02*
X132162742Y22940286D01*
X132162742Y22940286D02*
X132105600Y23054571D01*
X132105600Y23054571D02*
X132105600Y23340286D01*
X132105600Y23340286D02*
X132048457Y23454571D01*
X132562742Y24026000D02*
X131362742Y24026000D01*
X132105600Y24140285D02*
X132562742Y24483143D01*
X131762742Y24483143D02*
X132219885Y24026000D01*
D10*
X133700285Y63095820D02*
X134214571Y63095820D01*
X133957428Y63095820D02*
X133957428Y62095820D01*
X133957428Y62095820D02*
X134043142Y62238677D01*
X134043142Y62238677D02*
X134128857Y62333915D01*
X134128857Y62333915D02*
X134214571Y62381534D01*
X133143142Y62095820D02*
X133057428Y62095820D01*
X133057428Y62095820D02*
X132971714Y62143439D01*
X132971714Y62143439D02*
X132928857Y62191058D01*
X132928857Y62191058D02*
X132885999Y62286296D01*
X132885999Y62286296D02*
X132843142Y62476772D01*
X132843142Y62476772D02*
X132843142Y62714867D01*
X132843142Y62714867D02*
X132885999Y62905343D01*
X132885999Y62905343D02*
X132928857Y63000581D01*
X132928857Y63000581D02*
X132971714Y63048200D01*
X132971714Y63048200D02*
X133057428Y63095820D01*
X133057428Y63095820D02*
X133143142Y63095820D01*
X133143142Y63095820D02*
X133228857Y63048200D01*
X133228857Y63048200D02*
X133271714Y63000581D01*
X133271714Y63000581D02*
X133314571Y62905343D01*
X133314571Y62905343D02*
X133357428Y62714867D01*
X133357428Y62714867D02*
X133357428Y62476772D01*
X133357428Y62476772D02*
X133314571Y62286296D01*
X133314571Y62286296D02*
X133271714Y62191058D01*
X133271714Y62191058D02*
X133228857Y62143439D01*
X133228857Y62143439D02*
X133143142Y62095820D01*
X132285999Y62095820D02*
X132200285Y62095820D01*
X132200285Y62095820D02*
X132114571Y62143439D01*
X132114571Y62143439D02*
X132071714Y62191058D01*
X132071714Y62191058D02*
X132028856Y62286296D01*
X132028856Y62286296D02*
X131985999Y62476772D01*
X131985999Y62476772D02*
X131985999Y62714867D01*
X131985999Y62714867D02*
X132028856Y62905343D01*
X132028856Y62905343D02*
X132071714Y63000581D01*
X132071714Y63000581D02*
X132114571Y63048200D01*
X132114571Y63048200D02*
X132200285Y63095820D01*
X132200285Y63095820D02*
X132285999Y63095820D01*
X132285999Y63095820D02*
X132371714Y63048200D01*
X132371714Y63048200D02*
X132414571Y63000581D01*
X132414571Y63000581D02*
X132457428Y62905343D01*
X132457428Y62905343D02*
X132500285Y62714867D01*
X132500285Y62714867D02*
X132500285Y62476772D01*
X132500285Y62476772D02*
X132457428Y62286296D01*
X132457428Y62286296D02*
X132414571Y62191058D01*
X132414571Y62191058D02*
X132371714Y62143439D01*
X132371714Y62143439D02*
X132285999Y62095820D01*
X131643142Y63095820D02*
X130957428Y62095820D01*
X131514571Y62095820D02*
X131428856Y62143439D01*
X131428856Y62143439D02*
X131385999Y62238677D01*
X131385999Y62238677D02*
X131428856Y62333915D01*
X131428856Y62333915D02*
X131514571Y62381534D01*
X131514571Y62381534D02*
X131600285Y62333915D01*
X131600285Y62333915D02*
X131643142Y62238677D01*
X131643142Y62238677D02*
X131600285Y62143439D01*
X131600285Y62143439D02*
X131514571Y62095820D01*
X131000285Y63048200D02*
X130957428Y62952962D01*
X130957428Y62952962D02*
X131000285Y62857724D01*
X131000285Y62857724D02*
X131085999Y62810105D01*
X131085999Y62810105D02*
X131171713Y62857724D01*
X131171713Y62857724D02*
X131214571Y62952962D01*
X131214571Y62952962D02*
X131171713Y63048200D01*
X131171713Y63048200D02*
X131085999Y63095820D01*
X131085999Y63095820D02*
X131000285Y63048200D01*
D13*
X131225895Y65936715D02*
X130844942Y65670048D01*
X131225895Y65479572D02*
X130425895Y65479572D01*
X130425895Y65479572D02*
X130425895Y65784334D01*
X130425895Y65784334D02*
X130463990Y65860524D01*
X130463990Y65860524D02*
X130502085Y65898619D01*
X130502085Y65898619D02*
X130578276Y65936715D01*
X130578276Y65936715D02*
X130692561Y65936715D01*
X130692561Y65936715D02*
X130768752Y65898619D01*
X130768752Y65898619D02*
X130806847Y65860524D01*
X130806847Y65860524D02*
X130844942Y65784334D01*
X130844942Y65784334D02*
X130844942Y65479572D01*
X131225895Y66698619D02*
X131225895Y66241476D01*
X131225895Y66470048D02*
X130425895Y66470048D01*
X130425895Y66470048D02*
X130540180Y66393857D01*
X130540180Y66393857D02*
X130616371Y66317667D01*
X130616371Y66317667D02*
X130654466Y66241476D01*
X130692561Y67384334D02*
X131225895Y67384334D01*
X130387800Y67193858D02*
X130959228Y67003381D01*
X130959228Y67003381D02*
X130959228Y67498620D01*
X64766847Y45322429D02*
X64804942Y45436715D01*
X64804942Y45436715D02*
X64843038Y45474810D01*
X64843038Y45474810D02*
X64919228Y45512906D01*
X64919228Y45512906D02*
X65033514Y45512906D01*
X65033514Y45512906D02*
X65109704Y45474810D01*
X65109704Y45474810D02*
X65147800Y45436715D01*
X65147800Y45436715D02*
X65185895Y45360525D01*
X65185895Y45360525D02*
X65185895Y45055763D01*
X65185895Y45055763D02*
X64385895Y45055763D01*
X64385895Y45055763D02*
X64385895Y45322429D01*
X64385895Y45322429D02*
X64423990Y45398620D01*
X64423990Y45398620D02*
X64462085Y45436715D01*
X64462085Y45436715D02*
X64538276Y45474810D01*
X64538276Y45474810D02*
X64614466Y45474810D01*
X64614466Y45474810D02*
X64690657Y45436715D01*
X64690657Y45436715D02*
X64728752Y45398620D01*
X64728752Y45398620D02*
X64766847Y45322429D01*
X64766847Y45322429D02*
X64766847Y45055763D01*
X64385895Y45741477D02*
X64385895Y46198620D01*
X65185895Y45970048D02*
X64385895Y45970048D01*
X65185895Y46884334D02*
X65185895Y46427191D01*
X65185895Y46655763D02*
X64385895Y46655763D01*
X64385895Y46655763D02*
X64500180Y46579572D01*
X64500180Y46579572D02*
X64576371Y46503382D01*
X64576371Y46503382D02*
X64614466Y46427191D01*
X129000895Y56220049D02*
X128619942Y55953382D01*
X129000895Y55762906D02*
X128200895Y55762906D01*
X128200895Y55762906D02*
X128200895Y56067668D01*
X128200895Y56067668D02*
X128238990Y56143858D01*
X128238990Y56143858D02*
X128277085Y56181953D01*
X128277085Y56181953D02*
X128353276Y56220049D01*
X128353276Y56220049D02*
X128467561Y56220049D01*
X128467561Y56220049D02*
X128543752Y56181953D01*
X128543752Y56181953D02*
X128581847Y56143858D01*
X128581847Y56143858D02*
X128619942Y56067668D01*
X128619942Y56067668D02*
X128619942Y55762906D01*
X128200895Y56943858D02*
X128200895Y56562906D01*
X128200895Y56562906D02*
X128581847Y56524810D01*
X128581847Y56524810D02*
X128543752Y56562906D01*
X128543752Y56562906D02*
X128505657Y56639096D01*
X128505657Y56639096D02*
X128505657Y56829572D01*
X128505657Y56829572D02*
X128543752Y56905763D01*
X128543752Y56905763D02*
X128581847Y56943858D01*
X128581847Y56943858D02*
X128658038Y56981953D01*
X128658038Y56981953D02*
X128848514Y56981953D01*
X128848514Y56981953D02*
X128924704Y56943858D01*
X128924704Y56943858D02*
X128962800Y56905763D01*
X128962800Y56905763D02*
X129000895Y56829572D01*
X129000895Y56829572D02*
X129000895Y56639096D01*
X129000895Y56639096D02*
X128962800Y56562906D01*
X128962800Y56562906D02*
X128924704Y56524810D01*
X128543752Y57439096D02*
X128505657Y57362906D01*
X128505657Y57362906D02*
X128467561Y57324811D01*
X128467561Y57324811D02*
X128391371Y57286715D01*
X128391371Y57286715D02*
X128353276Y57286715D01*
X128353276Y57286715D02*
X128277085Y57324811D01*
X128277085Y57324811D02*
X128238990Y57362906D01*
X128238990Y57362906D02*
X128200895Y57439096D01*
X128200895Y57439096D02*
X128200895Y57591477D01*
X128200895Y57591477D02*
X128238990Y57667668D01*
X128238990Y57667668D02*
X128277085Y57705763D01*
X128277085Y57705763D02*
X128353276Y57743858D01*
X128353276Y57743858D02*
X128391371Y57743858D01*
X128391371Y57743858D02*
X128467561Y57705763D01*
X128467561Y57705763D02*
X128505657Y57667668D01*
X128505657Y57667668D02*
X128543752Y57591477D01*
X128543752Y57591477D02*
X128543752Y57439096D01*
X128543752Y57439096D02*
X128581847Y57362906D01*
X128581847Y57362906D02*
X128619942Y57324811D01*
X128619942Y57324811D02*
X128696133Y57286715D01*
X128696133Y57286715D02*
X128848514Y57286715D01*
X128848514Y57286715D02*
X128924704Y57324811D01*
X128924704Y57324811D02*
X128962800Y57362906D01*
X128962800Y57362906D02*
X129000895Y57439096D01*
X129000895Y57439096D02*
X129000895Y57591477D01*
X129000895Y57591477D02*
X128962800Y57667668D01*
X128962800Y57667668D02*
X128924704Y57705763D01*
X128924704Y57705763D02*
X128848514Y57743858D01*
X128848514Y57743858D02*
X128696133Y57743858D01*
X128696133Y57743858D02*
X128619942Y57705763D01*
X128619942Y57705763D02*
X128581847Y57667668D01*
X128581847Y57667668D02*
X128543752Y57591477D01*
X128975895Y44036715D02*
X128594942Y43770048D01*
X128975895Y43579572D02*
X128175895Y43579572D01*
X128175895Y43579572D02*
X128175895Y43884334D01*
X128175895Y43884334D02*
X128213990Y43960524D01*
X128213990Y43960524D02*
X128252085Y43998619D01*
X128252085Y43998619D02*
X128328276Y44036715D01*
X128328276Y44036715D02*
X128442561Y44036715D01*
X128442561Y44036715D02*
X128518752Y43998619D01*
X128518752Y43998619D02*
X128556847Y43960524D01*
X128556847Y43960524D02*
X128594942Y43884334D01*
X128594942Y43884334D02*
X128594942Y43579572D01*
X128175895Y44760524D02*
X128175895Y44379572D01*
X128175895Y44379572D02*
X128556847Y44341476D01*
X128556847Y44341476D02*
X128518752Y44379572D01*
X128518752Y44379572D02*
X128480657Y44455762D01*
X128480657Y44455762D02*
X128480657Y44646238D01*
X128480657Y44646238D02*
X128518752Y44722429D01*
X128518752Y44722429D02*
X128556847Y44760524D01*
X128556847Y44760524D02*
X128633038Y44798619D01*
X128633038Y44798619D02*
X128823514Y44798619D01*
X128823514Y44798619D02*
X128899704Y44760524D01*
X128899704Y44760524D02*
X128937800Y44722429D01*
X128937800Y44722429D02*
X128975895Y44646238D01*
X128975895Y44646238D02*
X128975895Y44455762D01*
X128975895Y44455762D02*
X128937800Y44379572D01*
X128937800Y44379572D02*
X128899704Y44341476D01*
X128442561Y45484334D02*
X128975895Y45484334D01*
X128137800Y45293858D02*
X128709228Y45103381D01*
X128709228Y45103381D02*
X128709228Y45598620D01*
X129000895Y61036715D02*
X128619942Y60770048D01*
X129000895Y60579572D02*
X128200895Y60579572D01*
X128200895Y60579572D02*
X128200895Y60884334D01*
X128200895Y60884334D02*
X128238990Y60960524D01*
X128238990Y60960524D02*
X128277085Y60998619D01*
X128277085Y60998619D02*
X128353276Y61036715D01*
X128353276Y61036715D02*
X128467561Y61036715D01*
X128467561Y61036715D02*
X128543752Y60998619D01*
X128543752Y60998619D02*
X128581847Y60960524D01*
X128581847Y60960524D02*
X128619942Y60884334D01*
X128619942Y60884334D02*
X128619942Y60579572D01*
X128200895Y61722429D02*
X128200895Y61570048D01*
X128200895Y61570048D02*
X128238990Y61493857D01*
X128238990Y61493857D02*
X128277085Y61455762D01*
X128277085Y61455762D02*
X128391371Y61379572D01*
X128391371Y61379572D02*
X128543752Y61341476D01*
X128543752Y61341476D02*
X128848514Y61341476D01*
X128848514Y61341476D02*
X128924704Y61379572D01*
X128924704Y61379572D02*
X128962800Y61417667D01*
X128962800Y61417667D02*
X129000895Y61493857D01*
X129000895Y61493857D02*
X129000895Y61646238D01*
X129000895Y61646238D02*
X128962800Y61722429D01*
X128962800Y61722429D02*
X128924704Y61760524D01*
X128924704Y61760524D02*
X128848514Y61798619D01*
X128848514Y61798619D02*
X128658038Y61798619D01*
X128658038Y61798619D02*
X128581847Y61760524D01*
X128581847Y61760524D02*
X128543752Y61722429D01*
X128543752Y61722429D02*
X128505657Y61646238D01*
X128505657Y61646238D02*
X128505657Y61493857D01*
X128505657Y61493857D02*
X128543752Y61417667D01*
X128543752Y61417667D02*
X128581847Y61379572D01*
X128581847Y61379572D02*
X128658038Y61341476D01*
X128200895Y62293858D02*
X128200895Y62370048D01*
X128200895Y62370048D02*
X128238990Y62446239D01*
X128238990Y62446239D02*
X128277085Y62484334D01*
X128277085Y62484334D02*
X128353276Y62522429D01*
X128353276Y62522429D02*
X128505657Y62560524D01*
X128505657Y62560524D02*
X128696133Y62560524D01*
X128696133Y62560524D02*
X128848514Y62522429D01*
X128848514Y62522429D02*
X128924704Y62484334D01*
X128924704Y62484334D02*
X128962800Y62446239D01*
X128962800Y62446239D02*
X129000895Y62370048D01*
X129000895Y62370048D02*
X129000895Y62293858D01*
X129000895Y62293858D02*
X128962800Y62217667D01*
X128962800Y62217667D02*
X128924704Y62179572D01*
X128924704Y62179572D02*
X128848514Y62141477D01*
X128848514Y62141477D02*
X128696133Y62103381D01*
X128696133Y62103381D02*
X128505657Y62103381D01*
X128505657Y62103381D02*
X128353276Y62141477D01*
X128353276Y62141477D02*
X128277085Y62179572D01*
X128277085Y62179572D02*
X128238990Y62217667D01*
X128238990Y62217667D02*
X128200895Y62293858D01*
X132275895Y69435525D02*
X131475895Y69435525D01*
X131475895Y69435525D02*
X131475895Y69626001D01*
X131475895Y69626001D02*
X131513990Y69740287D01*
X131513990Y69740287D02*
X131590180Y69816477D01*
X131590180Y69816477D02*
X131666371Y69854572D01*
X131666371Y69854572D02*
X131818752Y69892668D01*
X131818752Y69892668D02*
X131933038Y69892668D01*
X131933038Y69892668D02*
X132085419Y69854572D01*
X132085419Y69854572D02*
X132161609Y69816477D01*
X132161609Y69816477D02*
X132237800Y69740287D01*
X132237800Y69740287D02*
X132275895Y69626001D01*
X132275895Y69626001D02*
X132275895Y69435525D01*
X131552085Y70197429D02*
X131513990Y70235525D01*
X131513990Y70235525D02*
X131475895Y70311715D01*
X131475895Y70311715D02*
X131475895Y70502191D01*
X131475895Y70502191D02*
X131513990Y70578382D01*
X131513990Y70578382D02*
X131552085Y70616477D01*
X131552085Y70616477D02*
X131628276Y70654572D01*
X131628276Y70654572D02*
X131704466Y70654572D01*
X131704466Y70654572D02*
X131818752Y70616477D01*
X131818752Y70616477D02*
X132275895Y70159334D01*
X132275895Y70159334D02*
X132275895Y70654572D01*
X76457428Y63311105D02*
X76914571Y63311105D01*
X76685999Y62511105D02*
X76685999Y63311105D01*
X77181238Y62511105D02*
X77181238Y63311105D01*
X77181238Y62930153D02*
X77638381Y62930153D01*
X77638381Y62511105D02*
X77638381Y63311105D01*
X77981237Y63234915D02*
X78019333Y63273010D01*
X78019333Y63273010D02*
X78095523Y63311105D01*
X78095523Y63311105D02*
X78285999Y63311105D01*
X78285999Y63311105D02*
X78362190Y63273010D01*
X78362190Y63273010D02*
X78400285Y63234915D01*
X78400285Y63234915D02*
X78438380Y63158724D01*
X78438380Y63158724D02*
X78438380Y63082534D01*
X78438380Y63082534D02*
X78400285Y62968248D01*
X78400285Y62968248D02*
X77943142Y62511105D01*
X77943142Y62511105D02*
X78438380Y62511105D01*
X54821428Y63735105D02*
X55278571Y63735105D01*
X55049999Y62935105D02*
X55049999Y63735105D01*
X55545238Y62935105D02*
X55545238Y63735105D01*
X55545238Y63354153D02*
X56002381Y63354153D01*
X56002381Y62935105D02*
X56002381Y63735105D01*
X56802380Y62935105D02*
X56345237Y62935105D01*
X56573809Y62935105D02*
X56573809Y63735105D01*
X56573809Y63735105D02*
X56497618Y63620820D01*
X56497618Y63620820D02*
X56421428Y63544629D01*
X56421428Y63544629D02*
X56345237Y63506534D01*
X128975895Y49136715D02*
X128594942Y48870048D01*
X128975895Y48679572D02*
X128175895Y48679572D01*
X128175895Y48679572D02*
X128175895Y48984334D01*
X128175895Y48984334D02*
X128213990Y49060524D01*
X128213990Y49060524D02*
X128252085Y49098619D01*
X128252085Y49098619D02*
X128328276Y49136715D01*
X128328276Y49136715D02*
X128442561Y49136715D01*
X128442561Y49136715D02*
X128518752Y49098619D01*
X128518752Y49098619D02*
X128556847Y49060524D01*
X128556847Y49060524D02*
X128594942Y48984334D01*
X128594942Y48984334D02*
X128594942Y48679572D01*
X128175895Y49860524D02*
X128175895Y49479572D01*
X128175895Y49479572D02*
X128556847Y49441476D01*
X128556847Y49441476D02*
X128518752Y49479572D01*
X128518752Y49479572D02*
X128480657Y49555762D01*
X128480657Y49555762D02*
X128480657Y49746238D01*
X128480657Y49746238D02*
X128518752Y49822429D01*
X128518752Y49822429D02*
X128556847Y49860524D01*
X128556847Y49860524D02*
X128633038Y49898619D01*
X128633038Y49898619D02*
X128823514Y49898619D01*
X128823514Y49898619D02*
X128899704Y49860524D01*
X128899704Y49860524D02*
X128937800Y49822429D01*
X128937800Y49822429D02*
X128975895Y49746238D01*
X128975895Y49746238D02*
X128975895Y49555762D01*
X128975895Y49555762D02*
X128937800Y49479572D01*
X128937800Y49479572D02*
X128899704Y49441476D01*
X128175895Y50584334D02*
X128175895Y50431953D01*
X128175895Y50431953D02*
X128213990Y50355762D01*
X128213990Y50355762D02*
X128252085Y50317667D01*
X128252085Y50317667D02*
X128366371Y50241477D01*
X128366371Y50241477D02*
X128518752Y50203381D01*
X128518752Y50203381D02*
X128823514Y50203381D01*
X128823514Y50203381D02*
X128899704Y50241477D01*
X128899704Y50241477D02*
X128937800Y50279572D01*
X128937800Y50279572D02*
X128975895Y50355762D01*
X128975895Y50355762D02*
X128975895Y50508143D01*
X128975895Y50508143D02*
X128937800Y50584334D01*
X128937800Y50584334D02*
X128899704Y50622429D01*
X128899704Y50622429D02*
X128823514Y50660524D01*
X128823514Y50660524D02*
X128633038Y50660524D01*
X128633038Y50660524D02*
X128556847Y50622429D01*
X128556847Y50622429D02*
X128518752Y50584334D01*
X128518752Y50584334D02*
X128480657Y50508143D01*
X128480657Y50508143D02*
X128480657Y50355762D01*
X128480657Y50355762D02*
X128518752Y50279572D01*
X128518752Y50279572D02*
X128556847Y50241477D01*
X128556847Y50241477D02*
X128633038Y50203381D01*
X133950895Y17260525D02*
X133150895Y17260525D01*
X133150895Y17260525D02*
X133150895Y17451001D01*
X133150895Y17451001D02*
X133188990Y17565287D01*
X133188990Y17565287D02*
X133265180Y17641477D01*
X133265180Y17641477D02*
X133341371Y17679572D01*
X133341371Y17679572D02*
X133493752Y17717668D01*
X133493752Y17717668D02*
X133608038Y17717668D01*
X133608038Y17717668D02*
X133760419Y17679572D01*
X133760419Y17679572D02*
X133836609Y17641477D01*
X133836609Y17641477D02*
X133912800Y17565287D01*
X133912800Y17565287D02*
X133950895Y17451001D01*
X133950895Y17451001D02*
X133950895Y17260525D01*
X133417561Y18403382D02*
X133950895Y18403382D01*
X133112800Y18212906D02*
X133684228Y18022429D01*
X133684228Y18022429D02*
X133684228Y18517668D01*
X130700895Y48854572D02*
X129900895Y48854572D01*
X129900895Y48854572D02*
X129900895Y49045048D01*
X129900895Y49045048D02*
X129938990Y49159334D01*
X129938990Y49159334D02*
X130015180Y49235524D01*
X130015180Y49235524D02*
X130091371Y49273619D01*
X130091371Y49273619D02*
X130243752Y49311715D01*
X130243752Y49311715D02*
X130358038Y49311715D01*
X130358038Y49311715D02*
X130510419Y49273619D01*
X130510419Y49273619D02*
X130586609Y49235524D01*
X130586609Y49235524D02*
X130662800Y49159334D01*
X130662800Y49159334D02*
X130700895Y49045048D01*
X130700895Y49045048D02*
X130700895Y48854572D01*
X130700895Y50073619D02*
X130700895Y49616476D01*
X130700895Y49845048D02*
X129900895Y49845048D01*
X129900895Y49845048D02*
X130015180Y49768857D01*
X130015180Y49768857D02*
X130091371Y49692667D01*
X130091371Y49692667D02*
X130129466Y49616476D01*
X130700895Y50835524D02*
X130700895Y50378381D01*
X130700895Y50606953D02*
X129900895Y50606953D01*
X129900895Y50606953D02*
X130015180Y50530762D01*
X130015180Y50530762D02*
X130091371Y50454572D01*
X130091371Y50454572D02*
X130129466Y50378381D01*
X130675895Y60080592D02*
X129875895Y60080592D01*
X129875895Y60080592D02*
X129875895Y60271068D01*
X129875895Y60271068D02*
X129913990Y60385354D01*
X129913990Y60385354D02*
X129990180Y60461544D01*
X129990180Y60461544D02*
X130066371Y60499639D01*
X130066371Y60499639D02*
X130218752Y60537735D01*
X130218752Y60537735D02*
X130333038Y60537735D01*
X130333038Y60537735D02*
X130485419Y60499639D01*
X130485419Y60499639D02*
X130561609Y60461544D01*
X130561609Y60461544D02*
X130637800Y60385354D01*
X130637800Y60385354D02*
X130675895Y60271068D01*
X130675895Y60271068D02*
X130675895Y60080592D01*
X130675895Y61299639D02*
X130675895Y60842496D01*
X130675895Y61071068D02*
X129875895Y61071068D01*
X129875895Y61071068D02*
X129990180Y60994877D01*
X129990180Y60994877D02*
X130066371Y60918687D01*
X130066371Y60918687D02*
X130104466Y60842496D01*
X129875895Y62023449D02*
X129875895Y61642497D01*
X129875895Y61642497D02*
X130256847Y61604401D01*
X130256847Y61604401D02*
X130218752Y61642497D01*
X130218752Y61642497D02*
X130180657Y61718687D01*
X130180657Y61718687D02*
X130180657Y61909163D01*
X130180657Y61909163D02*
X130218752Y61985354D01*
X130218752Y61985354D02*
X130256847Y62023449D01*
X130256847Y62023449D02*
X130333038Y62061544D01*
X130333038Y62061544D02*
X130523514Y62061544D01*
X130523514Y62061544D02*
X130599704Y62023449D01*
X130599704Y62023449D02*
X130637800Y61985354D01*
X130637800Y61985354D02*
X130675895Y61909163D01*
X130675895Y61909163D02*
X130675895Y61718687D01*
X130675895Y61718687D02*
X130637800Y61642497D01*
X130637800Y61642497D02*
X130599704Y61604401D01*
X131200895Y69561715D02*
X130819942Y69295048D01*
X131200895Y69104572D02*
X130400895Y69104572D01*
X130400895Y69104572D02*
X130400895Y69409334D01*
X130400895Y69409334D02*
X130438990Y69485524D01*
X130438990Y69485524D02*
X130477085Y69523619D01*
X130477085Y69523619D02*
X130553276Y69561715D01*
X130553276Y69561715D02*
X130667561Y69561715D01*
X130667561Y69561715D02*
X130743752Y69523619D01*
X130743752Y69523619D02*
X130781847Y69485524D01*
X130781847Y69485524D02*
X130819942Y69409334D01*
X130819942Y69409334D02*
X130819942Y69104572D01*
X131200895Y70323619D02*
X131200895Y69866476D01*
X131200895Y70095048D02*
X130400895Y70095048D01*
X130400895Y70095048D02*
X130515180Y70018857D01*
X130515180Y70018857D02*
X130591371Y69942667D01*
X130591371Y69942667D02*
X130629466Y69866476D01*
X130743752Y70780762D02*
X130705657Y70704572D01*
X130705657Y70704572D02*
X130667561Y70666477D01*
X130667561Y70666477D02*
X130591371Y70628381D01*
X130591371Y70628381D02*
X130553276Y70628381D01*
X130553276Y70628381D02*
X130477085Y70666477D01*
X130477085Y70666477D02*
X130438990Y70704572D01*
X130438990Y70704572D02*
X130400895Y70780762D01*
X130400895Y70780762D02*
X130400895Y70933143D01*
X130400895Y70933143D02*
X130438990Y71009334D01*
X130438990Y71009334D02*
X130477085Y71047429D01*
X130477085Y71047429D02*
X130553276Y71085524D01*
X130553276Y71085524D02*
X130591371Y71085524D01*
X130591371Y71085524D02*
X130667561Y71047429D01*
X130667561Y71047429D02*
X130705657Y71009334D01*
X130705657Y71009334D02*
X130743752Y70933143D01*
X130743752Y70933143D02*
X130743752Y70780762D01*
X130743752Y70780762D02*
X130781847Y70704572D01*
X130781847Y70704572D02*
X130819942Y70666477D01*
X130819942Y70666477D02*
X130896133Y70628381D01*
X130896133Y70628381D02*
X131048514Y70628381D01*
X131048514Y70628381D02*
X131124704Y70666477D01*
X131124704Y70666477D02*
X131162800Y70704572D01*
X131162800Y70704572D02*
X131200895Y70780762D01*
X131200895Y70780762D02*
X131200895Y70933143D01*
X131200895Y70933143D02*
X131162800Y71009334D01*
X131162800Y71009334D02*
X131124704Y71047429D01*
X131124704Y71047429D02*
X131048514Y71085524D01*
X131048514Y71085524D02*
X130896133Y71085524D01*
X130896133Y71085524D02*
X130819942Y71047429D01*
X130819942Y71047429D02*
X130781847Y71009334D01*
X130781847Y71009334D02*
X130743752Y70933143D01*
X132275895Y65910525D02*
X131475895Y65910525D01*
X131475895Y65910525D02*
X131475895Y66101001D01*
X131475895Y66101001D02*
X131513990Y66215287D01*
X131513990Y66215287D02*
X131590180Y66291477D01*
X131590180Y66291477D02*
X131666371Y66329572D01*
X131666371Y66329572D02*
X131818752Y66367668D01*
X131818752Y66367668D02*
X131933038Y66367668D01*
X131933038Y66367668D02*
X132085419Y66329572D01*
X132085419Y66329572D02*
X132161609Y66291477D01*
X132161609Y66291477D02*
X132237800Y66215287D01*
X132237800Y66215287D02*
X132275895Y66101001D01*
X132275895Y66101001D02*
X132275895Y65910525D01*
X132275895Y67129572D02*
X132275895Y66672429D01*
X132275895Y66901001D02*
X131475895Y66901001D01*
X131475895Y66901001D02*
X131590180Y66824810D01*
X131590180Y66824810D02*
X131666371Y66748620D01*
X131666371Y66748620D02*
X131704466Y66672429D01*
X133950895Y22810525D02*
X133150895Y22810525D01*
X133150895Y22810525D02*
X133150895Y23001001D01*
X133150895Y23001001D02*
X133188990Y23115287D01*
X133188990Y23115287D02*
X133265180Y23191477D01*
X133265180Y23191477D02*
X133341371Y23229572D01*
X133341371Y23229572D02*
X133493752Y23267668D01*
X133493752Y23267668D02*
X133608038Y23267668D01*
X133608038Y23267668D02*
X133760419Y23229572D01*
X133760419Y23229572D02*
X133836609Y23191477D01*
X133836609Y23191477D02*
X133912800Y23115287D01*
X133912800Y23115287D02*
X133950895Y23001001D01*
X133950895Y23001001D02*
X133950895Y22810525D01*
X133150895Y23534334D02*
X133150895Y24029572D01*
X133150895Y24029572D02*
X133455657Y23762906D01*
X133455657Y23762906D02*
X133455657Y23877191D01*
X133455657Y23877191D02*
X133493752Y23953382D01*
X133493752Y23953382D02*
X133531847Y23991477D01*
X133531847Y23991477D02*
X133608038Y24029572D01*
X133608038Y24029572D02*
X133798514Y24029572D01*
X133798514Y24029572D02*
X133874704Y23991477D01*
X133874704Y23991477D02*
X133912800Y23953382D01*
X133912800Y23953382D02*
X133950895Y23877191D01*
X133950895Y23877191D02*
X133950895Y23648620D01*
X133950895Y23648620D02*
X133912800Y23572429D01*
X133912800Y23572429D02*
X133874704Y23534334D01*
X130700895Y54429572D02*
X129900895Y54429572D01*
X129900895Y54429572D02*
X129900895Y54620048D01*
X129900895Y54620048D02*
X129938990Y54734334D01*
X129938990Y54734334D02*
X130015180Y54810524D01*
X130015180Y54810524D02*
X130091371Y54848619D01*
X130091371Y54848619D02*
X130243752Y54886715D01*
X130243752Y54886715D02*
X130358038Y54886715D01*
X130358038Y54886715D02*
X130510419Y54848619D01*
X130510419Y54848619D02*
X130586609Y54810524D01*
X130586609Y54810524D02*
X130662800Y54734334D01*
X130662800Y54734334D02*
X130700895Y54620048D01*
X130700895Y54620048D02*
X130700895Y54429572D01*
X130700895Y55648619D02*
X130700895Y55191476D01*
X130700895Y55420048D02*
X129900895Y55420048D01*
X129900895Y55420048D02*
X130015180Y55343857D01*
X130015180Y55343857D02*
X130091371Y55267667D01*
X130091371Y55267667D02*
X130129466Y55191476D01*
X129900895Y55915286D02*
X129900895Y56410524D01*
X129900895Y56410524D02*
X130205657Y56143858D01*
X130205657Y56143858D02*
X130205657Y56258143D01*
X130205657Y56258143D02*
X130243752Y56334334D01*
X130243752Y56334334D02*
X130281847Y56372429D01*
X130281847Y56372429D02*
X130358038Y56410524D01*
X130358038Y56410524D02*
X130548514Y56410524D01*
X130548514Y56410524D02*
X130624704Y56372429D01*
X130624704Y56372429D02*
X130662800Y56334334D01*
X130662800Y56334334D02*
X130700895Y56258143D01*
X130700895Y56258143D02*
X130700895Y56029572D01*
X130700895Y56029572D02*
X130662800Y55953381D01*
X130662800Y55953381D02*
X130624704Y55915286D01*
X128677800Y34459333D02*
X128715895Y34573619D01*
X128715895Y34573619D02*
X128715895Y34764095D01*
X128715895Y34764095D02*
X128677800Y34840286D01*
X128677800Y34840286D02*
X128639704Y34878381D01*
X128639704Y34878381D02*
X128563514Y34916476D01*
X128563514Y34916476D02*
X128487323Y34916476D01*
X128487323Y34916476D02*
X128411133Y34878381D01*
X128411133Y34878381D02*
X128373038Y34840286D01*
X128373038Y34840286D02*
X128334942Y34764095D01*
X128334942Y34764095D02*
X128296847Y34611714D01*
X128296847Y34611714D02*
X128258752Y34535524D01*
X128258752Y34535524D02*
X128220657Y34497429D01*
X128220657Y34497429D02*
X128144466Y34459333D01*
X128144466Y34459333D02*
X128068276Y34459333D01*
X128068276Y34459333D02*
X127992085Y34497429D01*
X127992085Y34497429D02*
X127953990Y34535524D01*
X127953990Y34535524D02*
X127915895Y34611714D01*
X127915895Y34611714D02*
X127915895Y34802191D01*
X127915895Y34802191D02*
X127953990Y34916476D01*
X127915895Y35183143D02*
X128715895Y35373619D01*
X128715895Y35373619D02*
X128144466Y35526000D01*
X128144466Y35526000D02*
X128715895Y35678381D01*
X128715895Y35678381D02*
X127915895Y35868857D01*
X128182561Y36516477D02*
X128715895Y36516477D01*
X127877800Y36326001D02*
X128449228Y36135524D01*
X128449228Y36135524D02*
X128449228Y36630763D01*
X128975895Y41486715D02*
X128594942Y41220048D01*
X128975895Y41029572D02*
X128175895Y41029572D01*
X128175895Y41029572D02*
X128175895Y41334334D01*
X128175895Y41334334D02*
X128213990Y41410524D01*
X128213990Y41410524D02*
X128252085Y41448619D01*
X128252085Y41448619D02*
X128328276Y41486715D01*
X128328276Y41486715D02*
X128442561Y41486715D01*
X128442561Y41486715D02*
X128518752Y41448619D01*
X128518752Y41448619D02*
X128556847Y41410524D01*
X128556847Y41410524D02*
X128594942Y41334334D01*
X128594942Y41334334D02*
X128594942Y41029572D01*
X128175895Y42210524D02*
X128175895Y41829572D01*
X128175895Y41829572D02*
X128556847Y41791476D01*
X128556847Y41791476D02*
X128518752Y41829572D01*
X128518752Y41829572D02*
X128480657Y41905762D01*
X128480657Y41905762D02*
X128480657Y42096238D01*
X128480657Y42096238D02*
X128518752Y42172429D01*
X128518752Y42172429D02*
X128556847Y42210524D01*
X128556847Y42210524D02*
X128633038Y42248619D01*
X128633038Y42248619D02*
X128823514Y42248619D01*
X128823514Y42248619D02*
X128899704Y42210524D01*
X128899704Y42210524D02*
X128937800Y42172429D01*
X128937800Y42172429D02*
X128975895Y42096238D01*
X128975895Y42096238D02*
X128975895Y41905762D01*
X128975895Y41905762D02*
X128937800Y41829572D01*
X128937800Y41829572D02*
X128899704Y41791476D01*
X128175895Y42515286D02*
X128175895Y43010524D01*
X128175895Y43010524D02*
X128480657Y42743858D01*
X128480657Y42743858D02*
X128480657Y42858143D01*
X128480657Y42858143D02*
X128518752Y42934334D01*
X128518752Y42934334D02*
X128556847Y42972429D01*
X128556847Y42972429D02*
X128633038Y43010524D01*
X128633038Y43010524D02*
X128823514Y43010524D01*
X128823514Y43010524D02*
X128899704Y42972429D01*
X128899704Y42972429D02*
X128937800Y42934334D01*
X128937800Y42934334D02*
X128975895Y42858143D01*
X128975895Y42858143D02*
X128975895Y42629572D01*
X128975895Y42629572D02*
X128937800Y42553381D01*
X128937800Y42553381D02*
X128899704Y42515286D01*
X129000895Y58628382D02*
X128619942Y58361715D01*
X129000895Y58171239D02*
X128200895Y58171239D01*
X128200895Y58171239D02*
X128200895Y58476001D01*
X128200895Y58476001D02*
X128238990Y58552191D01*
X128238990Y58552191D02*
X128277085Y58590286D01*
X128277085Y58590286D02*
X128353276Y58628382D01*
X128353276Y58628382D02*
X128467561Y58628382D01*
X128467561Y58628382D02*
X128543752Y58590286D01*
X128543752Y58590286D02*
X128581847Y58552191D01*
X128581847Y58552191D02*
X128619942Y58476001D01*
X128619942Y58476001D02*
X128619942Y58171239D01*
X128200895Y59352191D02*
X128200895Y58971239D01*
X128200895Y58971239D02*
X128581847Y58933143D01*
X128581847Y58933143D02*
X128543752Y58971239D01*
X128543752Y58971239D02*
X128505657Y59047429D01*
X128505657Y59047429D02*
X128505657Y59237905D01*
X128505657Y59237905D02*
X128543752Y59314096D01*
X128543752Y59314096D02*
X128581847Y59352191D01*
X128581847Y59352191D02*
X128658038Y59390286D01*
X128658038Y59390286D02*
X128848514Y59390286D01*
X128848514Y59390286D02*
X128924704Y59352191D01*
X128924704Y59352191D02*
X128962800Y59314096D01*
X128962800Y59314096D02*
X129000895Y59237905D01*
X129000895Y59237905D02*
X129000895Y59047429D01*
X129000895Y59047429D02*
X128962800Y58971239D01*
X128962800Y58971239D02*
X128924704Y58933143D01*
X129000895Y59771239D02*
X129000895Y59923620D01*
X129000895Y59923620D02*
X128962800Y59999810D01*
X128962800Y59999810D02*
X128924704Y60037906D01*
X128924704Y60037906D02*
X128810419Y60114096D01*
X128810419Y60114096D02*
X128658038Y60152191D01*
X128658038Y60152191D02*
X128353276Y60152191D01*
X128353276Y60152191D02*
X128277085Y60114096D01*
X128277085Y60114096D02*
X128238990Y60076001D01*
X128238990Y60076001D02*
X128200895Y59999810D01*
X128200895Y59999810D02*
X128200895Y59847429D01*
X128200895Y59847429D02*
X128238990Y59771239D01*
X128238990Y59771239D02*
X128277085Y59733144D01*
X128277085Y59733144D02*
X128353276Y59695048D01*
X128353276Y59695048D02*
X128543752Y59695048D01*
X128543752Y59695048D02*
X128619942Y59733144D01*
X128619942Y59733144D02*
X128658038Y59771239D01*
X128658038Y59771239D02*
X128696133Y59847429D01*
X128696133Y59847429D02*
X128696133Y59999810D01*
X128696133Y59999810D02*
X128658038Y60076001D01*
X128658038Y60076001D02*
X128619942Y60114096D01*
X128619942Y60114096D02*
X128543752Y60152191D01*
X130700895Y57229572D02*
X129900895Y57229572D01*
X129900895Y57229572D02*
X129900895Y57420048D01*
X129900895Y57420048D02*
X129938990Y57534334D01*
X129938990Y57534334D02*
X130015180Y57610524D01*
X130015180Y57610524D02*
X130091371Y57648619D01*
X130091371Y57648619D02*
X130243752Y57686715D01*
X130243752Y57686715D02*
X130358038Y57686715D01*
X130358038Y57686715D02*
X130510419Y57648619D01*
X130510419Y57648619D02*
X130586609Y57610524D01*
X130586609Y57610524D02*
X130662800Y57534334D01*
X130662800Y57534334D02*
X130700895Y57420048D01*
X130700895Y57420048D02*
X130700895Y57229572D01*
X130700895Y58448619D02*
X130700895Y57991476D01*
X130700895Y58220048D02*
X129900895Y58220048D01*
X129900895Y58220048D02*
X130015180Y58143857D01*
X130015180Y58143857D02*
X130091371Y58067667D01*
X130091371Y58067667D02*
X130129466Y57991476D01*
X130167561Y59134334D02*
X130700895Y59134334D01*
X129862800Y58943858D02*
X130434228Y58753381D01*
X130434228Y58753381D02*
X130434228Y59248620D01*
X130700895Y41060525D02*
X129900895Y41060525D01*
X129900895Y41060525D02*
X129900895Y41251001D01*
X129900895Y41251001D02*
X129938990Y41365287D01*
X129938990Y41365287D02*
X130015180Y41441477D01*
X130015180Y41441477D02*
X130091371Y41479572D01*
X130091371Y41479572D02*
X130243752Y41517668D01*
X130243752Y41517668D02*
X130358038Y41517668D01*
X130358038Y41517668D02*
X130510419Y41479572D01*
X130510419Y41479572D02*
X130586609Y41441477D01*
X130586609Y41441477D02*
X130662800Y41365287D01*
X130662800Y41365287D02*
X130700895Y41251001D01*
X130700895Y41251001D02*
X130700895Y41060525D01*
X130243752Y41974810D02*
X130205657Y41898620D01*
X130205657Y41898620D02*
X130167561Y41860525D01*
X130167561Y41860525D02*
X130091371Y41822429D01*
X130091371Y41822429D02*
X130053276Y41822429D01*
X130053276Y41822429D02*
X129977085Y41860525D01*
X129977085Y41860525D02*
X129938990Y41898620D01*
X129938990Y41898620D02*
X129900895Y41974810D01*
X129900895Y41974810D02*
X129900895Y42127191D01*
X129900895Y42127191D02*
X129938990Y42203382D01*
X129938990Y42203382D02*
X129977085Y42241477D01*
X129977085Y42241477D02*
X130053276Y42279572D01*
X130053276Y42279572D02*
X130091371Y42279572D01*
X130091371Y42279572D02*
X130167561Y42241477D01*
X130167561Y42241477D02*
X130205657Y42203382D01*
X130205657Y42203382D02*
X130243752Y42127191D01*
X130243752Y42127191D02*
X130243752Y41974810D01*
X130243752Y41974810D02*
X130281847Y41898620D01*
X130281847Y41898620D02*
X130319942Y41860525D01*
X130319942Y41860525D02*
X130396133Y41822429D01*
X130396133Y41822429D02*
X130548514Y41822429D01*
X130548514Y41822429D02*
X130624704Y41860525D01*
X130624704Y41860525D02*
X130662800Y41898620D01*
X130662800Y41898620D02*
X130700895Y41974810D01*
X130700895Y41974810D02*
X130700895Y42127191D01*
X130700895Y42127191D02*
X130662800Y42203382D01*
X130662800Y42203382D02*
X130624704Y42241477D01*
X130624704Y42241477D02*
X130548514Y42279572D01*
X130548514Y42279572D02*
X130396133Y42279572D01*
X130396133Y42279572D02*
X130319942Y42241477D01*
X130319942Y42241477D02*
X130281847Y42203382D01*
X130281847Y42203382D02*
X130243752Y42127191D01*
X130700895Y51704572D02*
X129900895Y51704572D01*
X129900895Y51704572D02*
X129900895Y51895048D01*
X129900895Y51895048D02*
X129938990Y52009334D01*
X129938990Y52009334D02*
X130015180Y52085524D01*
X130015180Y52085524D02*
X130091371Y52123619D01*
X130091371Y52123619D02*
X130243752Y52161715D01*
X130243752Y52161715D02*
X130358038Y52161715D01*
X130358038Y52161715D02*
X130510419Y52123619D01*
X130510419Y52123619D02*
X130586609Y52085524D01*
X130586609Y52085524D02*
X130662800Y52009334D01*
X130662800Y52009334D02*
X130700895Y51895048D01*
X130700895Y51895048D02*
X130700895Y51704572D01*
X130700895Y52923619D02*
X130700895Y52466476D01*
X130700895Y52695048D02*
X129900895Y52695048D01*
X129900895Y52695048D02*
X130015180Y52618857D01*
X130015180Y52618857D02*
X130091371Y52542667D01*
X130091371Y52542667D02*
X130129466Y52466476D01*
X129977085Y53228381D02*
X129938990Y53266477D01*
X129938990Y53266477D02*
X129900895Y53342667D01*
X129900895Y53342667D02*
X129900895Y53533143D01*
X129900895Y53533143D02*
X129938990Y53609334D01*
X129938990Y53609334D02*
X129977085Y53647429D01*
X129977085Y53647429D02*
X130053276Y53685524D01*
X130053276Y53685524D02*
X130129466Y53685524D01*
X130129466Y53685524D02*
X130243752Y53647429D01*
X130243752Y53647429D02*
X130700895Y53190286D01*
X130700895Y53190286D02*
X130700895Y53685524D01*
X130700895Y46129572D02*
X129900895Y46129572D01*
X129900895Y46129572D02*
X129900895Y46320048D01*
X129900895Y46320048D02*
X129938990Y46434334D01*
X129938990Y46434334D02*
X130015180Y46510524D01*
X130015180Y46510524D02*
X130091371Y46548619D01*
X130091371Y46548619D02*
X130243752Y46586715D01*
X130243752Y46586715D02*
X130358038Y46586715D01*
X130358038Y46586715D02*
X130510419Y46548619D01*
X130510419Y46548619D02*
X130586609Y46510524D01*
X130586609Y46510524D02*
X130662800Y46434334D01*
X130662800Y46434334D02*
X130700895Y46320048D01*
X130700895Y46320048D02*
X130700895Y46129572D01*
X130700895Y47348619D02*
X130700895Y46891476D01*
X130700895Y47120048D02*
X129900895Y47120048D01*
X129900895Y47120048D02*
X130015180Y47043857D01*
X130015180Y47043857D02*
X130091371Y46967667D01*
X130091371Y46967667D02*
X130129466Y46891476D01*
X129900895Y47843858D02*
X129900895Y47920048D01*
X129900895Y47920048D02*
X129938990Y47996239D01*
X129938990Y47996239D02*
X129977085Y48034334D01*
X129977085Y48034334D02*
X130053276Y48072429D01*
X130053276Y48072429D02*
X130205657Y48110524D01*
X130205657Y48110524D02*
X130396133Y48110524D01*
X130396133Y48110524D02*
X130548514Y48072429D01*
X130548514Y48072429D02*
X130624704Y48034334D01*
X130624704Y48034334D02*
X130662800Y47996239D01*
X130662800Y47996239D02*
X130700895Y47920048D01*
X130700895Y47920048D02*
X130700895Y47843858D01*
X130700895Y47843858D02*
X130662800Y47767667D01*
X130662800Y47767667D02*
X130624704Y47729572D01*
X130624704Y47729572D02*
X130548514Y47691477D01*
X130548514Y47691477D02*
X130396133Y47653381D01*
X130396133Y47653381D02*
X130205657Y47653381D01*
X130205657Y47653381D02*
X130053276Y47691477D01*
X130053276Y47691477D02*
X129977085Y47729572D01*
X129977085Y47729572D02*
X129938990Y47767667D01*
X129938990Y47767667D02*
X129900895Y47843858D01*
X128975895Y46586715D02*
X128594942Y46320048D01*
X128975895Y46129572D02*
X128175895Y46129572D01*
X128175895Y46129572D02*
X128175895Y46434334D01*
X128175895Y46434334D02*
X128213990Y46510524D01*
X128213990Y46510524D02*
X128252085Y46548619D01*
X128252085Y46548619D02*
X128328276Y46586715D01*
X128328276Y46586715D02*
X128442561Y46586715D01*
X128442561Y46586715D02*
X128518752Y46548619D01*
X128518752Y46548619D02*
X128556847Y46510524D01*
X128556847Y46510524D02*
X128594942Y46434334D01*
X128594942Y46434334D02*
X128594942Y46129572D01*
X128175895Y47310524D02*
X128175895Y46929572D01*
X128175895Y46929572D02*
X128556847Y46891476D01*
X128556847Y46891476D02*
X128518752Y46929572D01*
X128518752Y46929572D02*
X128480657Y47005762D01*
X128480657Y47005762D02*
X128480657Y47196238D01*
X128480657Y47196238D02*
X128518752Y47272429D01*
X128518752Y47272429D02*
X128556847Y47310524D01*
X128556847Y47310524D02*
X128633038Y47348619D01*
X128633038Y47348619D02*
X128823514Y47348619D01*
X128823514Y47348619D02*
X128899704Y47310524D01*
X128899704Y47310524D02*
X128937800Y47272429D01*
X128937800Y47272429D02*
X128975895Y47196238D01*
X128975895Y47196238D02*
X128975895Y47005762D01*
X128975895Y47005762D02*
X128937800Y46929572D01*
X128937800Y46929572D02*
X128899704Y46891476D01*
X128175895Y48072429D02*
X128175895Y47691477D01*
X128175895Y47691477D02*
X128556847Y47653381D01*
X128556847Y47653381D02*
X128518752Y47691477D01*
X128518752Y47691477D02*
X128480657Y47767667D01*
X128480657Y47767667D02*
X128480657Y47958143D01*
X128480657Y47958143D02*
X128518752Y48034334D01*
X128518752Y48034334D02*
X128556847Y48072429D01*
X128556847Y48072429D02*
X128633038Y48110524D01*
X128633038Y48110524D02*
X128823514Y48110524D01*
X128823514Y48110524D02*
X128899704Y48072429D01*
X128899704Y48072429D02*
X128937800Y48034334D01*
X128937800Y48034334D02*
X128975895Y47958143D01*
X128975895Y47958143D02*
X128975895Y47767667D01*
X128975895Y47767667D02*
X128937800Y47691477D01*
X128937800Y47691477D02*
X128899704Y47653381D01*
X133950895Y20035525D02*
X133150895Y20035525D01*
X133150895Y20035525D02*
X133150895Y20226001D01*
X133150895Y20226001D02*
X133188990Y20340287D01*
X133188990Y20340287D02*
X133265180Y20416477D01*
X133265180Y20416477D02*
X133341371Y20454572D01*
X133341371Y20454572D02*
X133493752Y20492668D01*
X133493752Y20492668D02*
X133608038Y20492668D01*
X133608038Y20492668D02*
X133760419Y20454572D01*
X133760419Y20454572D02*
X133836609Y20416477D01*
X133836609Y20416477D02*
X133912800Y20340287D01*
X133912800Y20340287D02*
X133950895Y20226001D01*
X133950895Y20226001D02*
X133950895Y20035525D01*
X133150895Y21216477D02*
X133150895Y20835525D01*
X133150895Y20835525D02*
X133531847Y20797429D01*
X133531847Y20797429D02*
X133493752Y20835525D01*
X133493752Y20835525D02*
X133455657Y20911715D01*
X133455657Y20911715D02*
X133455657Y21102191D01*
X133455657Y21102191D02*
X133493752Y21178382D01*
X133493752Y21178382D02*
X133531847Y21216477D01*
X133531847Y21216477D02*
X133608038Y21254572D01*
X133608038Y21254572D02*
X133798514Y21254572D01*
X133798514Y21254572D02*
X133874704Y21216477D01*
X133874704Y21216477D02*
X133912800Y21178382D01*
X133912800Y21178382D02*
X133950895Y21102191D01*
X133950895Y21102191D02*
X133950895Y20911715D01*
X133950895Y20911715D02*
X133912800Y20835525D01*
X133912800Y20835525D02*
X133874704Y20797429D01*
X129000895Y53811716D02*
X128619942Y53545049D01*
X129000895Y53354573D02*
X128200895Y53354573D01*
X128200895Y53354573D02*
X128200895Y53659335D01*
X128200895Y53659335D02*
X128238990Y53735525D01*
X128238990Y53735525D02*
X128277085Y53773620D01*
X128277085Y53773620D02*
X128353276Y53811716D01*
X128353276Y53811716D02*
X128467561Y53811716D01*
X128467561Y53811716D02*
X128543752Y53773620D01*
X128543752Y53773620D02*
X128581847Y53735525D01*
X128581847Y53735525D02*
X128619942Y53659335D01*
X128619942Y53659335D02*
X128619942Y53354573D01*
X128200895Y54535525D02*
X128200895Y54154573D01*
X128200895Y54154573D02*
X128581847Y54116477D01*
X128581847Y54116477D02*
X128543752Y54154573D01*
X128543752Y54154573D02*
X128505657Y54230763D01*
X128505657Y54230763D02*
X128505657Y54421239D01*
X128505657Y54421239D02*
X128543752Y54497430D01*
X128543752Y54497430D02*
X128581847Y54535525D01*
X128581847Y54535525D02*
X128658038Y54573620D01*
X128658038Y54573620D02*
X128848514Y54573620D01*
X128848514Y54573620D02*
X128924704Y54535525D01*
X128924704Y54535525D02*
X128962800Y54497430D01*
X128962800Y54497430D02*
X129000895Y54421239D01*
X129000895Y54421239D02*
X129000895Y54230763D01*
X129000895Y54230763D02*
X128962800Y54154573D01*
X128962800Y54154573D02*
X128924704Y54116477D01*
X128200895Y54840287D02*
X128200895Y55373621D01*
X128200895Y55373621D02*
X129000895Y55030763D01*
X14971104Y24412667D02*
X14399676Y24412667D01*
X14399676Y24412667D02*
X14285390Y24450762D01*
X14285390Y24450762D02*
X14209200Y24526953D01*
X14209200Y24526953D02*
X14171104Y24641238D01*
X14171104Y24641238D02*
X14171104Y24717429D01*
X14704438Y23688857D02*
X14171104Y23688857D01*
X15009200Y23879333D02*
X14437771Y24069810D01*
X14437771Y24069810D02*
X14437771Y23574571D01*
X128762800Y27109333D02*
X128800895Y27223619D01*
X128800895Y27223619D02*
X128800895Y27414095D01*
X128800895Y27414095D02*
X128762800Y27490286D01*
X128762800Y27490286D02*
X128724704Y27528381D01*
X128724704Y27528381D02*
X128648514Y27566476D01*
X128648514Y27566476D02*
X128572323Y27566476D01*
X128572323Y27566476D02*
X128496133Y27528381D01*
X128496133Y27528381D02*
X128458038Y27490286D01*
X128458038Y27490286D02*
X128419942Y27414095D01*
X128419942Y27414095D02*
X128381847Y27261714D01*
X128381847Y27261714D02*
X128343752Y27185524D01*
X128343752Y27185524D02*
X128305657Y27147429D01*
X128305657Y27147429D02*
X128229466Y27109333D01*
X128229466Y27109333D02*
X128153276Y27109333D01*
X128153276Y27109333D02*
X128077085Y27147429D01*
X128077085Y27147429D02*
X128038990Y27185524D01*
X128038990Y27185524D02*
X128000895Y27261714D01*
X128000895Y27261714D02*
X128000895Y27452191D01*
X128000895Y27452191D02*
X128038990Y27566476D01*
X128000895Y27833143D02*
X128800895Y28023619D01*
X128800895Y28023619D02*
X128229466Y28176000D01*
X128229466Y28176000D02*
X128800895Y28328381D01*
X128800895Y28328381D02*
X128000895Y28518857D01*
X128800895Y29242667D02*
X128800895Y28785524D01*
X128800895Y29014096D02*
X128000895Y29014096D01*
X128000895Y29014096D02*
X128115180Y28937905D01*
X128115180Y28937905D02*
X128191371Y28861715D01*
X128191371Y28861715D02*
X128229466Y28785524D01*
X130700895Y43810525D02*
X129900895Y43810525D01*
X129900895Y43810525D02*
X129900895Y44001001D01*
X129900895Y44001001D02*
X129938990Y44115287D01*
X129938990Y44115287D02*
X130015180Y44191477D01*
X130015180Y44191477D02*
X130091371Y44229572D01*
X130091371Y44229572D02*
X130243752Y44267668D01*
X130243752Y44267668D02*
X130358038Y44267668D01*
X130358038Y44267668D02*
X130510419Y44229572D01*
X130510419Y44229572D02*
X130586609Y44191477D01*
X130586609Y44191477D02*
X130662800Y44115287D01*
X130662800Y44115287D02*
X130700895Y44001001D01*
X130700895Y44001001D02*
X130700895Y43810525D01*
X130700895Y44648620D02*
X130700895Y44801001D01*
X130700895Y44801001D02*
X130662800Y44877191D01*
X130662800Y44877191D02*
X130624704Y44915287D01*
X130624704Y44915287D02*
X130510419Y44991477D01*
X130510419Y44991477D02*
X130358038Y45029572D01*
X130358038Y45029572D02*
X130053276Y45029572D01*
X130053276Y45029572D02*
X129977085Y44991477D01*
X129977085Y44991477D02*
X129938990Y44953382D01*
X129938990Y44953382D02*
X129900895Y44877191D01*
X129900895Y44877191D02*
X129900895Y44724810D01*
X129900895Y44724810D02*
X129938990Y44648620D01*
X129938990Y44648620D02*
X129977085Y44610525D01*
X129977085Y44610525D02*
X130053276Y44572429D01*
X130053276Y44572429D02*
X130243752Y44572429D01*
X130243752Y44572429D02*
X130319942Y44610525D01*
X130319942Y44610525D02*
X130358038Y44648620D01*
X130358038Y44648620D02*
X130396133Y44724810D01*
X130396133Y44724810D02*
X130396133Y44877191D01*
X130396133Y44877191D02*
X130358038Y44953382D01*
X130358038Y44953382D02*
X130319942Y44991477D01*
X130319942Y44991477D02*
X130243752Y45029572D01*
%TO.C,R14*%
X132376000Y66236436D02*
X132376000Y66690564D01*
X133846000Y66236436D02*
X133846000Y66690564D01*
%TO.C,BT1*%
X26031000Y4076000D02*
X26031000Y81776000D01*
X66241000Y4076000D02*
X26031000Y4076000D01*
X26031000Y81776000D02*
X66241000Y81776000D01*
X66241000Y81776000D02*
X66241000Y4076000D01*
%TO.C,R58*%
X132625564Y56566000D02*
X132171436Y56566000D01*
X132625564Y58036000D02*
X132171436Y58036000D01*
%TO.C,R54*%
X132663064Y44491000D02*
X132208936Y44491000D01*
X132663064Y45961000D02*
X132208936Y45961000D01*
%TO.C,R60*%
X132625564Y60491000D02*
X132171436Y60491000D01*
X132625564Y61961000D02*
X132171436Y61961000D01*
%TO.C,D2*%
X135486000Y71226000D02*
X135486000Y68826000D01*
X136086000Y70526000D02*
X135486000Y70726000D01*
D12*
X134486000Y70226000D02*
X135286000Y70226000D01*
D13*
X136086000Y69526000D02*
X136086000Y70526000D01*
X135486000Y69326000D02*
X136086000Y69526000D01*
%TO.C,TH2*%
X77258936Y61961000D02*
X77713064Y61961000D01*
X77258936Y60491000D02*
X77713064Y60491000D01*
%TO.C,TH1*%
X56113064Y60491000D02*
X55658936Y60491000D01*
X56113064Y61961000D02*
X55658936Y61961000D01*
%TO.C,R56*%
X132613064Y48391000D02*
X132158936Y48391000D01*
X132613064Y49861000D02*
X132158936Y49861000D01*
%TO.C,D4*%
X135486000Y19051000D02*
X135486000Y16651000D01*
X136086000Y18351000D02*
X135486000Y18551000D01*
D12*
X134486000Y18051000D02*
X135286000Y18051000D01*
D13*
X136086000Y17351000D02*
X136086000Y18351000D01*
X135486000Y17151000D02*
X136086000Y17351000D01*
%TO.C,D11*%
X135411000Y51108653D02*
X135411000Y48708653D01*
X136011000Y50408653D02*
X135411000Y50608653D01*
D12*
X134411000Y50108653D02*
X135211000Y50108653D01*
D13*
X136011000Y49408653D02*
X136011000Y50408653D01*
X135411000Y49208653D02*
X136011000Y49408653D01*
%TO.C,BT2*%
X66941000Y4076000D02*
X66941000Y81776000D01*
X126631000Y4076000D02*
X66941000Y4076000D01*
X66941000Y81776000D02*
X126631000Y81776000D01*
X126631000Y81776000D02*
X126631000Y4076000D01*
%TO.C,D15*%
X135411000Y62178042D02*
X135411000Y59778042D01*
X136011000Y61478042D02*
X135411000Y61678042D01*
D12*
X134411000Y61178042D02*
X135211000Y61178042D01*
D13*
X136011000Y60478042D02*
X136011000Y61478042D01*
X135411000Y60278042D02*
X136011000Y60478042D01*
%TO.C,R18*%
X133846000Y70128064D02*
X133846000Y69673936D01*
X132376000Y70128064D02*
X132376000Y69673936D01*
%TO.C,D1*%
X135386000Y67326000D02*
X135386000Y64926000D01*
X135986000Y66626000D02*
X135386000Y66826000D01*
D12*
X134386000Y66326000D02*
X135186000Y66326000D01*
D13*
X135986000Y65626000D02*
X135986000Y66626000D01*
X135386000Y65426000D02*
X135986000Y65626000D01*
%TO.C,D3*%
X135486000Y24601000D02*
X135486000Y22201000D01*
X136086000Y23901000D02*
X135486000Y24101000D01*
D12*
X134486000Y23601000D02*
X135286000Y23601000D01*
D13*
X136086000Y22901000D02*
X136086000Y23901000D01*
X135486000Y22701000D02*
X136086000Y22901000D01*
%TO.C,D13*%
X135411000Y56643347D02*
X135411000Y54243347D01*
X136011000Y55943347D02*
X135411000Y56143347D01*
D12*
X134411000Y55643347D02*
X135211000Y55643347D01*
D13*
X136011000Y54943347D02*
X136011000Y55943347D01*
X135411000Y54743347D02*
X136011000Y54943347D01*
%TO.C,SW4*%
X127571000Y33276000D02*
X129051000Y33276000D01*
X127571000Y33276000D02*
X127571000Y37776000D01*
X130951000Y34426000D02*
X130951000Y36626000D01*
X131776000Y34526000D02*
X130151000Y34526000D01*
X131801000Y34526000D02*
X131801000Y36526000D01*
X131776000Y36526000D02*
X130151000Y36526000D01*
X127571000Y37776000D02*
X129051000Y37776000D01*
%TO.C,R53*%
X132688064Y42541000D02*
X132233936Y42541000D01*
X132688064Y44011000D02*
X132233936Y44011000D01*
%TO.C,R59*%
X132625564Y58541000D02*
X132171436Y58541000D01*
X132625564Y60011000D02*
X132171436Y60011000D01*
%TO.C,D14*%
X135411000Y59410694D02*
X135411000Y57010694D01*
X136011000Y58710694D02*
X135411000Y58910694D01*
D12*
X134411000Y58410694D02*
X135211000Y58410694D01*
D13*
X136011000Y57710694D02*
X136011000Y58710694D01*
X135411000Y57510694D02*
X136011000Y57710694D01*
%TO.C,D8*%
X135411000Y42806612D02*
X135411000Y40406612D01*
X136011000Y42106612D02*
X135411000Y42306612D01*
D12*
X134411000Y41806612D02*
X135211000Y41806612D01*
D13*
X136011000Y41106612D02*
X136011000Y42106612D01*
X135411000Y40906612D02*
X136011000Y41106612D01*
%TO.C,D12*%
X135411000Y53876000D02*
X135411000Y51476000D01*
X136011000Y53176000D02*
X135411000Y53376000D01*
D12*
X134411000Y52876000D02*
X135211000Y52876000D01*
D13*
X136011000Y52176000D02*
X136011000Y53176000D01*
X135411000Y51976000D02*
X136011000Y52176000D01*
%TO.C,D10*%
X135411000Y48341306D02*
X135411000Y45941306D01*
X136011000Y47641306D02*
X135411000Y47841306D01*
D12*
X134411000Y47341306D02*
X135211000Y47341306D01*
D13*
X136011000Y46641306D02*
X136011000Y47641306D01*
X135411000Y46441306D02*
X136011000Y46641306D01*
%TO.C,R55*%
X132638064Y46441000D02*
X132183936Y46441000D01*
X132638064Y47911000D02*
X132183936Y47911000D01*
%TO.C,D5*%
X135486000Y21826000D02*
X135486000Y19426000D01*
X136086000Y21126000D02*
X135486000Y21326000D01*
D12*
X134486000Y20826000D02*
X135286000Y20826000D01*
D13*
X136086000Y20126000D02*
X136086000Y21126000D01*
X135486000Y19926000D02*
X136086000Y20126000D01*
%TO.C,R57*%
X132613064Y54641000D02*
X132158936Y54641000D01*
X132613064Y56111000D02*
X132158936Y56111000D01*
%TO.C,J4*%
X24936000Y70531000D02*
X9936000Y70531000D01*
X9936000Y70531000D02*
X9936000Y15321000D01*
X9936000Y15321000D02*
X24936000Y15321000D01*
X24936000Y15321000D02*
X24936000Y70531000D01*
X24936000Y70531000D02*
X-64000Y70531000D01*
X-64000Y70531000D02*
X-64000Y15321000D01*
X-64000Y15321000D02*
X24936000Y15321000D01*
X24936000Y15321000D02*
X24936000Y70531000D01*
%TO.C,SW1*%
X127656000Y25926000D02*
X129136000Y25926000D01*
X127656000Y25926000D02*
X127656000Y30426000D01*
X131036000Y27076000D02*
X131036000Y29276000D01*
X131861000Y27176000D02*
X130236000Y27176000D01*
X131886000Y27176000D02*
X131886000Y29176000D01*
X131861000Y29176000D02*
X130236000Y29176000D01*
X127656000Y30426000D02*
X129136000Y30426000D01*
%TO.C,D9*%
X135411000Y45573959D02*
X135411000Y43173959D01*
X136011000Y44873959D02*
X135411000Y45073959D01*
D12*
X134411000Y44573959D02*
X135211000Y44573959D01*
D13*
X136011000Y43873959D02*
X136011000Y44873959D01*
X135411000Y43673959D02*
X136011000Y43873959D01*
%TD*%
M02*
