M48
; DRILL file {KiCad 7.0.8-7.0.8~ubuntu23.04.1} date Sun Nov 19 12:40:42 2023
; FORMAT={3:3/ absolute / metric / suppress leading zeros}
; #@! TF.CreationDate,2023-11-19T12:40:42+00:00
; #@! TF.GenerationSoftware,Kicad,Pcbnew,7.0.8-7.0.8~ubuntu23.04.1
; #@! TF.FileFunction,Plated,1,2,PTH
FMAT,2
METRIC,TZ
; #@! TA.AperFunction,Plated,PTH,ViaDrill
T1C0.300
; #@! TA.AperFunction,Plated,PTH,ViaDrill
T2C0.400
; #@! TA.AperFunction,Plated,PTH,ComponentDrill
T3C0.500
; #@! TA.AperFunction,Plated,PTH,ComponentDrill
T4C0.600
; #@! TA.AperFunction,Plated,PTH,ComponentDrill
T5C0.750
; #@! TA.AperFunction,Plated,PTH,ComponentDrill
T6C1.020
; #@! TA.AperFunction,Plated,PTH,ComponentDrill
T7C1.600
; #@! TA.AperFunction,Plated,PTH,ComponentDrill
T8C3.000
%
G90
G05
T1
X19232Y10230
X20785Y4155
X22510Y6852
X24036Y12301
X26336Y50326
X27460Y6980
X27736Y12526
X27886Y41155
X27899Y50326
X28361Y21726
X28586Y40555
X28936Y56026
X29661Y31826
X29936Y16126
X31986Y61576
X32136Y38176
X32186Y53526
X32236Y50726
X32336Y35176
X32386Y48126
X32536Y51926
X32769Y48771
X33436Y48326
X33436Y44076
X34536Y24926
X34836Y56176
X34850Y49415
X35850Y45200
X36136Y64076
X37036Y51926
X37036Y41476
X37286Y54876
X37911Y35651
X38236Y45076
X38887Y35616
X39586Y35626
X40186Y57126
X40186Y51126
X40286Y35626
X40386Y20276
X40486Y23100
X40736Y54426
X40986Y35626
X41086Y38326
X41286Y29626
X41936Y40376
X42786Y24126
X42986Y19026
X43436Y37776
X43986Y57126
X44681Y28200
X44981Y39431
X44986Y40231
X45486Y32826
X45825Y64576
X46186Y54426
X46375Y15699
X46386Y13992
X47186Y54026
X47586Y15676
X47636Y13476
X48086Y48126
X48086Y49045
X48494Y50826
X50356Y48377
X51486Y48226
X52235Y46127
X52986Y24126
X53386Y25326
X54486Y46726
X54973Y62274
X55098Y48162
X55186Y22226
X56486Y24226
X56820Y49076
X57286Y45926
X57386Y62226
X57586Y53726
X58686Y34226
X59729Y26285
X59786Y35576
X60386Y40726
X61186Y31526
X61591Y40381
X61685Y28368
X63586Y28026
X64711Y39976
X67986Y53726
X68636Y82476
X70186Y39506
X70586Y61626
X71561Y62576
X71566Y58950
X72661Y29626
X72686Y41055
X72961Y65276
X73261Y82426
X73877Y53817
X73886Y51000
X74561Y62176
X74636Y43926
X74686Y58626
X75236Y42426
X76087Y36300
X76569Y62125
X76786Y36300
X77236Y59726
X77286Y57825
X78038Y56626
X78886Y66076
X78886Y35826
X79087Y51677
X79114Y56786
X79462Y61902
X79536Y56026
X80086Y55426
X80311Y37526
X80486Y58926
X81086Y42726
X81186Y53326
X81386Y41326
X82386Y47215
X82661Y37026
X82736Y16651
X83984Y47127
X84081Y60843
X84186Y9726
X84749Y60638
X84786Y47126
X84886Y47926
X84886Y9726
X84986Y42326
X85237Y30551
X85286Y49626
X85486Y9726
X85487Y60794
X85736Y48051
X86086Y66850
X86186Y58076
X86186Y50226
X86186Y9726
X86712Y51552
X86753Y16659
X86786Y68926
X86786Y9726
X86826Y49284
X86836Y26951
X86860Y61076
X87986Y56776
X88350Y52701
X88536Y38326
X88586Y65676
X88700Y53900
X88787Y37673
X88886Y82451
X89028Y52527
X89086Y47426
X89587Y39626
X90086Y16626
X90137Y52326
X90186Y41650
X90888Y52378
X90936Y16226
X91086Y57926
X91665Y53155
X91936Y56876
X92136Y45476
X92586Y53276
X92786Y46026
X92886Y13926
X92906Y28756
X93061Y82451
X93536Y44547
X93612Y63177
X93710Y13902
X94186Y42376
X94286Y58226
X94409Y13927
X95086Y56701
X95086Y48326
X95539Y62925
X95606Y60964
X95650Y63615
X96361Y63126
X97911Y61251
X98808Y62462
X98900Y63319
X99886Y46326
X103786Y64626
X105918Y47874
X106099Y47198
X107511Y71801
X107586Y60326
X107586Y55526
X111486Y71826
X111586Y59026
X115986Y59026
X115986Y51501
X118034Y61428
X118361Y48451
X118699Y61645
X120986Y51251
X124561Y59876
X125086Y60451
X125261Y56076
X125986Y65901
X125986Y63901
X127311Y28201
X127648Y71576
X129122Y57115
X129161Y58001
X129186Y50426
X129536Y56515
X130161Y45070
X130186Y45795
X130211Y43320
X130711Y55895
X131136Y69226
X131611Y66726
X134361Y69626
X134386Y55120
X134586Y60620
X134636Y49570
X134636Y46820
X134661Y44045
X134661Y41270
X134686Y23051
X134686Y20326
X134686Y16651
T2
X18650Y69800
X22866Y75826
X26290Y70909
X30113Y18183
X30661Y74381
X30773Y26946
X31307Y21459
X31486Y75256
X32186Y64626
X33636Y39576
X33786Y73126
X36600Y68000
X37336Y42926
X37504Y62176
X38419Y59585
X40578Y44472
X40603Y63700
X40628Y27632
X40882Y51990
X41924Y15846
X42965Y12006
X43566Y23406
X43981Y35328
X44032Y12006
X44134Y49857
X44986Y59726
X45124Y12006
X45986Y24526
X46836Y70761
X47080Y63471
X47786Y41426
X48223Y31010
X48248Y7591
X48886Y55476
X49163Y23872
X50486Y74106
X50586Y61871
X50586Y51576
X51186Y74806
X52414Y18183
X52686Y41876
X53176Y39163
X53286Y67726
X54011Y64401
X54186Y43726
X55186Y55326
X56186Y44826
X57240Y29562
X57494Y73377
X58891Y19656
X59186Y68326
X62066Y32940
X62586Y43126
X62752Y62836
X64286Y43376
X64657Y56791
X64936Y46176
X66486Y71066
X68391Y7413
X68949Y49069
X69636Y73786
X69636Y72836
X69915Y66646
X70448Y30578
X70486Y70326
X71007Y53590
X71972Y34820
X73090Y45996
X74893Y20799
X75350Y48714
X76366Y53895
X77886Y39826
X78068Y48917
X78449Y28317
X80964Y51939
X83021Y32356
X83377Y14652
X83605Y51406
X85383Y13433
X87436Y45921
X89346Y64208
X89437Y35976
X92336Y32476
X96178Y51381
X96331Y53844
X98186Y34976
X99887Y67026
X99911Y55601
X100886Y65626
X101486Y60326
X102706Y76247
X103747Y22628
X104027Y31873
X104386Y48276
X104433Y53362
X106719Y62785
X109386Y56926
X109386Y55726
X109386Y43046
X109386Y41826
X111520Y64944
X111977Y56715
X112129Y43913
X112180Y50288
X116219Y29968
X116586Y55026
X118036Y68876
X118810Y22653
X119699Y75079
X119836Y67151
X120130Y62988
X120257Y37512
X124849Y69863
X125566Y28063
X126049Y57959
X127600Y34350
X127648Y70626
X127715Y66314
X127750Y36750
X128048Y68756
X128048Y67257
T5
X13436Y47926
X13436Y45926
X13436Y43926
X13436Y41926
X13436Y39926
X13436Y37926
X15436Y47926
X15436Y45926
X15436Y43926
X15436Y41926
X15436Y39926
X15436Y37926
X17436Y47926
X17436Y45926
X17436Y43926
X17436Y41926
X17436Y39926
X17436Y37926
X19436Y47926
X19436Y45926
X19436Y43926
X19436Y41926
X19436Y39926
X19436Y37926
X21436Y47926
X21436Y45926
X21436Y43926
X21436Y41926
X21436Y39926
X21436Y37926
T6
X14036Y61356
X14036Y58356
X14036Y55856
X14036Y52856
X14036Y32646
X14036Y29646
X14036Y27146
X14036Y24146
X16536Y61356
X16536Y58356
X16536Y55856
X16536Y52856
X16536Y32646
X16536Y29646
X16536Y27146
X16536Y24146
X19036Y61356
X19036Y58356
X19036Y55856
X19036Y52856
X19036Y32646
X19036Y29646
X19036Y27146
X19036Y24146
X21536Y61356
X21536Y58356
X21536Y55856
X21536Y52856
X21536Y32646
X21536Y29646
X21536Y27146
X21536Y24146
X24036Y61356
X24036Y58356
X24036Y55856
X24036Y52856
X24036Y32646
X24036Y29646
X24036Y27146
X24036Y24146
T7
X36486Y79226
X36486Y6626
X55786Y79226
X55786Y6626
X77486Y79176
X77486Y6676
X96786Y79176
X96786Y6676
X116086Y79176
X116086Y6676
T8
X9906Y78486
X9906Y7366
X131826Y78486
X131826Y7366
T3
G00X129536Y37651
M15
G01X129936Y37651
M16
G05
G00X129536Y33401
M15
G01X129936Y33401
M16
G05
G00X129636Y30301
M15
G01X130036Y30301
M16
G05
G00X129636Y26051
M15
G01X130036Y26051
M16
G05
T4
G00X130368Y72576
M15
G01X129268Y72576
M16
G05
G00X130368Y63936
M15
G01X129268Y63936
M16
G05
G00X134399Y72576
M15
G01X133599Y72576
M16
G05
G00X134399Y63936
M15
G01X133599Y63936
M16
G05
T0
M30
