%TF.GenerationSoftware,KiCad,Pcbnew,7.0.8-7.0.8~ubuntu23.04.1*%
%TF.CreationDate,2023-11-20T02:20:52+00:00*%
%TF.ProjectId,BATDATUNIT01,42415444-4154-4554-9e49-5430312e6b69,01A*%
%TF.SameCoordinates,Original*%
%TF.FileFunction,Legend,Top*%
%TF.FilePolarity,Positive*%
%FSLAX46Y46*%
G04 Gerber Fmt 4.6, Leading zero omitted, Abs format (unit mm)*
G04 Created by KiCad (PCBNEW 7.0.8-7.0.8~ubuntu23.04.1) date 2023-11-20 02:20:52*
%MOMM*%
%LPD*%
G01*
G04 APERTURE LIST*
%ADD10C,0.150000*%
%ADD11C,0.300000*%
%ADD12C,0.200000*%
%ADD13C,0.100000*%
G04 APERTURE END LIST*
D10*
X134755819Y25054572D02*
X135565342Y25054572D01*
X135565342Y25054572D02*
X135660580Y25097429D01*
X135660580Y25097429D02*
X135708200Y25140286D01*
X135708200Y25140286D02*
X135755819Y25226001D01*
X135755819Y25226001D02*
X135755819Y25397429D01*
X135755819Y25397429D02*
X135708200Y25483144D01*
X135708200Y25483144D02*
X135660580Y25526001D01*
X135660580Y25526001D02*
X135565342Y25568858D01*
X135565342Y25568858D02*
X134755819Y25568858D01*
X135708200Y25954572D02*
X135755819Y26083143D01*
X135755819Y26083143D02*
X135755819Y26297429D01*
X135755819Y26297429D02*
X135708200Y26383143D01*
X135708200Y26383143D02*
X135660580Y26426001D01*
X135660580Y26426001D02*
X135565342Y26468858D01*
X135565342Y26468858D02*
X135470104Y26468858D01*
X135470104Y26468858D02*
X135374866Y26426001D01*
X135374866Y26426001D02*
X135327247Y26383143D01*
X135327247Y26383143D02*
X135279628Y26297429D01*
X135279628Y26297429D02*
X135232009Y26126001D01*
X135232009Y26126001D02*
X135184390Y26040286D01*
X135184390Y26040286D02*
X135136771Y25997429D01*
X135136771Y25997429D02*
X135041533Y25954572D01*
X135041533Y25954572D02*
X134946295Y25954572D01*
X134946295Y25954572D02*
X134851057Y25997429D01*
X134851057Y25997429D02*
X134803438Y26040286D01*
X134803438Y26040286D02*
X134755819Y26126001D01*
X134755819Y26126001D02*
X134755819Y26340286D01*
X134755819Y26340286D02*
X134803438Y26468858D01*
X135232009Y26854572D02*
X135232009Y27154572D01*
X135755819Y27283144D02*
X135755819Y26854572D01*
X135755819Y26854572D02*
X134755819Y26854572D01*
X134755819Y26854572D02*
X134755819Y27283144D01*
X135755819Y28183144D02*
X135279628Y27883144D01*
X135755819Y27668858D02*
X134755819Y27668858D01*
X134755819Y27668858D02*
X134755819Y28011715D01*
X134755819Y28011715D02*
X134803438Y28097430D01*
X134803438Y28097430D02*
X134851057Y28140287D01*
X134851057Y28140287D02*
X134946295Y28183144D01*
X134946295Y28183144D02*
X135089152Y28183144D01*
X135089152Y28183144D02*
X135184390Y28140287D01*
X135184390Y28140287D02*
X135232009Y28097430D01*
X135232009Y28097430D02*
X135279628Y28011715D01*
X135279628Y28011715D02*
X135279628Y27668858D01*
X135755819Y29683144D02*
X135755819Y29254572D01*
X135755819Y29254572D02*
X134755819Y29254572D01*
X135232009Y29983143D02*
X135232009Y30283143D01*
X135755819Y30411715D02*
X135755819Y29983143D01*
X135755819Y29983143D02*
X134755819Y29983143D01*
X134755819Y29983143D02*
X134755819Y30411715D01*
X135755819Y30797429D02*
X134755819Y30797429D01*
X134755819Y30797429D02*
X134755819Y31011715D01*
X134755819Y31011715D02*
X134803438Y31140286D01*
X134803438Y31140286D02*
X134898676Y31226001D01*
X134898676Y31226001D02*
X134993914Y31268858D01*
X134993914Y31268858D02*
X135184390Y31311715D01*
X135184390Y31311715D02*
X135327247Y31311715D01*
X135327247Y31311715D02*
X135517723Y31268858D01*
X135517723Y31268858D02*
X135612961Y31226001D01*
X135612961Y31226001D02*
X135708200Y31140286D01*
X135708200Y31140286D02*
X135755819Y31011715D01*
X135755819Y31011715D02*
X135755819Y30797429D01*
X135708200Y31654572D02*
X135755819Y31740286D01*
X135755819Y31740286D02*
X135755819Y31911715D01*
X135755819Y31911715D02*
X135708200Y31997429D01*
X135708200Y31997429D02*
X135612961Y32040286D01*
X135612961Y32040286D02*
X135565342Y32040286D01*
X135565342Y32040286D02*
X135470104Y31997429D01*
X135470104Y31997429D02*
X135422485Y31911715D01*
X135422485Y31911715D02*
X135422485Y31783143D01*
X135422485Y31783143D02*
X135374866Y31697429D01*
X135374866Y31697429D02*
X135279628Y31654572D01*
X135279628Y31654572D02*
X135232009Y31654572D01*
X135232009Y31654572D02*
X135136771Y31697429D01*
X135136771Y31697429D02*
X135089152Y31783143D01*
X135089152Y31783143D02*
X135089152Y31911715D01*
X135089152Y31911715D02*
X135136771Y31997429D01*
X132732009Y33026000D02*
X132779628Y33168857D01*
X132779628Y33168857D02*
X132827247Y33216476D01*
X132827247Y33216476D02*
X132922485Y33264095D01*
X132922485Y33264095D02*
X133065342Y33264095D01*
X133065342Y33264095D02*
X133160580Y33216476D01*
X133160580Y33216476D02*
X133208200Y33168857D01*
X133208200Y33168857D02*
X133255819Y33073619D01*
X133255819Y33073619D02*
X133255819Y32692667D01*
X133255819Y32692667D02*
X132255819Y32692667D01*
X132255819Y32692667D02*
X132255819Y33026000D01*
X132255819Y33026000D02*
X132303438Y33121238D01*
X132303438Y33121238D02*
X132351057Y33168857D01*
X132351057Y33168857D02*
X132446295Y33216476D01*
X132446295Y33216476D02*
X132541533Y33216476D01*
X132541533Y33216476D02*
X132636771Y33168857D01*
X132636771Y33168857D02*
X132684390Y33121238D01*
X132684390Y33121238D02*
X132732009Y33026000D01*
X132732009Y33026000D02*
X132732009Y32692667D01*
X132970104Y33645048D02*
X132970104Y34121238D01*
X133255819Y33549810D02*
X132255819Y33883143D01*
X132255819Y33883143D02*
X133255819Y34216476D01*
X132255819Y34406953D02*
X132255819Y34978381D01*
X133255819Y34692667D02*
X132255819Y34692667D01*
X132255819Y35168858D02*
X132255819Y35740286D01*
X133255819Y35454572D02*
X132255819Y35454572D01*
X132732009Y36073620D02*
X132732009Y36406953D01*
X133255819Y36549810D02*
X133255819Y36073620D01*
X133255819Y36073620D02*
X132255819Y36073620D01*
X132255819Y36073620D02*
X132255819Y36549810D01*
X133255819Y37549810D02*
X132779628Y37216477D01*
X133255819Y36978382D02*
X132255819Y36978382D01*
X132255819Y36978382D02*
X132255819Y37359334D01*
X132255819Y37359334D02*
X132303438Y37454572D01*
X132303438Y37454572D02*
X132351057Y37502191D01*
X132351057Y37502191D02*
X132446295Y37549810D01*
X132446295Y37549810D02*
X132589152Y37549810D01*
X132589152Y37549810D02*
X132684390Y37502191D01*
X132684390Y37502191D02*
X132732009Y37454572D01*
X132732009Y37454572D02*
X132779628Y37359334D01*
X132779628Y37359334D02*
X132779628Y36978382D01*
X132779628Y38168858D02*
X133255819Y38168858D01*
X132255819Y37835525D02*
X132779628Y38168858D01*
X132779628Y38168858D02*
X132255819Y38502191D01*
D11*
X23733333Y73162020D02*
X23447619Y73257258D01*
X23447619Y73257258D02*
X23352381Y73352496D01*
X23352381Y73352496D02*
X23257143Y73542972D01*
X23257143Y73542972D02*
X23257143Y73828686D01*
X23257143Y73828686D02*
X23352381Y74019162D01*
X23352381Y74019162D02*
X23447619Y74114400D01*
X23447619Y74114400D02*
X23638095Y74209639D01*
X23638095Y74209639D02*
X24400000Y74209639D01*
X24400000Y74209639D02*
X24400000Y72209639D01*
X24400000Y72209639D02*
X23733333Y72209639D01*
X23733333Y72209639D02*
X23542857Y72304877D01*
X23542857Y72304877D02*
X23447619Y72400115D01*
X23447619Y72400115D02*
X23352381Y72590591D01*
X23352381Y72590591D02*
X23352381Y72781067D01*
X23352381Y72781067D02*
X23447619Y72971543D01*
X23447619Y72971543D02*
X23542857Y73066781D01*
X23542857Y73066781D02*
X23733333Y73162020D01*
X23733333Y73162020D02*
X24400000Y73162020D01*
X22495238Y73638210D02*
X21542857Y73638210D01*
X22685714Y74209639D02*
X22019048Y72209639D01*
X22019048Y72209639D02*
X21352381Y74209639D01*
X20971428Y72209639D02*
X19828571Y72209639D01*
X20400000Y74209639D02*
X20400000Y72209639D01*
X19161904Y74209639D02*
X19161904Y72209639D01*
X19161904Y72209639D02*
X18685714Y72209639D01*
X18685714Y72209639D02*
X18399999Y72304877D01*
X18399999Y72304877D02*
X18209523Y72495353D01*
X18209523Y72495353D02*
X18114285Y72685829D01*
X18114285Y72685829D02*
X18019047Y73066781D01*
X18019047Y73066781D02*
X18019047Y73352496D01*
X18019047Y73352496D02*
X18114285Y73733448D01*
X18114285Y73733448D02*
X18209523Y73923924D01*
X18209523Y73923924D02*
X18399999Y74114400D01*
X18399999Y74114400D02*
X18685714Y74209639D01*
X18685714Y74209639D02*
X19161904Y74209639D01*
X17257142Y73638210D02*
X16304761Y73638210D01*
X17447618Y74209639D02*
X16780952Y72209639D01*
X16780952Y72209639D02*
X16114285Y74209639D01*
X15733332Y72209639D02*
X14590475Y72209639D01*
X15161904Y74209639D02*
X15161904Y72209639D01*
X13923808Y72209639D02*
X13923808Y73828686D01*
X13923808Y73828686D02*
X13828570Y74019162D01*
X13828570Y74019162D02*
X13733332Y74114400D01*
X13733332Y74114400D02*
X13542856Y74209639D01*
X13542856Y74209639D02*
X13161903Y74209639D01*
X13161903Y74209639D02*
X12971427Y74114400D01*
X12971427Y74114400D02*
X12876189Y74019162D01*
X12876189Y74019162D02*
X12780951Y73828686D01*
X12780951Y73828686D02*
X12780951Y72209639D01*
X11828570Y74209639D02*
X11828570Y72209639D01*
X11828570Y72209639D02*
X10685713Y74209639D01*
X10685713Y74209639D02*
X10685713Y72209639D01*
X9733332Y74209639D02*
X9733332Y72209639D01*
X9066665Y72209639D02*
X7923808Y72209639D01*
X8495237Y74209639D02*
X8495237Y72209639D01*
X6876189Y72209639D02*
X6685712Y72209639D01*
X6685712Y72209639D02*
X6495236Y72304877D01*
X6495236Y72304877D02*
X6399998Y72400115D01*
X6399998Y72400115D02*
X6304760Y72590591D01*
X6304760Y72590591D02*
X6209522Y72971543D01*
X6209522Y72971543D02*
X6209522Y73447734D01*
X6209522Y73447734D02*
X6304760Y73828686D01*
X6304760Y73828686D02*
X6399998Y74019162D01*
X6399998Y74019162D02*
X6495236Y74114400D01*
X6495236Y74114400D02*
X6685712Y74209639D01*
X6685712Y74209639D02*
X6876189Y74209639D01*
X6876189Y74209639D02*
X7066665Y74114400D01*
X7066665Y74114400D02*
X7161903Y74019162D01*
X7161903Y74019162D02*
X7257141Y73828686D01*
X7257141Y73828686D02*
X7352379Y73447734D01*
X7352379Y73447734D02*
X7352379Y72971543D01*
X7352379Y72971543D02*
X7257141Y72590591D01*
X7257141Y72590591D02*
X7161903Y72400115D01*
X7161903Y72400115D02*
X7066665Y72304877D01*
X7066665Y72304877D02*
X6876189Y72209639D01*
X4304760Y74209639D02*
X5447617Y74209639D01*
X4876189Y74209639D02*
X4876189Y72209639D01*
X4876189Y72209639D02*
X5066665Y72495353D01*
X5066665Y72495353D02*
X5257141Y72685829D01*
X5257141Y72685829D02*
X5447617Y72781067D01*
X2780950Y73162020D02*
X2495236Y73257258D01*
X2495236Y73257258D02*
X2399998Y73352496D01*
X2399998Y73352496D02*
X2304760Y73542972D01*
X2304760Y73542972D02*
X2304760Y73828686D01*
X2304760Y73828686D02*
X2399998Y74019162D01*
X2399998Y74019162D02*
X2495236Y74114400D01*
X2495236Y74114400D02*
X2685712Y74209639D01*
X2685712Y74209639D02*
X3447617Y74209639D01*
X3447617Y74209639D02*
X3447617Y72209639D01*
X3447617Y72209639D02*
X2780950Y72209639D01*
X2780950Y72209639D02*
X2590474Y72304877D01*
X2590474Y72304877D02*
X2495236Y72400115D01*
X2495236Y72400115D02*
X2399998Y72590591D01*
X2399998Y72590591D02*
X2399998Y72781067D01*
X2399998Y72781067D02*
X2495236Y72971543D01*
X2495236Y72971543D02*
X2590474Y73066781D01*
X2590474Y73066781D02*
X2780950Y73162020D01*
X2780950Y73162020D02*
X3447617Y73162020D01*
D10*
X132255819Y26511715D02*
X133065342Y26511715D01*
X133065342Y26511715D02*
X133160580Y26559334D01*
X133160580Y26559334D02*
X133208200Y26606953D01*
X133208200Y26606953D02*
X133255819Y26702191D01*
X133255819Y26702191D02*
X133255819Y26892667D01*
X133255819Y26892667D02*
X133208200Y26987905D01*
X133208200Y26987905D02*
X133160580Y27035524D01*
X133160580Y27035524D02*
X133065342Y27083143D01*
X133065342Y27083143D02*
X132255819Y27083143D01*
X133208200Y27511715D02*
X133255819Y27654572D01*
X133255819Y27654572D02*
X133255819Y27892667D01*
X133255819Y27892667D02*
X133208200Y27987905D01*
X133208200Y27987905D02*
X133160580Y28035524D01*
X133160580Y28035524D02*
X133065342Y28083143D01*
X133065342Y28083143D02*
X132970104Y28083143D01*
X132970104Y28083143D02*
X132874866Y28035524D01*
X132874866Y28035524D02*
X132827247Y27987905D01*
X132827247Y27987905D02*
X132779628Y27892667D01*
X132779628Y27892667D02*
X132732009Y27702191D01*
X132732009Y27702191D02*
X132684390Y27606953D01*
X132684390Y27606953D02*
X132636771Y27559334D01*
X132636771Y27559334D02*
X132541533Y27511715D01*
X132541533Y27511715D02*
X132446295Y27511715D01*
X132446295Y27511715D02*
X132351057Y27559334D01*
X132351057Y27559334D02*
X132303438Y27606953D01*
X132303438Y27606953D02*
X132255819Y27702191D01*
X132255819Y27702191D02*
X132255819Y27940286D01*
X132255819Y27940286D02*
X132303438Y28083143D01*
X132732009Y28511715D02*
X132732009Y28845048D01*
X133255819Y28987905D02*
X133255819Y28511715D01*
X133255819Y28511715D02*
X132255819Y28511715D01*
X132255819Y28511715D02*
X132255819Y28987905D01*
X133255819Y29987905D02*
X132779628Y29654572D01*
X133255819Y29416477D02*
X132255819Y29416477D01*
X132255819Y29416477D02*
X132255819Y29797429D01*
X132255819Y29797429D02*
X132303438Y29892667D01*
X132303438Y29892667D02*
X132351057Y29940286D01*
X132351057Y29940286D02*
X132446295Y29987905D01*
X132446295Y29987905D02*
X132589152Y29987905D01*
X132589152Y29987905D02*
X132684390Y29940286D01*
X132684390Y29940286D02*
X132732009Y29892667D01*
X132732009Y29892667D02*
X132779628Y29797429D01*
X132779628Y29797429D02*
X132779628Y29416477D01*
D12*
X14282707Y11260924D02*
X14282707Y12527591D01*
X14282707Y12346639D02*
X14373184Y12437115D01*
X14373184Y12437115D02*
X14554136Y12527591D01*
X14554136Y12527591D02*
X14825565Y12527591D01*
X14825565Y12527591D02*
X15006517Y12437115D01*
X15006517Y12437115D02*
X15096993Y12256162D01*
X15096993Y12256162D02*
X15096993Y11260924D01*
X15096993Y12256162D02*
X15187469Y12437115D01*
X15187469Y12437115D02*
X15368422Y12527591D01*
X15368422Y12527591D02*
X15639850Y12527591D01*
X15639850Y12527591D02*
X15820803Y12437115D01*
X15820803Y12437115D02*
X15911279Y12256162D01*
X15911279Y12256162D02*
X15911279Y11260924D01*
X17087469Y11260924D02*
X16906517Y11351400D01*
X16906517Y11351400D02*
X16816040Y11532353D01*
X16816040Y11532353D02*
X16816040Y13160924D01*
X18625564Y11260924D02*
X18625564Y12256162D01*
X18625564Y12256162D02*
X18535088Y12437115D01*
X18535088Y12437115D02*
X18354136Y12527591D01*
X18354136Y12527591D02*
X17992231Y12527591D01*
X17992231Y12527591D02*
X17811278Y12437115D01*
X18625564Y11351400D02*
X18444612Y11260924D01*
X18444612Y11260924D02*
X17992231Y11260924D01*
X17992231Y11260924D02*
X17811278Y11351400D01*
X17811278Y11351400D02*
X17720802Y11532353D01*
X17720802Y11532353D02*
X17720802Y11713305D01*
X17720802Y11713305D02*
X17811278Y11894258D01*
X17811278Y11894258D02*
X17992231Y11984734D01*
X17992231Y11984734D02*
X18444612Y11984734D01*
X18444612Y11984734D02*
X18625564Y12075210D01*
X19530326Y11260924D02*
X19530326Y13160924D01*
X19530326Y12437115D02*
X19711279Y12527591D01*
X19711279Y12527591D02*
X20073184Y12527591D01*
X20073184Y12527591D02*
X20254136Y12437115D01*
X20254136Y12437115D02*
X20344612Y12346639D01*
X20344612Y12346639D02*
X20435088Y12165686D01*
X20435088Y12165686D02*
X20435088Y11622829D01*
X20435088Y11622829D02*
X20344612Y11441877D01*
X20344612Y11441877D02*
X20254136Y11351400D01*
X20254136Y11351400D02*
X20073184Y11260924D01*
X20073184Y11260924D02*
X19711279Y11260924D01*
X19711279Y11260924D02*
X19530326Y11351400D01*
X21249374Y11441877D02*
X21339851Y11351400D01*
X21339851Y11351400D02*
X21249374Y11260924D01*
X21249374Y11260924D02*
X21158898Y11351400D01*
X21158898Y11351400D02*
X21249374Y11441877D01*
X21249374Y11441877D02*
X21249374Y11260924D01*
X22968422Y11351400D02*
X22787470Y11260924D01*
X22787470Y11260924D02*
X22425565Y11260924D01*
X22425565Y11260924D02*
X22244613Y11351400D01*
X22244613Y11351400D02*
X22154136Y11441877D01*
X22154136Y11441877D02*
X22063660Y11622829D01*
X22063660Y11622829D02*
X22063660Y12165686D01*
X22063660Y12165686D02*
X22154136Y12346639D01*
X22154136Y12346639D02*
X22244613Y12437115D01*
X22244613Y12437115D02*
X22425565Y12527591D01*
X22425565Y12527591D02*
X22787470Y12527591D01*
X22787470Y12527591D02*
X22968422Y12437115D01*
X23601755Y12527591D02*
X24596993Y12527591D01*
X24596993Y12527591D02*
X23601755Y11260924D01*
X23601755Y11260924D02*
X24596993Y11260924D01*
X17992230Y9920972D02*
X18082706Y10011448D01*
X18082706Y10011448D02*
X18263659Y10101924D01*
X18263659Y10101924D02*
X18716040Y10101924D01*
X18716040Y10101924D02*
X18896992Y10011448D01*
X18896992Y10011448D02*
X18987468Y9920972D01*
X18987468Y9920972D02*
X19077945Y9740020D01*
X19077945Y9740020D02*
X19077945Y9559067D01*
X19077945Y9559067D02*
X18987468Y9287639D01*
X18987468Y9287639D02*
X17901754Y8201924D01*
X17901754Y8201924D02*
X19077945Y8201924D01*
X20254135Y10101924D02*
X20435088Y10101924D01*
X20435088Y10101924D02*
X20616040Y10011448D01*
X20616040Y10011448D02*
X20706516Y9920972D01*
X20706516Y9920972D02*
X20796992Y9740020D01*
X20796992Y9740020D02*
X20887469Y9378115D01*
X20887469Y9378115D02*
X20887469Y8925734D01*
X20887469Y8925734D02*
X20796992Y8563829D01*
X20796992Y8563829D02*
X20706516Y8382877D01*
X20706516Y8382877D02*
X20616040Y8292400D01*
X20616040Y8292400D02*
X20435088Y8201924D01*
X20435088Y8201924D02*
X20254135Y8201924D01*
X20254135Y8201924D02*
X20073183Y8292400D01*
X20073183Y8292400D02*
X19982707Y8382877D01*
X19982707Y8382877D02*
X19892230Y8563829D01*
X19892230Y8563829D02*
X19801754Y8925734D01*
X19801754Y8925734D02*
X19801754Y9378115D01*
X19801754Y9378115D02*
X19892230Y9740020D01*
X19892230Y9740020D02*
X19982707Y9920972D01*
X19982707Y9920972D02*
X20073183Y10011448D01*
X20073183Y10011448D02*
X20254135Y10101924D01*
X21611278Y9920972D02*
X21701754Y10011448D01*
X21701754Y10011448D02*
X21882707Y10101924D01*
X21882707Y10101924D02*
X22335088Y10101924D01*
X22335088Y10101924D02*
X22516040Y10011448D01*
X22516040Y10011448D02*
X22606516Y9920972D01*
X22606516Y9920972D02*
X22696993Y9740020D01*
X22696993Y9740020D02*
X22696993Y9559067D01*
X22696993Y9559067D02*
X22606516Y9287639D01*
X22606516Y9287639D02*
X21520802Y8201924D01*
X21520802Y8201924D02*
X22696993Y8201924D01*
X23330326Y10101924D02*
X24506517Y10101924D01*
X24506517Y10101924D02*
X23873183Y9378115D01*
X23873183Y9378115D02*
X24144612Y9378115D01*
X24144612Y9378115D02*
X24325564Y9287639D01*
X24325564Y9287639D02*
X24416040Y9197162D01*
X24416040Y9197162D02*
X24506517Y9016210D01*
X24506517Y9016210D02*
X24506517Y8563829D01*
X24506517Y8563829D02*
X24416040Y8382877D01*
X24416040Y8382877D02*
X24325564Y8292400D01*
X24325564Y8292400D02*
X24144612Y8201924D01*
X24144612Y8201924D02*
X23601755Y8201924D01*
X23601755Y8201924D02*
X23420802Y8292400D01*
X23420802Y8292400D02*
X23330326Y8382877D01*
D10*
X135232009Y35461715D02*
X135279628Y35590287D01*
X135279628Y35590287D02*
X135327247Y35633144D01*
X135327247Y35633144D02*
X135422485Y35676001D01*
X135422485Y35676001D02*
X135565342Y35676001D01*
X135565342Y35676001D02*
X135660580Y35633144D01*
X135660580Y35633144D02*
X135708200Y35590287D01*
X135708200Y35590287D02*
X135755819Y35504572D01*
X135755819Y35504572D02*
X135755819Y35161715D01*
X135755819Y35161715D02*
X134755819Y35161715D01*
X134755819Y35161715D02*
X134755819Y35461715D01*
X134755819Y35461715D02*
X134803438Y35547429D01*
X134803438Y35547429D02*
X134851057Y35590287D01*
X134851057Y35590287D02*
X134946295Y35633144D01*
X134946295Y35633144D02*
X135041533Y35633144D01*
X135041533Y35633144D02*
X135136771Y35590287D01*
X135136771Y35590287D02*
X135184390Y35547429D01*
X135184390Y35547429D02*
X135232009Y35461715D01*
X135232009Y35461715D02*
X135232009Y35161715D01*
X135470104Y36018858D02*
X135470104Y36447429D01*
X135755819Y35933144D02*
X134755819Y36233144D01*
X134755819Y36233144D02*
X135755819Y36533144D01*
X134755819Y36704573D02*
X134755819Y37218858D01*
X135755819Y36961716D02*
X134755819Y36961716D01*
X135660580Y37518858D02*
X135708200Y37561715D01*
X135708200Y37561715D02*
X135755819Y37518858D01*
X135755819Y37518858D02*
X135708200Y37476001D01*
X135708200Y37476001D02*
X135660580Y37518858D01*
X135660580Y37518858D02*
X135755819Y37518858D01*
X135136771Y37518858D02*
X135184390Y37561715D01*
X135184390Y37561715D02*
X135232009Y37518858D01*
X135232009Y37518858D02*
X135184390Y37476001D01*
X135184390Y37476001D02*
X135136771Y37518858D01*
X135136771Y37518858D02*
X135232009Y37518858D01*
X134755819Y38804572D02*
X134755819Y38890286D01*
X134755819Y38890286D02*
X134803438Y38976000D01*
X134803438Y38976000D02*
X134851057Y39018857D01*
X134851057Y39018857D02*
X134946295Y39061715D01*
X134946295Y39061715D02*
X135136771Y39104572D01*
X135136771Y39104572D02*
X135374866Y39104572D01*
X135374866Y39104572D02*
X135565342Y39061715D01*
X135565342Y39061715D02*
X135660580Y39018857D01*
X135660580Y39018857D02*
X135708200Y38976000D01*
X135708200Y38976000D02*
X135755819Y38890286D01*
X135755819Y38890286D02*
X135755819Y38804572D01*
X135755819Y38804572D02*
X135708200Y38718857D01*
X135708200Y38718857D02*
X135660580Y38676000D01*
X135660580Y38676000D02*
X135565342Y38633143D01*
X135565342Y38633143D02*
X135374866Y38590286D01*
X135374866Y38590286D02*
X135136771Y38590286D01*
X135136771Y38590286D02*
X134946295Y38633143D01*
X134946295Y38633143D02*
X134851057Y38676000D01*
X134851057Y38676000D02*
X134803438Y38718857D01*
X134803438Y38718857D02*
X134755819Y38804572D01*
X135755819Y39447429D02*
X134755819Y40133143D01*
X134755819Y39576000D02*
X134803438Y39661715D01*
X134803438Y39661715D02*
X134898676Y39704572D01*
X134898676Y39704572D02*
X134993914Y39661715D01*
X134993914Y39661715D02*
X135041533Y39576000D01*
X135041533Y39576000D02*
X134993914Y39490286D01*
X134993914Y39490286D02*
X134898676Y39447429D01*
X134898676Y39447429D02*
X134803438Y39490286D01*
X134803438Y39490286D02*
X134755819Y39576000D01*
X135708200Y40090286D02*
X135612961Y40133143D01*
X135612961Y40133143D02*
X135517723Y40090286D01*
X135517723Y40090286D02*
X135470104Y40004572D01*
X135470104Y40004572D02*
X135517723Y39918858D01*
X135517723Y39918858D02*
X135612961Y39876000D01*
X135612961Y39876000D02*
X135708200Y39918858D01*
X135708200Y39918858D02*
X135755819Y40004572D01*
X135755819Y40004572D02*
X135708200Y40090286D01*
D12*
X128070171Y12111715D02*
X128127314Y12283143D01*
X128127314Y12283143D02*
X128184457Y12340286D01*
X128184457Y12340286D02*
X128298742Y12397429D01*
X128298742Y12397429D02*
X128470171Y12397429D01*
X128470171Y12397429D02*
X128584457Y12340286D01*
X128584457Y12340286D02*
X128641600Y12283143D01*
X128641600Y12283143D02*
X128698742Y12168858D01*
X128698742Y12168858D02*
X128698742Y11711715D01*
X128698742Y11711715D02*
X127498742Y11711715D01*
X127498742Y11711715D02*
X127498742Y12111715D01*
X127498742Y12111715D02*
X127555885Y12226000D01*
X127555885Y12226000D02*
X127613028Y12283143D01*
X127613028Y12283143D02*
X127727314Y12340286D01*
X127727314Y12340286D02*
X127841600Y12340286D01*
X127841600Y12340286D02*
X127955885Y12283143D01*
X127955885Y12283143D02*
X128013028Y12226000D01*
X128013028Y12226000D02*
X128070171Y12111715D01*
X128070171Y12111715D02*
X128070171Y11711715D01*
X128355885Y12854572D02*
X128355885Y13426000D01*
X128698742Y12740286D02*
X127498742Y13140286D01*
X127498742Y13140286D02*
X128698742Y13540286D01*
X127498742Y13768857D02*
X127498742Y14454571D01*
X128698742Y14111714D02*
X127498742Y14111714D01*
X128698742Y14854572D02*
X127498742Y14854572D01*
X127498742Y14854572D02*
X127498742Y15140286D01*
X127498742Y15140286D02*
X127555885Y15311715D01*
X127555885Y15311715D02*
X127670171Y15426000D01*
X127670171Y15426000D02*
X127784457Y15483143D01*
X127784457Y15483143D02*
X128013028Y15540286D01*
X128013028Y15540286D02*
X128184457Y15540286D01*
X128184457Y15540286D02*
X128413028Y15483143D01*
X128413028Y15483143D02*
X128527314Y15426000D01*
X128527314Y15426000D02*
X128641600Y15311715D01*
X128641600Y15311715D02*
X128698742Y15140286D01*
X128698742Y15140286D02*
X128698742Y14854572D01*
X128355885Y15997429D02*
X128355885Y16568857D01*
X128698742Y15883143D02*
X127498742Y16283143D01*
X127498742Y16283143D02*
X128698742Y16683143D01*
X127498742Y16911714D02*
X127498742Y17597428D01*
X128698742Y17254571D02*
X127498742Y17254571D01*
X127498742Y17997429D02*
X128470171Y17997429D01*
X128470171Y17997429D02*
X128584457Y18054572D01*
X128584457Y18054572D02*
X128641600Y18111714D01*
X128641600Y18111714D02*
X128698742Y18226000D01*
X128698742Y18226000D02*
X128698742Y18454572D01*
X128698742Y18454572D02*
X128641600Y18568857D01*
X128641600Y18568857D02*
X128584457Y18626000D01*
X128584457Y18626000D02*
X128470171Y18683143D01*
X128470171Y18683143D02*
X127498742Y18683143D01*
X128698742Y19254572D02*
X127498742Y19254572D01*
X127498742Y19254572D02*
X128698742Y19940286D01*
X128698742Y19940286D02*
X127498742Y19940286D01*
X128698742Y20511715D02*
X127498742Y20511715D01*
X127498742Y20911715D02*
X127498742Y21597429D01*
X128698742Y21254572D02*
X127498742Y21254572D01*
X127498742Y22226001D02*
X127498742Y22340287D01*
X127498742Y22340287D02*
X127555885Y22454573D01*
X127555885Y22454573D02*
X127613028Y22511715D01*
X127613028Y22511715D02*
X127727314Y22568858D01*
X127727314Y22568858D02*
X127955885Y22626001D01*
X127955885Y22626001D02*
X128241600Y22626001D01*
X128241600Y22626001D02*
X128470171Y22568858D01*
X128470171Y22568858D02*
X128584457Y22511715D01*
X128584457Y22511715D02*
X128641600Y22454573D01*
X128641600Y22454573D02*
X128698742Y22340287D01*
X128698742Y22340287D02*
X128698742Y22226001D01*
X128698742Y22226001D02*
X128641600Y22111715D01*
X128641600Y22111715D02*
X128584457Y22054573D01*
X128584457Y22054573D02*
X128470171Y21997430D01*
X128470171Y21997430D02*
X128241600Y21940287D01*
X128241600Y21940287D02*
X127955885Y21940287D01*
X127955885Y21940287D02*
X127727314Y21997430D01*
X127727314Y21997430D02*
X127613028Y22054573D01*
X127613028Y22054573D02*
X127555885Y22111715D01*
X127555885Y22111715D02*
X127498742Y22226001D01*
X128698742Y23768858D02*
X128698742Y23083144D01*
X128698742Y23426001D02*
X127498742Y23426001D01*
X127498742Y23426001D02*
X127670171Y23311715D01*
X127670171Y23311715D02*
X127784457Y23197430D01*
X127784457Y23197430D02*
X127841600Y23083144D01*
X128355885Y24226001D02*
X128355885Y24797429D01*
X128698742Y24111715D02*
X127498742Y24511715D01*
X127498742Y24511715D02*
X128698742Y24911715D01*
X130630742Y11997430D02*
X129830742Y11997430D01*
X129945028Y11997430D02*
X129887885Y12054573D01*
X129887885Y12054573D02*
X129830742Y12168858D01*
X129830742Y12168858D02*
X129830742Y12340287D01*
X129830742Y12340287D02*
X129887885Y12454573D01*
X129887885Y12454573D02*
X130002171Y12511715D01*
X130002171Y12511715D02*
X130630742Y12511715D01*
X130002171Y12511715D02*
X129887885Y12568858D01*
X129887885Y12568858D02*
X129830742Y12683144D01*
X129830742Y12683144D02*
X129830742Y12854573D01*
X129830742Y12854573D02*
X129887885Y12968858D01*
X129887885Y12968858D02*
X130002171Y13026001D01*
X130002171Y13026001D02*
X130630742Y13026001D01*
X130630742Y13768858D02*
X130573600Y13654573D01*
X130573600Y13654573D02*
X130459314Y13597430D01*
X130459314Y13597430D02*
X129430742Y13597430D01*
X130630742Y14740286D02*
X130002171Y14740286D01*
X130002171Y14740286D02*
X129887885Y14683144D01*
X129887885Y14683144D02*
X129830742Y14568858D01*
X129830742Y14568858D02*
X129830742Y14340286D01*
X129830742Y14340286D02*
X129887885Y14226001D01*
X130573600Y14740286D02*
X130630742Y14626001D01*
X130630742Y14626001D02*
X130630742Y14340286D01*
X130630742Y14340286D02*
X130573600Y14226001D01*
X130573600Y14226001D02*
X130459314Y14168858D01*
X130459314Y14168858D02*
X130345028Y14168858D01*
X130345028Y14168858D02*
X130230742Y14226001D01*
X130230742Y14226001D02*
X130173600Y14340286D01*
X130173600Y14340286D02*
X130173600Y14626001D01*
X130173600Y14626001D02*
X130116457Y14740286D01*
X130630742Y15311715D02*
X129430742Y15311715D01*
X129887885Y15311715D02*
X129830742Y15426000D01*
X129830742Y15426000D02*
X129830742Y15654572D01*
X129830742Y15654572D02*
X129887885Y15768858D01*
X129887885Y15768858D02*
X129945028Y15826000D01*
X129945028Y15826000D02*
X130059314Y15883143D01*
X130059314Y15883143D02*
X130402171Y15883143D01*
X130402171Y15883143D02*
X130516457Y15826000D01*
X130516457Y15826000D02*
X130573600Y15768858D01*
X130573600Y15768858D02*
X130630742Y15654572D01*
X130630742Y15654572D02*
X130630742Y15426000D01*
X130630742Y15426000D02*
X130573600Y15311715D01*
X130516457Y16397429D02*
X130573600Y16454572D01*
X130573600Y16454572D02*
X130630742Y16397429D01*
X130630742Y16397429D02*
X130573600Y16340286D01*
X130573600Y16340286D02*
X130516457Y16397429D01*
X130516457Y16397429D02*
X130630742Y16397429D01*
X130573600Y17483143D02*
X130630742Y17368858D01*
X130630742Y17368858D02*
X130630742Y17140286D01*
X130630742Y17140286D02*
X130573600Y17026001D01*
X130573600Y17026001D02*
X130516457Y16968858D01*
X130516457Y16968858D02*
X130402171Y16911715D01*
X130402171Y16911715D02*
X130059314Y16911715D01*
X130059314Y16911715D02*
X129945028Y16968858D01*
X129945028Y16968858D02*
X129887885Y17026001D01*
X129887885Y17026001D02*
X129830742Y17140286D01*
X129830742Y17140286D02*
X129830742Y17368858D01*
X129830742Y17368858D02*
X129887885Y17483143D01*
X129830742Y17883143D02*
X129830742Y18511714D01*
X129830742Y18511714D02*
X130630742Y17883143D01*
X130630742Y17883143D02*
X130630742Y18511714D01*
X130573600Y19026001D02*
X130630742Y19026001D01*
X130630742Y19026001D02*
X130745028Y18968858D01*
X130745028Y18968858D02*
X130802171Y18911715D01*
X129545028Y20397430D02*
X129487885Y20454573D01*
X129487885Y20454573D02*
X129430742Y20568858D01*
X129430742Y20568858D02*
X129430742Y20854573D01*
X129430742Y20854573D02*
X129487885Y20968858D01*
X129487885Y20968858D02*
X129545028Y21026001D01*
X129545028Y21026001D02*
X129659314Y21083144D01*
X129659314Y21083144D02*
X129773600Y21083144D01*
X129773600Y21083144D02*
X129945028Y21026001D01*
X129945028Y21026001D02*
X130630742Y20340287D01*
X130630742Y20340287D02*
X130630742Y21083144D01*
X129430742Y21826001D02*
X129430742Y21940287D01*
X129430742Y21940287D02*
X129487885Y22054573D01*
X129487885Y22054573D02*
X129545028Y22111715D01*
X129545028Y22111715D02*
X129659314Y22168858D01*
X129659314Y22168858D02*
X129887885Y22226001D01*
X129887885Y22226001D02*
X130173600Y22226001D01*
X130173600Y22226001D02*
X130402171Y22168858D01*
X130402171Y22168858D02*
X130516457Y22111715D01*
X130516457Y22111715D02*
X130573600Y22054573D01*
X130573600Y22054573D02*
X130630742Y21940287D01*
X130630742Y21940287D02*
X130630742Y21826001D01*
X130630742Y21826001D02*
X130573600Y21711715D01*
X130573600Y21711715D02*
X130516457Y21654573D01*
X130516457Y21654573D02*
X130402171Y21597430D01*
X130402171Y21597430D02*
X130173600Y21540287D01*
X130173600Y21540287D02*
X129887885Y21540287D01*
X129887885Y21540287D02*
X129659314Y21597430D01*
X129659314Y21597430D02*
X129545028Y21654573D01*
X129545028Y21654573D02*
X129487885Y21711715D01*
X129487885Y21711715D02*
X129430742Y21826001D01*
X129545028Y22683144D02*
X129487885Y22740287D01*
X129487885Y22740287D02*
X129430742Y22854572D01*
X129430742Y22854572D02*
X129430742Y23140287D01*
X129430742Y23140287D02*
X129487885Y23254572D01*
X129487885Y23254572D02*
X129545028Y23311715D01*
X129545028Y23311715D02*
X129659314Y23368858D01*
X129659314Y23368858D02*
X129773600Y23368858D01*
X129773600Y23368858D02*
X129945028Y23311715D01*
X129945028Y23311715D02*
X130630742Y22626001D01*
X130630742Y22626001D02*
X130630742Y23368858D01*
X129430742Y23768858D02*
X129430742Y24511715D01*
X129430742Y24511715D02*
X129887885Y24111715D01*
X129887885Y24111715D02*
X129887885Y24283144D01*
X129887885Y24283144D02*
X129945028Y24397429D01*
X129945028Y24397429D02*
X130002171Y24454572D01*
X130002171Y24454572D02*
X130116457Y24511715D01*
X130116457Y24511715D02*
X130402171Y24511715D01*
X130402171Y24511715D02*
X130516457Y24454572D01*
X130516457Y24454572D02*
X130573600Y24397429D01*
X130573600Y24397429D02*
X130630742Y24283144D01*
X130630742Y24283144D02*
X130630742Y23940287D01*
X130630742Y23940287D02*
X130573600Y23826001D01*
X130573600Y23826001D02*
X130516457Y23768858D01*
X132562742Y12026002D02*
X131762742Y12026002D01*
X131991314Y12026002D02*
X131877028Y12083145D01*
X131877028Y12083145D02*
X131819885Y12140287D01*
X131819885Y12140287D02*
X131762742Y12254573D01*
X131762742Y12254573D02*
X131762742Y12368859D01*
X132562742Y12940287D02*
X132505600Y12826002D01*
X132505600Y12826002D02*
X132448457Y12768859D01*
X132448457Y12768859D02*
X132334171Y12711716D01*
X132334171Y12711716D02*
X131991314Y12711716D01*
X131991314Y12711716D02*
X131877028Y12768859D01*
X131877028Y12768859D02*
X131819885Y12826002D01*
X131819885Y12826002D02*
X131762742Y12940287D01*
X131762742Y12940287D02*
X131762742Y13111716D01*
X131762742Y13111716D02*
X131819885Y13226002D01*
X131819885Y13226002D02*
X131877028Y13283144D01*
X131877028Y13283144D02*
X131991314Y13340287D01*
X131991314Y13340287D02*
X132334171Y13340287D01*
X132334171Y13340287D02*
X132448457Y13283144D01*
X132448457Y13283144D02*
X132505600Y13226002D01*
X132505600Y13226002D02*
X132562742Y13111716D01*
X132562742Y13111716D02*
X132562742Y12940287D01*
X132562742Y13854573D02*
X131762742Y13854573D01*
X131877028Y13854573D02*
X131819885Y13911716D01*
X131819885Y13911716D02*
X131762742Y14026001D01*
X131762742Y14026001D02*
X131762742Y14197430D01*
X131762742Y14197430D02*
X131819885Y14311716D01*
X131819885Y14311716D02*
X131934171Y14368858D01*
X131934171Y14368858D02*
X132562742Y14368858D01*
X131934171Y14368858D02*
X131819885Y14426001D01*
X131819885Y14426001D02*
X131762742Y14540287D01*
X131762742Y14540287D02*
X131762742Y14711716D01*
X131762742Y14711716D02*
X131819885Y14826001D01*
X131819885Y14826001D02*
X131934171Y14883144D01*
X131934171Y14883144D02*
X132562742Y14883144D01*
X132562742Y15968858D02*
X131934171Y15968858D01*
X131934171Y15968858D02*
X131819885Y15911716D01*
X131819885Y15911716D02*
X131762742Y15797430D01*
X131762742Y15797430D02*
X131762742Y15568858D01*
X131762742Y15568858D02*
X131819885Y15454573D01*
X132505600Y15968858D02*
X132562742Y15854573D01*
X132562742Y15854573D02*
X132562742Y15568858D01*
X132562742Y15568858D02*
X132505600Y15454573D01*
X132505600Y15454573D02*
X132391314Y15397430D01*
X132391314Y15397430D02*
X132277028Y15397430D01*
X132277028Y15397430D02*
X132162742Y15454573D01*
X132162742Y15454573D02*
X132105600Y15568858D01*
X132105600Y15568858D02*
X132105600Y15854573D01*
X132105600Y15854573D02*
X132048457Y15968858D01*
X131762742Y16540287D02*
X132562742Y16540287D01*
X131877028Y16540287D02*
X131819885Y16597430D01*
X131819885Y16597430D02*
X131762742Y16711715D01*
X131762742Y16711715D02*
X131762742Y16883144D01*
X131762742Y16883144D02*
X131819885Y16997430D01*
X131819885Y16997430D02*
X131934171Y17054572D01*
X131934171Y17054572D02*
X132562742Y17054572D01*
X132105600Y17626001D02*
X132105600Y18540286D01*
X132562742Y19626000D02*
X131362742Y19626000D01*
X132505600Y19626000D02*
X132562742Y19511715D01*
X132562742Y19511715D02*
X132562742Y19283143D01*
X132562742Y19283143D02*
X132505600Y19168858D01*
X132505600Y19168858D02*
X132448457Y19111715D01*
X132448457Y19111715D02*
X132334171Y19054572D01*
X132334171Y19054572D02*
X131991314Y19054572D01*
X131991314Y19054572D02*
X131877028Y19111715D01*
X131877028Y19111715D02*
X131819885Y19168858D01*
X131819885Y19168858D02*
X131762742Y19283143D01*
X131762742Y19283143D02*
X131762742Y19511715D01*
X131762742Y19511715D02*
X131819885Y19626000D01*
X131762742Y20083143D02*
X132562742Y20368857D01*
X132562742Y20368857D02*
X131762742Y20654572D01*
X132562742Y21283143D02*
X132505600Y21168858D01*
X132505600Y21168858D02*
X132448457Y21111715D01*
X132448457Y21111715D02*
X132334171Y21054572D01*
X132334171Y21054572D02*
X131991314Y21054572D01*
X131991314Y21054572D02*
X131877028Y21111715D01*
X131877028Y21111715D02*
X131819885Y21168858D01*
X131819885Y21168858D02*
X131762742Y21283143D01*
X131762742Y21283143D02*
X131762742Y21454572D01*
X131762742Y21454572D02*
X131819885Y21568858D01*
X131819885Y21568858D02*
X131877028Y21626000D01*
X131877028Y21626000D02*
X131991314Y21683143D01*
X131991314Y21683143D02*
X132334171Y21683143D01*
X132334171Y21683143D02*
X132448457Y21626000D01*
X132448457Y21626000D02*
X132505600Y21568858D01*
X132505600Y21568858D02*
X132562742Y21454572D01*
X132562742Y21454572D02*
X132562742Y21283143D01*
X132562742Y22197429D02*
X131762742Y22197429D01*
X131991314Y22197429D02*
X131877028Y22254572D01*
X131877028Y22254572D02*
X131819885Y22311714D01*
X131819885Y22311714D02*
X131762742Y22426000D01*
X131762742Y22426000D02*
X131762742Y22540286D01*
X132562742Y23454571D02*
X131934171Y23454571D01*
X131934171Y23454571D02*
X131819885Y23397429D01*
X131819885Y23397429D02*
X131762742Y23283143D01*
X131762742Y23283143D02*
X131762742Y23054571D01*
X131762742Y23054571D02*
X131819885Y22940286D01*
X132505600Y23454571D02*
X132562742Y23340286D01*
X132562742Y23340286D02*
X132562742Y23054571D01*
X132562742Y23054571D02*
X132505600Y22940286D01*
X132505600Y22940286D02*
X132391314Y22883143D01*
X132391314Y22883143D02*
X132277028Y22883143D01*
X132277028Y22883143D02*
X132162742Y22940286D01*
X132162742Y22940286D02*
X132105600Y23054571D01*
X132105600Y23054571D02*
X132105600Y23340286D01*
X132105600Y23340286D02*
X132048457Y23454571D01*
X132562742Y24026000D02*
X131362742Y24026000D01*
X132105600Y24140285D02*
X132562742Y24483143D01*
X131762742Y24483143D02*
X132219885Y24026000D01*
D10*
X133700285Y63195820D02*
X134214571Y63195820D01*
X133957428Y63195820D02*
X133957428Y62195820D01*
X133957428Y62195820D02*
X134043142Y62338677D01*
X134043142Y62338677D02*
X134128857Y62433915D01*
X134128857Y62433915D02*
X134214571Y62481534D01*
X133143142Y62195820D02*
X133057428Y62195820D01*
X133057428Y62195820D02*
X132971714Y62243439D01*
X132971714Y62243439D02*
X132928857Y62291058D01*
X132928857Y62291058D02*
X132885999Y62386296D01*
X132885999Y62386296D02*
X132843142Y62576772D01*
X132843142Y62576772D02*
X132843142Y62814867D01*
X132843142Y62814867D02*
X132885999Y63005343D01*
X132885999Y63005343D02*
X132928857Y63100581D01*
X132928857Y63100581D02*
X132971714Y63148200D01*
X132971714Y63148200D02*
X133057428Y63195820D01*
X133057428Y63195820D02*
X133143142Y63195820D01*
X133143142Y63195820D02*
X133228857Y63148200D01*
X133228857Y63148200D02*
X133271714Y63100581D01*
X133271714Y63100581D02*
X133314571Y63005343D01*
X133314571Y63005343D02*
X133357428Y62814867D01*
X133357428Y62814867D02*
X133357428Y62576772D01*
X133357428Y62576772D02*
X133314571Y62386296D01*
X133314571Y62386296D02*
X133271714Y62291058D01*
X133271714Y62291058D02*
X133228857Y62243439D01*
X133228857Y62243439D02*
X133143142Y62195820D01*
X132285999Y62195820D02*
X132200285Y62195820D01*
X132200285Y62195820D02*
X132114571Y62243439D01*
X132114571Y62243439D02*
X132071714Y62291058D01*
X132071714Y62291058D02*
X132028856Y62386296D01*
X132028856Y62386296D02*
X131985999Y62576772D01*
X131985999Y62576772D02*
X131985999Y62814867D01*
X131985999Y62814867D02*
X132028856Y63005343D01*
X132028856Y63005343D02*
X132071714Y63100581D01*
X132071714Y63100581D02*
X132114571Y63148200D01*
X132114571Y63148200D02*
X132200285Y63195820D01*
X132200285Y63195820D02*
X132285999Y63195820D01*
X132285999Y63195820D02*
X132371714Y63148200D01*
X132371714Y63148200D02*
X132414571Y63100581D01*
X132414571Y63100581D02*
X132457428Y63005343D01*
X132457428Y63005343D02*
X132500285Y62814867D01*
X132500285Y62814867D02*
X132500285Y62576772D01*
X132500285Y62576772D02*
X132457428Y62386296D01*
X132457428Y62386296D02*
X132414571Y62291058D01*
X132414571Y62291058D02*
X132371714Y62243439D01*
X132371714Y62243439D02*
X132285999Y62195820D01*
X131643142Y63195820D02*
X130957428Y62195820D01*
X131514571Y62195820D02*
X131428856Y62243439D01*
X131428856Y62243439D02*
X131385999Y62338677D01*
X131385999Y62338677D02*
X131428856Y62433915D01*
X131428856Y62433915D02*
X131514571Y62481534D01*
X131514571Y62481534D02*
X131600285Y62433915D01*
X131600285Y62433915D02*
X131643142Y62338677D01*
X131643142Y62338677D02*
X131600285Y62243439D01*
X131600285Y62243439D02*
X131514571Y62195820D01*
X131000285Y63148200D02*
X130957428Y63052962D01*
X130957428Y63052962D02*
X131000285Y62957724D01*
X131000285Y62957724D02*
X131085999Y62910105D01*
X131085999Y62910105D02*
X131171713Y62957724D01*
X131171713Y62957724D02*
X131214571Y63052962D01*
X131214571Y63052962D02*
X131171713Y63148200D01*
X131171713Y63148200D02*
X131085999Y63195820D01*
X131085999Y63195820D02*
X131000285Y63148200D01*
D13*
X131000895Y65936715D02*
X130619942Y65670048D01*
X131000895Y65479572D02*
X130200895Y65479572D01*
X130200895Y65479572D02*
X130200895Y65784334D01*
X130200895Y65784334D02*
X130238990Y65860524D01*
X130238990Y65860524D02*
X130277085Y65898619D01*
X130277085Y65898619D02*
X130353276Y65936715D01*
X130353276Y65936715D02*
X130467561Y65936715D01*
X130467561Y65936715D02*
X130543752Y65898619D01*
X130543752Y65898619D02*
X130581847Y65860524D01*
X130581847Y65860524D02*
X130619942Y65784334D01*
X130619942Y65784334D02*
X130619942Y65479572D01*
X131000895Y66698619D02*
X131000895Y66241476D01*
X131000895Y66470048D02*
X130200895Y66470048D01*
X130200895Y66470048D02*
X130315180Y66393857D01*
X130315180Y66393857D02*
X130391371Y66317667D01*
X130391371Y66317667D02*
X130429466Y66241476D01*
X130200895Y67384334D02*
X130200895Y67231953D01*
X130200895Y67231953D02*
X130238990Y67155762D01*
X130238990Y67155762D02*
X130277085Y67117667D01*
X130277085Y67117667D02*
X130391371Y67041477D01*
X130391371Y67041477D02*
X130543752Y67003381D01*
X130543752Y67003381D02*
X130848514Y67003381D01*
X130848514Y67003381D02*
X130924704Y67041477D01*
X130924704Y67041477D02*
X130962800Y67079572D01*
X130962800Y67079572D02*
X131000895Y67155762D01*
X131000895Y67155762D02*
X131000895Y67308143D01*
X131000895Y67308143D02*
X130962800Y67384334D01*
X130962800Y67384334D02*
X130924704Y67422429D01*
X130924704Y67422429D02*
X130848514Y67460524D01*
X130848514Y67460524D02*
X130658038Y67460524D01*
X130658038Y67460524D02*
X130581847Y67422429D01*
X130581847Y67422429D02*
X130543752Y67384334D01*
X130543752Y67384334D02*
X130505657Y67308143D01*
X130505657Y67308143D02*
X130505657Y67155762D01*
X130505657Y67155762D02*
X130543752Y67079572D01*
X130543752Y67079572D02*
X130581847Y67041477D01*
X130581847Y67041477D02*
X130658038Y67003381D01*
X64766847Y45322429D02*
X64804942Y45436715D01*
X64804942Y45436715D02*
X64843038Y45474810D01*
X64843038Y45474810D02*
X64919228Y45512906D01*
X64919228Y45512906D02*
X65033514Y45512906D01*
X65033514Y45512906D02*
X65109704Y45474810D01*
X65109704Y45474810D02*
X65147800Y45436715D01*
X65147800Y45436715D02*
X65185895Y45360525D01*
X65185895Y45360525D02*
X65185895Y45055763D01*
X65185895Y45055763D02*
X64385895Y45055763D01*
X64385895Y45055763D02*
X64385895Y45322429D01*
X64385895Y45322429D02*
X64423990Y45398620D01*
X64423990Y45398620D02*
X64462085Y45436715D01*
X64462085Y45436715D02*
X64538276Y45474810D01*
X64538276Y45474810D02*
X64614466Y45474810D01*
X64614466Y45474810D02*
X64690657Y45436715D01*
X64690657Y45436715D02*
X64728752Y45398620D01*
X64728752Y45398620D02*
X64766847Y45322429D01*
X64766847Y45322429D02*
X64766847Y45055763D01*
X64385895Y45741477D02*
X64385895Y46198620D01*
X65185895Y45970048D02*
X64385895Y45970048D01*
X65185895Y46884334D02*
X65185895Y46427191D01*
X65185895Y46655763D02*
X64385895Y46655763D01*
X64385895Y46655763D02*
X64500180Y46579572D01*
X64500180Y46579572D02*
X64576371Y46503382D01*
X64576371Y46503382D02*
X64614466Y46427191D01*
X128800895Y56239437D02*
X128419942Y55972770D01*
X128800895Y55782294D02*
X128000895Y55782294D01*
X128000895Y55782294D02*
X128000895Y56087056D01*
X128000895Y56087056D02*
X128038990Y56163246D01*
X128038990Y56163246D02*
X128077085Y56201341D01*
X128077085Y56201341D02*
X128153276Y56239437D01*
X128153276Y56239437D02*
X128267561Y56239437D01*
X128267561Y56239437D02*
X128343752Y56201341D01*
X128343752Y56201341D02*
X128381847Y56163246D01*
X128381847Y56163246D02*
X128419942Y56087056D01*
X128419942Y56087056D02*
X128419942Y55782294D01*
X128000895Y56925151D02*
X128000895Y56772770D01*
X128000895Y56772770D02*
X128038990Y56696579D01*
X128038990Y56696579D02*
X128077085Y56658484D01*
X128077085Y56658484D02*
X128191371Y56582294D01*
X128191371Y56582294D02*
X128343752Y56544198D01*
X128343752Y56544198D02*
X128648514Y56544198D01*
X128648514Y56544198D02*
X128724704Y56582294D01*
X128724704Y56582294D02*
X128762800Y56620389D01*
X128762800Y56620389D02*
X128800895Y56696579D01*
X128800895Y56696579D02*
X128800895Y56848960D01*
X128800895Y56848960D02*
X128762800Y56925151D01*
X128762800Y56925151D02*
X128724704Y56963246D01*
X128724704Y56963246D02*
X128648514Y57001341D01*
X128648514Y57001341D02*
X128458038Y57001341D01*
X128458038Y57001341D02*
X128381847Y56963246D01*
X128381847Y56963246D02*
X128343752Y56925151D01*
X128343752Y56925151D02*
X128305657Y56848960D01*
X128305657Y56848960D02*
X128305657Y56696579D01*
X128305657Y56696579D02*
X128343752Y56620389D01*
X128343752Y56620389D02*
X128381847Y56582294D01*
X128381847Y56582294D02*
X128458038Y56544198D01*
X128000895Y57268008D02*
X128000895Y57801342D01*
X128000895Y57801342D02*
X128800895Y57458484D01*
X128775895Y44056103D02*
X128394942Y43789436D01*
X128775895Y43598960D02*
X127975895Y43598960D01*
X127975895Y43598960D02*
X127975895Y43903722D01*
X127975895Y43903722D02*
X128013990Y43979912D01*
X128013990Y43979912D02*
X128052085Y44018007D01*
X128052085Y44018007D02*
X128128276Y44056103D01*
X128128276Y44056103D02*
X128242561Y44056103D01*
X128242561Y44056103D02*
X128318752Y44018007D01*
X128318752Y44018007D02*
X128356847Y43979912D01*
X128356847Y43979912D02*
X128394942Y43903722D01*
X128394942Y43903722D02*
X128394942Y43598960D01*
X127975895Y44741817D02*
X127975895Y44589436D01*
X127975895Y44589436D02*
X128013990Y44513245D01*
X128013990Y44513245D02*
X128052085Y44475150D01*
X128052085Y44475150D02*
X128166371Y44398960D01*
X128166371Y44398960D02*
X128318752Y44360864D01*
X128318752Y44360864D02*
X128623514Y44360864D01*
X128623514Y44360864D02*
X128699704Y44398960D01*
X128699704Y44398960D02*
X128737800Y44437055D01*
X128737800Y44437055D02*
X128775895Y44513245D01*
X128775895Y44513245D02*
X128775895Y44665626D01*
X128775895Y44665626D02*
X128737800Y44741817D01*
X128737800Y44741817D02*
X128699704Y44779912D01*
X128699704Y44779912D02*
X128623514Y44818007D01*
X128623514Y44818007D02*
X128433038Y44818007D01*
X128433038Y44818007D02*
X128356847Y44779912D01*
X128356847Y44779912D02*
X128318752Y44741817D01*
X128318752Y44741817D02*
X128280657Y44665626D01*
X128280657Y44665626D02*
X128280657Y44513245D01*
X128280657Y44513245D02*
X128318752Y44437055D01*
X128318752Y44437055D02*
X128356847Y44398960D01*
X128356847Y44398960D02*
X128433038Y44360864D01*
X127975895Y45084674D02*
X127975895Y45579912D01*
X127975895Y45579912D02*
X128280657Y45313246D01*
X128280657Y45313246D02*
X128280657Y45427531D01*
X128280657Y45427531D02*
X128318752Y45503722D01*
X128318752Y45503722D02*
X128356847Y45541817D01*
X128356847Y45541817D02*
X128433038Y45579912D01*
X128433038Y45579912D02*
X128623514Y45579912D01*
X128623514Y45579912D02*
X128699704Y45541817D01*
X128699704Y45541817D02*
X128737800Y45503722D01*
X128737800Y45503722D02*
X128775895Y45427531D01*
X128775895Y45427531D02*
X128775895Y45198960D01*
X128775895Y45198960D02*
X128737800Y45122769D01*
X128737800Y45122769D02*
X128699704Y45084674D01*
X128800895Y61056103D02*
X128419942Y60789436D01*
X128800895Y60598960D02*
X128000895Y60598960D01*
X128000895Y60598960D02*
X128000895Y60903722D01*
X128000895Y60903722D02*
X128038990Y60979912D01*
X128038990Y60979912D02*
X128077085Y61018007D01*
X128077085Y61018007D02*
X128153276Y61056103D01*
X128153276Y61056103D02*
X128267561Y61056103D01*
X128267561Y61056103D02*
X128343752Y61018007D01*
X128343752Y61018007D02*
X128381847Y60979912D01*
X128381847Y60979912D02*
X128419942Y60903722D01*
X128419942Y60903722D02*
X128419942Y60598960D01*
X128000895Y61741817D02*
X128000895Y61589436D01*
X128000895Y61589436D02*
X128038990Y61513245D01*
X128038990Y61513245D02*
X128077085Y61475150D01*
X128077085Y61475150D02*
X128191371Y61398960D01*
X128191371Y61398960D02*
X128343752Y61360864D01*
X128343752Y61360864D02*
X128648514Y61360864D01*
X128648514Y61360864D02*
X128724704Y61398960D01*
X128724704Y61398960D02*
X128762800Y61437055D01*
X128762800Y61437055D02*
X128800895Y61513245D01*
X128800895Y61513245D02*
X128800895Y61665626D01*
X128800895Y61665626D02*
X128762800Y61741817D01*
X128762800Y61741817D02*
X128724704Y61779912D01*
X128724704Y61779912D02*
X128648514Y61818007D01*
X128648514Y61818007D02*
X128458038Y61818007D01*
X128458038Y61818007D02*
X128381847Y61779912D01*
X128381847Y61779912D02*
X128343752Y61741817D01*
X128343752Y61741817D02*
X128305657Y61665626D01*
X128305657Y61665626D02*
X128305657Y61513245D01*
X128305657Y61513245D02*
X128343752Y61437055D01*
X128343752Y61437055D02*
X128381847Y61398960D01*
X128381847Y61398960D02*
X128458038Y61360864D01*
X128800895Y62198960D02*
X128800895Y62351341D01*
X128800895Y62351341D02*
X128762800Y62427531D01*
X128762800Y62427531D02*
X128724704Y62465627D01*
X128724704Y62465627D02*
X128610419Y62541817D01*
X128610419Y62541817D02*
X128458038Y62579912D01*
X128458038Y62579912D02*
X128153276Y62579912D01*
X128153276Y62579912D02*
X128077085Y62541817D01*
X128077085Y62541817D02*
X128038990Y62503722D01*
X128038990Y62503722D02*
X128000895Y62427531D01*
X128000895Y62427531D02*
X128000895Y62275150D01*
X128000895Y62275150D02*
X128038990Y62198960D01*
X128038990Y62198960D02*
X128077085Y62160865D01*
X128077085Y62160865D02*
X128153276Y62122769D01*
X128153276Y62122769D02*
X128343752Y62122769D01*
X128343752Y62122769D02*
X128419942Y62160865D01*
X128419942Y62160865D02*
X128458038Y62198960D01*
X128458038Y62198960D02*
X128496133Y62275150D01*
X128496133Y62275150D02*
X128496133Y62427531D01*
X128496133Y62427531D02*
X128458038Y62503722D01*
X128458038Y62503722D02*
X128419942Y62541817D01*
X128419942Y62541817D02*
X128343752Y62579912D01*
X131950895Y69435525D02*
X131150895Y69435525D01*
X131150895Y69435525D02*
X131150895Y69626001D01*
X131150895Y69626001D02*
X131188990Y69740287D01*
X131188990Y69740287D02*
X131265180Y69816477D01*
X131265180Y69816477D02*
X131341371Y69854572D01*
X131341371Y69854572D02*
X131493752Y69892668D01*
X131493752Y69892668D02*
X131608038Y69892668D01*
X131608038Y69892668D02*
X131760419Y69854572D01*
X131760419Y69854572D02*
X131836609Y69816477D01*
X131836609Y69816477D02*
X131912800Y69740287D01*
X131912800Y69740287D02*
X131950895Y69626001D01*
X131950895Y69626001D02*
X131950895Y69435525D01*
X131227085Y70197429D02*
X131188990Y70235525D01*
X131188990Y70235525D02*
X131150895Y70311715D01*
X131150895Y70311715D02*
X131150895Y70502191D01*
X131150895Y70502191D02*
X131188990Y70578382D01*
X131188990Y70578382D02*
X131227085Y70616477D01*
X131227085Y70616477D02*
X131303276Y70654572D01*
X131303276Y70654572D02*
X131379466Y70654572D01*
X131379466Y70654572D02*
X131493752Y70616477D01*
X131493752Y70616477D02*
X131950895Y70159334D01*
X131950895Y70159334D02*
X131950895Y70654572D01*
X76457428Y63311105D02*
X76914571Y63311105D01*
X76685999Y62511105D02*
X76685999Y63311105D01*
X77181238Y62511105D02*
X77181238Y63311105D01*
X77181238Y62930153D02*
X77638381Y62930153D01*
X77638381Y62511105D02*
X77638381Y63311105D01*
X77981237Y63234915D02*
X78019333Y63273010D01*
X78019333Y63273010D02*
X78095523Y63311105D01*
X78095523Y63311105D02*
X78285999Y63311105D01*
X78285999Y63311105D02*
X78362190Y63273010D01*
X78362190Y63273010D02*
X78400285Y63234915D01*
X78400285Y63234915D02*
X78438380Y63158724D01*
X78438380Y63158724D02*
X78438380Y63082534D01*
X78438380Y63082534D02*
X78400285Y62968248D01*
X78400285Y62968248D02*
X77943142Y62511105D01*
X77943142Y62511105D02*
X78438380Y62511105D01*
X128662800Y34459333D02*
X128700895Y34573619D01*
X128700895Y34573619D02*
X128700895Y34764095D01*
X128700895Y34764095D02*
X128662800Y34840286D01*
X128662800Y34840286D02*
X128624704Y34878381D01*
X128624704Y34878381D02*
X128548514Y34916476D01*
X128548514Y34916476D02*
X128472323Y34916476D01*
X128472323Y34916476D02*
X128396133Y34878381D01*
X128396133Y34878381D02*
X128358038Y34840286D01*
X128358038Y34840286D02*
X128319942Y34764095D01*
X128319942Y34764095D02*
X128281847Y34611714D01*
X128281847Y34611714D02*
X128243752Y34535524D01*
X128243752Y34535524D02*
X128205657Y34497429D01*
X128205657Y34497429D02*
X128129466Y34459333D01*
X128129466Y34459333D02*
X128053276Y34459333D01*
X128053276Y34459333D02*
X127977085Y34497429D01*
X127977085Y34497429D02*
X127938990Y34535524D01*
X127938990Y34535524D02*
X127900895Y34611714D01*
X127900895Y34611714D02*
X127900895Y34802191D01*
X127900895Y34802191D02*
X127938990Y34916476D01*
X127900895Y35183143D02*
X128700895Y35373619D01*
X128700895Y35373619D02*
X128129466Y35526000D01*
X128129466Y35526000D02*
X128700895Y35678381D01*
X128700895Y35678381D02*
X127900895Y35868857D01*
X127900895Y36097429D02*
X127900895Y36592667D01*
X127900895Y36592667D02*
X128205657Y36326001D01*
X128205657Y36326001D02*
X128205657Y36440286D01*
X128205657Y36440286D02*
X128243752Y36516477D01*
X128243752Y36516477D02*
X128281847Y36554572D01*
X128281847Y36554572D02*
X128358038Y36592667D01*
X128358038Y36592667D02*
X128548514Y36592667D01*
X128548514Y36592667D02*
X128624704Y36554572D01*
X128624704Y36554572D02*
X128662800Y36516477D01*
X128662800Y36516477D02*
X128700895Y36440286D01*
X128700895Y36440286D02*
X128700895Y36211715D01*
X128700895Y36211715D02*
X128662800Y36135524D01*
X128662800Y36135524D02*
X128624704Y36097429D01*
X54821428Y63735105D02*
X55278571Y63735105D01*
X55049999Y62935105D02*
X55049999Y63735105D01*
X55545238Y62935105D02*
X55545238Y63735105D01*
X55545238Y63354153D02*
X56002381Y63354153D01*
X56002381Y62935105D02*
X56002381Y63735105D01*
X56802380Y62935105D02*
X56345237Y62935105D01*
X56573809Y62935105D02*
X56573809Y63735105D01*
X56573809Y63735105D02*
X56497618Y63620820D01*
X56497618Y63620820D02*
X56421428Y63544629D01*
X56421428Y63544629D02*
X56345237Y63506534D01*
X128775895Y49156103D02*
X128394942Y48889436D01*
X128775895Y48698960D02*
X127975895Y48698960D01*
X127975895Y48698960D02*
X127975895Y49003722D01*
X127975895Y49003722D02*
X128013990Y49079912D01*
X128013990Y49079912D02*
X128052085Y49118007D01*
X128052085Y49118007D02*
X128128276Y49156103D01*
X128128276Y49156103D02*
X128242561Y49156103D01*
X128242561Y49156103D02*
X128318752Y49118007D01*
X128318752Y49118007D02*
X128356847Y49079912D01*
X128356847Y49079912D02*
X128394942Y49003722D01*
X128394942Y49003722D02*
X128394942Y48698960D01*
X127975895Y49841817D02*
X127975895Y49689436D01*
X127975895Y49689436D02*
X128013990Y49613245D01*
X128013990Y49613245D02*
X128052085Y49575150D01*
X128052085Y49575150D02*
X128166371Y49498960D01*
X128166371Y49498960D02*
X128318752Y49460864D01*
X128318752Y49460864D02*
X128623514Y49460864D01*
X128623514Y49460864D02*
X128699704Y49498960D01*
X128699704Y49498960D02*
X128737800Y49537055D01*
X128737800Y49537055D02*
X128775895Y49613245D01*
X128775895Y49613245D02*
X128775895Y49765626D01*
X128775895Y49765626D02*
X128737800Y49841817D01*
X128737800Y49841817D02*
X128699704Y49879912D01*
X128699704Y49879912D02*
X128623514Y49918007D01*
X128623514Y49918007D02*
X128433038Y49918007D01*
X128433038Y49918007D02*
X128356847Y49879912D01*
X128356847Y49879912D02*
X128318752Y49841817D01*
X128318752Y49841817D02*
X128280657Y49765626D01*
X128280657Y49765626D02*
X128280657Y49613245D01*
X128280657Y49613245D02*
X128318752Y49537055D01*
X128318752Y49537055D02*
X128356847Y49498960D01*
X128356847Y49498960D02*
X128433038Y49460864D01*
X127975895Y50641817D02*
X127975895Y50260865D01*
X127975895Y50260865D02*
X128356847Y50222769D01*
X128356847Y50222769D02*
X128318752Y50260865D01*
X128318752Y50260865D02*
X128280657Y50337055D01*
X128280657Y50337055D02*
X128280657Y50527531D01*
X128280657Y50527531D02*
X128318752Y50603722D01*
X128318752Y50603722D02*
X128356847Y50641817D01*
X128356847Y50641817D02*
X128433038Y50679912D01*
X128433038Y50679912D02*
X128623514Y50679912D01*
X128623514Y50679912D02*
X128699704Y50641817D01*
X128699704Y50641817D02*
X128737800Y50603722D01*
X128737800Y50603722D02*
X128775895Y50527531D01*
X128775895Y50527531D02*
X128775895Y50337055D01*
X128775895Y50337055D02*
X128737800Y50260865D01*
X128737800Y50260865D02*
X128699704Y50222769D01*
X133775895Y17260525D02*
X132975895Y17260525D01*
X132975895Y17260525D02*
X132975895Y17451001D01*
X132975895Y17451001D02*
X133013990Y17565287D01*
X133013990Y17565287D02*
X133090180Y17641477D01*
X133090180Y17641477D02*
X133166371Y17679572D01*
X133166371Y17679572D02*
X133318752Y17717668D01*
X133318752Y17717668D02*
X133433038Y17717668D01*
X133433038Y17717668D02*
X133585419Y17679572D01*
X133585419Y17679572D02*
X133661609Y17641477D01*
X133661609Y17641477D02*
X133737800Y17565287D01*
X133737800Y17565287D02*
X133775895Y17451001D01*
X133775895Y17451001D02*
X133775895Y17260525D01*
X133242561Y18403382D02*
X133775895Y18403382D01*
X132937800Y18212906D02*
X133509228Y18022429D01*
X133509228Y18022429D02*
X133509228Y18517668D01*
X130500895Y48873960D02*
X129700895Y48873960D01*
X129700895Y48873960D02*
X129700895Y49064436D01*
X129700895Y49064436D02*
X129738990Y49178722D01*
X129738990Y49178722D02*
X129815180Y49254912D01*
X129815180Y49254912D02*
X129891371Y49293007D01*
X129891371Y49293007D02*
X130043752Y49331103D01*
X130043752Y49331103D02*
X130158038Y49331103D01*
X130158038Y49331103D02*
X130310419Y49293007D01*
X130310419Y49293007D02*
X130386609Y49254912D01*
X130386609Y49254912D02*
X130462800Y49178722D01*
X130462800Y49178722D02*
X130500895Y49064436D01*
X130500895Y49064436D02*
X130500895Y48873960D01*
X130500895Y50093007D02*
X130500895Y49635864D01*
X130500895Y49864436D02*
X129700895Y49864436D01*
X129700895Y49864436D02*
X129815180Y49788245D01*
X129815180Y49788245D02*
X129891371Y49712055D01*
X129891371Y49712055D02*
X129929466Y49635864D01*
X129777085Y50397769D02*
X129738990Y50435865D01*
X129738990Y50435865D02*
X129700895Y50512055D01*
X129700895Y50512055D02*
X129700895Y50702531D01*
X129700895Y50702531D02*
X129738990Y50778722D01*
X129738990Y50778722D02*
X129777085Y50816817D01*
X129777085Y50816817D02*
X129853276Y50854912D01*
X129853276Y50854912D02*
X129929466Y50854912D01*
X129929466Y50854912D02*
X130043752Y50816817D01*
X130043752Y50816817D02*
X130500895Y50359674D01*
X130500895Y50359674D02*
X130500895Y50854912D01*
X130475895Y60099980D02*
X129675895Y60099980D01*
X129675895Y60099980D02*
X129675895Y60290456D01*
X129675895Y60290456D02*
X129713990Y60404742D01*
X129713990Y60404742D02*
X129790180Y60480932D01*
X129790180Y60480932D02*
X129866371Y60519027D01*
X129866371Y60519027D02*
X130018752Y60557123D01*
X130018752Y60557123D02*
X130133038Y60557123D01*
X130133038Y60557123D02*
X130285419Y60519027D01*
X130285419Y60519027D02*
X130361609Y60480932D01*
X130361609Y60480932D02*
X130437800Y60404742D01*
X130437800Y60404742D02*
X130475895Y60290456D01*
X130475895Y60290456D02*
X130475895Y60099980D01*
X130475895Y61319027D02*
X130475895Y60861884D01*
X130475895Y61090456D02*
X129675895Y61090456D01*
X129675895Y61090456D02*
X129790180Y61014265D01*
X129790180Y61014265D02*
X129866371Y60938075D01*
X129866371Y60938075D02*
X129904466Y60861884D01*
X129675895Y62004742D02*
X129675895Y61852361D01*
X129675895Y61852361D02*
X129713990Y61776170D01*
X129713990Y61776170D02*
X129752085Y61738075D01*
X129752085Y61738075D02*
X129866371Y61661885D01*
X129866371Y61661885D02*
X130018752Y61623789D01*
X130018752Y61623789D02*
X130323514Y61623789D01*
X130323514Y61623789D02*
X130399704Y61661885D01*
X130399704Y61661885D02*
X130437800Y61699980D01*
X130437800Y61699980D02*
X130475895Y61776170D01*
X130475895Y61776170D02*
X130475895Y61928551D01*
X130475895Y61928551D02*
X130437800Y62004742D01*
X130437800Y62004742D02*
X130399704Y62042837D01*
X130399704Y62042837D02*
X130323514Y62080932D01*
X130323514Y62080932D02*
X130133038Y62080932D01*
X130133038Y62080932D02*
X130056847Y62042837D01*
X130056847Y62042837D02*
X130018752Y62004742D01*
X130018752Y62004742D02*
X129980657Y61928551D01*
X129980657Y61928551D02*
X129980657Y61776170D01*
X129980657Y61776170D02*
X130018752Y61699980D01*
X130018752Y61699980D02*
X130056847Y61661885D01*
X130056847Y61661885D02*
X130133038Y61623789D01*
X130975895Y69561715D02*
X130594942Y69295048D01*
X130975895Y69104572D02*
X130175895Y69104572D01*
X130175895Y69104572D02*
X130175895Y69409334D01*
X130175895Y69409334D02*
X130213990Y69485524D01*
X130213990Y69485524D02*
X130252085Y69523619D01*
X130252085Y69523619D02*
X130328276Y69561715D01*
X130328276Y69561715D02*
X130442561Y69561715D01*
X130442561Y69561715D02*
X130518752Y69523619D01*
X130518752Y69523619D02*
X130556847Y69485524D01*
X130556847Y69485524D02*
X130594942Y69409334D01*
X130594942Y69409334D02*
X130594942Y69104572D01*
X130252085Y69866476D02*
X130213990Y69904572D01*
X130213990Y69904572D02*
X130175895Y69980762D01*
X130175895Y69980762D02*
X130175895Y70171238D01*
X130175895Y70171238D02*
X130213990Y70247429D01*
X130213990Y70247429D02*
X130252085Y70285524D01*
X130252085Y70285524D02*
X130328276Y70323619D01*
X130328276Y70323619D02*
X130404466Y70323619D01*
X130404466Y70323619D02*
X130518752Y70285524D01*
X130518752Y70285524D02*
X130975895Y69828381D01*
X130975895Y69828381D02*
X130975895Y70323619D01*
X130252085Y70628381D02*
X130213990Y70666477D01*
X130213990Y70666477D02*
X130175895Y70742667D01*
X130175895Y70742667D02*
X130175895Y70933143D01*
X130175895Y70933143D02*
X130213990Y71009334D01*
X130213990Y71009334D02*
X130252085Y71047429D01*
X130252085Y71047429D02*
X130328276Y71085524D01*
X130328276Y71085524D02*
X130404466Y71085524D01*
X130404466Y71085524D02*
X130518752Y71047429D01*
X130518752Y71047429D02*
X130975895Y70590286D01*
X130975895Y70590286D02*
X130975895Y71085524D01*
X131950895Y65910525D02*
X131150895Y65910525D01*
X131150895Y65910525D02*
X131150895Y66101001D01*
X131150895Y66101001D02*
X131188990Y66215287D01*
X131188990Y66215287D02*
X131265180Y66291477D01*
X131265180Y66291477D02*
X131341371Y66329572D01*
X131341371Y66329572D02*
X131493752Y66367668D01*
X131493752Y66367668D02*
X131608038Y66367668D01*
X131608038Y66367668D02*
X131760419Y66329572D01*
X131760419Y66329572D02*
X131836609Y66291477D01*
X131836609Y66291477D02*
X131912800Y66215287D01*
X131912800Y66215287D02*
X131950895Y66101001D01*
X131950895Y66101001D02*
X131950895Y65910525D01*
X131950895Y67129572D02*
X131950895Y66672429D01*
X131950895Y66901001D02*
X131150895Y66901001D01*
X131150895Y66901001D02*
X131265180Y66824810D01*
X131265180Y66824810D02*
X131341371Y66748620D01*
X131341371Y66748620D02*
X131379466Y66672429D01*
X133775895Y22810525D02*
X132975895Y22810525D01*
X132975895Y22810525D02*
X132975895Y23001001D01*
X132975895Y23001001D02*
X133013990Y23115287D01*
X133013990Y23115287D02*
X133090180Y23191477D01*
X133090180Y23191477D02*
X133166371Y23229572D01*
X133166371Y23229572D02*
X133318752Y23267668D01*
X133318752Y23267668D02*
X133433038Y23267668D01*
X133433038Y23267668D02*
X133585419Y23229572D01*
X133585419Y23229572D02*
X133661609Y23191477D01*
X133661609Y23191477D02*
X133737800Y23115287D01*
X133737800Y23115287D02*
X133775895Y23001001D01*
X133775895Y23001001D02*
X133775895Y22810525D01*
X132975895Y23534334D02*
X132975895Y24029572D01*
X132975895Y24029572D02*
X133280657Y23762906D01*
X133280657Y23762906D02*
X133280657Y23877191D01*
X133280657Y23877191D02*
X133318752Y23953382D01*
X133318752Y23953382D02*
X133356847Y23991477D01*
X133356847Y23991477D02*
X133433038Y24029572D01*
X133433038Y24029572D02*
X133623514Y24029572D01*
X133623514Y24029572D02*
X133699704Y23991477D01*
X133699704Y23991477D02*
X133737800Y23953382D01*
X133737800Y23953382D02*
X133775895Y23877191D01*
X133775895Y23877191D02*
X133775895Y23648620D01*
X133775895Y23648620D02*
X133737800Y23572429D01*
X133737800Y23572429D02*
X133699704Y23534334D01*
X130500895Y54448960D02*
X129700895Y54448960D01*
X129700895Y54448960D02*
X129700895Y54639436D01*
X129700895Y54639436D02*
X129738990Y54753722D01*
X129738990Y54753722D02*
X129815180Y54829912D01*
X129815180Y54829912D02*
X129891371Y54868007D01*
X129891371Y54868007D02*
X130043752Y54906103D01*
X130043752Y54906103D02*
X130158038Y54906103D01*
X130158038Y54906103D02*
X130310419Y54868007D01*
X130310419Y54868007D02*
X130386609Y54829912D01*
X130386609Y54829912D02*
X130462800Y54753722D01*
X130462800Y54753722D02*
X130500895Y54639436D01*
X130500895Y54639436D02*
X130500895Y54448960D01*
X130500895Y55668007D02*
X130500895Y55210864D01*
X130500895Y55439436D02*
X129700895Y55439436D01*
X129700895Y55439436D02*
X129815180Y55363245D01*
X129815180Y55363245D02*
X129891371Y55287055D01*
X129891371Y55287055D02*
X129929466Y55210864D01*
X129967561Y56353722D02*
X130500895Y56353722D01*
X129662800Y56163246D02*
X130234228Y55972769D01*
X130234228Y55972769D02*
X130234228Y56468008D01*
X128775895Y41506103D02*
X128394942Y41239436D01*
X128775895Y41048960D02*
X127975895Y41048960D01*
X127975895Y41048960D02*
X127975895Y41353722D01*
X127975895Y41353722D02*
X128013990Y41429912D01*
X128013990Y41429912D02*
X128052085Y41468007D01*
X128052085Y41468007D02*
X128128276Y41506103D01*
X128128276Y41506103D02*
X128242561Y41506103D01*
X128242561Y41506103D02*
X128318752Y41468007D01*
X128318752Y41468007D02*
X128356847Y41429912D01*
X128356847Y41429912D02*
X128394942Y41353722D01*
X128394942Y41353722D02*
X128394942Y41048960D01*
X127975895Y42191817D02*
X127975895Y42039436D01*
X127975895Y42039436D02*
X128013990Y41963245D01*
X128013990Y41963245D02*
X128052085Y41925150D01*
X128052085Y41925150D02*
X128166371Y41848960D01*
X128166371Y41848960D02*
X128318752Y41810864D01*
X128318752Y41810864D02*
X128623514Y41810864D01*
X128623514Y41810864D02*
X128699704Y41848960D01*
X128699704Y41848960D02*
X128737800Y41887055D01*
X128737800Y41887055D02*
X128775895Y41963245D01*
X128775895Y41963245D02*
X128775895Y42115626D01*
X128775895Y42115626D02*
X128737800Y42191817D01*
X128737800Y42191817D02*
X128699704Y42229912D01*
X128699704Y42229912D02*
X128623514Y42268007D01*
X128623514Y42268007D02*
X128433038Y42268007D01*
X128433038Y42268007D02*
X128356847Y42229912D01*
X128356847Y42229912D02*
X128318752Y42191817D01*
X128318752Y42191817D02*
X128280657Y42115626D01*
X128280657Y42115626D02*
X128280657Y41963245D01*
X128280657Y41963245D02*
X128318752Y41887055D01*
X128318752Y41887055D02*
X128356847Y41848960D01*
X128356847Y41848960D02*
X128433038Y41810864D01*
X128052085Y42572769D02*
X128013990Y42610865D01*
X128013990Y42610865D02*
X127975895Y42687055D01*
X127975895Y42687055D02*
X127975895Y42877531D01*
X127975895Y42877531D02*
X128013990Y42953722D01*
X128013990Y42953722D02*
X128052085Y42991817D01*
X128052085Y42991817D02*
X128128276Y43029912D01*
X128128276Y43029912D02*
X128204466Y43029912D01*
X128204466Y43029912D02*
X128318752Y42991817D01*
X128318752Y42991817D02*
X128775895Y42534674D01*
X128775895Y42534674D02*
X128775895Y43029912D01*
X128800895Y58647770D02*
X128419942Y58381103D01*
X128800895Y58190627D02*
X128000895Y58190627D01*
X128000895Y58190627D02*
X128000895Y58495389D01*
X128000895Y58495389D02*
X128038990Y58571579D01*
X128038990Y58571579D02*
X128077085Y58609674D01*
X128077085Y58609674D02*
X128153276Y58647770D01*
X128153276Y58647770D02*
X128267561Y58647770D01*
X128267561Y58647770D02*
X128343752Y58609674D01*
X128343752Y58609674D02*
X128381847Y58571579D01*
X128381847Y58571579D02*
X128419942Y58495389D01*
X128419942Y58495389D02*
X128419942Y58190627D01*
X128000895Y59333484D02*
X128000895Y59181103D01*
X128000895Y59181103D02*
X128038990Y59104912D01*
X128038990Y59104912D02*
X128077085Y59066817D01*
X128077085Y59066817D02*
X128191371Y58990627D01*
X128191371Y58990627D02*
X128343752Y58952531D01*
X128343752Y58952531D02*
X128648514Y58952531D01*
X128648514Y58952531D02*
X128724704Y58990627D01*
X128724704Y58990627D02*
X128762800Y59028722D01*
X128762800Y59028722D02*
X128800895Y59104912D01*
X128800895Y59104912D02*
X128800895Y59257293D01*
X128800895Y59257293D02*
X128762800Y59333484D01*
X128762800Y59333484D02*
X128724704Y59371579D01*
X128724704Y59371579D02*
X128648514Y59409674D01*
X128648514Y59409674D02*
X128458038Y59409674D01*
X128458038Y59409674D02*
X128381847Y59371579D01*
X128381847Y59371579D02*
X128343752Y59333484D01*
X128343752Y59333484D02*
X128305657Y59257293D01*
X128305657Y59257293D02*
X128305657Y59104912D01*
X128305657Y59104912D02*
X128343752Y59028722D01*
X128343752Y59028722D02*
X128381847Y58990627D01*
X128381847Y58990627D02*
X128458038Y58952531D01*
X128343752Y59866817D02*
X128305657Y59790627D01*
X128305657Y59790627D02*
X128267561Y59752532D01*
X128267561Y59752532D02*
X128191371Y59714436D01*
X128191371Y59714436D02*
X128153276Y59714436D01*
X128153276Y59714436D02*
X128077085Y59752532D01*
X128077085Y59752532D02*
X128038990Y59790627D01*
X128038990Y59790627D02*
X128000895Y59866817D01*
X128000895Y59866817D02*
X128000895Y60019198D01*
X128000895Y60019198D02*
X128038990Y60095389D01*
X128038990Y60095389D02*
X128077085Y60133484D01*
X128077085Y60133484D02*
X128153276Y60171579D01*
X128153276Y60171579D02*
X128191371Y60171579D01*
X128191371Y60171579D02*
X128267561Y60133484D01*
X128267561Y60133484D02*
X128305657Y60095389D01*
X128305657Y60095389D02*
X128343752Y60019198D01*
X128343752Y60019198D02*
X128343752Y59866817D01*
X128343752Y59866817D02*
X128381847Y59790627D01*
X128381847Y59790627D02*
X128419942Y59752532D01*
X128419942Y59752532D02*
X128496133Y59714436D01*
X128496133Y59714436D02*
X128648514Y59714436D01*
X128648514Y59714436D02*
X128724704Y59752532D01*
X128724704Y59752532D02*
X128762800Y59790627D01*
X128762800Y59790627D02*
X128800895Y59866817D01*
X128800895Y59866817D02*
X128800895Y60019198D01*
X128800895Y60019198D02*
X128762800Y60095389D01*
X128762800Y60095389D02*
X128724704Y60133484D01*
X128724704Y60133484D02*
X128648514Y60171579D01*
X128648514Y60171579D02*
X128496133Y60171579D01*
X128496133Y60171579D02*
X128419942Y60133484D01*
X128419942Y60133484D02*
X128381847Y60095389D01*
X128381847Y60095389D02*
X128343752Y60019198D01*
X130500895Y57248960D02*
X129700895Y57248960D01*
X129700895Y57248960D02*
X129700895Y57439436D01*
X129700895Y57439436D02*
X129738990Y57553722D01*
X129738990Y57553722D02*
X129815180Y57629912D01*
X129815180Y57629912D02*
X129891371Y57668007D01*
X129891371Y57668007D02*
X130043752Y57706103D01*
X130043752Y57706103D02*
X130158038Y57706103D01*
X130158038Y57706103D02*
X130310419Y57668007D01*
X130310419Y57668007D02*
X130386609Y57629912D01*
X130386609Y57629912D02*
X130462800Y57553722D01*
X130462800Y57553722D02*
X130500895Y57439436D01*
X130500895Y57439436D02*
X130500895Y57248960D01*
X130500895Y58468007D02*
X130500895Y58010864D01*
X130500895Y58239436D02*
X129700895Y58239436D01*
X129700895Y58239436D02*
X129815180Y58163245D01*
X129815180Y58163245D02*
X129891371Y58087055D01*
X129891371Y58087055D02*
X129929466Y58010864D01*
X129700895Y59191817D02*
X129700895Y58810865D01*
X129700895Y58810865D02*
X130081847Y58772769D01*
X130081847Y58772769D02*
X130043752Y58810865D01*
X130043752Y58810865D02*
X130005657Y58887055D01*
X130005657Y58887055D02*
X130005657Y59077531D01*
X130005657Y59077531D02*
X130043752Y59153722D01*
X130043752Y59153722D02*
X130081847Y59191817D01*
X130081847Y59191817D02*
X130158038Y59229912D01*
X130158038Y59229912D02*
X130348514Y59229912D01*
X130348514Y59229912D02*
X130424704Y59191817D01*
X130424704Y59191817D02*
X130462800Y59153722D01*
X130462800Y59153722D02*
X130500895Y59077531D01*
X130500895Y59077531D02*
X130500895Y58887055D01*
X130500895Y58887055D02*
X130462800Y58810865D01*
X130462800Y58810865D02*
X130424704Y58772769D01*
X130500895Y41079913D02*
X129700895Y41079913D01*
X129700895Y41079913D02*
X129700895Y41270389D01*
X129700895Y41270389D02*
X129738990Y41384675D01*
X129738990Y41384675D02*
X129815180Y41460865D01*
X129815180Y41460865D02*
X129891371Y41498960D01*
X129891371Y41498960D02*
X130043752Y41537056D01*
X130043752Y41537056D02*
X130158038Y41537056D01*
X130158038Y41537056D02*
X130310419Y41498960D01*
X130310419Y41498960D02*
X130386609Y41460865D01*
X130386609Y41460865D02*
X130462800Y41384675D01*
X130462800Y41384675D02*
X130500895Y41270389D01*
X130500895Y41270389D02*
X130500895Y41079913D01*
X130500895Y41918008D02*
X130500895Y42070389D01*
X130500895Y42070389D02*
X130462800Y42146579D01*
X130462800Y42146579D02*
X130424704Y42184675D01*
X130424704Y42184675D02*
X130310419Y42260865D01*
X130310419Y42260865D02*
X130158038Y42298960D01*
X130158038Y42298960D02*
X129853276Y42298960D01*
X129853276Y42298960D02*
X129777085Y42260865D01*
X129777085Y42260865D02*
X129738990Y42222770D01*
X129738990Y42222770D02*
X129700895Y42146579D01*
X129700895Y42146579D02*
X129700895Y41994198D01*
X129700895Y41994198D02*
X129738990Y41918008D01*
X129738990Y41918008D02*
X129777085Y41879913D01*
X129777085Y41879913D02*
X129853276Y41841817D01*
X129853276Y41841817D02*
X130043752Y41841817D01*
X130043752Y41841817D02*
X130119942Y41879913D01*
X130119942Y41879913D02*
X130158038Y41918008D01*
X130158038Y41918008D02*
X130196133Y41994198D01*
X130196133Y41994198D02*
X130196133Y42146579D01*
X130196133Y42146579D02*
X130158038Y42222770D01*
X130158038Y42222770D02*
X130119942Y42260865D01*
X130119942Y42260865D02*
X130043752Y42298960D01*
X130500895Y51723960D02*
X129700895Y51723960D01*
X129700895Y51723960D02*
X129700895Y51914436D01*
X129700895Y51914436D02*
X129738990Y52028722D01*
X129738990Y52028722D02*
X129815180Y52104912D01*
X129815180Y52104912D02*
X129891371Y52143007D01*
X129891371Y52143007D02*
X130043752Y52181103D01*
X130043752Y52181103D02*
X130158038Y52181103D01*
X130158038Y52181103D02*
X130310419Y52143007D01*
X130310419Y52143007D02*
X130386609Y52104912D01*
X130386609Y52104912D02*
X130462800Y52028722D01*
X130462800Y52028722D02*
X130500895Y51914436D01*
X130500895Y51914436D02*
X130500895Y51723960D01*
X130500895Y52943007D02*
X130500895Y52485864D01*
X130500895Y52714436D02*
X129700895Y52714436D01*
X129700895Y52714436D02*
X129815180Y52638245D01*
X129815180Y52638245D02*
X129891371Y52562055D01*
X129891371Y52562055D02*
X129929466Y52485864D01*
X129700895Y53209674D02*
X129700895Y53704912D01*
X129700895Y53704912D02*
X130005657Y53438246D01*
X130005657Y53438246D02*
X130005657Y53552531D01*
X130005657Y53552531D02*
X130043752Y53628722D01*
X130043752Y53628722D02*
X130081847Y53666817D01*
X130081847Y53666817D02*
X130158038Y53704912D01*
X130158038Y53704912D02*
X130348514Y53704912D01*
X130348514Y53704912D02*
X130424704Y53666817D01*
X130424704Y53666817D02*
X130462800Y53628722D01*
X130462800Y53628722D02*
X130500895Y53552531D01*
X130500895Y53552531D02*
X130500895Y53323960D01*
X130500895Y53323960D02*
X130462800Y53247769D01*
X130462800Y53247769D02*
X130424704Y53209674D01*
X130500895Y46148960D02*
X129700895Y46148960D01*
X129700895Y46148960D02*
X129700895Y46339436D01*
X129700895Y46339436D02*
X129738990Y46453722D01*
X129738990Y46453722D02*
X129815180Y46529912D01*
X129815180Y46529912D02*
X129891371Y46568007D01*
X129891371Y46568007D02*
X130043752Y46606103D01*
X130043752Y46606103D02*
X130158038Y46606103D01*
X130158038Y46606103D02*
X130310419Y46568007D01*
X130310419Y46568007D02*
X130386609Y46529912D01*
X130386609Y46529912D02*
X130462800Y46453722D01*
X130462800Y46453722D02*
X130500895Y46339436D01*
X130500895Y46339436D02*
X130500895Y46148960D01*
X130500895Y47368007D02*
X130500895Y46910864D01*
X130500895Y47139436D02*
X129700895Y47139436D01*
X129700895Y47139436D02*
X129815180Y47063245D01*
X129815180Y47063245D02*
X129891371Y46987055D01*
X129891371Y46987055D02*
X129929466Y46910864D01*
X130500895Y48129912D02*
X130500895Y47672769D01*
X130500895Y47901341D02*
X129700895Y47901341D01*
X129700895Y47901341D02*
X129815180Y47825150D01*
X129815180Y47825150D02*
X129891371Y47748960D01*
X129891371Y47748960D02*
X129929466Y47672769D01*
X128775895Y46606103D02*
X128394942Y46339436D01*
X128775895Y46148960D02*
X127975895Y46148960D01*
X127975895Y46148960D02*
X127975895Y46453722D01*
X127975895Y46453722D02*
X128013990Y46529912D01*
X128013990Y46529912D02*
X128052085Y46568007D01*
X128052085Y46568007D02*
X128128276Y46606103D01*
X128128276Y46606103D02*
X128242561Y46606103D01*
X128242561Y46606103D02*
X128318752Y46568007D01*
X128318752Y46568007D02*
X128356847Y46529912D01*
X128356847Y46529912D02*
X128394942Y46453722D01*
X128394942Y46453722D02*
X128394942Y46148960D01*
X127975895Y47291817D02*
X127975895Y47139436D01*
X127975895Y47139436D02*
X128013990Y47063245D01*
X128013990Y47063245D02*
X128052085Y47025150D01*
X128052085Y47025150D02*
X128166371Y46948960D01*
X128166371Y46948960D02*
X128318752Y46910864D01*
X128318752Y46910864D02*
X128623514Y46910864D01*
X128623514Y46910864D02*
X128699704Y46948960D01*
X128699704Y46948960D02*
X128737800Y46987055D01*
X128737800Y46987055D02*
X128775895Y47063245D01*
X128775895Y47063245D02*
X128775895Y47215626D01*
X128775895Y47215626D02*
X128737800Y47291817D01*
X128737800Y47291817D02*
X128699704Y47329912D01*
X128699704Y47329912D02*
X128623514Y47368007D01*
X128623514Y47368007D02*
X128433038Y47368007D01*
X128433038Y47368007D02*
X128356847Y47329912D01*
X128356847Y47329912D02*
X128318752Y47291817D01*
X128318752Y47291817D02*
X128280657Y47215626D01*
X128280657Y47215626D02*
X128280657Y47063245D01*
X128280657Y47063245D02*
X128318752Y46987055D01*
X128318752Y46987055D02*
X128356847Y46948960D01*
X128356847Y46948960D02*
X128433038Y46910864D01*
X128242561Y48053722D02*
X128775895Y48053722D01*
X127937800Y47863246D02*
X128509228Y47672769D01*
X128509228Y47672769D02*
X128509228Y48168008D01*
X133775895Y20035525D02*
X132975895Y20035525D01*
X132975895Y20035525D02*
X132975895Y20226001D01*
X132975895Y20226001D02*
X133013990Y20340287D01*
X133013990Y20340287D02*
X133090180Y20416477D01*
X133090180Y20416477D02*
X133166371Y20454572D01*
X133166371Y20454572D02*
X133318752Y20492668D01*
X133318752Y20492668D02*
X133433038Y20492668D01*
X133433038Y20492668D02*
X133585419Y20454572D01*
X133585419Y20454572D02*
X133661609Y20416477D01*
X133661609Y20416477D02*
X133737800Y20340287D01*
X133737800Y20340287D02*
X133775895Y20226001D01*
X133775895Y20226001D02*
X133775895Y20035525D01*
X132975895Y21216477D02*
X132975895Y20835525D01*
X132975895Y20835525D02*
X133356847Y20797429D01*
X133356847Y20797429D02*
X133318752Y20835525D01*
X133318752Y20835525D02*
X133280657Y20911715D01*
X133280657Y20911715D02*
X133280657Y21102191D01*
X133280657Y21102191D02*
X133318752Y21178382D01*
X133318752Y21178382D02*
X133356847Y21216477D01*
X133356847Y21216477D02*
X133433038Y21254572D01*
X133433038Y21254572D02*
X133623514Y21254572D01*
X133623514Y21254572D02*
X133699704Y21216477D01*
X133699704Y21216477D02*
X133737800Y21178382D01*
X133737800Y21178382D02*
X133775895Y21102191D01*
X133775895Y21102191D02*
X133775895Y20911715D01*
X133775895Y20911715D02*
X133737800Y20835525D01*
X133737800Y20835525D02*
X133699704Y20797429D01*
X128800895Y53831104D02*
X128419942Y53564437D01*
X128800895Y53373961D02*
X128000895Y53373961D01*
X128000895Y53373961D02*
X128000895Y53678723D01*
X128000895Y53678723D02*
X128038990Y53754913D01*
X128038990Y53754913D02*
X128077085Y53793008D01*
X128077085Y53793008D02*
X128153276Y53831104D01*
X128153276Y53831104D02*
X128267561Y53831104D01*
X128267561Y53831104D02*
X128343752Y53793008D01*
X128343752Y53793008D02*
X128381847Y53754913D01*
X128381847Y53754913D02*
X128419942Y53678723D01*
X128419942Y53678723D02*
X128419942Y53373961D01*
X128000895Y54516818D02*
X128000895Y54364437D01*
X128000895Y54364437D02*
X128038990Y54288246D01*
X128038990Y54288246D02*
X128077085Y54250151D01*
X128077085Y54250151D02*
X128191371Y54173961D01*
X128191371Y54173961D02*
X128343752Y54135865D01*
X128343752Y54135865D02*
X128648514Y54135865D01*
X128648514Y54135865D02*
X128724704Y54173961D01*
X128724704Y54173961D02*
X128762800Y54212056D01*
X128762800Y54212056D02*
X128800895Y54288246D01*
X128800895Y54288246D02*
X128800895Y54440627D01*
X128800895Y54440627D02*
X128762800Y54516818D01*
X128762800Y54516818D02*
X128724704Y54554913D01*
X128724704Y54554913D02*
X128648514Y54593008D01*
X128648514Y54593008D02*
X128458038Y54593008D01*
X128458038Y54593008D02*
X128381847Y54554913D01*
X128381847Y54554913D02*
X128343752Y54516818D01*
X128343752Y54516818D02*
X128305657Y54440627D01*
X128305657Y54440627D02*
X128305657Y54288246D01*
X128305657Y54288246D02*
X128343752Y54212056D01*
X128343752Y54212056D02*
X128381847Y54173961D01*
X128381847Y54173961D02*
X128458038Y54135865D01*
X128000895Y55278723D02*
X128000895Y55126342D01*
X128000895Y55126342D02*
X128038990Y55050151D01*
X128038990Y55050151D02*
X128077085Y55012056D01*
X128077085Y55012056D02*
X128191371Y54935866D01*
X128191371Y54935866D02*
X128343752Y54897770D01*
X128343752Y54897770D02*
X128648514Y54897770D01*
X128648514Y54897770D02*
X128724704Y54935866D01*
X128724704Y54935866D02*
X128762800Y54973961D01*
X128762800Y54973961D02*
X128800895Y55050151D01*
X128800895Y55050151D02*
X128800895Y55202532D01*
X128800895Y55202532D02*
X128762800Y55278723D01*
X128762800Y55278723D02*
X128724704Y55316818D01*
X128724704Y55316818D02*
X128648514Y55354913D01*
X128648514Y55354913D02*
X128458038Y55354913D01*
X128458038Y55354913D02*
X128381847Y55316818D01*
X128381847Y55316818D02*
X128343752Y55278723D01*
X128343752Y55278723D02*
X128305657Y55202532D01*
X128305657Y55202532D02*
X128305657Y55050151D01*
X128305657Y55050151D02*
X128343752Y54973961D01*
X128343752Y54973961D02*
X128381847Y54935866D01*
X128381847Y54935866D02*
X128458038Y54897770D01*
X14971104Y24412667D02*
X14399676Y24412667D01*
X14399676Y24412667D02*
X14285390Y24450762D01*
X14285390Y24450762D02*
X14209200Y24526953D01*
X14209200Y24526953D02*
X14171104Y24641238D01*
X14171104Y24641238D02*
X14171104Y24717429D01*
X14704438Y23688857D02*
X14171104Y23688857D01*
X15009200Y23879333D02*
X14437771Y24069810D01*
X14437771Y24069810D02*
X14437771Y23574571D01*
X128762800Y27109333D02*
X128800895Y27223619D01*
X128800895Y27223619D02*
X128800895Y27414095D01*
X128800895Y27414095D02*
X128762800Y27490286D01*
X128762800Y27490286D02*
X128724704Y27528381D01*
X128724704Y27528381D02*
X128648514Y27566476D01*
X128648514Y27566476D02*
X128572323Y27566476D01*
X128572323Y27566476D02*
X128496133Y27528381D01*
X128496133Y27528381D02*
X128458038Y27490286D01*
X128458038Y27490286D02*
X128419942Y27414095D01*
X128419942Y27414095D02*
X128381847Y27261714D01*
X128381847Y27261714D02*
X128343752Y27185524D01*
X128343752Y27185524D02*
X128305657Y27147429D01*
X128305657Y27147429D02*
X128229466Y27109333D01*
X128229466Y27109333D02*
X128153276Y27109333D01*
X128153276Y27109333D02*
X128077085Y27147429D01*
X128077085Y27147429D02*
X128038990Y27185524D01*
X128038990Y27185524D02*
X128000895Y27261714D01*
X128000895Y27261714D02*
X128000895Y27452191D01*
X128000895Y27452191D02*
X128038990Y27566476D01*
X128000895Y27833143D02*
X128800895Y28023619D01*
X128800895Y28023619D02*
X128229466Y28176000D01*
X128229466Y28176000D02*
X128800895Y28328381D01*
X128800895Y28328381D02*
X128000895Y28518857D01*
X128800895Y29242667D02*
X128800895Y28785524D01*
X128800895Y29014096D02*
X128000895Y29014096D01*
X128000895Y29014096D02*
X128115180Y28937905D01*
X128115180Y28937905D02*
X128191371Y28861715D01*
X128191371Y28861715D02*
X128229466Y28785524D01*
X130500895Y43448960D02*
X129700895Y43448960D01*
X129700895Y43448960D02*
X129700895Y43639436D01*
X129700895Y43639436D02*
X129738990Y43753722D01*
X129738990Y43753722D02*
X129815180Y43829912D01*
X129815180Y43829912D02*
X129891371Y43868007D01*
X129891371Y43868007D02*
X130043752Y43906103D01*
X130043752Y43906103D02*
X130158038Y43906103D01*
X130158038Y43906103D02*
X130310419Y43868007D01*
X130310419Y43868007D02*
X130386609Y43829912D01*
X130386609Y43829912D02*
X130462800Y43753722D01*
X130462800Y43753722D02*
X130500895Y43639436D01*
X130500895Y43639436D02*
X130500895Y43448960D01*
X130500895Y44668007D02*
X130500895Y44210864D01*
X130500895Y44439436D02*
X129700895Y44439436D01*
X129700895Y44439436D02*
X129815180Y44363245D01*
X129815180Y44363245D02*
X129891371Y44287055D01*
X129891371Y44287055D02*
X129929466Y44210864D01*
X129700895Y45163246D02*
X129700895Y45239436D01*
X129700895Y45239436D02*
X129738990Y45315627D01*
X129738990Y45315627D02*
X129777085Y45353722D01*
X129777085Y45353722D02*
X129853276Y45391817D01*
X129853276Y45391817D02*
X130005657Y45429912D01*
X130005657Y45429912D02*
X130196133Y45429912D01*
X130196133Y45429912D02*
X130348514Y45391817D01*
X130348514Y45391817D02*
X130424704Y45353722D01*
X130424704Y45353722D02*
X130462800Y45315627D01*
X130462800Y45315627D02*
X130500895Y45239436D01*
X130500895Y45239436D02*
X130500895Y45163246D01*
X130500895Y45163246D02*
X130462800Y45087055D01*
X130462800Y45087055D02*
X130424704Y45048960D01*
X130424704Y45048960D02*
X130348514Y45010865D01*
X130348514Y45010865D02*
X130196133Y44972769D01*
X130196133Y44972769D02*
X130005657Y44972769D01*
X130005657Y44972769D02*
X129853276Y45010865D01*
X129853276Y45010865D02*
X129777085Y45048960D01*
X129777085Y45048960D02*
X129738990Y45087055D01*
X129738990Y45087055D02*
X129700895Y45163246D01*
%TO.C,R16*%
X132151000Y66236436D02*
X132151000Y66690564D01*
X133621000Y66236436D02*
X133621000Y66690564D01*
%TO.C,BT1*%
X26031000Y4076000D02*
X26031000Y81776000D01*
X66241000Y4076000D02*
X26031000Y4076000D01*
X26031000Y81776000D02*
X66241000Y81776000D01*
X66241000Y81776000D02*
X66241000Y4076000D01*
%TO.C,R67*%
X132425564Y56585388D02*
X131971436Y56585388D01*
X132425564Y58055388D02*
X131971436Y58055388D01*
%TO.C,R63*%
X132463064Y44510388D02*
X132008936Y44510388D01*
X132463064Y45980388D02*
X132008936Y45980388D01*
%TO.C,R69*%
X132425564Y60510388D02*
X131971436Y60510388D01*
X132425564Y61980388D02*
X131971436Y61980388D01*
%TO.C,D2*%
X135261000Y71226000D02*
X135261000Y68826000D01*
X135861000Y70526000D02*
X135261000Y70726000D01*
D12*
X134261000Y70226000D02*
X135061000Y70226000D01*
D13*
X135861000Y69526000D02*
X135861000Y70526000D01*
X135261000Y69326000D02*
X135861000Y69526000D01*
%TO.C,TH2*%
X77258936Y61961000D02*
X77713064Y61961000D01*
X77258936Y60491000D02*
X77713064Y60491000D01*
%TO.C,SW3*%
X127556000Y33276000D02*
X129036000Y33276000D01*
X127556000Y33276000D02*
X127556000Y37776000D01*
X130936000Y34426000D02*
X130936000Y36626000D01*
X131761000Y34526000D02*
X130136000Y34526000D01*
X131786000Y34526000D02*
X131786000Y36526000D01*
X131761000Y36526000D02*
X130136000Y36526000D01*
X127556000Y37776000D02*
X129036000Y37776000D01*
%TO.C,TH1*%
X56113064Y60491000D02*
X55658936Y60491000D01*
X56113064Y61961000D02*
X55658936Y61961000D01*
%TO.C,R65*%
X132413064Y48410388D02*
X131958936Y48410388D01*
X132413064Y49880388D02*
X131958936Y49880388D01*
%TO.C,D4*%
X135311000Y19051000D02*
X135311000Y16651000D01*
X135911000Y18351000D02*
X135311000Y18551000D01*
D12*
X134311000Y18051000D02*
X135111000Y18051000D01*
D13*
X135911000Y17351000D02*
X135911000Y18351000D01*
X135311000Y17151000D02*
X135911000Y17351000D01*
%TO.C,D12*%
X135211000Y51128041D02*
X135211000Y48728041D01*
X135811000Y50428041D02*
X135211000Y50628041D01*
D12*
X134211000Y50128041D02*
X135011000Y50128041D01*
D13*
X135811000Y49428041D02*
X135811000Y50428041D01*
X135211000Y49228041D02*
X135811000Y49428041D01*
%TO.C,BT2*%
X66941000Y4076000D02*
X66941000Y81776000D01*
X126631000Y4076000D02*
X66941000Y4076000D01*
X66941000Y81776000D02*
X126631000Y81776000D01*
X126631000Y81776000D02*
X126631000Y4076000D01*
%TO.C,D16*%
X135211000Y62197430D02*
X135211000Y59797430D01*
X135811000Y61497430D02*
X135211000Y61697430D01*
D12*
X134211000Y61197430D02*
X135011000Y61197430D01*
D13*
X135811000Y60497430D02*
X135811000Y61497430D01*
X135211000Y60297430D02*
X135811000Y60497430D01*
%TO.C,R22*%
X133621000Y70128064D02*
X133621000Y69673936D01*
X132151000Y70128064D02*
X132151000Y69673936D01*
%TO.C,D1*%
X135161000Y67326000D02*
X135161000Y64926000D01*
X135761000Y66626000D02*
X135161000Y66826000D01*
D12*
X134161000Y66326000D02*
X134961000Y66326000D01*
D13*
X135761000Y65626000D02*
X135761000Y66626000D01*
X135161000Y65426000D02*
X135761000Y65626000D01*
%TO.C,D3*%
X135311000Y24601000D02*
X135311000Y22201000D01*
X135911000Y23901000D02*
X135311000Y24101000D01*
D12*
X134311000Y23601000D02*
X135111000Y23601000D01*
D13*
X135911000Y22901000D02*
X135911000Y23901000D01*
X135311000Y22701000D02*
X135911000Y22901000D01*
%TO.C,D14*%
X135211000Y56662735D02*
X135211000Y54262735D01*
X135811000Y55962735D02*
X135211000Y56162735D01*
D12*
X134211000Y55662735D02*
X135011000Y55662735D01*
D13*
X135811000Y54962735D02*
X135811000Y55962735D01*
X135211000Y54762735D02*
X135811000Y54962735D01*
%TO.C,R62*%
X132488064Y42560388D02*
X132033936Y42560388D01*
X132488064Y44030388D02*
X132033936Y44030388D01*
%TO.C,R68*%
X132425564Y58560388D02*
X131971436Y58560388D01*
X132425564Y60030388D02*
X131971436Y60030388D01*
%TO.C,D15*%
X135211000Y59430082D02*
X135211000Y57030082D01*
X135811000Y58730082D02*
X135211000Y58930082D01*
D12*
X134211000Y58430082D02*
X135011000Y58430082D01*
D13*
X135811000Y57730082D02*
X135811000Y58730082D01*
X135211000Y57530082D02*
X135811000Y57730082D01*
%TO.C,D9*%
X135211000Y42826000D02*
X135211000Y40426000D01*
X135811000Y42126000D02*
X135211000Y42326000D01*
D12*
X134211000Y41826000D02*
X135011000Y41826000D01*
D13*
X135811000Y41126000D02*
X135811000Y42126000D01*
X135211000Y40926000D02*
X135811000Y41126000D01*
%TO.C,D13*%
X135211000Y53895388D02*
X135211000Y51495388D01*
X135811000Y53195388D02*
X135211000Y53395388D01*
D12*
X134211000Y52895388D02*
X135011000Y52895388D01*
D13*
X135811000Y52195388D02*
X135811000Y53195388D01*
X135211000Y51995388D02*
X135811000Y52195388D01*
%TO.C,D11*%
X135211000Y48360694D02*
X135211000Y45960694D01*
X135811000Y47660694D02*
X135211000Y47860694D01*
D12*
X134211000Y47360694D02*
X135011000Y47360694D01*
D13*
X135811000Y46660694D02*
X135811000Y47660694D01*
X135211000Y46460694D02*
X135811000Y46660694D01*
%TO.C,R64*%
X132438064Y46460388D02*
X131983936Y46460388D01*
X132438064Y47930388D02*
X131983936Y47930388D01*
%TO.C,D5*%
X135311000Y21826000D02*
X135311000Y19426000D01*
X135911000Y21126000D02*
X135311000Y21326000D01*
D12*
X134311000Y20826000D02*
X135111000Y20826000D01*
D13*
X135911000Y20126000D02*
X135911000Y21126000D01*
X135311000Y19926000D02*
X135911000Y20126000D01*
%TO.C,R66*%
X132413064Y54660388D02*
X131958936Y54660388D01*
X132413064Y56130388D02*
X131958936Y56130388D01*
%TO.C,J4*%
X24936000Y70547000D02*
X9736000Y70547000D01*
X9736000Y70547000D02*
X9736000Y15337000D01*
X9736000Y15337000D02*
X24936000Y15337000D01*
X24936000Y15337000D02*
X24936000Y70547000D01*
X24936000Y70531000D02*
X-64000Y70531000D01*
X-64000Y70531000D02*
X-64000Y15321000D01*
X-64000Y15321000D02*
X24936000Y15321000D01*
X24936000Y15321000D02*
X24936000Y70531000D01*
%TO.C,SW1*%
X127656000Y25926000D02*
X129136000Y25926000D01*
X127656000Y25926000D02*
X127656000Y30426000D01*
X131036000Y27076000D02*
X131036000Y29276000D01*
X131861000Y27176000D02*
X130236000Y27176000D01*
X131886000Y27176000D02*
X131886000Y29176000D01*
X131861000Y29176000D02*
X130236000Y29176000D01*
X127656000Y30426000D02*
X129136000Y30426000D01*
%TO.C,D10*%
X135211000Y45593347D02*
X135211000Y43193347D01*
X135811000Y44893347D02*
X135211000Y45093347D01*
D12*
X134211000Y44593347D02*
X135011000Y44593347D01*
D13*
X135811000Y43893347D02*
X135811000Y44893347D01*
X135211000Y43693347D02*
X135811000Y43893347D01*
%TD*%
M02*
